<svg id="Layer_1" data-name="Layer 1" xmlns="http://www.w3.org/2000/svg" viewBox="0 0 1263.93 630.05"><defs><style>.cls-1{fill:#6e6efe;}</style></defs><path class="cls-1" d="M950.17,523.84-311.8,78l-.61,1.26L889,705.81a8.35,8.35,0,0,1-6.31.18q-67.08-20.09-134.16-40.19L353.22,547.31,12.94,445.3q-122.55-36.74-245.09-73.49c-1.07-.32-2.35-.31-3.25-1.76-25.1,80.7-50.13,161.16-75.34,242.23-.09.08-.67-.27-1.41-.61.58-5.22,2.54-10.1,4.09-15.07q37-119.07,74.1-238.12c.35-1.1.17-3.2,2.72-2.11-.58,4.25-1.16,8.51-1.76,12.95L872.64,700.81c-.16-1.74-1.35-1.81-2.11-2.21Q748.66,635,626.76,571.43L207,352.5-82.89,201.34Q-197.13,141.75-311.42,82.22c-2.79-1.45-1.88-3.39-2.09-5.46a9.21,9.21,0,0,1,5.7.39q210.9,74.54,421.81,149,198.69,70.19,397.38,140.37Q729.81,443.76,948.21,521C949.33,521.41,951.07,521.46,950.17,523.84Zm-76,177.21c-.21-.53-.58-1.19-1.14-.25Z" transform="translate(313.51 -76.47)"/></svg>