<svg id="Layer_1" data-name="Layer 1" xmlns="http://www.w3.org/2000/svg" viewBox="0 0 1264.11 631.05"><defs><style>.cls-1{fill:#47b779;}</style></defs><path class="cls-1" d="M880.7,709.5Q280.17,662.67-320.45,615c1.76-9,4.87-17.26,7.49-25.7q34.08-109.86,68.2-219.71a6.92,6.92,0,0,0-.11-4.13q-37.63-140-75.24-280.06c-.58-2.16-2.23-4.11-1.1-6.72.46-.27,1.36-.33,1.43.4.31,3.12,2.87,3.27,5,4L91.39,225.45,671.83,428.94l268,94,2.58.94a13.18,13.18,0,0,1-.35,5.74q-30.18,88.56-60.33,177.13c-.19.54-.41,1.07-.62,1.6S880.83,709.11,880.7,709.5ZM-318,613.07,879.25,707.43c20.68-60.73,41.25-121.18,61.92-181.92L-318.33,84.09c25.11,93.4,50,186.15,75.2,279.79.87-2.55,1.42-4.17,2-5.76,1.83-.11,1.84.78,1.48,2.05-1.1,3.84-3.24,7.54-1.4,11.78.26.61-.28,1.6-.54,2.38q-29.88,92.88-59.76,185.75C-307,577.73-312.48,595.45-318,613.07Z" transform="translate(321.59 -78.45)"/></svg>