<svg id="Layer_1" data-name="Layer 1" xmlns="http://www.w3.org/2000/svg" viewBox="0 0 1264.02 630.05"><defs><style>.cls-1{fill:#6d6ffc;}.cls-2{fill:#47b779;}</style></defs><path class="cls-1" d="M-95.92,152.93q8.24-11.87,16.47-23.73c.73-1,1.76-.65,2.73-.65q-.94,5.47-1.87,10.94c-1.16,5.4-2.32,10.8-3.53,16.41l3.65,1.27,2.19.81c.84.36,1.67.75,2.52,1.07L249.52,282.21Q538.75,392.4,828,502.56c.8.3,1.57,1,2.54.42h0c0,.79.49.71,1,.5h0A.93.93,0,0,0,833,504h0c.06.73.53.64,1,.51l0,0c.31.75.86.79,1.52.52l0,0c.08.71.56.6,1,.52l0,0a9.55,9.55,0,0,0,5.54,2l0,0c.55,1.08,1.54,1.07,2.54,1l0,0c.58,1,1.56,1,2.54,1l0,0,1,.68c2.16.76,4.35,1.48,6.49,2.31,14.09,5.44,28.13,11,42.26,16.32C902.48,531,908,533.64,914,535h0a2.48,2.48,0,0,0,2.53,1l0,0c.57,1,1.66.88,2.52,1.26,6.39,1.62,12.21,4.73,18.37,6.94,1.47.52,1.12,1.58,1,2.78l-42.78,12L582.75,646.86,311.67,723l-124,34.8a17.41,17.41,0,0,1-12.78-1C92.05,717.4,9.07,678.35-73.66,638.76c-55.57-26.6-110.79-54-166.16-81C-262.24,546.87-284.68,536-307,525a23.1,23.1,0,0,0-10.52-2.5c-2.56,0-5.13-.25-7.62-.38-.72-1.9-.1-3.19,1-4.52q25.8-32,51.53-64c1-1.29,1.94-2.69,2.92-4,.54-.11.86-.4.77-1l0,0A45.52,45.52,0,0,0-260.75,438l.76-.57,0,0c.44-.21.74-.49.52-1l0,0c.57-.14,1.09-.31.51-1h0c2.13-.36,2.73-2.38,3.82-3.74q76.6-95.14,153.13-190.33a10.33,10.33,0,0,0,2-4.71c1.61-8.25,3.25-16.49,4.84-24.74q4-20.7,8-41.4c.25-1.18.49-2.35.74-3.52.71-3.2,1.41-6.4,2.16-9.79l-8-2.77ZM-272,456.53l0,0-.52.54,0,0a.72.72,0,0,0-.52,1h0c-3.6,2.82-5.81,6.75-8.26,10.48-.94-.08-1.24.74-1.68,1.28q-14.55,18.06-29.08,36.14c-3.8,4.74-7.59,9.5-11.66,14.6h12l5,2.07c.87.47,1.71,1,2.6,1.42q94.83,46.23,189.67,92.45c13.91,6.77,27.86,13.45,41.78,20.18l2.1,1.32c.43.24.86.51,1.3.72q111.3,52.8,222.61,105.57c8.33,4,16.74,7.76,25.11,11.63a3.66,3.66,0,0,0,3,1.19c.65-.12,1.31-.19,1.95-.36l147.08-41.27,280-78.58q141.3-39.68,282.6-79.38c12.49-3.51,25-7.13,37.39-10.69,1.24-.37,2.66-.17,4.09-1.39l-3.24-.91c-1-.48-2.06-1-3.13-1.43L744.21,473,368.64,329.88Q176.3,256.62-16,183.36q-30.09-11.46-60.23-22.81l-2-.69a9.22,9.22,0,0,0-4.18-1.51c-.82,4.29-1.63,8.54-2.44,12.8l-.57,3.57c-1.93,9.43-3.9,18.85-5.77,28.29-2.45,12.45-4.83,24.93-7.24,37.4l-1.14,1.79c-.88,1-1.8,2-2.63,3q-66.21,82.32-132.39,164.66-18.45,23-36.76,46ZM-84,155.17c1.4-7.08,2.75-13.91,4.09-20.74l-.52-.19-12.32,17.6Z" transform="translate(325.5 -128.47)"/><path class="cls-2" d="M914,535c-6-1.34-11.55-4-17.27-6.18-14.13-5.32-28.17-10.88-42.26-16.32-2.14-.83-4.33-1.55-6.49-2.32-.08-.62-.56-.63-1-.67l0,0-2.54-1,0,0a4,4,0,0,0-2.54-1l0,0c-1.73-1-3.44-2-5.54-2l0,0c-.09-.69-.54-.64-1-.52l0,0c-.35-.64-.81-1-1.52-.52l0,0c-.07-.7-.51-.69-1-.51h0c-.35-.64-.79-1-1.52-.51h0c0-.74-.47-.74-1-.5h0c-.39-1-1.45-1-2.23-1.33q-114.93-47.28-229.88-94.48L-69.84,132.78c-2.13-.88-4.26-1.71-6.44-2.58V158l-2.19-.81-.12-17.68q.93-5.48,1.87-10.94a6.35,6.35,0,0,1,3.83.8Q186.88,236,446.66,342.68,679,438.08,911.25,533.52C912.21,533.91,913.37,534,914,535Z" transform="translate(325.5 -128.47)"/><path class="cls-2" d="M-86.49,167.05c-.25,1.17-.49,2.34-.74,3.52l-7.28-15.86c-.79,1.26-1.36,2.15-1.9,3.06q-75.39,128.49-150.76,257c-4,6.87-7.9,13.82-11.85,20.73h0a.7.7,0,0,0-.51,1l0,0c-.58.14-.84.45-.52,1l0,0-.76.57A45.52,45.52,0,0,1-269,448.5c4.47-7.78,8.86-15.59,13.4-23.32Q-175.79,289-95.92,152.93l3.64,1.56Z" transform="translate(325.5 -128.47)"/><path class="cls-2" d="M916.53,536a2.48,2.48,0,0,1-2.53-1A2.82,2.82,0,0,1,916.53,536Z" transform="translate(325.5 -128.47)"/><path class="cls-2" d="M919,537.23c-.86-.38-1.95-.29-2.52-1.26C917.51,536,918.55,536.07,919,537.23Z" transform="translate(325.5 -128.47)"/><path class="cls-2" d="M-269,448.47c.09.6-.23.89-.77,1Z" transform="translate(325.5 -128.47)"/><path class="cls-2" d="M-72.6,636.63c-.14-14.91-.26-29.82-.44-44.72q-.37-31.23-.84-62.47c0-.73-.08-1.46-.17-2.88-6.73,0-13.37.11-20,0q-104.8-2-209.61-4.06c-1,0-2,0-3,.08l-5-2.06c1.81-3.08,3.65-6.14,5.45-9.22q12.47-21.39,24.92-42.8c2.45-3.73,4.66-7.66,8.26-10.48-1.33,3.89-3.83,7.14-5.86,10.63q-14.51,24.92-29.16,49.75c-.32.55-.61,1.14-1,1.9l234.64,4.62c.74-.81.42-1.77.41-2.63q-1.42-117.94-2.85-235.9a8,8,0,0,0-1-3.78q-11-20.18-21.83-40.39l1.14-1.8C-91.45,253.33-84.38,266.24-78,278c0-28.05,0-57.12,0-86.2a3.51,3.51,0,0,0-.32-1.43c-2.39-5.22-4.8-10.41-7.21-15.62l.57-3.57c2.19,4.64,4.39,9.27,6.62,14V159.86l2,.69c.11,9.17.23,18.33.29,27.5a11.42,11.42,0,0,0,1,4.81Q.76,359.24,76.39,525.66c.75,1.64,1.54,2.34,3.46,2.38q114,2.13,228,4.39l259.69,5.07q113.1,2.21,226.2,4.42,67.48,1.32,135,2.59c.92,0,1.84,0,2.75,0l3.24.91c-1.43,1.22-2.85,1-4.07,1.39-9.48-.25-19-.55-28.46-.73q-180-3.52-359.91-7-202.58-4-405.15-7.85c-19.41-.37-38.82-.05-58.1-.05l102.6,225.92a3.66,3.66,0,0,1-3-1.19q-49.4-91.2-98.78-182.39-11.88-21.94-23.8-43.91l-127.67-2.5c.41,37.15.82,74,1.23,110.88Zm-1.45-347-.62.19Q-73.24,407.34-71.81,525l126.61,2.5Q-9.83,408.17-74,289.62Zm-1.52-93.33c-.14,1.41-.22,1.81-.22,2.22q.51,42,1,84A7.5,7.5,0,0,0-73.69,286q33,60.88,66,121.79,31.92,58.93,63.85,117.85c.44.82.63,1.91,2,1.9,5.55,0,11.1,0,16.84,0ZM163.07,723l.6-.19c-.33-.82-.64-1.64-1-2.44l-16.2-35.66q-34.59-76.08-69.19-152.14c-.44-1-.42-2.53-2-2.55-5.53,0-11.06,0-16.8,0Z" transform="translate(325.5 -128.47)"/><path class="cls-2" d="M-272.46,457c.23.54.07.89-.52,1A.72.72,0,0,1-272.46,457Z" transform="translate(325.5 -128.47)"/><path class="cls-2" d="M-272,456.5c0,.32,0,.65-.52.54Z" transform="translate(325.5 -128.47)"/><path class="cls-2" d="M-271.44,455.9l-.56.63Z" transform="translate(325.5 -128.47)"/></svg>