<svg id="Layer_1" data-name="Layer 1" xmlns="http://www.w3.org/2000/svg" viewBox="0 0 1263.93 629.69"><defs><style>.cls-1{fill:#47b779;}</style></defs><path class="cls-1" d="M946.26,493.81,86.43,477Q138.3,591.17,190,704.87c-1.91.79-1.92.79-3-1.13q-14.5-26.78-29-53.56L65,478.56c-.35-.65-.73-1.3-1.12-2l-127.64-2.5c.45,37.75.9,75.2,1.35,113.06-3-1.35-5.72-2.49-8.38-3.78q-116-56.58-231.9-113.19a8.39,8.39,0,0,0-3.83-.9c-3.57,0-7.14,0-10.59,0-.86-2.11-.1-3.34.95-4.65,16.78-20.82,33.67-41.55,50.22-62.55,7.74-9.83,13.13-21.21,19.45-32q79.11-134.64,158.08-269.37c.62-1.07,1.29-2.11,2.14-3.47l15.92,34.95V75.8c1.73-.26,1.74-.26,1.77,2,.2,18.08.46,36.16.54,54.25a25,25,0,0,0,2.32,10.54Q9.14,307,83.81,471.5c1.22,2.68,2.58,3.52,5.48,3.57q113.47,2.08,226.94,4.37L603.89,485l249.43,4.89q45.36.88,90.73,1.72C945.22,491.66,947.05,491.13,946.26,493.81ZM-251.95,384.56c.35-.28.87-.5.38-1.25l-.72.95-.11.62Zm-22.39,31.56-41.5,51.36c4.16,0,7.71,0,11.25,0a1.84,1.84,0,0,0,1.72-1.16q14.49-24.85,29-49.71c.4-.49,1-.91.61-1.88Zm208.39,55.8c0-1.3,0-2.37,0-3.43q-1.37-113.72-2.63-227.43c-.06-6.63-1.19-12.53-4.8-18.13-2.65-4.11-4.73-8.6-7.07-12.91-3.74-6.9-7.49-13.8-11.37-20.94-.79.93-1.34,1.55-1.85,2.18q-73.5,91.43-147,182.88c-8.21,10.25-17.33,19.84-24.08,31.21-11.76,19.82-23.36,39.74-35,59.63-.43.74-1.22,1.38-1,2.32Zm-.1-235.3-.62.18Q-65.24,354.32-63.82,472l126.62,2.5Zm-232.11,232.8-.14.59L-64.51,584.17C-65,547-65.42,510.61-65.87,474Zm230.61-326.1c-.14,1.51-.24,2.05-.23,2.59q.5,41.61,1,83.23a8,8,0,0,0,1,3.78Q-37.83,284.37-10,335.84q37,68.36,74.08,136.72c.49.89.72,2,2.21,2,5.49-.07,11,0,16.69,0Q8,309.46-67.55,143.32Zm-24,42,22.36,41.22a7.34,7.34,0,0,0,.22-1.21q-.5-43.11-1-86.23a6.16,6.16,0,0,0-.57-2.38q-7.5-16.61-15.08-33.17c-.23-.52-.22-1.37-1.23-1.41q-82.2,140.1-164.43,280.24l.84.56ZM66.48,477Q118.82,573.55,171.1,670a3.54,3.54,0,0,0-.33-2.49q-10.43-22.95-20.86-45.88-32.25-71-64.54-141.92c-.52-1.15-.55-2.84-2.62-2.81C77.42,477,72.1,477,66.48,477Zm-339.2-62.84c-.06.06-.16.12-.16.18s.1.12.16.18.15-.12.15-.18S-272.67,414.18-272.72,414.12Z" transform="translate(317.48 -75.68)"/></svg>