<?xml version="1.0" encoding="utf-8"?>
<!-- Generator: Adobe Illustrator 24.3.0, SVG Export Plug-In . SVG Version: 6.00 Build 0)  -->
<svg version="1.1" id="Layer_1" xmlns="http://www.w3.org/2000/svg" xmlns:xlink="http://www.w3.org/1999/xlink" x="0px" y="0px"
	 viewBox="0 0 612 792" style="enable-background:new 0 0 612 792;" xml:space="preserve">
<style type="text/css">
	.st0{fill:#47B779;}
	.st1{fill:#6D6FFC;}
</style>
<g>
	<g>
		<path class="st0" d="M932.42,497.64c-17.33-0.29-34.65-0.53-51.98-0.86c-81.56-1.58-163.12-3.18-244.68-4.78
			c-75.14-1.47-150.29-2.97-225.43-4.43c-96.31-1.88-192.61-3.73-288.92-5.6c-14.91-0.29-29.82-0.61-44.74-0.91
			c-0.98-0.02-1.96,0-3.24,0c4.32,9.51,8.53,18.81,12.76,28.1c29.88,65.73,59.75,131.45,89.62,197.19c0.34,0.74,0.53,1.56,0.78,2.34
			c-1.09-0.75-2.53-0.97-3.33-2.16c-5.09-9.45-10.17-18.91-15.28-28.34C122.67,612.98,87.34,547.79,52.03,482.6
			c-0.65-1.2-1.15-2.1-2.88-2.13c-40.07-0.72-80.15-1.52-120.22-2.31c-1.8-0.04-3.6,0-5.66,0c0.41,37.18,0.82,73.99,1.23,110.79
			c-0.7-0.43-1.4-0.87-2.1-1.3c0.03-0.83,0.09-1.66,0.08-2.49c-0.34-28.9-0.7-57.8-1.02-86.71c-0.07-6.72-0.01-13.45-0.01-20.28
			c-1.29-0.09-2.02-0.17-2.75-0.18c-65.04-1.31-130.08-2.63-195.12-3.91c-11.74-0.23-23.48-0.33-35.22-0.5
			c-1.65-0.69-3.3-1.38-4.96-2.06c1.82-3.07,3.65-6.13,5.45-9.22c8.31-14.26,16.62-28.53,24.93-42.8c2.45-3.74,4.67-7.67,8.29-10.48
			c-0.31,0.75-0.55,1.55-0.96,2.24c-11.32,19.32-22.66,38.62-33.97,57.94c-0.39,0.66-1.14,1.25-0.89,2.11
			c78.25,1.54,156.43,3.08,234.8,4.62c0-1.1,0.01-1.92,0-2.74c-0.96-78.57-1.92-157.15-2.86-235.72c-0.02-1.48-0.42-2.73-1.12-4.01
			c-7.26-13.38-14.48-26.79-21.71-40.19c0.37-0.62,0.74-1.23,1.11-1.85c7.07,12.92,14.14,25.84,20.55,37.57
			c0-28.05,0-57.12-0.01-86.19c0-0.48-0.12-1-0.32-1.44c-2.39-5.21-4.8-10.41-7.21-15.61c0.19-1.19,0.38-2.38,0.57-3.58
			c2.2,4.64,4.39,9.28,6.62,13.98c0-8.55,0-16.91,0-25.27c0.77,0.29,1.54,0.58,2.3,0.87c0.01,8.57,0.09,17.15,0.01,25.72
			c-0.03,2.82,0.59,5.34,1.76,7.91c18.81,41.25,37.55,82.53,56.32,123.79c31.44,69.13,62.88,138.26,94.3,207.4
			c0.64,1.41,1.14,2.45,3.13,2.48c32.33,0.55,64.65,1.2,96.98,1.83c136.55,2.67,273.1,5.34,409.65,8.01
			c85.73,1.67,171.46,3.34,257.18,5c29.33,0.57,58.65,1.08,87.98,1.62C928.48,495.77,930.43,496.78,932.42,497.64z M49.8,478.47
			C6.71,398.93-36.19,319.75-79.08,240.57c-0.2,0.08-0.39,0.16-0.59,0.23c0.95,78.35,1.9,156.7,2.86,235.17
			C-34.55,476.8,7.39,477.63,49.8,478.47z M70.06,478.64C19.95,368.41-30.12,258.28-80.55,147.35c-0.17,1.3-0.25,1.62-0.24,1.95
			c0.34,28.08,0.69,56.15,1.01,84.23c0.02,1.32,0.51,2.4,1.11,3.51c33.86,62.47,67.7,124.94,101.55,187.41
			c9.75,17.99,19.49,35.99,29.35,54.2C58.03,478.64,63.85,478.64,70.06,478.64z M158.13,674.09c0.19-0.08,0.38-0.17,0.58-0.25
			c-0.37-0.87-0.71-1.76-1.11-2.62c-12.38-27.26-24.76-54.51-37.15-81.76c-16.14-35.5-32.28-71-48.44-106.49
			c-0.39-0.85-0.48-2-1.88-1.99c-5.47,0.02-10.93,0.01-16.65,0.01C88.35,545.32,123.24,609.7,158.13,674.09z"/>
		<path class="st1" d="M932.42,497.64c-2-0.85-3.94-1.87-6.14-2.14c-0.87-0.44-1.71-0.97-2.62-1.31
			c-68.42-26.06-136.85-52.1-205.27-78.16C586.05,365.61,453.73,315.19,321.4,264.78C198.78,218.06,76.17,171.35-46.45,124.66
			c-11.5-4.38-23.05-8.62-34.57-12.93c-0.77-0.29-1.54-0.58-2.3-0.87c-1.16-0.82-2.46-1.27-4.18-1.52
			c-0.82,4.29-1.63,8.55-2.44,12.8c-0.19,1.19-0.38,2.38-0.57,3.58c-1.59,7.71-3.25,15.42-4.77,23.14
			c-2.79,14.17-5.5,28.35-8.24,42.53c-0.37,0.62-0.74,1.23-1.11,1.85c-0.89,0.98-1.83,1.92-2.66,2.94
			c-43.67,54.29-87.35,108.57-130.99,162.89c-12.77,15.89-25.43,31.88-38.15,47.82c-0.19,0.21-0.37,0.42-0.56,0.62
			c0,0,0.03-0.03,0.03-0.03c-0.17,0.18-0.34,0.36-0.51,0.54c0,0,0.02-0.03,0.02-0.03c-0.48,0.19-0.7,0.5-0.52,1.02l0.04-0.02
			c-3.63,2.81-5.84,6.74-8.29,10.48c-0.94-0.08-1.25,0.74-1.68,1.28c-9.71,12.04-19.39,24.09-29.08,36.14
			c-3.81,4.74-7.59,9.5-11.66,14.59c4.4,0,8.22,0,12.04,0c1.65,0.69,3.3,1.38,4.96,2.06c0.87,0.48,1.71,1,2.6,1.43
			c61.88,30.16,123.75,60.33,185.63,90.47c15.25,7.43,30.54,14.79,45.81,22.18c0.7,0.43,1.4,0.87,2.1,1.3
			c0.43,0.24,0.86,0.51,1.3,0.73C6.38,627.89,86.96,666.12,167.56,704.3c1.83,0.87,3.52,2.21,5.71,2.22c0.8,1.2,2.24,1.42,3.33,2.16
			c0,0-0.04,0.09-0.04,0.1c-0.04,0.2-0.09,0.39-0.13,0.59c-1.62,0.4-3.07-0.03-4.56-0.73c-51.42-24.41-102.76-48.97-154.28-73.16
			C-90.74,584.61-198,531.55-305.53,479.05c-7.95-3.88-15.86-6.63-24.58-5.7c-0.81-2.18-0.18-3.46,0.89-4.79
			c17.14-21.27,34.25-42.56,51.36-63.86c1.09-1.36,2.06-2.82,3.08-4.23c0.54-0.11,0.86-0.39,0.77-0.99l-0.02,0.03
			c3.37-3,5.93-6.65,8.28-10.46c0.25-0.19,0.51-0.37,0.76-0.56c0,0-0.04,0.04-0.04,0.04c0.45-0.21,0.75-0.49,0.52-1.04l-0.02,0.03
			c0.58-0.14,1.09-0.31,0.52-1.03l-0.01,0.01c2.13-0.37,2.73-2.39,3.82-3.75c51.07-63.42,102.08-126.9,153.13-190.33
			c1.16-1.44,1.7-2.98,2.04-4.71c1.61-8.25,3.25-16.49,4.84-24.74c2.67-13.8,5.31-27.61,7.96-41.41c0.25-1.17,0.49-2.34,0.74-3.51
			c0.71-3.2,1.41-6.4,2.16-9.79c-2.83-0.98-5.39-1.88-7.95-2.77c-1.21-0.52-2.42-1.04-3.64-1.56c5.48-7.89,10.96-15.77,16.43-23.67
			c0.72-1.05,1.68-0.83,2.67-0.6c-0.59,3.61-1.18,7.22-1.77,10.83c-1.16,5.4-2.32,10.8-3.53,16.41c1.35,0.47,2.5,0.87,3.65,1.27
			c0.7,0.26,1.41,0.53,2.11,0.79c19.11,7.32,38.21,14.68,57.33,21.97c180.54,68.77,361.09,137.53,541.62,206.3
			c137.93,52.55,275.85,105.11,413.77,157.7c0.83,0.32,2.14,0.19,2.13,1.65C933.49,497.25,933.52,498.03,932.42,497.64z
			 M-88.99,106.19c1.42-7.17,2.76-13.99,4.1-20.8c-0.16-0.07-0.32-0.15-0.48-0.22c-4.08,5.81-8.16,11.63-12.38,17.65
			C-94.79,103.96-92.1,105-88.99,106.19z"/>
		<path class="st0" d="M-100.92,103.93c1.21,0.52,2.42,1.04,3.64,1.56c1.93,4.19,3.86,8.37,5.79,12.56
			c-0.25,1.17-0.49,2.34-0.74,3.51c-2.38-5.18-4.76-10.36-7.28-15.86c-0.78,1.26-1.36,2.15-1.9,3.07
			c-50.26,85.66-100.52,171.32-150.76,256.99c-4.03,6.87-7.9,13.82-11.85,20.73c0,0,0.01-0.01,0.01-0.01
			c-0.54,0.16-0.69,0.51-0.52,1.03c0,0,0.02-0.03,0.02-0.03c-0.58,0.14-0.83,0.45-0.52,1.04c0,0,0.04-0.04,0.04-0.04
			c-0.25,0.19-0.51,0.37-0.76,0.56c-2.35,3.81-4.91,7.46-8.28,10.46c4.46-7.78,8.86-15.59,13.4-23.32
			C-207.4,285.42-154.16,194.68-100.92,103.93z"/>
		<path class="st0" d="M-81.36,108.95c-0.7-0.26-1.41-0.53-2.11-0.79c-0.04-5.89-0.08-11.78-0.12-17.67
			c0.59-3.61,1.18-7.22,1.77-10.83C-81.67,89.42-81.51,99.19-81.36,108.95z"/>
		<path class="st0" d="M-274.01,399.47c0.09,0.6-0.23,0.88-0.77,0.99C-274.52,400.14-274.26,399.81-274.01,399.47z"/>
		<path class="st0" d="M176.43,709.37c0.04-0.2,0.09-0.39,0.13-0.59C176.76,709.02,176.85,709.25,176.43,709.37z"/>
		<path class="st0" d="M-277.46,408.01c0.23,0.54,0.07,0.89-0.52,1.02C-278.16,408.51-277.94,408.19-277.46,408.01z"/>
		<path class="st0" d="M-276.44,406.9c-0.19,0.21-0.37,0.42-0.56,0.62C-276.81,407.32-276.63,407.11-276.44,406.9z"/>
		<path class="st0" d="M-276.97,407.5c-0.02,0.32-0.04,0.65-0.51,0.54C-277.31,407.86-277.14,407.68-276.97,407.5z"/>
	</g>
</g>
</svg>
