<?xml version="1.0" encoding="utf-8"?>
<!-- Generator: Adobe Illustrator 24.3.0, SVG Export Plug-In . SVG Version: 6.00 Build 0)  -->
<svg version="1.1" id="Layer_1" xmlns="http://www.w3.org/2000/svg" xmlns:xlink="http://www.w3.org/1999/xlink" x="0px" y="0px"
	 viewBox="0 0 612 792" style="enable-background:new 0 0 612 792;" xml:space="preserve">
<style type="text/css">
	.st0{fill:#47B779;}
</style>
<g>
	<g>
		<path class="st0" d="M946.26,493.81c-286.57-5.6-572.98-11.19-859.83-16.79c34.59,76.1,69.07,151.98,103.55,227.85
			c-1.91,0.79-1.92,0.8-2.96-1.13c-9.67-17.85-19.34-35.7-29.01-53.56c-31-57.21-62-114.42-93-171.62c-0.35-0.65-0.73-1.3-1.12-1.99
			c-42.44-0.83-84.82-1.66-127.64-2.51c0.45,37.75,0.9,75.2,1.35,113.07c-3-1.35-5.73-2.49-8.38-3.79
			c-77.31-37.71-154.61-75.44-231.9-113.19c-1.23-0.6-2.46-0.91-3.82-0.9c-3.57,0.04-7.14,0.01-10.59,0.01
			c-0.86-2.1-0.1-3.34,0.95-4.64c16.78-20.82,33.67-41.55,50.22-62.55c7.74-9.83,13.13-21.21,19.45-31.96
			c52.74-89.76,105.39-179.58,158.08-269.38c0.62-1.06,1.3-2.1,2.14-3.47c5.33,11.71,10.52,23.1,15.92,34.95
			c0-19.15,0-37.78,0-56.44c1.73-0.26,1.75-0.26,1.77,1.98c0.2,18.08,0.46,36.16,0.55,54.24c0.02,3.75,0.76,7.12,2.32,10.55
			C-15.81,252.18,34.04,361.82,83.81,471.5c1.22,2.68,2.57,3.53,5.48,3.58c75.65,1.39,151.29,2.89,226.94,4.36
			c95.89,1.87,191.78,3.72,287.66,5.59c83.14,1.62,166.29,3.27,249.43,4.89c30.24,0.59,60.48,1.13,90.73,1.72
			C945.22,491.66,947.05,491.13,946.26,493.81z M-251.95,384.56c0.35-0.28,0.87-0.49,0.37-1.25c-0.27,0.36-0.49,0.65-0.71,0.95
			c-0.04,0.21-0.07,0.41-0.11,0.62C-252.25,384.77-252.1,384.66-251.95,384.56z M-274.34,416.12
			c-13.71,16.97-27.43,33.95-41.5,51.36c4.16,0,7.71-0.02,11.25,0.02c0.91,0.01,1.32-0.47,1.72-1.16
			c9.66-16.58,19.34-33.14,29.02-49.71c0.4-0.49,0.98-0.91,0.61-1.89C-273.67,415.28-274.01,415.7-274.34,416.12z M-65.95,471.92
			c0-1.3,0.01-2.37,0-3.43c-0.91-75.81-1.88-151.61-2.63-227.42c-0.07-6.63-1.2-12.54-4.8-18.13c-2.65-4.11-4.73-8.6-7.07-12.91
			c-3.74-6.9-7.49-13.8-11.37-20.94c-0.8,0.94-1.34,1.55-1.85,2.18c-49.01,60.95-98.05,121.86-146.97,182.87
			c-8.22,10.25-17.34,19.84-24.08,31.21c-11.76,19.82-23.36,39.74-35,59.63c-0.43,0.74-1.22,1.38-1.02,2.32
			C-222.56,468.84-144.44,470.38-65.95,471.92z M-66.05,236.62c-0.21,0.06-0.42,0.12-0.63,0.18c0.95,78.35,1.9,156.7,2.86,235.17
			c42.28,0.84,84.21,1.67,126.62,2.51C19.72,394.94-23.17,315.78-66.05,236.62z M-298.16,469.42c-0.04,0.2-0.09,0.39-0.13,0.59
			C-220.5,508-142.71,545.98-64.51,584.17c-0.46-37.18-0.91-73.55-1.36-110.15C-143.49,472.48-220.83,470.95-298.16,469.42z
			 M-67.55,143.32c-0.14,1.51-0.23,2.05-0.23,2.58c0.33,27.74,0.68,55.48,1,83.23c0.02,1.38,0.39,2.58,1.04,3.78
			c18.61,34.3,37.19,68.61,55.78,102.92c24.69,45.58,49.38,91.15,74.08,136.72c0.48,0.89,0.71,2.01,2.21,1.99
			c5.49-0.07,10.98-0.03,16.69-0.03C32.98,364.48-17.1,254.32-67.55,143.32z M-91.52,185.34c7.47,13.78,14.81,27.3,22.36,41.22
			c0.14-0.76,0.23-0.99,0.22-1.21c-0.34-28.74-0.68-57.49-1.05-86.23c-0.01-0.8-0.25-1.65-0.58-2.38
			c-5-11.07-10.02-22.12-15.07-33.16c-0.24-0.52-0.22-1.37-1.24-1.41c-54.8,93.4-109.61,186.82-164.42,280.24
			c0.28,0.19,0.56,0.37,0.84,0.56C-197.56,317.19-144.66,251.42-91.52,185.34z M66.48,476.96
			c34.89,64.39,69.75,128.73,104.62,193.07c0.25-1,0-1.77-0.33-2.49c-6.95-15.29-13.91-30.58-20.86-45.87
			c-21.51-47.31-43.01-94.63-64.54-141.93c-0.52-1.15-0.55-2.84-2.62-2.8C77.42,477.03,72.1,476.96,66.48,476.96z M-272.72,414.12
			c-0.06,0.06-0.15,0.12-0.15,0.18c0,0.06,0.1,0.12,0.15,0.18c0.06-0.06,0.15-0.12,0.15-0.18
			C-272.57,414.24-272.67,414.18-272.72,414.12z"/>
	</g>
</g>
</svg>
