<svg id="Layer_1" data-name="Layer 1" xmlns="http://www.w3.org/2000/svg" viewBox="0 0 1263.97 630.05"><defs><style>.cls-1{fill:#47b779;}.cls-2{fill:#6d6ffc;}</style></defs><path class="cls-1" d="M932.42,497.64c-17.32-.29-34.65-.53-52-.87Q758.11,494.42,635.77,492l-225.43-4.44L121.42,482q-22.36-.44-44.74-.91c-1,0-2,0-3.24,0,4.32,9.5,8.53,18.8,12.76,28.1q44.8,98.58,89.62,197.18a23.77,23.77,0,0,1,.78,2.34c-1.09-.75-2.53-1-3.33-2.16q-7.64-14.17-15.28-28.35Q105,580.39,52,482.6c-.65-1.21-1.15-2.11-2.88-2.14q-60.1-1.08-120.22-2.3c-1.8,0-3.59,0-5.66,0,.41,37.18.82,74,1.23,110.79l-2.1-1.3c0-.83.08-1.66.07-2.49q-.51-43.35-1-86.71c-.07-6.72,0-13.45,0-20.28-1.29-.09-2-.17-2.74-.18q-97.57-2-195.13-3.91c-11.74-.24-23.48-.34-35.22-.5l-5-2.06c1.82-3.08,3.65-6.14,5.45-9.22q12.47-21.39,24.92-42.8c2.45-3.74,4.67-7.67,8.3-10.48a19.35,19.35,0,0,1-1,2.24q-17,29-34,57.94c-.39.67-1.13,1.26-.89,2.11l234.8,4.62c0-1.1,0-1.92,0-2.75q-1.44-117.85-2.86-235.72a8.28,8.28,0,0,0-1.11-4q-10.89-20.07-21.72-40.19l1.12-1.85C-96.45,204.32-89.38,217.24-83,229c0-28.05,0-57.12,0-86.19a3.56,3.56,0,0,0-.32-1.44q-3.58-7.82-7.21-15.62l.57-3.57,6.62,14V110.86l2.3.87c0,8.58.09,17.15,0,25.73a18.09,18.09,0,0,0,1.76,7.91Q-51,207.23-22.93,269.16q47.16,103.7,94.3,207.4C72,478,72.51,479,74.5,479q48.48.82,97,1.83l409.65,8,257.18,5q44,.84,88,1.62A22.62,22.62,0,0,1,932.42,497.64ZM49.8,478.47-79.08,240.57l-.59.23Q-78.24,358.32-76.81,476Zm20.26.17L-80.55,147.35c-.16,1.3-.24,1.62-.24,1.94q.51,42.12,1,84.23A7.44,7.44,0,0,0-78.67,237q50.79,93.69,101.55,187.41c9.75,18,19.49,36,29.34,54.2Zm88.07,195.45.58-.25c-.37-.88-.72-1.76-1.11-2.63Q139,630.34,120.45,589.45,96.24,536.2,72,483c-.38-.85-.48-2-1.87-2-5.47,0-10.94,0-16.65,0Z" transform="translate(330.47 -79.47)"/><path class="cls-2" d="M932.42,497.64a22.62,22.62,0,0,0-6.14-2.14,26.76,26.76,0,0,0-2.62-1.32L718.38,416l-397-151.24Q137.47,194.7-46.45,124.66c-11.49-4.38-23-8.62-34.57-12.93l-2.3-.87a9.06,9.06,0,0,0-4.18-1.51c-.82,4.29-1.63,8.54-2.44,12.8l-.57,3.57c-1.6,7.72-3.25,15.42-4.77,23.15-2.79,14.17-5.5,28.35-8.24,42.53l-1.12,1.85c-.89,1-1.83,1.92-2.66,2.95q-65.51,81.44-131,162.89-19.15,23.84-38.15,47.81l-.56.63,0,0-.52.54,0,0a.72.72,0,0,0-.52,1h.05c-3.63,2.81-5.85,6.74-8.3,10.48-.94-.08-1.24.74-1.68,1.28q-14.56,18.06-29.08,36.14l-11.66,14.6h12l5,2.06c.87.48,1.72,1,2.6,1.43q92.82,45.24,185.64,90.47c15.25,7.43,30.54,14.78,45.81,22.17l2.1,1.3c.43.25.85.52,1.3.73Q46.67,647,167.56,704.3c1.83.86,3.53,2.21,5.71,2.22.8,1.19,2.24,1.41,3.33,2.16l0,.09c-.05.2-.09.4-.13.6a6.63,6.63,0,0,1-4.56-.74c-51.41-24.41-102.76-49-154.28-73.16C-90.74,584.61-198,531.55-305.53,479.05c-7.94-3.88-15.85-6.64-24.57-5.71a4.31,4.31,0,0,1,.89-4.79q25.71-31.89,51.35-63.85c1.09-1.36,2.06-2.82,3.09-4.23.54-.11.85-.4.77-1l0,0A45.52,45.52,0,0,0-265.75,389l.76-.57,0,0c.44-.21.74-.49.52-1l0,0c.57-.14,1.09-.31.51-1h0c2.13-.36,2.73-2.38,3.82-3.74q76.6-95.14,153.13-190.33a10.37,10.37,0,0,0,2-4.71c1.61-8.25,3.25-16.49,4.84-24.74q4-20.7,8-41.41c.25-1.17.49-2.34.74-3.51.71-3.2,1.41-6.4,2.16-9.79l-8-2.77-3.64-1.56Q-92.7,92.1-84.49,80.27c.73-1,1.68-.84,2.67-.61l-1.77,10.83c-1.16,5.4-2.32,10.8-3.53,16.41l3.65,1.27,2.11.78q28.67,11,57.33,22l541.62,206.3Q724.48,416,931.36,494.92c.83.31,2.15.19,2.14,1.65C933.49,497.25,933.52,498,932.42,497.64ZM-89,106.19c1.42-7.17,2.76-14,4.11-20.79l-.48-.23-12.39,17.66Z" transform="translate(330.47 -79.47)"/><path class="cls-1" d="M-100.92,103.93l3.64,1.56,5.79,12.56c-.25,1.17-.49,2.34-.74,3.51l-7.28-15.85c-.79,1.26-1.36,2.15-1.9,3.06q-75.39,128.49-150.76,257c-4,6.87-7.9,13.82-11.85,20.73h0a.7.7,0,0,0-.51,1l0,0c-.58.14-.84.44-.52,1l0,0-.76.57A45.52,45.52,0,0,1-274,399.5c4.47-7.78,8.86-15.59,13.4-23.32Q-180.79,240-100.92,103.93Z" transform="translate(330.47 -79.47)"/><path class="cls-1" d="M-81.36,109l-2.11-.78-.12-17.68,1.77-10.83Q-81.59,94.3-81.36,109Z" transform="translate(330.47 -79.47)"/><path class="cls-1" d="M-274,399.47c.08.6-.23.89-.77,1Z" transform="translate(330.47 -79.47)"/><path class="cls-1" d="M176.43,709.37c0-.2.08-.4.13-.6C176.76,709,176.85,709.25,176.43,709.37Z" transform="translate(330.47 -79.47)"/><path class="cls-1" d="M-277.46,408c.23.54.07.89-.52,1A.72.72,0,0,1-277.46,408Z" transform="translate(330.47 -79.47)"/><path class="cls-1" d="M-276.44,406.9l-.56.63Z" transform="translate(330.47 -79.47)"/><path class="cls-1" d="M-277,407.5c0,.32,0,.65-.52.54Z" transform="translate(330.47 -79.47)"/></svg>