<svg id="Layer_1" data-name="Layer 1" xmlns="http://www.w3.org/2000/svg" viewBox="0 0 1263.96 630.03"><defs><style>.cls-1{fill:#47b779;}</style></defs><path class="cls-1" d="M938.24,546.8,78.43,530Q130.35,644.26,182,758c-2.1,1.25-2.5-.32-3.1-1.43q-21-38.73-42-77.47Q97,605.36,57,531.61c-.65-1.2-1.13-2.12-2.87-2.15q-60.36-1.08-120.72-2.31c-1.57,0-3.15,0-5.21,0,.45,37.62.9,75.06,1.35,113-3-1.34-5.69-2.47-8.33-3.76q-115.84-56.5-231.68-113.07a9.22,9.22,0,0,0-4.29-1c-3.49,0-7,0-10.37,0-.9-2-.16-3.29.89-4.59,16.67-20.69,33.43-41.31,49.92-62.16,7.87-9.95,13.35-21.46,19.75-32.35q79.13-134.64,158.08-269.39c.63-1.06,1.3-2.1,2.16-3.5,5.35,11.72,10.55,23.13,15.93,34.94V128.67c1.87-.56,3.78,0,5.72.77q114.26,47,228.53,93.86L688.2,441.89q124,50.91,247.89,101.85C937.27,544.22,939.13,544.31,938.24,546.8ZM-259.95,437.56c.35-.28.87-.5.38-1.25-.28.36-.5.65-.71.95l-.12.62Zm-22.39,31.56q-15.15,18.76-30.29,37.52c-3.62,4.49-7.22,9-11.12,13.84,4.08,0,7.56,0,11.05,0a1.82,1.82,0,0,0,1.77-1.06q14.52-24.92,29.07-49.81c.4-.49,1-.91.61-1.88ZM931.2,544.45c0-.17.09-.34.14-.5L-76.56,130c0,1.45,0,2.35,0,3.26.19,17.83.42,35.66.54,53.49a17.62,17.62,0,0,0,1.68,7.43Q-31.12,289.13,12,384.09,44.23,454.85,76.4,525.61c.59,1.3,1,2.39,2.9,2.43q52.62.9,105.23,2L441,535l225.94,4.46q128,2.5,255.94,5C925.63,544.49,928.41,544.45,931.2,544.45ZM-74,524.92c0-1.59,0-3,0-4.38-.89-74-1.9-147.95-2.52-221.93-.08-9.61-1.34-18.38-6.92-26.36-2-2.85-3.37-6.11-5-9.19l-11.38-21c-.77.9-1.32,1.5-1.83,2.13q-73.5,91.43-147,182.87c-8,10-16.94,19.33-23.55,30.37-12.11,20.2-23.89,40.59-35.8,60.9-.36.61-.62,1.26-.95,1.94ZM-74,289.63l-.62.17Q-73.24,407.32-71.82,525l126.62,2.5Zm1.54,347.54C-73,600-73.42,563.57-73.87,527l-232.32-4.6-.13.58ZM75,527.52Q0,362.45-75.53,196.39c-.16,1.28-.26,1.67-.26,2.05q.51,42.12,1,84.23a6.83,6.83,0,0,0,1,3.27Q-44.15,340.47-14.62,395q35.37,65.3,70.75,130.57c.44.82.6,2,2,1.95C63.67,527.5,69.23,527.52,75,527.52ZM-76.94,280c0-1.82,0-2.7,0-3.58-.32-27-.68-54-.94-81A19.44,19.44,0,0,0-79.74,187c-4.17-8.88-8.17-17.85-12.23-26.78-.8-1.76-1.62-3.5-2.6-5.61Q-177.2,295.49-259.31,435.43l.83.56,159-197.65C-92,252.17-84.73,265.62-76.94,280ZM163.31,723.42c.41-1.51-.27-2.24-.63-3q-5.6-12.39-11.24-24.76-37.05-81.54-74.15-163c-.43-1-.42-2.55-2-2.57-5.53-.06-11.07,0-16.83,0Zm-444-256.3c-.06.06-.16.12-.16.18s.1.12.16.18.15-.12.15-.18S-280.67,467.18-280.72,467.12Z" transform="translate(325.48 -128.44)"/></svg>