<svg id="Layer_1" data-name="Layer 1" xmlns="http://www.w3.org/2000/svg" viewBox="0 0 1264 629.97"><defs><style>.cls-1{fill:#6e6efe;}</style></defs><path class="cls-1" d="M-325.2,522.07c-.75-1.9,0-3.16,1.05-4.47Q-215.28,382.26-106.27,247c6.13-7.56,7.21-15.94,9-24.52,4.24-21,8.3-42,12.42-63,.13-.64.2-1.3.34-2.21L-95.68,153c2.55-6.1,16.57-24.43,19-24.36L-82,155.93l30.59,11.64L378.35,331.3Q560,400.48,741.62,469.64q97.27,37.07,194.55,74.18c1.3.49,2.92.73,2.1,3.15l-20.36,5.74-341.78,96Q381.57,703.34,187,757.93a16,16,0,0,1-11.61-.93q-105-49.9-210-99.71C-125.77,613.86-216.23,569-307,524.85a22.54,22.54,0,0,0-9.81-2.38C-319.64,522.44-322.45,522.21-325.2,522.07ZM935.13,545.68-82.25,158.11c-.28,1-.52,1.62-.64,2.26-4.55,23.1-9,46.22-13.71,69.29-.94,4.62-.84,9.52-4.14,13.61Q-204,371.46-307.07,499.74l-16.67,20.75c2.95,0,5.35-.17,7.72,0s5.1.16,7.5,1.33q25.56,12.51,51.17,25c62.9,30.7,125.64,61.75,188.75,92,82.33,39.49,165,78.34,247.45,117.5a6.31,6.31,0,0,0,4.77.37q66-18.59,131.94-37.08l294.93-82.74Q756.26,596,902,555ZM-84,155.19c1.39-7.06,2.73-13.91,4.07-20.75l-.52-.17-12.28,17.56Z" transform="translate(325.51 -128.64)"/></svg>