<?xml version="1.0" encoding="utf-8"?>
<!-- Generator: Adobe Illustrator 24.3.0, SVG Export Plug-In . SVG Version: 6.00 Build 0)  -->
<svg version="1.1" id="Layer_1" xmlns="http://www.w3.org/2000/svg" xmlns:xlink="http://www.w3.org/1999/xlink" x="0px" y="0px"
	 viewBox="0 0 612 792" style="enable-background:new 0 0 612 792;" xml:space="preserve">
<style type="text/css">
	.st0{fill:#6E6EFE;}
</style>
<g>
	<g>
		<path class="st0" d="M-82.66,70.7c-1.8,9.12-3.54,17.99-5.35,27.18c6.57,2.52,13.14,5.05,19.71,7.55
			C94,167.27,256.3,229.09,418.59,290.91c163.85,62.41,327.71,124.82,491.56,187.24c6.84,2.61,13.68,5.23,20.52,7.84
			c1.19,0.45,2.44,0.85,1.35,2.79C591.94,359.23,251.91,229.69-88.41,100.05c-1.92,9.75-3.77,19.13-5.61,28.5
			c-3.39,17.21-6.79,34.41-10.14,51.63c-0.36,1.88-1.22,3.37-2.39,4.82c-68.72,85.42-137.43,170.85-206.14,256.28
			c-5.57,6.92-11.13,13.85-16.93,21.07c4.15,0.36,7.96-0.14,11.7,0.58c1.15,0.22,2.25,0.37,3.32,0.89
			c78.33,38.18,156.52,76.67,235.05,114.43c83.41,40.1,167.15,79.52,250.74,119.24c1.46,0.69,2.9,1.42,4.67,2.3
			c-2.01,1.23-3.41,0.57-4.83-0.1c-35.64-16.92-71.28-33.83-106.93-50.73c-47.91-22.71-95.93-45.19-143.7-68.19
			c-50.62-24.37-101-49.23-151.48-73.88c-27.15-13.25-54.33-26.45-81.42-39.83c-3.89-1.92-7.81-2.69-12.02-2.59
			c-2.25,0.05-4.49,0.12-6.76-0.65c-0.79-1.71,0.14-3,1.23-4.35c59.58-74.07,119.14-148.14,178.7-222.22
			c14.46-17.98,28.89-35.99,43.42-53.92c1.67-2.06,1.81-4.43,2.27-6.73c4.85-24.41,9.63-48.84,14.41-73.26
			c0.24-1.21,0.37-2.43,0.6-4.01c-3.66-1.44-7.4-2.92-11.37-4.49c5.57-7.94,11.02-15.69,16.44-23.47
			C-84.85,70.33-83.98,70.4-82.66,70.7z M-89.98,97.21c1.39-7.07,2.73-13.92,4.08-20.76c-0.19-0.06-0.37-0.11-0.56-0.17
			c-4.05,5.79-8.1,11.58-12.29,17.56C-95.78,94.98-93.16,95.98-89.98,97.21z"/>
	</g>
</g>
</svg>
