<svg id="Layer_1" data-name="Layer 1" xmlns="http://www.w3.org/2000/svg" viewBox="0 0 1264.22 630.09"><defs><style>.cls-1{fill:#3CB371;}</style></defs><path class="cls-1" d="M864.63,478.9,633,497.3,689.61,573l-154.76-8.33,34,41.52a2.1,2.1,0,0,1-1.45,1.54l-43-25.6c-9.94-5.91-19.94-11.74-29.8-17.79a16.15,16.15,0,0,0-8-2.34q-44-2.31-88-4.66c-.81,0-1.62,0-2.82,0,2.06,7,4,13.76,6,20.51q11.77,40,23.53,80c.34,1.16,1.74,2.95-1.14,3.43l-31.32-35.89q-30.57-35-61.13-70a4.15,4.15,0,0,0-3.05-1.85q-28.56-1.46-57.11-3a3.85,3.85,0,0,0-4,2.07q-6.94,11.26-14.17,22.36a3.75,3.75,0,0,0-.19,4.3q28.11,56.28,56.1,112.61c.36.72.66,1.46,1.37,3.05l-86.09-57.21c6.06,25.63,12,50.56,17.87,75.48-2,1.11-2.84-.26-3.79-1.4Q198.36,662.83,158,614c-.77-.94-1.58-1.87-2.67-3.15-9.1,20.3-18,40.21-27.07,60.35l22.93,13.3L171.11,696c1.1.63,2.18,1.19.51,2.66L146.22,684Q35,619.5-76.3,555a9.36,9.36,0,0,0-4.47-1.1c-15.19-.84-27.91,6.54-41.14,12.2q-7.23,3.09-14.4,6.31a2.23,2.23,0,0,1-2.86-.44q-56.24-52.87-112.54-105.7a7.12,7.12,0,0,0-1-.72c.56-2.41,1.68-1.73,2.86-1.11,10.34,5.37,20.66,10.76,31,16.06,6.79,3.47,14.47,3.27,21.87,4.66-6-3.49-12-7-18-10.48-13.61-7.89-27.24-15.75-40.82-23.69a6.87,6.87,0,0,0-5-.88c-8.36,1.49-16.74,2.86-25.1,4.32a7,7,0,0,1-4.33-.61c-8.21-3.77-16.46-7.46-25.52-11.54l38.32-3.71c-7-4.09-13.4-7.8-19.77-11.49l-29.17-16.89c-3.06-1.77-3.12-3-.24-5l96.05-66.65c.74-.51,1.47-1.06,2.44-1.76l-7.74-5.25c-.09-1.62.63-2,2.12-1.88,4.14.45,8.29.73,12.43,1.19a4.42,4.42,0,0,0,3.22-.92Q-111.07,255.67-4,181.43L35.51,154l2.82-2L27.81,130.74c11.08-3.45,21.93-6.84,32.79-10.21s21.78-7.44,32.94-10c9.79-2.23,16.62-8.84,24.53-13.89,6-3.8,11.67-8,17.47-12.06,2.4-1.68,4.33-1.68,6.38.83q53.18,65,106.46,129.88c.5.61,1,1.2,2,2.27,3.09-38.88,6.14-77.16,9.18-115.36,2.18-1,2.3.48,2.69,1.78Q275.06,147.7,288,191.37,297.33,223.2,306.7,255c.23.78.53,1.54,1,2.77,16.84-38.3,33.48-76.17,50.24-114.3l18.47,12.2c25.27,16.73,50.42,33.64,75.86,50.11,8.73,5.65,18.82,8.78,28.32,13,30.66,13.54,61.41,26.9,92.09,40.41,2.08.92,3.87,1.27,5.81,0,7.35-4.94,14-4.14,21.88.24,19.33,10.75,39.28,20.38,59,30.46,2.74,1.4,5.37,3.21,8.49,1.61,1,.95.75,1.81.22,2.8l25.19,12.91q30.43,15.58,60.86,31.19c2.14,1.11,4.22.66,6.34.48,4.4-.37,8.78-.86,13.17-1.29,1.19-.12,2.48-.34,2.16,1.86l-13.54,2.79,147.23,64.51c-.09,2.38-1.34,1.68-2.51,1.19l-76.46-32.53A43.53,43.53,0,0,0,820.14,372c2.23,1.17,4.46,2.36,6.7,3.51q53.46,27.33,106.91,54.63c1.19.61,2.29,1.15,1.45,3.07L774.59,419.29ZM114.28,561.7l.51.18-.26-.4-.43-.58c-2.44-3-4.87-6.1-7.32-9.13-2.73-3.37-11.18-6.32-15.91-5.41,7.75,5.08,15.3,10,22.86,15ZM-105.78,294.28l-.5-.34.12.72.61.34C-105.63,294.76-105.7,294.52-105.78,294.28Zm71.12-88.94L-35,206l.77-.23.47-.41.77-.7-.26-.32-.84.6ZM467,215.53l-.08-.37-.26.16.39.16.86.66c3.94,2.61,7.6,5.88,11.88,7.73,29.74,12.88,59.61,25.46,89.42,38.18a2.54,2.54,0,0,0,3.32-.65c-1.15-.52-2.12-1-3.1-1.4q-25.92-11.37-51.84-22.73-24.66-10.77-49.37-21.48Zm351.8,155.73.85.06c-.09-.19-.18-.39-.26-.58l-2.2-.68Zm-103-49.47,1,.46,3.87,1.78c.07-.16.14-.31.2-.47l-3.76-1.69-1-.51-1.28-.71c-15.52-8-31.1-15.84-46.51-24-3.37-1.78-6.11-1.5-9.53.37l55.57,24.14ZM687.49,312c-.22-.4-.46-.77-.94,0h1c.4.8,1,1,2.45.74ZM684,310.5c-.23-.46-.5-.72-1,0l1,.05a1.61,1.61,0,0,0,2,.78A2.4,2.4,0,0,0,684,310.5ZM-36.14,206.35c-.7.35-1.54.57-1.54,1.67,1.1.16,1.57-.64,2.13-1.29l.16-.57ZM241,408.45a2.8,2.8,0,0,0-2.33,1.26l1.87,1c.29-.78.5-1.38.71-2l0-.55Zm131.52-21c2.69-.12,5-1.38,7.46-2.31-2.63.28-6.25-2.56-7.41,2.35a1.45,1.45,0,0,0-.22.09s0,.1,0,.16ZM14.08,497.91l-.33-.32.1.57,3,5.39c1.22-.7,2.47-.71,3.25-1.94ZM68,481c-4.91.31-9.6,1.75-14.77,2.68l2.59,3L68,481l1.26-.15C68.51,480.56,68.16,480.5,68,481Zm74-126c0-.32,0-.46-.35-.22l.35.22c1.84,7.15,6.06,9.59,14.43,8.13C151.38,360.52,147.07,357.1,142,355Zm37.75,22.19-.57-.1c.08.16.16.32.25.48q6.42,7.47,12.85,14.93c.31.36.8.85,1.18.82,3.63-.29,7.26-.68,11.77-1.13ZM115,471.47c-19.73,3.72-39.8,6.27-57.49,17.16l1.12,1.45c12.22-4,24.31-7.89,36.37-11.87,6.67-2.2,13.31-4.51,20-6.77.39-.05.79-.11.2,0C115.7,471.24,115.33,471.35,115,471.47ZM316.84,298.64l.38.57.25-.14c-.1-.25-.19-.49-.29-.73-3.24-11.23-6.49-22.46-9.94-34.43L301,278.19a1.6,1.6,0,0,0,.4,1.82ZM129.14,574.35l-.74-.19.17.57,25.88,31.78,5.3-12.06ZM323.81,310.7l-1-1.15.55,1.59c3.52,12.17,7,24.34,10.63,36.68l17.93-3Zm76,28.65c-6.56,2.77-13.14,5.52-19.69,8.34-5.66,2.43-11.29,4.93-17.11,7.48L378.47,374,400,339.52l.31-.26Zm92.83-107.51c-.35-.27-.69-.59-1.18-.07l.72.54q28.69,19,57.4,38.07c.63.41,1.21.84,2,.47l16.3-7.11c-9-3.83-17.45-7.46-25.93-11.05Q517.33,242.25,492.65,231.84ZM108.22,549.26l-.58-.08.18.5c7.43,9.48,14.77,18.88,25.61,25.08,9.28,5.31,17.92,11.73,27.13,17.84,4.46-10.16,8.81-20.06,13.32-30.31ZM401.08,186.41c-.24-.33-.5-.49-.88-.12l.46.51c4.71,6.35,9.4,12.71,14.13,19,12.6,16.85,25.21,33.69,38,50.77L474,223.15C452.13,205.72,425.75,197.77,401.08,186.41Zm6,147.15c.78-.28,1.57-.52,2.33-.84l53.27-23.17,20.52-8.93-30.25-40.38c-8.3,13.09-16.41,25.85-24.48,38.63q-10.86,17.19-21.65,34.42l-.06.55ZM5.25,489.29l.59.14-.2-.57c-.38-.73-.72-1.49-1.14-2.2Q-8.86,464-22.25,441.29l-14-23.8-58,5.59c1.17.85,1.87,1.39,2.6,1.88q14.86,9.89,29.75,19.75Q-28.36,467,5.25,489.29Zm524,72.94.56,0-.19-.36a5.93,5.93,0,0,0-.5-.85c-13.67-16.69-27.39-33.34-41-50.09-1.45-1.79-2.95-2-5-1.81-16.35,1.35-32.69,2.62-49,3.93-6.23.5-12.46,1-19.25,1.61,25.64,15.25,50.75,30.18,75.87,45.08a5.37,5.37,0,0,0,2.33.67C505.18,561,517.24,561.62,529.29,562.23ZM110.9,299.1l.49.29-.07-.63c-.3-.68-.58-1.38-.91-2.05L49.79,175c-3.47-7-6.94-14-10.5-21.1L4.88,177.76c.61.76,1,1.28,1.45,1.78q34.5,39.51,69,79Q93.07,278.87,110.9,299.1ZM-243.32,470.3l-1.82-.77,1.36,1.26c1,1,2,2,3,3,32.3,30.3,64.72,60.47,96.76,91,4.87,4.65,8.41,5.87,14.5,2.57,7.9-4.28,16.45-7.35,24.72-11a13.52,13.52,0,0,0-4.5-.21L-145.11,559c-1.29.1-2.64.3-2.19-1.88l47.72-15.56c-6.53-3.79-12.5-7.17-18.38-10.71a11.93,11.93,0,0,0-5.85-1.77c-4.16-.18-8.32-.37-12.47-.6-9.21-.49-18.41-1-27.5-1.52-.56-1.43-.2-2.13,1.11-2.34,1.15-.19,2.29-.43,3.43-.66l21.56-4.33c-1.27-.81-1.93-1.27-2.62-1.67-11-6.39-22.25-12.42-33-19.24-10.56-6.71-21.63-11.51-34.13-12.89-6.62-.74-12.6-3.28-18.39-6.53S-237.47,473.29-243.32,470.3ZM100,111.79c.11.56.17,1,.26,1.37,17.7,74.62,35.52,149.2,52.93,223.89,2.33,10,5.48,19,13.29,26a5.54,5.54,0,0,0,3.38,1.73c10.12.84,20.3,1.29,30.33,2.77,13.23,1.95,25.68-1.92,38.44-3.6.13-.87.26-1.44.31-2Q244.44,292.45,250,223a5.57,5.57,0,0,0-1.46-4.27q-48.6-59.17-97.13-118.41L138.73,84.9ZM-117,280.53c1.54-2,2.27-.5,3.07.47q25.44,30.84,50.86,61.7a5.31,5.31,0,0,0,3.91,2.24q43.68,3.71,87.34,7.54l96.55,8.37c5.91.51,11.83,1,18.57,1.54-2.83-4-3.05-8.79-7-11.14Q42.86,295.6-50.61,240c-4.89-2.9-9.76-5.83-14.92-8.92l28.06-22.65-.66-.86L-216.36,331.24l136.2,11.81Zm510.39-99.87,44.1,19.26c.17-.31.33-.63.5-.95l-79.08-52.35c-.45.92-.81,1.56-1.1,2.22Q333.55,204,309.29,259.16a5.47,5.47,0,0,0-.21,4c3.87,13.08,7.69,26.17,11.58,39.24a9,9,0,0,0,1.65,3c10.11,12.39,20.28,24.73,30.37,37.14a3.46,3.46,0,0,0,3.79,1.46q21.28-3.66,42.59-7.16a7,7,0,0,0,5.1-3.5c7.62-12.22,15.38-24.35,23.09-36.51l24.36-38.42ZM858.29,477.32c-1.46-1-2.24-1.63-3.06-2.17-26.1-17.28-52.25-34.5-78.27-51.9-4.33-2.9-8.58-5.08-14-5-4.06,0-8.12-.66-12.18-1L667.2,410l-77.88-6.79c-9.34-.81-18.68-1.59-28.22-2.4a5.16,5.16,0,0,0,.34.95Q596,448,630.58,494.19a2.51,2.51,0,0,0,2.57,1q43.32-3.45,86.65-6.85,49.17-3.9,98.34-7.84Zm-229.42,18.2c-.48-.76-.63-1-.83-1.31q-34.56-46.2-69.12-92.42a3.61,3.61,0,0,0-2.94-1.46c-14.26-1.24-28.5-2.65-42.78-3.69-6.51-.48-13-2.14-19.6-.83q-32,6.33-63.9,12.71c-6.41,1.28-12.81,2.58-19.47,3.93.43.67.61,1,.86,1.34q37.53,45.78,75.05,91.58a3.12,3.12,0,0,0,3,1.25c7.71-.65,15.44-1.2,23.15-1.81l91.84-7.31Zm-703.71,58L126.39,670.08c.29-.55.5-.89.66-1.26q12.87-29.22,25.75-58.44a2.89,2.89,0,0,0-.58-3.52c-5.31-6.31-10.39-12.82-15.79-19-7.86-9-14.18-19.49-25.14-25.67-7.89-4.44-15.28-9.79-22.73-15-6-4.17-12.77-5.15-19.66-5-7.31.13-14.61,1.07-21.9,1.72-1.85.17-3.79-.13-5.88.84l62.79,106.5c-.45.73-1,1.19-1.82.91-.28-.46-.55-.88-.8-1.31Q70.6,598.77,40,546.7a3.52,3.52,0,0,0-3.9-2.09q-42.67,3.52-85.37,6.85Zm-180-104.37c.88.59,1.27.88,1.68,1.12q28.73,16.64,57.47,33.24c3.14,1.8,6.09,3.87,9.86,4.61C-156.18,494-126.61,500-97,505.85c5.49,1.07,10.89,3.47,16.66,2.34,21.29-4.18,42.56-8.46,63.84-12.7l20.75-4.16c-.83-.62-1.2-.93-1.61-1.2-31.47-20.92-63-41.72-94.33-62.88a18.3,18.3,0,0,0-14.4-3.08c-17.62,3-35.28,5.88-52.92,8.84C-190.74,438.34-222.49,443.71-254.8,449.15ZM-101.36,421l-124.82-82.95-100.4,69.65,51.84,30a4.49,4.49,0,0,0,2.92.3q22-2.07,44-4.19,54.08-5.19,108.14-10.41C-113.76,422.86-107.77,422.67-101.36,421ZM136.1,348.72c-.78-1.71-1.11-2.52-1.5-3.29q-8.73-17.55-17.5-35.07a15.41,15.41,0,0,0-2.18-3.29Q71.16,256.88,27.37,206.73c-8-9.21-16.09-18.41-24.49-28L-62,230.86Zm353.14,160c.44.72.61,1.1.86,1.41q21,25.61,41.95,51.22a3.45,3.45,0,0,0,2.81,1.24q67.82,3.64,135.62,7.36c4.76.26,9.51.45,14.42.68a4.94,4.94,0,0,0-.3-.8Q658,534.21,631.37,498.58a2.5,2.5,0,0,0-2.57-1c-6.56.56-13.11,1.06-19.67,1.58l-92.35,7.35ZM41.05,152.67c.38.82.69,1.5,1,2.17q36.17,72.61,72.34,145.23c1.52,3,2.63,6.3,4.93,8.92q15.65,17.86,31.23,35.76c.84,1,1.7,1.91,3.33,3.73-18.76-79.13-37.24-157.08-55.8-235.39Zm119.71,245.9L-3.8,414.39c.83,1.08,1.26,1.67,1.73,2.24,16.91,20.5,33.88,40.94,50.65,61.56C50.89,481,52.94,482,56.49,481c8.19-2.19,16.95-2.33,24.77-5.65,26.57-11.27,53-22.92,79.44-34.44,4.54-2,9.08-4,13.37-5.88A89.57,89.57,0,0,0,160.76,398.57ZM929.9,430.66c-1.6-.91-2.15-1.24-2.72-1.54-28.44-14.55-56.8-29.24-85.33-43.6-28-14.08-55.28-29.67-84.5-41.25a5.81,5.81,0,0,0-3.57-.41c-15.5,3.14-31,6.18-46.51,9.27-8.17,1.63-16.33,3.29-24.75,5a7.07,7.07,0,0,0,.82.77q43.3,28.68,86.64,57.33a4.62,4.62,0,0,0,2,.74q17.54,1.57,35.08,3.06L891,427.31Zm-1154-93.81c.42.33.68.54,1,.72q61.77,41.08,123.55,82.17a4.48,4.48,0,0,0,3.53.6c8.61-1.48,17.23-2.92,25.84-4.38l29.92-5.08c-.45-.85-.72-1.44-1.05-2q-18.13-30.76-36.23-61.54A4.37,4.37,0,0,0-81.49,345c-14.53-1.16-29-2.45-43.55-3.7-29.87-2.59-59.73-5.11-89.58-7.88A11,11,0,0,0-224.08,336.85Zm580.56,86.32a5.77,5.77,0,0,0,.06,1q9.73,33.13,19.47,66.29a3.87,3.87,0,0,0,2.13,2.26q15.89,9.43,31.74,18.9a6.35,6.35,0,0,0,4,1q26.75-2.16,53.51-4.22c5.67-.45,11.33-.94,17.12-1.43a5.64,5.64,0,0,0-.36-.79Q446.39,460.08,408.62,414a1.93,1.93,0,0,0-2.1-.88C389.89,416.48,373.26,419.8,356.48,423.17ZM180.05,458.93c-41.79,4.82-80.31,20.37-119.86,32.78a8.81,8.81,0,0,0,.61,1.13q18,21.89,36.05,43.76c.93,1.14,2,1,3.11.92,26.21-2.07,52.41-4.52,78.65-6,7.54-.43,11.44-3,13.25-10,.68-2.59,2.09-4.77,1.29-7.83-2.79-10.78-5.19-21.66-7.76-32.5C183.59,473.64,181.76,466.07,180.05,458.93ZM-59.17,347a7.49,7.49,0,0,0,.57,1.11q23.35,28.35,46.69,56.69a2.57,2.57,0,0,0,2.84.87c7.7-1.34,15.42-2.59,23.13-3.89L125.3,383l25.85-4.37c-2.3-4.58-4.47-8.85-6.56-13.17-.48-1-1.25-.93-2.07-1l-14.18-1.24L44.76,356l-77.85-6.78Zm607.9,37.81c3.13,4.19,6.09,8.07,9,12a4,4,0,0,0,3.23,1.87c15.51,1.29,31,2.66,46.52,4L680.07,409,741,414.33c8.24.71,16.48,1.4,25.48,2.16-1.54-1.07-2.46-1.73-3.4-2.35q-40.62-26.88-81.21-53.79a6.74,6.74,0,0,0-5.57-1.07C634,367.79,591.63,376.22,548.73,384.78ZM240.84,363.52c6.84-1.16,13.3-2.35,19.8-3.29a3.66,3.66,0,0,0,3.19-2.55q16.73-38.16,33.54-76.29a3.12,3.12,0,0,0-.52-3.77q-21.62-26.22-43.15-52.51c-.43-.52-.67-1.35-1.75-1.38Q246.4,293.55,240.84,363.52Zm64.52,325.3c-.62-1.42-.9-2.17-1.26-2.88Q277.53,632.53,251,579.12a3,3,0,0,0-2.41-1.81c-8.17-1.58-16.32-3.24-24.48-4.87l-15.61-3.14c.15.83.21,1.3.31,1.75q7.29,30.72,14.53,61.44a5.31,5.31,0,0,0,2.45,3.49q27,17.87,53.89,35.8C288,677.33,296.37,682.86,305.36,688.82ZM292.09,510.05c-.56-.67-1-1.25-1.5-1.81-16.7-19.14-33.47-38.22-50-57.47-2.45-2.85-4.67-4.37-8.31-2.81-1.64.7-3.85-.09-4.88,2.25-5.76,13-11.61,26-17.44,39a2.94,2.94,0,0,0-.1,2.82q8.51,17,16.93,34a2.09,2.09,0,0,0,2.32,1.36q26.76-2.19,53.53-4.28a2.07,2.07,0,0,0,1.89-.91C287,518.1,289.53,514.11,292.09,510.05ZM261.15,107.79c-.51,6.53-.92,12-1.35,17.42q-3.68,46.19-7.38,92.35a5.79,5.79,0,0,0,1.43,4.53q20.49,24.87,40.9,49.82c1.38,1.69,2.82,3.33,4.42,5.21,2.19-4.95,4.12-9.46,6.17-13.92a6,6,0,0,0,.3-4.53q-19.18-65-38.26-129.93C265.42,122.08,263.43,115.44,261.15,107.79ZM663.29,348.2c-1.49-1.05-2.28-1.63-3.09-2.17-16-10.56-32-21.08-47.86-31.72a5.64,5.64,0,0,0-5.51-.71q-34.71,11.4-69.45,22.67c-6.6,2.15-13.18,4.32-20,6.57,4.44,5.94,8.63,11.52,12.78,17.14a2.08,2.08,0,0,0,2.14.86q13-1.29,26.08-2.54l75.77-7.3ZM380,375.39c7.29-.68,13.83-1.14,20.34-1.94,8.65-1.07,17.56-.56,25.94-3.19,20.29-6.38,40.47-13.12,60.69-19.71l27-8.81c-4.4-5.87-8.68-11.38-12.69-17.07a4.46,4.46,0,0,0-5.13-2.14q-45.24,7.75-90.52,15.31a4.33,4.33,0,0,0-3.29,2.2c-5,8-10.05,15.89-15.08,23.83C384.92,367.5,382.63,371.13,380,375.39Zm74.16-117c10.34,13.81,20.65,27.57,31,41.41l63.48-27.63-72.74-48.09ZM747.23,340.1c-1.31-.64-1.66-.84-2-1-27.93-11.88-56-23.5-83.72-35.81-7.21-3.2-13.44-3.8-20.75-.87-9.06,3.62-18.52,6.22-28.13,9.37a15.1,15.1,0,0,0,1.34,1.17q25.82,17.1,51.64,34.19a3.93,3.93,0,0,0,2.81.55q30.07-2.91,60.15-5.75C734.48,341.39,740.41,340.78,747.23,340.1ZM381.15,515.17c-2-6.85-3.95-13.35-5.79-19.89a5.31,5.31,0,0,0-2.59-3.39q-23.2-13.71-46.35-27.52c-.68-.4-1.29-1.1-2.4-.82q-14.58,23-29.32,46.25c2.95,3.38,5.79,6.54,8.5,9.79a3.82,3.82,0,0,0,3.63,1.52C326.9,519.49,347,518,367,516.39,371.65,516,376.26,515.59,381.15,515.17Zm40.48,140,.68-.35q-14.4-48.9-28.8-97.78l-60.39-3.26Zm-99.19-193a5.87,5.87,0,0,0-.79-.68q-19.2-11.43-38.39-22.87a3.34,3.34,0,0,0-2.59-.37c-7.25,1.49-14.51,2.88-21.77,4.33-6.38,1.27-12.75,2.58-19.44,3.93l53.82,61.65C303.08,492.75,312.74,477.5,322.44,462.2Zm222.69-78.8c-5-6.69-9.76-13-14.48-19.34a2,2,0,0,0-2.12-.9c-3.39.38-6.79.68-10.18,1-25.34,2.44-50.68,4.82-76,7.37-8.57.87-17.25.84-25.55,3.93-7.55,2.8-15.3,5-23,7.56-.54.18-1,.46-2.13,1l17.08,1.51q33.57,2.92,67.14,5.83c7,.61,14.28,2.42,21.1,1.42C513,390.38,528.85,386.65,545.13,383.4ZM332,348.17c-3.2-10.84-6.27-21.28-9.36-31.71-1.13-3.83-1.4-8.28-3.61-11.34-5.92-8.22-12.67-15.84-19.34-24l-34.4,78.28ZM162,596.08c-1.58,3.53-2.93,6.93-4.62,10.14-1,1.89-.58,3.06.68,4.59q37.72,45.62,75.36,91.3c1.74,2.11,3.52,4.2,5.67,6.76a14.49,14.49,0,0,0-.14-1.68q-8.24-34.83-16.48-69.66a4.54,4.54,0,0,0-2.22-2.82q-24.13-16-48.25-32.06C168.75,600.5,165.49,598.38,162,596.08ZM-33.9,417.31c.61,1.1,1,1.82,1.4,2.51Q-14.77,449.92,3,480c2,3.36,3.3,8.05,6.27,9.64s7.6-1,11.51-1.61l.25,0,28.39-5.69c-.93-1.15-1.58-2-2.26-2.8-15.72-19.07-31.7-37.94-47-57.33-4.52-5.71-8.81-8.43-16.14-6.79C-21.72,416.65-27.68,416.69-33.9,417.31ZM595.79,303.7a11.8,11.8,0,0,0-1.08-1q-21.44-14.21-42.86-28.42c-1.22-.82-2.12-.4-3.2.08L508.41,291.9l-22,9.58c4.07,5.46,8.06,10.58,11.76,15.9,1.44,2.06,2.91,2.37,5.2,2,14.5-2.53,29-4.93,43.52-7.38ZM487,560c-1-.66-1.26-.89-1.59-1.09q-36.35-21.63-72.7-43.26a3.6,3.6,0,0,0-1.82-.69c-8.92.65-17.83,1.36-27,2.07,3.78,12.84,7.46,25.34,11.2,38ZM381.78,517.24l-75.38,6c8.23,9.43,16.17,18.5,24.08,27.59a3.05,3.05,0,0,0,2.47.9q19.67,1.09,39.35,2.2c6.75.37,13.51.67,20.57,1C389.14,542.23,385.51,529.89,381.78,517.24ZM242.42,412c6,3.55,11.85,7,17.65,10.55a4.74,4.74,0,0,0,4.41.51q34.23-11.24,68.5-22.34c4.38-1.43,8.75-2.88,13.2-4.35-1.1-3.7-2.47-7-3-10.4-.64-4.23-3-4.78-6.57-4.39-10.17,1.11-20.37,1.9-30.54,3-5.1.58-10.47,0-15.26,2-14.26,6-28.33,12.38-42.6,18.35A9,9,0,0,0,242.42,412ZM162.84,594.13l58,38.56a4.06,4.06,0,0,0,.11-1.09q-7.25-30.68-14.5-61.37c-.21-.87-.53-1.5-1.54-1.7-9.29-1.83-18.57-3.68-28.11-5.58C172.2,573.28,167.58,583.56,162.84,594.13Zm514-237c-3.68-2.45-6.79-4.51-9.89-6.59a3.08,3.08,0,0,0-2.13-.45q-18.63,1.81-37.27,3.59L551.29,361c-6.18.59-12.36,1.21-18.95,1.86,4.49,6,8.83,11.58,12.88,17.36,1.53,2.18,3,2.62,5.55,2.11q44.63-9,89.31-17.89ZM-9.74,407.84c2.51,1.52,2.63,4.8,5.59,4.52q31.44-2.92,62.87-6,38-3.66,76-7.35l25.29-2.45-7.92-16Zm274.29,17.31c6,3.57,11.5,6.83,17,10.12a3.13,3.13,0,0,0,2.41.24q31.1-6.21,62.16-12.43c1.94-.39,5.94-6.59,5.41-8.46-1.5-5.35-3.11-10.68-4.75-16.25Zm343-113.9c-2.37-1.58-4.49-2.86-6.45-4.35a6.26,6.26,0,0,0-5.32-1.14c-20.24,3.49-40.49,6.86-60.74,10.27-11,1.85-22,3.73-33.55,5.67L516,341.07ZM325.41,461.37l48.39,28.79c-6.63-22.5-13.09-44.45-19.61-66.57-2.27.84-4.78,0-6.16,2.14C340.5,437.51,333,449.33,325.41,461.37ZM642.49,295.83c-.42-.44-.5-.61-.64-.67l-70-29.74c-.45-.19-1-.53-1.4-.38-5.75,2.39-11.47,4.86-17.65,7.5,15.54,10.28,30.53,20.18,45.5,30.1a2.77,2.77,0,0,0,2.15.3ZM-76.35,345.48l38.36,65,24.58-4.16a14.43,14.43,0,0,0-.82-1.25l-47.21-57.24c-.47-.56-.88-1.23-1.74-1.3Zm409,5a4.06,4.06,0,0,0-.92-.16l-66.4,11.12a1.56,1.56,0,0,0-1.36.91c-1.44,3.3-2.9,6.6-4.45,10.14,12.06,1,23.77,1.75,35.4,3.12,8.16.95,15.83,1,23.36-3.13,5.84-3.24,12.22-5.49,18.44-8.22ZM25.77,502.93c1.21.85,1.93,1.39,2.68,1.89,15,10,30.23,19.78,45.05,30.09,6.92,4.82,14.07,3.27,21.84,3l-37.5-45.46ZM37.15,542.5c-1.2-3.06-2.31-5.42-6.15-5.08-3,.27-6-.24-9-.41-17.54-1-35.08-1.71-52.6-3-9.92-.71-19.46-.76-28.41,4.58-3.83,2.28-8.19,3.66-12.31,5.46-3.62,1.58-7.23,3.18-11,4.85,2.34,2,4.54,2.9,7.34,2.58,4.71-.53,9.46-.77,14.19-1.15l73.42-5.87Zm351-156.75c6.89,8.4,13.32,16.22,19.72,24.06.91,1.1,1.93.62,3,.41L442.06,404l45.66-9.14v-.46Zm-465.68,124c12.72,2.55,24.71,4.55,36.47,7.45,7.2,1.77,13.83,1.59,20.56-1.33,2.35-1,4.88-1.64,7.33-2.44l28.11-9.18c-2-3.34-3.68-6.48-5.63-9.46a3.74,3.74,0,0,0-4.32-1.56c-7,1.54-14,2.83-21,4.23Zm42.35,10.82c-1.19-.36-1.62-.53-2.06-.62-11.65-2.34-23.27-4.77-34.95-7-4.67-.88-9.18-2.69-14.21-1.56-9.4,2.11-18.9,3.81-28.36,5.7-5.44,1.09-10.87,2.22-16.95,3.46,6.22,3.09,10.92,7.18,17.92,7.12,10.37-.08,20.75,1.21,31.13,1.59,8.88.32,17.79,2,26.57-1.74C-49.65,524.8-42.7,523.06-35.23,520.61Zm441.45-109.5c-4.4-5.37-8.53-10.43-12.68-15.48-2.64-3.2-4.76-7.91-8.13-9.15-3.53-1.3-7.87,2.18-12,3.15a7.73,7.73,0,0,0-5.09,3.91c-4,6.6-8.06,13.22-12.46,19.56-2,2.95-1.38,5.29,0,8.08ZM328.34,551.48c-6.27-7.19-12.17-13.93-18-20.69-6.67-7.7-6.64-7.06-16.95-6.76-6.73.2-10.27,3-13.18,8.48s-6.44,10.36-9.91,15.83Zm-116.1-133c-6.62-7.59-13-14.91-19.38-22.26a2.24,2.24,0,0,0-2.25-.59c-3.15.31-6.29.59-9.44.91L168,397.93a84.09,84.09,0,0,0,12.49,34.37Zm111.41,41.81,22.19-35-60.72,12.11Zm111.58-90.76.12.56,93.12-9-13.22-17.67Zm62.62-49.33c-4.67-6.22-9-12.05-13.44-17.9L411.56,334l.24.68ZM-181.89,491l-.24.42,47,27.23a3.08,3.08,0,0,0,2.4.1c8.07-1.61,16.14-3.19,24.21-4.81,6.44-1.29,12.87-2.62,20.3-4.14Zm464.42,34.16-54,4.28c2.86,5.78,5.52,11.19,8.23,16.59.42.83,1.32.56,2,.6,9.13.51,18.26,1,27.39,1.52a2.69,2.69,0,0,0,2.8-1.5c3-4.87,6.12-9.7,9.18-14.55C279.51,529.92,280.86,527.77,282.53,525.12ZM238,373.29c-19-4.49-37.54-1.68-56.27,2.57,8.89,5.28,17.59,10.47,26.31,15.62a3,3,0,0,0,1.66.32c8.37-.77,16.73-1.59,25.1-2.37,1.17-.11,2.06-.34,2.16-1.83C237.22,382.79,237.62,378,238,373.29Zm11,202c-4.49-9.06-8.67-17.45-12.79-25.87-.56-1.14-1.47-.89-2.32-.94-4.81-.31-9.62-.61-14.44-.86-5.34-.27-10.69-.49-16.38-.74,1.52,6.4,3,12.35,4.31,18.34a2.58,2.58,0,0,0,2.44,2.28c5.71,1.1,11.39,2.28,17.09,3.42ZM174.89,437l-83,36.1c29.67-3.68,58.11-11.77,86.21-22.28C177.08,446.34,176,441.76,174.89,437Zm-73.78,104.3a11,11,0,0,0,8.6,6.17c10.32,1.82,20.57,4,30.84,6.07,11.32,2.27,22.63,4.56,34.15,6.88l6.5-14.8Zm-61-390.45,54.64-37.92-.34-.72L30.71,132C33.92,138.46,37,144.54,40.08,150.84ZM562.32,602.32a14.46,14.46,0,0,0-1-2.06q-14.24-17.37-28.47-34.75a3.2,3.2,0,0,0-2.62-1.08c-4.57-.25-9.13-.57-13.7-.81-6.71-.35-13.42-.65-21-1ZM18.16,505.73c2.89,4.92,6.21,9.5,8.41,14.57,3.91,9,9.89,14.51,20.11,14.41a1.09,1.09,0,0,1,.24.07c8.64,2.15,17.43,2.77,26.92,2.79-1.13-.83-1.75-1.32-2.41-1.76-15-10-30.16-19.87-45.08-30C23.43,503.77,21.13,503.94,18.16,505.73Zm163-71.45c2.34,4.7,4.51,9.07,6.8,13.65l38.94-12.68c-4.58-5.25-8.88-10.16-13.22-15.12Zm14.07,79.48c3.55-8.07,6.78-15.53,10.12-22.93a3.8,3.8,0,0,0-.14-3.71c-3.58-7-7.06-14.13-10.58-21.19-1.58-3.18-3.19-6.35-4.79-9.54L182,458C186.38,476.54,190.71,494.8,195.2,513.76Zm-466-73.73c4.19,2.43,7.79,4.46,11.31,6.6a5.09,5.09,0,0,0,3.78.61c17.29-3,34.6-5.84,51.91-8.76l63.35-10.7,0-.28ZM16,506.12l-35.29,15.37L31,531.57ZM225.3,527.57c-5.77-11.56-11.36-22.79-17.15-34.42-3.33,7.39-6,14.57-9.71,21.21-3.07,5.56-.26,10.13.53,15.31ZM660,292.64c-.48-.32-.73-.53-1-.68l-68-34.78c-.56-.28-1.12-.69-1.87-.36-3.47,1.53-7,3-10.87,4.72,1.12.52,1.76.83,2.41,1.11,22.24,9.76,44.53,19.4,66.68,29.36A16,16,0,0,0,660,292.64ZM343.21,379l34-3.29L361.05,356l-21.81,9.51C340.62,370.17,341.9,374.52,343.21,379Zm-136,107.57,16.16-36.8L192,456C197,466.21,202,476.16,207.17,486.54Zm72.26-50.13c-6-3.57-11.47-6.82-16.92-10.1-.81-.49-1.46,0-2.13.21q-12.33,4-24.63,8c-2.76.9-3.27,3.57-1.68,6,2.41,3.66,5.27,4.78,9.4,3.16a33.19,33.19,0,0,1,5.61-1.14Zm-80,95.32c.31,1.34.55,2.47.83,3.58.79,3,.71,7,2.62,8.88s6,.6,9.15,1c.41.05.82.09,1.24.11l21.36,1.12c-2.77-5.54-5.38-10.72-8-15.92a1.56,1.56,0,0,0-1.83-.87Zm-93.92,7.42-.13.31,76.68,4.13c1.58-3.63,3.06-7,4.74-10.88Zm89.21-143.8,19.46,22.29,19.44-8.47c-6.55-3.9-13.11-7-18.69-11.33C208.62,392.9,202.11,394.67,194.77,395.35ZM33,535.57c-.42-1.78-1.56-1.83-2.58-2Q4.78,528.4-20.9,523.26a4.11,4.11,0,0,0-2.19-.09c-6.16,2.6-12.28,5.3-19.23,8.32Zm172.57,31c-1.63-6.88-3.18-13.38-4.74-20-5.15-.25-10.12-.46-15.1-.74a1.57,1.57,0,0,0-1.76,1L177.72,561Zm53-192.1-5.74,13.14c10.49-1,20.56-2.36,30.68-2.87,7.21-.37,13.46-2.91,20.29-6.33Zm-7.55,200.27,15.57-24.59-28.56-1.46ZM669.45,349.67c2.94,2,5.43,3.48,7.73,5.23a6.22,6.22,0,0,0,5.53,1.11c15.38-3.16,30.78-6.21,46.18-9.29l21.68-4.34c0-.16-.05-.33-.08-.49Zm-733.73-5.25L-105,295.06a2,2,0,0,0,0,1.84Q-91.7,319.46-78.4,342a2.4,2.4,0,0,0,2.1,1.44C-72.49,343.7-68.68,344.06-64.28,344.42Zm254.82,49.21c-5.07-5.79-9.69-11.1-14.36-16.37a1.7,1.7,0,0,0-1.32-.45c-3.82.58-7.63,1.23-11.67,1.9,1.4,5.89,2.72,11.44,4.07,17.14Zm365.7,4.63c-3.07-4.1-5.79-7.56-8.29-11.17-1.11-1.6-2.25-1.79-4-1.42-6.33,1.36-12.7,2.57-19.06,3.85-6.61,1.33-13.21,2.68-20.86,4.23ZM123.4,316.76l-.47.29c.32.72.61,1.46,1,2.17,4.1,8.26,8.43,16.42,12.22,24.82,2.19,4.84,5.17,8.44,10,10.72,3.51,1.66,6.74,3.91,10.7,6.26-1.14-4.44-1.46-8.1-4.38-11.15-5.28-5.53-10.12-11.47-15.15-17.23Q130.37,324.69,123.4,316.76ZM-307.8,443.61c5.9,2.67,11.08,4.91,16.16,7.36a11.59,11.59,0,0,0,7.64,1.08c7.39-1.44,14.84-2.58,23-4-4.38-2.53-8.11-4.63-11.78-6.84a5,5,0,0,0-3.3-.74C-286.37,441.53-296.7,442.53-307.8,443.61Zm361.24,44c-1.26-3-3.15-3.47-6.06-2.78-7,1.64-14.15,2.85-21.22,4.27-5.22,1-10.43,2.12-16.32,3.32,2.19,1.49,3.94,2.35,5.28,3.64,5,4.79,9.88,4.78,15.92,1.51C38.22,493.64,46,490.83,53.44,487.57ZM191,454.09c9.45-1.9,18.66-3.71,27.85-5.6,1.9-.4,4.52,0,5.54-1.6,1.85-2.92,3-6.32,4.67-10.2l-40.2,13.11C189.65,451.35,190.27,452.6,191,454.09ZM377.25,494.6c2.15,7.26,4.09,13.82,6.05,20.46l24.94-2ZM-87.31,548.7a72.37,72.37,0,0,1-6.62-3.94c-2.27-1.67-4.35-1.59-6.91-.69-6.57,2.33-13.24,4.36-19.86,6.52-5.06,1.66-10.1,3.35-15.15,5,10.72-.21,21.28-1.33,31.86-1.79C-98,553.56-92.8,551.35-87.31,548.7Zm426-185.18,21-9.18c-1.83-2.22-3.39-4.16-5-6.07-.55-.67-.9-1.64-2.11-1.44-5.87,1-11.75,1.94-17.93,3C336,354.47,337.27,358.83,338.64,363.52ZM-94.51,542.11c2.55,1.48,4.87,2.63,7,4.11s3.61,1.25,5.72.3c7.72-3.51,15.52-6.81,23.3-10.2,2.2-1,4.4-2,7.47-3.32-5.51.06-10.13-1.49-14.43-.26C-75.07,535.46-84.47,538.83-94.51,542.11ZM229.28,434.87c5.72-7.34,4.83-15.7,5.73-24l-19.35,8.45ZM-70.3,532.06l-45.88-2.48c6.77,3.91,12.56,7.29,18.39,10.61a2.29,2.29,0,0,0,1.65.24C-87.89,537.79-79.66,535.1-70.3,532.06ZM284.64,387c-1.29-.09-1.59-.15-1.89-.13l-29.31,2.71c-.76.07-1.51.16-1.87,1l-5.85,13.35Zm86.86-2.72-27.41-2.36c1.44,4.86,2.74,9.26,4.08,13.8,5.84-1.9,11.3-3.88,16.88-5.41A8.66,8.66,0,0,0,371.5,384.3ZM235.59,432.42l24-7.83-18.28-10.86C239.24,420,234.83,425.19,235.59,432.42Zm20.87-58.08-16.36-1.42c-.43,5.46-.84,10.63-1.27,16l10.9-1c.7-.06,1-.54,1.22-1.08C252.72,382.88,254.48,378.86,256.46,374.34Zm-21.19,33.39c.44-5.7.84-10.93,1.26-16.45l-24.87,2.41Zm78.35-31.09.06.61,27.55,2.29c-1.44-4.86-2.66-9-3.93-13.22ZM647.7,298.17l-.21-1.05-45.43,7.61c6.42,5.74,7.24,5.93,14.46,3.62l6.17-2ZM367.13,391.73l-18.39,6c1.52,5.19,3,10.16,4.62,15.71Zm-5.47-38.23,29-12.63-.16-.48-34.79,5.87Zm-121,17.38,16.76,1.44c1.46-3.36,2.83-6.53,4.42-10.21l-21.18,3.54ZM197.36,531.8c-2.5.56-5.6-.65-7,1.35-2.14,3.14-3.31,7-5,10.66l14.93.74C199.33,540.19,198.37,536.12,197.36,531.8ZM573.45,263.86l74.29,31.56c.09-.95-.14-1.18-.43-1.3Q612.14,278.7,577,263.29A2.94,2.94,0,0,0,573.45,263.86ZM237.36,407.55c2.24-1.19,4.85-1.13,5.87-3.21,2.25-4.61,4.17-9.38,6.34-14.34l-10.93,1.13ZM160.66,377c-.84-3.58-1.57-6.72-2.31-9.85-.18-.75-.46-1.44-1.39-1.51l-10.36-.8c2.35,4.71,4.47,9,6.68,13.37Zm9.75-10.14c2.93,5.1,7.09,7.35,11.86,6.55,6.75-1.12,13.5-2.31,20.24-3.47l-.06-.33Zm-207,45.45c.56,2.46,1.72,3.11,3.74,2.77,2.29-.37,4.63-.41,6.94-.63,5.8-.57,11.6-1.16,18.25-1.83-2.23-1.56-2.61-4.46-4.83-4.17C-20.5,409.53-28.47,411-36.57,412.33Zm448.7-37.42-.15-.5-30.73,3c1.42,1.72,2.49,3,3.51,4.28.67.86,1.21,1.79,2.59,1.33Q399.74,378.94,412.13,374.91ZM-58.22,530.11C-45.73,534-36.9,525.93-27,521.92-37.87,522.34-47.47,527.48-58.22,530.11Zm-96.18-5v.36l29.82,1.62c-2.74-1.59-4.5-2.71-6.35-3.65s-3.07-2.49-5.42-2C-142.34,522.79-148.38,523.9-154.4,525.1ZM165.12,395.74c-1.33-5.59-2.65-11.1-4-16.71l-6.5,1.15a2.4,2.4,0,0,0,0,.7c2.22,4.53,4.53,9,6.64,13.6C162.1,396.25,163.14,396.58,165.12,395.74Zm121.39,127,15.63-1.25-8.6-9.84ZM64.19,540.38c-9.29-2.3-17.94-1.86-27.11-2.54l2.65,4.51ZM162.7,376.66l11.53-1.9c-4.19-4.2-9.13-6-14.21-9.51C161.05,369.63,161.85,373,162.7,376.66Zm-237,42.07,0,.37,36.68-3.54c-.63-1.74-1.17-2.89-3.1-2.55C-51.92,415-63.14,416.83-74.35,418.73ZM186,448.57l-6.68-13.46-2.44,1.14c1.12,4.76,2.23,9.4,3.36,14.2Zm189.69-70.66-24.3,2.3c6.07.8,12.22,1,18.24,2C373.31,382.79,374.31,380.82,375.64,377.91Zm-75.81,5.23L325,380.73C316.53,380,307.82,376.61,299.83,383.14Zm-144,77.43.16.51,23.58-4.7c-.31-1.14-.55-2.06-.87-3.25ZM82.61,541.31c6.59,2.44,12.64,2.92,19.48,4.57-2.11-2-2.79-4.51-4.61-4.66C92.9,540.84,88.26,539.93,82.61,541.31ZM221.73,368.86l.06.45,16.2,1.31a9,9,0,0,0,.32-4.6ZM181.53,456l7.33-1.58-2-4-6.06,2C181,453.64,181.25,454.73,181.53,456ZM655.17,297.59l-.31.88,23.91,10.17L679,308ZM-9.56,514.4l-16.18,5.32C-19.38,520.75-14.78,516.52-9.56,514.4Zm393-131.14-4.77-5.82-3.25,5.15ZM196.87,529.84c-.57-2.39-1.08-4.59-1.79-7.57l-3.57,8ZM41.39,495.68l14.8-4.84C54.75,489.08,48.05,491.25,41.39,495.68ZM158.07,356.42c1.14,6.95,2,7.95,6.59,7.6Zm77.46,88.78-3.88-4.46c-.9,2-1.67,3.73-2.57,5.75ZM-231.73,331.94l5.57,3.62,3.91-2.77Zm399.15,74.69c-.77-7.22-1.54-8.75-4-7.94Zm69,12,.56.08,2.61-6-2.52-1.39C236.85,413.93,236.64,416.26,236.43,418.6Zm-60.17,15.28a1.76,1.76,0,0,0,1.88-1.07c-1.06-2.08-2.15-4.25-3.25-6.41l-.38.17ZM-89.52,552.58l7.35-.59C-85,548.76-87.22,551.26-89.52,552.58ZM352.67,418.34,350.43,422c1.26,0,2.25.23,3.07-.67ZM41.22,535.67l-5.58-1C37.28,536.35,39.28,535.78,41.22,535.67ZM690.3,313l-.18.45,2.54,1.09.17-.43Zm-7.43-3.23-3.11-1.33C680.52,309.22,681.26,310.11,682.87,309.76Zm12,5.26c.35.5.74,1.12,1.55.66ZM153.77,461.2a1.59,1.59,0,0,0,.52.17c.09,0,.17-.16.25-.24Zm-62.4,12.59ZM440,201a9.17,9.17,0,0,0-.9-1.14c-.3-.19-.62-.17-.6.25C438.54,200.28,439,200.4,440,201Zm-576.7,355.26v-.14h-.63v.14ZM724,325.29l-.17-.11,0,.13Zm-831.37-31.91.93.22C-106.82,293-107.06,293-107.39,293.38Zm805.53,23.28v.16l.63,0v-.15Zm-287.31,18.1Zm311.9-9.91.1-.13-.17,0Zm-25.46-8.75-.19.14c.06.05.11.14.16.14s.12-.08.18-.12Zm-574.54.37c0-.06.15-.11.16-.17s-.08-.12-.13-.19-.16.11-.17.17S122.68,316.4,122.73,316.47Zm599.15,7.79s-.09-.12-.14-.12-.11.06-.16.1.09.12.14.13S721.83,324.3,721.88,324.26ZM128,573.7l-.13-.15-.1.28s.11,0,.15,0S127.93,573.75,128,573.7Zm566-258.94c0-.06-.1-.16-.16-.16s-.13.08-.19.14.11.15.17.15S693.87,314.8,693.92,314.76ZM95.18,112.14l-.09.14h.31s0-.11-.07-.13S95.23,112.15,95.18,112.14Zm467,489.45-.16.18.34.08c0-.06,0-.13,0-.17A.68.68,0,0,0,562.15,601.59Z" transform="translate(328.72 -83.43)"/></svg>