<svg id="Layer_1" data-name="Layer 1" xmlns="http://www.w3.org/2000/svg" viewBox="0 0 1264.4 630.55"><defs><style>.cls-1{fill:#6666FF;}.cls-2{fill:#3CB371;}</style></defs><path class="cls-1" d="M-33,579.39c-2.24-.11-4.48-.28-6.72-.3l-74.07-.75c-4.32-.05-8.64-.27-13-.24a3.71,3.71,0,0,1-3.21-2c0-.48,0-1-.58-1.14l0,0-.51-.52h0c-.85-3.16-3.39-5.06-5.45-7.32,0-.73-.14-1.3-1.06-1.2h0a3.23,3.23,0,0,0-.11-1.18c-4.16-8.05-8.23-16.16-12.6-24.1-1.87-3.39-2.8-7.43-5.92-10-11.66-9.66-23.77-18.8-35-28.91-12.63-11.35-27.28-19.11-42.38-26.31l0,0-.94-.48a15.68,15.68,0,0,0-6.59-3.55l0,0-.78-.52c-11.88-3.64-23.87-6.95-35.6-11-8.82-3.06-17.25-7.21-25.59-11.45.1-.71,0-1.28-.83-1.51l-13-27.75c-1.15-2.47-2.58-4.89-1.51-7.79,1.66,1.15,3.07.15,4.53-.51.32,1.33,1.41.9,2.25.94,3.65.2,7.31.35,11,.5l97.79,4.11,37.92,1.61L-99.23,421a8.51,8.51,0,0,0,4.58.38l26.52,1a36,36,0,0,0,9.67.53l5.55.14c4.21,1.09,8.51.36,12.76.68l2.64-.1.21-.07.22,0,11.63.67a3.5,3.5,0,0,0,2.64.16l31,1.13a4.15,4.15,0,0,0,3.32.37c15.21.68,30.41,1.38,45.62,2q37.91,1.6,75.81,3.17c9,.38,17.94.94,26.91,1.31,7.63.32,15.26.48,22.88.71a9.48,9.48,0,0,0,5.55.36l9.59.61a7.8,7.8,0,0,0,5.51,0l26,1.47,0-.35L210.19,431a5.83,5.83,0,0,0-3.58-.81l-22.15-4.63a5.46,5.46,0,0,0-3.68-.92l-11-2.32-59.94-12.85a16.64,16.64,0,0,0-7.65-1.45c-10.47-2.79-21.11-4.84-31.72-7-1.78-1.3-3.84-1-5.85-1.08a19.43,19.43,0,0,0-2.32-.83q-15.91-3.46-31.85-6.9L-26.21,380a5.66,5.66,0,0,0-3.51-.91l-22.36-4.64c-.92-.45-1.76-1.28-2.92-.63-.87-.25-1.74-.57-2.63-.76q-53-11.47-105.92-22.91-24-5.19-48-10.28c-.8-.76-1.86-.56-2.82-.76l-4.17-.62,0,0-1.2-.47c-1.8-.65-3.58-1.41-5.57-1.08l-3.57-1.18,51.62-22.29c3.9-.54,7.08-2.75,10.44-4.52.75,0,1.34-.21,1.53-1h0c1.34.38,2.42-.39,3.54-.86,13.26-5.61,26.57-11.1,39.72-16.93,5.89-2.62,12.43-4.05,17.4-8.46,5.24-4.64,10.28-9.49,15.37-14.29,19.53-18.38,38.91-36.91,60.39-53.06.7-.52,1.64-1,1.35-2.15l1.24-.75c.78.73,1,0,1.25-.52l0,0,.53-.78c2.11-1.5,4.24-3,6.35-4.5A151.79,151.79,0,0,0-.52,191.46v0L0,191H0c1,.13,1.39-.38,1.51-1.26.07-.15.1-.38.21-.44,10.27-5,14.46-15,19.69-24.07q8.28-14.4,16.34-28.9c.64-1.16,1.65-1.29,2.64-1.6Q73.16,124.5,106,114.33c4-1.23,7.07-4,10.49-6.17,9.08-5.73,18.14-11.5,26.94-17.65,4.52-3.15,9.37-2.51,13.93-1.84,31,4.53,62,9.42,92.91,14.17,6.08.94,12.2,1.61,18.24,2.74,6.36,1.2,11.92,4.61,17.77,7.16q41,17.82,81.83,35.84a5.35,5.35,0,0,1,2.89,2.26c2.46,3.95,6.29,6.36,10,8.89-.41,1.36.73,1.92,1.45,2.64,6.85,6.87,13.87,13.57,20.53,20.62,3.7,3.92,8.24,6.22,12.93,8.47.18.59.6.65,1.11.52h0c.1.63.52.64,1,.51l0-.06c.21,1.12,1.29,1.19,2,1.58,9,4.63,18.08,9.27,27.45,13.23l1,.76,0,0,1,.52,0,0,1,.51,0,0c2.84,1.52,5.62,3.18,8.54,4.52s5.58,3.6,9,4h0l.52.51h0c.26.57.76.58,1.27.53,1.19.73,2.36,1.48,3.56,2.18,4.09,2.4,8,5.09,12.7,6.31l0,0c.13.71.7.42,1.11.49l14.92,4h0c.44.67,1.17.39,1.77.53,4.57,1.64,9.07,3.52,14,4,25.37,7.17,50.71,14.43,76.11,21.47,10.45,2.9,19.83,8.18,29.44,12.85,44.94,21.83,90.77,41.64,136.9,60.73C790.11,343.46,818.25,359.32,847,374c19.22,9.77,38.12,20.17,57.45,29.7a102.41,102.41,0,0,1,28.86,20.54c3.48,3.58,7.28,6.84,10.91,10.29,2,1.85,2.2,3.51-.44,5.14-22.42,13.9-44.79,27.89-67.23,41.77-13.48,8.33-27.75,15.24-41.68,22.77Q768,540.33,701,576.25c-7.43,4-15.72,5.3-23.65,7.69-32.57,9.81-65.42,18.71-97.77,29.18-23.49,7.6-46.35,17.13-69.48,25.81-24.54,9.2-48.88,19-73.67,27.42-15.7,5.37-32,8.88-48.1,13.18q-33,8.84-66.05,17.61c-1.25.34-2.52.67-1.23,3a4.49,4.49,0,0,0-5.16-1.12c-19.08,6.18-38.17,12.28-57.24,18.46-6.83,2.22-13.46.85-20.14-.67-18.33-4.15-36.68-8.17-55-12.43-4.59-1.07-8.25-4.25-12.28-6.56-11.85-6.76-23.62-13.67-35.42-20.53a12.15,12.15,0,0,1-1.36-1c-.12-.86-.52-1.4-1.49-1.26h0c-2.54-3.58-6.43-5.45-10-7.76-.13-.75-.64-.87-1.28-.78l-.2,0,0-.18c.31-1.11-.69-1.38-1.24-1.93-2.43-2.46-5.72-4-7.7-6.94l1.45-1.06c.67.48,1.35.95,2,1.46l20.79,16.72a1.76,1.76,0,0,0,1.74,1.41c9.26,5.4,18.41,11,27.82,16.13,6.94,3.8,13.13,9,21.17,10.79,20.28,4.44,40.52,9.06,60.77,13.61,1.27.37,2.44,1.58,3.87.43,10-3.18,20.08-6.32,30.09-9.56,11-3.57,22-7.24,33-10.87,1.27,0,2.57.18,3.26-1.26,1.12.52,2.15-.1,3.15-.37q50.49-13.44,100.95-27c3.38-.91,7.06-1.08,10.05-3.27,1.16.87,2.12.49,3-.47,1.35-.4,2.73-.73,4-1.23q53.25-20,106.48-40c9.8-3.68,19.55-7.48,29.32-11.22a3.57,3.57,0,0,0,3-1c.57-.14,1.15-.24,1.7-.4Q620,598.47,659.8,586.69c10.11-3,20.19-6.09,30.28-9.13,2.66-.24,5.29-.55,7.45-2.35a20.6,20.6,0,0,0,2.05-.86q77-41.42,153.94-82.9c3.9-2.1,8.14-3.67,11.48-6.73,2.34-.48,4.7-.94,6.17-3.13a26.52,26.52,0,0,0,2.47-1.16q17.94-11.08,35.87-22.23c10.72-6.7,21.41-13.46,32.11-20.19.7-.17,1.51-.15,1.93-1.13a18.12,18.12,0,0,0-5.52-4.72l-.56-.66,0,0C929.18,424.4,922.72,415,912,410.77c0-.77-.42-.88-1-.75l0,0c-.18-1.14-1.27-1.2-2-1.59-9.19-4.83-18.44-9.56-28-13.68-.07-.62-.48-.78-1-.76l0,0c-.17-.51-.56-.57-1-.51h0c-.24-.55-.49-.36-.75,0l-1-.49c-.17-1.12-1.19-1.31-2-1.72q-11.49-6-23-12L785,344.54a6.85,6.85,0,0,0-4-1.69,9.66,9.66,0,0,0-1.07-.63q-47.32-20.3-94.67-40.51c-1.36-.58-2.64-2.18-4.49-1.19l-1-.5c-.18-1-1-1-1.76-1.25-2.42-2.37-5.92-2.15-8.75-3.74-12.91-7.25-26.43-13.32-39.84-19.56-3.42-1.6-6.58-3.89-10.44-4.45h0c-.08-.68-.53-.64-1-.51h0c-.09-.66-.54-.62-1-.51h0c-.1-.64-.54-.61-1-.51h0c-.1-.63-.55-.6-1-.51h0c-.12-.61-.56-.59-1-.51h0c-.14-.57-.57-.56-1-.52l0,0c-.27-.58-.77-.56-1.29-.53l-12.64-5.66c-.54-1.42-1.9-.91-2.91-1.23-12.72-3.57-25.43-7.19-38.18-10.67-6.24-1.7-12.33-4-18.77-4.94l-2.28-.85c-4.4-1.62-8.74-3.4-13.5-3.68a98.22,98.22,0,0,0-16-4.44h0c-.33-.68-.95-.53-1.52-.52h0c-.44-.68-1.17-.42-1.78-.53-5.34-1.82-10.57-4-16.28-4.55l-2.61-.5c-.21-1-1-1.13-1.81-1.08-.64-.39-1.26-.82-1.92-1.15q-32.24-16.4-64.5-32.75c-2.05-1-3.89-2.57-6.26-2.95-1.34-1.24-2.72-2.41-4.66-2.58-.47-.46-1-.91-1.43-1.38l-36.15-36c-.29-.9-.83-1.38-1.84-1.06-.86-.49-1.69-1-2.59-1.45l-28.73-12.64-63-27.62c-.89-.66-1.73-1.49-3-1.22l-11.09-1.67Q209.71,99,161,91.6c-2.86-.43-5.73-1.76-8.73-.64a2.42,2.42,0,0,0-3.32-.7l-13.67,8.88c-.36-.06-.79-.25-.82.39l0,0c-.48-.1-.89-.06-1,.52l0,0-.53.52,0,0c-.5-.13-.89-.06-1,.53l0,0-.52.52h0c-.52-.19-.89-.06-1,.52l0,0a1.23,1.23,0,0,0-1.52,1l.06,0a5.61,5.61,0,0,0-1.35.42q-11.55,7.25-23.06,14.51c-.42-.37-.82-.59-1.15.09l0,0a19.5,19.5,0,0,0-2.18.41L41,137.11c-1.37-.25-1.49.87-1.85,1.72-2.74,4.83-5.51,9.66-8.24,14.51Q23.95,165.69,17,178.05l0,0-.79,1q-1.87,2.59-3.73,5.2Q2.71,192.12-7.1,200l-44.47,35.92a2,2,0,0,0-1.89,1.53c-6.91,6.37-13.84,12.71-20.72,19.11Q-89.42,270.77-104.6,285a2.81,2.81,0,0,0-2,1.35c-.78.27-1.59.48-2.35.81L-178.77,317l-.75.51.05,0c-.44,0-1-.23-1,.53l0,0c-3.62.11-6.23,2.55-9.26,4-10.52,3.72-20.63,8.42-30.82,12.94l-1.83.31c6.23,1.38,11.61,2.77,17.18,3.24A2.65,2.65,0,0,0-203,339l0,0a7.85,7.85,0,0,0,1.31.54q67.77,14.7,135.55,29.31c2.89.62,5.74,2.23,8.89,1.2A2.9,2.9,0,0,0-54,371.43c3.71.83,7.38,1.82,11.12,2.43,3.35.55,6.56,2.07,10.07,1.67a2.94,2.94,0,0,0,2.64,1.14l.78.3.17-.28-.58-.43-19.56-24.17a14.78,14.78,0,0,1,1.72-.09q17.79,1.51,35.57,3.06,44.64,3.9,89.28,7.84,37.68,3.28,75.37,6.53c.73.06,1.49,0,1.92.84,2.16,4.37,4.35,8.72,6.7,13.4L71.66,398.78c3,.69,5,1.5,7.22.8a1.65,1.65,0,0,0,1.38.9q15.63,3.3,31.25,6.64a16.07,16.07,0,0,0,7,1.47c5.42,1.22,10.83,2.48,16.25,3.65q22.65,4.9,45.3,9.73a3.22,3.22,0,0,0,2.81.57l27.67,6a5.31,5.31,0,0,0,3.73.91c5.11,1,10.08,2.66,15.31,3h0l.81.48a5.67,5.67,0,0,0,3.56.69l8,1.8,2.44,1c.21,1,.1,1.82-1.26,1.68-.88-.1-1.78-.4-2.56.29l-2.5-.3-3-.05L197.5,436.5c-1.48-1-3.08-.46-4.64-.38l-3.21-.05-2.43-.05h-1.61a1.4,1.4,0,0,0-2.17-.11c-8.21-.44-16.42-1-24.64-1.31q-32.28-1.39-64.57-2.69c-8.31-.35-16.61-.74-24.92-1.09l-55.58-2.31a3.53,3.53,0,0,0-3.06-.38L-21.15,427a3,3,0,0,0-2.73-.36L-56,425.42a215.6,215.6,0,0,0-23.56-1.17c-3.49,0-7-.82-10.47.2-1.44-1.22-3.11-1.15-4.82-.85l-23-1q-28.31-1.24-56.63-2.47-42.92-1.83-85.84-3.61c-13.64-.59-27.27-1.29-40.91-1.87-4.12-.18-8.26-.14-12.39-.2-1-.46-1.91-.84-3,0l1.13,1.29c4.43,10.55,9.59,20.76,14.58,31.06,1,1.32,2.42,1.6,3.9,1.79l19.59,8.94a8.63,8.63,0,0,0,5.17,1.44c.45.19.89.4,1.35.57,11.83,4.14,24.38,6.12,35.61,12,9.93,5.23,19.92,10.35,29.89,15.53l.45.4,0,0c.66,1.46,2,2,3.37,2.56l.66.44,0,0a10,10,0,0,0,1.25,1.48c11.11,9.13,22.18,18.31,33.38,27.32,4.38,3.53,8.36,7.58,13.3,10.41a2.08,2.08,0,0,0,1.44,2.46c4.44,10.2,9.91,19.86,15.15,29.64a2.13,2.13,0,0,0,1.47,2.31l7.93,11.4c1.63,1.13,3.28.63,4.93.07a11.75,11.75,0,0,0,1.92.35q39.23.39,78.46.73c.88,0,1.87.28,2.52-.66,1.91.82,3.84,1.51,6,.92L65.29,578l2.52,0c6.33.14,12.65.32,19,.42,12.58.19,25.16.4,37.74.46,3.37,0,6.79.59,10.15-.32a27,27,0,0,0,7.71.4l36.09.49a5.83,5.83,0,0,0,3.31,0l35.68.48h2.24l28.3.46h12.45c.63,1.35.52,2-.06,2.62l-40-.5-2.32,0-37.57-.5a4.89,4.89,0,0,0-3.16,0l-30.77-.45-3.88,0H140c-1-.43-1.91-1-2.9-.06l-67.59-.89H66.91c-7.4-.16-14.8-.37-22.19-.45q-34.81-.37-69.61-.67c-1,0-2-.33-2.83.55C-29.4,579.06-31.1,578.36-33,579.39Z" transform="translate(318.66 -88.12)"/><path class="cls-2" d="M-94.65,421.36a8.51,8.51,0,0,1-4.58-.38c-.51-.42-1-.87-1.54-1.24L-203.44,351.5l-12.7-8.4c-.74.49-1.37.88-2,1.31q-32.08,22.26-64.18,44.53-15.76,11-31.45,22c-1.46.66-2.87,1.66-4.53.51l69.85-48.56,30.4-21.11-7.24-4.82c2-.33,3.77.43,5.57,1.07.3.42.59.85,1.2.48l0,0c.29,1.32,1.59,1.3,2.41,2l1.76-1.42c1,.2,2,0,2.82.76l-2.76,1.91Z" transform="translate(318.66 -88.12)"/><path class="cls-2" d="M517.74,236c-4.9-.51-9.4-2.39-14-4a1.91,1.91,0,0,0-1.77-.53h0c-4.39-2.83-9.37-4.39-14.08-6.5-3.6-1.61-7.06-3.62-11-4.45,0-.12-.05-.24-.08-.36l-.26.15.39.16,9,6.51c-4.67-1.22-8.61-3.91-12.7-6.31-1.2-.7-2.37-1.45-3.56-2.18L468.5,218h0l-.52-.51h0c-5.13-4.29-11.31-6.44-17.52-8.52l0,0c-.09-.68-.55-.62-1-.51l0,0c-.12-.62-.56-.6-1-.52l0,0c-.35-.25-.7-.5-1-.76-9.37-4-18.41-8.6-27.45-13.23-.74-.39-1.82-.46-2-1.58a27.53,27.53,0,0,1,2.8.88q14.29,6.13,28.57,12.33a.74.74,0,0,0,1.14.15l-.78-.55L381,159.73c-3.73-2.53-7.56-4.94-10-8.89,8.07,5.24,16.19,10.42,24.22,15.73,22.34,14.75,44.52,29.77,67,44.25,8.94,5.75,19.29,8.87,29,13.26,8.25,3.74,16.58,7.29,24.87,10.93A14.22,14.22,0,0,1,517.74,236Z" transform="translate(318.66 -88.12)"/><path class="cls-2" d="M-165.27,308h0l-1.53,1c-3.36,1.77-6.54,4-10.44,4.52Q-90.05,253-2.86,192.58c.7-.48,1.27-1.38,2.34-1.12a151.79,151.79,0,0,1-17.63,14.26c-2.11,1.51-4.24,3-6.35,4.5L-25,211l0,0c-.61-.3-.92.13-1.25.52l-1.24.75c-.35.21-.72.42-1.06.65q-54.58,37.86-109.17,75.73C-146.95,295-156.09,301.52-165.27,308Z" transform="translate(318.66 -88.12)"/><path class="cls-2" d="M-33,579.39c1.9-1,3.6-.33,5.28.59Q24,610,75.66,639.9q22.89,13.25,45.82,26.38l0,.18.2,0,1.28.78c3.54,2.31,7.43,4.18,10,7.76-3.3-1-6-3.07-8.93-4.75Q45.51,624.86-33,579.39Z" transform="translate(318.66 -88.12)"/><path class="cls-2" d="M-241,471.51a15.68,15.68,0,0,1,6.59,3.55c.19.41.39.79.94.48l0,0c-.15,1.05.79,1.38,1.34,1.9q30.09,28.26,60.22,56.49Q-154.77,550-137.51,566h0l1.06,1.2c2.06,2.26,4.6,4.16,5.45,7.32-3.85-2.18-6.61-5.62-9.77-8.58q-49.4-46.23-98.69-92.59A18.51,18.51,0,0,1-241,471.51Z" transform="translate(318.66 -88.12)"/><path class="cls-2" d="M-303.8,447c.78.23.93.8.83,1.51l-2.5-1.14Z" transform="translate(318.66 -88.12)"/><path class="cls-2" d="M133,675c1-.14,1.37.4,1.49,1.26C134,675.87,133.07,675.91,133,675Z" transform="translate(318.66 -88.12)"/><path class="cls-2" d="M1.48,189.72C1.36,190.6.93,191.11,0,191,.14,190.17.88,190,1.48,189.72Z" transform="translate(318.66 -88.12)"/><path class="cls-2" d="M-130.54,575c.62.17.58.66.58,1.14C-130.18,575.78-130.86,575.65-130.54,575Z" transform="translate(318.66 -88.12)"/><path class="cls-2" d="M-241.78,471l.78.52Z" transform="translate(318.66 -88.12)"/><path class="cls-2" d="M0,191l-.52.51C-.67,191-.36,191,0,191Z" transform="translate(318.66 -88.12)"/><path class="cls-2" d="M-131,574.52l.51.52C-131,575.2-131.19,575-131,574.52Z" transform="translate(318.66 -88.12)"/><path class="cls-2" d="M-53.46,237.47a2,2,0,0,1,1.89-1.53c.47.34.91.72,1.4,1L140.35,350.29l5.46,3.23a14.88,14.88,0,0,0-.48-1.65q-9.39-18.89-18.81-37.75a7,7,0,0,0-1-1.4Q70,249.12,14.44,185.52c-.51-.58-.85-1.51-1.92-1.29q1.86-2.61,3.73-5.2c.45-.19,1.26-.11.79-1l0,0c1.11.62,1.62-.46,2.26-.9,7.6-5.21,15.15-10.47,22.72-15.72L48.42,157l-9.29-18.15c.36-.85.48-2,1.85-1.72q4.46,9.28,8.92,18.58a7.77,7.77,0,0,0,1-.42q26-18,51.87-36c.37-.25,1.24-.37.77-1.23l0,0c.43.54.78.08,1.15-.09q11.52-7.26,23.06-14.51a5.61,5.61,0,0,1,1.35-.42c-.06,1-1,1.2-1.67,1.64-5.78,4.06-11.59,8.08-17.41,12.13.12.6.2,1.08.32,1.56,17.64,74.47,35.42,148.91,52.8,223.44,2.34,10.07,5.41,19.21,13.35,26.2a5.49,5.49,0,0,0,3.36,1.75c10.21.85,20.47,1.33,30.59,2.8,13.15,1.9,25.52-2,38.32-3.65.67-8.48,1.29-16.69,2-24.9q4.63-58,9.3-116a5.26,5.26,0,0,0-1.29-4.08q-19.17-23.22-38.21-46.54L149,90.26a2.42,2.42,0,0,1,3.32.7l108,131.77c3.08-38.74,6.1-76.7,9.11-114.65,1.28-.27,2.12.56,3,1.23.15.64.27,1.3.45,1.93q18.62,63.3,37.23,126.58C312.54,246,315,254.2,317.6,263l49.16-112c1-.32,1.55.16,1.84,1.06q-24.75,56.28-49.53,112.55a4.86,4.86,0,0,0,0,3.6c3.85,13.08,7.67,26.17,11.56,39.23a9,9,0,0,0,1.65,3c10.11,12.39,20.28,24.73,30.36,37.13a3.47,3.47,0,0,0,3.79,1.47c14.27-2.46,28.55-4.82,42.82-7.22a6.45,6.45,0,0,0,4.73-3.21c7.18-11.51,14.49-22.94,21.75-34.4,8.59-13.55,17.19-27.1,25.85-40.77l-55.43-74c1.94.17,3.32,1.34,4.66,2.58.37.55.71,1.13,1.1,1.66l36.31,48.52,14.56,19.4,20.71-32.73c.84-.05,1.6.07,1.81,1.08L464.1,263.37l31,41.41,63.47-27.62-70.65-46.71c5.71.51,10.94,2.73,16.28,4.55a1.93,1.93,0,0,0,1.78.53h0c.36.62.81.95,1.52.52h0c.25.28.45.68.76.81q35.58,15.16,71.16,30.29c1.25.54,2.1.27,3.19-.74l-59.14-25.92c4.76.28,9.1,2.06,13.5,3.68l2.28.85,45.36,20a2.07,2.07,0,0,0,1.89,0c3.22-1.51,6.47-3,9.7-4.45,1,.32,2.37-.19,2.9,1.23l-10.87,4.69c1.11.52,1.75.83,2.4,1.12,22.37,9.8,44.79,19.48,67,29.5a16.26,16.26,0,0,0,12.35.51c-.82-.49-1.42-.89-2.06-1.21-10.28-5.26-20.6-10.46-30.84-15.78C631,277.51,624.71,274.79,619,271c3.86.56,7,2.85,10.44,4.45,13.41,6.24,26.93,12.31,39.84,19.56,2.83,1.59,6.33,1.37,8.75,3.74.18,1,1.06,1,1.76,1.25l1,.5a11.43,11.43,0,0,0,1.23.82q39.81,20.34,79.59,40.73a14.32,14.32,0,0,0,9,1.87c3.45-.51,6.94-.74,10.41-1.09a6.85,6.85,0,0,1,4,1.69l-12.6,2.66c1.07.53,1.65.85,2.25,1.11Q811.3,364.38,848,380.42c9.73,4.25,19.52,8.41,29.28,12.61l1,.49.75,0h0c.1.65.49.73,1,.51l0,0,1,.76c9.53,4.12,18.78,8.85,28,13.68.75.39,1.84.45,2,1.59a23.21,23.21,0,0,1-2.58-.78c-9.79-4.15-19.57-8.34-29.37-12.49q-25.95-11-51.9-21.94c-.35-.26-.7-.6-1.18,0l.8.47c.36.21.71.43,1.07.62q46.36,23.73,92.76,47.4c5.58,2.84,10.93,6.19,16.91,8.24l0,0,.56.66a18.12,18.12,0,0,1,5.52,4.72c-.42,1-1.23,1-1.93,1.13q-28.35-2.5-56.69-5-41.89-3.67-83.8-7.29c-5.12-.44-10.25-.86-16.51-1.38l86.55,57.26c-1.47,2.19-3.83,2.65-6.17,3.13L642.92,502.27l54.61,72.94c-2.16,1.8-4.79,2.11-7.45,2.35l-145.31-7.89c11.65,14.15,22.69,27.56,33.72,41a3.57,3.57,0,0,1-3,1c-23.6-14-47.23-28-70.78-42.19a17.13,17.13,0,0,0-8.19-2.45c-24.69-1.28-49.37-2.64-74.05-4-5.46-.29-10.92-.52-16.76-.79,10.06,34.2,20,68,29.94,101.82-.88,1-1.84,1.34-3,.47Q387.1,612.34,341.53,560.1a3.92,3.92,0,0,0-2.92-1.6q-28.55-1.47-57.09-3a3.81,3.81,0,0,0-4,2.12q-7,11.35-14.31,22.56a3.23,3.23,0,0,0-.23,3.64q27.81,55.69,55.53,111.44c-.69,1.44-2,1.31-3.26,1.26a12.63,12.63,0,0,0-1.12-1q-38.86-25.83-77.73-51.63c-.41-.27-.79-.87-1.65-.42q8.68,36.7,17.38,73.44c-1.43,1.15-2.6-.06-3.87-.43a14.6,14.6,0,0,0-.82-1.23q-40-48.54-80.07-97.06c-.59-.71-1-1.79-2.3-1.87q-13.29,29.81-26.57,59.63a1.76,1.76,0,0,1-1.74-1.41q12.93-29.47,25.9-58.93a3,3,0,0,0-.46-3.75c-8.44-10.09-16.78-20.26-25.16-30.4,1-.9,1.94-.37,2.9.06,8.07,9.87,16.14,19.74,24.51,30l5.22-12-26.95-18,3.88,0,23.93,16.12c2.39-5.49,4.61-10.58,6.84-15.67a4.92,4.92,0,0,1,3.17,0c-2.56,5.67-5.11,11.34-7.71,17.12L231.38,638c-4.54-19-8.9-37.26-13.26-55.51l2.32,0c4.3,18.28,8.63,36.55,12.86,54.85a5.57,5.57,0,0,0,2.59,3.68q36.72,24.35,73.39,48.76c1.81,1.2,3.65,2.37,6.28,4.08C296.89,656.36,278.64,619.69,260.4,583c.58-.6.69-1.27.06-2.62H248l-29.66-6.25,1.36,5.79h-2.24c-.79-2.14.2-5.62-2.46-6.25-9.27-2.2-18.68-3.85-28.22-5.75l-5,11.52a5.83,5.83,0,0,1-3.31,0c1.77-4,3.53-7.93,5.39-12.12L117.33,554c7.85,9.91,14.45,19.43,25.06,24.94a26.68,26.68,0,0,1-7.72-.41,32,32,0,0,0-9.25-8.54c-9.91-6.41-19.69-13-29.55-19.51a10,10,0,0,0-3.13-1.43c-6.4-1.53-12.8-2.49-19.47-1.63-7.22.93-14.52,1.26-22.36,1.9L67.81,578l-2.52,0c-5.34-9.11-10.71-18.21-16-27.35-.81-1.4-1.88-1.06-3-1l-86.35,6.86c-7.92.63-15.84,1.29-24.68,2l31.46,18.38c-2.12.59-4-.1-6-.92l-28.57-16.78a1.28,1.28,0,0,0-.69-.26c-6.92.67-14.12-.26-20.68,2.39-11.09,4.48-22,9.46-33,14.23-1.65.56-3.3,1.06-4.93-.07l32.27-14.06-.13-.55L-135,564.08a2.13,2.13,0,0,1-1.47-2.31l46.94-15.16c-6.84-4-13-7.5-19-11.08a8.52,8.52,0,0,0-4-1.29c-13-.67-26-1.4-39.08-2.11a2.08,2.08,0,0,1-1.44-2.46l25.46-5c-1.37-.86-2.05-1.31-2.76-1.72-14.73-8.53-29.52-17-44.18-25.63-8.21-4.86-17.49-5.11-26.45-6.86l0,0-.66-.44c-1.37-.53-2.71-1.1-3.37-2.56l18.57,3.31c-1-.78-1.36-1.1-1.76-1.33q-29.22-16.95-58.47-33.88a3.35,3.35,0,0,0-2.32-.69q-11.64,2.06-23.29,4.08a8.63,8.63,0,0,1-5.17-1.44l26.47-4.42c-4.22-2.46-7.81-4.47-11.32-6.62a6.4,6.4,0,0,0-4.23-1c-10.17,1.05-20.34,2.05-30.51,3.06-1.48-.19-2.93-.47-3.9-1.79l33.61-3.2-48.19-27.86-1.13-1.29c1.12-.87,2.07-.49,3,0q23.87,13.83,47.72,27.68a6.72,6.72,0,0,0,4.25,1c14.58-1.42,29.17-2.78,43.75-4.17q56.91-5.47,113.82-11c4.07-.4,8.18-.61,12.51-1.94l-3.32-2.39c1.71-.3,3.38-.37,4.82.85a4.33,4.33,0,0,0,3.42,1c2.33-.47,4.7-.82,7-1.22A215.6,215.6,0,0,1-56,425.42l-28.31,2.63c1.2.88,1.89,1.42,2.62,1.9L-52,449.71l67.21,44.58.59.13-.2-.55a3.3,3.3,0,0,0-.24-.71l-39.28-66.53a3,3,0,0,1,2.73.36q19.68,33.47,39.32,66.94c.87,1.48,1.9,1.28,3.15,1l18.11-3.63,20-4L10.67,428.13a3.53,3.53,0,0,1,3.06.38c15,18.18,30,36.31,44.8,54.63C60.92,486.09,63,487,66.67,486c8.17-2.22,16.91-2.36,24.74-5.67,22.66-9.57,45.15-19.54,67.7-29.36,8.37-3.64,16.73-7.29,25.2-11-.32-1.5-.59-2.78-.87-4.07a1.4,1.4,0,0,1,2.17.11c.22,1,.44,1.89.64,2.8a1.69,1.69,0,0,0,1.87-.86l-.9-1.94,2.43.05c1,2.5,2.13.34,3.21.05,1.56-.08,3.16-.59,4.64.38l-6.35,2.81,6.78,13.62,38.84-12.65c-.76-.94-1.27-1.58-1.79-2.21l3,.05c.68,1.37,1.44,2.1,2.5.3.78-.69,1.68-.39,2.56-.29,1.36.14,1.47-.64,1.26-1.68l-2.44-1c3.35-6.08,2.09-12.82,3.28-19.65l-19.48,8.49,8.23,9.36a5.67,5.67,0,0,1-3.56-.69c-.18-.32-.24-.82-.81-.48h0c-1.34-2.87-3.87-4.75-5.92-7.4l-9.39,4.39a5.31,5.31,0,0,1-3.73-.91l11.74-5.05C216.58,417,211.06,411,206,404.66c-2.47-3.06-4.89-4.42-9-3.75-6.27,1-12.66,1.37-19.33,2,2,6.73,2.7,13.39,5.18,19.6A3.25,3.25,0,0,1,180,422l-8.86-18.44-52.69,5a16.07,16.07,0,0,1-7-1.47l58.57-5.54-8-16-83.24,14c-2.21.7-4.24-.11-7.22-.8l89.56-15.11c-2.35-4.68-4.54-9-6.7-13.4-.43-.85-1.19-.78-1.92-.84q-37.68-3.27-75.37-6.53Q32.59,359-12,355.06-29.82,353.5-47.62,352a14.78,14.78,0,0,0-1.72.09l19.56,24.17-.37.41a2.94,2.94,0,0,1-2.64-1.14Q-42.07,364.25-51.36,353c-.46-.56-1.07-1.29-1.68-1.35-4.26-.46-8.53-.77-13.3-1.16,4.28,7.24,8.32,14.09,12.36,20.94A2.9,2.9,0,0,1-57.25,370c-3.58-6.1-7.18-12.18-10.73-18.3a2.93,2.93,0,0,0-2.53-1.66c-9.95-.81-19.9-1.68-29.84-2.54-28.11-2.44-56.2-4.93-84.31-7.29-6.11-.51-12.18-1.53-18.34-1.26l0,0c-.6-.86-1.49-.33-2.23-.48-5.57-.47-11-1.86-17.18-3.24l1.83-.31a21.38,21.38,0,0,0,3.7.41c2.69-.16,5.58,1.6,8,0,6.49-4.28,12.76-8.89,19.12-13.36,3-1.46,5.64-3.9,9.26-4l-25.68,18.25,136,11.8c-12.32-20.88-24.36-41.27-36.41-61.67a2.81,2.81,0,0,1,2-1.35q25.69,31.26,51.37,62.53A6.27,6.27,0,0,0-48.38,350c7.06.51,14.1,1.16,21.15,1.77L56.36,359l77.86,6.77c6.07.53,12.16,1,19,1.6-3.09-4.66-3.9-9.51-8.83-12.41-41.8-24.62-83.44-49.51-125.14-74.3Q-17.08,259-53.46,237.47Zm-42.32,61.81-.5-.34.12.72.61.33C-95.63,299.76-95.7,299.52-95.78,299.28ZM124.28,566.69l.51.19-.26-.4a3.87,3.87,0,0,0-.42-.42C123.66,566.39,124.07,566.52,124.28,566.69ZM698.51,317.48c.22.39.44.76.93,0h-1c-.09-.64-.56-.53-1-.51-.22-.41-.45-.75-.94,0h1C697.6,317.63,698.09,317.48,698.51,317.48Zm28.6,9.4-1-.52-1.29-.71c-15.51-8-31.09-15.84-46.5-24-3.37-1.79-6.11-1.51-9.53.36l55.58,24.14,1.39.65,1,.46.79.36a6.61,6.61,0,0,0,3.95,1.29l-3.49-1.73ZM695,316c.23.43.48.73,1,0h-1c-.1-.64-.58-.5-1.6-.52.32-.11.14-.89-.33-.05a3.72,3.72,0,0,0,.93.07C694.1,316.14,694.58,316,695,316ZM125,476.5l-1.81.2c-18.69,3.57-37.55,6.54-54.57,15.86l-1.25.7A2.32,2.32,0,0,0,68.84,495l54.29-17.66,1.86-.84,1.28-.12-.08-.35Zm575.57-158a2.27,2.27,0,0,0,2.56.61l-2.49-1-.76.1ZM251,413.45a2.8,2.8,0,0,0-2.33,1.26l1.88,1c.28-.78.49-1.38.7-2l0-.55Zm131.52-21c2.69-.12,5-1.39,7.47-2.27-2.67.16-6.24-2.56-7.42,2.31a1,1,0,0,0-.21.09s0,.1,0,.16ZM24.08,502.92l-.33-.33.1.56,3,5.4c1.22-.7,2.46-.71,3.25-1.94ZM78,486c-4.91.32-9.59,1.76-14.77,2.68l2.59,3L78,486c.31,0,.63-.08.13,0C78.55,485.7,78.28,485.85,78,486Zm74-126c0-.31,0-.46-.35-.22l.35.22c1.82,7.13,6.07,9.6,14.49,8.11C161.35,365.56,157.08,362.07,152,360Zm37.75,22.19-.57-.1.25.48q6.42,7.47,12.85,14.92c.31.36.8.85,1.18.82,3.63-.29,7.26-.68,11.76-1.12ZM333.81,315.7l-1-1.15.55,1.59c3.52,12.17,7,24.34,10.63,36.68l17.93-3C352.36,338.21,343.08,327,333.81,315.7Zm76,28.66c-6.56,2.77-13.14,5.51-19.69,8.32-5.66,2.44-11.29,4.94-17.12,7.49L388.47,379,410,344.51l.31-.26Zm92.82-107.52c-.35-.27-.69-.59-1.18-.06l.72.53,57.4,38.06c.63.42,1.21.85,2,.48,5.28-2.32,10.56-4.61,16.29-7.11-9-3.83-17.44-7.46-25.92-11.05Q527.33,247.25,502.65,236.84Zm-636.52,196.1c-9.94.91-19.88,1.78-29.82,2.72q-38.25,3.66-76.51,7.36c-6.62.64-13.23,1.32-20.51,2.05,4.39,2.54,8.13,4.68,11.85,6.88a3.6,3.6,0,0,0,2.62.4l24.09-4.11,88.3-14.86,4.47-.67C-131.38,432.52-132.65,432.29-133.87,432.94Zm550.92-94.39c.77-.27,1.57-.51,2.32-.84q26.64-11.56,53.27-23.16l20.52-8.93-30.24-40.38c-8.29,13.09-16.41,25.85-24.48,38.63q-10.86,17.19-21.64,34.42c0,.18,0,.37-.07.55ZM539.29,567.22h.56l-.2-.36a3.18,3.18,0,0,0-.32-.67q-20.76-25.3-41.48-50.65c-1.31-1.61-2.7-1.57-4.38-1.43l-49.78,4c-6.07.49-12.13,1-18.75,1.57,25.64,15.25,50.74,30.18,75.86,45.08a5.26,5.26,0,0,0,2.33.66Q521.2,566.34,539.29,567.22ZM120.91,304.1l.48.28-.07-.62c-.3-.68-.58-1.38-.92-2.05Q90.1,240.84,59.79,180c-3.47-7-6.94-14-10.5-21.1-11.57,8-22.95,15.93-34.41,23.88.62.76,1,1.28,1.45,1.78q34.5,39.51,69,79Q103.09,283.87,120.91,304.1ZM570.8,405.77c.61.9.9,1.36,1.23,1.81q34.14,45.6,68.25,91.23a3.27,3.27,0,0,0,3.39,1.34q28.38-2.31,56.77-4.54L854.8,483.43c4.25-.34,8.5-.74,13.4-1.17-1.39-1-2.17-1.58-3-2.12-26.1-17.29-52.25-34.5-78.27-51.9-4.34-2.9-8.59-5.06-14-5-4.06,0-8.12-.67-12.19-1L677.18,415l-83.61-7.28C586.15,407.06,578.72,406.44,570.8,405.77ZM420.22,417.45c.44.68.63,1,.88,1.34q37.53,45.79,75,91.59a3.12,3.12,0,0,0,3,1.24c5.47-.48,11-.83,16.43-1.27l111.75-8.87c3.75-.3,7.49-.67,11.5-1-.44-.7-.6-1-.8-1.25q-34.56-46.2-69.11-92.41a3.62,3.62,0,0,0-2.95-1.46c-14.18-1.23-28.34-2.64-42.53-3.67-6.6-.48-13.19-2.16-19.85-.84q-32,6.3-63.9,12.71C433.29,414.8,426.89,416.11,420.22,417.45Zm-406,78.9c-.58-.49-.8-.73-1.06-.9L-86.5,429.22a3.63,3.63,0,0,0-2.56-.71c-3.63.42-7.3.64-10.91,1.25q-54,9-108,18.21l-36.77,6.18c.91.6,1.35.93,1.83,1.21q28.83,16.71,57.68,33.37c2.93,1.69,5.68,3.64,9.18,4.33,30.34,6,60.66,12.17,91,18.18,4.54.9,9.09,3,13.72,2.12C-43,507.86-14.61,502.11,14.17,496.35Zm485.06,17.37A12.35,12.35,0,0,0,500,515q21,25.69,42.1,51.42a3.41,3.41,0,0,0,2.83,1.18c17,.9,34.07,1.86,51.1,2.78q41.38,2.25,82.78,4.48c5.31.29,10.64.52,16.46.8-18.25-24.38-36.11-48.24-53.95-72.12a2.32,2.32,0,0,0-2.34-1c-6.64.57-13.28,1.08-19.92,1.61L527,511.5ZM51,157.67c.38.79.66,1.4,1,2q36.09,72.51,72.21,145c1.52,3,2.58,6.34,4.87,9q16.26,18.64,32.55,37.25c.49.56.78,1.48,2,1.46-18.49-78-37-155.91-55.53-234.26Zm641.4,205.45c.59.48.81.71,1.08.88q43.2,28.61,86.43,57.19a4.55,4.55,0,0,0,2,.77q23.14,2.06,46.28,4l90,7.82c6.81.59,13.63,1.15,21.54,1.82-1.53-.87-2.07-1.21-2.63-1.49-28.51-14.59-57-29.32-85.56-43.71-27.92-14.05-55.11-29.61-84.27-41.13a4.65,4.65,0,0,0-2.84-.63C740.65,353.49,716.75,358.26,692.43,363.12Zm-326,65.06a12.25,12.25,0,0,0,.21,1.32Q376.3,462.4,386,495.3a3.85,3.85,0,0,0,2,2.35q16,9.5,31.95,19a6.36,6.36,0,0,0,4,.91c13.35-1.08,26.71-2.08,40.07-3.14,10.09-.8,20.18-1.64,30.41-2.48a3.87,3.87,0,0,0-.33-.87Q456.36,465,418.58,418.94a1.94,1.94,0,0,0-2.13-.8C399.82,421.49,383.19,424.82,366.4,428.18ZM70.12,496.73A15.3,15.3,0,0,0,71,498.1q17.86,21.69,35.72,43.38c1,1.2,2.06,1.14,3.31,1,26.13-2.07,52.24-4.5,78.4-6,7.59-.42,11.61-3,13.46-10.07.69-2.6,2-4.8,1.24-7.84-3.13-12.24-5.9-24.57-8.81-36.86-1.45-6.11-2.93-12.22-4.29-17.84C148.24,468.77,109.77,484.29,70.12,496.73ZM558.74,389.81c3.49,4.64,6.68,9,10,13.21.36.46,1.35.52,2.06.58q26.12,2.31,52.24,4.56l73.14,6.37,60.7,5.3c6.29.55,12.57,1.06,19.55,1.64-.94-.68-1.25-.94-1.59-1.16q-42-27.78-83.92-55.59a4.87,4.87,0,0,0-4-.53L587,384.12C577.73,386,568.47,387.85,558.74,389.81ZM262,228c-3.75,47.21-7.44,93.75-11.15,140.47,6.79-1.14,13.09-2.31,19.43-3.2a4.25,4.25,0,0,0,3.71-3q16.53-37.84,33.23-75.61a3.59,3.59,0,0,0-.61-4.4c-8.93-10.77-17.77-21.61-26.65-32.43C274.12,242.78,268.28,235.68,262,228Zm40.1,287c-.54-.66-1-1.18-1.38-1.67-16.81-19.26-33.69-38.47-50.37-57.85-2.36-2.74-4.46-4.09-7.92-2.62-1.78.75-4.09,0-5.22,2.56-5.62,12.79-11.4,25.52-17.13,38.26a3.66,3.66,0,0,0-.13,3.52q8.43,16.73,16.7,33.51a2.22,2.22,0,0,0,2.48,1.53q26.76-2.19,53.53-4.25a2.48,2.48,0,0,0,2.11-1.41C297.15,522.83,299.57,519,302.1,515.06Zm7-232.84c2.28-5.17,4.28-9.83,6.38-14.44a5.09,5.09,0,0,0,.21-3.83q-18.18-61.6-36.3-123.22c-2.64-9-5.3-17.95-8.27-28-.5,6.55-.91,12-1.35,17.41q-3.66,46.17-7.39,92.35a6.12,6.12,0,0,0,1.57,4.73c9,10.9,18,21.87,27,32.82Zm218.2,65.61c4.44,5.93,8.59,11.45,12.68,17a2.39,2.39,0,0,0,2.57.94c5.79-.62,11.59-1.17,17.38-1.72l101.37-9.66c3.72-.36,7.43-.79,11.83-1.26-1.43-1-2.21-1.6-3-2.14-15.89-10.52-31.81-21-47.64-31.6a5.86,5.86,0,0,0-5.73-.78c-19.49,6.44-39,12.75-58.54,19.11Zm-3.41-1.1c-4.41-5.89-8.73-11.46-12.8-17.21a4.33,4.33,0,0,0-4.95-2q-45.24,7.74-90.51,15.3a4.56,4.56,0,0,0-3.46,2.38c-6.82,10.84-13.71,21.64-20.55,32.47-.46.73-1.27,1.38-1,2.65,6.51-.61,13.06-1.07,19.56-1.87,8.65-1.06,17.56-.56,25.94-3.17,18.4-5.74,36.69-11.86,55-17.84C502,353.92,512.77,350.38,523.92,346.73Zm98.43-29.88,1.11.78,52.26,34.61a3.28,3.28,0,0,0,2.33.51q33.06-3.19,66.12-6.33c4.06-.38,8.11-.84,12.7-1.31-.75-.5-.94-.66-1.15-.76l-93-39.56a3.24,3.24,0,0,0-2.4-.3Zm-288,151.27L304.71,514.8c2.93,3.37,5.76,6.53,8.48,9.78a3.8,3.8,0,0,0,3.63,1.52q30.09-2.43,60.2-4.75c4.62-.36,9.23-.77,14.13-1.19-2-6.68-3.89-13-5.65-19.41a6.31,6.31,0,0,0-3.16-4.14c-7-4.08-14-8.3-21-12.46C352.39,478.84,343.46,473.55,334.3,468.12Zm69.21,94-60.39-3.25,88.54,101.4.64-.38Q417.92,611,403.51,562.07ZM249.45,451.54l53.84,61.65,29.25-46.14c-13.33-7.93-26.48-15.76-39.65-23.55a2.53,2.53,0,0,0-1.63-.33C277.48,445.9,263.71,448.67,249.45,451.54ZM555.12,388.4c-5-6.67-9.78-13-14.54-19.44a1.89,1.89,0,0,0-1.93-.82c-1.81.23-3.63.42-5.45.59-23.52,2.26-47.05,4.4-70.55,6.83-14.09,1.45-28.42,1.36-41.91,6.88-6,2.46-12.36,4.13-19.57,6.48,8.47.76,15.84,1.42,23.21,2.06,20.55,1.79,41.09,3.74,61.66,5.3,9.55.72,19.11,3.05,28.74.24,3.18-.93,6.5-1.36,9.77-2Zm-279.84-24L342,353.17c-2.95-10-6-19.71-8.6-29.47-2.21-8.16-4.77-15.93-11-22.22-4.57-4.64-8.38-10-12.74-15.31C298.15,312.37,286.81,338.16,275.28,364.41Zm-26.22,349.5a20.23,20.23,0,0,0-.19-2.08q-8.19-34.59-16.39-69.17a4.56,4.56,0,0,0-2.14-2.88q-24.14-16-48.24-32c-3.29-2.19-6.61-4.34-10.09-6.63-1.55,3.38-2.79,6.56-4.42,9.53-1.25,2.28-.73,3.76.85,5.66q32.59,39.33,65,78.77C238.54,701.21,243.62,707.33,249.06,713.91ZM496.39,306.48c4,5.38,8,10.42,11.6,15.68,1.53,2.19,3.05,2.59,5.59,2.15,23.34-4,46.72-7.91,70.09-11.85,7.25-1.22,14.49-2.47,22.2-3.79-1-.77-1.57-1.23-2.18-1.64Q588,296.64,572.26,286.24c-3.82-2.52-7.52-6.69-11.53-7s-8.56,3-12.81,4.84C530.85,291.45,513.8,298.9,496.39,306.48Zm.86,258.57c-25.64-15.26-50.3-29.93-75-44.59a3,3,0,0,0-1.63-.47c-8.84.66-17.69,1.36-26.77,2.08,3.78,12.83,7.49,25.39,11.2,38ZM316.4,528.21c8.23,9.43,16.17,18.49,24.07,27.59a3.12,3.12,0,0,0,2.47.9c13.12.72,26.23,1.48,39.35,2.2,6.75.36,13.51.67,20.58,1-3.75-12.74-7.4-25.13-11.1-37.67ZM252.49,417c5.91,3.51,11.86,7,17.74,10.58a4.47,4.47,0,0,0,4.18.44q31.74-10.4,63.52-20.68c6.06-2,12.1-4,18.24-6-1.07-3.62-2.44-6.91-3-10.32-.65-4.35-3-4.88-6.75-4.47-10,1.13-20,1.88-30,3-5.27.6-10.79,0-15.75,2.1-14.1,5.93-28,12.26-42.12,18.18C255.23,411.25,253.13,413.13,252.49,417Zm289.86-49.15c4.42,5.92,8.72,11.42,12.7,17.15,1.63,2.33,3.18,2.83,5.94,2.27Q614.3,376.52,667.66,366c6.22-1.24,12.44-2.52,19.17-3.88-3.62-2.41-6.73-4.47-9.83-6.56a3,3,0,0,0-2.13-.46l-32,3.1L561.32,366C555.13,366.61,548.94,367.23,542.35,367.88ZM274.54,430.15c6,3.56,11.44,6.77,16.84,10a3.46,3.46,0,0,0,2.64.32q31.08-6.21,62.15-12.44c1.79-.36,5.86-6.53,5.37-8.26-1.5-5.43-3.13-10.82-4.77-16.43ZM526,346.08l91.56-29.84c-2.5-1.67-4.58-2.9-6.49-4.36a6.22,6.22,0,0,0-5.32-1.11c-21.3,3.66-42.62,7.19-63.93,10.78-10,1.68-19.91,3.39-30.31,5.16ZM335.41,466.37l48.39,28.78c-6.65-22.58-13.11-44.47-19.66-66.72-2.19,1.19-4.76.11-6.25,2.46C350.46,442.64,343,454.37,335.41,466.37ZM563.12,277.46a14.83,14.83,0,0,0,1.12,1q21.84,14.46,43.68,28.94a4.19,4.19,0,0,0,3.32.41c7.62-1.3,15.24-2.56,22.86-3.85l18.42-3.16c-.46-.43-.56-.59-.7-.65q-35-14.88-70-29.72a2.76,2.76,0,0,0-1.87-.28C574.42,272.5,568.9,274.94,563.12,277.46ZM342.63,355.38a8.13,8.13,0,0,0-1.06,0l-66.15,11.09a1.72,1.72,0,0,0-1.51,1.07c-1.41,3.26-2.85,6.49-4.38,10,13.56,1.18,26.8,2.34,40.05,3.47,3,.25,6.33,1.35,8.88.38,9.53-3.61,18.8-7.91,28.28-12C345.33,364.58,344,360.05,342.63,355.38ZM35.78,507.93c1.24.88,2,1.45,2.83,2,14.62,9.72,29.48,19.1,43.77,29.3,7.26,5.17,14.69,4.19,22.91,3.67L67.84,497.48Zm-108.12,46a9.36,9.36,0,0,0,7.68,2.58c4.63-.54,9.29-.77,13.93-1.14l73.18-5.86,24.66-2c-1.12-3.39-2.61-5.44-6.43-5.09-2.87.27-5.81-.25-8.72-.41-17.53-1-35.07-2-52.6-2.87-5.48-.29-11.5-1.94-16.35-.27C-49,543-60.39,548.7-72.34,553.91ZM398.1,390.75c6.88,8.39,13.27,16.15,19.61,23.95.9,1.09,1.87.78,2.93.57l44.22-8.83q16.41-3.27,32.81-6.58l0-.47ZM24.89,509.29C23,506,21.31,503,19.49,500.17a4,4,0,0,0-4.65-1.88c-13.76,2.85-27.55,5.53-41.33,8.28-13.39,2.67-26.78,5.36-41.06,8.22,13.43,2.69,26,5.26,38.53,7.7,3.07.59,6.2,2.26,9.28,1.3C-4.92,519.13,9.82,514.21,24.89,509.29ZM-121.9,525.61c6.26,2.95,10.81,7.17,17.74,7.13,10.46-.06,20.93,1.22,31.4,1.59,8.89.32,17.8,2.06,26.59-1.73,6.49-2.8,13.44-4.54,20.92-7-1.22-.36-1.66-.53-2.11-.62-10.84-2.18-21.69-4.32-32.52-6.54-7.06-1.45-13.89-2.92-21.35-1.1C-94.38,520.56-107.78,522.8-121.9,525.61Zm538.12-109.5c-5.59-6.83-10.89-13.33-16.22-19.8-4.5-5.46-4.52-5.45-11.18-3.37-2,.62-3.92,1.41-5.93,1.89A6.36,6.36,0,0,0,378.7,398c-4.1,6.65-8.13,13.36-12.59,19.77-2,2.95-1.83,5.41-.19,8.41ZM280.28,553.35l58.08,3.12c-8.2-9.37-16-18.24-23.72-27.15a2.56,2.56,0,0,0-2.44-.8l-15.4,1.28c-.83.07-1.67.06-2.2.89Zm14.84-111,38.53,22.92,22.19-35Zm230.13-93.91-80.07,26.09.14.54,93.15-9Zm-30.82-41.16-72.9,31.73.21.67,86.09-14.5ZM-172,495.93l-.24.4c.22.11.44.21.64.33q23.12,13.39,46.2,26.79a3.42,3.42,0,0,0,2.62.3c6.43-1.31,12.87-2.56,19.31-3.85l25.3-5.13ZM238.6,534.56c2.75,5.56,5.36,10.83,7.94,16.12.48,1,1.31.87,2.12.91,9.21.5,18.43,1,27.64,1.5a2.14,2.14,0,0,0,2.32-1c4.37-7,8.8-13.9,13.2-20.87.13-.21,0-.58.07-1-16.9,1.31-33.63,2.6-50.36,3.91C240.71,534.18,239.9,534.36,238.6,534.56Zm-47-153.73c9,5.33,17.75,10.55,26.54,15.73a3,3,0,0,0,1.67.21q12.42-1.15,24.85-2.35c.89-.08,2,0,2.13-1.26.43-5.1.77-10.2,1.15-15.27C230.79,374.68,210.18,375.75,191.64,380.83Zm21.42,171c1.59,6.75,3.06,13,4.5,19.19.3,1.31,1.37,1.29,2.32,1.48q12.33,2.49,24.68,5l13.91,2.73a4.85,4.85,0,0,0-.09-1.16q-6-12.18-12.08-24.36c-.29-.6-.59-1.1-1.43-1.14C234.42,553,224,552.39,213.06,551.8Zm-24.91-96c-1.09-4.58-2.17-9.12-3.29-13.81L102,478.07C131.59,474.39,160,466.34,188.15,455.81Zm3,94.8-80.38-4.33c2.36,2.84,3.87,5.24,7.53,5.89,12.85,2.29,25.61,5.05,38.41,7.63l28,5.6C186.89,560.41,189,555.66,191.2,550.61Zm314.24,16.93,66.89,39.78a18.15,18.15,0,0,0-.88-1.92q-14.31-17.48-28.64-34.93a2.17,2.17,0,0,0-1.64-1C529.59,568.87,518,568.23,505.44,567.54ZM83.66,542.42c-1-.7-1.6-1.19-2.27-1.63C66.21,530.71,51,520.72,35.9,510.47c-3-2-5.09-1.15-7.75.26,5.07,8.61,10,17.07,15.05,25.5a2.57,2.57,0,0,0,1.54,1.1C57.45,539.78,70,543.19,83.66,542.42ZM205.2,518.73c2.38-5.41,4.05-10.54,6.77-15,4.06-6.71,3.65-12.52-.42-19.18-4.48-7.32-7.84-15.34-11.71-23.12L192,463C196.38,481.54,200.72,499.83,205.2,518.73ZM26,511.12l-35.3,15.36L41,536.57C35.86,527.88,31,519.65,26,511.12Zm192.16-13c-3.15,7-5.59,13.76-9.14,19.89-3.37,5.79-1.48,10.91.11,16.61l26.18-2.07C229.53,521,224,509.81,218.15,498.15ZM349.24,370.49l4,13.47,34-3.28L371,361ZM201.94,461c5.14,10.28,10.07,20.19,15.24,30.53l16.15-36.79Zm87.5-19.59c-6-3.58-11.43-6.78-16.81-10-.91-.56-1.61-.07-2.36.17-7.89,2.56-15.74,5.27-23.69,7.65a4.55,4.55,0,0,0-3.67,4.56c0,1.49,5.1,5.94,6.26,5.71C262.36,446.85,275.54,444.2,289.44,441.41Zm-44.78,110c-2.24-4.51-4.51-8.58-6.31-12.84-1.31-3.1-2.87-4.22-6.45-3.74-7.37,1-14.83,1.28-22.43,1.87.95,4,1.86,7.84,2.7,11.63a1.79,1.79,0,0,0,2,1.49Zm-47.79-13.7-81.48,6.46c8.2.72,16.41,1.2,24.62,1.64q25.16,1.35,50.31,2.67c.79,0,1.69.33,2.15-.73C193.85,544.57,195.25,541.41,196.87,537.71Zm46.79-123.53c-6.7-4-13.49-7.3-19.39-11.77-6.23-4.72-12.51-2.36-19.61-2.21l19.56,22.44Zm-276,122.31L43,540.56c-.4-1.87-1.68-1.83-2.77-2-14.67-3-29.32-6-44-8.82-3.15-.61-6.46-2.41-9.48-1.34C-19.46,530.54-25.41,533.49-32.32,536.49Zm243.19,15.15c-5.2-.25-10.17-.47-15.15-.74a1.44,1.44,0,0,0-1.62.83c-2.09,4.66-4.17,9.34-6.37,14.27l27.87,5.6C214,564.77,212.46,558.33,210.87,551.64Zm103-168.19-45.26-3.93c-1.91,4.38-3.73,8.58-5.89,13.54C280,389.37,297.63,392.71,313.88,383.45Zm-65.8,170.26,13,26.06c5.28-8.36,10.34-16.35,15.55-24.58Zm431.39-199c3.14,2.11,5.83,3.86,8.45,5.7a4.58,4.58,0,0,0,3.93.76c12.94-2.65,25.91-5.16,38.86-7.74q15-3,29.95-6c0-.16,0-.31-.07-.47Zm-733.75-5.25L-95,300.11c-.47.71-.44,1-.28,1.3q13.47,22.89,26.94,45.78a2.45,2.45,0,0,0,2.21,1.28C-62.38,348.72-58.66,349.06-54.28,349.42Zm227.53,34.52c1.33,5.61,2.65,11.16,4,16.91l23.27-2.22c-2.66-3.05-5.38-5.4-7.14-8.31-4.66-7.73-10.92-10-19.29-6.76Zm393,19.32c-3.09-4.12-5.84-7.64-8.41-11.3a3,3,0,0,0-3.56-1.36c-5.77,1.21-11.56,2.32-17.35,3.49l-22.85,4.66ZM166.86,366.08c-1.09-3.67-.83-7-3-9.5q-10-11.49-20-22.93c-3.46-4-6.94-7.91-10.74-12.24,0,.83,0,1.1.07,1.29q8,16.2,16.1,32.36a2.22,2.22,0,0,0,.76.94C155.4,359.25,160.81,362.47,166.86,366.08ZM63.43,492.6c-1.28-3.13-3.25-3.75-6.1-2.77A45.06,45.06,0,0,1,51.49,491l-31.77,6.37c4.63,3.05,8.59,5.67,12.59,8.24a1.77,1.77,0,0,0,1.37-.13C43.58,501.22,53.46,496.93,63.43,492.6ZM201,459.1c10.9-2.2,21.65-4.36,32.39-6.55.37-.07.91-.24,1-.51,1.47-3.2,2.88-6.43,4.62-10.34l-40.19,13.09C199.65,456.35,200.31,457.66,201,459.1Zm-326.8,101.45.08.7c10.58-.85,21.16-2,31.76-2.44,6-.26,11.16-2.45,16.25-4.95-5.35-4.8-11.1-7.11-17.91-3.18a6.45,6.45,0,0,1-1.17.4Zm513.06-60.94c2.09,7.13,4,13.68,6,20.43l25-2Zm-38.63-131.1,21-9.17c-1.74-2.12-3.3-4.06-4.91-5.95-.56-.66-.88-1.75-2-1.56-6,1-11.89,1.95-18.09,3C346,359.55,347.3,363.92,348.65,368.51ZM-42,538.44l-.12-.92c-4.32,0-8.88-.89-12.91.18-9.86,2.61-19.47,6.13-29.52,9.4,3.15,1.83,6,3.45,8.74,5.09a2,2,0,0,0,1.89.18Zm-64.14-3.86c5.24,3,9.81,5.38,14,8.26,3.56,2.44,6.78,2.75,10.82,1.18,6.51-2.53,13.26-4.45,20.93-7ZM293.74,392.4c0-.2-.09-.41-.14-.61q-15.27,1.43-30.52,2.87a2,2,0,0,0-1.42.82c-1.93,4.25-3.78,8.54-5.93,13.45Zm64.41,8.35c5.88-1.92,11.48-4,17.22-5.53,3.19-.86,4.88-2.77,6.17-5.9l-27.43-2.39C355.51,391.7,356.8,396.12,358.15,400.75ZM269.6,429.59l-18.31-10.87c-2,6.37-6.56,11.57-5.66,18.68Zm-3.14-50.25-16.36-1.42c-.43,5.46-.84,10.63-1.27,16l10.9-1c.7-.07,1-.54,1.22-1.09Zm-44.84,19.33,23.65,14.05c.44-5.7.84-10.88,1.26-16.42ZM317.2,269c-2.22,5-4.1,9.35-6.06,13.64-.56,1.22-.05,2,.68,2.88,4.55,5.51,9.06,11.05,13.62,16.56.41.49.64,1.34,1.85,1.19Zm30.12,102.28-23.74,10.34c9.17,1.16,18.19,2.53,27.57,2.61C349.79,379.67,348.59,375.63,347.32,371.32Zm264.33-61.53a37,37,0,0,1,4.15,2.84c2.84,2.64,5.74,2.57,9.3,1.28,8.51-3.06,17.18-5.67,25.78-8.49,2.29-.74,4.57-1.55,6.85-2.32l-.24-1ZM363.36,418.43c4.65-7.34,9-14.2,13.75-21.69l-18.37,6C360.27,407.91,361.73,412.88,363.36,418.43Zm8.3-59.93,29-12.64-.15-.48-34.81,5.88ZM250.34,375.85l17,1.48,4.47-10.24-21.19,3.57C250.54,372.39,250.45,373.87,250.34,375.85Zm-42.93,161c-2.59.36-5.68-.71-7,1.28-2.13,3.15-3.29,6.94-4.94,10.63l14.91.74C209.34,545.23,208.4,541.21,207.41,536.9Zm376-268,74.34,31.59c.09-.92-.13-1.17-.41-1.3L586.8,268.22A2.9,2.9,0,0,0,583.44,268.85ZM248.65,396.1c-.44,5.5-.85,10.78-1.3,16.43,2.26-1.18,4.9-1.14,6-3.35,2.19-4.55,4.1-9.24,6.24-14.15ZM156.6,369.86l6.69,13.4,7.35-1.29c-.82-3.52-1.55-6.66-2.29-9.8-.18-.74-.45-1.44-1.39-1.51Zm23.36,2c4,5,7.64,8,13.95,6.38,6-1.57,12.32-2.19,18.5-3.23l-.08-.36ZM391.5,382.35c4.05,6.12,4.05,6.12,10.31,4.16.63-.2,1.27-.37,1.9-.58l18.43-6.05-.13-.47ZM-48.29,535.09c12.55,3.79,21.4-4.18,31.36-8.05C-27.84,527.16-37.37,532.56-48.29,535.09ZM-115.58,532l.18-.57c-3.25-1.72-6.56-5-9.75-4.85-6.45.2-12.85,2.23-19.26,3.5l0,.35Zm279.83-146.8c2.44,4.91,4.83,9.54,7,14.26.9,1.92,2,2.12,3.81,1.17-1.32-5.51-2.62-11-4-16.61Zm-63.2,166.2,22.41,14.85C118.45,557.55,112.69,550,101.05,551.43Zm195.47-23.72,15.62-1.24-8.6-9.85ZM74.21,545.37c-9.32-2.25-18-1.92-27.13-2.47l2.71,4.44ZM170,370.24c1.05,4.42,1.85,7.83,2.7,11.43l11.42-1.91C180.05,375.52,175.08,373.72,170,370.24ZM196,453.58c-2.32-4.69-4.44-9-6.53-13.2a3,3,0,0,0-2.54,1.15c1.09,4.54,2.2,9.17,3.33,13.92Zm165.46-68.37-.07.28c6.12.53,12.3.73,18.36,1.68,3.75.59,4.7-1.38,5.82-4.25Zm-26.44.53c-8.45-.73-17.2-4.13-25.12,2.39ZM188.65,458.13l-22.9,7.46.13.5,23.63-4.7C189.21,460.27,189,459.41,188.65,458.13Zm-77.5,92.26c-1.2-1.54-1.87-4-3.7-4.18-4.57-.36-9.2-1.29-15,.13C99.17,548.76,105.21,549.18,111.15,550.39Zm120.6-176.54.14.47,16.32,1.32c.11-1.66.21-3,.32-4.65ZM191.53,461l7.3-1.55-2-4-6.08,2.05C191,458.72,191.25,459.74,191.53,461ZM665.19,302.61l-.35.86,23.87,10.13c.09-.21.17-.42.26-.62Zm-276.56,79.8-3.26,5.22,8,.59ZM206.87,534.82l-1.8-7.57c-1.36,3.09-2.38,5.42-3.52,8ZM66,495.92l-.36-1.45c-5.15.83-9.53,4-14.21,6.2ZM-.77,519.83l-14.75,4.8C-9.66,526-5.6,521.75-.77,519.83ZM174.8,369.17,168,361.36C169.44,368.57,169.92,369.11,174.8,369.17Zm66.82,76.58-2.55,5.77,6.43-1.38Zm-68.25-42.18c1.33,2.64,2.54,5.07,4.16,8.28C176.24,403.36,176,403,173.37,403.57Zm73.7,12.68c-.23,2.7-.43,5-.62,7.35l.52.12,2.61-6C248.72,417.22,248.09,416.85,247.07,416.25ZM-80.43,557.7l8.38-.76C-75.14,554.73-75.14,554.73-80.43,557.7ZM360.5,426.86a3.26,3.26,0,0,0,3-.49c-.23-.84-.46-1.66-.84-3C361.81,424.75,361.19,425.75,360.5,426.86ZM45.63,539.61c1.64,1.72,3.65,1.17,5.59,1.07ZM692.3,315.1a3.21,3.21,0,0,0-3.28-1.39Zm14.17,5.6c-.64-.26-1-.95-1.94-.41C705.17,320.57,705.57,321.25,706.47,320.7ZM164.72,466.31v-.13h-.86v.13Zm-64,12.37,0,.24.64-.11,0-.26ZM-97.52,298.1c.33.27.47.44.52.41s.2-.2.3-.31Zm921.38,75.68.43.16a1.84,1.84,0,0,0,0-.33s-.15-.08-.19-.05A1.74,1.74,0,0,0,823.86,373.78ZM1.56,519.7H.13l0,.21ZM734,330.21a.59.59,0,0,0-.22,0s0,.09-.07.15a.87.87,0,0,0,.22.05S734,330.26,734,330.21Zm-25.28-8.41Zm-836,239.36v.13h.63v-.13ZM420.84,339.77l0-.15-.54.07,0,.18ZM132.9,321.3l-.14-.19c-.06.06-.16.11-.16.17s.08.12.13.18Zm570.86-1.71-.19.14c.06.06.11.16.17.16s.13-.08.19-.13A1.37,1.37,0,0,0,703.76,319.59Zm3.51,1.51-.19.14c0,.05.1.14.16.14s.12-.07.18-.12Zm25.46,8.76.11-.14-.19,0Zm92.68,44.36-.15-.15-.09.29c.05,0,.11,0,.15,0A.48.48,0,0,0,825.41,374.22Zm-93.52-45s-.1-.12-.15-.13-.11.07-.16.11.09.13.14.13S731.83,329.3,731.89,329.26ZM572.36,606.72l-.16-.17-.17.17.25.18Z" transform="translate(318.66 -88.12)"/><path class="cls-2" d="M-26.21,380Q-14,395-1.71,410c.81,1,1.61.82,2.63.65q31.86-5.4,63.73-10.73c2,0,4.07-.22,5.85,1.08l-70,11.83c2.45,2.12,3.07,5.05,7.17,4.46,9.29-1.35,18.69-1.89,28-2.8Q69,411.26,102.22,408a16.64,16.64,0,0,1,7.65,1.45L6.1,419.39l5.37,6.5a4.15,4.15,0,0,1-3.32-.37c-2.94-5.3-4.3-6-10.08-5.42l-4,.41-17.92,1.78,1,2.1a3.5,3.5,0,0,1-2.64-.16c-.23-1.68-1.35-1.8-2.73-1.63-3,.35-5.93.64-8.9,1l-.22,0-.21.07-2.64.1c-4.25-.32-8.55.41-12.77-.68l25.31-2.45c-.63-1.56-1-2.91-3-2.55-9.28,1.65-18.57,3.24-27.86,4.86a36,36,0,0,1-9.67-.53l38-6.5-24.83-42c1.16-.65,2,.18,2.92.63l24,41,24.77-4.2-26.45-32.21A5.66,5.66,0,0,1-26.21,380Zm-.36,37.3c.55,2.46,1.7,3.11,3.74,2.77,2.28-.38,4.62-.41,6.93-.64,5.81-.56,11.61-1.15,17.92-1.79-1.77-1.7-2.31-4.48-4.48-4.19C-10.49,414.53-18.46,416-26.57,417.33Z" transform="translate(318.66 -88.12)"/><path class="cls-2" d="M112.54,657.41c-4.87-8.09-9.79-16.16-14.61-24.28q-15.56-26.26-31-52.58h2.56Q83.06,603.77,96.66,627q8.64,14.71,17.33,29.39Z" transform="translate(318.66 -88.12)"/><path class="cls-2" d="M184.46,425.54l3.78,7.92a9.48,9.48,0,0,1-5.55-.36c-.64-2.82-1.27-5.65-1.91-8.48A5.46,5.46,0,0,1,184.46,425.54Z" transform="translate(318.66 -88.12)"/><path class="cls-2" d="M210.19,431l-6.85,3a7.8,7.8,0,0,1-5.51,0l8.78-3.9A5.83,5.83,0,0,1,210.19,431Z" transform="translate(318.66 -88.12)"/><path class="cls-2" d="M130.53,102a1.13,1.13,0,0,1-1.52,1A1.23,1.23,0,0,1,130.53,102Z" transform="translate(318.66 -88.12)"/><path class="cls-2" d="M135.32,99.14l-.82.39C134.53,98.89,135,99.08,135.32,99.14Z" transform="translate(318.66 -88.12)"/><path class="cls-2" d="M134.53,99.51a.8.8,0,0,1-1,.52C133.64,99.45,134.05,99.41,134.53,99.51Z" transform="translate(318.66 -88.12)"/><path class="cls-2" d="M133,100.51a.75.75,0,0,1-1,.53C132.14,100.45,132.53,100.38,133,100.51Z" transform="translate(318.66 -88.12)"/><path class="cls-2" d="M619,271c-.47.1-.89.08-1-.51C618.46,270.39,618.91,270.35,619,271Z" transform="translate(318.66 -88.12)"/><path class="cls-2" d="M618,270.53c-.47.09-.89.09-1-.51C617.45,269.91,617.9,269.87,618,270.53Z" transform="translate(318.66 -88.12)"/><path class="cls-2" d="M617,270c-.47.09-.89.09-1-.51C616.45,269.42,616.89,269.39,617,270Z" transform="translate(318.66 -88.12)"/><path class="cls-2" d="M131.53,101.52c-.18.49-.47.75-1,.52C130.64,101.46,131,101.33,131.53,101.52Z" transform="translate(318.66 -88.12)"/><path class="cls-2" d="M616,269.53c-.47.09-.89.09-1-.51C615.44,268.93,615.89,268.9,616,269.53Z" transform="translate(318.66 -88.12)"/><path class="cls-2" d="M912,410.77l-1-.75C911.59,409.89,912,410,912,410.77Z" transform="translate(318.66 -88.12)"/><path class="cls-2" d="M614,268.53c-.48.1-.88,0-1-.52C613.43,268,613.86,268,614,268.53Z" transform="translate(318.66 -88.12)"/><path class="cls-2" d="M613,268l-1.29-.53C612.24,267.47,612.74,267.45,613,268Z" transform="translate(318.66 -88.12)"/><path class="cls-2" d="M-29.78,376.26l.58.43-.17.28-.78-.3Z" transform="translate(318.66 -88.12)"/><path class="cls-2" d="M615,269c-.47.09-.9.09-1-.51C614.44,268.44,614.88,268.42,615,269Z" transform="translate(318.66 -88.12)"/><path class="cls-2" d="M486,227l1.11.49C486.7,227.39,486.13,227.68,486,227Z" transform="translate(318.66 -88.12)"/><path class="cls-2" d="M-179.47,317.5l-1,.53C-180.46,317.27-179.91,317.49-179.47,317.5Z" transform="translate(318.66 -88.12)"/><path class="cls-2" d="M415.92,191.46c.47,0,.95-.1,1.11.52C416.52,192.11,416.1,192.05,415.92,191.46Z" transform="translate(318.66 -88.12)"/><path class="cls-2" d="M417,192c.46-.08.92-.16,1,.51C417.53,192.61,417.11,192.6,417,192Z" transform="translate(318.66 -88.12)"/><path class="cls-2" d="M132,101l-.52.52Z" transform="translate(318.66 -88.12)"/><path class="cls-2" d="M133.53,100l-.53.52Z" transform="translate(318.66 -88.12)"/><path class="cls-2" d="M-205.42,487.11l.45.4Z" transform="translate(318.66 -88.12)"/><path class="cls-2" d="M-178.77,317l-.75.51Z" transform="translate(318.66 -88.12)"/><path class="cls-1" d="M728.05,327.17l3.49,1.73a6.61,6.61,0,0,1-3.95-1.29Z" transform="translate(318.66 -88.12)"/><path class="cls-1" d="M-133.85,433.38a.52.52,0,0,1,0-.44c1.22-.65,2.49-.42,4.49-.23Z" transform="translate(318.66 -88.12)"/><path class="cls-1" d="M700.64,318.1l2.49,1a2.27,2.27,0,0,1-2.56-.61A1.31,1.31,0,0,1,700.64,318.1Z" transform="translate(318.66 -88.12)"/><path class="cls-1" d="M123.13,477.33l.06-.63,1.81-.2h0Z" transform="translate(318.66 -88.12)"/><path class="cls-1" d="M706.47,320.7c-.9.55-1.3-.13-1.94-.41C705.43,319.75,705.83,320.44,706.47,320.7Z" transform="translate(318.66 -88.12)"/><path class="cls-1" d="M125,476.5l1.19-.48.08.35-1.28.12Z" transform="translate(318.66 -88.12)"/><path class="cls-1" d="M734,330.21c0,.05,0,.15-.07.15a.87.87,0,0,1-.22-.05c0-.06,0-.15.07-.15A.59.59,0,0,1,734,330.21Z" transform="translate(318.66 -88.12)"/><path class="cls-1" d="M708.75,321.8Z" transform="translate(318.66 -88.12)"/><path class="cls-1" d="M703.76,319.58l.17.18c-.06.05-.13.14-.19.13s-.11-.1-.17-.16S703.7,319.64,703.76,319.58Z" transform="translate(318.66 -88.12)"/><path class="cls-1" d="M707.27,321.1l.15.16c-.06.05-.12.13-.18.12s-.11-.09-.16-.14Z" transform="translate(318.66 -88.12)"/><polygon class="cls-1" points="1051.39 241.74 1051.31 241.58 1051.5 241.6 1051.39 241.74"/><path class="cls-1" d="M731.89,329.26c-.06,0-.11.12-.17.11s-.1-.08-.14-.13.11-.11.16-.11S731.84,329.22,731.89,329.26Z" transform="translate(318.66 -88.12)"/></svg>