<?xml version="1.0" encoding="utf-8"?>
<!-- Generator: Adobe Illustrator 24.3.0, SVG Export Plug-In . SVG Version: 6.00 Build 0)  -->
<svg version="1.1" id="Layer_1" xmlns="http://www.w3.org/2000/svg" xmlns:xlink="http://www.w3.org/1999/xlink" x="0px" y="0px"
	 viewBox="0 0 1264.4 630.5" style="enable-background:new 0 0 1264.4 630.5;" xml:space="preserve">
<style type="text/css">
	.st0{fill:#6666FF;}
	.st1{fill:#3CB371;}
</style>
<path class="st0" d="M271,263.9"/>
<path class="st0" d="M288.5,288.6l0.8,0.3l0.2-0.3"/>
<path class="st0" d="M264.7,283.3c3.7,0.8,7.4,1.8,11.1,2.4"/>
<path class="st0" d="M560.6,347.3l2.4,1c0.2,1,0.1,1.8-1.3,1.7c-0.9-0.1-1.8-0.4-2.6,0.3l-2.5-0.3l-3,0l-37.6-1.5
	c-1.5-1-3.1-0.5-4.6-0.4l-3.2,0l-2.4,0h-1.6c-0.5-0.6-1.3-0.8-2-0.3c-0.1,0.1-0.1,0.1-0.2,0.2c-8.2-0.4-16.4-1-24.6-1.3
	c-21.5-0.9-43-1.8-64.6-2.7c-8.3-0.4-16.6-0.7-24.9-1.1l-55.6-2.3c-0.9-0.6-2-0.7-3.1-0.4l-31.8-1.1c-0.8-0.6-1.8-0.7-2.7-0.4
	l-32.1-1.2c-7.8-0.8-15.7-1.2-23.6-1.2c-3.5,0-7-0.8-10.5,0.2c-1.4-1.2-3.1-1.1-4.8-0.9l-23-1c-18.9-0.8-37.7-1.6-56.6-2.5
	c-28.6-1.2-57.2-2.4-85.8-3.6c-13.6-0.6-27.3-1.3-40.9-1.9c-4.1-0.2-8.3-0.1-12.4-0.2c-1-0.5-1.9-0.8-3,0l1.1,1.3
	c4.4,10.5,9.6,20.8,14.6,31.1c1,1.3,2.4,1.6,3.9,1.8l19.6,8.9c1.5,1,3.3,1.5,5.2,1.4c0.5,0.2,0.9,0.4,1.4,0.6
	c11.8,4.1,24.4,6.1,35.6,12c9.9,5.2,19.9,10.4,29.9,15.5l0.4,0.4l0,0c0.7,1.5,2,2,3.4,2.6l0.7,0.4l0,0c0.4,0.5,0.8,1,1.2,1.5
	c11.1,9.1,22.2,18.3,33.4,27.3c4.4,3.5,8.4,7.6,13.3,10.4c-0.2,1.1,0.4,2.1,1.4,2.5c4.4,10.2,9.9,19.9,15.1,29.6
	c-0.1,1,0.5,2,1.5,2.3l7.9,11.4c1.6,1.1,3.3,0.6,4.9,0.1c0.6,0.2,1.3,0.3,1.9,0.3c26.2,0.3,52.3,0.5,78.5,0.7c0.9,0,1.9,0.3,2.5-0.7
	c1.9,0.8,3.8,1.5,6,0.9l98.5,1.1h2.5c6.3,0.1,12.6,0.3,19,0.4c12.6,0.2,25.2,0.4,37.7,0.5c3.4,0,6.8,0.6,10.1-0.3
	c2.5,0.5,5.1,0.6,7.7,0.4l36.1,0.5c1.1,0.3,2.2,0.3,3.3,0l35.7,0.5h2.2l28.3,0.5h12.5c0.6,1.3,0.5,2-0.1,2.6l-40-0.5h-2.3l-37.6-0.5
	c-1-0.3-2.1-0.3-3.2,0l-30.8-0.5h-3.9h-2.7c-1-0.4-1.9-1-2.9-0.1l-67.6-0.9h-2.6c-7.4-0.2-14.8-0.4-22.2-0.5
	c-23.2-0.2-46.4-0.5-69.6-0.7c-1,0-2-0.3-2.8,0.5c-1.7-1-3.4-1.7-5.3-0.6c-2.2-0.1-4.5-0.3-6.7-0.3l-74.1-0.8c-4.3,0-8.6-0.3-13-0.2
	c-1.4,0-2.6-0.8-3.2-2c0-0.5,0-1-0.6-1.1l0,0l-0.5-0.5l0,0c-0.9-3.2-3.4-5.1-5.4-7.3c0-0.7-0.1-1.3-1.1-1.2l0,0c0-0.4,0-0.8-0.1-1.2
	c-4.2-8-8.2-16.2-12.6-24.1c-1.9-3.4-2.8-7.4-5.9-10c-11.7-9.7-23.8-18.8-35-28.9c-12.6-11.4-27.3-19.1-42.4-26.3l0,0l-0.9-0.5
	c-1.9-1.7-4.1-2.9-6.6-3.5l0,0l-0.8-0.5c-11.9-3.6-23.9-7-35.6-11c-8.8-3.1-17.2-7.2-25.6-11.5c0.1-0.7,0-1.3-0.8-1.5L1.7,331
	c-1.1-2.5-2.6-4.9-1.5-7.8c1.7,1.1,3.1,0.1,4.5-0.5c0.3,1.3,1.4,0.9,2.2,0.9c3.6,0.2,7.3,0.4,11,0.5l97.8,4.1l37.9,1.6l65.7,3
	c1.5,0.5,3,0.7,4.6,0.4l26.5,1c3.2,0.6,6.4,0.8,9.7,0.5l5.5,0.1c4.2,1.1,8.5,0.4,12.8,0.7l2.6-0.1l0.2-0.1h0.2l11.6,0.7
	c0.8,0.4,1.8,0.5,2.6,0.2l31,1.1c1,0.6,2.2,0.7,3.3,0.4c15.2,0.7,30.4,1.4,45.6,2c25.3,1.1,50.5,2.1,75.8,3.2
	c9,0.4,17.9,0.9,26.9,1.3c7.6,0.3,15.3,0.5,22.9,0.7c1.8,0.7,3.7,0.8,5.5,0.4l9.6,0.6c1.8,0.7,3.7,0.7,5.5,0l26,1.5V347l-19.2-4.2
	c-1.1-0.6-2.3-0.9-3.6-0.8l-22.2-4.6c-1.1-0.7-2.4-1.1-3.7-0.9l-11-2.3l-59.9-12.9c-2.4-1.1-5-1.6-7.6-1.5
	c-10.5-2.8-21.1-4.8-31.7-7c-1.8-1.3-3.8-1-5.8-1.1c-0.8-0.3-1.5-0.6-2.3-0.8c-10.6-2.3-21.2-4.6-31.9-6.9l-56.7-12.2
	c-1-0.7-2.3-1-3.5-0.9l-22.4-4.6c-0.9-0.5-1.8-1.3-2.9-0.6c-0.9-0.2-1.7-0.6-2.6-0.8c-35.3-7.6-70.6-15.3-105.9-22.9
	c-16-3.5-32-6.9-48-10.3c-0.8-0.8-1.9-0.6-2.8-0.8l-4.2-0.6l0,0l-1.2-0.5c-1.8-0.6-3.6-1.4-5.6-1.1l-3.6-1.2l51.6-22.3
	c3.9-0.5,7.1-2.8,10.4-4.5c0.8,0,1.3-0.2,1.5-1l0,0c1.3,0.4,2.4-0.4,3.5-0.9c13.3-5.6,26.6-11.1,39.7-16.9c5.9-2.6,12.4-4,17.4-8.5
	c5.2-4.6,10.3-9.5,15.4-14.3c19.5-18.4,38.9-36.9,60.4-53.1c0.7-0.5,1.6-1,1.4-2.1l1.2-0.8c0.8,0.7,1,0,1.2-0.5l0,0l0.5-0.8
	c2.1-1.5,4.2-3,6.4-4.5c6.2-4.3,12.1-9,17.6-14.2l0,0l0.5-0.5l0,0c1,0.1,1.4-0.4,1.5-1.3c0.1-0.1,0.1-0.4,0.2-0.4
	c10.3-5,14.5-15,19.7-24.1c5.5-9.6,11-19.2,16.3-28.9c0.6-1.2,1.6-1.3,2.6-1.6c21.8-6.8,43.7-13.6,65.6-20.4c4-1.2,7.1-4,10.5-6.2
	c9.1-5.7,18.1-11.5,26.9-17.7c4.5-3.2,9.4-2.5,13.9-1.8c31,4.5,62,9.4,92.9,14.2c6.1,0.9,12.2,1.6,18.2,2.7
	c6.4,1.2,11.9,4.6,17.8,7.2c27.3,11.9,54.6,23.8,81.8,35.8c1.2,0.4,2.2,1.2,2.9,2.3c2.5,3.9,6.3,6.4,10,8.9
	c-0.4,1.4,0.7,1.9,1.4,2.6c6.9,6.9,13.9,13.6,20.5,20.6c3.7,3.9,8.2,6.2,12.9,8.5c0.2,0.6,0.6,0.6,1.1,0.5l0,0
	c0.1,0.6,0.5,0.6,1,0.5v-0.1c0.2,1.1,1.3,1.2,2,1.6c9,4.6,18.1,9.3,27.5,13.2l1,0.8l0,0l1,0.5l0,0l1,0.5l0,0
	c2.8,1.5,5.6,3.2,8.5,4.5c2.9,1.3,5.6,3.6,9,4l0,0l0.5,0.5l0,0c0.3,0.6,0.8,0.6,1.3,0.5c1.2,0.7,2.4,1.5,3.6,2.2
	c4.1,2.4,8,5.1,12.7,6.3l0,0c0.1,0.7,0.7,0.4,1.1,0.5l14.9,4l0,0c0.4,0.7,1.2,0.4,1.8,0.5c4.6,1.6,9.1,3.5,14,4
	c25.4,7.2,50.7,14.4,76.1,21.5c10.4,2.9,19.8,8.2,29.4,12.9c44.9,21.8,90.8,41.6,136.9,60.7c29.8,12.3,57.9,28.2,86.7,42.9
	c19.2,9.8,38.1,20.2,57.4,29.7c10.7,5.1,20.5,12.1,28.9,20.5c3.5,3.6,7.3,6.8,10.9,10.3c2,1.9,2.2,3.5-0.4,5.1
	c-22.4,13.9-44.8,27.9-67.2,41.8c-13.5,8.3-27.8,15.2-41.7,22.8c-44.6,24.1-89.2,48.1-133.9,72c-7.4,4-15.7,5.3-23.7,7.7
	c-32.6,9.8-65.4,18.7-97.8,29.2c-23.5,7.6-46.3,17.1-69.5,25.8c-24.5,9.2-48.9,19-73.7,27.4c-15.7,5.4-32,8.9-48.1,13.2
	c-22,5.9-44,11.8-66,17.6c-1.2,0.3-2.5,0.7-1.2,3c-1.3-1.5-3.4-1.9-5.2-1.1c-19.1,6.2-38.2,12.3-57.2,18.5
	c-6.8,2.2-13.5,0.8-20.1-0.7c-18.3-4.2-36.7-8.2-55-12.4c-4.6-1.1-8.2-4.2-12.3-6.6c-11.8-6.8-23.6-13.7-35.4-20.5
	c-0.5-0.3-0.9-0.6-1.4-1c-0.1-0.9-0.5-1.4-1.5-1.3l0,0c-2.5-3.6-6.4-5.5-10-7.8c-0.1-0.8-0.6-0.9-1.3-0.8h-0.2v-0.2
	c0.3-1.1-0.7-1.4-1.2-1.9c-2.4-2.5-5.7-4-7.7-6.9l1.4-1.1c0.7,0.5,1.4,1,2,1.5l20.8,16.7c0.2,0.8,0.9,1.4,1.7,1.4
	c9.3,5.4,18.4,11,27.8,16.1c6.9,3.8,13.1,9,21.2,10.8c20.3,4.4,40.5,9.1,60.8,13.6c1.3,0.4,2.4,1.6,3.9,0.4
	c10-3.2,20.1-6.3,30.1-9.6c11-3.6,22-7.2,33-10.9c1.3,0,2.6,0.2,3.3-1.3c1.1,0.5,2.2-0.1,3.2-0.4c33.7-9,67.3-18,100.9-27
	c3.4-0.9,7.1-1.1,10.1-3.3c1.2,0.9,2.1,0.5,3-0.5c1.3-0.4,2.7-0.7,4-1.2c35.5-13.3,71-26.7,106.5-40c9.8-3.7,19.5-7.5,29.3-11.2
	c1.1,0.2,2.2-0.2,3-1c0.6-0.1,1.2-0.2,1.7-0.4c26.6-7.9,53.1-15.7,79.7-23.6c10.1-3,20.2-6.1,30.3-9.1c2.7-0.2,5.3-0.5,7.5-2.3
	c0.7-0.2,1.4-0.5,2-0.9c51.3-27.6,102.6-55.2,153.9-82.9c3.9-2.1,8.1-3.7,11.5-6.7c2.3-0.5,4.7-0.9,6.2-3.1c0.8-0.3,1.7-0.7,2.5-1.2
	c12-7.4,23.9-14.8,35.9-22.2c10.7-6.7,21.4-13.5,32.1-20.2c0.7-0.2,1.5-0.1,1.9-1.1c-1.5-1.9-3.4-3.5-5.5-4.7l-0.6-0.7l0,0
	c-8.3-7.1-14.7-16.5-25.5-20.7c0-0.8-0.4-0.9-1-0.8l0,0c-0.2-1.1-1.3-1.2-2-1.6c-9.2-4.8-18.4-9.6-28-13.7c-0.1-0.6-0.5-0.8-1-0.8
	l0,0c-0.2-0.5-0.6-0.6-1-0.5l0,0c-0.2-0.5-0.5-0.4-0.8,0l-1-0.5c-0.2-1.1-1.2-1.3-2-1.7c-7.7-4-15.3-8-23-12l-67.2-34.7
	c-1.1-1-2.5-1.6-4-1.7c-0.3-0.2-0.7-0.4-1.1-0.6c-31.5-13.5-63.1-27-94.7-40.5c-1.4-0.6-2.6-2.2-4.5-1.2l-1-0.5c-0.2-1-1-1-1.8-1.2
	c-2.4-2.4-5.9-2.1-8.8-3.7c-12.9-7.2-26.4-13.3-39.8-19.6c-3.4-1.6-6.6-3.9-10.4-4.5l0,0c-0.1-0.7-0.5-0.6-1-0.5l0,0
	c-0.1-0.7-0.5-0.6-1-0.5l0,0c-0.1-0.6-0.5-0.6-1-0.5l0,0c-0.1-0.6-0.6-0.6-1-0.5l0,0c-0.1-0.6-0.6-0.6-1-0.5l0,0
	c-0.1-0.6-0.6-0.6-1-0.5l0,0c-0.3-0.6-0.8-0.6-1.3-0.5l-12.6-5.7c-0.5-1.4-1.9-0.9-2.9-1.2c-12.7-3.6-25.4-7.2-38.2-10.7
	c-6.2-1.7-12.3-4-18.8-4.9l-2.3-0.9c-4.4-1.6-8.7-3.4-13.5-3.7c-5.2-1.9-10.6-3.4-16-4.4l0,0c-0.3-0.7-0.9-0.5-1.5-0.5l0,0
	c-0.4-0.7-1.2-0.4-1.8-0.5c-5.3-1.8-10.6-4-16.3-4.6l-2.6-0.5c-0.2-1-1-1.1-1.8-1.1c-0.6-0.4-1.3-0.8-1.9-1.1
	c-21.5-10.9-43-21.8-64.5-32.8c-2.1-1-3.9-2.6-6.3-2.9c-1.3-1.2-2.7-2.4-4.7-2.6c-0.5-0.5-1-0.9-1.4-1.4l-36.1-36
	c-0.3-0.9-0.8-1.4-1.8-1.1c-0.9-0.5-1.7-1-2.6-1.4L654,48.7l-63-27.6c-0.9-0.7-1.7-1.5-3-1.2l-11.1-1.7
	c-32.4-4.9-64.8-9.8-97.2-14.7c-2.9-0.4-5.7-1.8-8.7-0.6c-0.7-1.1-2.2-1.4-3.3-0.7L453.9,11c-0.4-0.1-0.8-0.2-0.8,0.4l0,0
	c-0.5-0.1-0.9-0.1-1,0.5l0,0l-0.5,0.5l0,0c-0.5-0.1-0.9-0.1-1,0.5l0,0l-0.5,0.5l0,0c-0.5-0.2-0.9-0.1-1,0.5l0,0
	c-0.7-0.2-1.3,0.2-1.5,0.9c0,0,0,0.1,0,0.1h0.1c-0.5,0.1-0.9,0.2-1.4,0.4c-7.7,4.8-15.4,9.7-23.1,14.5c-0.4-0.4-0.8-0.6-1.1,0.1l0,0
	c-0.7,0.1-1.5,0.2-2.2,0.4L359.7,49c-1.4-0.2-1.5,0.9-1.9,1.7c-2.7,4.8-5.5,9.7-8.2,14.5c-4.6,8.2-9.3,16.5-13.9,24.7l0,0l-0.8,1
	c-1.2,1.7-2.5,3.5-3.7,5.2c-6.5,5.2-13,10.5-19.6,15.8l-44.5,35.9c-0.9,0-1.7,0.7-1.9,1.5c-6.9,6.4-13.8,12.7-20.7,19.1
	c-10.2,9.5-20.3,19-30.4,28.4c-0.8,0.1-1.6,0.6-2,1.4c-0.8,0.3-1.6,0.5-2.3,0.8l-69.8,29.8l-0.8,0.5h0.1c-0.4,0-1-0.2-1,0.5l0,0
	c-3.6,0.1-6.2,2.5-9.3,4c-10.5,3.7-20.6,8.4-30.8,12.9l-1.8,0.3c6.2,1.4,11.6,2.8,17.2,3.2c0.6,0.5,1.4,0.6,2.2,0.5l0,0
	c0.4,0.2,0.9,0.4,1.3,0.5c45.2,9.8,90.4,19.6,135.6,29.3"/>
<path class="st0" d="M548.2,344.3l0.8,0.5"/>
<path class="st0" d="M437.2,320.5c5.4,1.2,10.8,2.5,16.2,3.6c15.1,3.3,30.2,6.5,45.3,9.7c0.8,0.6,1.8,0.8,2.8,0.6l27.7,6
	c1.1,0.8,2.4,1.1,3.7,0.9"/>
<path class="st0" d="M398.9,312.4"/>
<path class="st0" d="M390.3,310.7"/>
<path class="st1" d="M224,333.2c-1.5,0.3-3.1,0.2-4.6-0.4c-0.5-0.4-1-0.9-1.5-1.2l-102.7-68.2l-12.7-8.4c-0.7,0.5-1.4,0.9-2,1.3
	c-21.4,14.8-42.8,29.7-64.2,44.5c-10.5,7.3-21,14.7-31.5,22c-1.5,0.7-2.9,1.7-4.5,0.5l69.9-48.6l30.4-21.1l-7.2-4.8
	c2-0.3,3.8,0.4,5.6,1.1c0.3,0.4,0.6,0.9,1.2,0.5l0,0c0.3,1.3,1.6,1.3,2.4,2l1.8-1.4c1,0.2,2,0,2.8,0.8l-2.8,1.9L224,333.2z"/>
<path class="st1" d="M836.4,147.9c-4.9-0.5-9.4-2.4-14-4c-0.5-0.5-1.1-0.7-1.8-0.5l0,0c-4.4-2.8-9.4-4.4-14.1-6.5
	c-3.6-1.6-7.1-3.6-11-4.5c0-0.1-0.1-0.2-0.1-0.4l-0.3,0.1l0.4,0.2l9,6.5c-4.7-1.2-8.6-3.9-12.7-6.3c-1.2-0.7-2.4-1.4-3.6-2.2
	l-1.2-0.5l0,0l-0.5-0.5l0,0c-5.1-4.3-11.3-6.4-17.5-8.5l0,0c-0.1-0.7-0.5-0.6-1-0.5l0,0c-0.1-0.6-0.6-0.6-1-0.5l0,0
	c-0.3-0.2-0.7-0.5-1-0.8c-9.4-4-18.4-8.6-27.4-13.2c-0.7-0.4-1.8-0.5-2-1.6c0.9,0.2,1.9,0.5,2.8,0.9c9.5,4.1,19.1,8.2,28.6,12.3
	c0.2,0.3,0.7,0.5,1,0.2c0,0,0.1-0.1,0.1-0.1l-0.8-0.6l-68.7-45.5c-3.7-2.5-7.6-4.9-10-8.9c8.1,5.2,16.2,10.4,24.2,15.7
	c22.3,14.8,44.5,29.8,67,44.2c8.9,5.7,19.3,8.9,29,13.3c8.2,3.7,16.6,7.3,24.9,10.9C835.3,147.2,835.9,147.5,836.4,147.9z"/>
<path class="st1" d="M153.4,219.9L153.4,219.9l-1.5,1c-3.4,1.8-6.5,4-10.4,4.5c58.1-40.3,116.3-80.7,174.4-120.9
	c0.7-0.5,1.3-1.4,2.3-1.1c-5.5,5.2-11.4,10-17.6,14.3c-2.1,1.5-4.2,3-6.4,4.5l-0.5,0.8l0,0c-0.6-0.3-0.9,0.1-1.2,0.5l-1.2,0.8
	c-0.4,0.2-0.7,0.4-1.1,0.6c-36.4,25.2-72.8,50.5-109.2,75.7C171.7,206.9,162.6,213.4,153.4,219.9z"/>
<path class="st1" d="M285.7,491.3c1.9-1,3.6-0.3,5.3,0.6c34.5,20,68.9,40,103.4,59.9c15.3,8.8,30.5,17.6,45.8,26.4v0.2h0.2l1.3,0.8
	c3.5,2.3,7.4,4.2,10,7.8c-3.3-1-6-3.1-8.9-4.8C390.3,551.9,338,521.6,285.7,491.3z"/>
<path class="st1" d="M77.7,383.4c2.5,0.6,4.7,1.9,6.6,3.5c0.2,0.4,0.4,0.8,0.9,0.5l0,0c-0.1,1,0.8,1.4,1.3,1.9
	c20.1,18.8,40.1,37.7,60.2,56.5c11.4,10.7,22.9,21.4,34.4,32.1l0,0l1.1,1.2c2.1,2.3,4.6,4.2,5.4,7.3c-3.9-2.2-6.6-5.6-9.8-8.6
	c-32.9-30.8-65.8-61.7-98.7-92.6C78.6,384.7,78.1,384,77.7,383.4z"/>
<path class="st1" d="M14.9,358.9c0.8,0.2,0.9,0.8,0.8,1.5l-2.5-1.1L14.9,358.9z"/>
<path class="st1" d="M451.7,586.9c1-0.1,1.4,0.4,1.5,1.3C452.7,587.8,451.7,587.8,451.7,586.9z"/>
<path class="st1" d="M320.1,101.6c-0.1,0.9-0.6,1.4-1.5,1.3C318.8,102,319.5,101.9,320.1,101.6z"/>
<path class="st1" d="M188.1,486.9c0.6,0.2,0.6,0.7,0.6,1.1C188.5,487.7,187.8,487.5,188.1,486.9z"/>
<path class="st1" d="M76.9,382.9l0.8,0.5L76.9,382.9z"/>
<path class="st1" d="M318.7,102.9l-0.5,0.5C318,102.9,318.3,102.9,318.7,102.9z"/>
<path class="st1" d="M187.7,486.4l0.5,0.5C187.7,487.1,187.5,486.9,187.7,486.4z"/>
<path class="st1" d="M265.2,149.4c0.2-0.9,1-1.5,1.9-1.5c0.5,0.3,0.9,0.7,1.4,1L459,262.2l5.5,3.2c-0.1-0.6-0.3-1.1-0.5-1.6
	c-6.3-12.6-12.5-25.2-18.8-37.8c-0.3-0.5-0.6-1-1-1.4c-37-42.4-74-84.8-111.1-127.2c-0.5-0.6-0.9-1.5-1.9-1.3
	c1.2-1.7,2.5-3.5,3.7-5.2c0.5-0.2,1.3-0.1,0.8-1l0,0c1.1,0.6,1.6-0.5,2.3-0.9c7.6-5.2,15.2-10.5,22.7-15.7l6.4-4.4l-9.3-18.1
	c0.4-0.9,0.5-2,1.9-1.7c3,6.2,5.9,12.4,8.9,18.6c0.3-0.1,0.7-0.3,1-0.4c17.3-12,34.6-24,51.9-36c0.4-0.2,1.2-0.4,0.8-1.2l0,0
	c0.4,0.5,0.8,0.1,1.1-0.1c7.7-4.8,15.4-9.7,23.1-14.5c0.4-0.2,0.9-0.3,1.4-0.4c-0.1,1-1,1.2-1.7,1.6c-5.8,4.1-11.6,8.1-17.4,12.1
	c0.1,0.6,0.2,1.1,0.3,1.6c17.6,74.5,35.4,148.9,52.8,223.4c2.3,10.1,5.4,19.2,13.4,26.2c0.9,1,2.1,1.6,3.4,1.8
	c10.2,0.9,20.5,1.3,30.6,2.8c13.2,1.9,25.5-2,38.3-3.6c0.7-8.5,1.3-16.7,2-24.9c3.1-38.7,6.2-77.3,9.3-116c0.2-1.5-0.3-3-1.3-4.1
	c-12.8-15.5-25.5-31-38.2-46.5L467.7,2.1c1.1-0.7,2.6-0.4,3.3,0.7l108,131.8c3.1-38.7,6.1-76.7,9.1-114.7c1.3-0.3,2.1,0.6,3,1.2
	c0.2,0.6,0.3,1.3,0.5,1.9c12.4,42.2,24.8,84.4,37.2,126.6c2.4,8.2,4.9,16.4,7.5,25.2l49.2-112c1-0.3,1.5,0.2,1.8,1.1
	c-16.5,37.5-33,75-49.5,112.5c-0.5,1.2-0.5,2.4,0,3.6c3.9,13.1,7.7,26.2,11.6,39.2c0.4,1.1,0.9,2.1,1.6,3
	c10.1,12.4,20.3,24.7,30.4,37.1c0.8,1.3,2.3,1.8,3.8,1.5c14.3-2.5,28.5-4.8,42.8-7.2c2-0.3,3.7-1.5,4.7-3.2
	c7.2-11.5,14.5-22.9,21.8-34.4c8.6-13.5,17.2-27.1,25.9-40.8l-55.4-74c1.9,0.2,3.3,1.3,4.7,2.6c0.4,0.6,0.7,1.1,1.1,1.7l36.3,48.5
	l14.6,19.4l20.7-32.7c0.8,0,1.6,0.1,1.8,1.1l-21.2,33.4l31,41.4l63.5-27.6l-70.6-46.7c5.7,0.5,10.9,2.7,16.3,4.5
	c0.5,0.5,1.1,0.7,1.8,0.5l0,0c0.4,0.6,0.8,1,1.5,0.5l0,0c0.2,0.3,0.4,0.7,0.8,0.8c23.7,10.1,47.4,20.2,71.2,30.3
	c1.2,0.5,2.1,0.3,3.2-0.7l-59.1-25.9c4.8,0.3,9.1,2.1,13.5,3.7l2.3,0.9l45.4,20c0.6,0.3,1.3,0.3,1.9,0c3.2-1.5,6.5-3,9.7-4.5
	c1,0.3,2.4-0.2,2.9,1.2l-10.9,4.7c1.1,0.5,1.8,0.8,2.4,1.1c22.4,9.8,44.8,19.5,67,29.5c3.9,1.8,8.3,2,12.3,0.5
	c-0.8-0.5-1.4-0.9-2.1-1.2c-10.3-5.3-20.6-10.5-30.8-15.8c-6.1-3.1-12.4-5.8-18.1-9.6c3.9,0.6,7,2.9,10.4,4.5
	c13.4,6.2,26.9,12.3,39.8,19.6c2.8,1.6,6.3,1.4,8.8,3.7c0.2,1,1.1,1,1.8,1.2l1,0.5c0.4,0.3,0.8,0.6,1.2,0.8
	c26.5,13.6,53.1,27.1,79.6,40.7c2.7,1.6,5.9,2.3,9,1.9c3.4-0.5,6.9-0.7,10.4-1.1c1.5,0.1,2.9,0.7,4,1.7l-12.6,2.7
	c1.1,0.5,1.7,0.9,2.2,1.1c24.4,10.7,48.9,21.4,73.3,32.1c9.7,4.2,19.5,8.4,29.3,12.6l1,0.5h0.8l0,0c0.1,0.6,0.5,0.7,1,0.5l0,0l1,0.8
	c9.5,4.1,18.8,8.9,28,13.7c0.8,0.4,1.8,0.5,2,1.6c-0.9-0.2-1.7-0.5-2.6-0.8c-9.8-4.1-19.6-8.3-29.4-12.5
	c-17.3-7.3-34.6-14.6-51.9-21.9c-0.3-0.3-0.7-0.6-1.2,0l0.8,0.5c0.4,0.2,0.7,0.4,1.1,0.6c30.9,15.8,61.8,31.6,92.8,47.4
	c5.6,2.8,10.9,6.2,16.9,8.2l0,0l0.6,0.7c2.1,1.2,4,2.8,5.5,4.7c-0.4,1-1.2,1-1.9,1.1c-18.9-1.7-37.8-3.3-56.7-5
	c-27.9-2.4-55.9-4.9-83.8-7.3c-5.1-0.4-10.2-0.9-16.5-1.4l86.6,57.3c-1.5,2.2-3.8,2.6-6.2,3.1l-222.2,17.5l54.6,72.9
	c-2.2,1.8-4.8,2.1-7.4,2.3l-145.3-7.9c11.7,14.2,22.7,27.6,33.7,41c-0.8,0.8-1.9,1.2-3,1c-23.6-14-47.2-28-70.8-42.2
	c-2.5-1.5-5.3-2.3-8.2-2.5c-24.7-1.3-49.4-2.6-74-4c-5.5-0.3-10.9-0.5-16.8-0.8c10.1,34.2,20,68,29.9,101.8c-0.9,1-1.8,1.3-3,0.5
	c-30.4-34.8-60.7-69.6-91.1-104.4c-0.7-0.9-1.8-1.5-2.9-1.6c-19-1-38.1-2-57.1-3c-1.7-0.2-3.3,0.6-4,2.1
	c-4.7,7.6-9.4,15.1-14.3,22.6c-0.8,1-0.9,2.5-0.2,3.6c18.5,37.1,37,74.3,55.5,111.4c-0.7,1.4-2,1.3-3.3,1.3c-0.4-0.4-0.7-0.7-1.1-1
	c-25.9-17.2-51.8-34.4-77.7-51.6c-0.4-0.3-0.8-0.9-1.6-0.4c5.8,24.5,11.6,48.9,17.4,73.4c-1.4,1.2-2.6-0.1-3.9-0.4
	c-0.3-0.4-0.5-0.8-0.8-1.2c-26.7-32.4-53.4-64.7-80.1-97.1c-0.6-0.7-1-1.8-2.3-1.9c-8.9,19.9-17.7,39.8-26.6,59.6
	c-0.8,0-1.6-0.6-1.7-1.4c8.6-19.6,17.3-39.3,25.9-58.9c0.8-1.2,0.6-2.8-0.5-3.8c-8.4-10.1-16.8-20.3-25.2-30.4
	c1-0.9,1.9-0.4,2.9,0.1c8.1,9.9,16.1,19.7,24.5,30l5.2-12l-27-18h3.9l23.9,16.1c2.4-5.5,4.6-10.6,6.8-15.7c1-0.3,2.1-0.3,3.2,0
	c-2.6,5.7-5.1,11.3-7.7,17.1l58.6,38.9c-4.5-19-8.9-37.3-13.3-55.5h2.3c4.3,18.3,8.6,36.5,12.9,54.8c0.3,1.5,1.2,2.9,2.6,3.7
	c24.5,16.2,48.9,32.5,73.4,48.8c1.8,1.2,3.6,2.4,6.3,4.1c-18.7-37.5-36.9-74.2-55.2-110.9c0.6-0.6,0.7-1.3,0.1-2.6h-12.5L537,486
	l1.4,5.8h-2.2c-0.8-2.1,0.2-5.6-2.5-6.2c-9.3-2.2-18.7-3.8-28.2-5.8l-5,11.5c-1.1,0.3-2.2,0.3-3.3,0c1.8-4,3.5-7.9,5.4-12.1
	L436,465.9c7.9,9.9,14.5,19.4,25.1,24.9c-2.6,0.2-5.2,0.1-7.7-0.4c-2.5-3.4-5.6-6.3-9.2-8.5c-9.9-6.4-19.7-13-29.6-19.5
	c-1-0.7-2-1.1-3.1-1.4c-6.4-1.5-12.8-2.5-19.5-1.6c-7.2,0.9-14.5,1.3-22.4,1.9l16.9,28.7H384c-5.3-9.1-10.7-18.2-16-27.3
	c-0.8-1.4-1.9-1.1-3-1l-86.4,6.9c-7.9,0.6-15.8,1.3-24.7,2l31.5,18.4c-2.1,0.6-4-0.1-6-0.9l-28.6-16.8c-0.2-0.2-0.4-0.2-0.7-0.3
	c-6.9,0.7-14.1-0.3-20.7,2.4c-11.1,4.5-22,9.5-33,14.2c-1.6,0.6-3.3,1.1-4.9-0.1l32.3-14.1l-0.1-0.5l-40,3.2c-1-0.3-1.6-1.3-1.5-2.3
	l46.9-15.2c-6.8-4-13-7.5-19-11.1c-1.2-0.8-2.6-1.2-4-1.3c-13-0.7-26-1.4-39.1-2.1c-1.1-0.3-1.7-1.4-1.4-2.5l25.5-5
	c-1.4-0.9-2.1-1.3-2.8-1.7c-14.7-8.5-29.5-17-44.2-25.6c-8.2-4.9-17.5-5.1-26.4-6.9l0,0l-0.7-0.4c-1.4-0.5-2.7-1.1-3.4-2.6l18.6,3.3
	c-1-0.8-1.4-1.1-1.8-1.3C111,390,91.5,378.7,72,367.4c-0.7-0.5-1.5-0.8-2.3-0.7c-7.8,1.4-15.5,2.7-23.3,4.1
	c-1.8,0.1-3.6-0.4-5.2-1.4l26.5-4.4c-4.2-2.5-7.8-4.5-11.3-6.6c-1.3-0.8-2.7-1.2-4.2-1c-10.2,1-20.3,2-30.5,3.1
	c-1.5-0.2-2.9-0.5-3.9-1.8l33.6-3.2L3.1,327.6L2,326.3c1.1-0.9,2.1-0.5,3,0c15.9,9.2,31.8,18.4,47.7,27.7c1.3,0.8,2.8,1.1,4.2,1
	c14.6-1.4,29.2-2.8,43.8-4.2c37.9-3.6,75.9-7.3,113.8-11c4.1-0.4,8.2-0.6,12.5-1.9l-3.3-2.4c1.7-0.3,3.4-0.4,4.8,0.9
	c0.9,0.8,2.2,1.2,3.4,1c2.3-0.5,4.7-0.8,7-1.2c7.9,0,15.8,0.4,23.7,1.2l-28.3,2.6c1.2,0.9,1.9,1.4,2.6,1.9l29.7,19.8l67.2,44.6
	l0.6,0.1l-0.2-0.5c-0.1-0.2-0.1-0.5-0.2-0.7l-39.3-66.5c0.9-0.3,1.9-0.2,2.7,0.4c13.1,22.3,26.2,44.6,39.3,66.9
	c0.9,1.5,1.9,1.3,3.1,1l18.1-3.6l20-4L329.3,340c1-0.3,2.2-0.2,3.1,0.4c15,18.2,30,36.3,44.8,54.6c2.4,2.9,4.5,3.9,8.1,2.9
	c8.2-2.2,16.9-2.4,24.7-5.7c22.7-9.6,45.1-19.5,67.7-29.4c8.4-3.6,16.7-7.3,25.2-11c-0.3-1.5-0.6-2.8-0.9-4.1c0.5-0.6,1.4-0.6,2-0.1
	c0.1,0.1,0.1,0.1,0.2,0.2c0.2,1,0.4,1.9,0.6,2.8c0.7,0.2,1.5-0.2,1.9-0.9l-0.9-1.9l2.4,0c1,2.5,2.1,0.3,3.2,0
	c1.6-0.1,3.2-0.6,4.6,0.4l-6.3,2.8l6.8,13.6l38.8-12.6c-0.8-0.9-1.3-1.6-1.8-2.2l3,0c0.7,1.4,1.4,2.1,2.5,0.3
	c0.8-0.7,1.7-0.4,2.6-0.3c1.4,0.1,1.5-0.6,1.3-1.7l-2.4-1c3.4-6.1,2.1-12.8,3.3-19.6l-19.5,8.5l8.2,9.4c-1.2,0.2-2.5-0.1-3.6-0.7
	c-0.2-0.3-0.2-0.8-0.8-0.5l0,0c-1.3-2.9-3.9-4.8-5.9-7.4l-9.4,4.4c-1.3,0.2-2.6-0.2-3.7-0.9l11.7-5c-5.6-6.5-11.2-12.5-16.2-18.8
	c-2.5-3.1-4.9-4.4-9-3.8c-6.3,1-12.7,1.4-19.3,2c2,6.7,2.7,13.4,5.2,19.6c-1,0.3-2,0.1-2.9-0.5l-8.9-18.4l-52.7,5
	c-2.4,0-4.8-0.5-7-1.5l58.6-5.5l-8-16l-83.2,14c-2.2,0.7-4.2-0.1-7.2-0.8l89.6-15.1c-2.4-4.7-4.5-9-6.7-13.4
	c-0.4-0.9-1.2-0.8-1.9-0.8c-25.1-2.2-50.2-4.4-75.4-6.5c-29.7-2.6-59.4-5.2-89.1-7.8c-11.9-1-23.8-2.1-35.6-3.1
	c-0.6,0-1.1,0-1.7,0.1l19.6,24.2l-0.4,0.4c-1,0.1-2-0.3-2.6-1.1c-6.2-7.5-12.4-15-18.6-22.5c-0.5-0.6-1.1-1.3-1.7-1.4
	c-4.3-0.5-8.5-0.8-13.3-1.2c4.3,7.2,8.3,14.1,12.4,20.9c-1.3,0.3-2.6-0.3-3.3-1.4c-3.6-6.1-7.2-12.2-10.7-18.3
	c-0.5-1-1.4-1.6-2.5-1.7c-9.9-0.8-19.9-1.7-29.8-2.5c-28.1-2.4-56.2-4.9-84.3-7.3c-6.1-0.5-12.2-1.5-18.3-1.3l0,0
	c-0.6-0.9-1.5-0.3-2.2-0.5c-5.6-0.5-11-1.9-17.2-3.2l1.8-0.3c1.2,0.2,2.5,0.4,3.7,0.4c2.7-0.2,5.6,1.6,8,0
	c6.5-4.3,12.8-8.9,19.1-13.4c3-1.5,5.6-3.9,9.3-4l-25.7,18.2l136,11.8c-12.3-20.9-24.4-41.3-36.4-61.7c0.4-0.7,1.2-1.2,2-1.4
	c17.1,20.8,34.2,41.7,51.4,62.5c1.2,1.5,2.9,2.4,4.8,2.5c7.1,0.5,14.1,1.2,21.1,1.8l83.6,7.2l77.9,6.8c6.1,0.5,12.2,1,19,1.6
	c-3.1-4.7-3.9-9.5-8.8-12.4c-41.8-24.6-83.4-49.5-125.1-74.3C313.7,178.1,289.5,163.7,265.2,149.4z M222.9,211.2l-0.5-0.3l0.1,0.7
	l0.6,0.3C223,211.6,223,211.4,222.9,211.2z M442.9,478.6l0.5,0.2l-0.3-0.4c-0.1-0.2-0.3-0.3-0.4-0.4
	C442.3,478.3,442.7,478.4,442.9,478.6z M1017.2,229.4c0.2,0.4,0.4,0.8,0.9,0H1017.2c-0.2-0.6-0.6-0.5-1.1-0.5
	c-0.2-0.4-0.4-0.8-0.9,0h1C1016.3,229.5,1016.8,229.4,1017.2,229.4z M1045.8,238.8l-1-0.5l-1.3-0.7c-15.5-8-31.1-15.8-46.5-24
	c-3.4-1.8-6.1-1.5-9.5,0.4L1043,238l1.4,0.6l1,0.5l0.8,0.4c1.1,0.8,2.5,1.3,4,1.3l-3.5-1.7L1045.8,238.8z M1013.7,227.9
	c0.2,0.4,0.5,0.7,1,0H1013.7c-0.1-0.6-0.6-0.5-1.6-0.5c0.3-0.1,0.1-0.9-0.3,0c0.3,0.1,0.6,0.1,0.9,0.1
	C1012.8,228,1013.2,227.9,1013.7,227.9z M443.7,388.4l-1.8,0.2c-18.7,3.6-37.6,6.5-54.6,15.9l-1.2,0.7c0.2,0.8,0.7,1.5,1.5,1.7
	l54.3-17.7L443.7,388.4l1.3-0.1l-0.1-0.4L443.7,388.4z M1019.2,230.4c0.6,0.7,1.7,1,2.6,0.6l-2.5-1l-0.8,0.1L1019.2,230.4z
	 M569.7,325.3c-0.9,0-1.8,0.5-2.3,1.3l1.9,1c0.3-0.8,0.5-1.4,0.7-2V325L569.7,325.3z M701.2,304.3c2.7-0.1,5-1.4,7.5-2.3
	C706,302.2,702.4,299.5,701.2,304.3c0,0.1-0.1,0.1-0.2,0.1c0,0,0,0.1,0,0.2L701.2,304.3z M342.7,414.8l-0.3-0.3l0.1,0.6l3,5.4
	c1.2-0.7,2.5-0.7,3.2-1.9L342.7,414.8z M396.7,397.9c-4.9,0.3-9.6,1.8-14.8,2.7l2.6,3L396.7,397.9c0.3,0,0.6-0.1,0.1,0
	C397.2,397.6,396.9,397.7,396.7,397.9z M470.7,271.9c0-0.3,0-0.5-0.4-0.2L470.7,271.9c1.8,7.1,6.1,9.6,14.5,8.1
	C480,277.4,475.7,274,470.7,271.9z M508.4,294.1l-0.6-0.1l0.2,0.5c4.3,5,8.6,10,12.9,14.9c0.3,0.4,0.8,0.9,1.2,0.8
	c3.6-0.3,7.3-0.7,11.8-1.1L508.4,294.1z M652.5,227.6l-1-1.1l0.6,1.6c3.5,12.2,7,24.3,10.6,36.7l17.9-3
	C671,250.1,661.7,238.9,652.5,227.6z M728.5,256.2c-6.6,2.8-13.1,5.5-19.7,8.3c-5.7,2.4-11.3,4.9-17.1,7.5l15.5,18.8l21.5-34.5
	l0.3-0.3L728.5,256.2z M821.3,148.7c-0.4-0.3-0.7-0.6-1.2-0.1l0.7,0.5l57.4,38.1c0.6,0.4,1.2,0.9,2,0.5c5.3-2.3,10.6-4.6,16.3-7.1
	c-9-3.8-17.4-7.5-25.9-11C854.2,162.6,837.8,155.7,821.3,148.7L821.3,148.7z M184.8,344.8c-9.9,0.9-19.9,1.8-29.8,2.7
	c-25.5,2.4-51,4.9-76.5,7.4c-6.6,0.6-13.2,1.3-20.5,2c4.4,2.5,8.1,4.7,11.9,6.9c0.8,0.5,1.7,0.6,2.6,0.4l24.1-4.1l88.3-14.9l4.5-0.7
	C187.3,344.4,186,344.2,184.8,344.8L184.8,344.8z M735.7,250.4c0.8-0.3,1.6-0.5,2.3-0.8c17.8-7.7,35.5-15.4,53.3-23.2l20.5-8.9
	l-30.2-40.4c-8.3,13.1-16.4,25.9-24.5,38.6c-7.2,11.5-14.5,22.9-21.6,34.4c0,0.2,0,0.4-0.1,0.5L735.7,250.4z M857.9,479.1h0.6
	l-0.2-0.4c-0.1-0.2-0.2-0.5-0.3-0.7c-13.8-16.9-27.7-33.8-41.5-50.7c-1.3-1.6-2.7-1.6-4.4-1.4l-49.8,4c-6.1,0.5-12.1,1-18.8,1.6
	c25.6,15.2,50.7,30.2,75.9,45.1c0.7,0.4,1.5,0.6,2.3,0.7C833.8,477.9,845.9,478.5,857.9,479.1z M439.6,216l0.5,0.3l-0.1-0.6
	c-0.3-0.7-0.6-1.4-0.9-2c-20.2-40.6-40.4-81.2-60.6-121.7c-3.5-7-6.9-14-10.5-21.1c-11.6,8-23,15.9-34.4,23.9c0.6,0.8,1,1.3,1.4,1.8
	c23,26.3,46,52.7,69,79C415.8,189,427.7,202.5,439.6,216z M889.5,317.6c0.6,0.9,0.9,1.4,1.2,1.8c22.8,30.4,45.5,60.8,68.2,91.2
	c0.8,1.1,2.1,1.6,3.4,1.3c18.9-1.5,37.8-3.1,56.8-4.5l154.4-12.2c4.2-0.3,8.5-0.7,13.4-1.2c-1.4-1-2.2-1.6-3-2.1
	c-26.1-17.3-52.2-34.5-78.3-51.9c-4.3-2.9-8.6-5.1-14-5c-4.1,0-8.1-0.7-12.2-1l-83.6-7.2l-83.6-7.3
	C904.8,318.9,897.4,318.3,889.5,317.6z M738.9,329.3c0.4,0.7,0.6,1,0.9,1.3c25,30.5,50,61.1,75,91.6c0.7,0.9,1.8,1.4,3,1.2
	c5.5-0.5,11-0.8,16.4-1.3l111.8-8.9c3.8-0.3,7.5-0.7,11.5-1c-0.4-0.7-0.6-1-0.8-1.2c-23-30.8-46.1-61.6-69.1-92.4
	c-0.7-0.9-1.8-1.5-2.9-1.5c-14.2-1.2-28.3-2.6-42.5-3.7c-6.6-0.5-13.2-2.2-19.9-0.8c-21.3,4.2-42.6,8.4-63.9,12.7
	C752,326.7,745.6,328,738.9,329.3z M332.9,408.2c-0.6-0.5-0.8-0.7-1.1-0.9l-99.7-66.2c-0.7-0.6-1.6-0.8-2.6-0.7
	c-3.6,0.4-7.3,0.6-10.9,1.2c-36,6-72,12.1-108,18.2L73.9,366c0.9,0.6,1.4,0.9,1.8,1.2c19.2,11.1,38.4,22.3,57.7,33.4
	c2.9,1.7,5.7,3.6,9.2,4.3c30.3,6,60.7,12.2,91,18.2c4.5,0.9,9.1,3,13.7,2.1C275.7,419.7,304.1,414,332.9,408.2L332.9,408.2z
	 M817.9,425.6c0.2,0.4,0.5,0.9,0.7,1.3c14,17.1,28,34.3,42.1,51.4c0.7,0.8,1.8,1.3,2.8,1.2c17,0.9,34.1,1.9,51.1,2.8
	c27.6,1.5,55.2,3,82.8,4.5c5.3,0.3,10.6,0.5,16.5,0.8c-18.2-24.4-36.1-48.2-53.9-72.1c-0.5-0.8-1.4-1.2-2.3-1
	c-6.6,0.6-13.3,1.1-19.9,1.6l-92.1,7.4L817.9,425.6z M369.7,69.5c0.4,0.8,0.7,1.4,1,2c24.1,48.3,48.1,96.7,72.2,145
	c1.5,3,2.6,6.3,4.9,9c10.8,12.4,21.7,24.8,32.6,37.2c0.5,0.6,0.8,1.5,2,1.5c-18.5-78-37-155.9-55.5-234.3L369.7,69.5z M1011.1,275
	c0.6,0.5,0.8,0.7,1.1,0.9c28.8,19.1,57.6,38.1,86.4,57.2c0.6,0.4,1.3,0.7,2,0.8c15.4,1.4,30.9,2.7,46.3,4l90,7.8
	c6.8,0.6,13.6,1.1,21.5,1.8c-1.5-0.9-2.1-1.2-2.6-1.5c-28.5-14.6-57-29.3-85.6-43.7c-27.9-14-55.1-29.6-84.3-41.1
	c-0.9-0.5-1.9-0.7-2.8-0.6C1059.3,265.4,1035.4,270.1,1011.1,275L1011.1,275z M685.1,340.1c0,0.4,0.1,0.9,0.2,1.3
	c6.5,21.9,12.9,43.9,19.4,65.8c0.3,1,1,1.9,2,2.4c10.7,6.3,21.3,12.7,31.9,19c1.2,0.7,2.6,1.1,4,0.9c13.4-1.1,26.7-2.1,40.1-3.1
	c10.1-0.8,20.2-1.6,30.4-2.5c-0.1-0.3-0.2-0.6-0.3-0.9c-25.2-30.7-50.3-61.4-75.5-92.1c-0.5-0.7-1.3-1-2.1-0.8
	C718.5,333.4,701.8,336.7,685.1,340.1L685.1,340.1z M388.8,408.6c0.3,0.5,0.6,0.9,0.9,1.4c11.9,14.5,23.8,28.9,35.7,43.4
	c1,1.2,2.1,1.1,3.3,1c26.1-2.1,52.2-4.5,78.4-6c7.6-0.4,11.6-3,13.5-10.1c0.7-2.6,2-4.8,1.2-7.8c-3.1-12.2-5.9-24.6-8.8-36.9
	c-1.4-6.1-2.9-12.2-4.3-17.8C466.9,380.6,428.4,396.2,388.8,408.6z M877.4,301.7c3.5,4.6,6.7,9,10,13.2c0.4,0.5,1.3,0.5,2.1,0.6
	c17.4,1.5,34.8,3.1,52.2,4.6l73.1,6.4l60.7,5.3c6.3,0.5,12.6,1.1,19.5,1.6c-0.9-0.7-1.2-0.9-1.6-1.2c-28-18.5-56-37-83.9-55.6
	c-1.2-0.7-2.7-0.9-4-0.5L905.7,296C896.4,297.9,887.1,299.7,877.4,301.7z M580.7,139.9c-3.8,47.2-7.4,93.8-11.2,140.5
	c6.8-1.1,13.1-2.3,19.4-3.2c1.7-0.1,3.2-1.3,3.7-3c11-25.2,22.1-50.4,33.2-75.6c0.8-1.4,0.6-3.3-0.6-4.4
	c-8.9-10.8-17.8-21.6-26.7-32.4C592.8,154.7,586.9,147.6,580.7,139.9z M620.8,426.9c-0.5-0.7-1-1.2-1.4-1.7
	c-16.8-19.3-33.7-38.5-50.4-57.9c-2.4-2.7-4.5-4.1-7.9-2.6c-1.8,0.8-4.1,0-5.2,2.6c-5.6,12.8-11.4,25.5-17.1,38.3
	c-0.6,1.1-0.7,2.4-0.1,3.5c5.6,11.2,11.2,22.3,16.7,33.5c0.3,1.1,1.4,1.7,2.5,1.5c17.8-1.5,35.7-2.9,53.5-4.2c0.9,0,1.7-0.6,2.1-1.4
	C615.8,434.7,618.2,430.9,620.8,426.9L620.8,426.9z M627.8,194c2.3-5.2,4.3-9.8,6.4-14.4c0.6-1.2,0.6-2.6,0.2-3.8
	c-12.1-41.1-24.2-82.1-36.3-123.2c-2.6-9-5.3-17.9-8.3-28c-0.5,6.6-0.9,12-1.3,17.4c-2.4,30.8-4.9,61.6-7.4,92.4
	c-0.2,1.7,0.4,3.4,1.6,4.7c9,10.9,18,21.9,27,32.8L627.8,194z M846,259.7c4.4,5.9,8.6,11.5,12.7,17c0.6,0.8,1.6,1.2,2.6,0.9
	c5.8-0.6,11.6-1.2,17.4-1.7l101.4-9.7c3.7-0.4,7.4-0.8,11.8-1.3c-1.4-1-2.2-1.6-3-2.1c-15.9-10.5-31.8-21-47.6-31.6
	c-1.6-1.2-3.8-1.5-5.7-0.8c-19.5,6.4-39,12.8-58.5,19.1L846,259.7z M842.6,258.6c-4.4-5.9-8.7-11.5-12.8-17.2c-1-1.7-3-2.6-4.9-2
	c-30.2,5.2-60.3,10.3-90.5,15.3c-1.5,0.2-2.8,1.1-3.5,2.4c-6.8,10.8-13.7,21.6-20.5,32.5c-0.5,0.7-1.3,1.4-1,2.6
	c6.5-0.6,13.1-1.1,19.6-1.9c8.6-1.1,17.6-0.6,25.9-3.2c18.4-5.7,36.7-11.9,55-17.8C820.7,265.8,831.4,262.3,842.6,258.6L842.6,258.6
	z M941,228.7l1.1,0.8l52.3,34.6c0.7,0.5,1.5,0.6,2.3,0.5c22-2.1,44.1-4.2,66.1-6.3c4.1-0.4,8.1-0.8,12.7-1.3
	c-0.8-0.5-0.9-0.7-1.2-0.8l-93-39.6c-0.7-0.4-1.6-0.5-2.4-0.3L941,228.7z M653,379.9l-29.6,46.7c2.9,3.4,5.8,6.5,8.5,9.8
	c0.8,1.1,2.2,1.7,3.6,1.5c20.1-1.6,40.1-3.2,60.2-4.8c4.6-0.4,9.2-0.8,14.1-1.2c-2-6.7-3.9-13-5.7-19.4c-0.4-1.8-1.6-3.3-3.2-4.1
	c-7-4.1-14-8.3-21-12.5C671.1,390.7,662.1,385.4,653,379.9L653,379.9z M722.2,473.9l-60.4-3.2l88.5,101.4l0.6-0.4
	C741.4,539.2,731.8,506.6,722.2,473.9L722.2,473.9z M568.1,363.4l53.8,61.6l29.2-46.1c-13.3-7.9-26.5-15.8-39.6-23.5
	c-0.5-0.3-1.1-0.4-1.6-0.3C596.1,357.8,582.4,360.6,568.1,363.4z M873.8,300.3c-5-6.7-9.8-13-14.5-19.4c-0.4-0.6-1.2-1-1.9-0.8
	c-1.8,0.2-3.6,0.4-5.5,0.6c-23.5,2.3-47,4.4-70.5,6.8c-14.1,1.5-28.4,1.4-41.9,6.9c-6,2.5-12.4,4.1-19.6,6.5
	c8.5,0.8,15.8,1.4,23.2,2.1c20.5,1.8,41.1,3.7,61.7,5.3c9.5,0.7,19.1,3,28.7,0.2c3.2-0.9,6.5-1.4,9.8-2L873.8,300.3z M593.9,276.3
	l66.7-11.2c-3-10-6-19.7-8.6-29.5c-2.2-8.2-4.8-15.9-11-22.2c-4.6-4.6-8.4-10-12.7-15.3C616.8,224.2,605.5,250,593.9,276.3
	L593.9,276.3z M567.7,625.8c0-0.7-0.1-1.4-0.2-2.1c-5.5-23.1-10.9-46.1-16.4-69.2c-0.3-1.2-1.1-2.3-2.1-2.9
	c-16.1-10.7-32.2-21.3-48.2-32c-3.3-2.2-6.6-4.3-10.1-6.6c-1.5,3.4-2.8,6.6-4.4,9.5c-1.2,2.3-0.7,3.8,0.9,5.7
	c21.7,26.2,43.4,52.5,65,78.8C557.2,613.1,562.3,619.2,567.7,625.8L567.7,625.8z M815.1,218.4c4,5.4,8,10.4,11.6,15.7
	c1.5,2.2,3,2.6,5.6,2.1c23.3-4,46.7-7.9,70.1-11.9c7.2-1.2,14.5-2.5,22.2-3.8c-1-0.8-1.6-1.2-2.2-1.6c-10.5-6.9-20.9-13.9-31.4-20.8
	c-3.8-2.5-7.5-6.7-11.5-7s-8.6,3-12.8,4.8C849.5,203.3,832.5,210.8,815.1,218.4z M815.9,476.9c-25.6-15.3-50.3-29.9-75-44.6
	c-0.5-0.3-1.1-0.5-1.6-0.5c-8.8,0.7-17.7,1.4-26.8,2.1c3.8,12.8,7.5,25.4,11.2,38L815.9,476.9z M635.1,440.1
	c8.2,9.4,16.2,18.5,24.1,27.6c0.7,0.6,1.6,1,2.5,0.9c13.1,0.7,26.2,1.5,39.4,2.2c6.8,0.4,13.5,0.7,20.6,1
	c-3.8-12.7-7.4-25.1-11.1-37.7L635.1,440.1z M571.2,328.9c5.9,3.5,11.9,7,17.7,10.6c1.2,0.8,2.8,1,4.2,0.4
	c21.2-6.9,42.3-13.8,63.5-20.7c6.1-2,12.1-4,18.2-6c-1.1-3.6-2.4-6.9-3-10.3c-0.6-4.4-3-4.9-6.8-4.5c-10,1.1-20,1.9-30,3
	c-5.3,0.6-10.8,0-15.8,2.1c-14.1,5.9-28,12.3-42.1,18.2C573.9,323.1,571.8,325,571.2,328.9z M861,279.7c4.4,5.9,8.7,11.4,12.7,17.1
	c1.6,2.3,3.2,2.8,5.9,2.3c35.5-7.2,71.1-14.3,106.7-21.3c6.2-1.2,12.4-2.5,19.2-3.9c-3.6-2.4-6.7-4.5-9.8-6.6
	c-0.6-0.4-1.4-0.6-2.1-0.5l-32,3.1l-81.5,7.8C873.8,278.5,867.6,279.1,861,279.7L861,279.7z M593.2,342c6,3.6,11.4,6.8,16.8,10
	c0.8,0.5,1.8,0.6,2.6,0.3c20.7-4.1,41.4-8.3,62.1-12.4c1.8-0.4,5.9-6.5,5.4-8.3c-1.5-5.4-3.1-10.8-4.8-16.4L593.2,342z M844.7,258
	l91.6-29.8c-2.5-1.7-4.6-2.9-6.5-4.4c-1.5-1.2-3.5-1.6-5.3-1.1c-21.3,3.7-42.6,7.2-63.9,10.8c-10,1.7-19.9,3.4-30.3,5.2L844.7,258z
	 M654.1,378.2l48.4,28.8c-6.6-22.6-13.1-44.5-19.7-66.7c-2.2,1.2-4.8,0.1-6.2,2.5C669.1,354.5,661.7,366.2,654.1,378.2z
	 M881.8,189.3c0.4,0.4,0.7,0.7,1.1,1c14.6,9.6,29.1,19.3,43.7,28.9c1,0.6,2.2,0.7,3.3,0.4c7.6-1.3,15.2-2.6,22.9-3.9l18.4-3.2
	c-0.5-0.4-0.6-0.6-0.7-0.6c-23.3-9.9-46.7-19.8-70-29.7c-0.6-0.3-1.2-0.4-1.9-0.3C893.1,184.4,887.6,186.8,881.8,189.3z
	 M661.3,267.3c-0.4,0-0.7,0-1.1,0l-66.1,11.1c-0.7,0-1.3,0.4-1.5,1.1c-1.4,3.3-2.9,6.5-4.4,10c13.6,1.2,26.8,2.3,40,3.5
	c3,0.2,6.3,1.4,8.9,0.4c9.5-3.6,18.8-7.9,28.3-12C664,276.5,662.7,271.9,661.3,267.3z M354.4,419.8c1.2,0.9,2,1.5,2.8,2
	c14.6,9.7,29.5,19.1,43.8,29.3c7.3,5.2,14.7,4.2,22.9,3.7l-37.5-45.4L354.4,419.8z M246.3,465.8c2,2,4.9,2.9,7.7,2.6
	c4.6-0.5,9.3-0.8,13.9-1.1l73.2-5.9l24.7-2c-1.1-3.4-2.6-5.4-6.4-5.1c-2.9,0.3-5.8-0.2-8.7-0.4c-17.5-1-35.1-2-52.6-2.9
	c-5.5-0.3-11.5-1.9-16.4-0.3C269.7,454.9,258.3,460.6,246.3,465.8L246.3,465.8z M716.8,302.6c6.9,8.4,13.3,16.1,19.6,24
	c0.9,1.1,1.9,0.8,2.9,0.6l44.2-8.8c10.9-2.2,21.9-4.4,32.8-6.6v-0.5L716.8,302.6z M343.5,421.2c-1.9-3.3-3.6-6.3-5.4-9.1
	c-0.9-1.6-2.9-2.4-4.6-1.9c-13.8,2.9-27.5,5.5-41.3,8.3c-13.4,2.7-26.8,5.4-41.1,8.2c13.4,2.7,26,5.3,38.5,7.7
	c3.1,0.6,6.2,2.3,9.3,1.3C313.7,431,328.5,426.1,343.5,421.2z M196.8,437.5c6.3,3,10.8,7.2,17.7,7.1c10.5-0.1,20.9,1.2,31.4,1.6
	c8.9,0.3,17.8,2.1,26.6-1.7c6.5-2.8,13.4-4.5,20.9-7c-1.2-0.4-1.7-0.5-2.1-0.6c-10.8-2.2-21.7-4.3-32.5-6.5
	c-7.1-1.5-13.9-2.9-21.4-1.1C224.3,432.4,210.9,434.7,196.8,437.5z M734.9,328c-5.6-6.8-10.9-13.3-16.2-19.8
	c-4.5-5.5-4.5-5.5-11.2-3.4c-2,0.6-3.9,1.4-5.9,1.9c-1.8,0.4-3.3,1.6-4.2,3.2c-4.1,6.6-8.1,13.4-12.6,19.8c-2,3-1.8,5.4-0.2,8.4
	L734.9,328z M598.9,465.2l58.1,3.1c-8.2-9.4-16-18.2-23.7-27.2c-0.6-0.7-1.5-1-2.4-0.8l-15.4,1.3c-0.8,0.1-1.7,0.1-2.2,0.9
	L598.9,465.2z M613.8,354.2l38.5,22.9l22.2-35L613.8,354.2z M843.9,260.3l-80.1,26.1l0.1,0.5l93.2-9L843.9,260.3z M813.1,219.2
	l-72.9,31.7l0.2,0.7l86.1-14.5L813.1,219.2z M146.7,407.8l-0.2,0.4c0.2,0.1,0.4,0.2,0.6,0.3c15.4,8.9,30.8,17.9,46.2,26.8
	c0.8,0.4,1.7,0.6,2.6,0.3c6.4-1.3,12.9-2.6,19.3-3.8l25.3-5.1L146.7,407.8z M557.3,446.4c2.8,5.6,5.4,10.8,7.9,16.1
	c0.5,1,1.3,0.9,2.1,0.9c9.2,0.5,18.4,1,27.6,1.5c0.9,0.2,1.8-0.2,2.3-1c4.4-7,8.8-13.9,13.2-20.9c0.1-0.2,0-0.6,0.1-1
	c-16.9,1.3-33.6,2.6-50.4,3.9C559.4,446.1,558.6,446.2,557.3,446.4z M510.3,292.7c9,5.3,17.8,10.5,26.5,15.7
	c0.5,0.2,1.1,0.3,1.7,0.2c8.3-0.8,16.6-1.6,24.8-2.4c0.9-0.1,2,0,2.1-1.3c0.4-5.1,0.8-10.2,1.2-15.3
	C549.5,286.6,528.8,287.6,510.3,292.7L510.3,292.7z M531.7,463.7c1.6,6.8,3.1,13,4.5,19.2c0.3,1.3,1.4,1.3,2.3,1.5
	c8.2,1.7,16.4,3.3,24.7,5l13.9,2.7c0-0.4,0-0.8-0.1-1.2c-4-8.1-8-16.2-12.1-24.4c-0.3-0.6-0.6-1.1-1.4-1.1
	C553.1,464.9,542.7,464.3,531.7,463.7L531.7,463.7z M506.8,367.7c-1.1-4.6-2.2-9.1-3.3-13.8l-82.8,36
	C450.2,386.3,478.7,378.2,506.8,367.7L506.8,367.7z M509.8,462.5l-80.4-4.3c2.4,2.8,3.9,5.2,7.5,5.9c12.9,2.3,25.6,5,38.4,7.6
	l28,5.6C505.5,472.3,507.7,467.5,509.8,462.5L509.8,462.5z M824,479.4l66.9,39.8c-0.3-0.7-0.5-1.3-0.9-1.9
	c-9.5-11.7-19.1-23.3-28.6-34.9c-0.4-0.6-1-0.9-1.6-1C848.2,480.8,836.7,480.1,824,479.4L824,479.4z M402.3,454.3
	c-1-0.7-1.6-1.2-2.3-1.6c-15.2-10.1-30.4-20.1-45.5-30.3c-3-2-5.1-1.1-7.8,0.3c5.1,8.6,10,17.1,15.1,25.5c0.4,0.5,0.9,0.9,1.5,1.1
	C376.1,451.7,388.7,455.1,402.3,454.3z M523.9,430.6c2.4-5.4,4.1-10.5,6.8-15c4.1-6.7,3.7-12.5-0.4-19.2
	c-4.5-7.3-7.8-15.3-11.7-23.1l-7.8,1.6C515,393.4,519.4,411.7,523.9,430.6z M344.7,423l-35.3,15.4l50.3,10.1
	C354.5,439.8,349.7,431.5,344.7,423z M536.8,410c-3.1,7-5.6,13.8-9.1,19.9c-3.4,5.8-1.5,10.9,0.1,16.6l26.2-2.1
	C548.2,432.9,542.7,421.7,536.8,410L536.8,410z M667.9,282.4l4,13.5l34-3.3l-16.2-19.7L667.9,282.4z M520.6,372.9
	c5.1,10.3,10.1,20.2,15.2,30.5l16.1-36.8L520.6,372.9z M608.1,353.3c-6-3.6-11.4-6.8-16.8-10c-0.9-0.6-1.6-0.1-2.4,0.2
	c-7.9,2.6-15.7,5.3-23.7,7.6c-2.2,0.4-3.7,2.4-3.7,4.6c0,1.5,5.1,5.9,6.3,5.7C581,358.7,594.2,356.1,608.1,353.3z M563.3,463.3
	c-2.2-4.5-4.5-8.6-6.3-12.8c-1.3-3.1-2.9-4.2-6.5-3.7c-7.4,1-14.8,1.3-22.4,1.9c1,4,1.9,7.8,2.7,11.6c0.2,1,1,1.6,2,1.5L563.3,463.3
	z M515.5,449.6l-81.5,6.5c8.2,0.7,16.4,1.2,24.6,1.6c16.8,0.9,33.5,1.8,50.3,2.7c0.8,0,1.7,0.3,2.2-0.7
	C512.5,456.5,513.9,453.3,515.5,449.6z M562.3,326.1c-6.7-4-13.5-7.3-19.4-11.8c-6.2-4.7-12.5-2.4-19.6-2.2l19.6,22.4L562.3,326.1z
	 M286.3,448.4l75.3,4.1c-0.4-1.9-1.7-1.8-2.8-2c-14.7-3-29.3-6-44-8.8c-3.2-0.6-6.5-2.4-9.5-1.3
	C299.2,442.4,293.2,445.4,286.3,448.4L286.3,448.4z M529.5,463.5c-5.2-0.2-10.2-0.5-15.2-0.7c-0.7-0.1-1.3,0.2-1.6,0.8
	c-2.1,4.7-4.2,9.3-6.4,14.3l27.9,5.6C532.7,476.7,531.1,470.2,529.5,463.5L529.5,463.5z M632.5,295.3l-45.3-3.9
	c-1.9,4.4-3.7,8.6-5.9,13.5C598.7,301.2,616.3,304.6,632.5,295.3L632.5,295.3z M566.7,465.6l13,26.1c5.3-8.4,10.3-16.3,15.6-24.6
	L566.7,465.6z M998.1,266.6c3.1,2.1,5.8,3.9,8.5,5.7c1.1,0.8,2.6,1.1,3.9,0.8c12.9-2.6,25.9-5.2,38.9-7.7c10-2,20-4,30-6
	c0-0.2,0-0.3-0.1-0.5L998.1,266.6z M264.4,261.3L223.7,212c-0.5,0.7-0.4,1-0.3,1.3c9,15.3,18,30.5,26.9,45.8
	c0.4,0.8,1.3,1.3,2.2,1.3C256.3,260.6,260,260.9,264.4,261.3L264.4,261.3z M491.9,295.9c1.3,5.6,2.6,11.2,4,16.9l23.3-2.2
	c-2.7-3-5.4-5.4-7.1-8.3c-4.7-7.7-10.9-10-19.3-6.8L491.9,295.9z M884.9,315.2c-3.1-4.1-5.8-7.6-8.4-11.3c-0.7-1.2-2.2-1.8-3.6-1.4
	c-5.8,1.2-11.6,2.3-17.3,3.5l-22.8,4.7L884.9,315.2z M485.5,278c-1.1-3.7-0.8-7-3-9.5c-6.7-7.7-13.3-15.3-20-22.9
	c-3.5-4-6.9-7.9-10.7-12.2c0,0.8,0,1.1,0.1,1.3c5.3,10.8,10.7,21.6,16.1,32.4c0.2,0.4,0.4,0.7,0.8,0.9
	C474.1,271.1,479.5,274.4,485.5,278z M382.1,404.5c-1.3-3.1-3.2-3.8-6.1-2.8c-1.9,0.5-3.9,0.9-5.8,1.2l-31.8,6.4
	c4.6,3,8.6,5.7,12.6,8.2c0.5,0.1,0.9,0.1,1.4-0.1C362.2,413.1,372.1,408.8,382.1,404.5z M519.7,371c10.9-2.2,21.6-4.4,32.4-6.5
	c0.4-0.1,0.9-0.2,1-0.5c1.5-3.2,2.9-6.4,4.6-10.3l-40.2,13.1C518.3,368.2,519,369.5,519.7,371z M192.9,472.4l0.1,0.7
	c10.6-0.8,21.2-2,31.8-2.4c6-0.3,11.2-2.5,16.2-5c-5.3-4.8-11.1-7.1-17.9-3.2c-0.4,0.2-0.8,0.3-1.2,0.4L192.9,472.4z M705.9,411.5
	c2.1,7.1,4,13.7,6,20.4l25-2L705.9,411.5z M667.3,280.4l21-9.2c-1.7-2.1-3.3-4.1-4.9-6c-0.6-0.7-0.9-1.8-2-1.6c-6,1-11.9,2-18.1,3
	C664.7,271.4,666,275.8,667.3,280.4L667.3,280.4z M276.7,450.3l-0.1-0.9c-4.3,0-8.9-0.9-12.9,0.2c-9.9,2.6-19.5,6.1-29.5,9.4
	c3.2,1.8,6,3.5,8.7,5.1c0.6,0.4,1.3,0.4,1.9,0.2L276.7,450.3z M212.5,446.5c5.2,3,9.8,5.4,14,8.3c3.6,2.4,6.8,2.8,10.8,1.2
	c6.5-2.5,13.3-4.5,20.9-7L212.5,446.5z M612.4,304.3c0-0.2-0.1-0.4-0.1-0.6c-10.2,1-20.4,1.9-30.5,2.9c-0.6,0.1-1.1,0.4-1.4,0.8
	c-1.9,4.2-3.8,8.5-5.9,13.5L612.4,304.3z M676.8,312.6c5.9-1.9,11.5-4,17.2-5.5c3.2-0.9,4.9-2.8,6.2-5.9l-27.4-2.4
	C674.2,303.6,675.5,308,676.8,312.6z M588.3,341.5L570,330.6c-2,6.4-6.6,11.6-5.7,18.7L588.3,341.5z M585.1,291.2l-16.4-1.4
	c-0.4,5.5-0.8,10.6-1.3,16l10.9-1c0.7-0.1,1-0.5,1.2-1.1L585.1,291.2z M540.3,310.5l23.6,14c0.4-5.7,0.8-10.9,1.3-16.4L540.3,310.5z
	 M635.9,180.9c-2.2,5-4.1,9.4-6.1,13.6c-0.6,1.2-0.1,2,0.7,2.9c4.6,5.5,9.1,11,13.6,16.6c0.4,0.5,0.6,1.3,1.9,1.2L635.9,180.9z
	 M666,283.2l-23.7,10.3c9.2,1.2,18.2,2.5,27.6,2.6C668.5,291.6,667.2,287.5,666,283.2L666,283.2z M930.3,221.6
	c1.4,0.9,2.8,1.8,4.2,2.8c2.8,2.6,5.7,2.6,9.3,1.3c8.5-3.1,17.2-5.7,25.8-8.5c2.3-0.7,4.6-1.5,6.8-2.3l-0.2-1L930.3,221.6z
	 M682,330.3c4.6-7.3,9-14.2,13.8-21.7l-18.4,6C678.9,319.8,680.4,324.8,682,330.3z M690.3,270.4l29-12.6l-0.1-0.5l-34.8,5.9
	L690.3,270.4z M569,287.7l17,1.5l4.5-10.2l-21.2,3.6C569.2,284.3,569.1,285.8,569,287.7z M526.1,448.7c-2.6,0.4-5.7-0.7-7,1.3
	c-2.1,3.2-3.3,6.9-4.9,10.6l14.9,0.7C528,457.1,527.1,453.1,526.1,448.7L526.1,448.7z M902.1,180.7l74.3,31.6
	c0.1-0.9-0.1-1.2-0.4-1.3l-70.5-30.9C904.3,179.6,903,179.8,902.1,180.7L902.1,180.7z M567.3,308c-0.4,5.5-0.9,10.8-1.3,16.4
	c2.3-1.2,4.9-1.1,6-3.4c2.2-4.5,4.1-9.2,6.2-14.1L567.3,308z M475.3,281.7l6.7,13.4l7.4-1.3c-0.8-3.5-1.6-6.7-2.3-9.8
	c-0.2-0.7-0.4-1.4-1.4-1.5L475.3,281.7z M498.6,283.7c4,5,7.6,8,14,6.4c6-1.6,12.3-2.2,18.5-3.2l-0.1-0.4L498.6,283.7z M710.2,294.2
	c4,6.1,4,6.1,10.3,4.2c0.6-0.2,1.3-0.4,1.9-0.6l18.4-6l-0.1-0.5L710.2,294.2z M270.4,447c12.6,3.8,21.4-4.2,31.4-8
	C290.8,439,281.3,444.4,270.4,447z M203.1,443.9l0.2-0.6c-3.2-1.7-6.6-5-9.8-4.8c-6.5,0.2-12.9,2.2-19.3,3.5v0.3L203.1,443.9z
	 M482.9,297.1c2.4,4.9,4.8,9.5,7,14.3c0.9,1.9,2,2.1,3.8,1.2c-1.3-5.5-2.6-11-4-16.6L482.9,297.1z M419.7,463.3l22.4,14.8
	C437.1,469.4,431.4,461.9,419.7,463.3L419.7,463.3z M615.2,439.6l15.6-1.2l-8.6-9.8L615.2,439.6z M392.9,457.2
	c-9.3-2.2-18-1.9-27.1-2.5l2.7,4.4L392.9,457.2z M488.7,282.1c1.1,4.4,1.9,7.8,2.7,11.4l11.4-1.9
	C498.7,287.4,493.7,285.6,488.7,282.1z M514.7,365.5c-2.3-4.7-4.4-9-6.5-13.2c-1-0.1-1.9,0.4-2.5,1.1c1.1,4.5,2.2,9.2,3.3,13.9
	L514.7,365.5z M680.1,297.1l-0.1,0.3c6.1,0.5,12.3,0.7,18.4,1.7c3.8,0.6,4.7-1.4,5.8-4.2L680.1,297.1z M653.7,297.6
	c-8.5-0.7-17.2-4.1-25.1,2.4L653.7,297.6z M507.3,370l-22.9,7.5l0.1,0.5l23.6-4.7C507.9,372.1,507.7,371.3,507.3,370z M429.8,462.3
	c-1.2-1.5-1.9-4-3.7-4.2c-4.6-0.4-9.2-1.3-15,0.1C417.8,460.6,423.9,461.1,429.8,462.3z M550.4,285.7l0.1,0.5l16.3,1.3
	c0.1-1.7,0.2-3,0.3-4.6L550.4,285.7z M510.2,372.9l7.3-1.5l-2-4l-6.1,2C509.7,370.6,509.9,371.6,510.2,372.9z M983.8,214.5l-0.3,0.9
	l23.9,10.1c0.1-0.2,0.2-0.4,0.3-0.6L983.8,214.5z M707.3,294.3l-3.3,5.2l8,0.6L707.3,294.3z M525.5,446.7l-1.8-7.6
	c-1.4,3.1-2.4,5.4-3.5,8L525.5,446.7z M384.7,407.8l-0.4-1.5c-5.1,0.8-9.5,4-14.2,6.2L384.7,407.8z M317.9,431.7l-14.8,4.8
	C309,437.9,313.1,433.6,317.9,431.7z M493.5,281.1l-6.8-7.8C488.1,280.5,488.6,281,493.5,281.1z M560.3,357.6l-2.6,5.8l6.4-1.4
	L560.3,357.6z M492,315.5c1.3,2.6,2.5,5.1,4.2,8.3C494.9,315.2,494.7,314.9,492,315.5z M565.7,328.1c-0.2,2.7-0.4,5-0.6,7.4l0.5,0.1
	l2.6-6C567.4,329.1,566.8,328.7,565.7,328.1L565.7,328.1z M238.2,469.6l8.4-0.8C243.5,466.6,243.5,466.6,238.2,469.6z M679.2,338.7
	c1,0.3,2.1,0.2,3-0.5c-0.2-0.8-0.5-1.7-0.8-3C680.5,336.6,679.8,337.6,679.2,338.7z M364.3,451.5c1.6,1.7,3.6,1.2,5.6,1.1
	L364.3,451.5z M1011,227c-0.7-1.1-2-1.6-3.3-1.4L1011,227z M1025.1,232.6c-0.6-0.3-1-1-1.9-0.4
	C1023.8,232.5,1024.2,233.1,1025.1,232.6z M483.4,378.2v-0.1h-0.9v0.1H483.4z M419.4,390.6v0.2l0.6-0.1v-0.3L419.4,390.6z
	 M221.1,210c0.3,0.3,0.5,0.4,0.5,0.4s0.2-0.2,0.3-0.3L221.1,210z M1142.5,285.7l0.4,0.2c0-0.1,0-0.2,0-0.3c0,0-0.2-0.1-0.2,0
	C1142.7,285.5,1142.6,285.6,1142.5,285.7z M320.2,431.6h-1.4v0.2L320.2,431.6z M1052.7,242.1c-0.1,0-0.1,0-0.2,0c0,0,0,0.1-0.1,0.1
	c0.1,0,0.1,0,0.2,0C1052.6,242.3,1052.7,242.1,1052.7,242.1z M191.4,473v0.1h0.6V473H191.4z M739.5,251.6v-0.1l-0.5,0.1v0.2
	L739.5,251.6z M451.6,233.2l-0.1-0.2c-0.1,0.1-0.2,0.1-0.2,0.2s0.1,0.1,0.1,0.2L451.6,233.2z M1022.4,231.5l-0.2,0.1
	c0.1,0.1,0.1,0.2,0.2,0.2c0.1,0,0.1-0.1,0.2-0.1C1022.5,231.6,1022.5,231.5,1022.4,231.5z M1025.9,233l-0.2,0.1c0,0,0.1,0.1,0.2,0.1
	c0.1,0,0.1-0.1,0.2-0.1L1025.9,233z M1051.4,241.7l0.1-0.1h-0.2L1051.4,241.7z M1144.1,286.1l-0.2-0.1l-0.1,0.3c0.1,0,0.1,0,0.2,0
	C1144,286.2,1144,286.2,1144.1,286.1L1144.1,286.1z M1050.6,241.1c0,0-0.1-0.1-0.2-0.1s-0.1,0.1-0.2,0.1c0,0,0.1,0.1,0.1,0.1
	C1050.4,241.2,1050.5,241.2,1050.6,241.1L1050.6,241.1z M891,518.6l-0.2-0.2l-0.2,0.2l0.2,0.2L891,518.6z"/>
<path class="st1" d="M292.5,291.9c8.1,10,16.3,20,24.5,30c0.8,1,1.6,0.8,2.6,0.6c21.2-3.6,42.5-7.2,63.7-10.7c2,0,4.1-0.2,5.9,1.1
	l-70,11.8c2.5,2.1,3.1,5,7.2,4.5c9.3-1.4,18.7-1.9,28-2.8c22.2-2.2,44.4-4.3,66.5-6.5c2.6-0.1,5.3,0.4,7.6,1.5l-103.8,9.9l5.4,6.5
	c-1.1,0.3-2.3,0.2-3.3-0.4c-2.9-5.3-4.3-6-10.1-5.4l-4,0.4l-17.9,1.8l1,2.1c-0.9,0.3-1.8,0.2-2.6-0.2c-0.2-1.7-1.4-1.8-2.7-1.6
	c-3,0.4-5.9,0.6-8.9,1h-0.2l-0.2,0.1l-2.6,0.1c-4.2-0.3-8.5,0.4-12.8-0.7l25.3-2.5c-0.6-1.6-1-2.9-3-2.5c-9.3,1.6-18.6,3.2-27.9,4.9
	c-3.2,0.3-6.5,0.1-9.7-0.5l38-6.5l-24.8-42c1.2-0.6,2,0.2,2.9,0.6l24,41l24.8-4.2L288.9,291C290.1,290.9,291.4,291.2,292.5,291.9z
	 M292.1,329.2c0.6,2.5,1.7,3.1,3.7,2.8c2.3-0.4,4.6-0.4,6.9-0.6c5.8-0.6,11.6-1.1,17.9-1.8c-1.8-1.7-2.3-4.5-4.5-4.2
	C308.2,326.4,300.2,327.9,292.1,329.2L292.1,329.2z"/>
<path class="st1" d="M431.2,569.3c-4.9-8.1-9.8-16.2-14.6-24.3c-10.4-17.5-20.7-35-31-52.6h2.6c9,15.5,18.1,31,27.2,46.5
	c5.8,9.8,11.5,19.6,17.3,29.4L431.2,569.3z"/>
<path class="st1" d="M503.1,337.4l3.8,7.9c-1.8,0.4-3.8,0.3-5.6-0.4c-0.6-2.8-1.3-5.6-1.9-8.5C500.7,336.4,502,336.7,503.1,337.4z"
	/>
<path class="st1" d="M528.8,342.9l-6.8,3c-1.8,0.7-3.7,0.7-5.5,0l8.8-3.9C526.5,341.9,527.8,342.2,528.8,342.9z"/>
<path class="st1" d="M449.2,13.9c0,0.6-0.6,1.1-1.2,1.1c-0.1,0-0.2,0-0.3-0.1c0.1-0.7,0.7-1.1,1.4-1
	C449.1,13.9,449.2,13.9,449.2,13.9z"/>
<path class="st1" d="M454,11l-0.8,0.4C453.2,10.8,453.7,11,454,11z"/>
<path class="st1" d="M453.2,11.4c-0.1,0.4-0.6,0.7-1,0.5C452.3,11.3,452.7,11.3,453.2,11.4z"/>
<path class="st1" d="M451.7,12.4c-0.1,0.4-0.5,0.7-0.9,0.6c0,0-0.1,0-0.1,0C450.8,12.3,451.2,12.3,451.7,12.4z"/>
<path class="st1" d="M937.7,182.9c-0.5,0.1-0.9,0.1-1-0.5C937.1,182.3,937.6,182.2,937.7,182.9z"/>
<path class="st1" d="M936.7,182.4c-0.5,0.1-0.9,0.1-1-0.5C936.1,181.8,936.6,181.8,936.7,182.4z"/>
<path class="st1" d="M935.7,181.9c-0.5,0.1-0.9,0.1-1-0.5C935.1,181.3,935.6,181.3,935.7,181.9z"/>
<path class="st1" d="M450.2,13.4c-0.2,0.5-0.5,0.8-1,0.5C449.3,13.3,449.7,13.2,450.2,13.4z"/>
<path class="st1" d="M934.7,181.4c-0.5,0.1-0.9,0.1-1-0.5C934.1,180.8,934.6,180.8,934.7,181.4z"/>
<path class="st1" d="M1230.7,322.6l-1-0.8C1230.2,321.8,1230.7,321.9,1230.7,322.6z"/>
<path class="st1" d="M932.7,180.4c-0.5,0.1-0.9,0-1-0.5C932.1,179.9,932.5,179.9,932.7,180.4z"/>
<path class="st1" d="M931.7,179.9l-1.3-0.5C930.9,179.4,931.4,179.3,931.7,179.9z"/>
<path class="st1" d="M288.9,288.1l0.6,0.4l-0.2,0.3l-0.8-0.3L288.9,288.1z"/>
<path class="st1" d="M933.7,180.9c-0.5,0.1-0.9,0.1-1-0.5C933.1,180.3,933.5,180.3,933.7,180.9z"/>
<path class="st1" d="M804.7,138.9l1.1,0.5C805.4,139.3,804.8,139.6,804.7,138.9z"/>
<path class="st1" d="M139.2,229.4l-1,0.5C138.2,229.1,138.8,229.4,139.2,229.4z"/>
<path class="st1" d="M734.6,103.3c0.5,0,1-0.1,1.1,0.5C735.2,104,734.8,103.9,734.6,103.3z"/>
<path class="st1" d="M735.7,103.9c0.5-0.1,0.9-0.2,1,0.5C736.2,104.5,735.8,104.5,735.7,103.9z"/>
<path class="st1" d="M450.7,12.9l-0.5,0.5L450.7,12.9z"/>
<path class="st1" d="M452.2,11.9l-0.5,0.5L452.2,11.9z"/>
<path class="st1" d="M113.2,399l0.4,0.4L113.2,399z"/>
<path class="st1" d="M139.9,228.9l-0.8,0.5L139.9,228.9z"/>
<path class="st0" d="M1046.7,239.1l3.5,1.7c-1.4,0-2.8-0.4-3.9-1.3L1046.7,239.1z"/>
<path class="st0" d="M184.8,345.3c-0.1-0.1-0.1-0.3,0-0.4c1.2-0.6,2.5-0.4,4.5-0.2L184.8,345.3z"/>
<path class="st0" d="M1019.3,230l2.5,1c-0.9,0.4-1.9,0.1-2.6-0.6C1019.2,230.2,1019.3,230.1,1019.3,230z"/>
<path class="st0" d="M441.8,389.2l0.1-0.6l1.8-0.2l0,0L441.8,389.2z"/>
<path class="st0" d="M1025.1,232.6c-0.9,0.5-1.3-0.1-1.9-0.4C1024.1,231.6,1024.5,232.3,1025.1,232.6z"/>
<path class="st0" d="M443.7,388.4l1.2-0.5l0.1,0.4L443.7,388.4L443.7,388.4z"/>
<path class="st0" d="M1052.7,242.1c0,0,0,0.1-0.1,0.1c-0.1,0-0.1,0-0.2,0c0-0.1,0-0.1,0.1-0.1C1052.5,242,1052.6,242.1,1052.7,242.1
	z"/>
<path class="st0" d="M1027.4,233.7"/>
<path class="st0" d="M1022.4,231.5l0.2,0.2c-0.1,0-0.1,0.1-0.2,0.1c-0.1,0-0.1-0.1-0.2-0.2C1022.2,231.5,1022.4,231.5,1022.4,231.5z
	"/>
<path class="st0" d="M1025.9,233l0.2,0.2c-0.1,0-0.1,0.1-0.2,0.1c-0.1,0-0.1-0.1-0.2-0.1L1025.9,233z"/>
<polygon class="st0" points="1051.4,241.7 1051.3,241.6 1051.5,241.6 "/>
<path class="st0" d="M1050.6,241.1c-0.1,0-0.1,0.1-0.2,0.1c-0.1,0-0.1-0.1-0.1-0.1s0.1-0.1,0.2-0.1
	C1050.4,241,1050.5,241.1,1050.6,241.1z"/>
</svg>
