<svg id="Layer_1" data-name="Layer 1" xmlns="http://www.w3.org/2000/svg" viewBox="0 0 1264.09 630.35"><defs><style>.cls-1{fill:#6666FF;}</style></defs><path class="cls-1" d="M100.6,656c.9-2.07,1.76-1.37,2.67-.62,3.54,2.91,7.21,5.68,10.61,8.74,14.54,13.08,32.59,20.61,48.71,31.16,9.45,6.2,20.31,7.06,30.72,9.62,14.46,3.57,29.05,6.65,43.57,9.94a7.7,7.7,0,0,0,4.41,0c59.34-20.63,120.38-35.32,180.83-52.11,15.74-4.37,30.79-11.2,46.14-17,32.1-12,64-24.68,96.36-36,22-7.69,44.74-13.55,67.16-20.2,17.31-5.13,34.84-9.64,51.89-15.53,8.71-3,16.63-8.33,24.83-12.74,48.83-26.26,97.81-52.25,146.36-79,19.59-10.8,38.24-23.31,57.31-35,6.44-4,12.84-8,19.63-12.2-5.28-4.93-10.63-9.32-15.26-14.37-7.58-8.27-17.35-13-27-18-38.23-19.76-76.22-40-114.73-59.21-19.11-9.52-39.08-17.38-58.84-25.55-43.09-17.81-84.94-38.35-127.38-57.62-9.67-4.39-20.48-6.29-30.8-9.21q-41.68-11.79-83.39-23.47a35.8,35.8,0,0,1-6.56-3q-36-18.24-71.92-36.51a13.9,13.9,0,0,1-3.61-2.62Q374.9,168,357.46,150.62a10.15,10.15,0,0,0-3.19-2.33c-31.62-13.89-63.19-27.9-94.89-41.62-5.49-2.37-11.74-2.22-17.65-3.13Q191.5,95.8,141.23,88.22a9.65,9.65,0,0,0-7.3,1.43c-11.17,7.41-22.49,14.6-33.7,21.95-6.92,4.54-15,5.73-22.66,8.22C61.83,125,46,129.71,30.13,134.56a5.62,5.62,0,0,0-3.49,2.87c-7.9,13.9-15.86,27.76-23.77,41.65a11.16,11.16,0,0,1-2.73,3.19C-21.29,199.49-43,216.37-64,234.09c-13.87,11.69-26.73,24.58-40,36.94a11,11,0,0,0-1.27,1.19c-10.7,13.2-26.61,17.39-41.23,23.71-28.27,12.22-56.65,24.17-85,36.24-.59.25-1.15.57-2.26,1.13l32.8,7.13L92.6,403.91q68.58,14.83,137.15,29.7c1.13.24,3.43-.16,2.41,2.63l-561-24.38c3.54,7.47,7.41,14.23,10,21.45,3.21,9,9,14.09,17.85,17.49s17.55,7.25,26.77,9.47c15.54,3.75,29.45,11.13,43.69,18,16.38,7.93,28.8,20.82,42.88,31.63,6.15,4.72,11.91,9.93,18,14.66a26.49,26.49,0,0,1,7.38,9.2c6.82,13,12.72,26.6,21.84,38.35a4.16,4.16,0,0,0,3.67,1.89q121.62,1.37,243.23,2.83,69.11.84,138.23,1.74c1.32,0,2.64,0,3.93,0,.91,2.54-.72,2.22-2,2.21l-48.49-.65q-58.87-.76-117.74-1.51-101.36-1.26-202.72-2.49c-5.17-.07-10.33-.21-15.5-.15a4.31,4.31,0,0,1-3.88-2c-9.95-12.81-16.17-27.72-23.77-41.85A13.44,13.44,0,0,0-168.8,528q-24.39-19.92-48.74-39.9c-3.13-2.56-6.94-3.91-10.44-5.82-4.89-2.68-10-4.91-14.82-7.75-13.9-8.27-29.75-10.93-44.76-16-9.09-3.07-17.53-7.67-26.34-11.38-.91-.38-1.11-1.21-1.45-1.93-4.82-10.15-9.61-20.32-14.46-30.45a7.2,7.2,0,0,1-.44-5L217.57,433.5l.06-.38L-241,333.91l34.88-14.86q42.74-18.19,85.45-36.39c4.12-1.75,6.84-5.29,9.88-8.29C-77.37,241.53-41,212.2-4.29,183.26a28.43,28.43,0,0,0,7.35-8.62C10.44,161.5,18,148.46,25.43,135.35a5,5,0,0,1,3.14-2.53c20.84-6.41,41.62-13,62.49-19.29,7.22-2.18,12.76-7.06,19-10.85a223.08,223.08,0,0,0,19.63-12.86c4.76-3.63,9.83-3.94,15.09-3.15q56,8.37,111.84,17.13c7.26,1.15,13.59,5.33,20.28,8.25C303,123.42,329,135,355.06,146.39a11,11,0,0,1,3.46,2.38c10.26,10.24,20.65,20.37,30.78,30.73a48.55,48.55,0,0,0,13.19,9.6c23.44,11.77,46.63,24,70.24,35.4,7.17,3.46,15.37,4.8,23.13,7,30.35,8.57,60.82,16.77,91,25.83,8.91,2.67,17.19,7.56,25.63,11.7,52.19,25.6,106.16,47.17,159.29,70.65,18.77,8.3,36.63,18.64,54.89,28.1q39.79,20.63,79.56,41.32c3.24,1.69,5.49,4.56,8.13,7,5.93,5.37,11.7,10.91,17.59,16.32,2.33,2.14,2.13,3.64-.56,5.4-50.82,33.14-103.85,62.43-157.49,90.7-28.8,15.17-57.28,30.95-86.07,46.12-8.09,4.26-17.33,5.7-26.07,8.31-31.18,9.31-62.58,17.89-93.55,27.85-21.52,6.93-42.47,15.66-63.66,23.61-26.65,10-53.09,20.56-80,29.81-16.41,5.65-33.47,9.44-50.31,13.76-43.39,11.11-86.4,23.46-128.86,37.73-5.33,1.79-10.67.89-16-.31q-28.6-6.48-57.24-12.89a15.07,15.07,0,0,1-4.37-1.76c-14-8.19-28.36-15.87-42-24.7C116.88,670.18,109,662.73,100.6,656Z" transform="translate(330.51 -86.31)"/></svg>