<svg id="Layer_1" data-name="Layer 1" xmlns="http://www.w3.org/2000/svg" viewBox="0 0 1264.18 630"><defs><style>.cls-1{fill:#6666FF;}.cls-2{fill:#3CB371;}</style></defs><path class="cls-1" d="M-325.46,78.75c-2-1.38-.73-3.3-1-5a10.12,10.12,0,0,1,5.74.47q261.95,92.58,523.9,185.11L706.62,437.14q114.32,40.39,228.61,80.8c1.42.5,2.75.87,2.23,2.81l-1.35,0c-.68-.29-1.36-.6-2.06-.85q-27.57-9.72-55.16-19.44-24-8.48-47.9-17l-1.45-.5h0l-1.15-.44a.36.36,0,0,1-.33-.07L827,482l0,0-1.54-.53,0,0L824,481h0l-1.52-.52h0L821,480h0l-1.22-.47a.2.2,0,0,1-.25,0l-1.21-.45a.25.25,0,0,1-.26,0l-1.13-.47.06,0-1.55-.53.06,0L814,477.5l0,0a4.35,4.35,0,0,0-2.78-1h-.14l-1.34-.5-.14,0-1.17-.48.07,0L807,475l.06,0-1.56-.54.06,0a9,9,0,0,0-4.3-1.53l0,0-1.22-.51.06,0-1.56-.53.06,0a15.42,15.42,0,0,0-5.8-2l0,0-1.52-.52,0,0L790,469l.06,0a23.13,23.13,0,0,0-7.3-2.53l0,0-1.3-.51,0,0a34,34,0,0,0-8.55-3l0,0c-3-1.14-5.92-2.43-9-3.4-3.75-1.2-7.25-3.19-11.26-3.55l-1-.16a13.47,13.47,0,0,0-7.68-2.9l-.81-.1c0-1.25-1.17-1.05-1.84-1.29q-57.16-20.24-114.35-40.41Q547,382.92,466.87,354.57,309.51,299,152.11,243.5,103.06,226.21,54,209l-1.09-.44a.82.82,0,0,1-.38-.06l-1.1-.45a.72.72,0,0,1-.36-.06L50,207.51,45.55,206l-1.22-.47a.37.37,0,0,1-.25,0L42.84,205l-.22,0-1.26-.48L37.15,203l-1.4-.52h-.09l-1.4-.52-.08,0-1.41-.52h-.06L31.27,201l-2.52-1L27,199.48l.07,0L25.73,199v0l-1.51-.53,0,0L23,198l.07,0-1.8-.54-.95-.46-1.81-.54.06,0L17,196l.06,0-1.31-.52,0,0L14.46,195l.07,0-1.81-.54-.94-.46L10,193.49l.06,0L8.47,193l.06,0-1.31-.52.06,0L5.72,192l.06,0-1.31-.53.06,0L2.72,191l-.94-.47L0,190,0,190c-.35-.66-1-.44-1.56-.52l.06,0L-2.78,189l.06,0L-4,188.49l.05,0L-5.53,188l0,0L-7,187.49l.06,0c-.37-.63-1-.48-1.56-.53l.06,0c-.35-.67-1-.48-1.56-.53l.06,0c-.34-.7-1-.46-1.56-.52l.06,0c-.15-.59-.65-.46-1.06-.52l0,0L-14,185l0,0-1.55-.53,0,0c-.36-.63-1-.5-1.55-.53l.05,0c-.35-.67-1-.5-1.55-.53l.05,0c-.33-.7-1-.48-1.54-.52l0,0c-.24-.64-.81-.48-1.3-.52l.05,0-1.3-.52.05,0-1.55-.53.05,0c-.36-.63-1-.52-1.54-.53l0,0c-.35-.67-1-.51-1.54-.53l0,0c-.33-.71-1-.5-1.54-.52l0,0c-.32-.73-1-.51-1.54-.52l0,0c-.13-.62-.63-.48-1.05-.52l.05,0c-.38-.59-1-.53-1.55-.53l.05,0c-.36-.63-1-.53-1.55-.53l.05,0c-.35-.68-1-.53-1.55-.53l.05,0c-.33-.72-1-.53-1.54-.53l0,0c-.32-.73-1-.53-1.54-.52l0,0c-.12-.63-.63-.49-1.05-.51l.05,0c-.38-.58-1-.54-1.55-.52l.05,0a4.05,4.05,0,0,0-3.05-1l.05,0c-.33-.71-1-.55-1.55-.53l.05,0c-.32-.75-1-.56-1.54-.53l0,0c-.32-.75-1-.57-1.54-.52l0,0c-.11-.65-.62-.5-1.05-.51l.05,0A8.17,8.17,0,0,0-54,171l.05,0c-.32-.75-1-.57-1.55-.53l.05,0c-.32-.75-1-.59-1.55-.52l.05,0c-.11-.65-.62-.51-1.05-.51l.05,0a13.28,13.28,0,0,0-6.05-2l.05,0c-.32-.76-.94-.62-1.55-.53l0,0c-.11-.67-.61-.52-1-.52l0,0a13.16,13.16,0,0,0-6-2l0,0c-.32-.76-.94-.63-1.55-.53l0,0c-.31-.78-.92-.67-1.55-.53l0,0a14.18,14.18,0,0,0-7-2.52l0,0c-.31-.78-.92-.68-1.55-.53l0,0a19.79,19.79,0,0,0-8.55-3l0,0c-.4-1.06-1.47-1-2.26-1.25Q-156.38,134.48-218,112.73l-106.34-37.5c-.58-.33-.95-.06-1,.5-.09,1,.72,1.07,1.4,1.24H-324l.49.34.72.47,1.32.2V77.9c3.61,3,8.09,4.47,12.2,6.57A1.09,1.09,0,0,0-308,85l0,0c.3,1,1.25,1,1.94,1.39q61.31,32,122.63,64L154,326.31,490.5,501.82l321,167.4q31.43,16.39,62.9,32.72c.47.4,1.07.72.85,1.51h-5c-2-1.23-4.26-1.49-6.48-2a21.94,21.94,0,0,0-2.25-1q-137-41.06-274-82.08Q353.32,548.24,119.16,478q-154.33-46.28-308.67-92.51-28.44-8.52-56.92-16.95a2.28,2.28,0,0,0-2-.62c-1,2.88-1.89,5.59-2.74,8.31q-25.62,82-51.18,164.08c-2.29,7.37-5,14.62-6.56,22.2-1,3.38-2,6.77-3,10.14q-5.47,17.9-11,35.77c-.65.93-1.53.52-2.36.4,4.87-19.37,11.49-38.2,17.38-57.26Q-279,458-249.87,364.43c.2-.63.37-1.27.55-1.91l1.32-4.25c1.32-1.54.08-5,3.86-5.29l-1.63,13.41L859.41,697.74a3,3,0,0,0-1.73-2.09q-152.55-79.59-305.1-159.16L285.76,397.35q-198-103.23-395.9-206.47l-162.08-84.53q-25.14-13.09-50.31-26.1ZM860.66,698c.26-.17-.1-1.24-.65-.15Z" transform="translate(326.61 -73.49)"/><path class="cls-2" d="M863.77,701.49c2.22.48,4.5.74,6.48,2-14.61.26-29.09-1.68-43.62-2.76-30.74-2.28-61.46-4.79-92.18-7.21l-92.68-7.3-97.9-7.7-98.41-7.76L347.31,663l-98.66-7.79-98.15-7.72L52.09,639.7Q3,635.83-46.06,632t-98.41-7.77l-98.15-7.73L-323.83,610c-.71-.06-1.9.32-1.5-1.2.83.12,1.71.53,2.36-.4,7.31.46,14.63.82,21.94,1.39q45.58,3.54,91.17,7.18l92.42,7.27L-19.3,632l98.15,7.72L177,647.49q49.2,3.88,98.4,7.73,45.83,3.62,91.66,7.27l86.44,6.8,91.17,7.2,92.92,7.31,85.19,6.7q46.34,3.63,92.67,7.27Q839.6,699.66,863.77,701.49Z" transform="translate(326.61 -73.49)"/><path class="cls-2" d="M-325.46,78.75l2.93,1.5c-.59,1.11.11,2.08.37,3.07q33.36,124.31,66.77,248.61c2.37,8.81,4.92,17.56,7.39,26.34l-1.32,4.25Q-279,252-308.72,141.4-317.12,110.08-325.46,78.75Z" transform="translate(326.61 -73.49)"/><path class="cls-2" d="M936.11,520.77l1.35,0a8.82,8.82,0,0,1-.54,4.16q-30,88.17-60.08,176.34c-.28.8-.05,2.17-1.55,2.2.22-.79-.38-1.11-.85-1.51Q905.28,611.35,936.11,520.77Z" transform="translate(326.61 -73.49)"/><path class="cls-2" d="M743.28,452.92,494.19,365.6Q256.62,282.32,19.05,199.06q-162-56.77-324-113.46c-.95-.34-1.88-1.13-3-.64l0,0c-.22-.72-.72-.72-1.3-.52-4.11-2.1-8.59-3.53-12.2-6.57,1.15-.36,2.1.34,3.07.68l196,68.69c10,3.49,19.94,6.84,29.92,10.25l0,0a36.58,36.58,0,0,0,8.55,3l0,0a1.51,1.51,0,0,0,1.55.53l0,0a25,25,0,0,0,7,2.52l0,0L-74,164l0,0a1.51,1.51,0,0,0,1.55.53l0,0a14.35,14.35,0,0,0,6,2l0,0c.12.63.63.49,1,.52l0,0,1.55.53-.05,0a15.39,15.39,0,0,0,6.05,2l-.05,0c.13.61.63.49,1.05.51l-.05,0,1.55.52-.05,0L-54,171l-.05,0a9.16,9.16,0,0,0,4.55,1.53l-.05,0c.14.59.63.48,1.05.51l0,0,1.54.52,0,0,1.54.53-.05,0c.38.57,1,.54,1.55.53l-.05,0a4.36,4.36,0,0,0,3.05,1l-.05,0c.34.69,1,.54,1.55.52l-.05,0c.14.59.63.48,1.05.51l0,0L-37,177l0,0,1.54.53-.05,0c.38.59,1,.53,1.55.53l-.05,0c.37.63,1,.54,1.55.53l-.05,0c.35.66,1,.54,1.55.53l-.05,0,1.05.52,0,0,1.54.52,0,0,1.54.52,0,0,1.54.53,0,0c.37.6,1,.52,1.54.53l-.05,0c.36.64,1,.52,1.55.53l-.05,0c.27.6.81.49,1.3.52l-.05,0,1.3.52,0,0,1.54.52-.05,0L-17,184l-.05,0,1.55.53,0,0c.37.6,1,.51,1.55.53l0,0c.36.64,1,.51,1.55.53l0,0,1.06.52-.06,0,1.56.52-.06,0,1.56.53-.06,0,1.56.53-.06,0,1.55.53,0,0c.37.62,1,.49,1.55.53l-.05,0,1.31.53-.06,0,1.31.52-.06,0L0,190,0,190l1.81.53.94.47,1.81.53-.06,0,1.31.53-.06,0,1.56.53-.06,0,1.31.52-.06,0,1.56.54-.06,0,1.81.53.94.46,1.81.54-.07,0,1.31.53,0,0L17,196,17,196l1.56.53-.06,0,1.81.54.95.46L23,198,23,198l1.29.52,0,0,1.51.53v0l1.31.52-.07,0,1.78.54,2.52,1,1.44.52h.06l1.41.52.08,0,1.4.52h.09l1.4.52,4.21,1.48,1.26.48.22,0,1.24.48a.39.39,0,0,0,.26,0l1.21.47L50,207.51l1.11.45a.72.72,0,0,0,.36.06l1.1.45a.82.82,0,0,0,.38.06L54,209q49.05,17.26,98.11,34.53Q309.51,299,466.87,354.57,547,382.86,627.09,411.22q57.18,20.22,114.35,40.41C742.11,451.87,743.26,451.67,743.28,452.92Z" transform="translate(326.61 -73.49)"/><path class="cls-2" d="M-246.43,368.54q-18.87,58.8-37.75,117.59-11.91,37-23.84,74.1c-.25.78-.61,1.52-.93,2.28,1.55-7.58,4.27-14.83,6.56-22.2q25.5-82.06,51.18-164.08c.85-2.72,1.78-5.43,2.74-8.31A2.28,2.28,0,0,1-246.43,368.54Z" transform="translate(326.61 -73.49)"/><path class="cls-2" d="M773,463a211.46,211.46,0,0,1-20.22-6.95c4,.36,7.51,2.35,11.26,3.55C767.09,460.6,770,461.89,773,463Z" transform="translate(326.61 -73.49)"/><path class="cls-2" d="M751.77,455.92l-7.69-2.9A13.47,13.47,0,0,1,751.77,455.92Z" transform="translate(326.61 -73.49)"/><path class="cls-2" d="M781.51,466a31.92,31.92,0,0,1-8.55-3A34,34,0,0,1,781.51,466Z" transform="translate(326.61 -73.49)"/><path class="cls-2" d="M790,469a27.25,27.25,0,0,1-7.3-2.53A23.13,23.13,0,0,1,790,469Z" transform="translate(326.61 -73.49)"/><path class="cls-2" d="M798.52,472a18.07,18.07,0,0,1-5.8-2A15.42,15.42,0,0,1,798.52,472Z" transform="translate(326.61 -73.49)"/><path class="cls-2" d="M805.52,474.53,801.23,473A9,9,0,0,1,805.52,474.53Z" transform="translate(326.61 -73.49)"/><path class="cls-2" d="M-324.35,75.23c.14.58.28,1.16.41,1.74-.68-.17-1.49-.26-1.4-1.24C-325.3,75.17-324.93,74.9-324.35,75.23Z" transform="translate(326.61 -73.49)"/><path class="cls-2" d="M814,477.52l-2.77-1A4.34,4.34,0,0,1,814,477.52Z" transform="translate(326.61 -73.49)"/><path class="cls-2" d="M831,483.49l-1.45-.5Z" transform="translate(326.61 -73.49)"/><path class="cls-2" d="M827,482.05l-1.54-.53Z" transform="translate(326.61 -73.49)"/><path class="cls-2" d="M825.5,481.54,824,481Z" transform="translate(326.61 -73.49)"/><path class="cls-2" d="M824,481l-1.52-.52Z" transform="translate(326.61 -73.49)"/><path class="cls-2" d="M822.51,480.51,821,480Z" transform="translate(326.61 -73.49)"/><path class="cls-2" d="M817,478.54l-1.55-.53Z" transform="translate(326.61 -73.49)"/><path class="cls-2" d="M815.52,478,814,477.5Z" transform="translate(326.61 -73.49)"/><path class="cls-2" d="M808.52,475.54,807,475Z" transform="translate(326.61 -73.49)"/><path class="cls-2" d="M807,475l-1.56-.54Z" transform="translate(326.61 -73.49)"/><path class="cls-2" d="M800,472.54l-1.56-.53Z" transform="translate(326.61 -73.49)"/><path class="cls-2" d="M782.76,466.52l-1.3-.51Z" transform="translate(326.61 -73.49)"/><path class="cls-2" d="M791.24,469.52,790,469Z" transform="translate(326.61 -73.49)"/><path class="cls-2" d="M792.74,470l-1.52-.52Z" transform="translate(326.61 -73.49)"/><path class="cls-2" d="M801.18,473l-1.22-.51Z" transform="translate(326.61 -73.49)"/><path class="cls-2" d="M809.62,476l-1.17-.48Z" transform="translate(326.61 -73.49)"/><path class="cls-2" d="M811.1,476.51l-1.34-.5Z" transform="translate(326.61 -73.49)"/><path class="cls-2" d="M818.08,479l-1.13-.47Z" transform="translate(326.61 -73.49)"/><path class="cls-2" d="M819.55,479.48l-1.21-.45Z" transform="translate(326.61 -73.49)"/><path class="cls-2" d="M821,480l-1.22-.47Z" transform="translate(326.61 -73.49)"/><path class="cls-2" d="M828,482.47,827,482Z" transform="translate(326.61 -73.49)"/><path class="cls-2" d="M829.5,483l-1.14-.44Z" transform="translate(326.61 -73.49)"/><path class="cls-2" d="M-322.79,77.77c.53-.57,1-.67,1.32.2Z" transform="translate(326.61 -73.49)"/><path class="cls-2" d="M-324,77l.49.34Z" transform="translate(326.61 -73.49)"/></svg>