<svg id="Layer_1" data-name="Layer 1" xmlns="http://www.w3.org/2000/svg" viewBox="0 0 1264.14 630.02"><defs><style>.cls-1{fill:#6666FF;}</style></defs><path class="cls-1" d="M216.81,628.26c-6-8.46-14-15.16-22.22-21-15.9-11.33-23.67-27.74-30.74-44.81-1.7-4.09,4.59-12.32,9.57-13.62,4.74-1.23,8.59.74,12.63,2.45,6.75,2.86,6.27,2.87,6.9,10.18,1,11.74,3.1,23.45,10.23,33.2a60.77,60.77,0,0,0,12.88,12.48c7.49,5.55,14.88,11.31,24.62,13.12,10.61,2,20.78,6,31.55,7.49,5.31.72,10.56-1.35,15.9-.24,4.76,1,9.44-.24,14.12-1,10.34-1.57,21-1.06,31-4.59,9.48-3.36,19-6.8,27.94-11.35,3.33-1.7,5-6.64,7.42-10.14,6.79-9.91,11.77-20.88,18-31.09a177.34,177.34,0,0,1,27.05-33.86,11,11,0,0,1,2.71-1.77c8.45-4.25,15.1-10.82,21.93-17.13a20.58,20.58,0,0,0,3.84-5.79,65.71,65.71,0,0,1,13.77-17.91c1.28-1.19,2.87-2.3,3.6-3.8,6.63-13.69,20.62-19.17,31.69-27.68,5.55-4.27,10.39-8.45,13.89-14.36a33.58,33.58,0,0,1,5.39-7.47,46.06,46.06,0,0,0,11-15.61,11.23,11.23,0,0,1,5.68-6c10.91-5.42,20.94-12.24,30.64-19.57l2.68-2.06c-1.37-3.47-3.33-5.15-7.26-5.34-16.73-.82-33.49-2.06-50.2-1.14a55.33,55.33,0,0,0-27.55,9.46c-3.53,2.34-6.51,5.56-10.15,7.68-8,4.66-11.85,12.29-15.42,20.21a5.56,5.56,0,0,0-.53,2.4c.2,5.52-1.95,10.06-5.22,14.39-4.36,5.77-8,12-13.34,17.1-2.32,2.21-5,3.29-7.82,4.66-8.27,4-17.35,3.79-25.83,6.35a12.46,12.46,0,0,0-5.15,2.9c-7.43,7.15-16.78,8.79-26.5,10-24.05,2.89-48.35,3.49-72.22,7.92-6.71,1.25-13.37,2.74-20.06,4.1a4.47,4.47,0,0,1-2.17.09c-7.92-2.77-15.82-5.61-23.62-8.39-.34-2.3,1-2,2.29-2,10.23.58,20.46,1.18,30.7,1.67,9.35.46,18.25-2.55,27.4-3.67,18-2.18,35.28-7.17,52.57-12.54,10.37-3.23,21.31-5.42,32.43-5.08,9.93.3,19.49-2.27,29.18-3.77a9.49,9.49,0,0,0,6.3-4.11c3.06-4.36,6.54-8.43,9.62-12.78,2.5-3.54,2.48-8.06,4.1-11.94,4.9-11.69,10.88-22.66,21.65-30.12q6.68-4.63,13.49-9.06c9.05-5.85,18.73-9.15,29.79-9,16.07.15,32.14,1.35,48.23.39.54,0,1.44,0,1.6.34,1.59,3.08,4.51,2.08,7,2.53,11.59,2,21.93-2.93,32.54-5.91Q762.16,337,927.89,290l313.5-88.67q15-4.24,30-8.48a9.87,9.87,0,0,1,5.24-.09c-1,1.52-2.45,1.4-3.62,1.74Q1149.16,230.3,1025.26,266q-190,54.76-380,109.5-35.26,10.17-70.53,20.3c-1.69.48-2.89,1.13-3.21,2.94-.44,2.46-1.93,3.7-4.31,4.53-6.2,2.18-12.17,5-18.45,6.93-13.17,3.94-21.46,13.85-29.95,23.57a11,11,0,0,0-2.27,4.69c-2.15,9.56-9.66,15.09-16.4,20.75-12.63,10.61-25.6,20.86-38.32,31.35C456,495.44,451,502,447,508.94c-3.79,6.59-8.41,12.52-14.8,16.89a19.49,19.49,0,0,0-4.55,4.23c-8,10.62-19,18.16-28.54,27.18-7.37,7-12,15.49-16.45,24.21a56.33,56.33,0,0,0-4.52,10.81c-3.55,13.23-13,21-24.54,26.61-27.09,13.18-55.82,13.53-85,10.71-15-1.45-29.88.06-45.14,3.49,1.95,2.5,3.59,4.75,5.39,6.86a4.42,4.42,0,0,1,1,3.91c-.48,2.79-.71,5.63-1.31,8.39-.76,3.53-.78,6.41,2.82,8.78,2.06,1.36,1.15,4.93,3.4,6.85,3.4,2.89,4.19,6.85,4.18,11.22,0,8,.36,16,.57,24,0,.58-.16,1.35.14,1.71,4.87,6,2.49,12.3,1.39,18.89-1.48,8.81-4.34,17-7.45,25.3-4.21,11.19-11.08,20-21.92,25.36-5.28,2.58-7.75,8.1-12.7,11a59.63,59.63,0,0,0-10.3,7.89c-4.71,4.42-10.88,6-16.34,8.86-9.7,5.13-18.25,12.27-28.58,16.29a25.08,25.08,0,0,1-2.5,1.11c-15.46,4.08-30.64,4.84-45.24-3.34-4-2.23-8.43-3.6-12.44-5.78-5.62-3-11.28-3.07-17.34-1.71C56.76,810.8,47,811.37,38.1,807s-17-9.44-20.89-19.77c-2.56-6.84-2.55-11.9,2.53-17.4a31.32,31.32,0,0,1,8.52-7.05c11.36-5.87,20-14.92,27.78-24.67,5.05-6.29,10-12.69,15.14-18.91.75-.9,1.57-1.73,1.51-3-.3-6.25,2.77-11.65,6.37-15.88a47.17,47.17,0,0,0,11.07-24.78c.85-5.87,4.89-10.31,7.35-15.46a6.77,6.77,0,0,0,1-2.5c0-4.69,2.33-8.12,5.57-11.23a9.74,9.74,0,0,1,4.74-3,26.37,26.37,0,0,0,4.78-1.45c8.76-3.78,17.7-4.8,26.89-1.84a9.4,9.4,0,0,0,9.09-1.68c1.33-1,2.84-1.73,4.27-2.59,4.87-2.91,5.49-7.84,2.78-12.74-4.13-7.45-12.13-8.54-18.46-12.36-.45-.27-1.29,0-1.92.15-4.32.89-8.61,2-13,2.66-4.1.58-7,2.93-10.16,5.27-12.29,9-24.84,17.71-38.64,24.39-3,1.45-5.75,3.44-9,4.16-6.24,1.35-11.2,4.86-15.75,9.1-.41.38-1,.84-1.06,1.28-.09,2.85-1.34,4.38-4.32,4.51-2.28.1-4.47,1.81-6.86-.12-.83-.66-2.37-.43-3.73-.63l.21-1.89-5.76-1.75c.33-6.05-.16-11.86,3-17.66,4.54-8.24,9.47-15.87,16.51-22.27,4.64-4.22,7.61-10.09,12.23-14.47.7-.67.39-1.34.23-2.07-1.39-6.51-2.74-13-4.17-19.53a6.08,6.08,0,0,0-1.16-2.43c-8.79-10.85-13.7-23.74-18.72-36.48C34.57,539,35,534.37,34.6,530.07c-.11-1.08.8-1.37,1.46-1.81,4-2.64,8-5.52,12.19-7.82,10.17-5.56,17.14-14.43,24.24-23.09,8.36-10.2,14.58-21.89,22.07-32.7a27.1,27.1,0,0,1,6.18-6.1c7.7-5.83,15.09-12.06,22.9-17.77A75.27,75.27,0,0,1,141.53,431c13.15-5,24.84-12.57,35.69-21.26,5-4,8.44-9.81,12.49-14.89,3.18-4,6.35-8,10.42-11.07,6.92-5.26,11.16-13,17.66-18.63,1.38-1.2,1.4-1.18,2.87.22-6.35,4.5-9.67,11.76-15.6,16.67a93.59,93.59,0,0,0-17.43,18.85c-6.93,10.06-16.75,16.52-26.8,22.76a101.86,101.86,0,0,1-19.15,9.62c-13.48,4.85-23.51,14.89-34.87,22.95C99,461.78,93.68,469.07,88.87,477,81,490.1,72.06,502.45,61.15,513.25a3.55,3.55,0,0,0-1.13,2.4c4.58-3,9.22-6,13.73-9.12a162.12,162.12,0,0,0,31.86-29.37C109,473,110.6,467.8,113,463a8.51,8.51,0,0,1,4-4.1,251.36,251.36,0,0,1,37.72-15.06,32.53,32.53,0,0,0,16.52-12.22,306.86,306.86,0,0,1,39.34-45.4c7.18-6.78,15.07-12.94,20.44-21.64-9-7.28-18.35-13.84-29.28-18.17-12.84-5.08-25.48-10.72-38-16.58-7.58-3.56-14.93-7.79-22.08-12.05C130.46,311.13,118,307.6,106.47,302c-12.77-6.18-26.31-9.79-39.92-13.29-6-1.54-10.82-5.44-16.28-8.06a24.09,24.09,0,0,0-4.07-1.88c-7.49-2-13.8-6.07-19.67-10.95A73.17,73.17,0,0,0,14,259.27c-1.07-.57-2.1-1.2-.88-2.75a61.69,61.69,0,0,1,14.3,9.39c6.44,5.63,14.69,8,21.85,12.1,12.29,7.1,25.49,10.72,38.88,14.39,10.62,2.91,20.14,8.69,30.52,12.3,14.92,5.2,28.25,13.6,42,21.14,11.47,6.28,23.65,11.11,35.73,16,13,5.3,25.08,11.88,35.86,20.85.56.48,1.13.94,1.67,1.38-6.05,10.18-15.26,17.26-23.49,25.22a336.33,336.33,0,0,0-39.23,45.84,30.3,30.3,0,0,1-15.59,10.74,217.53,217.53,0,0,0-37.74,15c-.95.5-2,.86-2.42,2-7.42,19-22.36,31.41-37.85,43.4C71.47,511,63.92,513.94,59,520.12c-6.88,8.65-11.12,18.16-7.48,29.56.46,1.43,1.08,2.82,1.39,4.27,1.68,7.9,5.92,14,11.63,19.79,5.34,5.37,7.64,13,10.78,19.85.24.52-.17,1.45-.47,2.09-2,4.21-4,8.39-6,12.6-1,2.12-.37,4.44-.71,6.64-.14,1,.22,2.06-.69,2.81-9.56,7.85-14.5,19.43-22.93,28.2-2.94,3.07-6.64,5.71-7.22,10.45-.11.92-1.05,1.89,0,2.74a2.79,2.79,0,0,0,3.09.24c2.68-1.62,6.12-2.29,7.36-5.84a6.68,6.68,0,0,1,5-4.33c9.48-2.5,17.34-8,24.82-14,2.43-1.95,4.17-5,5.72-7.76,2.1-3.8,5.31-6.09,9-7.85a10.85,10.85,0,0,0,4.81-4.5c2.24-3.75,6.12-5.82,9.22-8.69a5.23,5.23,0,0,0,2-3.29,49,49,0,0,1,2.65-10.9c2.27-6,.08-11.85-.17-17.77,0-1.32-.23-2.62-.36-3.92,5.77-2.28,11.3-.78,17.16,0-1,6.36-1.84,12.61-3,18.81-.74,4.08-.21,7.53,3.15,10.3,1.34,1.11,2.41,2.54,3.66,3.77,3.4,3.33,7,5.86,12.16,3.72,3.35-1.4,6.38-.67,9.2,1.6,6.24,5,13.24,6.61,21,4.33.69-.21,1.5-.48,2.1.24,3.73,4.45,9.2,5.06,14.31,6.27,9,2.15,17.11,6.92,26.11,9.1l.59.16ZM488.38,465.88l-.63.38-.52.42c-6.3,4.46-12.18,9.5-18.93,13.35a6.31,6.31,0,0,0-2.77,4.5l-.27.27.23-.32c7.53-5.59,15.07-11.16,22.09-17.41l.49-.51.46-.53c.21-.09.56-.14.18-.45A3,3,0,0,0,488.38,465.88Zm-84.05,83-.09.53.3-.35.57-.43c5.82-4.64,12-9,16.41-15.09l.33-.31-.56.1c-7.12,3.21-11.73,9.2-16.57,14.94ZM368.51,605c.17-.33.33-.66.49-1a9.81,9.81,0,0,0,5.67-8.34c.28-.27.44-.53,0-.88l-.21.67L369,604c-.15.35-.31.69-.46,1l-.17.07ZM75.18,640.18l1-.5c2-1.06,4-2,5.92-3.19,6.71-4,14.07-6.79,19.84-12.65,4.21-4.28,10.42-6.45,14.9-10.76a4,4,0,0,1,1.87-.59c5.37-1.18,10.75-2.34,16.75-3.64-4.79-2.46-7.42-6.3-10.66-9.49a9.14,9.14,0,0,1-2.46-8.23c.91-6.23,1.9-12.44,2.88-18.83-4.28-.5-8.23-1.73-12.46-.15.18,1.83.43,3.55.49,5.28.15,4,1.69,7.89.66,11.84-1.3,5-3,9.87-3.67,15a4.52,4.52,0,0,1-1.58,3c-4.14,3.68-9,6.62-11.67,11.8a4,4,0,0,1-2,1.41,24.05,24.05,0,0,0-11.48,10.23c-2,3.37-4.13,6.63-7.69,8.6L75,640l-.33.39ZM524.05,424.55c1.32-1.21,2.91-2.19,3.42-4.08l.6-.1-.08-.21-.48.35a4.56,4.56,0,0,0-3.62,3.88,3.26,3.26,0,0,0-.29.36s.11.12.17.18ZM505,451.47c4.07-2.83,7.57-6.07,8.52-11.88-4,3.61-6.3,7.72-8.48,11.92-.08.08-.15.16-.13.13A1.09,1.09,0,0,0,505,451.47ZM141.71,610a31.82,31.82,0,0,0,3.87,1.88c6.14,2,10.5,6,13.77,11.53a8.27,8.27,0,0,1,1.09,5.52c-.46,4.69-2.64,7.76-7,9.56a36.11,36.11,0,0,0-5.8,3.41,4.94,4.94,0,0,1-4.46.74,43.39,43.39,0,0,0-31.27,2c-.83.37-1.79.48-2.61.86-4.13,1.94-7.36,4.85-8.21,9.48a21.81,21.81,0,0,1-2.79,7.91c-3.61,5.74-6.51,11.78-7.37,18.62-.79,6.28-3.48,11.53-7.57,16.43-4.61,5.55-8.67,11.63-8.57,19.39,0,1-.7,1.66-1.28,2.36-6.32,7.63-12.12,15.72-18.58,23.19-7,8.06-14.38,16-24.2,21A31.86,31.86,0,0,0,21,771.67c-4,4.68-3.88,8.73-2,14.28,3.55,10.31,11.69,15.27,20.53,19.34,8.2,3.78,17,3.07,25.75,1.56,4-.69,8.1-2.64,12.21-1.06,5.82,2.25,11.63,4.59,17.19,7.4a71.47,71.47,0,0,0,30.86,8.08,3.42,3.42,0,0,0,2.6-.55c2.51-2.26,5.52-2.85,8.78-2.81,2.54,0,4.79-1,7.14-1.91,9.34-3.61,17-10.12,25.66-14.84,6.29-3.42,13.44-5.26,18.88-10.38,3.56-3.35,7.73-6.06,11.6-9.08,4.33-3.38,7.33-8.12,12.67-10.59,8.08-3.72,13.39-10.61,16.95-18.57,3.08-6.89,6.05-13.89,7.66-21.34.68-3.15,1.11-6.37,1.84-9.51,1.19-5.1,2.81-10.18-1-14.94a4.72,4.72,0,0,1-.86-3c-.14-7.17-1.13-14.42-.3-21.46,1-8.22-3.88-14.18-7.77-19.52-3.15-4.32-3.41-7.55-2.71-11.89.25-1.56.37-3.15.75-4.68a6.66,6.66,0,0,0-1.88-7c-2.28-2.25-3.31-6.19-6.35-7.14-10.71-3.37-20.78-8.5-31.76-11.07-4.33-1-8.92-1.61-12-5.45-.56-.69-1.32-.52-2.08-.32-7.24,1.87-14,1.06-20-3.75C149.91,608.66,146.16,607.51,141.71,610Zm115.34,16.54c-5.78-1.51-11.57-2.94-17.31-4.57-3.51-1-7.26-1.28-10.44-3.2a130.38,130.38,0,0,1-26.94-21.69,11.93,11.93,0,0,1-1.49-2c-7.14-11.58-9.67-24.41-10.21-37.78,0-.8.26-1.85-.74-2.19-5.3-1.81-9.95-5.79-16.26-4.21-5,1.24-9,8.35-7,13a178.84,178.84,0,0,0,11.42,23,49.35,49.35,0,0,0,10.54,12.55c11.34,9.5,23.38,18.24,32.29,30.33a2.54,2.54,0,0,0,2.85,1.09C234.64,627.82,245.89,627.64,257.05,626.53ZM58.22,517.65c-.83-.11-1-.21-1.13-.14q-9.73,6.09-19.44,12.22a1.43,1.43,0,0,0-.77,1.44c.37,3.73-.08,7.77,1.24,11.12C43,554.56,47.66,567,56,577.5a11.21,11.21,0,0,1,2.28,4.9c1.3,6.36,2.7,12.69,4,19.05.18.85.62,1.78-.21,2.58-4.76,4.59-8,10.57-12.73,15-6.94,6.49-12,14-16.46,22.3-2.62,4.94-2.53,9.78-2.5,15L35,657.55c.18-6.35,4.68-9.8,8.41-13.6,7.08-7.24,11.08-16.89,18.65-23.65,3-2.65,4.62-5.44,4.1-9.45a4.43,4.43,0,0,1,.56-3.13c2.48-3.78,3.92-8.07,5.87-12.12.32-.66.82-1.34.46-2.11-3-6.31-5-13.36-10-18.27-6-5.93-10.38-12.4-12.1-20.65a30.64,30.64,0,0,0-1.06-3.33c-2.62-8-2.54-15.83,1.86-23.33C53.72,524.51,55.05,520.72,58.22,517.65Zm198.65-28.32-.05.62c4.21,1.52,8.43,3,12.61,4.6a7.45,7.45,0,0,0,4.63.31c16.35-4,33-6.41,49.69-8.18,14.95-1.59,30-2,44.94-4.22,4.89-.73,10-.9,14.38-3.54,5-3,9-7.8,15.89-9.42-14.45-1-27.44,1.92-40.32,5.25-8.43,2.19-16.41,6.08-25,7.77-10.68,2.11-21.46,3.8-32.24,5.35-6.15.89-12.16,2.93-18.45,2.69C274.28,490.23,265.58,489.75,256.87,489.33ZM799.68,328.9l-.24-.41c-.39.09-.79.17-1.18.28-74.32,21-148.6,42.21-223,63-10.3,2.87-17.29,10.11-25.68,15.6,5.41-1.66,10.61-3.82,15.92-5.61,2.47-.83,4-2.14,4.5-4.65.34-1.66,1.37-2.4,3-2.87q94.08-27,188.15-54.19ZM447.09,428.33c-3.06,4.39-3.77,9.48-5.31,14.73C446.34,438.92,447.55,434,447.09,428.33Zm112.8-36.88c2.33,3.42,4.32.82,6.23.33ZM336.12,623.54l-7.36,1.67C331.27,624.87,333.88,625,336.12,623.54ZM807.8,326.12l.11.39,5.67-1.66-.12-.38ZM46.15,658.49,44,659.91C45.22,660,46.12,660.27,46.15,658.49ZM800.77,328.12l.15.41,2.18-.68-.12-.38ZM338.71,622.89l-.12-.36-1.3.66.14.28ZM837.45,317.68v.1l.64,0v-.1Zm-6.35,2.07c-.39.09-.2,0,0,0Zm-24.41,7.07,0-.26-.76.15.05.24Zm9.65-3.15v.16h.84v-.16Zm22.83-6.51c.29.13.36.19.42.18a2.13,2.13,0,0,0,.33-.11Zm-18.4,5.65c-.24-.11-.38-.23-.5-.21s-.17.19-.25.29Zm2.6-1.13v.14h.78v-.14Zm10.55-3v.12h.61v-.12Zm-7,2v.16l.67,0,0-.18Zm-22.1,6.59Zm10.54-3-.45-.15v.28Zm2.83-1,.43.14,0-.26ZM341.26,621.75l-.42-.14v.28ZM822.31,322.27l-.41-.14v.24Zm10.37-3s0-.12,0-.12l-.34.08Zm-7.38,1.9a1.23,1.23,0,0,0,.05.13l.39-.09A3.42,3.42,0,0,0,825.3,321.2Zm10.87-2.9s0-.1,0-.11a1.25,1.25,0,0,0-.19,0c0,.06,0,.15.05.17S836.11,318.31,836.17,318.3Zm-7.36,1.9a1.23,1.23,0,0,0,.05.13l.37-.09Zm-489,301.92-.17.11s.09.12.14.13.1-.06.16-.1Zm174.06-182.8-.1-.09,0,.14Zm35.11-31.55c-.05,0-.09-.12-.14-.13s-.1.06-.15.1.08.12.13.13S548.88,407.81,548.94,407.77Z" transform="translate(-12.52 -192.47)"/></svg>