<svg id="Layer_1" data-name="Layer 1" xmlns="http://www.w3.org/2000/svg" viewBox="0 0 565.98 562.34"><defs><style>.cls-1{fill:#6666FF;}</style></defs><path class="cls-1" d="M203.3,702c.48,1.69,1.13,2.89,2.94,3.21,2.46.44,3.7,1.93,4.53,4.31,2.18,6.2,5,12.17,6.93,18.45,3.94,13.17,13.85,21.46,23.57,29.95a11,11,0,0,0,4.69,2.27c9.56,2.15,15.09,9.66,20.75,16.4,10.61,12.63,20.88,25.58,31.35,38.32a64.65,64.65,0,0,0,17.73,14.43c7.27,4.18,13.75,9.29,18.4,16.43a5,5,0,0,0,1.12,1.34c12.76,9.75,21.72,23.18,33.18,34.2,6,5.81,13.56,9,20.68,12.86a50,50,0,0,0,10.57,4.44c13.23,3.55,21,13,26.61,24.54,13.18,27.09,13.78,55.84,10.59,85-1,9.15.8,35.52,3.81,45,2.3-1.8,4.55-3.44,6.66-5.24a4.42,4.42,0,0,1,3.91-1c2.79.48,5.63.71,8.39,1.31,3.53.76,6.41.78,8.78-2.82,1.36-2.06,4.93-1.16,6.85-3.4,2.89-3.4,6.85-4.19,11.22-4.18,8,0,16-.36,24-.57.58,0,1.35.16,1.71-.14,6-4.87,12.3-2.49,18.89-1.39,8.81,1.48,17,4.34,25.3,7.45,11.19,4.21,20,11.08,25.36,21.92,2.58,5.28,8.1,7.75,11,12.7a59.74,59.74,0,0,0,7.89,10.3c4.42,4.71,6,10.88,8.86,16.34,5.13,9.7,12.27,18.25,16.29,28.58a23.19,23.19,0,0,1,1.11,2.5c4.08,15.46,4.84,30.64-3.34,45.24-2.23,4-3.6,8.43-5.78,12.44-3,5.62-3.07,11.28-1.71,17.34,2.12,9.5,2.69,19.22-1.67,28.16s-9.44,17-19.77,20.89c-6.84,2.56-11.9,2.55-17.4-2.53a31.28,31.28,0,0,1-7-8.52c-5.87-11.36-14.92-20-24.67-27.78-6.29-5-12.69-10-18.91-15.14-.9-.75-1.73-1.57-3-1.51-6.25.3-11.65-2.77-15.88-6.37A47.13,47.13,0,0,0,483,1186.66c-5.87-.85-10.31-4.89-15.46-7.35a6.71,6.71,0,0,0-2.5-1c-4.69,0-8.12-2.33-11.23-5.57a9.73,9.73,0,0,1-3-4.74,26.37,26.37,0,0,0-1.45-4.78c-3.78-8.76-4.8-17.7-1.84-26.89a9.42,9.42,0,0,0-1.68-9.09,48.49,48.49,0,0,1-2.59-4.27c-2.91-4.87-7.85-5.49-12.74-2.78-7.45,4.13-8.54,12.13-12.36,18.46-.27.45,0,1.29.15,1.92.89,4.32,2,8.61,2.66,13,.58,4.1,2.93,7,5.27,10.16,9,12.29,17.71,24.84,24.39,38.64,1.45,3,3.44,5.75,4.16,9,1.36,6.24,4.86,11.2,9.1,15.75.38.42.84,1.05,1.28,1.06,2.85.09,4.38,1.34,4.51,4.32.1,2.28,1.81,4.47-.12,6.86-.66.83-.43,2.37-.63,3.73l-1.89-.21c-.58,1.92-1.14,3.74-1.75,5.76-6.05-.33-11.86.16-17.66-3-8.24-4.54-15.87-9.47-22.27-16.51-4.22-4.64-10.09-7.61-14.47-12.23-.67-.7-1.34-.39-2.07-.23-6.51,1.39-13,2.74-19.53,4.17a6.08,6.08,0,0,0-2.43,1.16c-10.85,8.79-23.74,13.7-36.48,18.72-3.88,1.52-8.54,1-12.84,1.49-1.08.11-1.37-.8-1.81-1.46-2.64-4-5.52-8-7.82-12.19-5.56-10.17-14.43-17.14-23.09-24.24-10.2-8.36-21.89-14.58-32.7-22.07a27.31,27.31,0,0,1-6.1-6.18c-5.83-7.7-12.06-15.09-17.77-22.9a74.86,74.86,0,0,1-9.75-17.89c-5-13.15-12.57-24.84-21.26-35.69-4-5-9.81-8.44-14.89-12.49-4-3.18-8-6.35-11.07-10.42-5.26-6.92-13-11.16-18.64-17.66-.75-.87-1.87-1.75.31-2.77,4.42,6.25,11.68,9.57,16.59,15.5a93.68,93.68,0,0,0,18.85,17.43c10.28,7.08,16.79,17.16,23.13,27.44a101.17,101.17,0,0,1,9.35,18.74c4.83,13.4,14.85,23.33,22.86,34.64,5.51,7.78,12.81,13.13,20.77,17.94,13.07,7.92,25.42,16.81,36.22,27.72.59.59,1.07,1.52,2.49,1.26-3.12-4.71-6.07-9.35-9.21-13.86a162.12,162.12,0,0,0-29.37-31.86c-4.13-3.43-9.36-5-14.12-7.35a8.48,8.48,0,0,1-4.1-4,250.93,250.93,0,0,1-15.06-37.72,32.53,32.53,0,0,0-12.22-16.52,307,307,0,0,1-45.4-39.34c-6.78-7.18-12.94-15.08-21.65-20.44-7.27,9-13.83,18.35-18.16,29.29-5.08,12.83-10.72,25.47-16.58,38-3.56,7.58-7.79,14.93-12,22.08-6.7,11.22-10.22,23.65-15.82,35.22-6.18,12.76-9.79,26.3-13.29,39.92-1.54,6-5.44,10.81-8.06,16.27a24.58,24.58,0,0,0-1.88,4.07c-2,7.49-6.07,13.8-10.95,19.67a73,73,0,0,0-8.55,12.58c-.58,1.09-1.22,2-2.77.92a61.68,61.68,0,0,1,9.41-14.34c5.63-6.44,8-14.69,12.1-21.85,7.1-12.29,10.72-25.49,14.39-38.88,2.91-10.62,8.69-20.14,12.3-30.52,5.2-14.92,13.6-28.25,21.14-42,6.28-11.47,11.11-23.65,16-35.73,5.3-13,11.88-25.08,20.86-35.86.47-.56.93-1.13,1.37-1.67,10.18,6,17.26,15.26,25.22,23.49a336.83,336.83,0,0,0,45.84,39.23,30.32,30.32,0,0,1,10.74,15.59,216.89,216.89,0,0,0,15,37.74c.5,1,.86,2,2,2.42,19,7.42,31.41,22.36,43.4,37.85,4.73,6.11,7.63,13.66,13.81,18.57,8.65,6.88,18.16,11.12,29.56,7.48,1.43-.46,2.82-1.08,4.27-1.39,7.91-1.68,14-5.92,19.79-11.63,5.37-5.34,13-7.64,19.85-10.78.52-.24,1.45.17,2.09.47l12.6,6c2.12,1,4.44.37,6.64.71,1,.15,2.06-.22,2.81.69,7.85,9.56,19.43,14.5,28.21,22.93,3.06,2.94,5.7,6.64,10.44,7.22.92.11,1.89,1,2.74,0a2.79,2.79,0,0,0,.24-3.09c-1.62-2.68-2.29-6.12-5.84-7.36a6.64,6.64,0,0,1-4.33-5c-2.5-9.47-8-17.33-14-24.81-1.95-2.43-5-4.17-7.76-5.72-3.8-2.1-6.09-5.31-7.85-9a10.9,10.9,0,0,0-4.5-4.81c-3.75-2.24-5.82-6.12-8.69-9.22a5.21,5.21,0,0,0-3.29-2,48.74,48.74,0,0,1-10.9-2.65c-6-2.27-11.85-.08-17.77.17-1.32,0-2.62.24-3.92.36-2.28-5.77-.78-11.29,0-17.16,6.36,1,12.61,1.84,18.81,3,4.08.74,7.53.21,10.3-3.15,1.11-1.34,2.54-2.41,3.77-3.66,3.33-3.4,5.86-7,3.72-12.16-1.4-3.35-.67-6.38,1.6-9.2,5-6.24,6.61-13.24,4.33-21-.21-.69-.48-1.5.24-2.1,4.45-3.73,5.06-9.2,6.27-14.31,2.15-9,6.92-17.11,9.1-26.11.05-.2.1-.39.16-.59l-.48-.1c-8.46,6-15.16,14-21,22.22C403.43,1098,387,1105.81,370,1112.88c-4.1,1.7-12.32-4.59-13.62-9.57-1.23-4.74.74-8.59,2.45-12.63,2.86-6.75,2.87-6.27,10.18-6.9,11.74-1,23.45-3.1,33.2-10.23a60.74,60.74,0,0,0,12.48-12.88c5.55-7.49,11.31-14.88,13.12-24.62,2-10.61,6-20.78,7.49-31.55.72-5.31-1.34-10.56-.24-15.91,1-4.75-.24-9.43-1-14.11-1.57-10.34-1.06-21-4.59-31-3.36-9.48-6.8-19-11.35-27.94-1.7-3.33-6.64-5-10.14-7.42-9.91-6.79-20.88-11.77-31.09-18a177.34,177.34,0,0,1-33.86-27,10.82,10.82,0,0,1-1.77-2.71c-4.25-8.45-10.83-15.1-17.13-21.93a20.57,20.57,0,0,0-5.79-3.84,65.67,65.67,0,0,1-17.91-13.77c-1.19-1.28-2.3-2.87-3.8-3.6-13.69-6.63-19.17-20.62-27.68-31.69-4.27-5.55-8.45-10.39-14.36-13.89a33.67,33.67,0,0,1-7.47-5.39,46.14,46.14,0,0,0-15.61-11,11.22,11.22,0,0,1-6-5.68c-5.42-10.91-12.24-20.94-19.57-30.64l-2.06-2.68c-3.47,1.37-5.15,3.33-5.34,7.26-.82,16.73-2.06,33.49-1.14,50.2a55.34,55.34,0,0,0,9.46,27.55c2.34,3.53,5.56,6.51,7.68,10.15,4.66,8,12.29,11.85,20.21,15.42a5.68,5.68,0,0,0,2.4.53c5.52-.2,10.06,2,14.39,5.22,5.77,4.36,12,8,17.1,13.34,2.21,2.32,3.29,5,4.66,7.82,4,8.27,3.79,17.35,6.35,25.83a12.45,12.45,0,0,0,2.9,5.15c7.15,7.43,8.79,16.78,10,26.5,2.89,24,3.49,48.35,7.92,72.22,1.25,6.71,2.74,13.37,4.1,20.06a4.43,4.43,0,0,1,.09,2.17c-2.77,7.92-5.61,15.82-8.39,23.62-2.3.34-2-1-2-2.29.58-10.23,1.18-20.46,1.67-30.7.46-9.35-2.55-18.25-3.67-27.4-2.18-18-7.17-35.28-12.54-52.57C276.45,906,274.26,895,274.6,883.9c.3-9.93-2.27-19.49-3.77-29.18a9.46,9.46,0,0,0-4.11-6.3c-4.36-3.06-8.43-6.54-12.78-9.62-3.54-2.5-8.06-2.48-11.94-4.1-11.69-4.9-22.66-10.88-30.12-21.65q-4.63-6.67-9.06-13.49c-5.85-9-9.15-18.73-9-29.79.15-16.07,1.35-32.14.39-48.23,0-.54,0-1.44.34-1.6,3.08-1.59,2.08-4.51,2.53-7M273.5,788.2c-.09-.21-.14-.56-.45-.18a2.35,2.35,0,0,0,.3.33l.37.63.43.52c4.46,6.3,9.5,12.18,13.35,18.93a6.3,6.3,0,0,0,4.5,2.77l.27.27-.32-.23c-5.59-7.53-11.16-15.07-17.41-22.09l-.51-.49Zm83,84-.43-.57c-4.64-5.82-9-12-15.09-16.41l-.31-.33.1.56c3.21,7.12,9.2,11.73,14.94,16.57l.61.39.53.09Zm56,36,.07.16s-.05,0-.11-.13l-1-.49a9.82,9.82,0,0,0-8.34-5.67c-.27-.28-.53-.44-.88,0l.67.21,8.59,5.45Zm35,293.53.39.33-.17-.55-.5-1c-1.06-2-2-4-3.19-5.92-4-6.71-6.79-14.07-12.65-19.84-4.28-4.21-6.45-10.42-10.76-14.9A4,4,0,0,1,420,1158c-1.18-5.37-2.34-10.75-3.64-16.75-2.46,4.79-6.3,7.42-9.49,10.66a9.14,9.14,0,0,1-8.23,2.46c-6.23-.91-12.44-1.9-18.83-2.88-.5,4.28-1.73,8.23-.15,12.46,1.83-.18,3.55-.43,5.28-.49,4-.15,7.89-1.69,11.84-.66,5,1.3,9.87,3,15,3.67a4.51,4.51,0,0,1,3,1.58c3.68,4.14,6.62,9,11.8,11.67a4,4,0,0,1,1.41,2,24.06,24.06,0,0,0,10.23,11.48c3.37,2,6.63,4.13,8.6,7.69ZM231.89,752.84a2.54,2.54,0,0,0,.36.29l.18-.17-.38-.28c-1.21-1.32-2.19-2.91-4.08-3.42l-.1-.6-.21.08.35.48A4.57,4.57,0,0,0,231.89,752.84ZM259,771.73l.13.13-.17-.09c-2.85-4.07-6.1-7.6-11.94-8.55C250.67,767.18,254.77,769.54,259,771.73ZM417.5,1135.05a37.69,37.69,0,0,0,2-4.15,24,24,0,0,1,11-13.24,8.92,8.92,0,0,1,6.18-1.33,10.3,10.3,0,0,1,9.17,6.75,35.67,35.67,0,0,0,3.28,5.6,5.92,5.92,0,0,1,1,5.13c-2.27,9.31-3.54,18.58.93,27.71,1,2,1.14,4.38,2.09,6.39,1.67,3.53,4.41,6.57,8.14,7.4a32.77,32.77,0,0,1,11.28,4.36c5.1,3.36,10.75,5.06,16.69,6.22,4.76.93,9.44,1.84,13.45,5.32,6.4,5.55,13.23,10.69,22.38,10.76a2.13,2.13,0,0,1,1.12.48c9,7.25,18.34,14.16,27,21.85a94.86,94.86,0,0,1,21.49,27c2.16,4.15,6.92,6.24,10.9,8.48,1.93,1.08,4.73-1.35,7.18-2,11.11-3,16.2-11.81,20.33-21.31,3.51-8.07,2.71-16.54,1.31-25-.66-4-2.64-8.1-1-12.21,2.26-5.81,4.59-11.63,7.4-17.19a71.49,71.49,0,0,0,8.07-30.86,3.43,3.43,0,0,0-.56-2.6c-2.27-2.51-2.84-5.53-2.8-8.79,0-2.53-1-4.78-1.92-7.13-3.61-9.34-10.12-17-14.84-25.66-3.42-6.29-5.27-13.43-10.38-18.88-3.35-3.56-6-7.73-9.09-11.6-3.38-4.32-8.11-7.34-10.58-12.67-3.73-8.08-10.62-13.38-18.58-16.94a133.43,133.43,0,0,0-21.32-7.74c-3.94-1-8-1.14-11.94-2.36-2.93-.9-6.61-1.89-9.46-.09-3.31,2.09-6.62,2.59-10.37,2.57-6,0-12.09,1.09-17.95.32-8-1.06-13.6,4.07-18.76,7.75a13.84,13.84,0,0,1-11.65,2.71c-1.73-.27-3.49-.39-5.18-.83a6.28,6.28,0,0,0-6.51,1.78c-2.33,2.33-6.34,3.38-7.33,6.51-3.37,10.71-8.5,20.78-11.07,31.76-1,4.33-1.62,8.91-5.45,12-.7.57-.5,1.32-.3,2.08,1.86,7.25,1,14-3.77,20C416.14,1126.84,415,1130.59,417.5,1135.05Zm16.58-115.32c-.22.78-.45,1.56-.65,2.34-3.4,13.51-6,27.37-15.8,38.22-.12.13-.18.29-.29.41-4.71,5.26-8.92,11.19-14.79,15.09-11.33,7.52-24.34,9.79-37.71,10.33-.79,0-1.87-.28-2.2.71-1.82,5.3-5.79,10-4.23,16.26,1.22,5,8.33,9,13,7.06a176.4,176.4,0,0,0,23-11.42A49.54,49.54,0,0,0,407,1088.21c9.5-11.34,18.23-23.4,30.32-32.3a2.67,2.67,0,0,0,1.08-3.08C435.27,1042,435.16,1030.73,434.08,1019.73Zm31,222c-6.33-.18-9.79-4.67-13.6-8.4-7.23-7.09-16.88-11.07-23.64-18.65-2.65-3-5.46-4.6-9.45-4.1a4.51,4.51,0,0,1-3.13-.56c-3.78-2.49-8.07-3.93-12.12-5.88-.66-.32-1.35-.82-2.11-.46-6.31,3-13.36,5-18.28,10-5.92,6-12.39,10.37-20.64,12.1-1.46.31-2.83,1-4.27,1.38-7.38,2.09-14.58,2.17-21.5-1.72-3.74-2.11-7.77-3.7-11.17-6.8-.1.66-.2.86-.13,1q6.09,9.73,12.21,19.44a1.42,1.42,0,0,0,1.44.78c3.73-.37,7.77.08,11.12-1.24,12.28-4.85,24.71-9.53,35.21-17.92a11.21,11.21,0,0,1,4.9-2.28c6.36-1.3,12.7-2.7,19.05-4,.86-.18,1.78-.62,2.59.21,4.59,4.75,10.56,8,15,12.73,6.5,6.94,14,12,22.31,16.46,4.93,2.63,9.77,2.53,15,2.51.32-1.42.63-2.69,1.18-4.6Zm-187.85-363c-1.51,12.71.9,25.11,4.44,37,4.91,16.42,9.78,32.73,12.27,49.77,2.3,15.8,5.53,31.44,3.18,47.53-.33,2.26,0,4.61,0,8,1.75-4.85,3-8.7,4.55-12.47a10.59,10.59,0,0,0,.5-6.78c-3.63-15-5.69-30.24-7.57-45.49-2-15.92-2.08-32-4.5-47.92-1.11-7.3-2.29-14.37-7.52-20.15C280.14,885.48,277.72,882.61,277.23,878.73ZM209.14,719.86a34.79,34.79,0,0,1,2.67,3.62l2.8,3.74c-1.43-5.46-3.5-10.53-5.28-15.7-.88-2.56-2.13-4.39-4.94-4.85-1.58-.27-2.23-1.34-2.67-2.86m34.05,125.77c4.46,3.15,9.55,3.82,14.81,5.37C246.41,830.4,241.5,829.22,235.77,829.58Zm-36.47-119v6c3-2.13.58-4.08,0-6ZM431,940.52l1.71,7.56C432.4,945.51,432.5,942.84,431,940.52Zm35.27,290a2.29,2.29,0,0,0,1.19,2C467.4,1231.65,467.87,1230.73,466.3,1230.53ZM430.38,937.92l-.26.1.58,1.5.32-.13Zm-1.2-1.86h.13v-.56h-.13Zm.69,1-.11-.17s-.12.09-.13.14.07.11.1.16a.85.85,0,0,0,.14-.19ZM246.87,763l-.09.1h.14Zm-31.44-35-.12-.15s-.12.09-.12.13.07.11.1.16Z" transform="translate(-63.97 -702)"/></svg>