<svg id="Layer_1" data-name="Layer 1" xmlns="http://www.w3.org/2000/svg" viewBox="0 0 1264.01 629.97"><defs><style>.cls-1{fill:#6666FF;}</style></defs><path class="cls-1" d="M-82.66,70.7c-1.79,9.13-3.54,18-5.35,27.19q9.86,3.78,19.72,7.55L418.59,290.91,910.16,478.15,930.68,486c1.18.45,2.44.84,1.35,2.78L-88.41,100.05c-1.92,9.75-3.77,19.12-5.62,28.5q-5.07,25.81-10.13,51.62a10.9,10.9,0,0,1-2.4,4.83Q-209.64,313.12-312.7,441.28l-16.92,21.07c4.15.36,7.95-.14,11.7.58a12.74,12.74,0,0,1,3.32.89C-236.27,502-158.09,540.5-79.55,578.26c83.4,40.1,167.14,79.52,250.74,119.23,1.46.7,2.9,1.43,4.67,2.3-2,1.23-3.41.57-4.83-.1L64.1,649c-47.91-22.71-95.93-45.19-143.7-68.19-50.62-24.37-101-49.23-151.48-73.87-27.15-13.26-54.33-26.45-81.42-39.83a25,25,0,0,0-12-2.59,18.78,18.78,0,0,1-6.76-.65c-.79-1.71.14-3,1.23-4.35q89.37-111.11,178.7-222.23,21.69-27,43.43-53.91c1.67-2.07,1.81-4.43,2.26-6.74q7.28-36.61,14.42-73.26c.23-1.2.36-2.43.59-4L-102,94.84c5.57-7.94,11-15.69,16.44-23.47C-84.85,70.33-84,70.4-82.66,70.7ZM-90,97.21c1.39-7.08,2.73-13.92,4.07-20.77l-.55-.17L-98.75,93.83Z" transform="translate(331.56 -70.51)"/></svg>