<svg id="Layer_1" data-name="Layer 1" xmlns="http://www.w3.org/2000/svg" viewBox="0 0 1264.04 630.69"><defs><style>.cls-1{fill:#6666FF;}</style></defs><path class="cls-1" d="M62.82,360.67l6.39-7.23c-5.43-2.19-10.7-4.3-15.94-6.46-8.9-3.65-17.82-7.25-26.65-11.06-2.58-1.11-3.71-3.89-5.38-6-2.76-3.49-5.5-7-8.36-10.62,13-6.19,25.69-12.58,38.64-18.24,17.92-7.83,36-15.28,54.5-21.68q21.86-7.56,43.57-15.56a6.33,6.33,0,0,1,5.59.33c4.77,2.71,9.91,2.26,14.9,1.71,3.72-.41,7.59.06,11.77-1.52-3.91-3-7.55-5.8-11.08-8.68-9-7.3-20.21-9.21-30.68-12.71C95,227.84,50.52,210.9,5.53,195.47Q-28.79,183.7-63,171.72q-76.47-26.9-152.89-53.92C-246.5,107-277,96.15-307.67,85.52c-5.12-1.77-10.57-.11-15.85.23-3.21.21-6.42.54-9.64.81-.33-1-.83-2,.47-2.1,9.14-.73,18.71-3,27.4-.2,27.15,8.86,54,18.74,80.89,28.29,19.92,7.07,39.77,14.33,59.71,21.36q48,16.91,96,33.59c26.52,9.23,53.12,18.24,79.61,27.57,33.38,11.76,66.65,23.83,100,35.63,17.42,6.15,35,12,52.42,18,5.81,2,9.84,6.7,14.72,10.12,3.19,2.24,6.23,4.72,10,7.59-7,.55-13.2.8-19.32,1.57a28.24,28.24,0,0,1-15.12-2.23c-3.1-1.32-6.1.93-9,2-25.87,9.41-52,18.12-77.43,28.72-12.18,5.08-24.13,10.6-36,16.4-4.94,2.42-9.92,4.75-15.11,7.22,3.6,4.65,6.67,9.17,10.35,13.11,1.59,1.7,4.41,2.3,6.74,3.25q18.94,7.77,37.93,15.46c.37.16.72.36,1.17.58-1.22,2.82-3.88,4.43-5.82,7.09,6.32,1.53,12.17,3,18,4.37q17.9,4.17,35.82,8.25c29.63,6.71,57.79,18.12,86.71,27.08a17.46,17.46,0,0,1,4.47,2.68q60.36,42.29,120.73,84.59a12.11,12.11,0,0,1,4.74,6.1c3.72,10.16,7.6,20.25,11.52,30.34a3.76,3.76,0,0,1-.56,4.08c-3.92,5.38-7.72,10.86-11.61,16.26a3.94,3.94,0,0,0-.75,2.55c.21,10,.85,19.74,5.79,29.06,6.05,11.43,10.28,23.78,16.26,35.29,1.15,2.2,2.62,4.3,3.38,6.63,2.09,6.37,7.72,8.83,12.7,12,5.87,3.75,12,7.19,17.66,11.16,5.48,3.81,11.86,4.73,18,6.34q37.44,9.82,75,19.28,34.35,8.6,68.84,16.68c19.45,4.58,38.93,9,58.48,13.16,6.15,1.29,12.56,1.47,18.86,2,9.08.68,18.12,1.53,27.14,2.84,10,1.45,20.08,2.63,30,4.56,10.27,2,20.64,3.51,30.84,5.8,8,1.8,16,1.83,24.12,1.7,29.66-.49,59.32-.77,89-1.42,12.57-.28,25.13-1.3,37.69-1.94q16.88-.87,33.75-1.64a5.31,5.31,0,0,0,3.44-1.76q11.44-10.33,22.93-20.67c1.49,1,1.18,1.89.13,2.83-7.83,7-15.64,14-23.51,20.93a4.47,4.47,0,0,1-2.52.8c-14.92.71-29.87,1.19-44.78,2.08-45,2.7-90,2-135.08,1.72-8.67,0-17.34-2.91-26-4.58-12.86-2.49-25.78-4.47-38.75-6.3-12.37-1.75-24.8-2.78-37.23-3.71-16.13-1.21-31.51-5.86-47.14-9.34-22.47-5-44.85-10.39-67.19-15.92-27.15-6.71-54.22-13.74-81.32-20.64-9.63-2.46-19.33-4.67-28.85-7.49-5.3-1.56-9.52-5.49-14.25-8.3-6.08-3.61-12-7.5-18-11.23a10.23,10.23,0,0,1-3.57-4c-10.12-18.15-17.75-37.46-26.34-56.32-1-2.21-1-4.69-1.06-7.07a86,86,0,0,0-.46-9.2,10.73,10.73,0,0,1,2.18-8.6c3.67-4.62,6.86-9.63,10.32-14.43a2.72,2.72,0,0,0,.37-2.94q-6-15.72-12-31.51a5.42,5.42,0,0,0-2.18-2.59L208.69,402.54a11.18,11.18,0,0,0-2.84-1.49C182,393.16,158.26,385,134.26,377.6c-12-3.67-24.49-5.79-36.76-8.6Q81,365.24,64.58,361.48A11.57,11.57,0,0,1,62.82,360.67Z" transform="translate(333.54 -82.89)"/></svg>