<svg id="Layer_1" data-name="Layer 1" xmlns="http://www.w3.org/2000/svg" viewBox="0 0 630.14 1264.05"><defs><style>.cls-1{fill:#3CB371;}</style></defs><path class="cls-1" d="M456.65,773.55l-7.91,6.2c-.71,0-1-.55-1.41-1.4,3.56-3.12,7.16-6.29,10.78-9.44a6.37,6.37,0,0,0,2-2.76q9.79-28.38,19.69-56.73c.13-.37.16-.78.35-1.72l-7.35,4.74-1.73-1.89c11.11-5.83,15-16.09,17.48-27.82L481.44,687c-1.31-.83-1.56-1.73-.05-2.51,8.34-4.33,12-11.8,14.25-20.44,1.5-5.68,3.74-11.18,5.66-16.76.23-.57.24-.94-.54-.6-1.84,1-3.71,1.88-5.51,2.91-1.27.72-1.8.23-2.1-.95.1-.18.15-.4.26-.45,7.79-3.45,12.31-9.43,13.82-17.75a3.27,3.27,0,0,1,2.22-2.43c17-8,34.07-15.91,51-24.08,7.81-3.77,14.65-9.19,21.93-13.87a6.17,6.17,0,0,0,1.73-2.36q65.91-122,131.79-244c39.17-72.56,78.54-145,117.31-217.79,6.6-12.4,10.67-26.16,15.78-39.33q38.85-100,77.63-200c.5-1.3.94-2.6,3-1.66q2,27.12,4,54.49c1.19-.19,1.23-1.29,1.61-2q7.13-13,14.13-26.14c.64-1.18,1.15-2.35,2.77-.75-4.93,11.59-9.78,23.25-14.86,34.8a25,25,0,0,0-2.37,12.7c1.54,17.74,2.71,35.52,4.1,54.44l14.94-28.13c2.29.38,1.53,1.55,1,2.7-4.84,10.23-9.65,20.47-14.53,30.68a7.61,7.61,0,0,0-.76,4.06q3,39.72,5.9,79.45c0,.63.18,1.25.39,2.71l9.7-18,.7.16c0,2.56.37,5.18,0,7.66q-9,53.3-18.19,106.56c-.14.82-.19,1.65-.32,2.71,1-.35,1.85-1,3,.19-1.34,6-2.75,12.19-4.14,18.41-2.72,12.1-5.41,24.2-8.17,36.29-.23,1,0,2.87-2.51,1.82,2.45-14.43,4.91-29,7.37-43.46l-.68-.27L775.67,462.82c.71.86,1.15.43,1.53.19,9.4-6,18.56-12.11,26.36-20.36,20-21.12,40.43-41.79,60.7-62.63q20.82-21.4,41.66-42.79c.85-.87,1.66-2.16,3.07-.24q-13.85,28.5-27.82,57.27c0,.21,0,.43,0,.64l.62-.13,12.53-8a1.66,1.66,0,0,1,1.25,1.62c-5.06,4.43-10.08,9-15.33,13.36a27.08,27.08,0,0,0-7.73,10.12c-3.07,6.89-6.51,13.61-9.79,20.4l-.06.59.53-.2c7.19-4.5,14.39-9,21.56-13.51,1.14-.72,2.08-1.18,2.66.79-8.81,7.23-17.6,14.61-26.59,21.74a23.34,23.34,0,0,0-7.53,9.65c-1.33,3.22-3,6.3-4.51,9.45,0,.27-.05.55-.08.82l.59-.17,16.6-10.7c2,1.11.85,2-.18,2.9l-86.31,79.95q-57.9,53.64-115.83,107.27a14.37,14.37,0,0,0-3,3.93c-18.42,34.68-36.74,69.41-55.38,104-4.35,8.06-11.14,14.5-16.89,21.61-3.23,4-6,8.12-7.49,13.08-2.55,8.69-9.4,14.43-14.83,21Q465.73,926.35,365.28,1048c-2.48,3-3.09,6.77-4.31,10.26q-15.39,44-30.63,88.13c-.44,1.3-.75,2.68-2.73,1.85a107.47,107.47,0,0,1-.91-25.83c.38-4.31,2.89-8.44,4.51-12.62,4.94-12.71,9.92-25.41,15-38.31-2.26-1.15-1.12-2.76-.51-4.3q22.62-57.06,45.23-114.11a4.32,4.32,0,0,0,.34-2.73L387,957c-2.22-.34-1.46-1.52-.86-2.63,4.43-8.2,9-16.31,13.25-24.61,7.39-14.57,12.34-30.15,18.59-45.2a106,106,0,0,0,5.17-14.94,43.61,43.61,0,0,1-4.81,4c-1.36.86-2.1,3.86-5,1.82l11.24-9.94a6,6,0,0,0,1.94-2.53q6.15-17.81,12.34-35.59a9.84,9.84,0,0,0,.24-1.4l-10.18,2-1-1.06q5.88-5.31,11.75-10.59a23.14,23.14,0,0,0,6.75-10.5c3.39-10.61,7.17-21.1,10.8-31.63.11-.35.21-.7.5-1.63ZM881,398l-.51.48-.75.26c-.59.23-1.23.42-1.26,1.23l-.33.5.18.12.27-.54c.74,0,1.09-.5,1.42-1,.16-.18.31-.36.47-.53L881,398c.11-.06.21-.12.1-.05Zm-11.52,33.47-.73.27c-3.34,2.64-8.36,3.3-9.75,8.24l-.33.48.21.06L859,440c3.88-2,6.86-5.11,10.1-7.92l.44-.54.41-.13-.2-.24Zm-65.27,13.25-.16.54.48-.24.63-.37c.36-.2.74-.37,1.09-.59,21.41-13.95,42.75-28,64.26-41.78a25.23,25.23,0,0,0,9.86-11c7.36-15.84,15.14-31.47,22.77-47.18l.39-.89-.54-.44-.31.85c-1.08,1-2.19,2.05-3.23,3.13q-22.14,22.74-44.26,45.49l-50.5,52ZM504,731.44l.49-.51,1.05-.44.5-.51c.11-.09.6,0,.2-.35L506,730l-.49.51-1,.44-.49.51-.13.16A1,1,0,0,0,504,731.44ZM852.81,461.81l-.33.66.71-.27.58-.44.89-.22-.57-.59-.63.51ZM513.74,723.75c.17-.21.61-.37.17-.69,0,0-.33.23-.49.36l-.23.52ZM764.51,471l-.49.5-.12,0c-.22.18-.07.06.08-.06l.49-.52.09,0C764.7,470.79,764.6,470.9,764.51,471ZM552.78,695.28l.14-.68-.47.35-.57.43a10.22,10.22,0,0,0-1,.65q-18.72,15.38-37.44,30.77c-1.34,1.11-3,2.08-3.82,3.52-5.5,10-10.8,20-16.17,30.09-.37.19-.48.43-.16.83l.45-.58c3.4-3.42,6.85-6.78,10.17-10.27C511,743,519,736.27,523.55,726.74c2.5-5.21,6.6-9.08,10.7-13,6.13-5.87,12-12,18-18ZM554,694l.36-.25-.26-.2c-.05.13-.1.26-.14.39l-.43.12.19.29ZM815.78,478.77l-.36.51.74-.12.34-.61ZM569.1,683.1l.5-.5c.16-.17.33-.33.5-.5s.33-.33.5-.5.33-.33.5-.5.33-.33.5-.5.33-.33.5-.5.33-.33.5-.5.29-.37.44-.56l.49-.51.5-.5.5-.5.5-.5.5-.5.5-.5.46-.54.34-.23-.3-.11c0,.13,0,.25,0,.38l-.75.19-.5.5-.5.5-.5.5-.5.5-.5.5-.53.5-.53.51c-.17.16-.34.33-.5.5s-.34.33-.5.5-.34.33-.5.5-.34.33-.5.5-.34.33-.5.5l-.5.49-.54.5-.44.4q-17.07,16.8-34.13,33.61c-3.13,3.08-6.52,5.95-8.13,10.24-.35.21-.57.44-.17.84l.48-.58q14.28-14.61,28.56-29.24c4.63-4.76,9.18-9.59,13.77-14.39Zm28.08-24.45.05-.56-.28.36-.57.43c-5.4,4.15-9.54,9.54-14.78,14.43l7.39,1.2,7.88-15.25Zm56.54-7.93.15-.56-.46.26c-.13.16-.39.44-.36.48C653.38,651.32,653.53,650.91,653.72,650.72Zm-49.62-6.11.5-.51.49-.51.21-.54-.58.17-.51.5-.58.51-.4.39-.83.77-30.08,26.06c1.83.27,3.21,1.68,4.77.1,8.52-8.63,17.15-17.15,25.74-25.71l.78-.74Zm6.37-.64.73-.29c.19-.15.38-.3.58-.44l.8-.66.54-.46,27.69-22.53c3.88-3.16,3.92-8,5.24-12.47l-33.42,34.61-.41.4-.75.84-.49.51-.46.53-.36.21.27.13ZM701,506.45l-.56.45-.63.39-.35.5.67-.2.47-.53.59-.4c.1-.23.21-.46.32-.69.5.2.81,0,1-.47l.07-.06c0-.16,0,0,0,.09a.71.71,0,0,0-1,.48ZM667.6,634.1l.27-.69-.7.34,0,.71ZM709.52,510c-.19,0-.55-.15-.33.31l.29-.34c.1-.1.61,0,.2-.35Zm-113,89.47.5-.5.49-.51.3-.31-.26.35L597,599l-.5.51-.72.3c-.27.22-.55.43-.83.64l-2.56,1.93c-6.35,4.79-12.59,9.75-19.1,14.32a21,21,0,0,0-7.55,9.56l-.12.59.46-.26,26.8-23.75,2.35-2.05L596,600Zm64.08-10.42.31-.41-.48.23-.66.31c-2.85,1.61-5.87,3.08-6.09,7.42l6.45-7C660.25,589.42,660.41,589.24,660.57,589.07Zm8-4.56L669,584l.48-.52.49-.5a1.42,1.42,0,0,0,1.23-1.23A1.34,1.34,0,0,0,670,583l-.5.5-.47.51-.49.51Zm-4.54-45-.47.52c-.16,0-.32.09-.09,0-.14.2,0,.07.05-.06l.48-.52.17-.08Zm-59.45,39L605,578c.25,0,.5-.07.12,0,.32-.26.12-.1-.07.06l-.59.41-.36.39Zm45.48-23-.33.26.29-.3.5-.5,1.2-.77.58-.47c.29-.18.76-.24.46-1l-.75.71-.5.49c-.53.17-1,.37-1,1.06ZM783.54,502c.34,0,.72.11.37-1.86-.28,1.24-.35,1.53-.42,1.82l-.68.33-.92.56c-15.33,9.35-30.54,18.9-46,28-5.12,3-8.35,7.11-10.92,12.11l-.22.46.53-.08c6.33-4.14,12.68-8.24,19-12.42,13.08-8.67,26.53-16.82,38.11-27.56l.78-.73Zm-250,153.49c-.5-.26-.82,0-1.11.38l-12.28,7.29c1.76.53,3.33,1.63,4.94.12,2.53-2.38,5.15-4.67,7.73-7l.69-.82.37-.21-.28-.13ZM701,559a.8.8,0,0,0,1.07-.42c1.37-.75,3-1.2,3.65-3.78l-3.93,3.44-.74.8-.35.2.26.13Zm73.09-66.92c-.47-.12-.87-.08-1.07.44l-1.28.66c-9.09,5.68-18.3,11.21-26.77,17.81,10-4.39,19.72-9.12,27.16-17.35.46-.22,1-.41.94-1.07l1-.52.1-.34ZM413,909.52c-.44.15-.63.37-.13.94,0-.44.06-.71.08-1l.38-.12-.18-.25ZM927.58,39.58c.35-.3.64-.62.09-1.12-.16.29-.31.54-.45.8l0,.77ZM463.49,831l.82-.63,13.21-11.46c-2.93.66-6.39-.6-8.31,2a100.85,100.85,0,0,0-5.33,9c-.34.32-.63.64-.35,1.15l-.37.05.07.22ZM762,485l.79-.72L775,473.09l-4.14-2.89-8.45,13.74A.81.81,0,0,0,762,485l-.29.28Zm-83,88.48a.8.8,0,0,0,1.07-.42c.86-.49,1.75-.92,2.56-1.48,7.24-5,13.42-11.29,20.07-17,2.47-2.13,5.39-3.86,7.08-6.83l.11-.55-.49.19c-12.36,5.54-20.52,16-29.61,25.34l-.75.79-.12.34Zm-24-31a.79.79,0,0,0-1,.5l-.34.19.24.13L654,543c.45.07.86.06,1-.48l.61-.4.94-.54c1.65-1.18,4.23-1.36,4.39-4.11l.21-.09-.18.12-4.7,3.73-.79.77ZM521,633h-.12c-.31.24-.12.09.07-.06l.68-.34,1-.46,1-.54.62-.27c4.82-2.59,9.71-5.06,14.46-7.78,12.57-7.18,26.16-12.7,37.19-22.44.86-.75,2-1.23,2.19-2.57l.28-.36-.61,0c-19.65,8.12-36.08,21.55-53.9,32.67l-.62.35-.86.66-.9.62Zm171-47c-.15.19-.29.39,0,.07-.05.41,0,.15,0-.11l.37-.11-.17-.25Zm24-50.54-.77.74q-5.16,5.34-10.3,10.69l-.28.47.6-.12C710,545,714.07,542,715.61,536.6c.11-.39.22-.77.34-1.16l.17-.06Zm-204,210,.38-.51-.22-.09c0,.21-.09.42-.13.63l-.71.29c-3.34,3.37-6.76,6.65-10,10.12-5.91,6.37-12.7,11.9-16.63,20-4.45,9.2-9.63,18-14.49,27q-4.33,8-8.65,16.09c5,.38,7.88-2,10.13-6.14,3.81-7.1,8.24-13.87,12.39-20.79q13.8-23,27.58-46Zm96.49-19c.4-.16.63-.37.13-.92,0,.42-.06.69-.08,1l-.4.12.2.26ZM580,601h-.11c-.29.23-.11.09.07,0l.72-.29c8-4.28,16-8.45,23.94-12.87,4.9-2.75,10.31-4.69,14.4-8.79l.35-.36-.55.17c-7.68,3.57-15.32,7.23-23.06,10.66-5.89,2.61-10.49,6.94-15.37,10.92ZM840.48,467c.23,0,.47-.08.1,0,.28-.24.11-.09-.06.06l-.5.5c-.46-.09-.87-.07-1,.5l-.43.12.23.22L839,468l1-.5ZM606.74,724.71l.58-.9,45.33-71.21c.27-.42.59-.83.17-1.37-.22.08-.52.09-.67.24-9.6,9.49-21,17.1-26.24,30.71-5.45,14.08-12.63,27.49-19,41.19-.16.34-.33.68-.49,1a.7.7,0,0,0-.14,1.1ZM747.45,531.44c-.54.12-1.11.21-.93,1.22l1.17-.95.27-.52ZM926.18,41.19c-.27.59-1.08,1.06-.34,2.06.31-.63.56-1.12.8-1.62s.62-.7.05-1.21ZM697.77,509.75c.37-.32,1-.5.65-1.24a1,1,0,0,0-1,.94l-.62,1.13C697.45,510,697.61,509.89,697.77,509.75Zm138.9-40.11c.52-.18,1.22-.15,1.15-1.22l-1.34,1.06-.64.37c-.54.29-1.08.58-1.61.88-8.88,5.41-17.69,10.93-26.65,16.2a104.61,104.61,0,0,0-18.11,13.54l-.32.44.57-.19c3.42-2.21,6.86-4.37,10.25-6.62q17.31-11.49,34.6-23l1.48-1ZM607,729a1.38,1.38,0,0,0,.57-1.88c-.29.82-.46,1.32-.63,1.81l-.48.53-1.27,1.79c-2.75,4.26-5.87,8.31-7.2,13.39l7.55-13.11c.35-.64.71-1.27,1.07-1.91Zm95-154.52a1.36,1.36,0,0,0,.79-1.68c-.56.59-1,1-.78,1.7l-.43.28.14.17ZM707,512c.42-.45,1.3-.5,1.25-1.62-.61.55-1.52.6-1.22,1.65l-.17,0ZM639.5,679.49a2.08,2.08,0,0,0,1-2l.36-.14-.19-.23-.13.41a1.92,1.92,0,0,0-1,2l-.43.28.14.17ZM787.85,296.87c-.39.64-1,1.22-.57,2.36l1.05-2c.09-.43.85-.82,0-1.39C788.14,296.21,788,296.54,787.85,296.87ZM766.74,469.71c.6-.29,1.41-.34,1.55-1.43a2.27,2.27,0,0,0-1.82,1.19l-1,.68.2.3ZM632.5,572.51a3.36,3.36,0,0,0-2.6,1.38,3.73,3.73,0,0,0,2.57-1.42c.23,0,.46-.08.09,0ZM515.61,722.12c.83-.5,1.87-.82,2-2.14-1.16.19-1.7,1-2.34,1.72l-.72.76.26.32ZM705.06,570.05c-1.55.14-1.6,1.37-1.63,2.61L705,570l.08-.15ZM637.35,683.83l1.67-3.14-.52-.25-1.6,3-.56,1c-8.29,13.85-16.48,27.76-24.91,41.52-7.63,12.45-14.34,25.47-22.81,37.42-.92,1.29-1.19,3-1.77,4.58,5.7-6,11.69-11.72,15.57-18.65,11.92-21.25,23-43,34.45-64.49Zm99.89-168c1.51-.83,3.46-1.13,4.41-3.72-2,1.33-3.66,1.89-4.74,3.32l-.21.48Zm9.21-11.36c-2,1.18-3.29,3.11-5.51,5.25,3.19-1.19,4.77-2.81,5.57-5.2l.31-.24-.25-.17ZM487.57,700.07c2.17-1.3,4.9-2,5.43-5.6l-5.79,5.27-.19.58ZM698.47,575c-2.78,2.63-4.21,6-5.46,9.54l-.39.14.2.27.17-.43c2.11-3,4.34-6,5.45-9.56l.18,0ZM938.22-63.73c-1.51,3.31-4.53,6-3.64,10.29q2-5,4-10c.35-.29.64-.6.09-1.08C938.51-64.24,938.37-64,938.22-63.73ZM709.54,553.55c3.35-1.18,4.81-4,6-7l.26-.41-.36.31c-2.7,1.7-5.12,3.66-6.11,6.89l-.09.54ZM708,564c.92.14,1.33-.54,1.71-1.15,2.14-3.42,4.24-6.86,6.36-10.29l.32-.31-.58.07c-3.87,3.06-5.27,7.75-7.77,11.71l-.11.14Zm17-26c-4,2.2-5.27,6.32-7.73,10.13,2.52-.93,6.85-6.94,7.69-10.18l.38,0-.05-.23ZM441.71,817.22l-7.33,6.26c5.46,1.09,6.35.23,7.72-5.89.33-.25.48-.52.1-.88ZM703,514c-2.58,1.66-5.14,3.35-7.74,5-1.79,1.11-3.58,2.16-3.71,4.58l-.11.12s0-.07.06-.16c4.2-2.12,7.54-5.44,11.27-8.21.25-.19.14-.87.2-1.33l.21-.06Zm-9.5-1.5c-2.82,1.3-4.92,3.59-7.4,5.36-2,1.4-4.05,2.74-4.21,5.53l-.08.52.27-.33c3-2.54,5.93-5,8.83-7.64,1.07-1,2.66-1.58,2.63-3.4l.12-.36Zm16,44c-5.58,2.8-5.85,9-8.74,13.54a47.11,47.11,0,0,0,8.7-13.59l.28-.29ZM678,534c3.9-3.17,9.08-5,10.71-10.52-4,3.1-10.09,3.87-10.91,10.3l-.08.56Zm48.49-.51c5.45-3.68,7.78-9.66,11-15l.17-.42-.26.33a3.77,3.77,0,0,0-1.15.35c-5.19,3.57-6.93,9.5-9.87,14.61a2,2,0,0,0-.34.22,1.47,1.47,0,0,0,.11.21ZM583.94,592.43c8.16-2,13.17-8.62,19.56-13.22-6.43,3.76-12.65,7.83-18.84,12-.36.24-.47.85-.69,1.29l-.05.16Zm110.52-76c5.53-3,11.8-5.18,13.54-13-4.32,3.85-8.24,7.31-12.13,10.8-.66.6-1.51,1.13-1.36,2.24l-.26.26.2,0ZM737,524c5.93-4,10.95-9,16.15-13.83l.67-.34-.2-.29-.6.46c-7,2.78-13.17,6.48-16,14-.36.12-.57.28,0,.75Zm-79.49,25.5c6.52-4.91,14.36-8.39,18-16.38-5.86,4.48-11.38,9.34-16.84,14.27a7.06,7.06,0,0,0-1.15,2.14l-.07.19Zm59-9.5a4.91,4.91,0,0,0,1.34-.36c6.69-3.77,7.81-11.41,12-16.94-7.12,3.77-10.21,10.55-13.29,17.34l-.1.31Zm-49.4,41.61c6.09-3.25,9-8.81,11.55-15.62-2.85,2.14-6.08,2.77-7.53,5.32-1.79,3.14-2.86,6.69-4.24,10.07l-.08.53ZM668,588c-7.12,3.87-8.91,11.18-11.58,17.93-.34.24-.5.51-.12.89l.51-.47c6.84-4.19,8.24-11.73,11.25-18.28l.32-.14-.17-.26ZM464,767.51a7.67,7.67,0,0,0-3.94,4.84c-1.85,5.69-4,11.29-5.82,17-1.89,5.9-4.59,11.55-5.72,17.7-.43-.21-.38,0-.3.34l.26-.4a13.5,13.5,0,0,0,1-1.64q7-17.55,13.9-35.11c.34-.86,1.14-1.69.62-2.77.36.3.34,0,.36-.25ZM716.09,557.6,746.38,533c-6.5,3.17-12.25,7.41-18.42,10.92-5.61,3.19-9.35,7.76-12.22,13.3,0,.2-.09.39-.14.58Zm57.15-61.3L801,481.45c-4.58.14-9.34-1.76-13.2,1.51-5,4.25-9.86,8.66-14.79,13l-.3.43Zm-99.66,70.29c2.47-1.33,5.6-2.22,7-4.57,2.88-5,5.06-10.33,8-16.4-3.39,2.31-7.26,2.25-8.78,5.32-2.46,5-4.36,10.2-6.49,15.32v.63Zm-72.71,25.77c-5.7,3-11.22,6.55-17.16,9-6.13,2.54-9.1,7.3-11.46,12.89l-.13.55.46-.23,28.69-21.8,1.55-1.34Zm144.32-90.22c9.59-7.89,14.92-18.9,21.35-29.11l.32-.32-.58.08c-2.28,1.5-5.33,2.5-6.69,4.59-5.17,8-9.79,16.37-14.61,24.6-.4.18-.59.41-.17.85C745,502.56,745.08,502.35,745.19,502.14ZM499.86,675.86c-10.46,3.26-10.07,13.27-13.24,21.12,3-2.61,6.89-4.44,8.7-8,2-4,3.35-8.46,5-12.72l.07-.58ZM448.62,844.13c8.9-5.61,13-14.83,18.72-24.29-3.11,1.78-6.33.44-7.82,3.1-3.85,6.9-7.47,13.92-11.19,20.89l-.18.55ZM652.07,560.57c5-2.28,9.95-4.54,14.91-6.86a2.42,2.42,0,0,0,1.15-1.19c1.35-3.48,2.63-7,3.93-10.47.11-.21.22-.42.63-1.15l-1,.85c-4.52,3.41-8.94,7-13.59,10.18a17.32,17.32,0,0,0-6.37,8.35l0,.59Zm-152.4,125.1,22.1-19.37c-2.85-1-5.09-1.23-7.41.44-2.7,1.93-5.65,3.52-8.48,5.26-.84.52-1.79.91-2.18,2q-2.16,5.71-4.34,11.41l-.17.53ZM658.47,608a14.19,14.19,0,0,0-6.11,6.89c-7.24,17.35-14.67,34.62-22,51.92-.32.76-1,1.48-.51,2.87,3.68-7.81,7.23-15.3,10.76-22.81q9.06-19.3,18.1-38.62l.15-.52Zm41.36-87.63c-3.72,2.75-8.36,4.78-10.7,8.74-2.88,4.89-4.57,10.49-6.77,15.79l-.19.57.57-.08c2.78-1.42,6.49-2.12,8-4.77,3.55-6.44,6.34-13.29,9.43-20l.19-.48Zm151.68-70.83-34.93,28.42a3.43,3.43,0,0,0,2.82-.59c7.59-4.65,15-9.57,22.82-13.86,5.74-3.17,7-8.77,9.25-14,.12,0,.24-.06.1,0C851.68,449.3,851.59,449.41,851.51,449.51ZM545.77,613.25c-10.45,4.9-20.72,10.23-31.42,14.52-5.77,2.31-6.38,6.85-8.08,12.06l39.84-26.23.41-.4ZM414,908c.13-.1.31-.17.39-.29l37.88-63,.12-.61-.51.26c-3.85,3-7.59,6-9.87,10.63-3.54,7.15-7.53,14.08-11.3,21.12q-8.46,15.84-16.87,31.7l-.22.55ZM649.39,615.38a14.91,14.91,0,0,0-6.52,7.79c-5.65,15.11-11.62,30.1-17.42,45.15-.91,2.37-2.27,4.61-2.4,7.24l-.17,0,.14-.08a8.4,8.4,0,0,0,2.64-2.91q12-28.44,24.1-56.88l.1-.58ZM755,480.53c-4,1.53-8.45,3.48-10.51,6.88-5.86,9.71-10.77,20-16,30.07l-.34.28.52-.12a12.91,12.91,0,0,0,4.9-3.33c9-10.08,14.35-22.5,21.43-33.81l.23-.31H755ZM553.77,642.76c-10.5,5.26-17.84,14.38-27.36,21.91a92.71,92.71,0,0,1,9.47,1.53,6.5,6.5,0,0,0,7.44-3.22c3.92-6.43,7.21-13.25,10.75-19.91l.3-.35ZM496,694.49l34.19-22.36c1.76-1.15,3.52-2.32,5.82-3.84-3.94-.64-7.18-1.15-10.41-1.73-1.1-.2-1.7.46-2.38,1.06Q510.65,678.83,498.07,690a5.43,5.43,0,0,0-2.05,4.52l-.36,0,0,.23ZM699.32,470.34c-3.48,6.5-7,13-10.43,19.51q-10,19-20,38.08l-.21.47.51-.16c3.63-2.78,7.28-5.54,10.88-8.36a4.36,4.36,0,0,0,1.37-1.71q9.21-23.7,18.35-47.43c.39-1,.79-1.91,1.18-2.86l-.45-.18C700.14,468.58,699.73,469.46,699.32,470.34Zm-14.58,89.48c3.86-2.41,8.24-4.28,11.47-7.35,8-7.59,15.46-15.74,23.13-23.66l1.2-1.25-1.67.8c-7.85,4.13-15.79,8.12-23.29,12.88-1.57,1-3.54,1.57-4.42,3.47q-3.4,7.34-6.79,14.67l-.17.51Zm-121,64.4L513.6,662.35c1.66.75,2.73.89,3.84.18,13.18-8.49,27.37-15.47,38.73-26.71a35.83,35.83,0,0,0,7.89-11.26c.08-.16.15-.32.22-.48Zm-73.89,77.14c-2.56,1.94-6.09,2.66-7.32,6.27-4.9,14.29-9.88,28.56-14.83,42.83-1.5,4.33-3,8.68-4.73,13.8,2.17-1.53,3.72-2.37,4.4-4.1q11.49-29.2,22.95-58.42l.05-.59ZM614.6,631.6c3.71-3.19,7.45-6.33,11.12-9.57,5.78-5.1,11.34-10.46,17.31-15.32,4-3.22,7.53-6.44,8.46-11.72a1,1,0,0,0,.17-.13s0-.08,0-.12l-.09.29a3.22,3.22,0,0,0-1.11.23q-12.84,8.43-25.62,16.9a4.55,4.55,0,0,0-1.45,1.66c-3.08,5.79-6.11,11.62-9.15,17.43l-.11.6Zm42.75-87.75a4.16,4.16,0,0,0-.7.25,495.69,495.69,0,0,0-54.92,39.6l-.68.57.16.29.91-.42c5.19-2.39,10.43-4.69,15.56-7.21,3.63-1.78,7.68-2.84,10.79-5.56,9-7.93,18-16,27-24a5.92,5.92,0,0,0,2.19-3.23l.19-.53Zm44.58,17.57a164.62,164.62,0,0,0-25.83,19.07c-5.53,4.92-6.67,11.94-10,17.92,6.58-4.94,12.6-10.46,19.21-15.17a47.85,47.85,0,0,0,17.05-21.5l.06-.55Zm48.2-57.29,36.52-22.88-10.58-7.43c-2.56,2.54-5,4.74-7.15,7.12-6.76,7.3-14.67,13.63-19.18,22.83l-.13.55ZM552.26,618.68c-13.39,7.23-26.66,14.73-40.24,21.58-5.45,2.74-8.82,6.18-10.42,12.15-2,7.26-4.79,14.27-7.34,21.66,5.34-2.42,9.89-6.65,11.35-11.49,2-6.71,5.87-11.62,11.58-15.82,12.07-8.86,23.65-18.39,35.43-27.64l.29-.37ZM870.51,410.52a2.75,2.75,0,0,0-.63.35Q836.13,440.41,802.39,470a10.27,10.27,0,0,0-1.07,1.3,5,5,0,0,0,2.42-.89c13.44-8.5,26.55-17.6,40.42-25.31,10.64-5.91,18.28-13.62,22.19-25.09,1.11-3.27,3.43-6,4.12-9.51l.36-.06-.06-.21ZM694.74,538.87c10-5.39,19.35-12,29-18a3,3,0,0,0,.91-1.14q7.81-14.76,15.6-29.52v-.61L740,490a13.86,13.86,0,0,0-1.51.84q-16.61,12.6-33.17,25.24a4.35,4.35,0,0,0-1.25,1.51c-3.26,6.91-6.48,13.84-9.72,20.77l-.17.63ZM517.6,716.6q17.77-15.5,35.56-31c4.61-4,9.19-8.06,14.16-12.42l-23.41-3.7a1.8,1.8,0,0,0-2.2,1.06q-12.23,22.88-24.54,45.7l-.1.6Zm-13.8,18.2Q486.54,748.9,469.27,763a4,4,0,0,0-1.16,1.57q-6.94,17.85-13.81,35.74c-.25.3-.48.61.06,1.06l.43-.59c5.81-5.95,11.64-11.87,17.43-17.84,5-5.13,10.87-9.68,14.64-15.59,6.53-10.26,11.74-21.37,17.5-32.12l0-.73ZM856,440c-.58.3-1.18.57-1.74.92L812.89,467l-18.41,11.67c4.31,1.23,8.73-1.56,13.36,1.31-5.55,3-10.22,5.53-14.88,8.07-9.91,5.41-20.38,10-29.58,16.48s-17.14,14.72-25.63,22.19l-.58.62.25.24.62-.52c10.88-6.61,21.8-13.15,32.62-19.86,10-6.18,20.57-11.47,29.77-18.73,17.33-13.68,34.18-27.94,51.3-41.88a13.53,13.53,0,0,0,4.57-6.34c0-.2,0-.4,0-.6ZM548.14,660.14c.51-.28,1-.53,1.51-.85,22.29-14.7,44.39-29.71,67-43.95,7.51-4.73,9.3-12.43,14.21-19.69-1.26.57-1.54.67-1.79.82q-34.77,21.31-69.54,42.66a5,5,0,0,0-1.71,1.73c-3.41,6.27-6.76,12.59-10.13,18.89l-.09.61Zm87.55,3.56c.88-.76,1.8-1.48,2.64-2.28,11.06-10.47,22.91-20,29.63-34.5,7.16-15.44,15.74-30.21,23.7-45.28l.94-1.79-1.43,1.23c-7.1,5.77-14.07,11.69-21.34,17.23a32.94,32.94,0,0,0-10.29,13.06c-7.9,17.39-16.18,34.61-24.3,51.9l0,.76ZM759.36,356.87c-5.06,9.45-10.27,18.82-15.14,28.35-15.6,30.53-33.76,59.8-44.92,92.51-4.34,12.73-9.55,25.15-14.37,37.71l-.61,1.13,1-.8c4.15-3.8,9.73-5.93,12.17-11.71,14-33.24,28.17-66.4,42.26-99.59q10-23.62,20-47.29l1.28-2.8-.44-.17Zm114.95,45.44c-.72.41-1.46.79-2.15,1.25-18.68,12.17-37.44,24.23-56,36.59-8.41,5.61-17.66,10.05-24.72,17.59-4.57,4.89-9.29,9.63-14,14.52,3.11,2.19,6,4.13,8.79,6.24,1.43,1.08,2.38.87,3.66-.26q41.26-36.24,82.61-72.4a5.5,5.5,0,0,0,2.09-3.28l.3-.32Zm-29-298.5q42.87-79.37,85.76-158.72a5.74,5.74,0,0,0,.61-3.34c-.59-8-1.13-16.11-1.73-24.16-.67-9.08-1.37-18.15-2.13-28.06-.65,1.46-1,2.15-1.29,2.88q-29.6,76.26-59.16,152.53-11.31,29.18-22.57,58.38c-.23.38-.55.74,0,1.23Zm94.62,70.62c-.56.82-1.16,1.61-1.67,2.45Q866.74,297,795.25,417.14q-14.49,24.35-28.87,48.75l-.22.58.58-.11c1.44-1.31,2.37.42,3.7.68.46-.65.95-1.31,1.38-2q80.77-127.11,161.51-254.22a9,9,0,0,0,1.37-3.15c1.89-11,3.71-22,5.54-33,0-.3.06-.6.19-1.77ZM472.17,817.17c4-.94,8.16-.66,11.61-3.74,17.2-15.36,34.59-30.52,51.81-45.86,3.43-3.05,7.25-5.65,9.52-10,10-19.27,20.24-38.41,30.4-57.6,4.07-7.71,8.13-15.43,12.44-23.6-3.66.17-6.77-2.63-10.05.79-13.32,13.88-26.83,27.58-40.2,41.41-9.34,9.67-18.9,19-25.72,31-12.92,22.7-26.77,44.88-40.22,67.28v.58ZM749.22,479.73c4.28-3.51,9.77-5.78,12.69-10.67q89.25-149.68,178.32-299.48a8.47,8.47,0,0,0,1.47-3.12c1.42-13,5.17-25.82,3.74-39.13-.53-4.91-.8-9.85-1.25-15.52-.81,1.38-1.24,2.06-1.62,2.78l-47.12,88.57q-51.93,97.59-103.86,195.19-21.5,40.44-42.92,80.91V480Zm-28.88-53.89c3.44-6.46,7-12.88,10.3-19.4,19.24-37.5,40.16-74.09,56.55-113.1C834.9,179.78,883.45,66.57,931.69-46.77a6,6,0,0,0,.11-5.16c-.47.83-.85,1.47-1.2,2.12Q892.07,21.58,853.56,93c-6.11,11.35-13.31,22.22-18,34.22Q789.5,245,743.94,363q-12.09,31.17-24.11,62.36l-.47,1.41.31.15ZM588.17,586.17c.36-.19.75-.35,1.1-.57,25-15.75,49.47-32.33,72.28-51.22a14,14,0,0,0,3.76-4.23c8.34-15.91,16.77-31.78,25.14-47.68,6.36-12.07,13.85-23.7,18.8-36.32q58.13-148.3,115.4-296.93c.35-.89,1.09-1.78.48-3.46-.84,1.48-1.45,2.52-2,3.59Q719.84,340.63,616.58,531.91q-14.52,26.9-28.94,53.85l-.07.63Zm129.58-95.79,14.14-10.78a6.23,6.23,0,0,1,.73.71,2,2,0,0,1,.29.56c-7.49,9.15-19.48,13.86-23.9,26.35.89-.41,1.26-.53,1.58-.73,8.58-5.59,17.25-11.05,25.67-16.87,3.28-2.26,6.85-4.26,8.89-8.14,11.3-21.5,22.76-42.93,34.17-64.37L943,109.48a5.74,5.74,0,0,0,.93-3.28q-2.52-33.48-5-67c-.37-4.91-.78-9.81-1.23-15.54-.8,1.49-1.22,2.19-1.57,2.93Q907,88.2,877.91,149.78q-63,133.34-126.07,266.64-17.34,36.66-34.61,73.34l-.07.83Zm-351,551.25.78.3c.54-.59,1.1-1.17,1.61-1.78l35.13-42.61q85.67-103.95,171.33-207.9c1.38-1.68,2.11-3.57,2.6-6.72-4.88,6-9.14,11.19-13.32,16.45a6.09,6.09,0,0,1-3.84,2.4c-23.19,4.54-46.34,9.31-69.56,13.68-6.16,1.16-11.43,3.17-15.94,7.71-4.86,4.89-10.3,9.22-15.44,13.84a11.76,11.76,0,0,0-2.22,2.65c-12.62,20.87-25.27,41.72-37.77,62.66-4.3,7.21-9.72,13.89-12.53,21.82-12.17,34.33-24,68.79-35.93,103.2C370,1032.09,368.39,1036.86,366.75,1041.63ZM485.93,814.3c1.8-.2,2.61-.23,3.39-.39,22.84-4.54,45.67-9.17,68.54-13.56a11.28,11.28,0,0,0,7.43-4.71c3.11-4.12,6.59-7.95,9.69-12.08,2.58-3.43,6-6.28,7.58-10.45q14.87-38.37,29.8-76.73c1.95-5,3.85-10,5.84-15.2-8.55-1.34-16.79-2.53-25-4-2.35-.42-3.51,0-4.66,2.2q-21.21,40.44-42.6,80.79a10.67,10.67,0,0,1-2.41,3.14q-25.5,22.44-51,44.93C490.57,810,488.61,811.87,485.93,814.3ZM788.31,295.47l.8.4q3-5.65,6-11.3Q865.5,151.42,935.94,18.28a8.74,8.74,0,0,0,1.07-5C936.29,4,935.64-5.31,935-14.6c-.71-9.49-1.43-19-2.22-29.43C884.33,69.73,836.32,182.6,788.31,295.47ZM699.74,503.68l.56.44c3.28-2.54,6.51-5.14,9.85-7.61a12,12,0,0,0,3.84-4.75q36-76.29,72-152.52Q855.15,193.07,924.27,46.89c.45-1,1.25-1.88.91-3.81-.85,1.53-1.42,2.5-1.95,3.5L800.29,279.14c-8.75,16.55-18.51,32.66-26,49.76-22.28,50.88-43.66,102.16-65.4,153.28ZM668.18,633.75,852,463.46a3,3,0,0,0-2.67.52q-23.88,15.74-47.73,31.5c-11.31,7.49-23,14.46-33.76,22.7-16,12.26-31.3,25.38-46.8,38.26-3.88,3.22-8.49,5.74-11.28,10.11q-20.49,32.09-40.84,64.27C668.48,631.53,667.64,632.16,668.18,633.75Zm-128,35.44c-1.43-.6-2.07.23-2.79.7q-20.76,13.67-41.51,27.32a6.82,6.82,0,0,0-2.73,3.41q-9.56,24.51-19.15,49c-.9,2.29-1.78,4.57-2.68,6.86a4.46,4.46,0,0,0,2.37-1.24c8.28-7.24,16.33-14.74,24.88-21.64A73.88,73.88,0,0,0,519.36,708C525.74,694.87,533.12,682.2,540.14,669.19Zm80.14-53.54a13.42,13.42,0,0,0-1.67.6q-36.45,24-72.9,48.08a4.1,4.1,0,0,0-1.94,3.07c7.86,1.23,15.67,2.39,23.45,3.7A4.07,4.07,0,0,0,571,670c10.35-9.14,20.41-18.65,31.25-27.18C611.21,635.78,614,625.26,620.28,615.65Zm20.81,6.61c-1.34,1-1.88,1.32-2.37,1.72-8.17,6.69-16,13.82-24.6,20A58,58,0,0,0,594,669.27c-.78,1.86-2.23,3.43-2.57,5.62L619,679.2C626.31,660.36,633.53,641.76,641.09,622.26ZM561,635.76c1.12-.67,1.91-1.13,2.68-1.6,17.52-10.74,34.73-22,52.67-32,11.68-6.5,20.64-14.61,25.29-27.24a60.74,60.74,0,0,1,3.44-6.58c-2.47,1.31-4,2.06-5.54,2.94-7.22,4.27-15.42,7-21.78,12.53-18.36,15.93-36.41,32.21-54.58,48.36A5,5,0,0,0,561,635.76Zm-201.36,420c-3.49,3.77-7.71,7-9.61,11.71-7.1,17.65-13.94,35.41-20.81,53.15-.65,1.67-1.78,3.26-1.62,5.17.47,5.59,1,11.18,1.58,17.74ZM508.38,661.6c1.67.9,2.74.16,3.84-.68,17.91-13.7,35.89-27.32,53.71-41.14,3.85-3,4.81-8,7-12.14a33.9,33.9,0,0,0-7.06,3.93c-17,13.15-33.8,26.5-50.9,39.48C511.29,653.87,509.81,657.47,508.38,661.6Zm-26.25,115-.47-.35c-.63.59-1.28,1.16-1.88,1.78-7.08,7.27-13.77,15-21.33,21.7-7,6.22-9.83,14.28-12.81,22.8,3.73-.73,7.29-1.47,10.87-2.08a4.29,4.29,0,0,0,3.37-2.48c4.58-8.67,9.28-17.27,13.93-25.9C476.59,786.94,479.36,781.77,482.13,776.62ZM636,589.79c8-4.91,15.23-9.33,22.44-13.77a2.13,2.13,0,0,0,.89-.84c2.32-5.92,4.61-11.86,7.23-18.6-6.48,3.54-12.2,6.66-17.9,9.82a2.31,2.31,0,0,0-.75,1C644.11,574.55,640.29,581.74,636,589.79ZM396.56,949.31l-.46-.17L353.44,1058.5c3.32-4.22,7.84-7.35,9.66-12.64,8.15-23.75,16.46-47.45,24.69-71.17Q392.2,962,396.56,949.31Zm60.69-126.54c-8,.21-14.86,1.62-16.22,11-.26,1.76-1.27,3.42-1.94,5.12q-3.85,9.95-7.72,19.9c4.19-2.94,8.79-5.66,11.37-9.67C448.11,840.75,452.41,831.71,457.25,822.77ZM625.88,609c8-5.29,14.83-10.45,22.26-14.47,6.31-3.43,7.05-9.47,9.94-15.87-8.51,5.24-16.11,9.92-23.7,14.61a1.49,1.49,0,0,0-.46.58Zm-51.53,65.14c-2.49,0-4.09-.93-5.94.72-14.74,13.08-29.6,26-44.42,39-2.15,1.88-4.26,3.79-6.39,5.69l.57.65ZM439.12,856.34c-3.64,3-8.45,4.89-10.4,9.36-3.06,7-5.63,14.19-8.36,21.33-.92,2.39-1.68,4.85-2.52,7.28l.64.25ZM947.65,129.93l.33.06,6.15-36c-2.8,4.14-5.08,8.45-7.42,12.73a5.67,5.67,0,0,0-.62,3.35Q946.89,120,947.65,129.93ZM662.31,573.3c10.85-3.57,10.2-14.2,14.58-21.65-2.77,1.22-6.38,1.5-7.64,4.1C666.57,561.32,664.64,567.27,662.31,573.3ZM671,551.9c2.8-1.59,6.29-2.39,7.57-4.53,2.92-4.89,4.75-10.42,7-15.71C676.62,535.37,673.1,542.83,671,551.9Zm-14.37,36.35c7.73-2.13,8.52-9.26,11.44-15.4C661.17,575.88,659.74,577.85,656.65,588.25Zm.76,9.25c-7.16,3.29-8.51,10.36-11,17C651.64,611.83,654.62,607.13,657.41,597.5Zm6.38-60.91c10.36-4.87,15-8.88,15-13.25C674,527.91,668.11,530.6,663.79,536.59Zm111.06-66.14L786,460.3l-.28-.33-13.34,8.7Zm-165,237.74.53.23,12.24-28.82-1.35-.56Q615.61,693.62,609.9,708.19Zm30.45-142.6c3.76-1.6,8.67-1.68,9.56-7.31Zm48-4.48c-4.07,1.24-7.67,3-8.21,7.3ZM505.93,669.57l8.29-5.11C509.51,664.44,507.66,666.91,505.93,669.57ZM937.09,209.85l-.6-.18-1,5.7.29.06C936.22,213.57,936.66,211.71,937.09,209.85ZM397.49,946.68l-.29-.28-.66,1.89.27.1ZM610,709.33c-.51.35-1.11.76-.65,1.58Zm325.35-492.2-.11,0v.73h.07Zm-234.49,359c.62-.11.66-.32.38-.79Zm-92,135.49h-.15v.57h.11ZM775.91,463.72l-.13-.41c-.14.07-.37.11-.41.22s.09.29.15.44ZM417.79,895.08Zm368-593.39c-.05,0-.13,0-.15,0a.59.59,0,0,0,0,.2l.24-.05ZM940.3-67.57h0l-.07.4h0ZM366.51,1042.62c.51-.08.94-.33.29-.71Zm460-898.25a13.11,13.11,0,0,0-1.16,1c-.19.31-.18.63.25.63C825.78,146,825.9,145.54,826.55,144.37Zm-177.76,412,.09-.15h-.17Zm56.84-1.57.16.1v-.18Zm-16.8,5.43c-.05,0-.09-.12-.14-.12s-.1.07-.15.11.09.12.14.12S688.78,560.28,688.83,560.24Zm-35.55-8.06-.11.16.16,0Zm-13.47,13.93-.17.13c.05,0,.09.13.15.13s.1-.07.15-.11ZM928.18,37.63l-.08.15h.3s0-.12-.08-.15S928.23,37.63,928.18,37.63ZM629.27,574.38l.16-.12s-.09-.12-.14-.13-.11.07-.16.11Zm32.39-32.71.11.1,0-.16Zm.8-.91-.15-.18-.1.33s.12,0,.15,0S662.43,540.81,662.46,540.76ZM620.1,578.23l.14.08,0-.12ZM928.86,36.68l-.13-.08,0,.3s.11,0,.14-.07A.37.37,0,0,0,928.86,36.68ZM675.77,532.18l-.11.17.16,0ZM929.35,35.68l-.13-.08v.3a.32.32,0,0,0,.13-.07S929.35,35.73,929.35,35.68ZM748.88,530.78s-.1-.15-.16-.15-.11.08-.17.13.1.15.16.15S748.83,530.83,748.88,530.78Zm-69.64-7.35.07-.15h-.12ZM646.9,606.77l-.13-.16-.09.29s.1,0,.13,0A.48.48,0,0,0,646.9,606.77Zm-99.5,6c0-.06-.1-.16-.15-.16s-.12.08-.19.13.11.15.17.15S547.35,612.81,547.4,612.77Zm382.5-578-.14-.18s-.14.1-.14.16.08.12.12.18Zm.49-1-.13-.18s-.13.1-.13.15.07.11.11.16Zm.48-1-.11-.16s-.13.09-.13.14.07.11.11.16A.86.86,0,0,0,930.87,32.77Zm.29-1,.11.09,0-.15ZM641.74,675.41l.09-.17h-.14ZM931.83,30.77l-.1-.08,0,.14ZM641.26,676.1s-.12.09-.13.14.07.11.11.17.12-.09.13-.15S641.3,676.16,641.26,676.1Zm-18.52,2.84.09-.17h-.16ZM815,479.75l-.15-.16-.1.29s.12,0,.15,0S814.92,479.8,815,479.75ZM486.27,700.94l.2-.17c-.06-.06-.12-.15-.18-.16s-.12.1-.18.15ZM800.6,471.83l.17.17.09-.34c-.06,0-.14,0-.17,0S800.63,471.78,800.6,471.83Zm-99.46-5.07.14.1v-.18ZM597.39,745.22l-.12-.16-.15.15.2.16Zm342-810.5-.13-.16-.14.15.19.16ZM596.88,746.25l-.11-.16s-.12.09-.13.14.07.1.1.16Zm-133.62,17.8-.09.18h.16Zm123.66,4.68-.15-.18c-.06.05-.15.11-.15.16s.08.12.13.18ZM482.4,775.8l-.13-.16c0,.05-.14.1-.14.15s.08.11.12.16A1.06,1.06,0,0,0,482.4,775.8Zm95.78,7.33-.08.17h.31s0-.12-.08-.16S578.23,783.14,578.18,783.13ZM939.72-66.1c0-.05.13-.09.14-.14s-.07-.11-.11-.17-.12.1-.13.15S939.69-66.15,939.72-66.1ZM870.56,430.73l.18.09v-.16ZM486.2,814.1l-.09.14.32,0a.36.36,0,0,0-.08-.15S486.25,814.1,486.2,814.1ZM844.37,105.18l-.13-.09,0,.31s.11,0,.14-.07A.37.37,0,0,0,844.37,105.18ZM423.89,869.27l-.12-.16-.09.29s.1,0,.13,0A.32.32,0,0,0,423.89,869.27ZM761.27,353.13c0,.05-.13.09-.13.14s.06.1.1.15.12-.09.13-.14S761.3,353.18,761.27,353.13Zm65.08-209-.15-.09v.34s.13,0,.15-.09S826.35,144.22,826.35,144.17ZM786.28,300.6c-.06,0-.15.09-.15.15s.07.11.12.17.14-.1.14-.16S786.31,300.64,786.28,300.6Zm.42-1-.08.15h.28a.41.41,0,0,0-.07-.15S786.74,299.64,786.7,299.63Z" transform="translate(-326.31 115.51)"/></svg>