<svg id="Layer_1" data-name="Layer 1" xmlns="http://www.w3.org/2000/svg" viewBox="0 0 1264.05 630.14"><defs><style>.cls-1{fill:#3CB371;}</style></defs><path class="cls-1" d="M416.23,629.74l8,12.53a1.66,1.66,0,0,1-1.62,1.25c-4.43-5.06-9-10.08-13.36-15.33a27.08,27.08,0,0,0-10.12-7.73c-6.89-3.07-13.61-6.51-20.4-9.79l-.59-.06c.06.17.13.35.2.53,4.5,7.19,9,14.39,13.51,21.56.72,1.14,1.18,2.08-.79,2.66-7.22-8.81-14.61-17.6-21.74-26.59a23.38,23.38,0,0,0-9.64-7.53c-3.23-1.33-6.31-3-9.46-4.51l-.82-.08.17.59,10.7,16.6c-1.11,2.06-2,.83-2.9-.18q-40-43.15-79.95-86.31-53.64-57.9-107.27-115.83a14.37,14.37,0,0,0-3.93-3c-34.68-18.42-69.41-36.74-104-55.38C54.2,348.8,47.77,342,40.66,336.26c-4-3.23-8.12-6-13.08-7.49-8.69-2.55-14.43-9.4-21-14.83Q-115.35,213.73-237,113.28c-3-2.48-6.77-3.09-10.27-4.31q-44-15.39-88.12-30.63c-1.3-.44-2.68-.75-1.85-2.73a107.47,107.47,0,0,1,25.83-.91c4.31.38,8.44,2.89,12.62,4.51,12.71,4.94,25.41,9.92,38.31,15,1.08-1.83,2.49-1.26,4.08-.63q57.15,22.71,114.33,45.35a4.32,4.32,0,0,0,2.73.34L-146,135c.35-2.23,1.53-1.46,2.64-.86,8.2,4.43,16.31,9,24.61,13.25,14.57,7.39,30.15,12.34,45.2,18.59a106,106,0,0,0,14.94,5.17,56.12,56.12,0,0,1-4.06-4.81c-.91-1.35-3.61-2.18-1.88-5.12,3.55,4,6.79,7.67,10,11.34A5.92,5.92,0,0,0-52,174.53q17.8,6.15,35.59,12.34a9.84,9.84,0,0,0,1.4.24c-.69-3.54-1.33-6.86-2-10.18l1.06-1,10.6,11.75a23.06,23.06,0,0,0,10.49,6.75c10.61,3.39,21.1,7.17,31.63,10.8l1.63.5-1-1.09-6.2-7.91c0-.71.55-1,1.4-1.41,3.12,3.56,6.29,7.16,9.45,10.78a6.28,6.28,0,0,0,2.75,2q28.38,9.8,56.74,19.69a17.21,17.21,0,0,0,1.71.35l-4.74-7.35,1.89-1.74c5.83,11.12,16.09,15,27.82,17.49-1.52-2.58-2.85-4.81-4.22-7.12.83-1.31,1.73-1.56,2.51-.05,4.33,8.34,11.8,12,20.44,14.25,5.68,1.5,11.18,3.74,16.76,5.66.57.23.93.24.6-.54-1-1.84-1.88-3.71-2.91-5.51-.72-1.27-.23-1.8,1-2.1.18.1.4.15.45.26,3.45,7.79,9.43,12.31,17.75,13.82a3.27,3.27,0,0,1,2.43,2.22c8,17,15.91,34.07,24.08,51,3.77,7.81,9.19,14.65,13.87,21.93a6.17,6.17,0,0,0,2.36,1.73q122,65.91,244,131.79c72.56,39.17,145,78.54,217.79,117.31,12.4,6.6,26.16,10.67,39.33,15.78q100,38.85,200.06,77.63c1.29.5,2.59.94,1.65,3l-54.49,4c.2,1.19,1.29,1.23,2,1.62q13.05,7.11,26.14,14.12c1.18.64,2.35,1.15.75,2.77-11.59-4.93-23.25-9.78-34.81-14.86a24.94,24.94,0,0,0-12.69-2.37c-17.74,1.54-35.52,2.71-54.44,4.1l28.13,14.94c-.39,2.29-1.55,1.53-2.7,1-10.23-4.84-20.47-9.65-30.68-14.53a7.61,7.61,0,0,0-4.06-.76q-39.72,3-79.46,5.9c-.62,0-1.24.18-2.7.39l18,9.7c-.06.23-.11.47-.16.7-2.56,0-5.18.37-7.66,0q-53.29-9-106.56-18.19c-.82-.14-1.65-.19-2.66-.31.15,1,1.18,1.85-.48,2.9-5.72-1.29-11.95-2.7-18.17-4.09-12.1-2.72-24.2-5.41-36.29-8.17-1-.23-2.87,0-1.82-2.51l43.46,7.37.27-.68L348.18,523.67c-.86.71-.43,1.15-.19,1.53,6,9.41,12.11,18.56,20.36,26.36,21.12,20,41.79,40.43,62.63,60.7q21.4,20.82,42.79,41.66c.87.85,2.16,1.66.24,3.07l-57.27-27.82-.64,0C416.14,629.33,416.19,629.53,416.23,629.74ZM81,254c.1.09,0,.59.35.2L81,254l-.52-.48L80,252.48l-.53-.5-.14-.12s.08,0,.17.09l.54.49.42,1.06ZM413,629c.06.11.12.21.05.1L413,629l-.48-.51-.26-.75c-.23-.59-.42-1.23-1.23-1.26l-.5-.33-.12.18.54.27c0,.74.5,1.09,1,1.42l.53.47Zm-33.54-11.46.13.41.24-.2-.34-.23-.27-.73c-2.64-3.34-3.3-8.36-8.24-9.75l-.48-.33-.06.21.56.08c2,3.88,5.11,6.86,7.92,10.1ZM116.05,300.45l-.43-.57a10.22,10.22,0,0,0-.65-1.05Q99.6,280.11,84.2,261.4c-1.11-1.35-2.08-3-3.52-3.83-10-5.5-20.05-10.8-30.09-16.16l-.52-.22.26.48c3.42,3.4,6.78,6.86,10.27,10.18C68,258.94,74.72,267,84.25,271.54c5.2,2.51,9.09,6.6,13,10.71,5.87,6.13,12,12,18,18.05l.49.47.68.15ZM348.8,601.19l.44.58.22.89.59-.56-.51-.64-.35-.65-.66-.33ZM117.05,302l-.12-.43-.29.19.35.28.25.36.2-.26Zm11.23,14.71-.4-.44q-16.8-17.07-33.61-34.13c-3.08-3.13-6-6.52-10.24-8.13-.21-.35-.44-.57-.84-.17l.58.48Q98.38,288.56,113,302.84c4.76,4.63,9.59,9.18,14.39,13.77l.5.49.5.5.5.5.5.5.5.5.5.5.5.5.5.5.56.44.51.49.5.5.5.5.5.5.5.5.5.5.54.46.23.34.11-.29-.38,0c-.06-.25-.12-.5-.19-.75l-.5-.5-.5-.5-.5-.5-.5-.5-.5-.5-.5-.53-.51-.53-.5-.5-.5-.5-.5-.5-.5-.5-.5-.5-.49-.5ZM331.84,564.16l.61.34-.22-.72-.51-.36ZM366,552.54l.37.63c.2.36.37.74.59,1.09,13.95,21.41,28,42.75,41.78,64.26a25.23,25.23,0,0,0,11,9.86c15.84,7.36,31.47,15.14,47.18,22.77l.89.39.44-.54-.85-.31c-1-1.08-2.05-2.19-3.13-3.23L418.73,603.2l-52-50.5-.51-.48-.54-.16ZM340,512.47c0,.15.06.3,0,.09.17.14.05,0-.07,0l-.5-.49,0-.12c-.18-.22-.06-.07.06.08Zm-128.55-168-.3-.72-.64-.83-1.93-2.56c-4.79-6.35-9.75-12.59-14.32-19.1a21,21,0,0,0-9.56-7.55l-.59-.12.26.46,23.75,26.8c.68.78,1.36,1.57,2,2.35l.78.78.53.47c.17.17.34.33.5.5l.51.49.31.3-.35-.26L212,345Zm-58.93.44-.43-.57c-4.15-5.4-9.54-9.54-14.43-14.78-.45,2.78-.81,5-1.2,7.39l15.25,7.88.61.31.56.05Zm14.22,6.68-.39-.4-.77-.83q-13-15-26.06-30.08c-.27,1.83-1.68,3.21-.1,4.77,8.63,8.52,17.15,17.15,25.71,25.74l.74.78.49.49.51.5.51.49.54.21c-.06-.2-.12-.39-.17-.58l-.5-.51Zm65.8.8-.39-.36.28.47.56.43c0,.25.07.5,0,.12L233,353C232.85,352.82,232.71,352.62,232.57,352.43ZM301,457.48c.1.1,0,.61.35.2l-.38-.16c0-.19.15-.55-.31-.33Zm-134-99-.21-.36-.13.27.38,0,.29.73.44.58.66.8.46.54,22.53,27.69c3.16,3.88,8,3.92,12.47,5.24l-34.61-33.42-.4-.41-.84-.75-.51-.49Zm137.35,90.63.69.32c-.2.5,0,.81.47,1,.1.11.19.21.06.07l-.09,0a.71.71,0,0,0-.49-1l-.43-.56-.45-.56-.39-.63-.5-.35c.07.22.13.45.2.67l.53.47ZM255.46,398l-.24-.34.29.31.51.48.77,1.2.47.58c.18.29.24.76,1,.46l-.71-.75-.49-.5c-.17-.52-.37-1-1.06-1C256,398.17,255.9,397.92,255.46,398Zm-28,19.45.51.5a1.42,1.42,0,0,0,1.23,1.23A1.34,1.34,0,0,0,228,418l-.5-.5L227,417l-.5-.5,0,0,.51.5ZM176.9,415.6c.18.27.37.59.7.22.06-.07-.16-.38-.25-.58l-.78-.14ZM271,411.53c0-.16-.08-.32,0-.09-.19-.15-.06-.05.07.05l.52.47.08.17-.12-.14C271.33,411.83,271.15,411.68,271,411.53ZM87.58,261.42l-.52-.23.19.55c.21.17.37.61.69.17C88,261.86,87.71,261.58,87.58,261.42ZM221.94,408.56l.4.32-.25-.47-.29-.67c-1.61-2.85-3.08-5.87-7.42-6.09l7,6.45Zm-61.36-7.15c-.16-.13-.44-.39-.48-.36-.42.33,0,.48.18.67l.56.15ZM269,403.47l-.54-.45a.79.79,0,0,0-.5-1l-.19-.34-.13.24.36.06c-.07.45-.06.86.48,1l.4.61.54.94c1.18,1.65,1.36,4.23,4.11,4.39l.09.21-.12-.18-3.73-4.7ZM-98.47,161l.12.38.25-.18-.42-.15c-.15-.44-.37-.63-.93-.13Zm164,99-.29-.71c-3.37-3.34-6.65-6.76-10.12-10-6.37-5.91-11.9-12.7-20-16.63-9.2-4.45-18-9.63-27-14.49L-8.1,209.56c-.38,5,1.95,7.88,6.14,10.13,7.1,3.81,13.87,8.24,20.79,12.39q23,13.8,46,27.58l.67.33.51.38.09-.22ZM178,269l.34.68c.15.34.31.68.46,1l.54,1,.27.62c2.59,4.82,5.06,9.71,7.78,14.46,7.18,12.57,12.7,26.16,22.44,37.19.75.86,1.23,2,2.57,2.19l.36.28c0-.2,0-.41,0-.61-8.12-19.65-21.55-36.08-32.67-53.9-.12-.21-.24-.41-.35-.62l-.66-.86-.62-.9L178,269c0-.26-.05-.51,0-.12C177.72,268.6,177.87,268.79,178,269ZM309,531.49l-.33-.68c-.19-.3-.37-.61-.56-.92-9.35-15.33-18.9-30.54-27.95-46-3-5.12-7.11-8.35-12.11-10.92l-.36-.3,0,.61c4.14,6.33,8.24,12.68,12.42,19,8.67,13.08,16.82,26.53,27.56,38.11l.73.78.58.43c0,.34-.11.72,1.86.37ZM237.5,427l-.34-.12.37.08A.8.8,0,0,0,238,428c.49.86.92,1.75,1.48,2.56,5,7.24,11.29,13.42,17,20.07,2.13,2.47,3.86,5.39,6.83,7.08l.55.11c-.06-.16-.13-.32-.19-.49-5.54-12.36-16-20.52-25.34-29.62ZM319,522l.34.1-.37-.06c.12-.47.08-.87-.44-1.07l-.66-1.28c-5.68-9.09-11.2-18.3-17.81-26.77,4.39,10,9.12,19.72,17.35,27.16.22.46.41,1,1.06.94C318.63,521.36,318.8,521.69,319,522ZM-20,211.53l-.05-.37-.22.07.33.26.63.82,11.46,13.21c-.66-2.93.6-6.39-2-8.31a100.85,100.85,0,0,0-9-5.33C-19.21,211.54-19.53,211.25-20,211.53ZM343.52,588l.5.5c0,.23.08.47,0,.1.24.28.09.11-.06-.06l-.5-.5c.09-.46.07-.87-.5-1l-.12-.43-.22.23.38.16C343.19,587.31,343.35,587.65,343.52,588ZM225,440l.11.37.25-.17L225,440c-.19-.15-.39-.29-.07-.05C224.5,439.91,224.76,439.94,225,440ZM210,328l.29.72c4.28,8,8.45,16,12.87,23.94,2.75,4.9,4.69,10.31,8.79,14.4l.36.35-.17-.55c-3.56-7.68-7.23-15.32-10.66-23.06-2.61-5.89-6.94-10.49-10.92-15.37L210,328v-.11C209.74,327.65,209.88,327.82,210,328ZM326,510l-.28-.29.32.26.72.79L337.91,523l2.89-4.14-13.74-8.45A.81.81,0,0,0,326,510ZM155.51,281.49l.21.37.13-.28-.37-.06c.26-.5,0-.82-.38-1.11l-7.29-12.28c-.53,1.76-1.63,3.33-.12,4.94,2.38,2.53,4.67,5.15,7,7.73Zm77,166c-.07-.12-.13-.24,0-.07-.2-.09-.06,0,.08,0,.17.5.56.55,1,.49l.5.5,2.18,1.58c-1.15-1.43-1.59-1.71-2.22-1.54l-.5-.5ZM192.55,301l-.22-.7c-7.24-13.39-14.74-26.65-21.59-40.24-2.75-5.44-6.19-8.81-12.15-10.41-7.26-1.95-14.28-4.79-22.49-7.62,4.32,4.92,6.3,10.44,12.51,11.85,6.78,1.54,11.48,5.73,15.62,11.36,8.88,12.06,18.39,23.65,27.65,35.43l.48.54.39.64.29-.19ZM252,449l-.2-.35-.13.26.37,0a.8.8,0,0,0,.42,1.07c.75,1.37,1.2,3,3.78,3.65l-3.44-3.93ZM84.47,356.53l-.12-.4-.26.2.43.15c.16.4.37.63.92.13Zm1.83-1.81.89.6,71.21,45.33c.42.27.83.59,1.37.17-.08-.22-.09-.52-.24-.67-9.49-9.6-17.11-21-30.71-26.24-14.08-5.45-27.49-12.63-41.19-19.05l-1-.5-.94-.39-.13.29ZM275.56,464a.78.78,0,0,0,.06.17s0-.05-.1-.14l-.74-.77-10.69-10.3-.47-.27.12.59C266,458,269,462.07,274.4,463.62,274.79,463.72,275.17,463.83,275.56,464Zm3.73,31.74.52.27-.25-.51c-.12-.54-.21-1.11-1.22-.93C278.72,495,279,495.35,279.29,495.69Zm22.26-50.25-1.13-.62.83.95c.32.37.5,1,1.22.66A.92.92,0,0,0,301.55,445.44ZM82.06,355l-.53-.48-1.79-1.27c-4.26-2.75-8.31-5.87-13.38-7.2l13.1,7.55,1.91,1.07L82,355c.37.49.75,1,1.52.7A1.42,1.42,0,0,0,82.06,355ZM341.52,584.48c-.12-.22-.25-.43-.37-.64l-.87-1.61c-5.42-8.88-10.94-17.69-16.21-26.65a104.61,104.61,0,0,0-13.54-18.11l-.44-.31c.07.18.13.37.19.56,2.21,3.42,4.37,6.86,6.62,10.25q11.49,17.31,23,34.6l1,1.48.41.62c.18.52.16,1.22,1.22,1.15ZM236.49,450l-.28-.43-.17.14.47.28a1.35,1.35,0,0,0,1.67.79C237.61,450.23,237.21,449.81,236.49,450Zm277.28,86.32c.43.09.82.85,1.39,0l-1-.46c-.64-.39-1.22-1-2.36-.57ZM298.94,455.07l0-.17.05.14c.45.42.5,1.31,1.45,1.26C300.13,455.57,300,454.82,298.94,455.07ZM133.52,388.48l.14.36.23-.19-.41-.13a1.94,1.94,0,0,0-2-1l-.28-.43-.17.14.47.28A2.08,2.08,0,0,0,133.52,388.48Zm208,126-.68-1-.29.22.73,1c.29.6.34,1.41,1.43,1.55A2.27,2.27,0,0,0,341.53,514.47Zm-103-134c0,.23.08.46,0,.09l0-.06a3.36,3.36,0,0,0-1.38-2.6A3.73,3.73,0,0,0,238.53,380.47ZM89.3,263.23l-.76-.72-.31.28.65.82c.5.83.82,1.87,2.14,2C90.83,264.41,90,263.87,89.3,263.23ZM241,453l.15.08-.18,0c-.14-1.55-1.37-1.6-2.61-1.63ZM127.59,384.9l-1-.56c-13.85-8.29-27.76-16.48-41.52-24.91-12.45-7.63-25.47-14.34-37.42-22.81-1.29-.92-3-1.19-4.58-1.77,6,5.7,11.72,11.69,18.65,15.57,21.25,11.92,43,23,64.49,34.45l.91.48,3.14,1.67.25-.52Zm168,100-.48-.21.08.54c.83,1.51,1.13,3.46,3.72,4.41C297.57,487.66,297,486,295.58,484.91ZM111.26,235.21l-.58-.19.25.55c1.3,2.17,2,4.9,5.6,5.43Zm195.23,259.3.24.31.17-.25-.36-.12c-1.18-2-3.11-3.29-5.25-5.51C302.48,492.13,304.1,493.71,306.49,494.51Zm-80-53.5-.14-.39-.27.2.43.17c3,2.11,6,4.34,9.56,5.45,0,.1.05.21,0,.18l-.08-.15C233.4,443.69,230,442.26,226.49,441Zm648,245.57c.29.35.6.64,1.08.09l-.79-.45c-3.31-1.51-6-4.53-10.29-3.64Zm-610-223,.41.26-.31-.36c-1.7-2.7-3.66-5.12-6.89-6.11l-.54-.09.34.28C258.63,460.89,261.43,462.35,264.44,463.56ZM247,456l-.14-.11.17.07c-.14.92.54,1.33,1.15,1.71,3.42,2.14,6.86,4.24,10.29,6.36l.31.32-.07-.58C255.65,459.91,251,458.51,247,456Zm26,17,0,.38.23-.05L273,473c-2.2-4-6.32-5.27-10-7.19C265.56,469.28,269.15,471.32,273,473ZM-6.59,190.1c.25.33.52.48.88.1l-.51-.49-6.26-7.33C-13.57,187.84-12.71,188.73-6.59,190.1ZM287.49,439.52l-.12-.11.16.06c2.12,4.2,5.44,7.54,8.21,11.27.19.25.87.14,1.33.2l0,0c-1.66-2.58-3.35-5.14-5-7.74C291,441.44,289.91,439.65,287.49,439.52Zm11,2,.36.12-.32-.16c-1.3-2.82-3.59-4.92-5.36-7.4-1.4-2-2.74-4.05-5.53-4.21l-.52-.08.33.27c2.54,2.95,5.05,5.93,7.64,8.83C296.05,440,296.67,441.54,298.49,441.51Zm-44,16,.29.28-.34-.24c-2.8-5.58-9-5.85-13.54-8.74A47.11,47.11,0,0,0,254.53,457.47Zm22.67-31.65-.56-.08.34.28c3.17,3.9,5,9.08,10.64,11.11C285,430.54,281.65,427,277.2,425.82Zm15.26,59.72.42.17-.33-.26a3.77,3.77,0,0,0-.35-1.15c-3.57-5.19-9.5-6.93-14.61-9.87a2,2,0,0,0-.22-.34,1.1,1.1,0,0,0-.2.11l.32.31C281.17,480,287.15,482.29,292.46,485.54ZM218.54,332l-.16-.05.19,0c2,8.16,8.62,13.17,13.22,19.56-3.76-6.43-7.83-12.65-12-18.84C219.59,332.3,219,332.19,218.54,332Zm76,110.54-.26-.26,0,.2h.33c3,5.53,5.18,11.8,13,13.54-3.85-4.32-7.31-8.24-10.8-12.13C296.13,443.21,295.6,442.36,294.49,442.51Zm6.37,58.6.34.67.29-.2L301,501c-2.78-7-6.48-13.17-14-16-.12-.36-.28-.57-.75-.05H287C291,490.89,296,495.91,300.86,501.11Zm-39.36-95.6-.19-.07.22,0c4.91,6.52,8.39,14.36,16.38,18-4.48-5.86-9.34-11.38-14.27-16.84A7.06,7.06,0,0,0,261.5,405.51Zm9.49,59-.31-.1.35.06a4.91,4.91,0,0,0,.36,1.34c3.77,6.69,11.41,7.81,16.94,12C284.54,470.7,277.8,467.56,271,464.51Zm-41.34-49.66-.53-.08.3.3c3.25,6.09,8.81,9,15.62,11.55-2.14-2.85-2.77-6.08-5.32-7.53C236.58,417.3,233,416.23,229.65,414.85Zm-24.57-10.44c-.24-.34-.51-.5-.89-.12l.47.51c4.19,6.84,11.73,8.24,18.28,11.25l.14.32.26-.17L223,416C219.14,408.87,211.83,407.08,205.08,404.41ZM4,196.53c.21-.43,0-.38-.34-.3l.4.26a13.5,13.5,0,0,0,1.64,1q17.55,7,35.11,13.9c.86.34,1.69,1.14,2.77.62-.3.36,0,.34.25.36l-.3-.32a7.67,7.67,0,0,0-4.84-3.94c-5.69-1.85-11.29-4-17-5.82C15.76,200.36,10.11,197.66,4,196.53ZM253.74,463.74l-.58-.14.24.49L278,494.38c-3.13-6.43-7.32-12.11-10.78-18.2A30.86,30.86,0,0,0,253.74,463.74ZM315,521l-.43-.3c0,.2.07.39.1.58L329.55,549c-.14-4.58,1.76-9.34-1.51-13.2C323.79,530.75,319.38,525.89,315,521Zm-70.29-99.74h-.63l.3.35c1.33,2.47,2.22,5.6,4.57,7,5,2.88,10.33,5.06,16.4,7.95-2.31-3.39-2.25-7.26-5.32-8.78C255.1,425.25,249.86,423.35,244.74,421.22Zm-26.53-72,1.34,1.55-.91-1.95c-3-5.7-6.55-11.22-9-17.16-2.54-6.13-7.3-9.1-12.89-11.46l-.55-.13.23.46ZM309,493c-.18-.41-.41-.59-.85-.17l.69.38c7.89,9.59,18.9,14.92,29.11,21.35l.31.32-.07-.58c-1.5-2.27-2.5-5.33-4.59-6.69C325.61,502.42,317.25,497.8,309,493ZM134.76,248.29l.58.07-.2-.5c-3.26-10.46-13.27-10.07-21.12-13.24,2.61,3,4.44,6.89,8,8.7C126.08,245.36,130.5,246.67,134.76,248.29Zm-167.59-52-.55-.18.25.47c5.61,8.9,14.83,13,24.29,18.72-1.78-3.11-.44-6.33-3.1-7.82C-18.84,203.67-25.86,200.05-32.83,196.33ZM250.72,399.77l-.59,0,.3.33c2.28,5,4.54,9.95,6.86,14.91a2.42,2.42,0,0,0,1.19,1.15c3.48,1.35,7,2.63,10.47,3.93.21.11.42.22,1.15.63l-.85-1c-3.41-4.52-7-8.94-10.18-13.6A17.3,17.3,0,0,0,250.72,399.77ZM125.64,247.36l-.53-.17.22.48,19.43,22.17c.89-2.92,1.21-5.15-.49-7.49-2-2.68-3.53-5.64-5.27-8.47-.52-.84-.91-1.79-1.95-2.18Zm77.14,159.35.52.15-.27-.39a14.19,14.19,0,0,0-6.89-6.11c-17.35-7.24-34.62-14.67-51.92-22-.76-.32-1.48-1-2.87-.51,7.81,3.68,15.3,7.23,22.81,10.76Zm63.35,23.65-.57-.19.08.57c1.42,2.78,2.12,6.49,4.77,7.95,6.44,3.55,13.29,6.34,20,9.43l.48.19-.2-.48c-2.76-3.72-4.79-8.36-8.75-10.7C277,434.25,271.43,432.56,266.13,430.36Zm95.41,169.11c0,.12.06.24,0,.1.14.11,0,0-.07-.06Q347.29,582,333.07,564.58a3.43,3.43,0,0,0,.59,2.82c4.65,7.59,9.57,15,13.86,22.82C350.69,596,356.29,597.27,361.54,599.47ZM197.4,294.11l.4.41-.05-.75c-4.9-10.45-10.23-20.72-14.52-31.42-2.31-5.77-6.85-6.38-12.06-8.08ZM-96.85,161.86l-.55-.22.38.38c.09.13.16.31.28.39l63,37.88.62.12-.27-.51c-3-3.85-6-7.59-10.63-9.87-7.15-3.54-14.08-7.53-21.12-11.3Q-81,170.27-96.85,161.86ZM135.44,371.05c0-.1,0-.21,0-.17l.08.14a8.4,8.4,0,0,0,2.91,2.64q28.44,12,56.88,24.1l.58.1-.23-.47a14.91,14.91,0,0,0-7.79-6.52c-15.11-5.65-30.1-11.62-45.15-17.42C140.31,372.54,138.07,371.18,135.44,371.05ZM330.5,503l.31.23V503l-.34,0c-1.53-4-3.48-8.45-6.88-10.51-9.71-5.86-20-10.77-30.07-16l-.28-.34.12.52a12.91,12.91,0,0,0,3.33,4.9C306.77,490.57,319.19,495.91,330.5,503ZM167.93,302.07l.35.3,0-.6c-5.27-10.5-14.38-17.84-21.91-27.36a92.71,92.71,0,0,1-1.53,9.47,6.5,6.5,0,0,0,3.22,7.44C154.45,295.24,161.27,298.53,167.93,302.07Zm-51.46-58,0-.36-.23.05.3.29,22.36,34.19c1.15,1.76,2.32,3.52,3.84,5.82.64-3.94,1.15-7.18,1.73-10.41.2-1.1-.46-1.7-1.06-2.38q-11.2-12.57-22.39-25.15A5.43,5.43,0,0,0,116.47,244ZM340.26,447.83l2.86,1.18.18-.45-2.64-1.24c-6.5-3.48-13-7-19.51-10.43q-19-10-38.08-20l-.47-.21.16.51c2.78,3.63,5.54,7.28,8.36,10.88a4.36,4.36,0,0,0,1.71,1.37Q316.53,438.69,340.26,447.83Zm-88.64-15.46-.51-.17c0,.18,0,.36.07.54,2.41,3.86,4.28,8.24,7.35,11.47,7.59,8,15.74,15.46,23.66,23.13l1.25,1.2-.8-1.67c-4.13-7.85-8.12-15.79-12.88-23.29-1-1.57-1.57-3.54-3.47-4.42ZM186.44,312.06l.48.22-.14-.53L148.65,261.6c-.75,1.66-.89,2.73-.18,3.84,8.49,13.18,15.47,27.37,26.71,38.73A35.83,35.83,0,0,0,186.44,312.06Zm-77.18-73.73.59,0-.21-.52c-1.94-2.56-2.66-6.09-6.27-7.32-14.29-4.9-28.56-9.88-42.83-14.83-4.33-1.5-8.68-3-13-4.46.82,1.83,1.57,3.45,3.31,4.13Zm70.49,123.88-.6-.11.25.5c3.19,3.71,6.33,7.45,9.57,11.12,5.1,5.78,10.46,11.34,15.32,17.31,3.22,4,6.44,7.53,11.72,8.46a1,1,0,0,0,.13.17s.08,0,.12,0l-.29-.09a3.22,3.22,0,0,0-.23-1.11q-8.43-12.84-16.9-25.62a4.55,4.55,0,0,0-1.66-1.45C191.39,368.28,185.56,365.25,179.75,362.21Zm47.55-12.48-.57-.67-.29.16.42.9c2.39,5.19,4.69,10.43,7.21,15.56,1.78,3.63,2.84,7.68,5.56,10.79,7.93,9,16,18,24,27a5.92,5.92,0,0,0,3.23,2.19l.53.19-.21-.51a4.16,4.16,0,0,0-.25-.7A495.69,495.69,0,0,0,227.3,349.73Zm22,100.59.55.06-.23-.45a165.2,165.2,0,0,0-19.06-25.83c-4.93-5.53-11.94-6.67-17.93-10,4.94,6.58,10.46,12.6,15.17,19.21A47.85,47.85,0,0,0,249.26,450.32Zm58,47.42-.55-.13.19.52,22.88,36.52,7.39-10.52c-2.53-2.59-4.7-5-7.08-7.21C322.77,510.16,316.43,502.25,307.23,497.74Zm93.31,120.73.06.36.21-.06-.33-.26a2.75,2.75,0,0,0-.35-.63Q370.6,584.13,341,550.39a10.27,10.27,0,0,0-1.3-1.07,5,5,0,0,0,.89,2.42c8.5,13.44,17.6,26.55,25.31,40.42,5.91,10.64,13.62,18.28,25.09,22.19C394.3,615.46,397.07,617.78,400.54,618.47ZM320.75,488.3h.61l-.31-.34a12.36,12.36,0,0,0-.84-1.51q-12.6-16.6-25.24-33.17a4.35,4.35,0,0,0-1.51-1.25c-6.91-3.26-13.84-6.48-20.77-9.72l-.63-.17c0,.2.05.41.07.61,5.39,10.05,12,19.35,18,29.05a3,3,0,0,0,1.14.91Q306,480.52,320.75,488.3Zm-226-223.13-.59-.1.24.53q15.5,17.77,31,35.56c4,4.61,8.06,9.19,12.42,14.16,1.3-8.19,2.49-15.8,3.7-23.41a1.8,1.8,0,0,0-1.06-2.2Q117.58,277.49,94.75,265.17Zm-19-12.81.74,0-.3-.53Q62.1,234.53,48,217.27a4,4,0,0,0-1.57-1.16q-17.85-6.95-35.74-13.81c-.3-.25-.61-.48-1.06.06l.59.43c5.95,5.81,11.87,11.64,17.84,17.43,5.13,5,9.68,10.87,15.59,14.64C53.9,241.39,65,246.6,75.76,252.36Zm295,351.94.6,0-.31-.33c-.3-.58-.57-1.18-.92-1.74L344,560.89c-3.84-6.06-7.69-12.12-11.67-18.41-1.23,4.31,1.56,8.73-1.31,13.36-3-5.55-5.53-10.22-8.07-14.88-5.41-9.91-10-20.38-16.48-29.58s-14.72-17.14-22.19-25.63l-.62-.58-.24.25.52.62c6.61,10.88,13.15,21.8,19.86,32.62,6.18,10,11.47,20.57,18.73,29.77,13.68,17.33,27.94,34.18,41.88,51.3A13.53,13.53,0,0,0,370.76,604.3ZM151.25,295.67l-.61-.09.22.56c.28.51.53,1,.85,1.51,14.7,22.29,29.71,44.39,43.95,67,4.73,7.51,12.43,9.3,19.69,14.21-.57-1.26-.67-1.54-.82-1.79q-21.32-34.77-42.66-69.54a5,5,0,0,0-1.73-1.71C163.87,302.39,157.55,299,151.25,295.67Zm-3.52,87.57-.76,0,.33.49c.76.88,1.48,1.8,2.28,2.64,10.47,11.06,20,22.91,34.5,29.63,15.44,7.16,30.21,15.74,45.28,23.7l1.79.94-1.23-1.43c-5.77-7.1-11.69-14.07-17.23-21.34a32.94,32.94,0,0,0-13.06-10.29C182.24,399.64,165,391.36,147.73,383.24Zm147.83,49.69-1.13-.61.8,1c3.8,4.15,5.93,9.73,11.71,12.17,33.24,14,66.4,28.17,99.59,42.26q23.63,10,47.29,20l2.8,1.28.17-.44-2.66-1.17c-9.45-5.06-18.82-10.27-28.35-15.14-30.53-15.6-59.8-33.76-92.51-44.92C320.54,443,308.12,437.75,295.56,432.93ZM408.44,622.57l.32.3-.07-.56c-.41-.72-.79-1.46-1.25-2.15-12.17-18.68-24.23-37.44-36.59-56-5.61-8.41-10.05-17.66-17.59-24.72-4.89-4.57-9.63-9.29-14.52-14-2.19,3.11-4.13,6-6.24,8.79-1.08,1.43-.87,2.38.26,3.66q36.24,41.26,72.4,82.61A5.5,5.5,0,0,0,408.44,622.57ZM707.68,592.8c-.38-.23-.74-.55-1.23,0l.74.54q79.37,42.87,158.73,85.76a5.72,5.72,0,0,0,3.34.61c8-.59,16.1-1.13,24.15-1.73,9.08-.67,18.15-1.37,28.06-2.13-1.46-.65-2.15-1-2.88-1.29q-76.26-29.6-152.53-59.16Q736.89,604.06,707.68,592.8Zm-71.39,95.44,1.77.19-1.49-.5c-.82-.56-1.61-1.16-2.45-1.67Q514,614.74,393.86,543.25q-24.35-14.49-48.75-28.87l-.58-.22c0,.19.07.39.11.58,1.31,1.44-.42,2.37-.68,3.7.65.45,1.3.95,2,1.38q127.11,80.77,254.22,161.51a9,9,0,0,0,3.15,1.37C614.3,684.59,625.3,686.41,636.29,688.24ZM-5.78,219.76h-.58l.19.41c.94,4,.66,8.16,3.74,11.61,15.36,17.2,30.52,34.59,45.86,51.81,3,3.43,5.65,7.25,10,9.52,19.27,10,38.41,20.24,57.6,30.4L134.66,336c-.17-3.66,2.63-6.77-.79-10.05-13.88-13.32-27.58-26.83-41.41-40.2-9.67-9.34-19-18.9-31-25.72C38.8,247.06,16.62,233.21-5.78,219.76ZM766.7,673.39l5.58,2.81.3-.61-5.39-2.8c-.35-.22-.7-.45-1.06-.64L531.36,548C515,539.36,499,529.68,482,522.27c-52-22.77-104.46-44.66-156.73-66.88l-19.16-8.13c2.12,2.78,3.37,4.7,4.89,6.37,2.48,2.73,3.92,6.33,7.59,8.06q56.89,26.81,113.71,53.74l251.76,119Q725.38,654,766.7,673.39Zm-435-176.72H331l.27.54c3.51,4.28,5.78,9.77,10.67,12.69q149.69,89.25,299.47,178.31a8.46,8.46,0,0,0,3.13,1.48c13,1.42,25.82,5.17,39.12,3.74,4.92-.53,9.86-.8,15.53-1.25-1.38-.81-2.06-1.24-2.78-1.62l-88.57-47.12q-97.59-51.93-195.19-103.86Q372.21,518.1,331.74,496.67Zm53.91-28.84-1.41-.47-.14.32,1.06.66c6.46,3.44,12.88,7,19.4,10.3,37.5,19.24,74.09,40.16,113.1,56.55,113.56,47.71,226.77,96.26,340.11,144.5a6,6,0,0,0,5.16.11c-.84-.48-1.47-.85-2.12-1.2q-71.38-38.54-142.78-77c-11.35-6.11-22.22-13.31-34.22-18Q566,537.5,448,491.94,416.84,479.85,385.65,467.83ZM225.24,335.64l-.63-.07.22.6c.19.36.35.75.57,1.1,15.75,25,32.33,49.47,51.22,72.28a14,14,0,0,0,4.23,3.76c15.84,8.31,31.63,16.7,47.46,25,12.14,6.39,23.84,13.93,36.54,18.91q148.3,58.13,296.93,115.4c.89.35,1.78,1.09,3.46.48-1.48-.84-2.52-1.45-3.59-2L279.09,364.58Q252.2,350.06,225.24,335.64Zm96,129.59-.83-.07.21.59,10.72,14.06c-.35.69-.76,1.16-1.15,1.15-9.21-7.54-13.92-19.53-26.41-23.95.41.89.53,1.26.73,1.58,5.6,8.58,11.05,17.25,16.87,25.67,2.26,3.28,4.26,6.85,8.14,8.89,21.5,11.3,42.93,22.76,64.37,34.17L701.52,691a5.74,5.74,0,0,0,3.28.93q33.48-2.52,67-5c4.91-.37,9.81-.78,15.54-1.23-1.49-.8-2.19-1.22-2.93-1.57L661.22,625.91,394.58,499.84Q357.92,482.5,321.24,465.23Zm-294-139.68c-5.34-4.34-10.67-8.7-16-13a4.78,4.78,0,0,1-1.89-3c-4.92-25-9.93-49.95-14.83-74.94a14.54,14.54,0,0,0-3.59-7.44c-5.75-6.26-11.28-12.71-16.94-19a11.77,11.77,0,0,0-2.66-2.21Q-59.85,187-91.11,168.22c-7.21-4.3-13.9-9.76-21.8-12.56-36.68-13-73.5-25.63-110.28-38.37-2.47-.86-5-1.67-7.57-2.54-.05,1.54,1,1.85,1.64,2.39q21.28,17.6,42.6,35.14L21.38,323.61A8.26,8.26,0,0,0,27.28,325.55Zm106.94,12.58c-1-.58-1.79-1.05-2.59-1.47Q91.25,315.32,50.87,294a12,12,0,0,1-3.49-2.76Q23.2,263.76-1,236.35c-.52-.6-.86-1.67-2.16-1.34.07.61.1,1.19.21,1.75q7.16,36,14.29,72a4.5,4.5,0,0,0,1.89,2.77C18.77,316,24.28,320.55,29.9,325c2.72,2.15,5.2,4.58,8.59,5.88,22.44,8.61,44.83,17.35,67.23,26,8,3.09,15.93,6.15,24.1,9.31ZM855,680.73,515,536.09a3.62,3.62,0,0,0,2.38,2.21Q655.07,611.13,792.72,684a10.52,10.52,0,0,0,6,1C817.14,683.55,835.56,682.18,855,680.73ZM177.13,416.06,348,600.46a3.82,3.82,0,0,0-1-3.24q-15.66-23.78-31.36-47.52c-7.54-11.38-14.52-23.19-22.85-34C279,498,264.44,481,250.23,463.69a30,30,0,0,0-7.13-6.87c-21-13.21-41.89-26.55-62.83-39.84A3.58,3.58,0,0,0,177.13,416.06ZM53.73,219c.91,1.25,1.24,1.8,1.65,2.27,7.95,9.09,15.78,18.28,23.91,27.21,4,4.45,7.13,9.86,12.72,12.84,15.33,8.2,30.61,16.5,45.92,24.75,1.27.69,2.56,1.35,4,2.08.45-1.35-.29-2-.76-2.75q-13.66-20.75-27.33-41.5a6.78,6.78,0,0,0-3.39-2.75Q87.19,232.07,64,223Zm91.17,72.15-1.3.71c-1.2,7.63-2.31,15.27-3.65,22.88a5.18,5.18,0,0,0,1.51,4.85q14.72,16.64,29.26,33.42a25.36,25.36,0,0,0,8.12,6.39c4.84,2.39,9.56,5,14.35,7.52.53.28,1,.93,2,.29ZM131.79,367l57,22.11c-1-1.4-1.35-1.87-1.71-2.31-8.54-10.42-17.21-20.75-25.57-31.31a30.34,30.34,0,0,0-11.08-8.94c-4.77-2.25-9.37-4.87-14.28-7.45Zm110.87,26c-1.21-2.3-1.92-3.76-2.73-5.16-4.16-7.19-6.92-15.34-12.32-21.62-16.07-18.68-32.63-36.93-49-55.35a4.13,4.13,0,0,0-3.3-1.86c.55,1,1,1.73,1.43,2.48q20.3,33.09,40.55,66.19a11.57,11.57,0,0,0,4.76,4.49C228.69,385.59,235.22,389.12,242.66,393.05ZM-244.78,107.63c-4.42-3.72-8-8.34-13.55-10.47-18-6.9-35.92-14-53.88-21a5.72,5.72,0,0,0-2.38-.59c-5.67.44-11.33,1-18,1.57Zm394.2,148.72c-.92,1.65-.21,2.73.63,3.84,13.71,17.91,27.33,35.88,41.14,53.71,3,3.88,8,4.82,12.19,7.09a36,36,0,0,0-4.08-7.26c-13.36-17.23-26.9-34.32-40.13-51.66C156.5,258.57,152.87,257.89,149.42,256.35ZM34.32,230.1l.81-.87a16.51,16.51,0,0,1-2.26-1.57c-8-7.75-16.25-15.27-23.86-23.4-5.68-6.07-13.31-7.49-20.61-10.83.79,4.06,1.54,7.63,2.16,11.21a4,4,0,0,0,2.36,3.18c6.54,3.44,13,7,19.53,10.52ZM221.21,384c4.87,8,9.26,15.11,13.67,22.26a2.56,2.56,0,0,0,1,1.07c5.92,2.33,11.85,4.62,18.54,7.2-3.49-6.4-6.57-12.07-9.67-17.72a2.2,2.2,0,0,0-.92-.81C236.56,392.16,229.3,388.32,221.21,384Zm-359.5-239.46.16-.47-109.34-42.65c4.14,3.31,7.24,7.79,12.43,9.58q37.14,12.81,74.23,25.76Zm127,61.14c-.83-4.11-1.63-7.25-2-10.45a4,4,0,0,0-3-3.7c-7.55-2.84-15-5.81-22.56-8.74L-48,179.3C-39.76,193.66-24.37,197.32-11.27,205.71ZM232.18,405.84c-4-6.55-8.07-12.2-11.1-18.35-3.87-7.87-12-8.86-18.28-13,4.27,7,9.31,13.52,13.06,20.69C219.34,401.85,225.37,403.33,232.18,405.84ZM136.8,322.27c.1-2.35,1.06-3.9-.51-5.68-14.44-16.32-28.77-32.74-43.15-49.11a3.38,3.38,0,0,0-2.7-1.72C106,284.73,121.23,303.28,136.8,322.27Zm-220-156.58-.42.79,38.94,21c-3.76-6.18-8.52-10.26-14.19-12.45Q-71,170.35-83.16,165.69ZM717.06,702.14l.18-.48c-4.07-2.17-8.14-4.36-12.21-6.52a5.73,5.73,0,0,0-3.23-1.1c-6.89.56-13.78,1.07-20.67,1.6l0,.36Zm-480-292.06c1.94,3,2.9,6.23,5,7.39,5.45,3,11.4,5.14,18.16,8-2.21-3.38-2.42-7-5.15-8.34C249.59,414.55,243.72,412.64,237.1,410.08Zm22.51,9.05c2.38,10.71,12.61,10.29,19.82,14.67C275.64,424.68,268.24,421.12,259.61,419.13Zm-36.83-14.41c2.17,7.69,9.25,8.45,15.47,11.42C234.64,408.75,232.42,407.17,222.78,404.72Zm-9,1.11c-3.61-7.52-10.62-8.93-17.36-11.46C200,402,207.65,402.42,213.78,405.83Zm60.89,7.05c4.39,4.45,5.15,12.1,12.75,14.46C284.65,422,277.28,413.54,274.67,412.88Zm65.85,110L350.68,534l.35-.3-8.7-13.34Zm-237.7-165-.14.58,28.71,12.19.56-1.35Zm150,40.06-7.33-9.55C247,392.15,247.11,397,252.77,398Zm-2.87,38.41c-1.26-4.09-3.05-7.7-7.45-8.25ZM141.44,254c1.51,2.45,3,4.9,5,8.17C146.68,257.48,144,255.74,141.44,254ZM595.68,683.49l0,.36,5.62,1.22c0-.19.08-.37.11-.55Zm-732.88-539c.5.48,1,1.15,1.79.66ZM101.91,357.77c-.55-.33-1-.86-1.77-.53C100.69,357.57,101.14,358.12,101.91,357.77Zm491.23,325.4v.1l.85.07v-.12ZM-84.08,165.79ZM98.84,356.65l0,.13.56.07,0-.16ZM347.2,523.26c-.05.12-.16.26-.13.36s.19.24.3.35a2.25,2.25,0,0,0,.19-.53C347.56,523.39,347.33,523.31,347.2,523.26Zm319.43,51.29a13.11,13.11,0,0,0-1-1.16c-.31-.19-.63-.18-.63.25C665,573.78,665.46,573.9,666.63,574.55ZM-230.82,115.4c-.35-.94-.6-1-1-.58ZM877.53,687.81c0-.06,0-.14-.07-.16a.59.59,0,0,0-.23,0l.08.29ZM509,533.81ZM258.7,401.14l-.1.15h.18Zm10.61,8.71.08-.13h-.15Zm.82.32-.09.16h.34s0-.13-.09-.16S270.19,410.18,270.13,410.17ZM-3.06,234.25l-.14-.17-.16.14.21.18Zm38.42-4c0-.05-.1-.13-.15-.14s-.11.08-.16.12.1.14.15.14S35.31,230.31,35.36,230.27Zm243.46,193.5-.17-.11,0,.16Zm-24.07-27.11-.1.17h.16Zm-50.43-2-.15-.07v.27a.41.41,0,0,0,.15-.07S204.32,394.74,204.32,394.69Zm83.37,32.46-.09.12h.16Zm-152-37.5-.1.13.18,0Zm-1-.53-.17.12s.09.12.14.13.11-.07.17-.11Zm110.12-1.31-.11-.17c-.05.05-.14.09-.14.14s.06.11.1.17Zm-198-176.67-.11.14.18,0ZM250.89,436.69l-.12-.15s-.12.09-.12.14.07.1.11.15Zm-140.5-202.4-.14-.18c-.06,0-.16.11-.17.17s.09.13.14.19ZM236.73,377.43c.05-.05.13-.09.13-.14s-.06-.1-.1-.16-.13.09-.14.14S236.69,377.37,236.73,377.43Zm-104.67-6.69.17.09v-.16Zm99.36,76s-.08-.13-.13-.14-.11.07-.16.11.08.12.13.13S231.37,446.8,231.42,446.77Zm1.25-78.57.1.09,0-.14Zm111.55,81.15.1-.13-.17,0Zm-88,4.28-.1.16h.18ZM65.68,345.15l-.08.13.3,0c0-.05,0-.11-.07-.14S65.73,345.16,65.68,345.15Zm-.91-.52-.15.12s.09.12.14.12.1-.06.16-.1Zm215.61,152.1-.14-.18c-.06.06-.15.11-.15.17s.09.11.13.17ZM42.3,334.59l-.19.16c0,.06.11.15.16.15s.12-.08.18-.13ZM457.74,509.13l-.16.11s.08.12.13.13.11-.07.16-.1Zm-430.08-183-.09.15h.33c0-.05,0-.12-.08-.15S27.72,326.15,27.66,326.14Zm482.59,208-.17.14c.05,0,.1.14.16.14s.11-.08.17-.12Zm1.16.62-.15-.14-.09.27a.26.26,0,0,0,.15,0A.48.48,0,0,0,511.41,534.73ZM-58.36,171.65l-.08.13.29,0c0-.05,0-.11-.07-.14S-58.31,171.65-58.36,171.65ZM339.25,549l.18-.17-.34-.1a.33.33,0,0,0,0,.17S339.19,548.92,339.25,549Zm-8.09,13.72-.08.15h.29c0-.05,0-.12-.07-.15S331.21,562.68,331.16,562.67Zm335.75,11.55-.16-.18-.09.31c.06,0,.13,0,.17,0S666.89,574.25,666.91,574.22Zm38.77,17.93-.09.14h.31s0-.11-.07-.13S705.73,592.16,705.68,592.15ZM380.27,618.56l-.09.18h.16Zm-182-323.5c-.06.06-.15.11-.15.17s.08.12.13.18.15-.1.15-.16S198.31,295.13,198.26,295.06ZM773.17,676.14l-.08.14h.32a.32.32,0,0,0-.08-.14S773.23,676.14,773.17,676.14Zm1,.51-.08.13.3,0s0-.11-.07-.14S774.23,676.66,774.18,676.65Zm1,.5-.08.13h.3s0-.11-.07-.13S775.23,677.15,775.18,677.15Zm1.23.62s-.1-.15-.16-.15-.12.08-.18.12.11.15.17.15S776.36,677.81,776.41,677.77Zm1,.5s-.09-.13-.14-.14-.11.07-.16.11.09.12.15.13S777.34,678.3,777.39,678.27Zm1,.5s-.09-.14-.14-.14-.1.07-.15.11.09.12.14.13S778.33,678.8,778.38,678.77Zm97.9,8.62.16-.13-.15-.14c0,.06-.1.13-.16.19Z" transform="translate(337.53 -74.31)"/></svg>