<svg id="Layer_1" data-name="Layer 1" xmlns="http://www.w3.org/2000/svg" viewBox="0 0 630.08 1264.05"><defs><style>.cls-1{fill:#3CB371;}.cls-2{fill:#6666FF;}</style></defs><path class="cls-1" d="M509.56,624.89c17.68-8.32,35.5-16.37,53-25.09,7-3.47,13.2-8.37,19.71-12.7a6.38,6.38,0,0,0,1.78-2.32q53.85-99.69,107.67-199.4c47.23-87.48,94.64-174.86,141.5-262.53,6.62-12.38,10.66-26.15,15.78-39.32q38.84-100,77.64-200c.29-.73.16-2,1.51-2-.39,1.64,1.28,2.12,1.81,3.23,1.19,17.19,2.38,34.38,3.63,52.56,5.74-10.6,11-20.25,16.19-29.89,1.37,1.28.41,2.92.66,4.38C945.21-76,940-63.93,934.79-51.78a6.18,6.18,0,0,0-.17,2.69q1.7,23.39,3.45,46.78c.27,3.62.6,7.25,1,11.64l14.72-27.87c.06,1.63.12,3.25.17,4.88-4.51,9.44-9,18.89-13.57,28.29A8,8,0,0,0,939.6,19q2.49,33.46,5,66.94c.36,4.72.76,9.45,1.22,15.08L955,84.22l-1,6.33c-.16.32-.31.65-.47,1l0,0q-3.16,5.73-6.34,11.45a6.51,6.51,0,0,0-1.1,4c.54,5.77,1,11.54,1.44,17.32a26.26,26.26,0,0,1-1.47,7.59c-.61-7.41-1.22-14.82-1.9-23.06-.83,1.52-1.27,2.3-1.69,3.09l-51.34,96.47Q835,313.7,779,419.1q-13.07,24.56-26,49.17c-.79.42-1.52,1-2.52.72a28.22,28.22,0,0,1,1.12-2.72q26.35-49.59,52.74-99.16Q873.53,237,942.75,106.87a6.69,6.69,0,0,0,1.09-3.75q-2.51-33.37-4.93-66.75c-.37-4.93-.77-9.86-1.22-15.64-.81,1.48-1.23,2.17-1.57,2.89L877.9,146.8q-63,133.3-126.06,266.63-17.34,36.65-34.61,73.33c0,.28-.05.55-.07.83l.59-.21c4.29-2.69,7.73-6.55,12.23-8.95-.75,2.62-2.58,4.51-4.39,6.4-.28.36-.88.54-.62,1.18l0,0c-.47-.13-.69,0-.53.53l0,0c-4.17,2.23-7.18,5.88-10.66,8.93-2.51,2.2-3.58,5.37-4.34,8.59l-.34.05.05.22.3-.26,4.55-2.75c-.57,2.39-2.37,3.89-4,5.49-.3-.16-.5-.12-.5.28-.32,0-.63,0-.49.51-1.13-.1-2,.16-2,1.53h-.16l.13,0,2-1.07c.4,1.84-1.26,2.61-2,3.87l-.53.68,0,0c-.38,0-.69,0-.54.53l0,0c-2.42.58-2.5,2.71-3,4.54l0,0-.6.54c-1.7,3-3.36,6.08-6,8.48l3.66-8.88c.07-.16.14-.32.2-.48l-.47.21c-3.72,2.71-8.32,4.75-10.65,8.65-2.93,4.9-4.61,10.55-6.83,15.88-.06.19-.12.38-.19.57l.57-.08c1.35-.21,2.24-1.61,3.74-1.43a12.46,12.46,0,0,1-3.07,4.48c-4.14.86-4.81,4.22-5.44,7.59l0,0c-.56-.18-.47.25-.52.55l0,0-.54,1.3c-1.81,2.23-2.72,5.16-5.31,6.79,1.79-4.29,3.58-8.58,5.62-13.45-3.15,1.62-6.7,2-7.87,4.42-2.81,5.64-4.75,11.72-7.13,17.84,2.17-.54,3.28-2.31,5.2-2.44a9.49,9.49,0,0,1-2.29,3.55l-.71.53,0,0c-4.07,1.14-5,4.44-5.54,8l0,0c-.72.08-.54.6-.52,1l0,0-.48.57c-1.19,1.94-2.2,4-4.07,5.45l3.75-11.08c-6.93,4.25-13.24,8.35-19.78,12-6.87,3.87-7.44,11.57-11.12,17.4L653,588.13c-.11,1.84-1.61,2.84-2.53,4.18l-.54.7,0,0a.73.73,0,0,0-1,.53l0,0q-12.32,8-24.62,16a3.64,3.64,0,0,0-1,1.36q-4.59,8.7-9.13,17.42c0,.2-.07.4-.11.59l.49-.24c9.39-8,18.82-16,27.7-24.54a18.61,18.61,0,0,1-2.2,6.27l-27.46,28.4-.41.4-.74.85-.49.51-.47.52-.36.2.27.14,0-.38.7-.32.6-.43.81-.65.54-.45L637,619.77a6.39,6.39,0,0,1-1,3.53l-.53.71,0,0a18.79,18.79,0,0,0-2,1.31c-8.76,7.17-17.41,14.47-26.29,21.49a27.73,27.73,0,0,0-8.23,10.08c-2.38,5-5.11,9.82-7.82,15l27.47,4.32c-.19.67-.37,1.34-.55,2l-25.36-4c-1.37-.21-2.58-.55-3.51,1.23q-21.84,41.58-43.81,83.09l-1-2.46L588,673.24c-3.6.41-6.64-2.6-9.76.62q-23.61,24.4-47.34,48.72l-.87-2.15Q542.44,707.7,554.86,695c4.62-4.76,9.16-9.57,13.74-14.36l.5-.5.49-.51.5-.5.5-.5.5-.5.5-.5.5-.5.5-.5L573,676l.49-.52.5-.5.5-.5c.17-.16.34-.33.5-.5l.5-.5.5-.5.47-.53.34-.23-.3-.1c0,.12,0,.25,0,.38l-.73.18-.5.5-.5.5-.5.5-.5.5-.5.5-.54.5-.54.5-.5.5-.5.51-.5.5-.5.5-.5.5-.5.49-.54.5-.44.41-39,38.46c-.26-.77-.52-1.55-.77-2.32l23.79-23.5.48-.5.15-.67-.47.35-.56.44-24.84,20.12c-.18-.75-.37-1.5-.56-2.24l35.74-29.22c3.89-3.17,7.76-6.36,11.71-9.6-2.94-1.35-4.75-.27-6.73,1.49-13.7,12.13-27.5,24.14-41.28,36.19l-.7-2,42.12-36.92-24.93-3.88L523.29,701.7l-.9-2.58q8.85-16.44,17.71-32.89c-.23-.23-.46-.46-.68-.7L515.91,681c-.22-.66-.45-1.32-.68-2l20.08-13.33c-7.87-4.08-13.74-1.19-18.75,4.84a30.6,30.6,0,0,1-3.33,3l-.74-2.13,9.11-8.07c-4.74-2.63-7.62,1.06-11.05,2.71-.21-.65-.43-1.3-.64-1.95l3.59-2.19a3.41,3.41,0,0,0-4.13.69c-.61-1.17-1.29-2.32-.81-3.72a3.92,3.92,0,0,0,3.66-1c17.9-13.71,35.87-27.32,53.69-41.14,3.85-3,4.84-8,7.84-12.72a48.77,48.77,0,0,0-8.85,5.22q-26.65,20.81-53.38,41.53l0-2.55c1-.74,2-1.46,3-2.23l38.15-29.93.29-.36-.65-.07c-.81.42-1.63.82-2.43,1.25l-39.27,21.14-.21-4L546.1,610.6l.42-.4-.75,0-36,16.83ZM664,536.5l-.47.52c-.16,0-.31.09-.09,0l.05-.07.47-.52.18-.08S664.07,536.42,664,536.5Zm-14,16-.33.26.29-.29.5-.51,1.18-.79.6-.46c.29-.18.76-.23.13-1.76-.23.81-.32,1.16-.41,1.51l-.51.49c-.53.16-1,.37-1,1ZM554,691l.49-.51.34-.2-.26-.14c0,.13,0,.25-.05.37-.39-.07-.6,0-.52.48l-.5.14.09.2Zm43.17-35.37.06-.54-.27.37-.58.42c-5.4,4.15-9.53,9.54-14.77,14.42l7.38,1.21c2.63-5.11,5.25-10.18,7.87-15.25Zm6.93-14,.49-.51.49-.51.22-.53-.58.17-.51.5-.58.5-.4.41-.83.77-30.07,26.05c1.75.22,3.12,1.72,4.67.16,8.57-8.63,17.21-17.19,25.83-25.77l.77-.74Zm-7.61-45.11.5-.51.49-.5.3-.3-.26.34L597,596l-.49.51-.7.33-.85.61-2.57,1.93c-6.35,4.8-12.59,9.75-19.1,14.32a21,21,0,0,0-7.55,9.56l-.12.59.46-.27,26.79-23.74,2.35-2.05L596,597Zm8-21-.43.16.22.25.26-.36L605,575c.25,0,.5-.07.12,0,.3-.24.11-.09-.07.06Zm95.61-70.88.48-.53.59-.43.32-.65a.75.75,0,0,0,1-.48l.07-.06c0-.16,0,0,0,.09a.72.72,0,0,0-1,.49l-.56.44-.55.44-.62.39c-.06.21-.13.42-.19.63Zm-98.82,85.2.67-.56-.16-.28-.9.42-.63.3c-5.48,2.94-10.78,6.36-16.51,8.71-6.15,2.52-9.11,7.3-11.47,12.89l-.14.54.46-.23,28.08-21.41ZM580,598h-.11c-.27.22-.1.08.06-.06l.72-.29c8-4.28,16-8.44,23.94-12.87,4.91-2.74,10.32-4.68,14.4-8.78l.36-.36-.54.18c-5.5,2.54-10.94,5.24-16.53,7.56a72.6,72.6,0,0,0-21.9,14C580.3,597.63,580.17,597.83,580,598Zm-56.79,30.18-.86.66-.9.61-.37.37.51-.24,1-.41,1-.57.62-.27c4.82-2.58,9.71-5.06,14.46-7.77,12.57-7.2,26.17-12.69,37.19-22.45.85-.75,2-1.22,2.18-2.57l.29-.35-.61,0c-19.65,8.12-36.08,21.54-53.9,32.67Zm10.29,24.32c-.5-.27-.83,0-1.11.38l-12.84,7.6c2.32.4,3.91,1.24,5.48-.21,2.56-2.36,5.15-4.66,7.73-7l.7-.82.37-.21-.29-.13ZM655,539.52a.78.78,0,0,0-1,.49l-.34.19.24.13L654,540c.45.06.86.06,1-.48l.58-.42,1-.53c1.65-1.17,4.22-1.35,4.39-4.1l.2-.09-.17.12-4.69,3.73-.79.78ZM927.57,36.57c.36-.29.64-.6.11-1.11-.17.29-.31.55-.45.8s0,.51,0,.77Zm-1.39,1.63c-.27.58-1.08,1-.33,2,.3-.63.55-1.13.79-1.63.29-.35.62-.69.05-1.2C926.51,37.7,926.35,38,926.18,38.2ZM697.77,506.74c.37-.31,1-.5.64-1.23a1,1,0,0,0-1,.95l-.66,1.16Zm90.09-212.86c-.37.63-1,1.18-.53,2.27l1-1.92c.1-.43.85-.82,0-1.39ZM632.5,569.51a3.37,3.37,0,0,0-2.59,1.37,3.81,3.81,0,0,0,2.56-1.4c.23-.05.46-.09.09,0ZM938.23-66.72c-1.53,3.3-4.53,6-3.65,10.27l4-10c.36-.3.65-.6.1-1.08ZM691.47,520.47c4.2-2.13,7.54-5.44,11.27-8.22.25-.19.14-.87.19-1.32l.21-.05L703,511c-2.58,1.66-5.13,3.36-7.73,5-1.79,1.11-3.57,2.16-3.71,4.58l-.11.12A1.1,1.1,0,0,0,691.47,520.47Zm2-11c-3,1.29-5.1,3.75-7.7,5.55-1.91,1.31-3.79,2.68-3.93,5.32l-.09.51.26-.33c3.08-2.65,6.18-5.28,9.23-8,1-.84,2.33-1.45,2.23-3.08l.11-.34ZM678,531c3.91-3.15,9.09-5,10.69-10.53-3.83,3.22-10.12,3.83-10.85,10.34l-.11.53Zm-94.07,58.41c8.16-2,13.16-8.61,19.55-13.2-6.42,3.75-12.64,7.83-18.82,11.95-.36.24-.48.85-.7,1.29l-.05.14Zm110.52-75.95c5.52-3,11.8-5.18,13.54-13-4.32,3.84-8.24,7.3-12.13,10.79-.66.6-1.51,1.13-1.36,2.24l-.26.25.2,0Zm-37,33c6.52-4.9,14.35-8.39,18-16.37-5.73,4.38-11.11,9.14-16.49,13.91a4.53,4.53,0,0,0-1.51,2.49l-.06.19Zm14.26-7.7c-4.52,3.41-8.94,7-13.59,10.17a17.24,17.24,0,0,0-6.36,8.35l0,.58.32-.29c5-2.28,10-4.54,14.92-6.86a2.44,2.44,0,0,0,1.15-1.2c1.35-3.47,2.62-7,3.92-10.47l.67-1.18Zm-118,101c-10.51,5.25-17.84,14.37-27.37,21.89,3.66.57,6.64.78,9.48,1.53a6.49,6.49,0,0,0,7.43-3.22c3.92-6.43,7.21-13.24,10.75-19.91l.29-.33ZM669.23,525.23c3.63-2.78,7.28-5.54,10.88-8.35a4.33,4.33,0,0,0,1.36-1.71q9.22-23.7,18.36-47.43c.39-1,.78-1.91,1.18-2.86l-.45-.17c-.42.88-.83,1.76-1.24,2.63-3.48,6.5-7,13-10.43,19.51q-10,19-20,38.09l-.21.46Zm-105.48,96L513.6,659.34c1.66.76,2.74.89,3.84.18,13.18-8.49,27.37-15.47,38.73-26.7a35.71,35.71,0,0,0,7.89-11.27c.07-.16.15-.31.22-.47Zm38.37-40.1c5.19-2.39,10.42-4.69,15.55-7.2,3.64-1.78,7.69-2.84,10.79-5.56,9.06-7.94,18-16,27-24a5.92,5.92,0,0,0,2.19-3.23l.18-.53-.49.21a4.42,4.42,0,0,0-.7.25,495.81,495.81,0,0,0-54.93,39.6l-.67.57.16.28Zm-54,76c.5-.28,1-.53,1.51-.85,22.29-14.7,44.38-29.71,67-43.94,7.52-4.74,9.31-12.44,14.21-19.7-1.25.58-1.53.67-1.78.82q-34.77,21.33-69.54,42.67a4.83,4.83,0,0,0-1.7,1.72c-3.42,6.27-6.77,12.59-10.14,18.89l-.09.6ZM759.36,353.88c-5.05,9.44-10.26,18.81-15.14,28.34-15.6,30.53-33.76,59.8-44.92,92.52-4.34,12.72-9.55,25.15-14.36,37.71l-.64,1.14,1-.83c4.15-3.79,9.73-5.92,12.17-11.71,14-33.23,28.16-66.39,42.25-99.59q10-23.62,20-47.28l1.27-2.79-.43-.18Zm85.95-253.07q42.87-79.37,85.75-158.72a5.67,5.67,0,0,0,.62-3.34c-.6-8-1.14-16.11-1.73-24.16-.67-9.07-1.38-18.15-2.15-28.32-.71,1.78-1,2.58-1.34,3.39Q895.27-30,864.09,50.3q-9.69,25-19.28,50c-.24.37-.56.73,0,1.22Zm-125,322c5-9.41,10.12-18.75,15-28.23,16.76-32.79,35.15-64.71,49.5-98.78,48.6-115.35,97.85-230.43,146.88-345.6a6,6,0,0,0,.11-5.15c-.48.84-.85,1.47-1.2,2.11Q892.07,18.58,853.56,90c-6.11,11.35-13.3,22.22-18,34.22Q789.5,242,743.94,360q-12.09,31.17-24.11,62.36l-.46,1.4.31.15ZM588.17,583.17c.36-.19.75-.35,1.1-.57,25-15.75,49.47-32.33,72.28-51.22a14,14,0,0,0,3.76-4.23c8.3-15.84,16.69-31.63,25-47.46,6.4-12.14,13.94-23.84,18.91-36.54q58.14-148.3,115.41-296.93c.35-.89,1.09-1.78.48-3.46-.84,1.49-1.45,2.53-2,3.59Q719.84,337.63,616.58,528.91q-14.52,26.9-28.94,53.85l-.07.62ZM788.32,292.44l.72.28c.34-.54.7-1.07,1-1.64q73-138.1,146.08-276.21a7.07,7.07,0,0,0,.89-4c-.74-10-1.43-19.92-2.16-29.88-.67-9-1.37-18-2.13-28Zm137.46-252c-1.78.94-2,2.24-2.59,3.27Q861.75,159.84,800.36,276c-8.79,16.62-18.59,32.8-26.11,50-23.29,53.26-45.7,106.9-68.45,160.4q-3,7.17-6.06,14.35a109.46,109.46,0,0,0,10.9-7.64,9.85,9.85,0,0,0,3.07-3.81q26.77-56.74,53.63-113.47,78-164.89,155.93-329.79C924.07,44.36,924.79,42.65,925.78,40.43ZM620.11,612.54c-1.17.6-1.53.75-1.85,1l-72.48,47.78a4.47,4.47,0,0,0-2,3.11c7.85,1.23,15.65,2.38,23.41,3.7a4.27,4.27,0,0,0,4-1.19c7.21-6.4,14.5-12.72,21.74-19.09,5.37-4.72,11.57-8.82,15.85-14.39C613.32,627.46,616.1,620.11,620.11,612.54Zm24.94-47.2c-2.3,1.21-3.75,1.92-5.15,2.73-7.19,4.15-15.34,6.92-21.62,12.32-18.68,16.06-36.93,32.62-55.35,49a4.25,4.25,0,0,0-1.89,3.21,12,12,0,0,0,1.21-.57q34.57-21.19,69.14-42.41a3.65,3.65,0,0,0,1.36-1.05C636.72,581.13,640.65,573.67,645.05,565.34Zm21.29-11.12c-.56,0-.74-.05-.86,0a36.5,36.5,0,0,1-4.18,2.22c-9.87,3.63-16.32,10.51-20,20.29-1.23,3.25-3.19,6.23-5.16,10l22-13.46a3.17,3.17,0,0,0,1.48-1.6C661.77,565.93,664,560.21,666.34,554.22Zm4.63-5.3c2.92-1.8,6.47-2.35,7.87-4.85,2.7-4.86,4.54-10.21,6.77-15.41C676.61,532.33,673.21,539.86,671,548.92Zm7.9-28c-4.84,4-10.78,6.69-14.16,12.31C669.33,529,677,528.16,678.87,520.88ZM650,555.22l-9.64,7.39C644.11,561.1,648.88,560.91,650,555.22ZM940.21-70.52a.87.87,0,0,0-.05.22s.09,0,.14.07a2.07,2.07,0,0,0,0-.22S940.26-70.5,940.21-70.52ZM826,142.27c-.49.07-1.06.3-.39.81ZM785.84,299l0-.21-.24.07.07.19ZM620.22,575.16l-.08.11h.14Zm55.52-45.71.09-.18h-.16Zm-46.32,41.82s-.08-.13-.13-.13-.1.06-.16.1.09.13.14.13S629.37,571.31,629.42,571.27Zm-82,38.5c0-.06-.1-.15-.16-.16s-.11.08-.17.13.1.15.16.15S547.35,609.81,547.4,609.77Zm92.54-46.5s-.08-.14-.13-.14-.11.07-.17.1.09.14.14.14S639.89,563.31,639.94,563.27Zm61.29-99.37.09-.17h-.14Zm-52.44,89.48.09-.15h-.17Zm4.49-4.2-.11.16.15,0Zm108-199c0,.05-.13.09-.13.14s.06.1.1.15.12-.09.13-.14S761.3,350.18,761.27,350.13ZM679.15,520.31l.12.09v-.16Zm107.09-222.4c0-.05.15-.09.15-.15s-.08-.11-.12-.17-.14.1-.14.16S786.2,297.86,786.24,297.91Zm.63-1.23-.13-.08,0,.3s.11,0,.14-.07A.37.37,0,0,0,786.87,296.68Zm39.29-155.56-.08.17h.31a.67.67,0,0,0-.08-.17S826.21,141.13,826.16,141.12Zm18.24-38.9-.13-.16-.14.15.2.16ZM661.76,538.57l-.08.15h.13Zm.66-.86-.16-.09V538a.34.34,0,0,0,.16-.08S662.42,537.77,662.42,537.71Zm265.94-503-.14-.09v.32s.11,0,.14-.08S928.36,34.73,928.36,34.68Zm.5-1-.13-.08,0,.3s.11,0,.14-.07A.37.37,0,0,0,928.86,33.68Zm.56-.92-.16-.19c-.06,0-.16.11-.16.17s.09.13.14.2Zm.35-1.17c0,.05-.15.1-.15.16s.08.11.12.17.15-.1.15-.16S929.81,31.64,929.77,31.59Zm.46-.69s.13-.09.14-.14-.07-.1-.11-.16-.12.09-.13.14S930.2,30.85,930.23,30.9Zm.64-1.12-.11-.17c0,.05-.12.09-.13.14s.07.11.1.16Zm.29-1,.11.09v-.15Zm.5-1,.11.09V27.7Zm7.76-96-.16-.19c-.06.05-.16.11-.16.17s.09.13.14.2Zm.45-1-.12-.16c0,.05-.12.09-.13.14s.07.11.11.16Z" transform="translate(-326.59 118.53)"/><path class="cls-1" d="M577.17,787.77q-21.33,26-42.66,51.93-84.66,102.76-169.36,205.52c-2.41,2.93-3,6.64-4.17,10.06q-15.56,44.49-31,89a7.89,7.89,0,0,1-.44.87l-.48-5.12a15.84,15.84,0,0,0,.84-1.77q11.56-33.3,23.1-66.6,3.27-9.46,6.57-18.93c-3.46,3.81-7.65,7-9.61,11.75-4.47,10.82-8.57,21.79-12.88,32.68-.59,1.49-.71,3.23-2.08,4.35-.25-1.24.43-2.26.8-3.34,11.34-32.49,22.65-65,34.71-97.21l.46-1,0,0c.17-.51.35-1,.53-1.54l0,0a4.11,4.11,0,0,0,1-3l0,0c.66-.11.53-.6.52-1l0,0c2.55-6.2,5.14-12.38,7.64-18.6,4-10,8-20,11.94-30l-.29-.13L388.52,951c.51-4.19,2.45-7.91,4-11.76a138.52,138.52,0,0,0,10-18.63c5.95-14.35,11.53-28.85,17.26-43.29,1.36-3.44,2.68-6.9,4.22-10.86-3.46,1.44-4.84,4.72-7.92,5.59a3,3,0,0,1,.93-2.83c7.32-4.82,11.46-11.73,13.38-20.15a55.44,55.44,0,0,1,1.92-5.66c2.32-6.71,4.63-13.42,7.07-20.49l-7.27,1.41c.64-1.79,1.29-3.57,1.93-5.36.35-.25.83-.43.53-1l0,0c4.11-3.49,8.63-6.74,10.65-12,2.57-6.66,4.75-13.48,7.09-20.23,1.8-5.2,3.59-10.4,5.56-16.1-3.36,1.84-5.15,4.78-8.27,5.84-.32-1.2.43-2.08.9-3.05,3.46-3.67,8.53-5.7,10.32-11.08,4.05-12.12,8.35-24.16,12.53-36.23,2.31-6.63,4.59-13.27,7.14-20.65L473.34,709a8.6,8.6,0,0,1,1.64-4.26c2.66-2.56,6.42-4.33,7.92-7.69,2.41-5.41,4-11.2,5.88-16.83,0-.21,0-.42,0-.63l-.36.28-6.58,3.78c.4-1.21.79-2.42,1.19-3.63l.51-.55,0,0c4.28-2.61,8.33-5.27,9.49-10.78.72-3.39,2.22-6.61,3.36-9.91l5.4-15.72-7,3.53a18.77,18.77,0,0,1,3.71-4.88L499,641l0,0c.4.05.77.07.54-.53l0,0c3.72-.61,4.85-3.2,5-6.54l0,0c.7,0,.44-.58.58-.91.91-1.06,1.19-2.66,2.84-3.35v2.33c-.52,1.35-1.05,2.7-1.78,4.58l1.86-1c.73,1.21.45,2.53.44,3.83-2.85.86-4.35,2.74-5.27,5.64-2.5,7.82-5.36,15.53-8,23.3-.27.78-1,1.58-.34,2.76,4.21-3.57,9.67-5.76,11.14-11.83.49,1.6,1,3.21,1.49,4.81-.82.52-1.71,1-1.75,2.39l2.23-1.1c.2.65.41,1.31.62,2-1.65,1.18-4,1.58-4.85,3.63-1.56,3.72-2.9,7.54-4.34,11.32-.05.17-.11.35-.17.52l.47-.23,10.92-9.41.86,2.07c-4.65,4.07-9.34,8.1-13.93,12.24a4.56,4.56,0,0,0-1.48,4l-.36,0,0,.23.28-.3,17.2-11.1c.26.68.51,1.36.76,2-6,3.91-12,7.86-18,11.7a7,7,0,0,0-2.88,3.59q-10.43,26.71-20.89,53.42c-.29.75-1,1.52-.43,2.61.52-.38,1-.7,1.42-1.07,10.52-9.21,21.07-18.4,31.54-27.67,2.54-2.24,5.64-4,7.37-7,3-5.26,5.79-10.67,8.67-16,.32.83.65,1.66,1,2.48l-4.56,8.78c0,.26-.09.52-.14.78-.33-.08-.46,0-.26.33L517,714l.61-.38,5.68-4.74.75,2.08-9.61,8.34.48.56,9.54-7.69.72,1.89c-.69.6-1.37,1.2-2.07,1.78-4.51,3.79-10.19,6.8-13.27,11.52-6.22,9.54-11,20-16.41,30.08-.38.17-.48.42-.17.81l.45-.57c11.85-12.38,25.4-23.33,33.05-39.25.29.81.58,1.63.88,2.44L526,724c-.14.36-.27.72-.41,1.07l-.18.08s.06,0,.14-.11l.76-.8,2-1.89c.28.7.56,1.39.83,2.08-6.61,6.06-11.72,13.21-16.27,20.94-13.51,22.92-27.34,45.63-41,68.43v.58l.4-.2A23.64,23.64,0,0,0,486.59,808c18.55-16.76,37.43-33.15,56.2-49.67l.81,1.91-57,50.37.45.75,74-14.8c.3.73.61,1.46.92,2.19a9.87,9.87,0,0,0-1.22.06q-37.69,7.47-75.4,14.91a11.32,11.32,0,0,0-5.64,2.87c-6.51,5.84-13.1,11.59-19.62,17.41a11.67,11.67,0,0,0-2.21,2.65q-18.87,31.2-37.65,62.43c-4.27,7.13-9.7,13.76-12.47,21.57-13.66,38.46-26.88,77.09-40.23,115.66-.27.77-.95,1.57-.07,2.75.88-1,1.7-1.91,2.47-2.84Q456.67,931,543.41,825.67c8.25-10,16.41-20.12,24.61-30.17l0,0c.42-.21.84-.43.53-1l0,0c.56,0,.67-.31.53-.79ZM504,728.44l.49-.51,1.05-.43.5-.51c.1-.1.59,0,.2-.35-.06.13-.11.25-.16.38l-.5.51-1,.43c-.16.18-.33.35-.49.52l-.13.16A1.56,1.56,0,0,0,504,728.44Zm9.78-7.7c.17-.2.62-.36.17-.68,0,0-.31.24-.48.37l-.23.51ZM512,742.49l.38-.5-.23-.09-.12.63-.71.29c-3.33,3.36-6.76,6.64-10,10.12-5.9,6.36-12.69,11.89-16.63,20-4.44,9.2-9.63,18-14.49,27q-4.33,8-8.64,16.09c5,.38,7.84-2,10.12-6.15,4.34-8,9.28-15.57,13.95-23.35q13-21.71,26-43.44ZM463.49,828l.83-.63,13.2-11.46c-2.93.45-6.29-.5-8.15,1.86-2.19,2.77-3.69,6.07-5.49,9.15-.34.31-.63.63-.35,1.14-.34-.17-.41,0-.3.27ZM413,906.52c-.44.15-.62.37-.13.93,0-.43.06-.7.08-1l.38-.13-.19-.24Zm74.54-209.45c2.19-1.28,4.89-2,5.45-5.6l-5.79,5.28-.2.56ZM441.71,814.23l-7.32,6.26c5.45,1.07,6.35.19,7.71-5.9.33-.25.47-.52.1-.88ZM448.49,804a3.53,3.53,0,0,0,.58-.72q7.4-18.59,14.75-37.18a5.72,5.72,0,0,0,.15-1.62c.35.3.34,0,.36-.25l-.32.3a7.83,7.83,0,0,0-4,5.09c-1.82,5.61-3.95,11.12-5.75,16.74-1.89,5.9-4.58,11.55-5.72,17.69-.42-.19-.38,0-.29.34Zm51.37-131.12c-2.6,1.6-6.32,2.6-7.57,4.93-2.67,5-4.06,10.66-6,16.05,3.35-2.48,7.2-4.3,9-7.88,2-4,3.35-8.46,5-12.72l.07-.57ZM448.62,841.12c8.88-5.61,13-14.81,18.7-24.27-3.09,1.77-6.31.43-7.8,3.1-3.85,6.89-7.47,13.92-11.18,20.89l-.18.54ZM414,905c.13-.1.31-.16.39-.29l37.88-63,.12-.61-.5.27c-3.86,3-7.52,6.06-9.88,10.63-6,11.52-12.29,22.86-18.42,34.3-3.3,6.15-6.49,12.35-9.72,18.54l-.24.52Zm75.84-206.66c-2.56,1.94-6.08,2.66-7.32,6.27-4.89,14.29-9.88,28.55-14.82,42.83q-2.25,6.49-4.46,13c1.82-.83,3.44-1.57,4.12-3.31q11.47-29.2,22.94-58.42l.06-.59Zm-35.07,99.42c5.81-5.94,11.64-11.86,17.43-17.83,5-5.13,10.87-9.68,14.63-15.59,6.54-10.26,11.75-21.37,17.51-32.12l0-.66-.59.22Q486.53,745.9,469.27,760a4.08,4.08,0,0,0-1.16,1.57q-6.93,17.86-13.81,35.74c-.25.3-.48.61.1,1.08Zm27.33-24.16,1,1.24c-9.45,8.65-18.84,17.35-28.36,25.92-5.58,5-6,12.37-9.46,18.85,4.09-.81,7.49-1.55,10.93-2.12a4.69,4.69,0,0,0,3.76-2.72c3.89-7.43,7.94-14.78,11.92-22.17Q477,783.13,482.12,773.62ZM353.46,1055.44c3.29-4.16,7.82-7.29,9.64-12.59,8.15-23.74,16.45-47.44,24.69-71.15q4.4-12.69,8.76-25.39l-.45-.16Q374.79,1000.8,353.46,1055.44ZM431.29,856c14.41-8.27,18-23.66,26.36-36.62a50.93,50.93,0,0,1-6.79,1.19c-4.95.14-7.18,2.75-8.74,7.3C438.89,837.26,435,846.44,431.29,856Zm-13.62,35.17c2.21-1.74,20.72-36.23,21.26-38.64-3.49,3.2-7.88,5.51-9.57,9.1C424.84,871.17,421.49,881.27,417.67,891.15Zm-20.18,52.59-.32-.18-.65,1.67.28.11Zm-30.1,95.09c-.93.34-1,.59-.57,1C367,1039.61,367.08,1039.39,367.39,1038.83Zm50.36-145,.11-1.65h-.25Zm68.52-195.85.2-.16c-.06-.06-.12-.15-.18-.16s-.12.1-.18.15Zm-23,63.39.11-.17-.16,0Zm19,11.63c.05-.05.14-.09.15-.14s-.07-.11-.11-.17-.14.09-.15.14S482.2,772.89,482.24,773Zm4.16,38.2-.15-.09,0,.3c.06,0,.13,0,.16-.07S486.4,811.2,486.4,811.15Zm-62.66,55.33c.06-.06.17-.11.17-.17s-.09-.13-.14-.2-.17.11-.17.17S423.69,866.41,423.74,866.48Z" transform="translate(-326.59 118.53)"/><path class="cls-1" d="M864.57,451.05c-2.19,3.37-5.49,5.64-8.37,8.3q-96.15,89.14-192.39,178.2a17.35,17.35,0,0,0-3.56,4.74Q633.32,693,606.34,743.63c-.4.74-.45,1.85-1.62,2l1.77-6.88c.18-.42.35-.85.53-1.28l0,0c.49-.74,1.06-1.45,1.47-2.23q14.65-27.48,29.28-55c.46-.85.88-1.73,1.31-2.59-4.36,6.15-8.17,12.58-12,19q-8.79,14.63-17.62,29.22,1.53-6.69,3.07-13.38c.17-.34.35-.69.52-1l0,0a5.2,5.2,0,0,0,.85-.84q19.27-30.31,38.52-60.66c.33-.52,1-1,.35-1.95-.59.47-1.19.88-1.72,1.37-5.67,5.26-11.31,10.56-17,15.78a14.68,14.68,0,0,0-3.48,4.77c-5.13,10.9-10.35,21.76-15.53,32.64.57-5.72,2.4-11.17,3.62-16.76l.43-.9,0,.06,4.12-9.37-2.37,1.8a15.3,15.3,0,0,1,1.81-5.46c1.87.23,2.56-1.16,3.12-2.47q12.08-28.38,24.09-56.8c0-.19.07-.38.11-.58l-.47.24a14.46,14.46,0,0,0-6.52,7.77c-2.74,7.84-5.89,15.54-8.94,23.28-3.44,8.71-6.95,17.39-10.43,26.08-.32-1.22.31-2.28.67-3.35Q629,651.71,634,637.28c.18-.52.36-1,.53-1.56l0,.06.52-1.3,0,0c.18-.51.35-1,.53-1.54l0,0c1.74-4.24,3.47-8.49,5.22-12.72.35-.84-.23-.73-.7-.77-.35-1.1.32-2,.59-3L641,616l0,0a2.1,2.1,0,0,0,1.87-1.41c1.45-3.57,2.81-7.17,4.29-11l-2.12.94c2.33-4.53,5.52-8.48,8.6-12.5v.46l7.53-6.48-.43-.51-3.7,2.23c0-1.83,1.52-2.76,2.44-4L660,583l0,0c.4.05.76.06.54-.52l0,0c3.83-.57,3.79-3.82,4.52-6.54l0,0c.7-.08.57-.59.52-1l0,0,.5-.58c1.54-2,2.29-4.53,4.55-5.94l-3.69,9.85c0,.17-.06.34-.08.52l.29-.31c6.08-3.25,9-8.79,11.46-15.4l-7.24,4.34c.09-1.69,1.42-2.67,2.28-3.91,2.47-1.33,5.62-2.22,7-4.58,2.72-4.79,4.7-10,7-15l0,0,.47-.68a63.45,63.45,0,0,1,6.58-9.35l-.24,1.31c0,.21-.11.42-.17.63l.61-.08c10-5.39,19.35-12,29-18a2.85,2.85,0,0,0,.91-1.14q7.83-14.76,15.61-29.52c0-.2,0-.41,0-.61L740,487c-1.05.66-2.16,1.24-3.14,2q-11.16,8.4-22.27,16.84c1.14-3.4,3.65-5.91,5.68-8.75A215.7,215.7,0,0,0,742,482.34c3-2.41,4.3-5.85,5.51-9.33l0,0,.59-.48c.8-.28,1.51-.91,2.44-.54-.67,1.66-1.35,3.33-2,5-.25,0-.54.06-.17.38l.17-.38c4.39-2.53,8.17-5.88,12.12-9a21.67,21.67,0,0,1,6.86-2.62c-.34.36-.67.73-1,1.1l-1,.67.21.29,1-.75,1.8-1,2.34,1.69q-4.22,6.76-8.44,13.52a.83.83,0,0,0-.4,1.1l-.29.27L762,482l.79-.73,11.29-11.57,1.75,1.21c-2.33,2.36-4.73,4.66-7,7.1-6.73,7.29-14.62,13.6-19.1,22.77,0,.18-.09.36-.14.55l.51-.19,36.33-22.83,3.3.2A197.38,197.38,0,0,0,773,493l-.31.43.59-.11c3.16-1.67,6.35-3.28,9.48-5,6.17-3.41,12.3-6.88,18.45-10.32l5.24-.38-19,10.44c-8.08,4.43-16.74,8.08-24.11,13.47-9.09,6.65-17.11,14.74-25.59,22.21l-1,.22.64.63L738,524a3,3,0,0,0,.7-.24c19.83-12.14,39.75-24.13,59.39-36.56A63.5,63.5,0,0,0,812,475.5l0,0c.64.31.9-.25,1.28-.56,1.53-.82,2.87-2.13,4.82-1.93,0,1.74-2.31,1.72-2.68,3.79,4.69-3.22,9.57-5.36,13.62-8.83l0,0,1.15-.47c9.43-4.87,19.42-8.58,28.62-13.93C860.57,452.58,862.33,451.22,864.57,451.05Zm-11.76,7.76-.32.65.69-.27.59-.44.87-.23-.55-.57-.63.51ZM764.51,468l-.49.5c-.19.05-.38.11-.12,0-.21.16-.07,0,.08-.07l.49-.52.09,0C764.69,467.79,764.6,467.9,764.51,468ZM653.71,647.71l.16-.55-.45.26c-.13.16-.4.44-.37.48C653.39,648.32,653.53,647.9,653.71,647.71ZM667.6,631.1l.27-.68-.7.33,0,.71Zm.93-49.59L669,581l.48-.51L670,580c.63-.15,1.09-.46,1.36-2L670,580l-.49.5-.48.52-.49.5ZM692,583c-.14.19-.29.39,0,.06-.05.4,0,.15,0-.1l.37-.11-.17-.25C692.13,582.75,692.07,582.89,692,583Zm8-8.5-.5,1c-.27,0-.54.05-.22.4.06-.15.12-.29.19-.44l.49-1,.51-.5,1.54-2.15c-1.4,1.12-1.67,1.57-1.51,2.19Zm82.8-75.19-.93.55c-15.4,9.4-30.69,19-46.26,28.07-5,3-8.14,7.1-10.69,12l-.31.36h.62c6.32-4.13,12.67-8.24,19-12.41,13.08-8.66,26.53-16.83,38.11-27.56l.77-.74a2.08,2.08,0,0,0,.34-.7l.14.25.68-.37-.17-.29a1.69,1.69,0,0,0-.59.51Zm-8.76-10.27c-.46-.12-.87-.1-1.06.44l-1.29.65c-9.09,5.68-18.3,11.2-26.76,17.81,10-4.39,19.71-9.13,27.15-17.36.45-.24,1-.38.9-1.1l1-.48.09-.34ZM679,570.47A.8.8,0,0,0,680,570c.86-.49,1.76-.91,2.57-1.47,7.24-5,13.42-11.29,20.06-17,2.48-2.14,5.4-3.86,7.09-6.83l.11-.55-.48.19c-12.37,5.54-20.53,16-29.62,25.34-.25.26-.5.53-.76.79l-.11.34ZM840,464.52c-.46-.08-.86-.07-1,.5l-.42.12.22.21L839,465l1-.5.5-.5.06,0c.19-.5.09-.22,0,.06ZM701,556a.79.79,0,0,0,1.06-.43c1.38-.73,3-1.2,3.67-3.78l-3.94,3.45c-.24.27-.49.54-.74.8l-.35.2.26.12Zm46.48-27.52c-.53.11-1.1.2-.93,1.22l1.16-1,.28-.5Zm-45.46,43a1.28,1.28,0,0,0,.82-1.51,1.28,1.28,0,0,0-.82,1.51l-.4.12.2.28Zm-61.47,103a1.92,1.92,0,0,0-1,2l-.43.25.13.17.27-.45a2.08,2.08,0,0,0,1-2l.36-.14-.19-.23Zm64.55-107.46c-1.56.12-1.6,1.37-1.65,2.6L705,567a1,1,0,0,1,.07-.16S705.08,567,705.07,567.06ZM746.5,501.5c-2.14,1.07-3.28,3.12-5.73,5.27,3.36-1.25,4.94-2.87,5.73-5.27l.31-.24-.26-.14Zm-53.51,80c2.1-3,4.34-6,5.44-9.56l.19,0-.16.07c-2.75,2.65-4.21,6-5.44,9.56l-.39.12.19.27Zm22.49-38c-2.74,1.67-5.14,3.64-6.11,6.88l-.11.53.28-.35c3.34-1.19,4.84-3.95,6-7l.34-.2-.21-.22ZM708,561c.81.16,1.23-.42,1.57-1,2.18-3.48,4.33-7,6.49-10.49l.33-.31-.57.08c-3.89,3-5.27,7.75-7.78,11.7l-.11.13S707.93,561.07,708,561Zm17-26c-4,2.2-5.27,6.32-7.19,10,3.46-2.58,5.5-6.18,7.15-10.06l.38,0-.05-.23Zm-15.5,18.51c-5.57,2.81-5.85,9-8.74,13.54a47.32,47.32,0,0,0,8.7-13.59l.28-.28Zm6.46-21-11.06,11.43-.27.47.59-.13c5.28-2.39,9.4-5.83,10.71-11.81l.18-.06Zm21.49-17c-6.51,2.93-7.8,9.67-11,15h-.34l.09.3.25-.3c5.46-3.68,7.81-9.65,11-15,.26,0,.5-.1.17-.41ZM737,521c5.91-4,11-9,16.12-13.87l.68-.29-.18-.3-.6.47c-7,2.76-13.17,6.48-16,14-.35.12-.56.27,0,.75Zm-20.49,16a5.29,5.29,0,0,0,1.34-.36c6.69-3.77,7.81-11.41,12-17-7,3.83-10.23,10.53-13.26,17.35l-.11.31Zm-70,74.5c7.46-3.3,7.94-11,11.28-17.22-7.42,3.72-9.07,10.65-11.24,17.25l-.08.19Zm10.32-8.13c6.83-4.23,8.34-11.69,11.41-18.68L668,585l.19.08a1.33,1.33,0,0,0,.15-.32s-.08-.06-.34.24c-7.12,3.87-8.93,11.17-11.59,17.92-.33.24-.49.51-.12.88ZM836.49,466.48c-12.45,7.61-25,15.09-37.31,22.89-3.53,2.23-6.49,5.38-9.71,8.11l-.31.43.56-.21c5.5-3.57,11-7.09,16.49-10.72,10.16-6.74,20.27-13.55,30.4-20.33.55-.17,1.22-.18,1.28-1.28Zm-120.4,88.11L746.37,530c-6.49,3.18-12.24,7.4-18.4,10.92-5.61,3.2-9.36,7.76-12.22,13.31l-.15.57Zm29.07-55.47c9.67-7.83,14.92-18.9,21.37-29.09l.33-.31-.57.08c-2.28,1.5-5.34,2.49-6.69,4.59-5.17,8-9.79,16.37-14.62,24.6-.41.17-.57.4-.15.85ZM658.48,605a14.12,14.12,0,0,0-6.12,6.89c-7.23,17.35-14.66,34.62-22,51.92-.32.76-1,1.48-.51,2.87,3.68-7.81,7.23-15.31,10.76-22.82q9.06-19.29,18.09-38.61l.15-.51Zm70.15-90.36a12,12,0,0,0,4.92-3.29c9-10.07,14.34-22.52,21.44-33.82l.23-.31H755l0,.34c-4,1.53-8.45,3.48-10.51,6.89-5.86,9.71-10.76,20-16,30.07l-.33.27c.06,0,.16.15.17.14A2.81,2.81,0,0,0,728.63,514.61Zm-43.89,42.21c3.86-2.42,8.24-4.29,11.47-7.36,8-7.59,15.45-15.73,23.13-23.65l.86-.31-.43-.57-.9.43c-7.85,4.13-15.78,8.13-23.29,12.88-1.51,1-3.44,1.49-4.29,3.26-2.35,4.94-4.61,9.92-6.91,14.88l-.18.51Zm17.19,1.61a164.5,164.5,0,0,0-25.83,19.05c-5.53,4.92-6.67,11.94-10,17.92,6.58-4.94,12.6-10.45,19.21-15.16a47.79,47.79,0,0,0,17-21.49l.07-.55Zm-10.76,19.66c-7.1,5.76-14.07,11.69-21.34,17.23a32.93,32.93,0,0,0-10.29,13c-7.9,17.39-16.17,34.61-24.3,51.9l0,.76.49-.34c.88-.75,1.79-1.48,2.64-2.27,11.06-10.47,22.9-20,29.62-34.5,7.17-15.44,15.74-30.22,23.7-45.28.16-.31.33-.61,1-1.79Zm-23,52.68L852,460.46l-.61-.74c-.82.51-1.65,1-2.45,1.53Q825.48,476.7,802,492.18c-11.45,7.58-23.29,14.65-34.17,23-16,12.25-31.3,25.38-46.8,38.25-3.88,3.23-8.49,5.74-11.28,10.11Q689.29,595.62,669,627.8C668.49,628.51,667.67,629.14,668.16,630.77Zm20.2-72.66c-4.13,1.21-7.66,3-8.22,7.3Zm53.37-49.17-5.18,3.55C738.43,512,740.6,511.86,741.73,508.94Zm-43,67.92s.13-.08.14-.13-.07-.1-.11-.15-.12.09-.13.14S698.7,576.82,698.73,576.86Zm116-100.19-.08.14h.3a.32.32,0,0,0-.08-.14S814.77,476.67,814.72,476.67ZM688.67,557.36l.16-.1s-.08-.13-.13-.14-.1.06-.16.1Zm-47,114.91.13.1,0-.17Zm-.39.84s-.12.08-.13.13.07.11.11.17.12-.09.13-.14S641.3,673.16,641.26,673.11Zm-18.52,2.83.09-.17h-.15Zm82.9-124.13.15.1v-.18Zm43.09-24.19-.18.14c.05,0,.1.14.16.15s.11-.08.17-.13Z" transform="translate(-326.59 118.53)"/><path class="cls-2" d="M767.48,465.38a21.67,21.67,0,0,0-6.86,2.62,50,50,0,0,0-9.61,3.5l-.5.53,0,0c-.93-.37-1.64.26-2.44.54l-.59.48,0,0c-3.9,1.36-7.82,2.69-11.7,4.1-1.14.42-2.39.65-3.18,1.81C728.53,485,724.37,491,720.23,497c-2,2.84-4.54,5.35-5.68,8.75a18.16,18.16,0,0,0-2.06,2.15q-8.78,12.66-17.5,25.37l-.49.74,0,0a63.45,63.45,0,0,0-6.58,9.35l-.47.68,0,0L673.57,563.6c-.86,1.24-2.19,2.22-2.28,3.91l0,0a.76.76,0,0,0-.75,1l0,0c-2.26,1.41-3,4-4.55,5.94l-.5.58,0,0-.52,1,0,0a22.2,22.2,0,0,0-4.52,6.54l0,0L660,583l0,0-.55.74c-.92,1.29-2.41,2.22-2.44,4a11.25,11.25,0,0,0-3.4,4.3c-3.08,4-6.27,8-8.6,12.5v-.07c-.61.16-.61.6-.48,1.09A41.35,41.35,0,0,0,641,616l0,0-.42.58c-.27,1-.94,1.88-.59,3l0,0-.49.61c-1.52,4.25-3.3,8.41-4,12.91l0,0c-.78.31-.53,1-.53,1.54l0,0c-.66.23-.47.81-.52,1.3l0-.06-.53,1.56q-4.9,14.44-9.81,28.89c-.36,1.07-1,2.13-.67,3.35l0,0c-.79.3-.61.94-.53,1.53l0,0c-.63.12-.51.61-.51,1l0,0a15.32,15.32,0,0,0-1.81,5.45A23,23,0,0,0,619,685l0-.06c-.15.3-.29.6-.43.9-1.22,5.59-3.05,11-3.62,16.75-.92,2.91-2.1,5.76-2,8.9l0,0c-.72.07-.42.66-.52,1q-1.53,6.69-3.07,13.38c-1,3.83-2.3,7.6-2.43,11.62l0,0c-.73.2-.43.83-.53,1.28l-1.77,6.88c-.46,1.11.29,2.78-1.5,3.28l-1.57-1.29a9.43,9.43,0,0,0-3.11-3,3.86,3.86,0,0,0-2.46-1.75c-1.52,4.91-4.19,9.18-5.09,14.09l0,0-.52.8c-.66,1.75-2,3.24-2,5.25l0,0c-.67.2-.57.7-.47,1.2a21.48,21.48,0,0,0-3,6.84l0,0c-.15.28-.31.56-.47.84-1.85,4.45-3.66,8.92-5.57,13.34a14.81,14.81,0,0,1-1.83,2.61l-8.13,6-.53.79,0,0c-.47.19-1.18.25-.53,1l0,0c-1-.85-1.39.32-2,.64-1.43.74-2.27,2.39-4,2.62l-.93-2.19c-2-4.37-4-8.76-6.07-13.09-3.75-7.76-7.58-15.49-11.37-23.23l-.81-1.91-13.71-33.93c-.27-.69-.55-1.38-.83-2.07l-.63-1.49c-.3-.81-.59-1.63-.89-2.44-.52-1.46-1-2.91-1.57-4.37l-.72-1.89c-.14-.41-.28-.81-.41-1.21l-.75-2.08c-.52-1.46-1-2.92-1.55-4.39-.32-.82-.65-1.65-1-2.48L514,682.43c-.25-.68-.5-1.36-.76-2q-.87-2.55-1.75-5.08l-.86-2.07q-1-2.93-2-5.83c-.21-.66-.42-1.32-.62-2l-.48-1.29c-.5-1.6-1-3.21-1.49-4.81a30.71,30.71,0,0,0,2.48-19.87c0-1.3.29-2.62-.44-3.83,0-1.18-.05-2.37-.08-3.55v-2.33c-1.65.69-1.93,2.29-2.84,3.35l-.58.91,0,0a23.91,23.91,0,0,0-5,6.54l0,0L499,641l0,0-.55.77a18.51,18.51,0,0,0-3.7,4.88,16.38,16.38,0,0,0-1.13,2.15q-4.89,14.06-9.69,28.13c-.29.84-.84,1.64-.47,2.6l0,0L483,680c-.4,1.21-.79,2.42-1.18,3.63-2.53,7-5.22,13.85-6.85,21.09a8.6,8.6,0,0,0-1.64,4.26c-4.28,11.7-8.6,23.39-12.83,35.11-3.41,9.45-6.72,18.93-10.07,28.4-.47,1-1.22,1.85-.9,3.05v-.07c-.59.12-.51.61-.56,1-2.89,8-5.81,16.05-8.63,24.1-2,5.77-3.9,11.59-5.84,17.39l0,0-.53,1c-.64,1.79-1.29,3.57-1.93,5.36-4.38,12.68-8.78,25.34-13.11,38-.77,2.25-2,4.39-2,6.86a3,3,0,0,0-.93,2.83V872c-.65.18-.53.73-.57,1.21-.37.82-.79,1.63-1.09,2.49q-7.39,21-14.73,42.1c-2.46,7.13-4.78,14.31-7.16,21.47-1.52,3.85-3.46,7.57-4,11.76v0c-.66.15-.55.63-.47,1.1-4,9-6.88,18.53-10.23,27.82-1.74,4.81-3.95,9.49-4.83,14.6l0,0c-.69.09-.54.6-.52,1l0,0a3.77,3.77,0,0,0-1,3l0,0c-.76.32-.51,1-.53,1.54l0,0c-.64.12-.45.62-.46,1-12.06,32.22-23.37,64.72-34.71,97.21-.37,1.08-1,2.1-.8,3.34v0c-.71.32-.62.91-.52,1.52l0,0c-.73.32-.61.93-.53,1.53l0,0c-.75.32-.59.94-.53,1.53l0,0c-.6.12-.51.61-.53,1l0,0-.25.38-.18.8c-.71.36-.53,1-.58,1.62l0-.06-.53,1.55h0l-.5,1.27c-1.6,4.92-4,9.6-3.05,15.13.71,4.07.79,8.26,1.14,12.39l.48,5.12c-2.58,1.13-2.31-1-2.45-2.29a89.7,89.7,0,0,1,4.7-40.32c32.62-91.6,65.56-183.09,97-275.12,20.56-60.24,43-119.83,63.25-180.16.91-2.69,3-4.59,4.6-6.78,3.65-5,7.39-9.87,11.17-14.73.34-.45.55-1.83,1.74-.91.08.73.15,1.46.22,2.19l.57,7,.21,4q.46,5.1.92,10.2c0,.85,0,1.7,0,2.55q-1.47,4-3,8.07c-.48,1.4.2,2.55.81,3.71l.54,1.51c.21.65.43,1.3.64,1.95l1.94,5.36.74,2.13c.67,1.84,1.33,3.67,2,5.5.23.66.46,1.32.68,2l6.48,18.09.9,2.58,1.94,5.39.7,2c.19.38.38.76.56,1.14.19.74.38,1.49.56,2.24.48,1.25,1,2.51,1.45,3.76.25.77.51,1.55.77,2.32.25.61.49,1.22.74,1.84l.87,2.15q6.74,16.7,13.46,33.41c.33.82.67,1.64,1,2.46L563,795.2c.3.23.48.19.5-.22l0,0,.51-.54,0,0c2.47-.61,3.94-2.68,5.89-4l.65-.47,0,0,1-1,0,0c4-1.73,6.11-5,7.3-9,.92-2.4,2.49-4.55,2.72-7.21L585.72,762c.66,0,.8-.48.76-1v0c3-7.13,6-14.26,9.06-21.52l2,1.17.72.54,1.41,1.43a6.46,6.46,0,0,0,3.17,2.4c.78-3.78,1.51-7.34,2.24-10.9a23.53,23.53,0,0,0,1.42-6.58l0-1.06,0,0c.65-.09.42-.64.52-1,.52-1.64,1.25-3.24,1-5l0,0,.48-1.07c.25-1.14.95-2.21.56-3.46l0,0c.71-.19.4-.81.52-1.25,1.16-4.54,2.76-9,3-13.72.46-2,1.79-3.86,1.57-6.08l0,.07.41-.91q1.53-6.78,3.07-13.56c.18-.8.36-1.61.55-2.42s.36-1.34.55-2a6.35,6.35,0,0,0,.44-.86q8.18-24.69,16.3-49.4a8,8,0,0,0,.18-1.9l0,0c.17-.24.35-.48.53-.71a6.39,6.39,0,0,0,1-3.53,32.45,32.45,0,0,0,3.07-9.44,18.38,18.38,0,0,0,2.19-6.27c1.22-1.67,2.56-3.28,3.63-5s3.11-3.11,3.09-5.54l0,0c.75.61.8-.14,1-.53l0,0,.54-.7c.92-1.34,2.42-2.34,2.53-4.18a.17.17,0,0,1,.2-.13.83.83,0,0,0,.75-1l0,0c1.87-1.43,2.88-3.51,4.07-5.45l.48-.57,0,0c.17-.35.34-.7.52-1l0,0a27.93,27.93,0,0,0,5.54-8l0,0,.71-.53a9.49,9.49,0,0,0,2.29-3.55V568l.55-.74a15.93,15.93,0,0,0,3.64-5.69c2.59-1.63,3.5-4.56,5.31-6.79l.54-1.3,0,0L678,553l0,0a33.11,33.11,0,0,0,5.44-7.59,12.46,12.46,0,0,0,3.07-4.48l0,.06.56-.71a85.86,85.86,0,0,0,8.69-12.78.83.83,0,0,0,.78-1l0,0c2.6-2.4,4.26-5.45,6-8.48l.59-.54,0,0a12.58,12.58,0,0,0,3-4.54l0,0,.54-.53,0,0,.53-.68c.73-1.26,2.39-2,2-3.87l0,0c1.11.23,1.13-.46,1-1.24h0c1.66-1.6,3.46-3.1,4-5.49a86.69,86.69,0,0,0,10.44-14.78l0,0L725,486l0,0,.62-1.18c1.81-1.89,3.64-3.78,4.39-6.4v.05l.52-.51,0,0,.56-.75a17.38,17.38,0,0,1,2.33-1.32c5.53-2.18,11.08-4.32,16.62-6.47l.51-.49,0,0c1,.31,1.73-.3,2.52-.72l10-3.78.51-.52,0,0a2.81,2.81,0,0,0,2.74-1c1.66-.68,2.92.21,4.18,1.07l2.12,1.52L775.9,468l1.6,1.12c2.33,1.69,4.62,3.43,7,5,1.37.93,2.56,2.48,4.59,1.87l5.27-.07c9.94.75,18.73-2.68,27.13-7.51.43,0,.85.08,1-.48l0,0a17.65,17.65,0,0,0,5.83-2.45L829,465l0,0c6.15-1.83,11.78-4.9,17.6-7.51L847,457v0a3.15,3.15,0,0,0,2.75-1.48c4.86-1.48,9-4.53,13.55-6.59a9.33,9.33,0,0,0,4.25-4c4-6.51,8.09-12.94,12.09-19.44.46-.73,1.5-1.39.85-2.55h0c.59.25.64-.05.52-.51l0,0c.56,0,.58-.36.54-.77a11.9,11.9,0,0,0,3.46-5.3v.05c.18-.25.36-.51.55-.76,1.89-4.44,2.72-9.18,3.89-13.82,1.12-4.45,2.92-8.76,3.08-13.43v0c.55,0,.46-.43.52-.76.33-1.25.66-2.49,1-3.74,2-7.77,4.17-15.53,6.1-23.33,1.2-4.88,3.08-9.61,3.42-14.7l0,0c.74-.2.46-.81.51-1.28,1.11-3.36,2.31-6.7,2.48-10.28v0c.65-.17.51-.71.53-1.17,2.77-11.12,5.68-22.21,8.27-33.37,4.19-17.95,9.48-35.65,12.37-53.89l.38-.58,0,0c1.7-3.73,2-7.8,3-11.72,1.67-7.09,3.13-14.23,4.68-21.35.13-.62.26-1.24.38-1.86a2.3,2.3,0,0,1,0-.37l1-4a16.05,16.05,0,0,0,1.16-5.89c1.33-3.27,1-6.75,1.26-10.15q1-12.74,2.08-25.48l4.54-33a26.26,26.26,0,0,0,1.47-7.6c.58-2.66,1.26-5.3,1.72-8,1.4-8.24,3.55-16.36,4.28-24.73l0,0c.67-.08.39-.61.47-1l1-6.33a23.86,23.86,0,0,0,.47-3.64c-.1-8.31-.29-16.62-.42-24.93q-.56-34.65-1.09-69.31c0-1.63-.11-3.25-.17-4.88l-3.33-69.62c-.25-1.46.71-3.1-.66-4.38a4.11,4.11,0,0,0-.53-1.32q-9.62-10.69-19.29-21.35c-.53-1.11-2.2-1.59-1.81-3.23a2.63,2.63,0,0,1,2.81,1.08Q941.09-106,951.32-94.69a4.39,4.39,0,0,1,1.12,2.91c3.64,59.7,4.66,119.46,4.07,179.25A46.3,46.3,0,0,1,955,97.54l-.45,2.48v0c-1.44,7.14-2.95,14.26-4.31,21.42-1.77,9.36-3.69,18.7-4.16,28.26A255.18,255.18,0,0,0,942.2,184c-.67,15.49-4.58,30.34-8,45.3-14,61.79-29.79,123.13-45.73,184.44-1.25,4.82-4.51,8.48-7,12.59-4.27,7.14-8.77,14.14-13.23,21.17a25.86,25.86,0,0,1-2.57,3c-.53-.07-1-.09-1.23.58h.06c-2.24.17-4,1.53-5.81,2.58-9.2,5.35-19.19,9.06-28.62,13.93-.48-.08-.95-.13-1.15.47l0,0c-3.26.78-6.13,2.45-9.11,3.89l-.91.64h0c-.48-.1-.91-.11-1,.53h.08c-2-.2-3.29,1.11-4.82,1.93l-1.28.56,0,0-5.61,2.09-5.24.38-11.43.53-3.3-.2-10.62-7.4-1.75-1.2-3.21-2.28-2.34-1.69Z" transform="translate(-326.59 118.53)"/><path class="cls-1" d="M601.65,747.63l1.57,1.29C597.16,756.3,591.49,764,585,771a21.48,21.48,0,0,1,3-6.84c.31-.35,1-.53.47-1.2l0,0c.94.43,1.1-.51,1.43-.93C593.87,757.3,597.76,752.46,601.65,747.63Z" transform="translate(-326.59 118.53)"/><path class="cls-1" d="M946.05,149.68c.47-9.56,2.39-18.9,4.16-28.26,1.36-7.16,2.87-14.28,4.31-21.42q-2.89,17.4-5.79,34.81C947.89,139.77,947,144.72,946.05,149.68Z" transform="translate(-326.59 118.53)"/><path class="cls-1" d="M954.51,100l.45-2.48Z" transform="translate(-326.59 118.53)"/><path class="cls-1" d="M584.56,771.83c.16-.28.32-.56.47-.84C584.88,771.27,584.72,771.55,584.56,771.83Z" transform="translate(-326.59 118.53)"/><path class="cls-1" d="M864.51,451c.19-.67.7-.65,1.23-.58C865.36,450.71,865.18,451.39,864.51,451Z" transform="translate(-326.59 118.53)"/><path class="cls-1" d="M928,245.52q2.4-14.78,4.81-29.54a5.41,5.41,0,0,0-.23-3.11L775.47,460.13c1.58.4,2.17-.46,2.91-.87,11.45-6.4,20.93-15.11,29.94-24.57,20.22-21.22,40.82-42.08,61.26-63.1q17.25-17.71,34.5-35.44c.66-.68,1-1.91,2.39-1.69-.17,3.58-1.37,6.92-2.48,10.28l-.51,1.28,0,0a6.19,6.19,0,0,0-.88,1.12q-6.07,12.41-12.12,24.84c-3.21,6.6-6.41,13.21-10,20.68L894,384c-.32,1.25-.65,2.49-1,3.74l-.52.76v0c-4.32,2.79-7.81,6.56-11.7,9.87-2,1.7-4.51,3.06-5.72,5.45-4.24,8.43-8.28,17-12.4,25.46l-.06.58.53-.2c3.73-2.32,7.42-4.72,11.22-6.93,3.55-2.08,6.69-4.85,10.62-6.27a11.9,11.9,0,0,1-3.46,5.3l-.54.77,0,0-.52.51h0c-4.81,3-8.61,7.23-13.24,10.37a44,44,0,0,0-17.5,22.18A3.15,3.15,0,0,1,847,457c1-3.72,3.75-6.7,4.47-10.55l.09,0-.06.07L829,465l0,0-.74.55a17.65,17.65,0,0,1-5.83,2.45c.16-1.05,1.14-1.36,1.8-1.91,9-7.43,18-14.88,27.12-22.2a13.71,13.71,0,0,0,4.93-6.62c0-.21,0-.41,0-.61L856,437c-10.9,6.83-21.81,13.62-32.68,20.5-9.66,6.12-19.27,12.33-28.91,18.5l-5.27.07c.54-.52,1.06-1.06,1.62-1.55q40-35.07,80.07-70.16c1.53-1.34,3.45-2.43,3.77-4.76l.31-.31-.55.08c-.72.41-1.47.79-2.16,1.24q-30.85,20.12-61.69,40.25c-5.28,3.46-10.89,6.58-15.6,10.71-6.18,5.42-11.61,11.69-17.37,17.59L775.9,468,786,457.38l-.36-.43-13.15,8.66-2.12-1.52c.43-.62.88-1.22,1.28-1.85Q852.52,335,933.33,207.83a9,9,0,0,0,1.36-3.16c1.9-11,3.71-22,5.54-33,0-.29.07-.59.22-1.84l-.52,1.58c-.6.88-1.25,1.74-1.8,2.66q-57.25,96.18-114.5,192.38Q794.91,414.73,766.22,463a2.81,2.81,0,0,1-2.74,1c5.06-8.68,10.07-17.4,15.21-26q80.76-135.69,161.55-271.36c.38-.64.84-1.24,1.26-1.85q-1.05,12.73-2.08,25.48c-.6,3.16-1.21,6.31-1.78,9.48,0,.24-.49,1.11.52.67a16.05,16.05,0,0,1-1.16,5.89c-1.11,1.13-.9,2.58-1,4a2.3,2.3,0,0,0,0,.37c-.57.53-.41,1.21-.38,1.86-1.55,7.12-3,14.26-4.68,21.35C930,237.72,929.69,241.79,928,245.52ZM881,395l-.5.49-.75.26c-.61.22-1.24.41-1.26,1.23-.13.15-.26.29,0,0-.09.45,0,.23,0,0,.87.23,1.13-.48,1.51-1,.16-.17.32-.35.47-.53L881,395l.09-.05C881.14,394.82,881.07,394.92,881,395ZM869.5,428.5l-.73.27c-3.35,2.63-8.36,3.3-9.76,8.24l-.33.47.21,0c0-.18.05-.37.07-.55,3.89-2,6.87-5.11,10.1-7.92.15-.19.29-.37.65-.91l-.21.35c.08,0,.19.05.22,0a1.38,1.38,0,0,0,.17-.29C869.83,428.21,869.78,428.18,869.5,428.5Zm-65.28,13.25-.15.53.47-.24.62-.38c.37-.19.75-.36,1.09-.58,21.41-13.95,42.76-28,64.27-41.78a25.12,25.12,0,0,0,9.85-11c7.36-15.83,15.15-31.46,22.77-47.17l.39-.89-.52-.42-.32.84c-.9.86-1.83,1.69-2.7,2.59Q874.88,369,849.8,394.82l-45.1,46.41Zm66.29-34.23a3,3,0,0,0-.63.35Q836.13,437.41,802.4,467a10.49,10.49,0,0,0-1.08,1.3,5.08,5.08,0,0,0,2.43-.89c13.43-8.5,26.54-17.6,40.41-25.31,10.64-5.92,18.28-13.62,22.18-25.09,1.12-3.27,3.43-6,4.13-9.51l.36-.06-.06-.21ZM776,460.62l-.21-.33-.56.4c.1.1.24.29.29.27A2.21,2.21,0,0,0,776,460.62Zm24.63,8.21.18.17.08-.34c-.06,0-.13,0-.17,0S800.63,468.78,800.6,468.83Zm70.09-41,.11-.14-.18,0Z" transform="translate(-326.59 118.53)"/><path class="cls-1" d="M586.47,761c1-4.74,3.19-9,4.92-13.52q12.54-32.6,25.22-65.14a18.11,18.11,0,0,1,.87-1.77q-1.53,6.78-3.07,13.56c-.14.3-.27.6-.41.91l0-.07c-1,2.59-2.09,5.18-3.13,7.78l.44.17,1.12-1.87c-.19,4.74-1.79,9.18-3,13.72-.17.42-.34.83-.52,1.25l0,0L605.36,723l.33.16,2.3-2.73c.27,1.79-.46,3.39-1,5-.18.34-.35.68-.52,1l0,0c-.66.52-1.35,1-1,2l0,0c-3.48,3.53-5.54,8-8,12.17l-2-1.17C592.48,746.74,589.47,753.87,586.47,761ZM611,703.77c-.64.4-1.14.87-.75,1.77Zm-1.3,2-.4,1.34C610.05,706.84,610,706.48,609.73,705.79Z" transform="translate(-326.59 118.53)"/><path class="cls-1" d="M564,794.5l17.51-21.72c-.23,2.66-1.8,4.81-2.72,7.21a26.48,26.48,0,0,0-7.3,9l0,0c-.88-.19-1,.37-1,1l0,0-.65.47C567.92,791.82,566.45,793.89,564,794.5Z" transform="translate(-326.59 118.53)"/><path class="cls-1" d="M606.46,727.54a23.53,23.53,0,0,1-1.42,6.58q-2.7,4.26-5.41,8.5l-1.41-1.43,7.3-12.71,0,0Z" transform="translate(-326.59 118.53)"/><path class="cls-1" d="M598.54,744.68,591,757c.9-4.91,3.57-9.18,5.09-14.09A3.86,3.86,0,0,1,598.54,744.68Z" transform="translate(-326.59 118.53)"/><path class="cls-1" d="M332.59,1108.17a1.52,1.52,0,0,1-.58,1.62C332.06,1109.2,331.88,1108.53,332.59,1108.17Z" transform="translate(-326.59 118.53)"/><path class="cls-1" d="M623.53,669.49A1.49,1.49,0,0,1,623,671C622.92,670.43,622.74,669.79,623.53,669.49Z" transform="translate(-326.59 118.53)"/><path class="cls-1" d="M334,1104.49a1.41,1.41,0,0,1-.53,1.53C333.44,1105.43,333.28,1104.81,334,1104.49Z" transform="translate(-326.59 118.53)"/><path class="cls-1" d="M334.54,1103a1.18,1.18,0,0,1-.53,1.53C333.93,1103.93,333.81,1103.32,334.54,1103Z" transform="translate(-326.59 118.53)"/><path class="cls-1" d="M335,1101.51a1,1,0,0,1-.52,1.52C334.42,1102.42,334.33,1101.83,335,1101.51Z" transform="translate(-326.59 118.53)"/><path class="cls-1" d="M709,507.49c.16-.17.33-.34.5-.5l.53-.25c.08.78.06,1.47-1,1.24Z" transform="translate(-326.59 118.53)"/><path class="cls-1" d="M331.51,1111.29c-.17.42-.33.85-.5,1.27C331.18,1112.14,331.34,1111.71,331.51,1111.29Z" transform="translate(-326.59 118.53)"/><path class="cls-1" d="M332,1109.73l-.53,1.55Z" transform="translate(-326.59 118.53)"/><path class="cls-1" d="M333.52,1106c0,.43.09.91-.53,1C333,1106.6,332.92,1106.11,333.52,1106Z" transform="translate(-326.59 118.53)"/><path class="cls-1" d="M695.71,527.5l.78-1A.83.83,0,0,1,695.71,527.5Z" transform="translate(-326.59 118.53)"/><path class="cls-1" d="M388.53,951l-.47,1.1C388,951.64,387.87,951.16,388.53,951Z" transform="translate(-326.59 118.53)"/><path class="cls-1" d="M416,872c.54.75-.29.84-.57,1.2C415.51,872.74,415.39,872.19,416,872Z" transform="translate(-326.59 118.53)"/><path class="cls-1" d="M449.54,775.51c.4.67-.23.77-.56,1C449,776.12,449,775.63,449.54,775.51Z" transform="translate(-326.59 118.53)"/><path class="cls-1" d="M585.72,762l.76-1C586.52,761.53,586.38,762,585.72,762Z" transform="translate(-326.59 118.53)"/><path class="cls-1" d="M906.46,334.49c-.55-.73.26-.82.53-1.17C907,333.78,907.11,334.32,906.46,334.49Z" transform="translate(-326.59 118.53)"/><path class="cls-1" d="M608,720.5l.48-1.07Z" transform="translate(-326.59 118.53)"/><path class="cls-1" d="M623,671c0,.43.05.88-.51,1C622.51,671.6,622.39,671.11,623,671Z" transform="translate(-326.59 118.53)"/><path class="cls-1" d="M821.5,468.44l1-.48C822.35,468.52,821.93,468.48,821.5,468.44Z" transform="translate(-326.59 118.53)"/><path class="cls-1" d="M819.92,471.89c-.1.5-.36.78-.91.64Z" transform="translate(-326.59 118.53)"/><path class="cls-1" d="M819,472.52c-.18.5-.27,1.14-1,.53C818.12,472.41,818.55,472.42,819,472.52Z" transform="translate(-326.59 118.53)"/><path class="cls-1" d="M671.27,567.49l-.75,1A.76.76,0,0,1,671.27,567.49Z" transform="translate(-326.59 118.53)"/><path class="cls-1" d="M645,604.51c.42.62-.13.81-.48,1.09C644.43,605.11,644.43,604.67,645,604.51Z" transform="translate(-326.59 118.53)"/><path class="cls-1" d="M653.24,588l.75-1A.83.83,0,0,1,653.24,588Z" transform="translate(-326.59 118.53)"/><path class="cls-1" d="M640,619.51l-.5.61Z" transform="translate(-326.59 118.53)"/><path class="cls-1" d="M730,478.48l.52-.51Z" transform="translate(-326.59 118.53)"/><path class="cls-1" d="M730.47,478l.56-.75Z" transform="translate(-326.59 118.53)"/><path class="cls-1" d="M667.47,568l.55-.74Z" transform="translate(-326.59 118.53)"/><path class="cls-1" d="M751,471.5l-.5.53Z" transform="translate(-326.59 118.53)"/><path class="cls-1" d="M750,469.46l.51-.49Z" transform="translate(-326.59 118.53)"/><path class="cls-1" d="M763,464.49l.51-.52Z" transform="translate(-326.59 118.53)"/><path class="cls-1" d="M846.58,457.5,847,457Z" transform="translate(-326.59 118.53)"/><path class="cls-1" d="M885,416.49c.18-.25.36-.51.55-.76Z" transform="translate(-326.59 118.53)"/><path class="cls-1" d="M591,757l-.52.8Z" transform="translate(-326.59 118.53)"/><path class="cls-1" d="M927.63,246.06l.38-.58Z" transform="translate(-326.59 118.53)"/><path class="cls-1" d="M686.46,541l.56-.71Z" transform="translate(-326.59 118.53)"/><path class="cls-1" d="M563.49,795l.51-.54Z" transform="translate(-326.59 118.53)"/><path class="cls-1" d="M563,795.2l.5-.22C563.5,795.39,563.32,795.43,563,795.2Z" transform="translate(-326.59 118.53)"/><path class="cls-1" d="M695,533.29l-.49.74Z" transform="translate(-326.59 118.53)"/><path class="cls-1" d="M333,1107a.61.61,0,0,1-.25.38Z" transform="translate(-326.59 118.53)"/></svg>