<svg id="Layer_1" data-name="Layer 1" xmlns="http://www.w3.org/2000/svg" viewBox="0 0 1264.05 630.08"><defs><style>.cls-1{fill:#3CB371;}.cls-2{fill:#6666FF;}</style></defs><path class="cls-1" d="M194.11,260.56c8.29,17.61,16.31,35.35,25,52.75,3.54,7.1,8.52,13.5,12.93,20.16a5.93,5.93,0,0,0,2.18,1.58l326.1,176.06c45.17,24.38,90.24,48.95,135.56,73,12.1,6.43,25.41,10.31,38.19,15.28q100.78,39.21,201.63,78.28c.68.26,1.79.2,1.74,1.43-1.64-.39-2.12,1.28-3.23,1.81l-52.56,3.63,29.89,16.19c-1.28,1.37-2.92.41-4.38.66C895,696.21,882.93,691,870.78,685.79a6.18,6.18,0,0,0-2.69-.17q-23.39,1.71-46.78,3.45c-3.62.27-7.25.6-11.64,1l27.87,14.72-4.88.17c-9.44-4.51-18.9-9-28.31-13.57a7.6,7.6,0,0,0-4.07-.77l-74.19,5.49c-2.39.18-4.76.45-8,.76,2.68,1.46,4.52,2.4,6.3,3.44,3.39,2,7.21,3.25,10.22,5.91L728.45,705l-1-.47,0,0q-5.73-3.16-11.45-6.34a6.51,6.51,0,0,0-4-1.1c-5.77.54-11.54,1-17.31,1.44a26.26,26.26,0,0,1-7.6-1.47l23.06-1.9c-1.52-.83-2.3-1.27-3.09-1.69l-96.47-51.34Q505.31,586,399.9,530q-24.56-13.07-49.17-26c-.42-.79-1-1.52-.72-2.52a28.22,28.22,0,0,1,2.72,1.12q49.59,26.35,99.16,52.74L712.13,693.75a6.69,6.69,0,0,0,3.75,1.09q33.38-2.51,66.74-4.93c4.94-.37,9.87-.77,15.65-1.22-1.48-.81-2.17-1.23-2.89-1.57L672.21,628.91q-133.32-63-266.64-126.07-36.65-17.34-73.33-34.61l-.83-.07.21.59c2.69,4.29,6.55,7.73,8.95,12.23-2.62-.75-4.51-2.58-6.4-4.39-.36-.28-.54-.88-1.18-.62l0,0c.13-.47,0-.69-.53-.53l0,0a49.88,49.88,0,0,0-10.84-12.18,12.33,12.33,0,0,0-6.68-2.82c0-.11,0-.23-.05-.34l-.22.05.26.3,2.47,4.66a16.49,16.49,0,0,1-5.21-4.14c.17-.31.12-.5-.28-.5,0-.32,0-.63-.51-.49.1-1.12-.16-2-1.53-2v-.16l0,.13,1.08,1.95c-1.84.41-2.62-1.26-3.88-2l-.68-.53,0,0c0-.38,0-.69-.53-.54l0,0c-.58-2.42-2.71-2.5-4.54-3l0,0-.61-.43c-2.91-1.9-6-3.53-8.41-6.13l8.88,3.66.48.2-.21-.47c-2.71-3.72-4.75-8.32-8.65-10.65-4.9-2.93-10.55-4.61-15.88-6.83l-.57-.19c0,.19.05.38.08.57.21,1.35,1.61,2.24,1.43,3.74-1.78-.57-3.09-1.88-4.56-2.93-.62-4.4-4.16-4.86-7.51-5.58l0,0c.18-.56-.25-.47-.55-.52l0,0-1.3-.54L257.36,423c4.63.78,8.49,3.74,13.38,4.95-1.46-2.85-1.89-6.39-4.24-7.56-5.66-2.82-11.74-4.77-17.86-7.15.52,2.17,2.32,3.27,2.43,5.2a9.49,9.49,0,0,1-3.55-2.29c-.18-.24-.35-.48-.53-.71l0,0c-1.14-4.07-4.44-5-8-5.54l0,0c-.08-.72-.6-.54-1.05-.52l.05,0-.57-.48c-1.94-1.19-4-2.2-5.45-4.08l11.07,3.75c-3.68-6-7.62-11.26-10.29-17.09-3.86-8.43-12.22-10-19-14.06,3.31,5.54,6.89,10.82,10.3,16.2,2.22,3.49,5,6.65,6.53,10.54l-3.94-2.79c-.24-.17-.47-.35-.7-.53l0,0a.73.73,0,0,0-.53-1l0,0q-8-12.31-16-24.62a3.09,3.09,0,0,0-1.15-.92q-8.81-4.63-17.63-9.25l-.59-.11.24.49c8,9.39,16,18.82,24.54,27.7a18.61,18.61,0,0,1-6.27-2.2l-28.4-27.46-.4-.41-.85-.74-.51-.49-.52-.47-.2-.36-.14.27.38,0,.32.7.43.6.65.81.45.54,3.65,4.69c5.08,6.5,10.79,12.51,15.46,19.34L195.7,387l-.71-.53,0,0a18.79,18.79,0,0,0-1.31-2.05c-7.17-8.76-14.47-17.41-21.48-26.29a27.91,27.91,0,0,0-10.08-8.22c-5-2.39-9.81-5.1-15-7.81-1.49,9.43-2.91,18.44-4.33,27.45l-2-.55q2-12.67,4-25.36c.22-1.37.56-2.58-1.22-3.51q-41.58-21.84-83.09-43.81l2.47-1L145.76,339c-.41-3.6,2.6-6.64-.62-9.76q-24.4-23.61-48.72-47.34l2.15-.87q12.74,12.44,25.47,24.85c4.75,4.62,9.57,9.16,14.36,13.74l.5.5.51.49.5.5c.16.17.33.34.5.5s.33.34.5.5l.5.5c.16.17.33.34.5.5l.5.5.55.44.52.49.5.5.5.5.5.5.5.5.5.5.53.47.23.34.1-.3h-.38l-.18-.73c-.17-.17-.33-.34-.5-.5s-.33-.34-.5-.5-.33-.34-.5-.5-.33-.34-.5-.5-.33-.34-.5-.5l-.5-.54-.51-.54-.5-.5-.48-.48-.52-.52-.48-.48-.5-.5-.5-.5-.46-.5-.46-.51-38.46-39,2.32-.77,23.5,23.79.52.48.58.21-.28-.53-.44-.56-20.12-24.84,2.24-.56L138,313.23c3.17,3.89,6.36,7.76,9.55,11.65,1.53-2.91.29-4.7-1.45-6.67-12.12-13.7-24.13-27.5-36.18-41.28l2-.7,36.92,42.12c1.36-8.76,2.62-16.86,3.88-24.93L117.3,274.29l2.58-.9,32.89,17.71.7-.68q-7.75-11.76-15.5-23.51l2-.68c4.48,6.76,9,13.51,13.33,20.08,4.08-7.87,1.19-13.74-4.84-18.75a29.69,29.69,0,0,1-3-3.33l2.13-.74,8.24,9.31c1-4.35,1-4.35-2.88-11.25l1.95-.64,2.19,3.59a3.41,3.41,0,0,0-.69-4.13c1.17-.61,2.32-1.29,3.72-.81a3.92,3.92,0,0,0,1,3.66c13.71,17.9,27.32,35.87,41.14,53.69,3,3.85,8,4.84,12.8,7.89a56,56,0,0,0-5.29-8.9q-20.82-26.65-41.54-53.38l2.55,0c.74,1,1.46,2,2.23,3q15,19.08,29.93,38.15l.43.4v-.76c-.41-.81-.82-1.63-1.25-2.44q-10.57-19.62-21.14-39.26l4-.21L208.4,297.1l.4.42-.05-.75-16.83-36Zm-16.33,94.07-.41-.4-.77-.83-26-30.07c-.22,1.75-1.72,3.12-.16,4.67,8.63,8.57,17.19,17.21,25.77,25.83l.74.77.5.5.51.49.51.49.53.22c-.06-.2-.12-.39-.17-.58l-.5-.51C178.11,355,177.94,354.83,177.78,354.63Zm65.77.82-.18-.41-.25.22.35.27.55.45c0,.24.07.49,0,.11.24.3.09.11-.06-.07ZM128,305l-.14-.5-.2.09.34.41.51.49.2.34.14-.26-.37-.05C128.55,305.13,128.43,304.92,128,305Zm95.53,43.47.29.31-.33-.28L223,348l-.49-.5-.34-.69c-.21-.28-.41-.57-.61-.85l-1.93-2.57c-4.8-6.35-9.75-12.59-14.32-19.1a21,21,0,0,0-9.56-7.55l-.59-.12.27.46,23.74,26.79c.68.79,1.37,1.57,2,2.35l.79.78.52.48.51.49Zm-60.18-.33.56.1-.37-.28-.42-.58c-4.15-5.4-9.54-9.53-14.42-14.77-.46,2.77-.81,5-1.21,7.38l15.25,7.87ZM266.46,401l-.24-.33.29.3.51.48c.26.4.52.79.79,1.18l.46.6c.18.29.23.76,1.77.13l-1.52-.41-.49-.51c-.16-.52-.37-1-1-1C267,401.17,266.9,400.92,266.46,401Zm48.9,51.1.67.34a.74.74,0,0,0,.47,1c.1.11.19.21.06.07l-.09,0a.72.72,0,0,0-.48-1l-.45-.56-.45-.55-.39-.63-.49-.35.21.65.52.47ZM282,414.53c0-.16-.08-.32,0-.09-.19-.15-.06-.05.07.05l.5.49c.06.1.12.19.08.12s0,0-.11-.08Zm-52.34-62.66-.3-.63c-2.94-5.48-6.36-10.78-8.71-16.51-2.52-6.15-7.3-9.11-12.89-11.47l-.54-.14.23.46,21.41,28.08.38.6.56.67.29-.13C229.92,352.49,229.78,352.18,229.63,351.87ZM221,331c.09.24.19.48.29.72,4.28,8,8.44,16,12.87,23.95,2.74,4.9,4.68,10.31,8.78,14.39l.36.36-.18-.54c-2.54-5.5-5.24-10.94-7.56-16.53a72.6,72.6,0,0,0-14-21.9l-.6-.4v-.11C220.74,330.65,220.88,330.82,221,331Zm-31.5-58.5-.37-.37.24.51.44,1.05.54,1c.09.2.18.41.26.62,2.59,4.82,5.07,9.71,7.78,14.46,7.19,12.57,12.69,26.17,22.45,37.19.75.85,1.22,2,2.57,2.18l.35.29,0-.61c-8.12-19.65-21.54-36.08-32.67-53.9l-.35-.62-.66-.86Zm90.5,134-.54-.46a.78.78,0,0,0-.49-1l-.26-.4c-.17.37-.05.46.3.36-.06.45-.06.86.48,1l.42.58.53,1c1.17,1.66,1.35,4.23,4.1,4.4v.21l0-.18-3.73-4.69ZM464.18,509.8l-1-.51c-8.06-4.31-16.05-8.74-24.19-12.89-31.29-15.94-61.23-34.62-94.72-46.09-12.72-4.36-25.15-9.56-37.71-14.37l-.36-.28c0,.19,0,.39,0,.58,4.17,5.39,7.8,10.84,14.86,13.65,21,8.36,41.67,17.55,62.48,26.39q39.59,16.82,79.19,33.58l1,.45,1.11.4,2.78,1.25.17-.44-2.66-1.15ZM166.51,284.49l.21.37.13-.29-.38,0c.27-.5,0-.83-.38-1.11l-7.28-12.29c-.53,1.76-1.63,3.33-.11,4.94,2.38,2.53,4.66,5.14,7,7.72Zm146,164-1.16-.66.88,1c.31.37.5,1,1.23.64A1,1,0,0,0,312.54,448.45Zm212.23,90.87c.43.1.82.85,1.39,0l-1-.45c-.63-.37-1.18-1-2.27-.53ZM249.52,383.47c0,.23.09.46,0,.09.24.29.09.12,0-.06a2.28,2.28,0,0,0-1.48-2.22Zm635.92,306.1a.68.68,0,0,0,1.12.16l-.84-.5c-3.3-1.53-6-4.53-10.27-3.65ZM298.5,442.52l-.13-.11.16.06c2.13,4.2,5.44,7.54,8.22,11.27.19.25.87.14,1.32.19l0,0c-1.66-2.58-3.36-5.13-5-7.73C302,444.44,300.91,442.66,298.5,442.52Zm.13-9.64-.51-.1.33.26c2.65,3.08,5.28,6.18,8,9.23.84,1,1.45,2.33,3.08,2.23l.34.11-.34-.11c-1.29-3-3.75-5.1-5.55-7.7C302.64,434.89,301.27,433,298.63,432.88Zm-10.45-4-.53-.11.34.27c3.15,3.91,5,9.09,10.51,10.71C295.35,435.82,294.67,429.6,288.18,428.85ZM229.54,335l-.14-.05.18,0c2,8.16,8.61,13.16,13.2,19.55-3.75-6.42-7.83-12.64-11.95-18.82C230.59,335.31,230,335.19,229.54,335Zm76,110.54-.25-.26,0,.2h.33c3,5.52,5.18,11.8,13,13.54-3.84-4.32-7.3-8.24-10.79-12.13C307.13,446.21,306.6,445.36,305.49,445.51Zm-33-37-.19-.06.22,0c4.9,6.52,8.39,14.35,16.91,18.92a9.31,9.31,0,0,0-.59-1.74Q281.95,417.82,275,410A4.53,4.53,0,0,0,272.51,408.5ZM280,423.05l1.18.67-.9-1c-3.41-4.52-7-8.94-10.17-13.59a17.24,17.24,0,0,0-8.35-6.36l-.58,0,.29.32c2.28,5,4.54,10,6.86,14.92a2.48,2.48,0,0,0,1.2,1.15C273,420.48,276.46,421.75,280,423.05Zm-101-118,.33.29,0-.58c-5.25-10.51-14.37-17.84-21.89-27.37-.57,3.66-.78,6.64-1.53,9.48a6.49,6.49,0,0,0,3.22,7.43C165.46,298.24,172.27,301.53,178.94,305.07ZM351.26,450.83l2.86,1.18.17-.45-2.63-1.24c-6.51-3.48-13-7-19.51-10.43q-19-10-38.09-20l-.46-.21.17.5c2.78,3.64,5.54,7.29,8.35,10.89a4.33,4.33,0,0,0,1.71,1.36Q327.53,441.7,351.26,450.83ZM197.45,315.06l.47.22-.15-.53L159.66,264.6c-.76,1.66-.89,2.74-.18,3.84,8.49,13.18,15.47,27.37,26.7,38.73A35.71,35.71,0,0,0,197.45,315.06Zm40.85,37.67-.56-.67-.29.16.42.9c2.39,5.19,4.69,10.42,7.2,15.55,1.78,3.64,2.84,7.69,5.56,10.79,7.94,9.06,16,18,24,27a5.92,5.92,0,0,0,3.23,2.19l.53.18-.21-.49a4.42,4.42,0,0,0-.25-.7A495.81,495.81,0,0,0,238.3,352.73Zm-76.05-54.06-.6-.09.21.56c.28.5.53,1,.85,1.51,14.7,22.29,29.71,44.38,43.94,67,4.74,7.52,12.44,9.31,19.7,14.21-.58-1.25-.67-1.53-.82-1.78q-21.33-34.77-42.67-69.54a4.83,4.83,0,0,0-1.72-1.7C174.87,305.39,168.55,302,162.25,298.67ZM718.67,595.81c-.37-.24-.73-.56-1.22,0l.74.54q79.37,42.87,158.72,85.75a5.67,5.67,0,0,0,3.34.62c8-.6,16.11-1.14,24.16-1.73,9.07-.67,18.15-1.38,28.18-2.14-1.66-.69-2.45-1-3.25-1.35Q849,646.27,768.7,615.09,743.7,605.4,718.67,595.81Zm59,80.58,5.58,2.8.29-.6-5.38-2.8c-.35-.21-.7-.45-1.07-.64L542.36,551C526,542.36,510,532.69,493,525.27c-52-22.76-104.46-44.65-156.73-66.88l-19.15-8.13c2.11,2.78,3.36,4.7,4.89,6.37,2.48,2.73,3.92,6.33,7.59,8.06q56.88,26.81,113.71,53.73l251.75,119Q736.38,657,777.7,676.39ZM396.65,470.83l-1.4-.46-.14.31,1.05.66c9.41,5,18.75,10.12,28.23,15,32.79,16.76,64.7,35.14,98.78,49.5,115.35,48.6,230.43,97.85,345.6,146.88a6,6,0,0,0,5.15.11c-.83-.48-1.47-.85-2.11-1.2q-71.38-38.54-142.79-77c-11.35-6.11-22.22-13.3-34.22-18Q577,540.5,459,494.94,427.84,482.85,396.65,470.83ZM236.24,338.64l-.62-.07.21.6c.19.36.35.75.57,1.1,15.75,25,32.33,49.47,51.22,72.28a14,14,0,0,0,4.23,3.76c15.91,8.34,31.78,16.77,47.68,25.14,12.07,6.36,23.7,13.85,36.32,18.8q148.3,58.13,296.93,115.4c.89.35,1.78,1.09,3.46.48-1.48-.84-2.52-1.45-3.59-2L290.09,367.58Q263.2,353.06,236.24,338.64ZM526.52,539.31l-.39.8,11.32,6Q670.59,616.5,803.73,686.94a8.73,8.73,0,0,0,5,1.06c11.62-.88,23.24-1.71,34.86-2.57,7.15-.53,14.3-1.09,22.43-1.71ZM155.81,294.17l-1.23.7c-1.21,7.8-2.37,15.61-3.68,23.39A4.05,4.05,0,0,0,152,322q15,17,29.9,34.18a24.19,24.19,0,0,0,7.75,6.06c4.92,2.43,9.71,5.1,14.57,7.64.52.27,1,.95,1.92.24C189.27,344.89,172.81,319.34,155.81,294.17Zm30.45,17.76c.6,1.06,1,1.77,1.41,2.47,13.17,21.48,26.4,42.93,39.47,64.49a17.88,17.88,0,0,0,7.74,7.32c6.07,2.94,12,6.24,18.77,9.83-1.22-2.33-1.93-3.81-2.76-5.22-4.24-7.23-7-15.45-12.49-21.81-16-18.52-32.41-36.66-48.66-55A5.33,5.33,0,0,0,186.26,311.93Zm79.08,105.62a31.94,31.94,0,0,1-1.73-3.31c-4.12-11.4-12.11-18.81-23.36-23a77.9,77.9,0,0,1-8-4.08c4.78,7.79,9.11,14.89,13.49,22a3.27,3.27,0,0,0,1.37,1.34C252.93,412.76,258.73,415,265.34,417.55Zm25,19.05c-3.68-9.06-11.21-12.46-20.34-14.62,2.08,2.84,2.41,6.49,5.1,7.94C279.91,432.53,285.15,434.39,290.3,436.6Zm-4.41-20.94c4.1,4.7,5,12.25,12.21,14.22C294.24,425,291.31,419.25,285.89,415.66Zm-29.49-24.3c1.65,3.73,1.68,8.67,7.31,9.53ZM677,576.77c-.37-.34-.59-.74-1-.28C676.11,577,676.37,577.07,677,576.77Zm211.12,114Zm-367.85-154c0-.05,0-.13,0-.15a.6.6,0,0,0-.2,0l0,.23ZM289.81,426.77l-.16-.11,0,.16Zm8.88,3.38-.09.12h.16Zm-17.31-16.89-.16-.16-.1.32c.06,0,.13,0,.16,0S281.35,413.32,281.38,413.26Zm-1.05-.6-.1.11.15,0Zm74.89,39.69.1-.13-.17,0Zm-85.4-48.07-.16-.11,0,.15Zm199.05,108c-.05,0-.09-.12-.14-.12s-.1.06-.15.1.09.12.14.13S468.82,512.3,468.87,512.26ZM265.75,399.66l-.1.16.16,0Zm-10-9c-.05,0-.14.08-.14.13s.07.11.11.16.13-.09.13-.14S255.8,390.69,255.77,390.65ZM521.25,537.12l-.17.13s.1.14.16.14.11-.08.17-.12A1.14,1.14,0,0,0,521.25,537.12Zm1.12.58-.15-.08v.28a.41.41,0,0,0,.15-.07S522.36,537.74,522.37,537.7Zm155.3,39.42-.09.15h.34s0-.12-.08-.15S677.73,577.12,677.67,577.12ZM247.87,380.3l-.11-.16s-.13.08-.13.13.06.1.1.16ZM209.4,298.25l-.14-.18c0,.05-.15.1-.15.16s.08.12.13.18Zm34.33,73.07.09-.13-.12,0ZM716.68,595.16l-.08.13h.3s0-.11-.07-.13S716.73,595.16,716.68,595.16Zm67.49,84-.08.14h.32s0-.11-.08-.14A.4.4,0,0,0,784.17,679.14Zm1.23.59-.14-.14-.09.26a.26.26,0,0,0,.15,0S785.37,679.77,785.4,679.73Zm1,.53c-.06-.06-.11-.16-.17-.16s-.13.09-.2.14.12.16.18.16S786.37,680.31,786.43,680.26Zm.82.35-.17.13c0,.06.1.15.16.15s.11-.08.17-.12Zm1,.51-.17.12s.1.12.15.13.1-.07.16-.11Zm1,.75.16-.11s-.08-.12-.13-.13-.11.07-.16.1Zm98,8.55.19-.16c0-.06-.11-.16-.17-.16s-.13.09-.2.14Z" transform="translate(326.52 -77.59)"/><path class="cls-1" d="M31.22,328.17Q5.27,306.84-20.7,285.51q-102.76-84.66-205.52-169.36c-2.93-2.41-6.64-3-10.06-4.17q-44.5-15.56-89-31a7.89,7.89,0,0,1-.87-.44l5.12-.48a15.84,15.84,0,0,0,1.77.84q33.3,11.57,66.6,23.1,9.47,3.27,18.93,6.57c-3.81-3.46-7-7.65-11.75-9.61-10.82-4.47-21.79-8.57-32.68-12.88-1.49-.59-3.23-.71-4.35-2.08a11,11,0,0,1,1.92.33c11.55,4,23.11,8,34.62,12.08,21.36,7.64,42.68,15.39,64,23.1l1,.46,0,0,1.54.53-.05,0a4.11,4.11,0,0,0,3.05,1l-.05,0c.11.65.6.53,1,.52l0,0c6.2,2.55,12.38,5.14,18.6,7.64,10,4,20,8,30.05,11.94l.13-.29-5.29-3.77c4.19.51,7.91,2.45,11.76,4a138.52,138.52,0,0,0,18.63,10c14.35,6,28.85,11.53,43.29,17.26,3.44,1.36,6.9,2.68,10.81,4.2-1.38-3.45-4.67-4.83-5.54-7.9a3,3,0,0,1,2.83.93c4.82,7.32,11.73,11.46,20.15,13.38a55.44,55.44,0,0,1,5.66,1.92L-4,190.34l-1.41-7.27L0,185c.25.35.43.83,1,.53l0,0c3.49,4.11,6.74,8.63,12,10.65,6.66,2.57,13.48,4.75,20.23,7.09l16,5.53c-1.7-3.38-4.72-5.12-5.77-8.24,1.2-.32,2.08.43,3,.9,3.67,3.46,5.7,8.53,11.08,10.32,12.12,4.05,24.16,8.35,36.24,12.54l20.64,7.13L110,224.34a8.6,8.6,0,0,1,4.26,1.64c2.56,2.66,4.33,6.42,7.69,7.92,5.41,2.41,11.2,4,16.83,5.88l.63,0-.28-.36-3.78-6.58L139,234l.55.51,0,0c2.61,4.28,5.27,8.33,10.78,9.49,3.39.72,6.62,2.22,9.92,3.36L176,252.77,172.39,246c2.07.52,3.33,2.18,4.85,3.47l.77.55,0,0c-.05.4-.07.77.53.54l0,0c.61,3.72,3.2,4.85,6.54,5l0,0c0,.7.58.44.91.58,1.06.91,2.66,1.19,3.35,2.84H186.9l-4.58-1.78,1,1.86c-1.21.73-2.53.45-3.83.44a7.43,7.43,0,0,0-5.64-5.27c-4.54-1.31-8.95-3.06-13.43-4.61-4.08-1.41-8.18-2.79-13.35-4.55,4.3,5,6.5,10.49,12.56,12l-4.82,1.48c-.52-.82-1-1.71-2.39-1.75l1.1,2.22-2,.63c-1.18-1.65-1.58-4-3.63-4.85-3.72-1.56-7.54-2.9-11.32-4.34l-.52-.17.23.47,9.41,10.92-2.07.86c-4.07-4.65-8.1-9.34-12.24-13.93a4.56,4.56,0,0,0-4-1.48c0-.12,0-.24,0-.36l-.23,0,.3.28,11.1,17.2-2,.76c-3.91-6-7.86-12-11.71-18a7,7,0,0,0-3.58-2.88q-26.72-10.43-53.42-20.89c-.75-.29-1.52-1-2.61-.42.38.51.7,1,1.07,1.41,9.21,10.52,18.4,21.07,27.67,31.54,2.24,2.54,4,5.64,7,7.37,5.26,3,10.67,5.79,16,8.67l-2.49,1-8.77-4.56L105,268c.07-.31,0-.45-.34-.26l.38.21.38.62,4.74,5.68-2.08.75-8.34-9.61-.56.48,7.69,9.54-1.89.72c-.6-.69-1.2-1.37-1.78-2.07-3.79-4.51-6.8-10.19-11.52-13.27-9.54-6.22-20-11-30.08-16.41l-.51-.22.27.48c12.37,11.86,23.33,25.41,39.25,33.06l-2.44.89L95,277,94,276.56a.79.79,0,0,0-.08-.18s0,.06.11.14l.8.76c.63.66,1.26,1.31,1.88,2l-2.07.83c-6.06-6.61-13.21-11.72-20.94-16.27C50.73,250.3,28,236.47,5.22,222.76H4.64l.2.4A23.64,23.64,0,0,0,11,237.59c16.76,18.55,33.15,37.43,49.67,56.2l-1.91.81-50.37-57-.75.45q7.4,37,14.8,74l-2.19.93a9.87,9.87,0,0,0-.06-1.22q-7.47-37.69-14.91-75.4a11.32,11.32,0,0,0-2.87-5.64C-3.44,224.2-9.19,217.61-15,211.09a11.67,11.67,0,0,0-2.65-2.21Q-48.86,190-80.09,171.23c-7.13-4.27-13.76-9.7-21.57-12.47-38.46-13.66-77.09-26.88-115.66-40.23-.77-.27-1.57-1-2.75-.07,1,.88,1.91,1.7,2.84,2.47L-6.67,294.41c10,8.25,20.12,16.41,30.17,24.61l0,0c.21.42.43.84,1,.53l0,0c0,.56.31.67.79.53ZM90.52,255l-.16-.13.2.09.51.49.42,1.06.51.5c.11.1,0,.59.36.19L92,257l-.52-.5c-.14-.35-.27-.71-.41-1.06Zm8,9.43-.51-.23.2.54c.2.17.36.62.68.17C99,264.86,98.7,264.59,98.57,264.42ZM76.47,263l-.29-.71c-3.36-3.33-6.64-6.76-10.12-10-6.36-5.9-11.89-12.69-20-16.63-9.2-4.44-18-9.63-27-14.49L2.71,212.46c1,6.89,1,6.87,6.39,10.13q11.66,7,23.3,14,21.71,13,43.44,26l.67.33.5.38.09-.23ZM-9,214.53c.17-.34,0-.41-.27-.3l.33.26.64.83,11.45,13.2c-.45-2.93.5-6.29-1.86-8.15-2.77-2.19-6.07-3.69-9.15-5.49C-8.21,214.54-8.53,214.25-9,214.53ZM-87.48,164l.13.38.24-.19-.41-.14c-.15-.44-.37-.62-.93-.13Zm209.73,74.25-.56-.2.24.54c1.28,2.19,2,4.89,5.6,5.45ZM4.41,193.1c.25.33.52.47.88.1l-.52-.49-6.26-7.32C-2.56,190.84-1.68,191.74,4.41,193.1ZM15,199.53c.19-.42,0-.38-.34-.29l.39.25a3.53,3.53,0,0,0,.72.58q18.58,7.4,37.18,14.75a5.72,5.72,0,0,0,1.62.15c-.3.35,0,.34.25.36l-.3-.32a7.83,7.83,0,0,0-5.09-4c-5.61-1.82-11.12-3.95-16.74-5.75C26.76,203.36,21.11,200.67,15,199.53Zm130.79,51.76.57.07-.19-.5c-1.6-2.6-2.6-6.32-4.93-7.57-5-2.67-10.66-4.06-16.05-6,2.48,3.35,4.3,7.2,7.88,9C137.08,248.36,141.5,249.67,145.76,251.29Zm-167.6-51.95-.54-.18.26.46c5.61,8.88,14.81,13,23.58,17.94-1.21-2.28.33-5.53-2.4-7.05C-7.85,206.69-14.87,203.05-21.84,199.34Zm-.91,3.95.62.12-.28-.5c-3-3.86-6.06-7.52-10.63-9.88-11.52-6-22.86-12.29-34.3-18.42-6.15-3.3-12.35-6.49-18.54-9.72l-.52-.24.38.37c.09.13.16.31.28.38Zm143,38,.59.06-.21-.52c-1.94-2.56-2.66-6.08-6.27-7.32-14.29-4.89-28.55-9.88-42.83-14.82q-6.5-2.25-13-4.46c.83,1.82,1.57,3.44,3.31,4.12Zm-98.58-36c-.3-.25-.61-.48-1.05.06l.59.43c5.94,5.81,11.86,11.64,17.83,17.43,5.13,5,9.68,10.87,15.59,14.63C64.9,244.39,76,249.6,86.76,255.36l.73,0-.29-.52Q73.1,237.53,59,220.27a4.08,4.08,0,0,0-1.57-1.16Q39.55,212.18,21.68,205.3Zm23.65,27.82-.81.67C36.31,225,27.94,216.29,20,207.28c-5.51-6.22-13.26-7.51-20.55-10.84.8,4.08,1.55,7.64,2.17,11.23A4,4,0,0,0,4,210.83c8.29,4.39,16.54,8.87,24.8,13.33ZM-236.46,104.46c4.17,3.22,7.2,7.78,12.4,9.57q37.14,12.8,74.22,25.74,11.26,3.91,22.55,7.79l.16-.45ZM-37,182.29c8.27,14.41,23.66,18,36.62,26.36a50.93,50.93,0,0,1-1.19-6.79c-.14-5-2.75-7.18-7.3-8.74C-18.26,189.89-27.44,186-37,182.29Zm2.65,7.83c-3-3.65-4.92-8.47-9.41-10.42-7-3-14.19-5.62-21.32-8.35-2.38-.91-4.81-1.67-7.22-2.5l-.25.65Zm-90.18-41.65.09-.27-1.82-.66-.11.31Zm-95.41-30.14-.23-.68-.62.21ZM-73,168.84v-.15h-.62v.2ZM121.4,237.3l-.15-.19c-.06.06-.16.11-.17.17s.09.12.14.19ZM7.94,237.25l-.14-.17-.1.31s.12,0,.15,0A.48.48,0,0,0,7.94,237.25Zm38.28-4.13-.17.12c.05,0,.09.14.14.15s.11-.07.17-.11ZM57.8,214.37l.1-.15h-.18ZM-47.15,174.74l-.14-.15-.08.27s.11,0,.15,0A.75.75,0,0,0-47.15,174.74Z" transform="translate(326.52 -77.59)"/><path class="cls-1" d="M368,615.57c-3.37-2.19-5.64-5.49-8.3-8.37Q270.48,511,181.4,414.75a18.42,18.42,0,0,0-5-3.66q-51.13-27.16-102.26-54.37a11.41,11.41,0,0,1-1-.69c2.5-.17,4.76.84,7.1,1.46l1.28.53,0,0a17.77,17.77,0,0,0,1.79,1.23q27.27,14.53,54.54,29c1.16.62,2.33,1.2,3.49,1.8a4.82,4.82,0,0,0-2-1.93l-46.2-27.63,13.42,3,1,.52,0,0a5.2,5.2,0,0,0,.84.85q30.32,19.27,60.66,38.52c.52.33,1,1,2,.35-.47-.59-.88-1.19-1.37-1.72-5.26-5.67-10.56-11.31-15.78-17a14.68,14.68,0,0,0-4.77-3.48c-10.9-5.13-21.76-10.35-32.64-15.53,5.72.58,11.18,2.39,16.76,3.62l.9.43-.06,0,9.37,4.11c-1.06-1.4-1.43-1.88-1.8-2.36a15.3,15.3,0,0,1,5.46,1.81c-.23,1.87,1.16,2.56,2.47,3.12q28.38,12.07,56.8,24.09l.58.11-.24-.47a14.46,14.46,0,0,0-7.77-6.52c-7.84-2.74-15.54-5.89-23.28-8.94-8.71-3.44-17.39-6.95-26.08-10.43,1.22-.31,2.28.31,3.35.67Q167.29,380,181.72,385l1.56.53-.06,0,1.3.52,0,0,1.54.53-.05,0c4.24,1.74,8.49,3.47,12.72,5.22.84.35.73-.23.77-.7,1.1-.35,2,.32,3,.6l.58.41-.05,0a2.1,2.1,0,0,0,1.41,1.87c3.57,1.45,7.18,2.81,11,4.29l-.94-2.13a73.64,73.64,0,0,1,12.42,8.66l-1.64-.24c2.7,2.49,5,4.57,7.21,6.64l.53.47.4.32-.24-.47-.31-.67c-.52-.9-1-1.8-1.57-2.7,1.83,0,2.76,1.53,4.05,2.44l.74.55,0,0c-.05.4-.06.76.52.54l0,0c.57,3.83,3.82,3.79,6.54,4.52l0,0c.09.7.59.57,1.05.52l-.05,0,.57.49c2,1.54,4.53,2.3,6,4.56l-9.85-3.69-.52-.08.31.29c3.24,6.08,8.79,9.05,15.4,11.46l-4.34-7.24c1.69.09,2.67,1.42,3.91,2.28.26.56.32,1.27,1.09,1.45h0c.69,2.15,1.61,4.54,3.47,5.53,4.87,2.61,10,4.69,15.07,7l0,0,.68.47a61.39,61.39,0,0,1,9.34,6.58l-1.3-.24-.63-.17c0,.21.05.41.08.61,5.39,10.05,12,19.35,17.95,29a2.85,2.85,0,0,0,1.14.91l29.52,15.61h.61l-.31-.33c-.66-1-1.24-2.16-2-3.14q-8.4-11.16-16.84-22.27c3.4,1.14,5.91,3.65,8.75,5.68A215.7,215.7,0,0,0,336.66,493c2.41,3,5.85,4.3,9.33,5.51l0,0,.48.59c.28.8.91,1.51.54,2.44l-5.76-2.43L351,511.62a21.67,21.67,0,0,1,2.62,6.86l-1.1-1-.67-1-.3.2.76,1,1,1.8-1.69,2.34q-6.76-4.22-13.52-8.44a.83.83,0,0,0-1.1-.4l-.27-.29.32.26c.24.26.48.53.73.79l11.57,11.29-1.21,1.75c-2.36-2.33-4.66-4.73-7.1-7-7.29-6.73-13.6-14.62-22.77-19.1l-.55-.14c.07.17.13.34.19.51l22.83,36.33c-.06,1.1-.13,2.2-.2,3.3A197.38,197.38,0,0,0,326,524l-.42-.3.1.58c1.67,3.16,3.28,6.35,5,9.48,3.41,6.17,6.88,12.3,10.32,18.45l.38,5.24q-5.22-9.48-10.44-19c-4.43-8.08-8.08-16.74-13.47-24.11-6.65-9.09-14.74-17.11-22.21-25.59-.08-.33-.15-.65-.22-1l-.63.64c.17.2.34.41.52.61a3,3,0,0,0,.24.7c12.14,19.83,24.13,39.75,36.56,59.39A63.5,63.5,0,0,0,343.5,563l0,0c-.31.64.25.9.56,1.28.82,1.53,2.13,2.87,1.93,4.82-1.74,0-1.72-2.31-3.82-2.69,3.12,4.34,4.88,9,8.35,12.63l0,0c-.41.64,0,.87.53,1l0,0,.51,1.26c5,9.61,8.79,19.77,14.22,29.16C366.63,612,367.88,613.56,368,615.57Zm-8.14-11.39.44.59.23.87.57-.55-.51-.63-.35-.65-.65-.32ZM351,515.47c0,.15.06.29,0,.09.16.14.05,0-.07,0l-.5-.49c-.05-.19-.11-.38,0-.12-.16-.21-.05-.06.07.08Zm-179.45-111c-.16-.13-.44-.4-.48-.37-.42.34,0,.48.19.66l.55.16C171.76,404.72,171.67,404.57,171.58,404.42Zm66.93,16.06.51.5a1.43,1.43,0,0,0,1.22,1.23A1.35,1.35,0,0,0,239,421l-.5-.5L238,420l-.5-.5-.07-.16.11.12.5.5Zm-50.6-1.88c.17.13.43.4.51.36.45-.25.13-.49-.07-.72l-.78-.14ZM248.5,430l-.34-.11.37.07A.8.8,0,0,0,249,431c.49.86.91,1.76,1.47,2.57,5,7.24,11.29,13.42,17,20.06,2.14,2.48,3.86,5.4,6.83,7.09l.55.11-.19-.48c-5.54-12.37-16-20.53-25.34-29.61ZM236,443l.11.37.25-.17L236,443c-.19-.15-.39-.29-.06-.05C235.52,442.91,235.77,442.94,236,443Zm27,9-.2-.35-.12.26.36,0a.79.79,0,0,0,.43,1.06c.73,1.38,1.2,3,3.78,3.67l-3.45-3.93Zm67,73,.34.09-.38-.05c.12-.46.1-.87-.44-1.06l-.65-1.29c-5.68-9.09-11.2-18.3-17.73-26.82,1.85,7.38,10.78,21,17.28,27.21.24.45.38,1,1.1.9ZM319.4,534.1a2.08,2.08,0,0,0,.7.34l-.25.14.37.68.29-.17a1.69,1.69,0,0,0-.51-.59l-.33-.67-.55-.94c-9.36-15.32-18.91-30.53-27.95-46-3-5.12-7.11-8.35-12.11-10.91l-.36-.3c0,.2,0,.4,0,.61,4.13,6.32,8.23,12.67,12.41,19,8.67,13.07,16.82,26.53,27.56,38.11C318.91,533.58,319.16,533.84,319.4,534.1ZM354,590l-.12-.42-.21.22.37.16c.17.33.33.67.5,1l.5.5c.09.27.17.53,0,.06.51.19.23.08-.06,0l-.5-.5C354.56,590.56,354.55,590.15,354,590ZM290.3,498.68l.5.28-.25-.51c-.11-.53-.2-1.1-1.22-.93Zm62.22,88.8-.39-.63c-.28-.54-.57-1.08-.86-1.62-7-11.43-13.81-23-21-34.23-2.44-3.81-5.8-7-8.74-10.53l-.42-.31.2.56c2.2,3.41,4.36,6.86,6.6,10.24q11.49,17.32,23,34.6l1,1.48.43.59c.13.56.12,1.23,1.18,1.19ZM247.48,453l-.12-.4-.28.2.43.17a1.28,1.28,0,0,0,1.51.82A1.28,1.28,0,0,0,247.51,453Zm-105-62.5-.25-.43-.17.13.45.27a2.08,2.08,0,0,0,2,1l.14.36.23-.19-.41-.13A1.92,1.92,0,0,0,142.48,390.52ZM252,456l.16.08-.19,0c-.12-1.56-1.37-1.6-2.6-1.65C250.21,455,251.09,455.49,252,456ZM317.5,497.5l.24.31.14-.26-.38-.05c-1.07-2.14-3.12-3.28-5.27-5.74C313.48,495.13,315.1,496.71,317.5,497.5Zm-70.43-48.07c0,.11.05.22,0,.19s0-.06-.07-.16c-2.65-2.75-6-4.21-9.56-5.44l-.12-.39-.27.19.42.17C240.53,446.09,243.48,448.33,247.07,449.43Zm21.57,10.94-.53-.11.35.28c1.19,3.34,4,4.84,7,6l.2.34.22-.21-.37-.18C273.85,463.75,271.88,461.34,268.64,460.37ZM258,459l-.13-.11.16.07c-.16.81.42,1.23,1,1.57,3.48,2.18,7,4.33,10.49,6.49l.31.32c0-.18-.06-.37-.08-.56C266.66,462.9,262,461.52,258,459Zm26,17,0,.38.23-.05L284,476c-2.2-4-6.32-5.27-10-7.19C276.56,472.28,280.16,474.32,284,476Zm-18.51-15.5.28.28-.33-.24c-2.81-5.57-9-5.85-13.55-8.73A48.41,48.41,0,0,0,265.53,460.47Zm9.56-4.56-.47-.27c0,.2.09.4.13.59,2.39,5.28,5.83,9.4,11.81,10.71,0,.11.07.22.06.18a1.17,1.17,0,0,1-.1-.15Zm28.38,32.62c0,.26.11.5.4.17l-.33-.24c-2.93-6.51-9.66-7.81-15.34-11.2l.3.24a.69.69,0,0,0,.1-.18,1.75,1.75,0,0,0-.29-.18s-.07.07.19.36C292.18,483,298.15,485.3,303.47,488.53ZM298,488c-.12-.35-.27-.56-.75-.05H298c4,5.91,9,11,13.87,16.12.09.23.19.45.29.68l.29-.19L312,504C309.26,497,305.54,490.81,298,488Zm-16-20.49-.31-.11.35.06a5.29,5.29,0,0,0,.36,1.34c3.77,6.69,11.41,7.81,16.93,12C295.54,473.7,288.79,470.57,282,467.52Zm-74.49-70-.19-.08.22,0c3.3,7.46,11,7.94,17.22,11.28C221,401.34,214.1,399.69,207.5,397.52Zm8.58,9.89c-.24-.33-.51-.49-.88-.12l.46.51c4.23,6.83,11.69,8.34,18.68,11.41L234,419a.21.21,0,0,0,.24.34s.06-.08-.24-.34C230.13,411.88,222.83,410.07,216.08,407.41Zm48.65,59.34-.57-.15.25.49q12.27,15.14,24.55,30.28c-3.18-6.49-7.4-12.24-10.92-18.4C274.84,473.36,270.28,469.61,264.73,466.75ZM320,496c-.17-.41-.4-.57-.85-.15l.73.33c7.82,9.67,18.89,14.92,29.08,21.37l.31.33c0-.19,0-.38-.08-.57-1.5-2.28-2.49-5.34-4.59-6.69C336.61,505.43,328.24,500.81,320,496ZM213.78,409.7l.51.15-.26-.37a14.12,14.12,0,0,0-6.89-6.12c-17.35-7.23-34.62-14.66-51.92-22-.76-.32-1.48-1-2.87-.51,7.81,3.68,15.31,7.23,22.82,10.76Q194.46,400.67,213.78,409.7ZM341.5,506l.31.23V506l-.34,0c-1.53-4-3.48-8.45-6.89-10.51-9.71-5.86-20-10.76-30.07-16l-.27-.33c-.05.06-.15.16-.14.17a2.81,2.81,0,0,0,.29.31,12,12,0,0,0,3.29,4.92C317.75,493.58,330.2,498.89,341.5,506Zm-78.88-70.61-.51-.18.07.54c2.42,3.86,4.29,8.24,7.36,11.47,7.59,8,15.73,15.45,23.65,23.13.1.29.2.57.31.86l.57-.43-.43-.9c-4.13-7.85-8.13-15.78-12.88-23.29-1-1.51-1.49-3.44-3.26-4.29C272.56,439.94,267.58,437.68,262.62,435.38Zm-2.37,17.93.55.07-.23-.45a164.5,164.5,0,0,0-19-25.83c-4.92-5.53-11.94-6.67-17.93-10,4.95,6.58,10.46,12.6,15.17,19.21A47.79,47.79,0,0,0,260.25,453.31ZM158.73,386.24l-.76,0,.34.49c.75.88,1.48,1.79,2.27,2.64,10.47,11.06,20,22.9,34.5,29.62,15.44,7.17,30.22,15.74,45.28,23.7l1.79,1-1.24-1.43c-5.76-7.1-11.69-14.07-17.23-21.34a32.93,32.93,0,0,0-13.05-10.29C193.24,402.64,176,394.37,158.73,386.24ZM358.57,603l.68-.6c-.4-.69-.77-1.39-1.2-2.06q-15-22.71-30-45.42c-7.95-12-15.34-24.44-24.06-35.86-12.37-16.21-25.68-31.7-38.71-47.39-3.17-3.81-5.67-8.3-10-11q-32-20.39-64.06-40.69c-.73-.46-1.36-1.25-3.05-.85ZM253.77,431.15l7.19,8.24C259.77,435.25,257.84,431.84,253.77,431.15Zm56.28,61.58-3.54-5.19C307,489.44,307.14,491.58,310.05,492.73Zm-48.16-53-.12-.15s-.12.09-.12.14.07.1.11.15Zm-15.43,12.54c-.06-.06-.12-.16-.18-.16s-.12.09-.18.14.11.16.17.16S246.39,452.28,246.46,452.23Zm20.59,4.52.18.09v-.16Zm24.2,42.8c-.06.05-.15.09-.16.15s.08.12.12.18.15-.1.16-.15S291.29,499.61,291.25,499.55ZM146.59,392.74l.17.09v-.14Zm-.7-.47s-.09-.13-.14-.14-.1.07-.16.11.09.12.14.13S145.84,392.3,145.89,392.27ZM342.25,566l.16-.15-.29-.1s0,.12,0,.15S342.2,565.92,342.25,566ZM143.06,373.74l.17.09v-.15Z" transform="translate(326.52 -77.59)"/><path class="cls-2" d="M133.13,369.58c-5.58-1.23-11-3-16.76-3.62-2.9-.92-5.75-2.1-8.89-2l0,0c-.08-.71-.66-.42-1-.52l-13.42-3c-3.79-1.12-7.56-2.38-11.58-2.51l0,0c-.2-.73-.83-.43-1.28-.53-2.34-.62-4.6-1.63-7.1-1.46-1-.62-2.57-.31-3.06-1.81l1.29-1.57a9.44,9.44,0,0,0,2.95-3.11,3.86,3.86,0,0,0,1.75-2.46c-4.91-1.52-9.18-4.19-14.09-5.09l0,0-.8-.51c-1.81-.51-3.2-2.13-5.25-2l0,0c-.2-.67-.7-.57-1.2-.47A22.75,22.75,0,0,0,48,336l0,0-.84-.47c-4.45-1.85-8.92-3.65-13.34-5.57a15.29,15.29,0,0,1-2.61-1.82l-6-8.14-.79-.53,0,0c-.19-.47-.26-1.17-1-.53l0,0c.85-1-.32-1.39-.64-2-.74-1.43-2.39-2.27-2.62-4l2.19-.93c4.37-2,8.76-4,13.09-6.07,7.76-3.75,15.49-7.58,23.23-11.37l1.91-.81,33.93-13.71,2.07-.83,1.49-.63,2.44-.89,4.37-1.57,1.89-.73,1.21-.4,2.08-.75,4.38-1.55,2.49-1L136.57,265l2-.76,5.08-1.75,2.07-.86,5.83-2,2-.62,1.29-.48,4.82-1.48a30.48,30.48,0,0,0,19.86,2.47c1.3,0,2.62.29,3.83-.44l3.55-.08h2.33c-.69-1.65-2.29-1.93-3.35-2.84l-.91-.58,0,0a23.91,23.91,0,0,0-6.54-5l0,0L178,250l0,0-.77-.55c-1.52-1.29-2.78-2.95-4.85-3.47a4.26,4.26,0,0,0-2.47-1.48c-8.89-3.05-17.76-6.12-26.65-9.15-1.23-.42-2.38-1.24-3.79-.89l0,0L139,234l-3.63-1.18c-7-2.53-13.85-5.22-21.09-6.85a8.6,8.6,0,0,0-4.26-1.64c-11.7-4.28-23.39-8.6-35.11-12.83-9.45-3.41-18.93-6.72-28.4-10.07-1-.47-1.85-1.22-3-.9h.07c-.12-.59-.61-.51-1-.56-8-2.89-16-5.81-24.1-8.63-5.77-2-11.59-3.9-17.39-5.84l0,0L0,185l-5.36-1.93c-12.68-4.38-25.34-8.78-38-13.11-2.25-.77-4.39-2-6.86-2a3,3,0,0,0-2.83-.93H-53c-.18-.65-.73-.54-1.21-.57-.82-.37-1.63-.79-2.49-1.09q-21-7.4-42.1-14.73c-7.13-2.46-14.31-4.78-21.47-7.16-3.85-1.52-7.57-3.46-11.76-4h0c-.19-.68-.74-.53-1.23-.53-9.5-4.15-19.41-7.17-29.14-10.69-4.34-1.56-8.52-3.64-13.16-4.31l0,0c-.09-.69-.6-.53-1-.52l.05,0a3.77,3.77,0,0,0-3.05-1l.05,0c-.32-.76-1-.51-1.54-.53l0,0c-.12-.64-.62-.45-1-.46-21.33-7.71-42.65-15.46-64-23.1-11.51-4.12-23.07-8.08-34.62-12.08a11,11,0,0,0-1.92-.33h.05c-.32-.71-.91-.62-1.52-.52l0,0c-.32-.73-.93-.61-1.53-.53l0,0c-.32-.75-.94-.59-1.53-.53l0,0c-.21-.74-.78-.48-1.27-.44l-1-.17c0-1.14-.89-.8-1.52-.9l.06,0-1.55-.53h0l-1.27-.5c-4.92-1.61-9.61-4-15.13-3.05-4.08.71-8.26.79-12.39,1.14l-5.12.48c-1.13-2.58,1-2.31,2.29-2.45a89.55,89.55,0,0,1,40.32,4.71c91.55,32.58,183,65.51,274.93,96.89,60.3,20.58,120,43,180.35,63.32,2.69.91,4.59,3,6.78,4.6,5,3.65,9.87,7.39,14.73,11.17.45.34,1.83.55.91,1.74l-2.19.23-7,.56-4,.21-10.19.92-2.55,0-8.07-3c-1.4-.48-2.55.2-3.71.81l-1.51.54-1.95.64-5.36,1.94-2.13.74-5.5,2-2,.68-18.09,6.48-2.58.9-5.39,1.94-2,.7-1.14.56-2.24.56-3.76,1.45-2.32.77-1.84.74-2.15.87L63,295.34l-2.47,1L23.8,314c-.23.3-.19.48.22.5l0,0,.54.51,0,0c.7,2.5,2.69,4.09,4.23,6L30,322.5l0,0c1.73,4,5,6.11,9,7.3l7,2.9c3.84.78,7,3.2,10.73,4.31l1.3.5h0a2.87,2.87,0,0,0,2.53,1h0l19,8.06-1.17,2-.54.72-1.43,1.41a7,7,0,0,0-2.44,3.14l11,2.34,6.4,1.44,2.11.46c1.64.52,3.24,1.25,5,1l0,0,1.07.48c1.14.25,2.21.95,3.46.56l0,0c.19.71.81.4,1.25.52,4.49,1.18,8.89,2.72,13.58,2.94a18.35,18.35,0,0,0,6.43,1.58A55.06,55.06,0,0,0,137,368l0,0c.25.68.86.42,1.33.51.7.83,1.71.23,2.53.54l2,.55a6.35,6.35,0,0,0,.86.44q24.69,8.18,49.4,16.3a8,8,0,0,0,1.9.18l0,0,.71.53,3.29,1.14c3.18,1.13,6.29,2.48,9.68,2.94a18.38,18.38,0,0,0,6.27,2.19c1.67,1.22,3.28,2.56,5,3.63s3.11,3.11,5.54,3.09l0,0c-.61.74.14.8.53,1l0,0c.23.18.46.36.7.53l3.94,2.79a.27.27,0,0,1,.21.16L232,405l0,0c1.43,1.88,3.51,2.89,5.45,4.08l.57.48-.05,0L239,410l0,0a27.93,27.93,0,0,0,8,5.54l0,0c.18.23.35.47.53.71a9.49,9.49,0,0,0,3.55,2.29H251l.74.55,5.61,4,6.87,4.93,1.3.54,0,0,.55.52,0,0c2.17,2.31,5,3.75,7.51,5.58,1.47,1.05,2.78,2.36,4.56,2.93l-.06,0,.71.56,12.19,8.55.62.44,0,0a.81.81,0,0,0,1,.51l0,0c2.4,2.6,5.5,4.23,8.41,6.13l.61.43,0,0a12.58,12.58,0,0,0,4.54,3l0,0,.53.54,0,0,.68.53c1.26.73,2,2.4,3.88,2l0,0c-.23,1.11.46,1.13,1.24,1h0a16.49,16.49,0,0,0,5.21,4.14c4.9,3.62,9.69,7.39,15.06,10.33l0,0,.53.53,0,0,1.18.62c1.89,1.81,3.78,3.64,6.4,4.39h-.05l.51.52,0,0,.75.56a17.38,17.38,0,0,1,1.32,2.33c2.18,5.53,4.32,11.08,6.47,16.62l.49.51,0,0c-.31,1,.3,1.73.72,2.52l3.78,10,.52.51,0,0c-.3,1.18.39,2.09.83,3.08,1.17,1.63-.44,2.6-.93,3.84-.5.71-1,1.42-1.52,2.12L351,526.9l-1.12,1.6c-1.69,2.33-3.43,4.62-5,7-.93,1.37-2.48,2.56-1.87,4.59,0,1.75,0,3.51.07,5.27.5,4.44-.41,9.08,1.16,13.33,1.76,4.74,4.11,9.25,6.21,13.86l.61.93v0a17.79,17.79,0,0,0,2.45,5.84l.55.73,0,0c1.83,6.15,4.9,11.78,7.51,17.6l.52.43h0a3.15,3.15,0,0,0,1.48,2.75c1.48,4.86,4.53,9,6.59,13.55a9.33,9.33,0,0,0,4,4.25c6.51,4,12.94,8.09,19.44,12.09.73.46,1.39,1.5,2.55.85h0c-.25.59.05.64.51.52l0,0c0,.56.36.58.77.54a11.9,11.9,0,0,0,5.3,3.46h-.05l.76.55c4.44,1.89,9.18,2.72,13.82,3.89,4.45,1.12,8.76,2.92,13.43,3.08h0c0,.55.43.46.76.52l3.74,1c7.77,2,15.53,4.17,23.33,6.1,4.88,1.2,9.61,3.08,14.7,3.42l0,0,1,.77c3.57.43,6.85,2.25,10.51,2.22h0c.17.65.71.51,1.17.53,6.27,1.59,12.53,3.23,18.82,4.74q34,8.17,68,16.26h.74l0,0c11,3.12,22.17,5.3,33.33,7.66l1.84.38h.19l.19,0,4,.93a14.2,14.2,0,0,0,5.89,1.19c3.27,1.33,6.75,1,10.15,1.26l25.48,2.08,33,4.54a26.26,26.26,0,0,0,7.6,1.47c2.66.58,5.3,1.26,8,1.71,8.24,1.41,16.36,3.56,24.73,4.29l0,0c.08.67.61.39,1,.47l6.12,1.24c4.3.65,8.61.11,12.92,0l85.17-1.3,4.88-.17,69.62-3.33c1.46-.25,3.1.71,4.38-.66a4.11,4.11,0,0,0,1.32-.53q10.7-9.62,21.35-19.29c1.11-.53,1.59-2.2,3.23-1.81a2.66,2.66,0,0,1-1.06,2.82Q925,692.1,913.7,702.32a4.43,4.43,0,0,1-2.92,1.12c-59.78,3.65-119.62,4.66-179.5,4.07a45.37,45.37,0,0,1-9.82-1.55l-2.48-.45h0c-6.23-1.26-12.46-2.56-18.7-3.77-10.31-2-20.6-4.11-31.11-4.76-6.23-.84-12.44-1.85-18.7-2.49-11.17-1.15-22.58-1-33.51-3.29-33.68-6.92-67.07-15.15-100.46-23.36C479.2,658.68,442,649,404.82,639.38c-4.62-1.2-8.15-4.44-12.12-6.83-7.13-4.29-14.14-8.78-21.17-13.24a25.86,25.86,0,0,1-3-2.57c.07-.53.09-1-.58-1.23v.06c-.07-2-1.32-3.56-2.24-5.16-5.43-9.39-9.25-19.55-14.22-29.16,0-.49.12-1-.51-1.26l0,0c.05-.46.09-.91-.53-1l0,0a23.46,23.46,0,0,0-3.48-7.91c0-.45.08-1-.54-1.11v0c.1-.48.11-.91-.53-1v.08c.2-2-1.11-3.29-1.93-4.82-.19-.43-.37-.86-.56-1.28l0,0q-1-2.81-2.09-5.61c-.13-1.75-.25-3.5-.38-5.24-.18-3.81-.35-7.62-.53-11.43.07-1.1.14-2.2.2-3.3l7.4-10.62,1.2-1.75,2.28-3.21,1.69-2.34c.11-.35.23-.7.35-1a21.67,21.67,0,0,0-2.62-6.86,50,50,0,0,0-3.5-9.61l-.53-.5,0,0c.37-.93-.26-1.64-.54-2.44l-.48-.59,0,0c-1.36-3.9-2.69-7.82-4.1-11.7-.42-1.14-.65-2.39-1.81-3.18C334,479.53,328,475.37,322,471.23c-2.84-2-5.35-4.54-8.75-5.68a19,19,0,0,0-2.15-2.06q-12.66-8.78-25.37-17.5l-.74-.49,0,0a61.39,61.39,0,0,0-9.34-6.58l-.68-.47,0,0q-8.75-6.25-17.48-12.51c-.31-.22-.71-.48-1.06,0h0c.47-1.11-.66-1-1.09-1.45-1.24-.86-2.22-2.19-3.91-2.28l0,0a.76.76,0,0,0-1-.75l0,0c-1.42-2.26-4-3-6-4.56l-.57-.49.05,0L243,416l0,0a22.2,22.2,0,0,0-6.54-4.52l0,0L236,411l0,0-.74-.55c-1.29-.91-2.22-2.42-4.05-2.44-1.05-1.65-2.73-2.48-4.38-3.35A73,73,0,0,0,214.42,396h.07c-.19-.65-.7-.58-1.21-.54A41.69,41.69,0,0,0,203,392l.05,0-.58-.41c-1-.28-1.88-.95-3-.6l0,0-.6-.49c-4.25-1.52-8.42-3.3-12.92-4.05l.05,0c-.31-.78-1-.53-1.54-.53l0,0c-.23-.66-.82-.47-1.3-.52l.06,0-1.56-.53q-14.44-4.91-28.89-9.81c-1.07-.36-2.13-1-3.35-.67l0,0c-.31-.78-.93-.61-1.53-.53l0,0c-.12-.63-.61-.51-1-.51l0,0a15.32,15.32,0,0,0-5.45-1.81A23,23,0,0,0,134,370l.06,0Z" transform="translate(326.52 -77.59)"/><path class="cls-1" d="M48,336a22.75,22.75,0,0,1,6.84,3.05c.35.31.53,1,1.2.47l0,0c-.43.94.51,1.1.93,1.43,4.8,3.93,9.64,7.82,14.47,11.71l-1.29,1.57C62.7,348.16,55,342.49,48,336Z" transform="translate(326.52 -77.59)"/><path class="cls-1" d="M669.19,697c10.51.65,20.8,2.76,31.11,4.76,6.24,1.21,12.47,2.51,18.7,3.77Z" transform="translate(326.52 -77.59)"/><path class="cls-1" d="M719,705.51l2.48.45Z" transform="translate(326.52 -77.59)"/><path class="cls-1" d="M368,615.51c.67.19.65.7.58,1.23C368.29,616.36,367.61,616.18,368,615.51Z" transform="translate(326.52 -77.59)"/><path class="cls-1" d="M47.17,335.56,48,336Z" transform="translate(326.52 -77.59)"/><path class="cls-1" d="M573.23,679l26.59,4.26a20.81,20.81,0,0,0,6.31.33L358.87,526.47c-.41,1.58.46,2.17.87,2.91,6.4,11.44,15.11,20.93,24.57,29.94,21.22,20.22,42.08,40.82,63.1,61.26q17.71,17.25,35.44,34.5c.68.66,1.91,1,1.69,2.39-3.66,0-6.94-1.79-10.51-2.22,0-.75-.47-.82-1-.77l0,0a6.19,6.19,0,0,0-1.12-.88q-12.41-6.07-24.84-12.12l-20.68-10L435,645l-3.74-1-.76-.52h0c-2.79-4.32-6.56-7.81-9.87-11.7-1.7-2-3.06-4.51-5.45-5.72-8.43-4.24-17-8.28-25.46-12.4l-.58-.06.2.53c2.32,3.73,4.72,7.42,6.93,11.22,2.08,3.55,4.85,6.69,6.27,10.62a11.9,11.9,0,0,1-5.3-3.46l-.77-.54,0,0-.51-.52h0c-3-4.81-7.23-8.61-10.37-13.24a43.93,43.93,0,0,0-22.18-17.5A3.15,3.15,0,0,1,362,598c3.72,1,6.7,3.75,10.55,4.47,0,.12.06.23,0,.09l-.07-.06Q363.24,591.25,354,580l0,0c-.18-.25-.36-.49-.55-.73a17.79,17.79,0,0,1-2.45-5.84c1,.16,1.36,1.14,1.9,1.8,7.44,9,14.89,18,22.21,27.12a13.71,13.71,0,0,0,6.62,4.93l.61,0-.31-.32c-6.83-10.9-13.62-21.81-20.5-32.68-6.12-9.66-12.33-19.27-18.5-28.91,0-1.76-.05-3.52-.07-5.27.52.54,1.06,1.06,1.55,1.62q35.07,40,70.16,80.07c1.34,1.53,2.43,3.45,4.76,3.77l.31.31c0-.19-.06-.37-.08-.55-.41-.72-.79-1.47-1.24-2.16q-20.12-30.85-40.25-61.69c-3.46-5.28-6.58-10.89-10.71-15.6-5.42-6.18-11.69-11.61-17.59-17.37l1.12-1.6L361.62,537l.43-.36-8.66-13.15c.51-.7,1-1.41,1.52-2.12.62.43,1.22.88,1.85,1.28Q484,603.52,611.17,684.33a9,9,0,0,0,3.16,1.36c11,1.9,22,3.71,33,5.54l1.84.22-1.58-.52c-.6-.43-1.17-.91-1.8-1.28Q502.89,604.59,360,519.57c-1.3-.78-2.43-2.05-4.15-2-.44-1-1.13-1.9-.83-3.08,8.68,5.06,17.4,10.07,26,15.21q135.69,80.76,271.36,161.55c.64.38,1.24.84,1.85,1.26l-25.48-2.08c-3.16-.6-6.31-1.21-9.48-1.78-.23,0-1.11-.49-.67.52a14.13,14.13,0,0,1-5.88-1.19c-1.15-1.05-2.58-.89-4-.93l-.19,0h-.18c-.53-.57-1.21-.41-1.85-.38C595.4,684.28,584.21,682.1,573.23,679ZM424,632l.05.09c.11.08,0,0-.09,0s-.32-.34-.49-.5l-.26-.75c-.22-.61-.41-1.24-1.23-1.26l-.55-.5c0,.56.15.75.55.51-.24.87.47,1.13,1,1.51l.53.47Zm-33.17-11.26-.35-.21c0,.08-.05.19,0,.22a1.38,1.38,0,0,0,.29.17c0-.06.05-.11-.27-.39l-.27-.73c-2.63-3.35-3.3-8.36-8.24-9.76l-.47-.33,0,.21.55.07c2,3.89,5.11,6.87,7.92,10.1C390.13,620.21,390.31,620.35,390.85,620.71ZM377,555.54c.13.21.25.42.38.62.19.37.36.75.58,1.09,13.95,21.41,28,42.76,41.78,64.27a25.12,25.12,0,0,0,11,9.85c15.83,7.36,31.46,15.15,47.17,22.77l.89.39.42-.52-.84-.32c-1-1.08-2-2.19-3.12-3.23q-22.74-22.14-45.5-44.26l-52-50.5-.52-.47-.53-.16Zm34.58,65.93.06.36.21-.07-.33-.25a2.75,2.75,0,0,0-.35-.63Q381.6,587.13,352,553.4a10.49,10.49,0,0,0-1.3-1.08,5.08,5.08,0,0,0,.89,2.43c8.5,13.43,17.6,26.53,25.31,40.41,5.92,10.64,13.62,18.27,25.09,22.18C405.3,618.46,408.07,620.77,411.54,621.47ZM358.38,527l.33-.21-.4-.56c-.1.1-.29.24-.27.29A2.21,2.21,0,0,0,358.38,527Zm-8.25,24.67-.09.17h.34a.67.67,0,0,0-.08-.17S350.19,551.64,350.13,551.64Zm41.14,69.92-.09.18h.16Z" transform="translate(326.52 -77.59)"/><path class="cls-1" d="M60.5,338.47c3.89.61,7.33,2.5,10.94,3.89q31.83,12.25,63.62,24.65c.68.26,1.31.66,2,1a55.55,55.55,0,0,1-12.79-3l-8-3.14-.16.36,1.78,1.19c-4.69-.22-9.09-1.76-13.58-2.94L103,360l0,0L96,356.36l-.16.33,2.73,2.3c-1.79.27-3.39-.46-5-1-.93-.66-1.66-1.73-3-1.52l0,0c-3.53-3.48-8-5.54-12.17-8l1.17-2ZM115.23,362c-.4-.64-.87-1.14-1.77-.75Zm-3-1.33,0,.14.54,0,0-.2Z" transform="translate(326.52 -77.59)"/><path class="cls-1" d="M24.5,315c7.33,5.7,14.82,11.2,21.5,17.69l-7-2.9a26.6,26.6,0,0,0-9-7.3l0,0c.31-1.13-.79-1.08-1.3-1.52C27.19,319.07,25.2,317.48,24.5,315Z" transform="translate(326.52 -77.59)"/><path class="cls-1" d="M91.39,357.55,85,356.11l-8.61-5.48,1.44-1.41,12.7,7.3,0,0Z" transform="translate(326.52 -77.59)"/><path class="cls-1" d="M74.32,349.54,62,342c4.91.9,9.18,3.57,14.09,5.09A3.86,3.86,0,0,1,74.32,349.54Z" transform="translate(326.52 -77.59)"/><path class="cls-1" d="M58,337.47a2.42,2.42,0,0,1,2.53,1A2.87,2.87,0,0,1,58,337.47Z" transform="translate(326.52 -77.59)"/><path class="cls-1" d="M-289.27,83.91l-1.52-.9C-290.16,83.11-289.27,82.77-289.27,83.91Z" transform="translate(326.52 -77.59)"/><path class="cls-1" d="M312,460.49c.09.18.17.36.25.53-.78.08-1.47.06-1.24-1l.49,0Z" transform="translate(326.52 -77.59)"/><path class="cls-1" d="M149.51,374.53A1.47,1.47,0,0,1,148,374C148.58,373.92,149.2,373.75,149.51,374.53Z" transform="translate(326.52 -77.59)"/><path class="cls-1" d="M-287,84.52l-1.27-.44C-287.77,84-287.2,83.78-287,84.52Z" transform="translate(326.52 -77.59)"/><path class="cls-1" d="M-285.49,85A1.41,1.41,0,0,1-287,84.5C-286.43,84.44-285.81,84.28-285.49,85Z" transform="translate(326.52 -77.59)"/><path class="cls-1" d="M-284,85.54a1.18,1.18,0,0,1-1.53-.53C-284.93,84.93-284.32,84.81-284,85.54Z" transform="translate(326.52 -77.59)"/><path class="cls-1" d="M137,368l1.33.51C137.85,368.4,137.24,368.66,137,368Z" transform="translate(326.52 -77.59)"/><path class="cls-1" d="M-282.51,86a1,1,0,0,1-1.52-.52C-283.42,85.42-282.83,85.33-282.51,86Z" transform="translate(326.52 -77.59)"/><path class="cls-1" d="M98.5,359l1.07.48Z" transform="translate(326.52 -77.59)"/><path class="cls-1" d="M484.51,657.46c.73-.55.82.26,1.17.53C485.22,658,484.68,658.11,484.51,657.46Z" transform="translate(326.52 -77.59)"/><path class="cls-1" d="M148,374c-.43,0-.88.05-1-.51C147.4,373.51,147.89,373.39,148,374Z" transform="translate(326.52 -77.59)"/><path class="cls-1" d="M350.42,572.56a.68.68,0,0,1,.61.93Z" transform="translate(326.52 -77.59)"/><path class="cls-1" d="M347,571.12l-.54-1.11C347.09,570.16,347,570.67,347,571.12Z" transform="translate(326.52 -77.59)"/><path class="cls-1" d="M346.48,570c-.5-.18-1.14-.27-.53-1C346.59,569.12,346.58,569.55,346.48,570Z" transform="translate(326.52 -77.59)"/><path class="cls-1" d="M-132,139.53l-1.23-.53C-132.74,139-132.19,138.85-132,139.53Z" transform="translate(326.52 -77.59)"/><path class="cls-1" d="M-53,167c-.75.54-.84-.29-1.2-.57C-53.74,166.5-53.19,166.39-53,167Z" transform="translate(326.52 -77.59)"/><path class="cls-1" d="M214.49,396c-.67.42-.87-.22-1.2-.54C213.79,395.46,214.3,395.39,214.49,396Z" transform="translate(326.52 -77.59)"/><path class="cls-1" d="M-290.73,83l-1.55-.53Z" transform="translate(326.52 -77.59)"/><path class="cls-1" d="M43.49,200.54c-.67.4-.77-.23-1-.56C42.88,200,43.37,200,43.49,200.54Z" transform="translate(326.52 -77.59)"/><path class="cls-1" d="M-292.29,82.51l-1.27-.5Z" transform="translate(326.52 -77.59)"/><path class="cls-1" d="M230.84,404.45c.48,0,1-.08,1.19.54Z" transform="translate(326.52 -77.59)"/><path class="cls-1" d="M56.73,337c.53-.07,1.07-.18,1.3.5Z" transform="translate(326.52 -77.59)"/><path class="cls-1" d="M291.49,447c.48-.09.9-.09,1,.51A.81.81,0,0,1,291.49,447Z" transform="translate(326.52 -77.59)"/><path class="cls-1" d="M251.51,422.27l-1-.75A.76.76,0,0,1,251.51,422.27Z" transform="translate(326.52 -77.59)"/><path class="cls-1" d="M251,418.47l.74.55Z" transform="translate(326.52 -77.59)"/><path class="cls-1" d="M62,342l-.8-.51Z" transform="translate(326.52 -77.59)"/><path class="cls-1" d="M24,314.49l.54.51Z" transform="translate(326.52 -77.59)"/><path class="cls-1" d="M278,437.46l.71.56Z" transform="translate(326.52 -77.59)"/><path class="cls-1" d="M285.71,446l-.74-.49Z" transform="translate(326.52 -77.59)"/><path class="cls-1" d="M290.91,446.57l.62.44Z" transform="translate(326.52 -77.59)"/><path class="cls-1" d="M23.8,314l.22.5C23.61,314.5,23.57,314.32,23.8,314Z" transform="translate(326.52 -77.59)"/><path class="cls-1" d="M340.52,481l.51.52Z" transform="translate(326.52 -77.59)"/><path class="cls-1" d="M341,481.47l.75.56Z" transform="translate(326.52 -77.59)"/><path class="cls-1" d="M349.54,501l.49.51Z" transform="translate(326.52 -77.59)"/><path class="cls-1" d="M347.5,502l-.53-.5Z" transform="translate(326.52 -77.59)"/><path class="cls-1" d="M354.51,514l.52.51Z" transform="translate(326.52 -77.59)"/><path class="cls-1" d="M199.49,391l-.6-.49Z" transform="translate(326.52 -77.59)"/><path class="cls-1" d="M361.5,597.58l.52.43Z" transform="translate(326.52 -77.59)"/><path class="cls-1" d="M402.51,636l.76.55Z" transform="translate(326.52 -77.59)"/><path class="cls-1" d="M572.53,679h0Z" transform="translate(326.52 -77.59)"/></svg>