<svg id="Layer_1" data-name="Layer 1" xmlns="http://www.w3.org/2000/svg" viewBox="0 0 630.11 1263.94"><defs><style>.cls-1{fill:#6666FF;}</style></defs><path class="cls-1" d="M503.4,628.74c.7,9,1.35,17.25,1.94,25.48.22,3-1.56,5.55-2.42,8.31a5.68,5.68,0,0,0-.18,3.84c11.33,31.92,22.25,64,35.75,95.09,5.73,13.19,12.28,26,18.59,39.3,4.57-3.54,8.92-6.86,13.19-10.29a5.91,5.91,0,0,0,1.27-2.38c6-14.53,12-29.07,18.05-43.93l7,6.16c2-8.76,4.2-17,5.82-25.43C610,685.52,623.77,648,636.2,610a12.09,12.09,0,0,1,1.68-3q42.93-61.28,85.88-122.57a11,11,0,0,1,5.51-4.33q15.35-5.64,30.57-11.6a4,4,0,0,1,4.32.56c3.46,2.6,7.3,4.74,10.54,7.58,4.45,3.91,9.32,4.69,15.11,4.53,7.79-.22,14.73-2.37,21.7-5.58,15.64-7.21,31.62-13.7,46.68-22.12a7,7,0,0,0,2.7-2.48c5.41-8.7,10.65-17.5,16.34-26,3.67-5.48,4.52-11.76,6.11-17.82,17.57-66.81,34.42-133.81,48.88-201.37,2.2-10.27,2-21,3.06-31.56,2.11-20.3,4.82-40.56,9.46-60.42,4.52-19.31,4.83-38.71,4.28-58.3-.52-18.33-.71-36.66-1-55-.42-29-2.69-57.92-3.72-86.89a4.22,4.22,0,0,0-1.41-2.79q-9.85-11-19.69-22c-.48-.52-.88-1.12-1.35-1.71,1.43-1.24,2.26-.45,3.08.46Q935.13-101,945.33-89.7a4.8,4.8,0,0,1,1.12,3.18c3.6,59,4.71,118.05,4,177.14-.11,9.45-2.82,18.58-4.67,27.78-5.61,27.81-8.42,56-10.93,84.18-1,11.43-4.59,22.48-7.11,33.68-13.83,61.31-29.59,122.14-45.33,183a20,20,0,0,1-2.74,5.56q-8.68,13.86-17.36,27.74a6.9,6.9,0,0,1-2.66,2.51C841.08,465.4,821.39,473.37,802,482c-3.68,1.63-8,.38-11.85,1.13-6.92,1.34-12.37-1-17.52-5.35-3.36-2.84-7-6.66-10.88-7.16s-8.22,2.55-12.34,4.11c-6.77,2.55-13.51,5.18-20.3,7.7a6.1,6.1,0,0,0-3,2.39q-43.22,61.71-86.46,123.39a12.47,12.47,0,0,0-1.58,3.08c-7.78,23.46-16.12,46.76-23.09,70.45-5.09,17.3-8.37,35.13-12.45,52.72-1.51,6.48-3,13-4.58,19.79l-7.51-6.49c-3.73,9.14-7.33,18-10.94,26.82-1,2.38-2.36,4.68-2.9,7.16C574.1,793,564.21,797.3,556.38,804c-5-10.52-10-20.67-14.77-30.91-15.51-33.24-27.2-68-39.63-102.39-1.55-4.27-2-8.06.1-12.09a11,11,0,0,0,1-6.3c-.49-5.53-.84-11.07-1.25-16.67-.53.08-.88,0-1,.16-4.86,6.78-11.25,12.45-14.13,20.65-48.54,138.54-96.47,277.28-146,415.49-6.2,17.31-12.08,34.74-18.24,52.07-1.19,3.34-.6,6.57-.36,9.86.39,5.46.89,10.92,1.35,16.32-2.36.89-2.13-.71-2.28-1.87-1.9-14.61.14-28.43,5.2-42.49,38.79-107.81,76.48-216,114.24-324.21,14.94-42.82,30.3-85.49,45-128.39,1.18-3.44,3.65-5.93,5.71-8.72C495.2,639.38,499.12,634.35,503.4,628.74Z" transform="translate(-320.55 113.49)"/></svg>