<svg id="Layer_1" data-name="Layer 1" xmlns="http://www.w3.org/2000/svg" viewBox="0 0 629.29 1263.84"><defs><style>.cls-1{fill:#6666FF;}.cls-2{fill:#3CB371;}</style></defs><path class="cls-1" d="M395.16,657.34c-3.81-11.23-7.65-22.44-11.44-33.67-4.89-14.5-10.14-28.89-14.48-43.56-3.65-12.32-6.21-25-9.26-37.46-2.61-10.7-5.33-21.38-7.83-32.1C344.72,478.66,336.54,447,329,415.13q-2-8.34-3.86-16.71a16.68,16.68,0,0,1-.05-5.77l1.28-.09a152.59,152.59,0,0,0,3.21,15.29c7.47,31.26,15.42,62.4,22.73,93.7,5.29,22.6,11,45.11,16.53,67.66.65,2.67,1,5.45,2.21,8,0,.81-.18,1.66.52,2.31,1.37,4.39,2.65,8.82,4.12,13.17,4.19,12.4,8.4,24.79,12.73,37.14,2.3,6.56,4.15,13.29,6.95,19.67.41,2.07.69,4.18,2,6,.36,1.47.61,3,1.1,4.4q5.53,16.35,11.17,32.66c.64,1.82,1,3.83,2.42,5.71.08-1,.14-1.69.17-2.36.42-9.91.87-19.83,1.25-29.75q1.59-41.22,3.13-82.46c.46-12,1.06-24,1.38-36.06.21-8,.88-16,.68-24a6,6,0,0,0,.28-3.55c.55-13.79,1.14-27.58,1.63-41.37.42-11.6.65-23.22,1.06-34.82.63-17.92,1.34-35.83,2-53.74q.76-20.43,1.52-40.87.77-20.17,1.51-40.36c.6-16.48,1.13-33,1.74-49.45.32-8.75.81-17.49,1.12-26.23.14-4.19.57-8.39-.08-12.58.31-5.69,1.06-11.33,1.32-17,.23-5,.3-10.06.51-15.09q.66-15.83,1.28-31.66a2.44,2.44,0,0,0-.28-1.71c.16-.7-.17-1.5.59-2.33L563.86,260.44c11.5-10,21.75-21.15,32.66-31.61S618.16,207.64,629,197s21.49-21.34,32.46-31.78,21.67-21.16,32.49-31.74,21.65-21.16,32.4-31.82,21.75-21.32,32.62-32S780.57,48.54,791.4,38L823.89,6.22Q840.15-9.65,856.4-25.51C867.22-36.12,878-46.8,888.78-57.41s21.67-21.17,32.53-31.73,21.3-21.23,32.75-31.07c.45,3.27-2,4.71-3.64,6.59l-.06.11-.35.42a.25.25,0,0,0-.19.22.39.39,0,0,1-.22.25.42.42,0,0,0-.31.34l-.12.16a1.36,1.36,0,0,0-.92,1.09l-.33.41-.15.19a.59.59,0,0,1-.26.3.51.51,0,0,0-.28.34l-.13.13-.42.44,0,0a2.75,2.75,0,0,0-1.51,1.86l-.12.14c-.15.15-.29.31-.43.46h0l-.52.52,0,0a4.76,4.76,0,0,0-2.09,2.54l0,0-.55.55.06,0c-.79.76-1.64,1.46-2.35,2.28-5.05,5.85-10.05,11.74-15.11,17.58s-10.49,11.61-15.38,17.7c-9.21,11.47-19.36,22.14-28.61,33.57-5.92,7.31-12.56,14-18.35,21.46-4.44,5.7-9.19,11.13-14,16.53a.87.87,0,0,0-.79.55l0,0-.54.55,0,0a1.73,1.73,0,0,0-1,1.55l0,0A.51.51,0,0,0,845,9l0,0c-.34,0-.49.22-.54.54l0,0A.61.61,0,0,0,844,10l0,0c-.62.33-1.14.73-1,1.55l0,0c-.37,0-.54.19-.54.55l0,0c-.94.1-1.31.76-1.55,1.56l0,0a.76.76,0,0,0-.54,1l0,0c-.39,0-.56.16-.53.54l0,0a3.7,3.7,0,0,0-2.56,3.06l0,0c-2.58,2.52-5.44,4.79-7.09,8.13l0,0c-.4-.05-.54.15-.52.53l0,0c-.38,0-.53.18-.53.53l0,0c-.51.18-.86.44-.53,1v0c-1.32,0-1.81.91-2,2l0,0c-.39,0-.54.17-.53.53l0,0a4.71,4.71,0,0,0-2.55,3.06l0,0c-1.37.45-2,1.73-2.84,2.72-2.49,2.85-4.84,5.82-7.32,8.68q-11.88,13.73-23.82,27.42c-5.9,6.79-11.84,13.56-17.71,20.38-9.77,11.35-19.47,22.75-29.24,34.09q-15.57,18.06-31.23,36c-5.24,6-10.39,12.15-15.56,18.24-8.05,9.49-16.32,18.79-24.46,28.21-6.82,7.88-13.57,15.84-20.4,23.72-6.22,7.19-12.42,14.39-18.7,21.53-6.77,7.7-13.27,15.64-20.09,23.32-5,5.59-9.55,11.52-14.57,17.07-9,9.91-17.3,20.4-26.26,30.33-4.9,5.43-9.43,11.19-14.26,16.67-8.75,9.9-17.29,20-26,29.93q-21.54,24.75-42.82,49.72c-7.54,8.83-15.43,17.35-22.78,26.33-7.94,9.7-16.59,18.79-24.55,28.49-1.36,1.66-2.19,3.21-1.94,5.42.45,3.84.68,7.7,1,11.55a9,9,0,0,0,.19,3.36c.77,9.21,1.26,18.44,2.1,27.64,1.12,12.4,1.5,24.84,2.53,37.24,1.06,12.66,1.77,25.34,2.7,38,1.09,14.93,2.28,29.86,3.37,44.79.77,10.4,1.43,20.81,2.19,31.22.75,10.23,1.6,20.46,2.35,30.69.76,10.4,1.42,20.81,2.19,31.22.74,10.06,1.58,20.12,2.33,30.18.6,8.14,1.13,16.28,1.7,24.42.51,7.22,1,14.43,1.59,21.64a9.24,9.24,0,0,1-.48,3.7c-6.06,19.16-12.32,38.26-18.1,57.5C437.87,898.86,430,922.3,422.89,946c-4.7,15.53-9.67,31-14.48,46.46-3.05,9.79-6.38,19.5-9.26,29.34-6.22,21.22-13.23,42.19-19.75,63.31-6,19.43-11.86,38.91-18.27,58.38-1.05,0-2.74,1-2.15-1.53a31.34,31.34,0,0,0,3-9.87c1-.91,1.06-2.25,1.43-3.42,4.62-14.85,9.25-29.69,13.79-44.57,6.78-22.17,14.07-44.18,20.77-66.39,7.65-25.36,16.09-50.47,23.7-75.85,7.51-25,15.85-49.8,23.37-74.82,5-16.6,10.41-33.06,15.63-49.59a9.68,9.68,0,0,0,.63-3.7q-1.73-22.4-3.41-44.79-1.32-17.49-2.61-35-2.1-29.07-4.18-58.15c-1.1-15.1-2.39-30.19-3.36-45.3-1.25-19.22-3-38.41-4-57.66-.6-12.41-1.88-24.8-2.82-37.2q-1.35-17.73-2.64-35.46l-.15-3.45c-.14-1.67-.28-3.34-.43-5a55.43,55.43,0,0,0-.86-11.28,3.57,3.57,0,0,1,1.07-3.2c2.56-3,5-6.16,7.63-9.09,9.25-10.23,18.05-20.84,27.09-31.26q21-24.22,41.87-48.54c6-6.94,12.15-13.76,18-20.79,9.66-11.55,19.77-22.7,29.46-34.23,10-11.85,20.3-23.38,30.42-35.09,5.44-6.3,10.72-12.74,16.16-19.05,8-9.3,16.13-18.51,24.16-27.8,7-8.07,13.9-16.21,20.87-24.31,7.57-8.79,15.27-17.49,22.73-26.38,7.73-9.22,16-18,23.55-27.33s15.94-18,23.6-27.3c7.32-8.9,15.19-17.33,22.58-26.18,8.78-10.52,18-20.72,26.92-31.09q21.87-25.32,43.65-50.7c7.21-8.44,14.75-16.59,21.78-25.2,8-9.77,16.61-19,24.72-28.67,9.13-10.89,18.59-21.5,27.89-32.25Q908-67.6,924.85-87.21c2.24-2.6,4.82-4.92,6.55-7.94a1.46,1.46,0,0,0,1-1.52.5.5,0,0,0,.5-.51.59.59,0,0,0,.51-.5l.5-.51.15-.09-.12.12-.51.5-.5.51-.5.51c-.57.35-1.21.65-1,1.52-.6-.23-.93.19-1.29.54l-9.37,9.19c-6.14,6-12.32,12-18.43,18-6.65,6.56-13.1,13.34-19.91,19.73-10.32,9.67-20.2,19.79-30.39,29.59C838.89-5.42,826.17,7.7,813,20.31c-10.9,10.4-21.55,21.05-32.33,31.57q-18.71,18.25-37.34,36.57c-9.63,9.53-19.24,19.09-29.07,28.41-7,6.6-13.62,13.52-20.48,20.23-11.2,10.94-22.5,21.77-33.69,32.72-11.42,11.18-22.62,22.61-34.19,33.64-10.92,10.39-21.43,21.18-32.3,31.61-7.65,7.34-15.16,14.83-22.75,22.23-2.16,2.09-4.38,4.12-6.63,6.24q-64.66-53.1-129-105.89a2.72,2.72,0,0,0-.76,2.25c-.57,13.71-1.16,27.42-1.68,41.13q-1.56,40.38-3,80.77-1.41,37.72-2.78,75.46-1.92,51.5-3.88,103c-.46,12.28-1,24.56-1.38,36.84-.18,6.48-.86,12.94-.37,19.43a7.47,7.47,0,0,0-.15,3.39q-1,25.86-2,51.72c-.45,11.69-.81,23.38-1.22,35.07q-.27,7.32-.56,14.64-.9,22.83-1.79,45.66c0,1-.27,2,.41,2.93-1.27,11.55-1.61,23.14-1.84,34.73,0,1.4-.65,2-2,1.7a3.77,3.77,0,0,1-1-1.88c-2.48-7.23-4.94-14.47-7.44-21.69-2.27-6.57-4.58-13.13-6.88-19.7C396.9,661,396,659.17,395.16,657.34Z" transform="translate(-324.82 120.21)"/><path class="cls-2" d="M326.33,392.56l-1.28.09a5.36,5.36,0,0,1,.51-3.42c7.78-18.07,16.49-35.73,24.44-53.73,7.71-17.46,16.06-34.62,23.71-52.11,6.7-15.33,14-30.38,20.78-45.69,7.6-17.23,15.62-34.28,23.43-51.42,4.38-9.64,8.43-19.43,13.1-28.94a6.4,6.4,0,0,1,1.19-2.19,2.44,2.44,0,0,1,.28,1.71q-.63,15.82-1.28,31.66c-.21,5-.28,10.06-.51,15.09-.26,5.7-1,11.34-1.32,17q-1.36,18.88-2.73,37.76c-.92,12.51-1.9,25-2.84,37.52-.89,11.83-2,23.65-2.57,35.5-.68,14.21-2,28.37-2.95,42.56-1,14.69-2.2,29.36-3.31,44q-1.11,14.85-2.2,29.7-1.66,22.15-3.36,44.3-1.19,15.62-2.37,31.22c-.26,3.47-.46,6.94-.69,10.42l.49.19c1.65-1.86,3.31-3.71,4.95-5.57,2.38-2.72,4.47-5.69,7.07-8.23a6,6,0,0,1-.28,3.55c-3.78,4.4-7.54,8.82-11.36,13.19a5.72,5.72,0,0,0-1.43,3.62q-1.53,21.27-3.17,42.53-1.67,22.14-3.33,44.29c-.7,9.4-1.34,18.8-2,28.19-1.27-1.78-1.55-3.89-2-6,.51-.44.45-1.06.49-1.63q1.76-24.92,3.52-49.83c1.09-14.94,2.28-29.86,3.35-44.79.25-3.63.82-7.26.61-11.45-.9,1-1.48,1.54-2,2.16-3.58,4.34-7.08,8.75-10.77,13-6.43,7.43-12.67,15-19,22.55-.7-.65-.52-1.5-.52-2.31,1.68-2.11,3.33-4.23,5-6.31,8.75-10.68,17.93-21,26.53-31.8a6.21,6.21,0,0,0,1.44-3.61q4.75-64,9.59-128c1.62-21.66,3.16-43.32,4.88-65,1.48-18.63,2.51-37.29,3.88-55.93,1.4-19.06,2.89-38.11,4.33-57.17q2.25-29.58,4.47-59.18c.2-2.66.4-5.32.61-8.24a4.76,4.76,0,0,0-1.78,2.66c-3.27,7.2-6.47,14.44-9.75,21.63q-15.6,34.23-31.23,68.44-10.78,23.64-21.49,47.33c-6.09,13.5-12.43,26.88-18.38,40.45-4.67,10.63-9.73,21.09-14.57,31.65C331.77,380.27,329.07,386.43,326.33,392.56Z" transform="translate(-324.82 120.21)"/><path class="cls-2" d="M440.51,496.94a9,9,0,0,1-.19-3.36c3.46-3,5.93-6.83,8.85-10.28q21.65-25.5,42.88-51.36c7.55-9.15,15.49-18,22.83-27.3s15.48-18.2,23-27.5c8.94-11.05,18.28-21.78,27.39-32.69q21-25.09,41.86-50.25c7.88-9.53,16.12-18.77,23.81-28.47,7.37-9.3,15.37-18.06,22.82-27.3,9.17-11.41,18.79-22.45,28.18-33.68,5.78-6.91,11.46-13.9,17.24-20.79,7-8.38,14.34-16.54,21.16-25.09,9-11.26,18.53-22,27.59-33.19,10.12-12.49,20.64-24.65,31-37,5.89-7,11.73-14.09,17.6-21.13q13.35-16,26.67-32c.41-.48,1.35-.91.66-1.84l0,0a2.84,2.84,0,0,0,2.55-3.06l0,0c.58.23.72,0,.53-.53l0,0c1.34,0,1.82-.89,2-2v0c.59-.14,1.06-.34.53-1l0,0c.55.2.7,0,.53-.53l0,0c.53.17.65-.05.52-.53l0,0c2.65-1.34,3.85-4.12,5.95-6A2.71,2.71,0,0,0,837.45,18l0,0A6.24,6.24,0,0,0,840,15l0,0a.54.54,0,0,0,.53-.54l0,0c.44-.21.76-.49.54-1l0,0c1,0,1.32-.75,1.55-1.56l0,0a.54.54,0,0,0,.54-.55l0,0c.61-.34,1.14-.73,1-1.55l0,0c.39,0,.54-.19.54-.54l0,0c.36,0,.5-.21.53-.54l0,0a.57.57,0,0,0,.54-.55l0,0c.62-.33,1.13-.74,1-1.55l0,0c.39,0,.53-.19.54-.55l0,0a1,1,0,0,0,.79-.55c4.78-5.4,9.53-10.83,14-16.53,5.79-7.43,12.43-14.15,18.35-21.46,9.25-11.43,19.4-22.1,28.61-33.57,4.89-6.09,10.26-11.79,15.38-17.7s10.06-11.73,15.11-17.58c.71-.82,1.56-1.52,2.35-2.28-1.63,2.87-4,5.18-6.07,7.7q-9.62,11.7-19.35,23.29C905.89-60,895.44-47.88,885.35-35.48c-7.81,9.6-16,18.9-23.84,28.42-14.17,17.11-28.45,34.13-42.67,51.2-6.24,7.5-12.43,15-18.7,22.52-10.1,12.06-20.39,24-30.31,36.17-7.7,9.47-15.76,18.63-23.53,28-14.36,17.39-28.85,34.67-43.29,52-6.3,7.56-12.58,15.15-18.9,22.69-10,11.86-20.1,23.56-29.84,35.58-7.78,9.62-16.1,18.78-23.82,28.45-7.24,9.08-14.94,17.77-22.33,26.72q-10.2,12.38-20.51,24.63c-8.59,10.25-17.37,20.35-25.75,30.77-7.81,9.7-16.19,18.93-23.91,28.7-7.11,9-14.81,17.44-22.05,26.3-7.94,9.7-16,19.28-24.07,28.91q-11.4,13.65-22.85,27.27c-5.18,6.19-10.29,12.45-15.44,18.67C449.25,486.73,444.86,491.81,440.51,496.94Z" transform="translate(-324.82 120.21)"/><path class="cls-2" d="M362,1132.05a31.34,31.34,0,0,1-3,9.87c.34-5.45.64-10.91,1-16.35.57-7.8,1.22-15.6,1.82-23.4q1.2-15.72,2.38-31.44c.56-7.55,1.1-15.1,1.67-22.65.79-10.48,1.61-21,2.4-31.44.56-7.47,1.07-14.93,1.64-22.4.79-10.56,1.63-21.13,2.42-31.7.59-8,1.12-15.94,1.69-23.91,1.16-16.2,2.3-32.4,3.51-48.6q3.36-45,6.78-89.91,2.7-35.64,5.38-71.27,2.6-34.64,5.19-69.26c.05-.75.17-1.5.26-2.25.83,1.83,1.74,3.64,1.71,5.73q-1.51,20-3,40-3.21,42.43-6.4,84.88-4.41,58.68-8.78,117.37c-1.32,17.72-2.84,35.42-3.89,53.15-1,16.56-2.42,33.08-3.61,49.62-1.18,16.38-2.46,32.74-3.7,49.11-1.28,17-2.59,33.92-3.83,50.88C363,1116.1,362.21,1124.06,362,1132.05Z" transform="translate(-324.82 120.21)"/><path class="cls-2" d="M942-103.68a4.76,4.76,0,0,1,2.09-2.54A5.31,5.31,0,0,1,942-103.68Z" transform="translate(-324.82 120.21)"/><path class="cls-2" d="M945.15-107.32a2.75,2.75,0,0,1,1.51-1.86A4.05,4.05,0,0,1,945.15-107.32Z" transform="translate(-324.82 120.21)"/><path class="cls-2" d="M948.25-111a1.36,1.36,0,0,1,.92-1.09C948.92-111.71,948.74-111.24,948.25-111Z" transform="translate(-324.82 120.21)"/><path class="cls-2" d="M944.08-106.19l.52-.52Z" transform="translate(-324.82 120.21)"/><path class="cls-2" d="M946.68-109.22l.42-.44Z" transform="translate(-324.82 120.21)"/><path class="cls-2" d="M947.23-109.79a.51.51,0,0,1,.28-.34A.84.84,0,0,1,947.23-109.79Z" transform="translate(-324.82 120.21)"/><path class="cls-2" d="M947.77-110.43l.15-.19A.26.26,0,0,1,947.77-110.43Z" transform="translate(-324.82 120.21)"/><path class="cls-2" d="M944.6-106.72c.14-.15.28-.31.43-.46C944.88-107,944.74-106.87,944.6-106.72Z" transform="translate(-324.82 120.21)"/><path class="cls-2" d="M941.52-103.18l.55-.55Z" transform="translate(-324.82 120.21)"/><path class="cls-2" d="M949.29-112.28a.42.42,0,0,1,.31-.34A1,1,0,0,1,949.29-112.28Z" transform="translate(-324.82 120.21)"/><path class="cls-2" d="M949.82-112.87a.25.25,0,0,1,.19-.22A.5.5,0,0,1,949.82-112.87Z" transform="translate(-324.82 120.21)"/><path class="cls-2" d="M950.36-113.51l.06-.11Z" transform="translate(-324.82 120.21)"/><path class="cls-2" d="M415.94,669.91c1.67-14.95,3.61-29.88,5-44.87,2-22.18,4.84-44.28,7.22-66.42,1.81-16.88,3.73-33.75,5.58-50.62a23.13,23.13,0,0,0,0-2.4c-4.75,4.55-8.28,9.76-12.56,14.29a7.47,7.47,0,0,1,.15-3.39c3.69-4.34,7.32-8.74,11.12-13a9.69,9.69,0,0,0,2.42-5.86c.6-5.74,1-11.52,2-17.22a55.43,55.43,0,0,1,.86,11.28,24.54,24.54,0,0,0-.62,5.85l1.05-.84.15,3.45a4.29,4.29,0,0,0-2,3.54c-4.47,40.4-9.1,80.78-13.45,121.2-2.49,23.08-4.82,46.18-7.45,69.25-.4,3.51-.89,7-1.33,10.49C414.33,693.05,414.67,681.46,415.94,669.91Z" transform="translate(-324.82 120.21)"/></svg>