<svg id="Layer_1" data-name="Layer 1" xmlns="http://www.w3.org/2000/svg" viewBox="0 0 630.11 1263.74"><defs><style>.cls-1{fill:#6666FF;}.cls-2{fill:#6666FF;}</style></defs><path class="cls-1" d="M359.92,1142a103.32,103.32,0,0,1,3.81-13.77c4.77-15.14,9.82-30.19,14.35-45.39s9.44-30.12,14.11-45.2c7.22-23.3,14.77-46.49,21.84-69.83,6.06-20,12.7-39.73,18.66-59.71,5.79-19.41,12.33-38.59,18.09-58,3.15-10.61,6.37-21.19,10-31.63,1.59-4.57,1-9,.64-13.49-1.07-15.59-2.27-31.17-3.43-46.75-1.26-16.75-2.61-33.5-3.75-50.27-1.06-15.41-2.42-30.81-3.17-46.25-.5-10.44-1.56-20.86-2.34-31.3-.58-7.82-1.07-15.66-1.64-23.48-.6-8.16-1.26-16.32-1.87-24.48-.57-7.66-1.09-15.32-1.66-23q-1.19-16.16-2.41-32.31c-.56-7.74-1.08-15.49-1.66-23.23q-.9-12.24-1.9-24.47a5,5,0,0,1,1.35-4.07c4.52-5.23,9-10.51,13.5-15.76,5.66-6.59,11.39-13.14,17.06-19.72q15.19-17.65,30.4-35.29c6.79-7.85,13.65-15.63,20.42-23.48,8.6-10,17.1-20,25.7-30,10.14-11.75,20.35-23.45,30.52-35.17,6.2-7.14,12.42-14.25,18.57-21.42,9.68-11.27,19.28-22.6,29-33.86,8.09-9.4,16.39-18.62,24.35-28.13,7.36-8.8,15.18-17.2,22.41-26.12,3.93-4.85,8.22-9.4,12.3-14.13q16.86-19.56,33.68-39.14c7.12-8.23,14.47-16.27,21.4-24.65,8.23-10,17-19.42,25.21-29.4,3.91-4.76,8.25-9.17,12.14-13.94,5.49-6.75,11.42-13.11,17.06-19.72Q809.23,46,826,26.7c7-8.08,14.1-16.14,21-24.31C855.35-7.47,864.08-17,872.23-27c3.67-4.51,7.77-8.68,11.44-13.2,6.54-8.06,13.68-15.59,20.27-23.61,4.76-5.8,9.84-11.35,14.77-17Q922.37-85,926-89.23c.42-.48,1-.91.72-1.8-.9-.37-1.37.35-1.84.85-7.15,7.53-15.15,14.21-22.15,21.89-1.64,1.81-3.59,3.32-5.34,5C886.67-52.72,876.12-42,865.25-31.66S844-10.88,833.34-.54c-6.42,6.22-12.86,12.44-19.23,18.73-7.38,7.28-14.6,14.75-22.13,21.88-6.51,6.15-12.65,12.67-19.19,18.77-10.24,9.56-19.94,19.68-30.11,29.32-7.35,7-14.33,14.32-21.61,21.35-7.47,7.21-14.75,14.63-22.28,21.76-9.45,8.93-18.52,18.25-27.9,27.24-6.58,6.3-13.24,12.54-19.57,19.09-7.69,8-15.73,15.54-23.65,23.24-10,9.7-19.79,19.6-29.89,29.2-9.35,8.89-18.36,18.16-27.54,27.23-1.61,1.59-3.37,3-5.36,4.81L435.7,156c-.81.33-.61.91-.63,1.37-.62,19.33-1.44,38.66-1.92,58-.46,18.32-1.42,36.62-2,54.93-.41,13-1,26-1.47,39q-.88,22-1.81,44c-.21,4.81-.25,9.62-.48,14.43-.55,11.72-.83,23.46-1.25,35.19-.68,18.64-1.31,37.29-2.09,55.93q-.82,19.62-1.49,39.23c-.51,14.85-1.19,29.69-1.79,44.54q-.31,7.59-.58,15.18c-.4,11.56-.7,23.13-1.19,34.68-.75,17.89-1.47,35.77-2,53.66-.41,12.83-.86,25.65-1.54,38.47-.36,6.57-.31,13.16-.71,19.7-.47.73-1.13.64-2,.61-1.52-4.3-3.06-8.58-4.54-12.88-3.52-10.22-7.19-20.39-10.47-30.68-5.7-17.86-12.18-35.45-18.07-53.24-3.44-10.41-7.24-20.72-10.24-31.26-3.15-11-5.69-22.23-8.21-33.42-5.58-24.7-12.2-49.15-17.92-73.82-5.59-24.08-11.77-48-17.53-72.05a14.91,14.91,0,0,1-.09-6.17c1.46.31,1.28,1.32,1.46,2.06q5.3,21.41,10.53,42.8c6.77,27.79,13.6,55.57,20.23,83.39,4.51,18.88,9,37.77,13.7,56.6.89,3.53,2.26,6.9,3.42,10.33q8.33,24.72,16.66,49.42,9.36,27.71,18.75,55.41c.46,1.37.67,2.91,1.83,4,1-.68.71-1.61.74-2.39.41-10.89.78-21.77,1.17-32.66.9-24.56,1.55-49.12,2.69-73.67.44-9.37.72-18.74,1.08-28.11q1.5-39.5,3-79,.54-14.19,1.06-28.36,1.49-39.63,3-79.25.78-20.76,1.55-41.53,1.5-39.87,3-79.76c.62-16.62,1.18-33.25,1.79-49.88q.88-24.06,1.81-48.11c0-.31.09-.63.22-1.51Q499.32,205.36,564.57,259a4,4,0,0,0,2.22-1.55c4.38-4.34,8.61-8.84,13.13-13,9.49-8.77,18.42-18.1,27.75-27,9.81-9.4,19.21-19.23,29-28.62,6.53-6.24,12.79-12.77,19.38-18.93,4.75-4.45,9.33-9,13.95-13.62s9.71-9.15,14.35-13.93c5.82-6,12.2-11.44,17.91-17.53,6.65-7.08,14-13.46,20.75-20.41,8.43-8.64,17.09-17.06,25.85-25.36,9.07-8.59,17.91-17.41,26.8-26.17,9.14-9,18.35-17.93,27.49-26.92,6.38-6.28,12.56-12.76,19.14-18.82C830.75-.75,838.82-8.91,847-17c8.86-8.8,18-17.32,26.71-26.26q11-11.24,22.45-21.95c5.24-4.91,10.08-10.21,15.37-15.05,8.34-7.63,16-15.91,24.32-23.63,5.42-5.06,10.45-10.55,15.9-15.61,1-.94,1.87-2.48,3.66-1.92.47,1.26-.28,1.9-.88,2.59q-13.79,16-27.58,32C919.62-78.37,912.24-70,905-61.6,896.7-52,888.55-42.34,880.29-32.75,871-21.94,861.6-11.2,852.29-.4c-11.19,13-22.27,26-33.54,38.94-7.1,8.13-14,16.4-21.21,24.49-8.78,9.91-17.22,20.12-25.87,30.15-9.42,10.93-18.93,21.77-28.36,32.7-11,12.77-22,25.61-33,38.38-7,8.18-14.23,16.25-21.27,24.44-9.25,10.74-18.39,21.57-27.64,32.31-9.4,10.94-18.89,21.8-28.31,32.72-11.58,13.42-23.08,26.9-34.7,40.28-6.37,7.32-12.76,14.62-19.07,22-6.14,7.18-12.54,14.16-18.54,21.45-8.09,9.84-16.58,19.35-24.87,29q-14.34,16.69-28.83,33.29c-11,12.65-21.88,25.46-32.85,38.17-7.06,8.17-14.24,16.23-21.25,24.45-4,4.76-7.93,9.65-12.22,14.19a3.36,3.36,0,0,0-.75,2.81c.76,10.45,1.49,20.89,2.25,31.34q1.19,16,2.4,32.08Q446.32,565,448,587.24c.94,12.8,1.9,25.61,2.77,38.41.89,13.14,1.61,26.28,2.7,39.4.85,10.18,1.42,20.37,2.17,30.56.77,10.43,1.63,20.86,2.41,31.29.58,7.83,1.06,15.66,1.64,23.48.77,10.35,1.61,20.7,2.39,31,.57,7.65.53,15.41,1.78,23,1.46,8.76-1.54,16.45-4,24.38q-9.56,30.57-19.11,61.15C438.48,897,436,904,433.94,911.15c-4.59,16.16-10.09,32-15,48.1-6.34,20.83-13.12,41.53-19.47,62.36-6.57,21.55-13.68,42.93-20.15,64.52-5.4,18-11.37,35.88-16.89,53.88C362.13,1141,362.22,1142.84,359.92,1142ZM934.43-99l.46-.55c.16-.11.42-.21.12-.43,0,0-.19.17-.28.26l-.56.45-.53.49a23.52,23.52,0,0,0-5.59,5.49l.74.67A37,37,0,0,0,934-98.44Zm1.92-2.65.12-.14-.1.16-.11.2Z" transform="translate(-325.41 121.54)"/><path class="cls-2" d="M934-98.44a37,37,0,0,1-5.17,5.85l-.74-.67a23.52,23.52,0,0,1,5.59-5.49Z" transform="translate(-325.41 121.54)"/><path class="cls-2" d="M936.37-101.6l.1-.16-.12.14Z" transform="translate(-325.41 121.54)"/><path class="cls-2" d="M936.35-101.62l-.09.22.11-.2Z" transform="translate(-325.41 121.54)"/><path class="cls-2" d="M934.72-99.69c.1-.09.27-.28.29-.26.3.22,0,.32-.12.43Z" transform="translate(-325.41 121.54)"/><path class="cls-2" d="M934.17-99.24l.56-.45.16.17-.46.55Z" transform="translate(-325.41 121.54)"/><path class="cls-2" d="M933.64-98.75l.53-.49.26.27c-.16.18-.32.35-.47.53Z" transform="translate(-325.41 121.54)"/></svg>