<svg id="Layer_1" data-name="Layer 1" xmlns="http://www.w3.org/2000/svg" viewBox="0 0 630 1263.98"><defs><style>.cls-1{fill:#3CB371;}</style></defs><path class="cls-1" d="M930.8-94.89c-2.28,1.62-4,3.86-6,5.79-9.5,9.15-18.87,18.42-28.3,27.65-10.76,10.51-21.6,21-32.26,31.56-6.64,6.62-13.31,13.22-20,19.73-9.31,9-18.47,18.1-27.74,27.12-7,6.84-14.2,13.52-20.94,20.65-3.13,3.3-6.62,6.27-9.9,9.45q-9.64,9.36-19.22,18.8c-7,6.88-13.77,14-20.92,20.66-8.28,7.74-16.11,15.92-24.34,23.71-8.46,8-16.44,16.55-24.93,24.56C687,143.55,678,152.69,668.8,161.5c-8.26,7.86-16.11,16.16-24.4,24-5.9,5.58-11.38,11.58-17.38,17-8.57,7.8-16.57,16.18-24.85,24.26s-16.79,16.2-25,24.5c-3.84,3.9-8,7.53-11.63,11.46a1.9,1.9,0,0,1-1.54-1.3,106,106,0,0,1,7.66-7.94c4.37-4.11,8.7-8.25,12.85-12.6,3.08-3.24,6.5-6.16,9.69-9.3,8.26-8.12,16.45-16.3,24.72-24.41,9.29-9.11,18.65-18.15,28-27.24,10.83-10.56,21.81-21,32.41-31.77,6.82-6.94,14-13.47,20.82-20.41,8.45-8.63,17.51-16.68,25.94-25.33,7.44-7.64,15.31-14.81,22.78-22.41,8.3-8.42,17-16.47,25.44-24.75,9.41-9.23,18.66-18.64,28.18-27.76,6.4-6.15,12.52-12.6,19-18.63,7.14-6.6,13.68-13.8,20.91-20.3,3.32-3,6.2-6.49,9.49-9.52,8.09-7.43,15.64-15.43,23.61-23,6-5.63,11.89-11.3,17.59-17.18,7.54-7.78,15.52-15.08,23.15-22.75,8-8,16.33-15.69,24.36-23.68,3.84-3.81,7.66-7.64,11.54-11.41.69-.67,1.27-1.7,2.57-1.18.69,1.09,0,1.88-.64,2.66-8,9.29-15.78,18.76-23.59,28.2Q918.21-74.4,905.85-59.63c-8.72,10.46-17.38,21-26.2,31.31-5.8,6.83-11.73,13.55-17.31,20.56-8,10-16.37,19.57-24.45,29.45-7.75,9.49-15.9,18.65-23.58,28.19-6.1,7.57-12.63,14.77-18.6,22.44-4.72,6.07-10,11.71-14.93,17.59-3.33,3.94-6.53,8-9.83,11.94-6.88,8.24-14,16.31-20.66,24.69-7.39,9.24-15.24,18.09-22.69,27.29-9.42,11.61-19.28,22.87-28.88,34.35-8.63,10.3-17.13,20.7-25.74,31-7.15,8.56-14.5,17-21.51,25.63-5.8,7.17-11.9,14.08-17.76,21.18q-14.44,17.5-29,34.9-13.47,16.17-27,32.31c-8.24,9.85-16.53,19.67-24.76,29.53-9.7,11.61-19.28,23.33-29.06,34.87-6.61,7.81-13.22,15.62-19.69,23.53-7.17,8.76-14.61,17.3-21.74,26.1-9.46,11.69-19.32,23.06-29,34.59-4,4.79-8,9.63-12,14.43a3.29,3.29,0,0,0-.86,2.53Q442.36,520.42,444,542c.6,8.09,1.07,16.2,1.67,24.29.75,10.2,1.6,20.39,2.36,30.58s1.43,20.24,2.17,30.36c.8,10.79,1.84,21.57,2.4,32.37.59,11.49,1.45,23,2.28,34.44q2.43,33.54,5,67.07,1.94,26.07,3.87,52.14a13.58,13.58,0,0,1-.65,5.22c-3,9.33-6.17,18.63-8.94,28-5.22,17.76-11.28,35.25-16.54,53-5.17,17.43-11.06,34.62-16.26,52-5.43,18.22-11.6,36.21-17,54.43-4.9,16.44-10.49,32.67-15.33,49.13-4.54,15.4-9.64,30.62-14.36,46-4.15,13.48-8.38,27-12.58,40.42-.39,1.27-.6,2.82-2.91,2-.18-3.51.44-7.08.67-10.66.51-8,1.21-16,1.82-24q1.19-15.43,2.35-30.85c.58-7.68,1.13-15.35,1.71-23q1.41-18.72,2.85-37.42c.57-7.51,1.16-15,1.69-22.51,1.21-17.13,2.34-34.26,3.6-51.38,1.54-21,3.19-42,4.79-63,1.62-21.17,3.31-42.34,4.84-63.52,1.55-21.51,3.45-43,4.65-64.54.68-12.32,1.87-24.62,2.8-36.92.76-10.12,1.47-20.24,2.23-30.35.58-7.84,1.18-15.68,1.85-23.52a21.18,21.18,0,0,0-.95-9c-7.33-21.25-14.53-42.55-21.78-63.84-1-3-1.53-6.23-3-9.18a191.38,191.38,0,0,1,13-15.92c3.31-3.74,6.22-7.78,9.49-11.55,3.66-4.21,7.21-8.52,10.86-12.74a5.44,5.44,0,0,0,1.45-3.38q2.69-36.19,5.45-72.38c1.8-23.79,3.68-47.57,5.38-71.37,1.86-26,4.17-51.94,5.64-78,.68-12.15,1.85-24.27,2.77-36.41.77-10.2,1.48-20.4,2.25-30.6.73-9.78,1.51-19.56,2.26-29.34q1.14-14.91,2.25-29.84.89-11.62,1.79-23.26a3.33,3.33,0,0,0-.44-2.57C419.33,188.29,408,214,396.25,239.58S372.86,291,361.16,316.65,337.79,368,325.92,394c-1.46-2-.86-3.54-.16-5,4.09-8.82,8.37-17.55,12.22-26.47,4.7-10.87,10-21.45,14.73-32.3,5.77-13.25,12.05-26.27,18-39.44Q382.37,265,394,239.23c3-6.62,6.33-13.1,9.15-19.79,5.16-12.24,11.23-24.05,16.45-36.25,3.86-9,8.27-17.78,12.09-26.81.58-1.35,1.2-2.56,3.21-1.21-9.9,126-18.56,252.16-28.4,378.27l.68.24c1.56-1.73,3.19-3.39,4.67-5.18,3.29-4,6.59-7.93,9.79-12,3.57-4.51,7.32-8.88,11.18-13.14a9.54,9.54,0,0,0,2.4-5.92c.56-6.13,1.48-12.23,1.78-18.37,1.64-.63,2.37-.2,2.46,1.44.16,3.2.38,6.41.6,9.61.07,1-.12,2,.55,2.9.91.16,1.19-.56,1.59-1q10.24-12.25,20.46-24.54c6.62-7.9,13.41-15.67,19.88-23.68,6.12-7.57,12.55-14.85,18.75-22.34Q516,403.66,530.8,386c6.15-7.31,12.33-14.59,18.38-22,6.74-8.24,13.75-16.26,20.44-24.55,9.18-11.37,18.78-22.41,28.16-33.63q14.57-17.4,29.07-34.85c7.1-8.49,14.39-16.82,21.3-25.47,6.33-7.92,13.09-15.48,19.45-23.39,9.11-11.32,18.65-22.31,28-33.46q13.33-15.94,26.61-31.93c7.59-9.07,15.23-18.1,22.82-27.18Q761,110.49,776.84,91.39c5.8-6.94,11.71-13.78,17.41-20.79,7.42-9.12,15.09-18,22.51-27.12,8.65-10.61,17.59-21,26.38-31.49Q857.86-5.6,872.53-23.24C879-31,885.65-38.5,891.92-46.36c6.74-8.46,14.08-16.41,20.73-25,4.1-5.26,8.62-10.2,12.91-15.32,2-2.32,3.82-4.71,5.73-7.08.48-.43,1-.84.72-1.74A1,1,0,0,0,930.8-94.89Zm7.53-7.17.51-.51.07-.05,0,.08-.51.52-.52.52c-2.08,1.35-4.05,2.8-4.9,5.27a21.51,21.51,0,0,0,4.86-5.3ZM362.13,1131.83l.52.11c.31-.84.66-1.66.92-2.52,2.63-8.91,5.61-17.72,8.23-26.64,5.31-18.08,11.44-35.92,16.85-54,5.21-17.41,11.1-34.61,16.25-52s11.05-34.62,16.24-52c5.25-17.66,11.15-35.12,16.47-52.76,7.44-24.68,15.41-49.2,23.18-73.78a14.14,14.14,0,0,0,.67-5.48q-3.45-45.93-6.82-91.87c-1.43-19.66-2.69-39.33-4.1-59-1.26-17.63-2.64-35.25-3.94-52.88-1.26-17.12-2.47-34.25-3.73-51.37q-2-26.7-4-53.39a8,8,0,0,0-.66-3.68c-1.28.44-1.36,1.41-1.47,2.46q-2.32,21.43-4.71,42.86c-3.13,28-6.34,56-9.44,83.94-2.29,20.6-4.44,41.21-6.69,61.81-.53,4.86-1.18,9.71-1.75,14.42-1.4.77-2.12.41-2.51-.84-.3-1-.64-1.93-1-2.89-2.26-6.64-4.65-13.24-6.75-19.93-1.95-6.2-4.09-12.34-6.26-18.47,0-.09-.26-.1-.74-.27Q379.55,897.83,362.13,1131.83Zm72.15-626.06a3.67,3.67,0,0,0-2.12,1.77c-4.12,5.14-8.65,9.94-12.71,15.14-3.9,5-8.15,9.71-12.27,14.53a4.85,4.85,0,0,0-1.26,2.93c-1,13.58-1.85,27.16-2.72,40.75-.76,12-1.79,23.94-2.69,35.91q-1.42,19-2.84,37.94a8.85,8.85,0,0,0,.45,3.49c2.09,6.24,4.35,12.42,6.23,18.75,2,6.8,4.56,13.44,6.92,20.14.25.73.21,1.71,1.58,2.16Q423.56,602.53,434.28,505.77Zm-30.35,36.8-.61-.24c-1.89,2.14-3.83,4.24-5.66,6.42-8.26,9.83-16.46,19.71-24.75,29.51a3.46,3.46,0,0,0-.7,3.87q10.53,30.81,21,61.66c.66,2,1.42,3.9,2.13,5.84l.58-.08Q399.9,596.06,403.93,542.57Zm33.71-50.82-.51,5.77C439,495.75,438.15,493.88,437.64,491.75Z" transform="translate(-325.02 120.24)"/></svg>