<svg id="Layer_1" data-name="Layer 1" xmlns="http://www.w3.org/2000/svg" viewBox="0 0 630.35 1264.09"><defs><style>.cls-1{fill:#6666FF;}</style></defs><path class="cls-1" d="M830.52,561.08c0,6,.06,11.87,0,17.69Q829.1,695,827.64,811.24q-.84,68.24-1.62,136.48a4.62,4.62,0,0,1-2.16,4C811,961.68,796.14,967.93,782,975.5a12.8,12.8,0,0,0-4,3.26q-19.69,24.11-39.45,48.13c-2.32,2.82-3.69,6.12-5.35,9.27-4.84,9.22-10.21,18.22-14.17,27.8-3.79,9.18-6.27,18.94-9,28.55-3,10.9-8.55,20.74-12.82,31.12a3.38,3.38,0,0,1-2,1.7c-10.15,4.81-20.32,9.6-30.45,14.45a7.54,7.54,0,0,1-5.09.5q11.91-274,23.8-548l-.33,0q-49.54,229-99.24,458.7l-13.29-31.17q-19-44.56-37.94-89.12c-1.79-4.2-5.39-7-8.45-10.08C491,886.87,461.47,850,432.17,813a19.25,19.25,0,0,0-5.77-5c-13.78-7.77-27.48-15.68-41.23-23.49a4.75,4.75,0,0,1-2.33-3c-6.38-20.67-13-41.28-19.15-62-2.21-7.42-7.11-13.11-11-19.46a221.7,221.7,0,0,0-12.87-19.63c-3.62-4.75-4-9.82-3.18-15.08q8.4-56.07,17.19-112.09c1.14-7.16,5.3-13.42,8.18-20C373.4,507.07,384.93,481,396.37,455a11.25,11.25,0,0,1,2.36-3.46c10.25-10.27,20.37-20.65,30.74-30.79a48.89,48.89,0,0,0,9.72-13.4c11.72-23.36,23.93-46.48,35.29-70,3.46-7.16,4.8-15.36,7-23.12,8.57-30.35,16.77-60.81,25.83-91,2.67-8.91,7.56-17.19,11.7-25.63,25.66-52.35,47.34-106.45,70.82-159.75,7.84-17.79,17.69-34.7,26.66-52q21.33-41.11,42.71-82.21c1.65-3.17,4.48-5.35,6.81-7.93,5.37-5.93,10.91-11.7,16.32-17.59,2.09-2.27,3.59-2.32,5.41.47C720.87-70.64,750.17-17.61,778.43,36c15.17,28.8,31,57.27,46.12,86.07,4.31,8.18,5.76,17.51,8.39,26.34C842.25,179.62,850.83,211,860.8,242c6.9,21.44,15.61,42.3,23.54,63.42,10,26.64,20.56,53.09,29.82,80,5.57,16.17,9.29,33,13.55,49.6,11.21,43.61,23.57,86.89,37.94,129.58,1.79,5.33.9,10.67-.3,16-4.32,19.08-8.59,38.17-12.93,57.24a15.37,15.37,0,0,1-1.62,4.14c-8.22,14.2-16,28.67-24.91,42.42-5.77,8.89-13.19,16.7-19.85,25-2-.64-1.56-1.52-.68-2.58,3.6-4.37,7.06-8.87,10.79-13.13,11.43-13,17.9-29.21,27.51-43.36,7.86-11.59,9.05-25,12.24-37.92s6-26.13,8.93-39.19a7.7,7.7,0,0,0,0-4.41c-20.59-59.18-35.21-120.07-52-180.34-4.42-15.9-11.25-31.13-17.06-46.63-12-32.11-24.68-64-36-96.36-7.72-22.13-13.59-44.9-20.25-67.4-5.11-17.24-9.79-34.61-15.4-51.67-2.91-8.82-8.42-16.6-12.83-24.8-26.23-48.84-52.24-97.81-79-146.37-10.8-19.59-23.3-38.24-35-57.31-4-6.44-8-12.84-12.12-19.5-.72.67-1.27,1.11-1.76,1.63-3.13,3.34-6.08,6.88-9.41,10-9.18,8.63-15.56,19-21.24,30.2-19.5,38.28-39.86,76.11-59,114.55-9.49,19-17.36,38.9-25.49,58.59-17.91,43.33-38.53,85.41-57.91,128.07-4.46,9.82-6.36,20.8-9.33,31.29-7.86,27.78-15.64,55.59-23.53,83.37a36.5,36.5,0,0,1-2.84,6.09q-18.25,36-36.52,71.92a13.83,13.83,0,0,1-2.6,3.61q-17.44,17.4-34.83,34.82a10.25,10.25,0,0,0-2.34,3.18c-13.89,31.63-27.9,63.2-41.62,94.89-2.38,5.49-2.24,11.74-3.15,17.65-5.16,33.49-10.2,67-15.32,100.5a10,10,0,0,0,1.55,7.51c7.77,11.73,15.4,23.56,23,35.4,2.6,4.06,3.33,8.85,4.75,13.36q8.66,27.5,17.09,55.07a5.39,5.39,0,0,0,2.78,3.27c13.89,7.9,27.76,15.86,41.65,23.77a11.54,11.54,0,0,1,3.34,2.92c17.07,21.23,33.79,42.76,51.38,63.55,12.47,14.75,25.71,28.9,39.4,42.52,8.55,8.51,13.63,18.56,18.16,29.36,13.44,32.09,27.19,64,40.82,96,.25.59.58,1.16,1.15,2.3,2.14-9.83,4.15-19.11,6.16-28.38q32.22-149,64.45-298,14.8-68.45,29.66-136.9c.25-1.16-.37-3.66,2.67-2.73q-12.16,280.25-24.37,561c3.82-1.78,7.18-3.34,10.53-4.93,7.07-3.34,14.13-6.73,21.21-10a4.68,4.68,0,0,0,2.3-2.36c9.05-17.59,14.13-36.57,20-55.32,2.83-9.06,8.69-16.84,12.53-25.51,7.4-16.72,20.79-29,31.66-43.13,5.38-7,11.19-13.66,16.75-20.53a12.29,12.29,0,0,1,3.84-3.07c14-7.55,28.75-13.66,41.44-23.47a4.18,4.18,0,0,0,1.94-3.65q1.41-123.5,2.94-247,.82-68,1.68-136C828.67,562.68,827.85,560.66,830.52,561.08Z" transform="translate(-336.31 123.59)"/></svg>