<svg id="Layer_1" data-name="Layer 1" xmlns="http://www.w3.org/2000/svg" viewBox="0 0 630.2 1264.38"><defs><style>.cls-1{fill:#6666FF;}.cls-2{fill:#3CB371;}.cls-3{fill:#fff;}</style></defs><path class="cls-1" d="M429.9,821.52c-6.22-11.82-18.25-16.21-28.81-22.42-8.1-4.77-16.33-9.31-24.53-13.89-1.06-.59-1.15-1.55-1.44-2.47q-10.2-32.81-20.37-65.63c-1.26-4.07-4.07-7.21-6.28-10.7-5.78-9.15-11.61-18.26-17.74-27.17-3-4.37-2.31-9.08-1.67-13.48,4.2-28.87,8.76-57.69,13.18-86.53,1.28-8.3,2.28-16.64,3.77-24.9,1.09-6.11,4.43-11.45,6.87-17.08q18-41.29,36.15-82.5a16.11,16.11,0,0,1,2-2.77c4.09-2.35,6.44-6.27,9-10a1.4,1.4,0,0,0,1.75-.54c10.08-11.82,24.41-20,30.22-35.45.69,0,.89-.4.76-1l-.06,0c1.11-.25,1.19-1.31,1.57-2.07,4.63-9,9.27-18.05,13.23-27.4a1,1,0,0,0,.76-1l0,0,.51-1,0,0,.52-1,0,0c1.67-3.14,3.47-6.21,5-9.43,1.24-2.66,3.3-5,3.53-8.09h0l.51-.52,0,0c.6-.25.61-.74.54-1.27.64-1.05,1.31-2.07,1.92-3.13,2.45-4.25,5.28-8.3,6.57-13.13l0,0c.69-.13.42-.69.49-1.09l4-14.94v0c.69-.43.4-1.17.53-1.78,1.56-4.65,3.71-9.14,3.91-14.17,7.54-26.46,15-53,22.68-79.36,2.68-9.2,7.6-17.53,11.78-26.11,24.46-50.12,45.78-101.64,67.64-152.91,8.31-19.48,19-37.77,28.54-56.61C617.23-30.43,628-50.73,638.57-71.11c4.26-8.2,8.23-16.56,12.85-24.55,3.07-5.34,8.14-9.18,12.2-13.8,3.52-4,7.27-7.79,10.92-11.68,2-2.09,3.58-2.3,5.29.45,13.79,22.3,27.69,44.51,41.46,66.82,8.75,14.19,16,29.2,23.94,43.86q35.6,65.9,71,131.9c4,7.43,5.31,15.71,7.7,23.64,9.81,32.56,18.74,65.41,29.14,97.78,7.15,22.23,16.19,43.85,24.4,65.74,9.69,25.86,19.9,51.54,28.88,77.64,5.35,15.53,8.81,31.72,13.06,47.62q8.86,33.13,17.67,66.29c.22.84.22,1.87,1.25,2.31-1,.57-.76,1.13,0,1.67,3.27,10.38,6.52,20.77,9.83,31.14,3.22,10.14,6.69,20.21,9.7,30.41,1.8,6.08.28,12.17-1.09,18.2-4.18,18.39-8.09,36.85-12.54,55.17-1.43,5.9-5.64,10.69-8.63,16-6.07,10.7-12.32,21.3-18.5,31.93a10.94,10.94,0,0,1-.89,1.17c-.86.12-1.38.53-1.26,1.48h0c-3.42,2.67-5.65,6.28-7.76,10-.79.1-.91.62-.78,1.28l0,.2-.18,0c-1.24-.35-1.48.82-2.08,1.41-2.4,2.37-3.87,5.59-6.79,7.5l-1-1.41c.49-.67,1-1.35,1.48-2q8.34-10.39,16.71-20.79a1.43,1.43,0,0,0,1.19-1.66l-59.81-26.88c.93-.89,1.49-1.48,2.11-2l41-33.86,56.4-46.58c1.42-1.17,2.44-2.46,1.42-4.41-3.18-10-6.31-20.08-9.55-30.09-3.57-11-7.24-22-10.87-33,0-1.26.14-2.54-1.23-3.27.49-1.12-.12-2.14-.39-3.15q-13.44-50.49-27-101c-.91-3.39-1.08-7.06-3.26-10.05.88-1.15.42-2.1-.46-3-.38-1.27-.7-2.56-1.16-3.8q-20-53.49-40.12-107c-3.65-9.72-7.43-19.39-11.14-29.09a3.87,3.87,0,0,0-1-3c-.14-.57-.24-1.15-.41-1.7q-12.33-41.73-24.68-83.45c-2.62-8.84-5.33-17.64-8-26.46-.23-2.65-.64-5.23-2.32-7.43a21.69,21.69,0,0,0-.93-2.3Q773,46.41,731.66-30.32c-2.14-4-3.72-8.28-6.83-11.68-.41-2.38-1-4.67-3.12-6.18a23.07,23.07,0,0,0-1.16-2.46q-11.13-18-22.3-36-10-16-20.11-32c-.17-.69-.16-1.49-1.12-1.87a17.27,17.27,0,0,0-4.69,5.49l-.68.56,0,0c-7.13,8.32-16.57,14.76-20.75,25.49-.77,0-.88.42-.76,1l0,0c-1.13.21-1.19,1.29-1.59,2C643.84-76.75,639-67.56,635-58c-.65.06-.8.47-.76,1l0,0c-.53.16-.59.55-.51,1v0c-.57.24-.42.49,0,.75l-.49,1c-1.16.12-1.32,1.17-1.72,1.94Q624-38.06,616.66-23.78,600.68,7.1,584.74,38a7.26,7.26,0,0,0-1.68,4,7.44,7.44,0,0,0-.52.85q-20.92,48.83-41.82,97.66c-.25.58-.76,1.18,0,1.74l-.5,1c-1,.15-1,1.06-1.27,1.77-2.15,3.4-3.2,7.29-5,10.87-6.35,12.33-12.24,24.92-18.1,37.49-1.63,3.5-3.92,6.75-4.56,10.67v0c-.67.08-.63.53-.51,1v0c-.65.1-.61.54-.51,1v0c-.63.1-.6.55-.51,1v0c-.61.11-.59.55-.51,1l0,0c-.6.13-.59.57-.52,1l0,0c-.56.15-.56.58-.53,1l0,0c-.56.27-.55.78-.53,1.29l-5.67,12.63c-1.32.53-.82,1.79-1.1,2.74-3.69,13-7.48,26-11,39.09-1.63,6-3.83,11.84-4.69,18-.3.85-.59,1.69-.91,2.53-1.64,4.3-3.29,8.59-3.63,13.24a94.25,94.25,0,0,0-4.42,16v0c-.7.32-.55.94-.52,1.52v0c-.7.43-.43,1.16-.54,1.78-1.81,5.34-4,10.56-4.54,16.26-.29.79-.59,1.57-.88,2.35s-.48,1.39-.71,2.08c-.39.64-.82,1.25-1.15,1.91q-16.37,32.21-32.68,64.43c-1,2.05-2.59,3.87-2.93,6.25a8.25,8.25,0,0,0-2.63,4.74c-.46.48-.91,1-1.38,1.43l-36,36.17c-.88.31-1.35.85-1.06,1.84a19.64,19.64,0,0,0-1.25,2.12q-20.25,46.08-40.46,92.17c-.58.94-1.44,1.76-1.18,3-.68,4.35-1.38,8.7-2,13.05-3.93,25.85-7.9,51.7-11.75,77.57-1.32,8.86-3.12,17.65-3.76,26.61a3.17,3.17,0,0,0-.27,3.24c.53.93,1,1.87,1.59,2.78,2.29,3.71,5.35,6.92,7.13,11l.55.74,0,0c-.08.48,0,.88.53,1l0,0,.52.53,0,0c-.12.49,0,.89.52,1l0,0,.52.52,0,0c-.17.52,0,.88.52,1v0a1.25,1.25,0,0,0,1,1.52v-.06a3.81,3.81,0,0,0,.29,1.15q7.29,11.63,14.62,23.23c-.38.43-.65.85.1,1.18l0,0a21.38,21.38,0,0,0,.47,2.41Q368.14,752,377.46,782c-.21,1.34.88,1.47,1.71,1.84,6.06,3.46,12.09,6.94,18.17,10.37,7,3.94,14,7.83,21,11.74l0,0,1,.8q2.86,2.15,5.71,4.31,5.61,7,11.22,14l39.94,49.52a2.08,2.08,0,0,0,1.52,1.89c6.37,6.9,12.71,13.83,19.11,20.71q14.17,15.24,28.42,30.43l1.33,1.94A11.32,11.32,0,0,0,527,931q15.12,35.4,30.25,70.78l.5.74,0,0c0,.43-.2,1,.53,1l0,0c.2,3.58,2.42,6.28,4,9.26,3.71,10.53,8.38,20.66,12.93,30.84.07.34.15.68.36,1.64,1.3-6.07,2.71-11.43,3.19-17a2.63,2.63,0,0,0,.48-2.26l0,0a4.62,4.62,0,0,0,.51-1q14.73-68,29.37-136.07c.61-2.81,2.19-5.58,1.15-8.64a2.94,2.94,0,0,0,1.42-3.26c1-4.35,2-8.68,2.85-13.06.5-2.7,1.73-5.3,1.25-8.15a2.43,2.43,0,0,0,.94-2.84l0,.06c.62-.12.47-.59.44-1q5.4-25.07,10.8-50.13,5.46-25.44,10.89-50.88c1-1.94,1.15-4.08,1.38-6.19q3.57-16.65,7.15-33.28a17.5,17.5,0,0,0,1.45-7c1.22-5.42,2.49-10.82,3.66-16.25q4.89-22.66,9.72-45.33a3.78,3.78,0,0,0,.62-2.83q3-13.82,6-27.63a5.78,5.78,0,0,0,.9-3.73c1-5.11,2.66-10.08,3-15.31v0l.48-.83a5.85,5.85,0,0,0,.69-3.53l1.8-8,1-2.59c3.17.13.57,3.05,1.91,4-.09.84-.18,1.68-.28,2.52,0,1,0,2,0,3q-.78,18.74-1.57,37.49c-.92,1.48-.44,3.07-.37,4.63,0,1.07,0,2.15,0,3.23,0,.8,0,1.6-.05,2.4l0,1.63a1.48,1.48,0,0,0-.11,2.17,14.58,14.58,0,0,0-.3,1.71q-1.54,35.41-3.06,70.83-.87,20.7-1.72,41.4-1.16,27.79-2.32,55.6a4.35,4.35,0,0,0-.35,3.22q-.59,15.91-1.15,31.84a3,3,0,0,0-.35,2.7q-.62,16.08-1.22,32.16a231.36,231.36,0,0,0-1.16,23.55q-.15,5.48-.28,11a7.18,7.18,0,0,0-.38,4.34c-.74,18-1.45,35.94-2.23,53.91q-2.12,48-4.29,96.07-1.26,28.19-2.46,56.39c-.17,4.13-.13,8.26-.19,12.4a2.54,2.54,0,0,0,0,3l1.29-1.12a6.72,6.72,0,0,0,1.42-.36q14.82-7.08,29.61-14.2c1.31-1,1.58-2.43,1.8-3.9l8.94-19.61a9.09,9.09,0,0,0,1.44-5.17c.34-.92.71-1.84,1-2.77,3.94-11.36,5.83-23.41,11.56-34.18,5.26-9.92,10.35-19.92,15.52-29.89.14-.15.27-.3.4-.46l0,0a5.48,5.48,0,0,0,2.55-3.33l.45-.7,0,0a9.92,9.92,0,0,0,1.48-1.24c9.13-11.1,18.3-22.18,27.31-33.37,3.53-4.39,7.59-8.36,10.41-13.3a2.26,2.26,0,0,0,2.53-1.58c.33,0,.71.06,1-.08q14.28-7.45,28.56-14.95a2.19,2.19,0,0,0,2.3-1.45l11.4-7.94c1.07-1.63.67-3.27.07-4.92a11.52,11.52,0,0,0,.35-1.9q.4-39.27.75-78.53c0-.88.3-1.87-.68-2.49.83-1.9,1.47-3.83.92-6L818,757.71V755.2q.48-31.5.94-63c0-1.29.41-2.66-.37-3.89a27.78,27.78,0,0,0,.4-7.67q.24-18.06.49-36.12c0-1.09,0-2.19,0-3.28q.24-17.85.47-35.71c0-.74,0-1.48,0-2.22q.22-14.17.46-28.34V562.33c1.32-.34,2-.37,2.6.27l-.5,40c0,.77,0,1.53,0,2.3q-.24,18.79-.49,37.58a5.37,5.37,0,0,0,0,3.15q-.21,15.4-.44,30.79c0,1.29,0,2.57,0,3.86,0,.93,0,1.87,0,2.81-.42,1-.89,1.9-.07,2.88l-.87,67.6c0,.85,0,1.7,0,2.54-.15,7.41-.36,14.81-.45,22.21q-.37,34.69-.67,69.38c0,1-.4,2.19.56,3.07a5.24,5.24,0,0,0-.6,5.27c-.1,1.91-.27,3.81-.29,5.72q-.4,37.53-.78,75.06c0,4.32-.25,8.64-.21,13,0,1.61-.87,2.4-2,3.21-.47,0-1,0-1.14.58l0,0-.51.51h0c-3.12.9-5.06,3.39-7.31,5.45-.74,0-1.33.1-1.21,1.06l0,0a3,3,0,0,0-1.18.09c-8.34,4.32-16.73,8.55-25,13.06-3.1,1.7-6.77,2.56-9.14,5.44-9.67,11.76-18.9,23.91-29,35.24-11.26,12.58-19,27.15-26.11,42.2l0,0-.55,1.25a13.05,13.05,0,0,0-3.46,6.28v0l-.52.78c-3.62,11.81-7,23.71-11,35.38-3.07,8.91-7.29,17.39-11.51,25.83a1.32,1.32,0,0,0-1.49.8l-27.74,13c-2.46,1.15-4.88,2.59-7.78,1.53,1.09-1.65.17-3.07-.51-4.53,1.37-.28.91-1.41.94-2.22.12-2.75.12-5.5.24-8.25q2.18-50.27,4.38-100.53.82-19.08,1.63-38.17,1.41-32.69,2.81-65.36a9,9,0,0,0,.38-4.56l1-26.53c.4-3.2.92-6.39.52-9.64l.13-6c1.1-4.05.32-8.21.71-12.3q.32-7.42.65-14.83l0-2.52q.56-15.55,1.1-31.1a3.69,3.69,0,0,0,.4-3.18l7.47-171.33.12-5.47c.19-3.2.39-6.39.58-9.58a9.72,9.72,0,0,0,.24-5V593.52l.84,0-4.17,19.35a6.23,6.23,0,0,0-.82,3.56l-4.62,22.18a6.47,6.47,0,0,0-.91,3.65q-1.17,5.49-2.33,11l-12.84,60a17.48,17.48,0,0,0-1.44,7.62c-2.81,10.48-4.85,21.12-7,31.74-1.24,1.78-1,3.83-1.08,5.83a19.93,19.93,0,0,0-.83,2.31q-3.43,15.82-6.83,31.64-6.12,28.49-12.22,57a6,6,0,0,0-.89,3.47Q617,863.9,614.66,875.1c-.46.91-1.21,1.76-.65,2.9-.25.88-.56,1.74-.75,2.63q-10.92,50.52-21.82,101-5.69,26.42-11.35,52.84c-.24.94-.49,1.88-.74,2.82-.21,1.4-.41,2.8-.62,4.19l0,0-.48,1.22c-.63,1.79-1.37,3.57-1.07,5.54-.33,1-.67,2-1.18,3.53-7.57-17.54-14.95-34.61-22.32-51.68-.54-3.86-2.74-7-4.47-10.33,0-.75-.16-1.37-1-1.53l0,0c.45-1.25-.31-2.27-.74-3.31q-7-16.63-14.14-33.26c-5.05-11.88-9.91-23.5-19.41-33.17-20.84-21.22-41.36-42.82-59.26-66.71-.46-.61-.8-1.55-1.89-1.3h0c.3-1.32-.6-1.92-1.51-2.52l0,0-.52-.52,0,0-.51-.53,0,0c-.18-.44-.35-.87-.53-1.3a29.47,29.47,0,0,1-4.12-5.11,152.8,152.8,0,0,0-13.87-17.1h0l-.51-.52v0C431.4,822,430.87,821.55,429.9,821.52Z" transform="translate(-328.51 122.73)"/><path class="cls-2" d="M577.2,1048.26c-.3-2,.44-3.75,1.07-5.54.4-.31.86-.6.48-1.22l0,0c1.32-.29,1.3-1.59,2-2.41l-1.41-1.78c.25-.94.5-1.88.74-2.82l1.92,2.78q40-60.12,79.5-119.64a9,9,0,0,1-.38,4.56c-.41.51-.87,1-1.23,1.54q-34.11,51.33-68.2,102.68c-2.8,4.22-5.58,8.45-8.39,12.7.48.73.88,1.36,1.3,2q22.25,32.1,44.5,64.19c7.31,10.51,14.68,21,22,31.45.68,1.46,1.6,2.88.51,4.53q-24.25-34.92-48.52-69.85c-7-10-13.92-20.06-21.09-30.39Z" transform="translate(-328.51 122.73)"/><path class="cls-2" d="M467.29,337c-1.29,4.83-4.12,8.88-6.57,13.13-.61,1.06-1.28,2.08-1.92,3.13l-.54,1.27,0,0-.51.52h0c-4.28,5.13-6.43,11.31-8.51,17.52l0,0c-.68.09-.63.55-.52,1l0,0c-.61.12-.59.56-.51,1l0,0-.76,1c-4,9.35-8.6,18.37-13.23,27.4-.38.76-.46,1.82-1.57,2.07a26.76,26.76,0,0,1,.88-2.8q6.13-14.29,12.32-28.57a.74.74,0,0,0,.14-1.14l-.54.78c-2.27,3.38-4.55,6.74-6.79,10.13q-19.35,29.3-38.68,58.6c-2.57,3.72-4.92,7.64-9,10q15-22.71,29.91-45.43c10.07-15.27,20.46-30.35,30.19-45.84,5.75-9.15,9-19.62,13.46-29.44,4-8.7,7.73-17.48,11.59-26.22-.21,5-2.36,9.52-3.92,14.17a1.93,1.93,0,0,0-.53,1.78v0c-2.83,4.39-4.38,9.37-6.5,14.08-1.61,3.6-3.62,7.06-4.45,11l-.36.08.16.26.16-.39Z" transform="translate(-328.51 122.73)"/><path class="cls-2" d="M549.23,989.78c1.73,3.33,3.93,6.47,4.47,10.33q-58.49-84.36-117-168.72c-1.76-2.54-4-4.81-5-7.87a152.8,152.8,0,0,1,13.87,17.1,29.47,29.47,0,0,0,4.12,5.11c-.39.66,0,1,.53,1.3l0,0,.51.53,0,0c0,.37,0,.68.52.52l0,0a2.76,2.76,0,0,0,1.51,2.52h0a22.2,22.2,0,0,0,1.17,2.14q37.44,54,74.92,108.08c6.39,9.22,12.89,18.36,19.35,27.53l0,0Z" transform="translate(-328.51 122.73)"/><path class="cls-2" d="M906.24,701.52l.18,0,0-.2.78-1.28c2.11-3.69,4.34-7.3,7.76-10-.53,2.58-2.24,4.57-3.51,6.77q-46,79.63-92.08,159.22a5.24,5.24,0,0,1,.6-5.27q30-51.81,60-103.62Q893.18,724.35,906.24,701.52Z" transform="translate(-328.51 122.73)"/><path class="cls-2" d="M807.26,959.47c2.25-2.06,4.19-4.55,7.31-5.45-2.18,3.85-5.62,6.61-8.57,9.77q-46.21,49.4-92.53,98.69a18.38,18.38,0,0,1-1.84,1.55,13.05,13.05,0,0,1,3.46-6.28c.3-.37.86-.62.55-1.25l0,0c1,.15,1.37-.79,1.89-1.34Q745.76,1025.11,774,995q16.1-17.21,32.11-34.47l0,0Z" transform="translate(-328.51 122.73)"/><path class="cls-2" d="M687.16,1126.79a1.32,1.32,0,0,1,1.49-.8l-1.15,2.51C687.32,1127.58,687.24,1127.19,687.16,1126.79Z" transform="translate(-328.51 122.73)"/><path class="cls-2" d="M938.36,504.58c-.8-.54-1.06-1.1,0-1.67l1.25-.53Z" transform="translate(-328.51 122.73)"/><path class="cls-2" d="M429.9,821.52c1,0,1.5.48,1.4,1.51C430.44,822.89,430.36,822,429.9,821.52Z" transform="translate(-328.51 122.73)"/><path class="cls-2" d="M915,690c-.12-.95.4-1.36,1.26-1.48C915.83,689.05,915.87,689.93,915,690Z" transform="translate(-328.51 122.73)"/><path class="cls-2" d="M815,953.54c.18-.6.67-.57,1.14-.58C815.82,953.18,815.69,953.86,815,953.54Z" transform="translate(-328.51 122.73)"/><path class="cls-2" d="M814.56,954l.51-.51C815.24,954,815.06,954.19,814.56,954Z" transform="translate(-328.51 122.73)"/><path class="cls-2" d="M431.29,823l.51.52C431.31,823.67,431.28,823.36,431.29,823Z" transform="translate(-328.51 122.73)"/><path class="cls-2" d="M711.12,1064.78l.52-.78Z" transform="translate(-328.51 122.73)"/><path class="cls-2" d="M676,639.56a1.48,1.48,0,0,1,.11-2.17l2.81-.64a1.69,1.69,0,0,0-.84-1.87l-2,.88c0-.8,0-1.6.05-2.4,2.5-1,.33-2.15,0-3.23-.07-1.56-.55-3.15.37-4.63l2.82,6.35,13.61-6.78-12.64-38.83L678.2,588c0-1,0-2,0-3,1.39-.7,2.11-1.47.28-2.52-1.34-.91,1.26-3.83-1.91-4l-1,2.59c-6.07-3.35-12.81-2.09-19.64-3.28,3,6.76,5.65,13,8.49,19.47l9.35-8.21a5.85,5.85,0,0,1-.69,3.53c-.31.19-.82.26-.48.83v0c-2.87,1.33-4.74,3.86-7.4,5.92,1.49,3.18,2.94,6.29,4.4,9.39a5.78,5.78,0,0,1-.9,3.73c-1.66-3.84-3.31-7.68-5-11.55a4.83,4.83,0,0,0-.76.42c-4.76,4.13-9.25,8.65-14.35,12.32-6,4.34-9.55,9.24-7,16.91a3.7,3.7,0,0,1,0,.75c.47,4.56.94,9.13,1.44,14,6.77-2.15,13.45-2.7,19.62-5.25a3.78,3.78,0,0,1-.62,2.83l-18.43,8.87c1.71,17.82,3.38,35.27,5,52.71a17.5,17.5,0,0,1-1.45,7c-1.85-19.42-3.69-38.85-5.56-58.58l-15.87,7.88c.07.67.08,1.08.15,1.48q4.93,29.51,9.91,59c1.33,7.84,2.81,15.66,4.22,23.49-.23,2.11-.34,4.25-1.38,6.19-5-29.63-9.93-59.26-14.94-89.14-4.6,2.3-8.74,4.42-12.93,6.43-1.16.55-1.18,1.41-1.27,2.42q-1.9,22-3.86,44Q599.5,787,593.25,859.2c-.36,4.24-.68,8.47-1.07,13.31,7.69-6.35,14.85-12.28,22.05-18.16.71-.58,1.21-1.66,2.43-1.42a2.43,2.43,0,0,1-.94,2.84q-11.18,9.21-22.33,18.41c-.62.51-1.46,1.18-1.53,1.85-.48,4.26-.78,8.54-1.17,13.3L611.62,877a2.94,2.94,0,0,1-1.42,3.26c-6,3.55-12,7.11-18.06,10.62a3.11,3.11,0,0,0-1.89,2.64c-.8,10-1.68,19.9-2.54,29.85-2.44,28.1-4.93,56.2-7.28,84.31-.51,6.11-1.53,12.18-1.26,18.34l0,0c-.86.6-.33,1.5-.48,2.26-.48,5.54-1.89,10.9-3.19,17-.21-1-.29-1.3-.36-1.64a21.38,21.38,0,0,0,.41-3.7c-.16-2.69,1.6-5.59,0-8-4.28-6.49-8.89-12.77-13.36-19.13-1.58-3-3.8-5.68-4-9.26,5.93,8.36,11.87,16.71,18.24,25.68,3.95-45.67,7.85-90.59,11.78-136L526.6,929.56l-1.33-1.94q31.23-25.71,62.49-51.38a6.27,6.27,0,0,0,2.45-4.85c.51-7.06,1.16-14.1,1.77-21.15q3.62-41.79,7.23-83.59,3.38-38.94,6.77-77.87c.53-6.07,1-12.16,1.6-19-4.66,3.1-9.5,3.9-12.4,8.83-24.6,41.8-49.48,83.44-74.25,125.14q-21.61,36.38-43.19,72.76a2.08,2.08,0,0,1-1.52-1.89,17.26,17.26,0,0,0,1-1.41q56.57-95.13,113.11-190.29l3.61-6.08c-1.81.87-2.62,1.24-3.41,1.63q-17.4,8.67-34.81,17.37a17.41,17.41,0,0,0-3.49,2.33q-14.32,12.43-28.6,25-48.88,42.7-97.75,85.43c-.75.66-2,1.22-.83,2.55q-2.85-2.16-5.71-4.31c-.18-.46-.11-1.25-1-.8l0,0c.63-1.11-.45-1.62-.89-2.26-5.21-7.6-10.47-15.15-15.71-22.72l-4.45-6.42-18.15,9.29c-.83-.37-1.92-.5-1.71-1.84L396,773.1a7,7,0,0,0-.42-1q-18-26-36-51.87c-.26-.37-.38-1.25-1.23-.77l0,0c.53-.44.06-.8-.1-1.18Q351,706.7,343.7,695.08a3.81,3.81,0,0,1-.29-1.15c1,.06,1.19,1,1.63,1.67,4.06,5.78,8.08,11.59,12.13,17.41.59-.12,1.08-.2,1.56-.32,74.41-17.64,148.79-35.42,223.27-52.8,10.07-2.35,19.2-5.41,26.19-13.35a5.5,5.5,0,0,0,1.74-3.37c.84-10.2,1.32-20.47,2.79-30.58,1.91-13.15-2-25.52-3.63-38.28-1.19-.11-2.1-.22-3-.29l-41.55-3.28Q516.29,566.89,468,563a4.93,4.93,0,0,0-3.81,1.33c-8.91,7.38-17.88,14.7-26.82,22L330.64,674a3.17,3.17,0,0,1,.27-3.24c.61-.41,1.26-.77,1.83-1.23L453.37,570.6c3-2.49,6.05-5,9.59-7.94l-114.5-9.11c-.26-1.26.6-2.08,1.18-3,.81-.19,1.63-.32,2.42-.56l126-37.1c8.19-2.42,16.37-4.87,25.18-7.48L391.35,456.24c-.29-1,.18-1.53,1.06-1.84q56.13,24.69,112.24,49.42a5.16,5.16,0,0,0,3.82.09c13.07-3.86,26.15-7.68,39.21-11.57a9,9,0,0,0,3-1.65c12.37-10.1,24.7-20.27,37.1-30.36a3.5,3.5,0,0,0,1.48-3.78c-2.46-14.27-4.82-28.55-7.22-42.82a6.48,6.48,0,0,0-3.2-4.74c-9.89-6.15-19.69-12.44-29.52-18.68l-45.6-28.92-74,55.41a8.25,8.25,0,0,1,2.63-4.74c.56-.35,1.15-.67,1.67-1.06q24.58-18.39,49.16-36.81c6.16-4.61,12.3-9.23,18.65-14l-32.72-20.72c.23-.69.47-1.38.71-2.08l33.77,21.52,41.39-31c-9.23-21.21-18.32-42.11-27.6-63.46L470.74,335c.52-5.7,2.73-10.92,4.54-16.26a1.91,1.91,0,0,0,.54-1.78v0c.61-.36.94-.81.52-1.52v0c.66,0,.73-.57.91-1q15.07-35.46,30.16-70.92a2.59,2.59,0,0,0-.73-3.19c-8.71,19.85-17.31,39.48-25.92,59.11.34-4.65,2-8.94,3.63-13.24.32-.84.61-1.68.91-2.53,5.26-11.88,10-24,16-35.56,4-7.67,4.55-14.42-.26-21.56.28-1-.22-2.21,1.1-2.74,1.51,3.5,3,7,4.75,11,10.34-23.63,20.28-46.66,30.55-69.54a16.33,16.33,0,0,0,.52-12.36c-.49.82-.89,1.42-1.22,2.05-5.21,10.22-10.35,20.47-15.64,30.63-3.21,6.15-6,12.54-9.77,18.36.64-3.92,2.93-7.17,4.56-10.67,5.86-12.57,11.75-25.16,18.1-37.49,1.85-3.58,2.9-7.47,5-10.87,1-.17,1-1.06,1.27-1.77l.5-1a12.42,12.42,0,0,0,.81-1.23q20.34-39.81,40.72-79.6a14.41,14.41,0,0,0,1.85-9c-.5-3.45-.73-6.94-1.08-10.41a7.26,7.26,0,0,1,1.68-4c.86,4,1.72,8.1,2.67,12.59.53-1.06.84-1.63,1.11-2.23Q604.57,11.7,620.6-25c4.25-9.74,8.4-19.53,12.6-29.29l.49-1,0-.75v0c.65-.1.73-.49.51-1l0,0c.25-.34.5-.69.76-1,4.06-9.56,8.89-18.75,13.67-27.95.4-.75.46-1.83,1.59-2a25.55,25.55,0,0,1-.78,2.58C645.28-75.62,641.09-65.84,637-56Q626-30.09,615-4.14c-.26.35-.61.7,0,1.18l.47-.8c.21-.36.44-.71.63-1.08q23.7-46.36,47.36-92.75c2.83-5.58,6.18-10.93,8.23-16.91l0,0,.68-.56a17.27,17.27,0,0,1,4.69-5.49c1,.38,1,1.18,1.12,1.87q-2.49,28.23-5,56.45Q669.46-20,665.82,22.11c-.43,5.05-.83,10.09-1.34,16.25l57.23-86.54c2.11,1.51,2.71,3.8,3.12,6.18,5.82,73.81,11.65,147.61,17.53,222.07l72.91-54.61c1.68,2.2,2.09,4.78,2.32,7.43-2.61,48.16-5.22,96.32-7.88,145.33l41-33.72a3.87,3.87,0,0,1,1,3c-14.11,23.73-28.17,47.49-42.38,71.16a16.53,16.53,0,0,0-2.21,8q-1.95,36.75-3.93,73.5c-.3,5.59-.54,11.19-.83,17.1,1.57-.44,2.68-.74,3.78-1.06l98-28.84c.88.88,1.34,1.83.46,3q-52.1,45.51-104.19,91a4.16,4.16,0,0,0-1.8,3.08q-1.45,28.55-3,57.09a3.84,3.84,0,0,0,2.13,4c7.57,4.69,15.07,9.48,22.55,14.3a3.21,3.21,0,0,0,3.64.22q55.66-27.79,111.38-55.53c1.37.73,1.26,2,1.23,3.27a11.35,11.35,0,0,0-1,1.12q-25.82,38.86-51.59,77.73c-.28.41-.88.79-.42,1.64l73.39-17.37c1,1.95,0,3.24-1.42,4.41L899,621.84,858,655.7c-.62.51-1.18,1.1-2.11,2l59.81,26.88a1.43,1.43,0,0,1-1.19,1.66q-29.16-12.83-58.3-25.69c-1.89-.84-3.15-.81-4.82.6-9.91,8.34-19.94,16.55-29.93,24.8-.82-1-.35-1.93.07-2.88l29.94-24.53-11.92-5.22-18,26.94c0-1.29,0-2.57,0-3.86l16.11-23.94L822,645.6a5.37,5.37,0,0,1,0-3.15l17.11,7.7L878,591.63l-55.48,13.24c0-.77,0-1.53,0-2.3,18.27-4.3,36.53-8.63,54.82-12.87a5.51,5.51,0,0,0,3.67-2.58q24.33-36.72,48.73-73.39c1.2-1.82,2.37-3.66,4.06-6.28L823.05,562.6c-.58-.64-1.28-.61-2.6-.27V575c-2.06,9.76-4.11,19.51-6.25,29.68L820,603.3c0,.74,0,1.48,0,2.22-2.13.8-5.61-.19-6.24,2.47-2.2,9.27-3.85,18.68-5.74,28.22l11.51,5c0,1.09,0,2.19,0,3.28l-12.11-5.38c-4.45,22.21-8.78,43.87-13.31,66.54,9.89-7.85,19.41-14.44,24.93-25a27.78,27.78,0,0,1-.4,7.67,32.64,32.64,0,0,0-8.68,9.48c-5.7,8.88-11.49,17.71-17.48,26.4-4.48,6.5-5.44,13.77-5.17,21.31.21,5.72.85,11.43,1.32,17.14.25,3,.55,6,.87,9.43L818,755.2c0,.84,0,1.67,0,2.51q-13.65,8-27.33,16c-1.1.64-1.12,1.44-1,2.51q4,50.38,8,100.78c.26,3.3.6,6.59,1,10.65,6.4-11,12.36-21.16,18.31-31.35.55,2.12-.09,4.05-.92,6q-8.4,14.28-16.78,28.58a1.35,1.35,0,0,0-.25.69c.67,6.92-.26,14.12,2.39,20.69,4.48,11.09,9.45,22,14.22,33,.6,1.65,1,3.29-.07,4.92q-7-16.14-14.06-32.28l-.54.13q1.61,20,3.2,40.09a2.19,2.19,0,0,1-2.3,1.45l-15.15-46.94c-4.27,7.35-8.14,14-12,20.7a3.26,3.26,0,0,0-.3,1.44l-2.1,39.83a2.26,2.26,0,0,1-2.53,1.58l-5-25.46c-.85,1.34-1.3,2-1.71,2.73-8.53,14.73-17,29.52-25.62,44.18-4.85,8.21-5.11,17.5-6.85,26.46l0,0-.45.7a5.48,5.48,0,0,1-2.55,3.33c1-5.93,2.11-11.85,3.3-18.57-.77,1-1.09,1.36-1.32,1.76q-16.93,29.22-33.86,58.47A3.34,3.34,0,0,0,695,1072q2.06,11.64,4.08,23.29a9.09,9.09,0,0,1-1.44,5.17c-1.43-8.57-2.87-17.14-4.43-26.46-2.45,4.22-4.47,7.81-6.61,11.31a6.44,6.44,0,0,0-1,4.24c1.05,10.17,2.05,20.34,3.06,30.52-.22,1.47-.49,2.93-1.8,3.9-1-10.91-2.07-21.82-3.18-33.64l-27.85,48.2-1.29,1.12a2.54,2.54,0,0,1,0-3q13.75-23.78,27.54-47.52a7.42,7.42,0,0,0,1.06-4.71c-1.42-14.5-2.76-29-4.15-43.5Q673.58,984,668.07,927.08c-.39-4.07-.62-8.18-1.92-12.51l-2.41,3.3a7.18,7.18,0,0,1,.38-4.34,4.8,4.8,0,0,0,1.26-5.16c-.48-1.89-.67-3.87-1-5.8A231.36,231.36,0,0,1,665.56,879c.86,9.24,1.72,18.48,2.64,28.3.87-1.18,1.41-1.87,1.89-2.59L689.83,875l44.56-67.22c0-.2.09-.39.13-.59l-.56.2a5.7,5.7,0,0,0-.92.37l-66.26,39.13a3,3,0,0,1,.35-2.7q33.43-19.68,66.89-39.33c1.46-.86,1.29-1.89,1-3.14q-1.83-9-3.63-18.11c-1.32-6.55-2.65-13.09-4-20l-59.11,48.72a4.35,4.35,0,0,1,.35-3.22,19.2,19.2,0,0,0,1.86-1.22c17.58-14.5,35.09-29.09,52.79-43.45,2.85-2.3,3.79-4.34,2.85-7.9-2.19-8.26-2.38-17.08-5.71-25-9.55-22.66-19.52-45.14-29.33-67.69l-11-25.17ZM539.89,919.16c.12-.2.23-.41.34-.61l-.71.23-.34.5ZM806.77,698.7l.16-.51-.41.29a3.51,3.51,0,0,0-.41.42C806.46,699.3,806.58,698.9,806.77,698.7ZM567.09,95.89l-.51,1c-.23.43-.47.86-.71,1.29-8,15.51-15.83,31.09-24,46.5-1.78,3.37-1.5,6.11.36,9.53l24.13-55.58.65-1.38c.14-.35.28-.69.41-1s.29-.54.43-.81l1.41-3-.48-.21c-.47.92-.93,1.84-1.39,2.77Zm-9.33,28.64c-.64.09-.54.56-.52,1-.41.22-.75.45,0,.94v-1c.65-.08.5-.57.5-1,.39-.22.76-.44,0-.93ZM556.23,128c-.65.09-.5.58-.42.95-.5.29-.84.54-.15,1a3.83,3.83,0,0,0,.07-.94c.64-.1.5-.58.5-1,.42-.23.73-.48,0-1ZM716.61,698c-.05-.46-.09-.92-.15-1.45a1,1,0,0,0,.15,1.45l.18,1.77c.78,3.91,1.72,7.79,2.32,11.73,2.32,15.48,6.74,30.26,14.46,44a2.26,2.26,0,0,0,1.54-1.32l-17.68-54.39ZM653.86,571.8l-.54,0,.28.29a2.83,2.83,0,0,0,1.26,2.33l1-1.88ZM632.68,440.48a1.33,1.33,0,0,0,.09.21s.1,0,.16,0l-.29-.16c-.12-2.69-1.38-5-2.23-7.91C629.46,439.1,629.46,439.1,632.68,440.48ZM743.24,799.15l5.39-3c-.7-1.22-.7-2.46-1.93-3.25l-3.69,6-.33.33ZM726.07,745l-.15-1.25c-.26.71-.32,1.06.19,1.22.32,4.91,1.76,9.59,2.68,14.77l3-2.59ZM600.19,671c7.14-1.82,9.6-6.07,8.12-14.43-2.6,5.06-6,9.36-8.11,14.43-.32,0-.47,0-.22.35Zm22.56-37.43q7.46-6.42,14.91-12.85c.36-.31.85-.8.82-1.18-.29-3.63-.68-7.26-1.13-11.76l-15,25.47-.1.57ZM556.36,489.65,593,479c-1-6-2-11.72-3-17.93l-34.08,28.1-1.15,1ZM584.72,413l-.26-.31.11.5c2.77,6.56,5.51,13.14,8.31,19.69,2.43,5.66,4.94,11.29,7.49,17.12l18.8-15.45ZM477.59,320.81l38-57.4c.42-.63.85-1.21.48-2.05-2.32-5.28-4.61-10.56-7.11-16.29-3.83,9-7.45,17.44-11,25.92q-10.44,24.67-20.84,49.36c-.27.35-.58.69-.06,1.18Zm195.93,636-.57-3.62c-.16,1.24-.56,2.49.11,3.65.91,9.94,1.79,19.89,2.74,29.83q3.65,38.26,7.36,76.53c.64,6.62,1.31,13.23,2,20.51,2.54-4.39,4.68-8.14,6.88-11.85a3.62,3.62,0,0,0,.4-2.63q-2.09-12-4.11-24.1Q680.93,1001,673.52,956.81Zm-95-550.61.55.07-.29-.32c-.27-.77-.51-1.57-.83-2.32Q566.37,377,554.78,350.36c-2.94-6.75-5.87-13.5-8.92-20.52C532.27,340,519,350,505.5,360.08c13.08,8.29,25.83,16.41,38.61,24.48Q561.28,395.42,578.5,406.2ZM806.89,283.35a2.88,2.88,0,0,0-.66.32q-25.29,20.76-50.62,41.48c-1.61,1.31-1.57,2.7-1.43,4.38q2,24.9,4,49.78c.49,6.07,1,12.13,1.57,18.75,15.23-25.64,30.16-50.74,45-75.86a5.28,5.28,0,0,0,.67-2.33c.64-12.05,1.23-24.11,1.84-36.16l0-.56ZM544,701.68c-.69.3-1.38.58-2,.92L420.3,763.21l-21.08,10.5,23.87,34.41c.75-.62,1.28-1,1.77-1.45q39.5-34.5,79-69,20.28-17.76,40.5-35.58l.28-.48Zm178.4-747c-1.11,1.62-1.73,2.49-2.32,3.37C702.81-15.86,685.6,10.28,668.22,36.3c-2.81,4.2-4.84,8.34-4.82,13.52,0,4.07-.66,8.13-1,12.19l-7.26,83.86q-3.63,41.79-7.27,83.6c-.65,7.41-1.26,14.83-1.93,22.69.72-.44,1-.59,1.24-.77q46-34.44,92-68.85a2.88,2.88,0,0,0,1.12-3c-.57-6.88-1.09-13.77-1.63-20.66q-3.35-42.33-6.69-84.66Q728.27,28,724.59-18.15C723.89-26.92,723.18-35.68,722.4-45.34ZM657.59,402.83c.89-.65,1.43-1,1.93-1.41Q703.74,365.15,748,329c3-2.48,3.83-4.86,3.52-8.62q-5.13-62.46-10-124.93c-.29-3.67-.66-7.32-1-11.25-.7.44-1,.6-1.25.8q-46.17,34.56-92.35,69.12a3.6,3.6,0,0,0-1.45,2.94c-1.23,14.18-2.63,28.34-3.67,42.53-.47,6.6-2.15,13.19-.84,19.86q4.8,24.36,9.69,48.71C652.94,379.54,655.22,391,657.59,402.83Zm78.85,406c-.54.67-.81,1-1,1.29q-33,49.71-66,99.39a4,4,0,0,0-.72,2.81c.44,3.64.69,7.3,1.3,10.91q8.77,52.54,17.67,105.09c2.19,13,4.37,26,6.64,39.49.59-.88.93-1.32,1.2-1.8q16.63-28.73,33.22-57.47c1.68-2.93,3.72-5.65,4.42-9.14,6-30.51,12.23-61,18.27-91.49.88-4.46,3-8.94,2.07-13.47C748,866,742.2,837.63,736.44,808.79Zm79.29-680.93c-.67.42-1,.56-1.19.74q-35.38,26.49-70.78,53a2.53,2.53,0,0,0-1.11,2.53c.74,8.71,1.41,17.42,2.1,26.14q3.68,46.29,7.35,92.6c.55,6.86,1.12,13.71,1.71,20.87a18.11,18.11,0,0,0,1.7-1q25.4-20.82,50.8-41.64a3.65,3.65,0,0,0,1.32-3q3.25-61.09,6.59-122.17C814.71,146.66,815.21,137.48,815.73,127.86ZM398,772c.86-.4,1.54-.71,2.21-1.05q72.55-36.17,145.12-72.34c2.89-1.44,6-2.45,8.52-4.63q18.72-16.34,37.41-32.71c.5-.44,1.35-.7,1.26-1.86L358.46,714.9Zm205.27-641.5a6.29,6.29,0,0,0,.68-.63Q632.68,86.42,661.39,43a5.16,5.16,0,0,0,.74-2.31q6.24-71.4,12.43-142.79c.39-4.55.74-9.09,1.19-14.72-.87,1.56-1.21,2.11-1.51,2.68-14.65,28.66-29.47,57.23-43.9,86-12.63,25.19-26.47,49.77-37.6,75.73-2.91,6.8-4.51,13.17-2,20.24a13.81,13.81,0,0,1,.44,2C595.2,89.91,599.21,110.05,603.28,130.46Zm65,326.12a11.89,11.89,0,0,0,1.43-.22q32.88-9.67,65.76-19.35a3.93,3.93,0,0,0,2.3-2.09q9.41-15.89,18.88-31.74a6.74,6.74,0,0,0,1-4.24c-1.25-15.43-2.43-30.87-3.65-46.3-.63-8-1.31-16-2-24.16a7.71,7.71,0,0,0-.94.47q-45.95,37.69-91.9,75.37a2.25,2.25,0,0,0-.83,2.57c1.15,5.46,2.21,10.93,3.3,16.4C663.88,434.36,666.09,445.43,668.31,456.58Zm35.74,176.36c4.8,41.75,20.35,80.27,32.79,120,.9-.66,1.56-1.11,2.18-1.63q20.9-17.24,41.8-34.46a4.13,4.13,0,0,0,1.79-4c-2.12-26.13-4.51-52.24-6-78.4-.43-7.44-2.85-11.46-9.88-13.34-2.87-.76-5.34-2-8.57-1.17-9.23,2.45-18.57,4.5-27.86,6.71ZM630,264.25c4.59-3.44,8.77-6.6,13-9.71.83-.61.74-1.42.81-2.23q2-23.38,4.07-46.77,3.17-36.31,6.32-72.64,2.65-30.48,5.32-60.95c.72-8.23,1.39-16.45,2.14-25.3-.63.82-.89,1.11-1.1,1.44q-27.84,42.06-55.69,84.12c-.91,1.38-.69,2.65-.41,4q8.69,43.59,17.36,87.17C624.46,236.86,627.18,250.29,630,264.25Zm-21.29,307.9c-1.11-6.65-2.25-12.94-3.17-19.27a4.45,4.45,0,0,0-3.07-3.91q-37.82-16.5-75.55-33.22a3.45,3.45,0,0,0-4.2.53q-19.32,16-38.77,31.88c-5,4.14-10.06,8.29-15.59,12.84Zm146.45-51.24c-.65.53-1.17.93-1.66,1.36C734.23,539.09,715,556,695.67,572.64c-2.73,2.36-4.1,4.45-2.63,7.92.76,1.78,0,4.1,2.56,5.23,12.86,5.65,25.65,11.45,38.46,17.22a3.41,3.41,0,0,0,3.28,0q16.71-8.41,33.49-16.7a2.22,2.22,0,0,0,1.54-2.47q-2.19-26.76-4.25-53.53a2.51,2.51,0,0,0-1.4-2.12C762.91,525.86,759.13,523.43,755.14,520.91Zm-402,30.94c6.58.51,12,.92,17.5,1.36q46.26,3.66,92.53,7.38a5.2,5.2,0,0,0,4.07-1.31q24.09-19.85,48.24-39.63l7-5.78c-5-2.2-9.53-4.15-14-6.23a6,6,0,0,0-4.53-.27q-50.55,15-101.14,29.81C386.59,541.94,370.43,546.73,353.12,551.85ZM588,295.67c6-4.49,11.7-8.77,17.41-13,.85-.64.59-1.43.51-2.26q-1.37-13.78-2.69-27.57-4.34-45.58-8.67-91.18c-.35-3.71-.79-7.41-1.24-11.59a14.88,14.88,0,0,0-1.07,1.18q-16.72,25.29-33.48,50.57a3.59,3.59,0,0,0-.2,3.5q10.1,30.93,20.14,61.88C581.79,276.56,584.85,285.93,588,295.67Zm32.54,137.39c-.68-7.26-1.14-13.81-1.94-20.31-1.06-8.65-.57-17.56-3.18-25.94-5.73-18.4-11.85-36.69-17.82-55-3.51-10.8-7-21.58-10.7-32.72-5.76,4.32-11.18,8.57-16.82,12.5-2.26,1.58-2.75,3.13-2.3,5.77q7.58,44.13,14.88,88.3c.45,2.78,1.45,4.61,4,6,3.71,2,7.18,4.49,10.77,6.76ZM557,200.43a12.13,12.13,0,0,0,1-1.06q17.22-26,34.44-52.06a3.55,3.55,0,0,0,.48-2.58q-3.15-32.8-6.26-65.61c-.39-4.16-.85-8.32-1.34-13.1a16.27,16.27,0,0,0-.85,1.46L545,160.22a3.24,3.24,0,0,0-.32,2.4C548.78,175.09,552.83,187.57,557,200.43ZM754.88,518.3c3.28-2.87,6.42-5.71,9.68-8.41a4,4,0,0,0,1.61-3.83c-1.62-20-3.16-40-4.73-60-.37-4.68-.8-9.36-1.22-14.27-6.6,2-12.77,3.89-19,5.57a7.11,7.11,0,0,0-4.68,3.58c-6.8,11.63-13.73,23.18-20.61,34.76-2.54,4.27-5.06,8.55-7.67,13Zm47.23-98.81c-1.07,20-2.14,39.87-3.25,60.39l101.35-88.55-.36-.64ZM691.65,573.56l61.62-53.84-46-29.22c-.46.71-.87,1.32-1.25,1.95-6.25,10.51-12.27,21.17-18.86,31.47-3,4.72-4,9-2.62,14.58C687.27,550,689.27,561.61,691.65,573.56ZM628.57,267.89c-5.3,4-10.13,8.11-15.47,11.41-4.2,2.61-4.81,5.68-4.33,10.24,2.49,23.66,4.52,47.36,7,71,1.45,14,1.36,28.26,6.85,41.66,2.47,6,4.13,12.37,6.5,19.61.59-6.65,1.08-12.18,1.56-17.72,1.78-20.39,3.7-40.76,5.27-61.16,1-13.18,3.49-26.28-.11-39.63C632.71,291.83,631,280,628.57,267.89ZM593.37,481c-10.15,3-19.88,5.84-29.59,8.72-4.54,1.35-9.76,1.74-13.45,4.31-8.3,5.77-15.84,12.63-24,19.27l78.22,34.39C600.82,525.3,597.13,503.35,593.37,481ZM841.11,651c3.47,1.57,6.77,2.92,9.92,4.55,1.9,1,3.16.76,4.82-.61q45.55-37.76,91.22-75.37c2.1-1.73,4.17-3.5,6.73-5.66-1.06.09-1.39.08-1.71.15q-34.8,8.25-69.61,16.49a4.54,4.54,0,0,0-2.8,2.25q-16,24.12-32,48.24C845.5,644.27,843.39,647.53,841.11,651ZM548.93,217.24a13.37,13.37,0,0,0-1.07,1.2q-14.11,21.33-28.25,42.64c-.8,1.2-.49,2.1,0,3.2q8.32,19.08,16.6,38.18l10.5,24.15c5.35-4,10.39-7.93,15.62-11.58,2.15-1.5,2.67-3,2.22-5.55-3.88-22.37-7.59-44.76-11.35-67.14C551.81,234.1,550.39,225.86,548.93,217.24ZM800.12,417.92c1.64-30.44,3.27-60.77,5-91.8-.62.82-.82,1.05-1,1.3q-21.69,36.46-43.35,72.93a3.55,3.55,0,0,0-.68,1.82c.65,8.91,1.36,17.82,2.07,26.95Zm-37.81,13.3c2,25.19,4,50.08,6,75.38,9.45-8.25,18.51-16.19,27.61-24.11a3.08,3.08,0,0,0,.85-2.48L799.53,429c.16-2.84.28-5.68.43-8.82ZM657.17,570.53c3.53-5.95,7-11.9,10.6-17.78a4.48,4.48,0,0,0,.42-4.18Q657.8,516.81,647.52,485c-2-6.05-4-12.08-6-18.21-3.64,1.08-6.92,2.45-10.33,3-4.37.66-4.85,3.07-4.44,6.77,1.12,10,1.88,20,3,30,.6,5.26,0,10.79,2.11,15.75,5.93,14.1,12.25,28,18.16,42.12C651.42,567.81,653.35,569.85,657.17,570.53Zm-54.86-434.4c-2.43,3.65-4.45,6.69-6.49,9.72a3.37,3.37,0,0,0-.55,2.35q1.82,18.65,3.6,37.28,3.66,38,7.33,76c.6,6.25,1.22,12.5,1.86,19.15,6.05-4.52,11.62-8.87,17.4-12.91,2.21-1.55,2.56-3,2-5.57Q618,215.11,608.65,168C606.58,157.58,604.51,147.17,602.31,136.13Zm68,412.3c3.58-6,6.92-11.54,10.16-17.13a3.78,3.78,0,0,0,.15-2.41q-6.14-31-12.36-61.91c-.36-1.8-6.39-6-8.14-5.56-5.49,1.51-10.94,3.17-16.57,4.82C652.46,493.66,661.29,520.81,670.29,548.43ZM586.28,297l-29.81-91.56c-1.57,2.35-2.85,4.48-4.33,6.44A6.25,6.25,0,0,0,551,217.2c3.48,20.23,6.85,40.48,10.26,60.73,1.86,11,3.73,22.05,5.67,33.55Zm82.27,161.86c1.2,2.18.13,4.73,2.34,6.13,11.78,7.51,23.59,15,35.59,22.6l28.77-48.39Zm-150.84-199a7.63,7.63,0,0,0,.83-.89q14.54-21.94,29.07-43.87a4.15,4.15,0,0,0,.44-3.32c-1.13-6.64-2.22-13.28-3.35-19.92-1.19-7-2.41-14.08-3.65-21.31-.41.35-.58.43-.64.56q-14.86,35-29.74,70a2.52,2.52,0,0,0-.22,2.14C512.84,248.68,515.21,254.14,517.71,259.88ZM595.78,480.3c-.13.47-.24.64-.21.78q5.55,33.32,11.12,66.64a1.74,1.74,0,0,0,1.18,1.44c3.19,1.38,6.36,2.79,9.84,4.32,1.34-15.49,2.66-30.71,3.95-45.92a7.61,7.61,0,0,0-.1-3.44c-3.91-9.25-7.95-18.44-12-27.84ZM748,787.22c.85-1.19,1.39-1.91,1.88-2.66,10-15,19.62-30.12,29.94-44.83,4.92-7,3.41-14.2,3.18-22.08l-45.44,37.51C741,765.77,744.42,776.18,748,787.22Zm46,108.17c2-2.55,2.89-4.88,2.55-7.76-.55-4.63-.78-9.29-1.15-13.93q-2.92-36.6-5.85-73.18c-.65-8.16-1.31-16.32-2-25.07-2.2,1.86-4.86,1.91-5,5.39-1.16,24.19-2.5,48.37-3.89,72.55a23.55,23.55,0,0,0,2,11.57C785.21,874.91,789.47,885,794,895.39ZM630.92,424.89c8.16-6.69,15.65-12.89,23.22-19,1.39-1.12,1.57-2.16,1.23-3.84-3.31-16.28-6.51-32.58-9.76-48.86q-2.77-13.92-5.58-27.83l-.48,0C636.69,358.33,633.84,391.26,630.92,424.89ZM749.38,798.11c-3.34,2-6.47,3.67-9.44,5.63a3.73,3.73,0,0,0-1.58,4.32c1.38,6.08,2.49,12.22,3.71,18.33,4.21,21.11,8.41,42.22,12.71,63.8.33-1.17.57-1.87.71-2.6q3.84-19.2,7.64-38.41c.42-2.17,1.49-4.33.75-6.6C759.11,827.88,754.3,813.2,749.38,798.11Zm16.27,50.37c-.32,1.06-.52,1.57-.63,2.1-2.18,10.83-4.23,21.69-6.55,32.5-1.56,7.25-3.15,14.36-.86,21.83,1.45,4.75,2,9.77,3,14.66,1.63,8.18,3.28,16.36,5,25,3.67-6.31,7.43-11.69,7.28-19.16a159.93,159.93,0,0,1,1.65-29.12C777.41,879.28,771,864.36,765.65,848.48Zm-99.34-391.4c-3.32-16.62-6.65-33.27-10-50.3-6.9,5.65-13.46,11-20,16.39-5.26,4.35-5.25,4.37-3.22,10.79.65,2.06,1.45,4.08,2,6.17a6.38,6.38,0,0,0,3.17,4.17c6.64,4.11,13.35,8.14,19.75,12.6C660.88,459,663.34,458.7,666.31,457.08Zm127.08,85.66c1.06-19.51,2.08-38.51,3.14-58.09-9.44,8.25-18.42,16.11-27.42,24-.69.6-.57,1.34-.51,2.07.41,5.22.86,10.43,1.27,15.65a2.58,2.58,0,0,0,1.21,2.27C778.39,533.19,785.67,537.83,793.39,542.74Zm-123-75.59c4.05,20.36,8,40.15,12.1,60.73l22.89-38.53ZM606.34,284.54l-17.65,13.21,26,80,.56-.12C612.32,346.79,609.36,315.94,606.34,284.54ZM579.22,401.39l.72-.1c-4.81-28.56-9.62-57.13-14.5-86.13l-17.88,13.42C558.17,353,568.69,377.19,579.22,401.39ZM754.86,901.13c-6.42,32-12.62,62.93-18.83,93.87a5.44,5.44,0,0,0,1.64-2c7-12,13.57-24.25,21-36,4.14-6.51,5.55-12.54,3.54-20.18C759.22,925.52,757.41,913.83,754.86,901.13Zm15.33-370.68c1.45,18.38,2.85,36,4.28,54l16.41-8.09c.73-.36.71-1,.75-1.71q.75-14.07,1.52-28.14c0-.78.07-1.47-.7-2C785.24,540,778,535.43,770.19,530.45ZM621.08,631.24c5.25-8.85,10.46-17.62,15.64-26.41a3,3,0,0,0,.22-1.66q-1.16-12.43-2.35-24.85c-.08-.9,0-2-1.24-2.14-5.1-.44-10.21-.78-14.9-1.13C614.07,594.14,616.66,612.63,621.08,631.24ZM791.86,610c6.33-1.51,12.27-3,18.25-4.28a2.76,2.76,0,0,0,2.44-2.58c1.22-6.44,2.56-12.86,3.84-19.29S818.92,571,820.31,564l-26.71,13.3C793,588.17,792.45,598.86,791.86,610ZM718.18,721c-3.68-29.68-11.76-58.14-22.25-86.18l-13.8,3.29Zm72.48-89.23c-1.45,26.94-2.87,53.41-4.32,80.38,2.88-2.38,5.25-3.91,5.88-7.48,2.09-12,4.67-23.83,7.06-35.73,2.05-10.17,4.09-20.33,6.17-30.67Zm16.92-314.24,39.75-66.88a14.62,14.62,0,0,0-1.91.87l-34.91,28.64a2.18,2.18,0,0,0-1,1.63C808.91,293.4,808.27,305,807.58,317.56ZM782.5,739.27c-.76,1.07-1.24,1.72-1.69,2.39-10,15.05-19.87,30.16-30,45.08-2,3-1.65,5.24,0,8.13,7.07-4.17,14-8.5,21.12-12.34,3.81-2,5.81-4.56,6.58-9C780.44,762.38,783.09,751.3,782.5,739.27ZM703.14,631l55.69-13.23c-8.36-3.67-16.1-7-23.82-10.5-1.06-.47-1.76.05-2.55.44-5.28,2.62-10.55,5.27-15.83,7.9l-15.13,7.53Zm73.5,151-25.43,15c5.09,11.71,10,23.06,15.35,35.27C770,815.09,773.27,798.83,776.64,782Zm-1.92-168.26c-.69-8.57-1.37-17.11-2.09-26l-34.38,17.15c6.65,3,13.17,5.37,19.1,8.76S768.66,616.07,774.72,613.74ZM601.19,452c3.23,7.42,6.34,14.54,9.5,21.81l13.45-4c-1.09-11.34-2.16-22.35-3.28-33.95Zm93.67,137.72c2.15,10.79,4.18,21,6.26,31.38l30.51-15.23Zm-13.32-56.11c-3.41,5.73-6.38,10.81-9.45,15.83a3.72,3.72,0,0,0-.41,3.46c2.7,8.11,5.32,16.25,8,24.38.92,2.8,3.54,3.32,6,1.72,3.63-2.41,4.88-5.28,3.15-9.39a17.11,17.11,0,0,1-.63-3.17C686,555.66,683.82,544.92,681.54,533.56Zm93.1,53.17c.72,9,1.43,17.85,2.14,26.79,4-.93,7.74-1.81,11.46-2.65a1.78,1.78,0,0,0,1.61-1.84c.52-10.11,1.06-20.22,1.62-30.7Zm3.14,39.4c2.18,27.53,4.31,54.46,6.44,81.38h.3q2.06-38.31,4.13-76.61Zm-137.26-7.91,22.27-19.45-8.47-19.43c-3.89,6.55-7,13.1-11.32,18.69C638.07,604.38,639.83,610.89,640.52,618.22ZM780.62,780c-1.77.43-1.81,1.57-2,2.6q-5.15,25.66-10.27,51.35a4.07,4.07,0,0,0-.08,2.18c2.6,6.16,5.29,12.28,8.3,19.22C777.94,829.68,779.27,805,780.62,780Zm31-172.58-20,4.76c-.25,5.2-.47,10.18-.74,15.15a1.45,1.45,0,0,0,.85,1.62L806,635.27C807.92,625.9,809.74,616.89,811.66,607.38ZM633.18,560.27c-3.53-17.17-.36-34.86-9.55-51.16-1.35,15.56-2.64,30.42-3.93,45.26Zm186.63,1.65-24.56-15.56c-.5,9.65-1,18.82-1.49,28.54ZM587.59,62.38l-.5.17c2.58,26.81,5.16,53.62,7.79,81,1.83-2.74,3.16-5.07,4.82-7.12s1.93-4.28,1.36-6.9c-1.91-8.85-3.61-17.74-5.38-26.62Q591.63,82.64,587.59,62.38ZM540.35,918l.35.57a3.53,3.53,0,0,0,.89-.24l45.95-27.08a2,2,0,0,0,1.1-1.79c.28-3.86.62-7.73,1-12.12ZM638.8,622.45l-16.42,14.39a1.55,1.55,0,0,0-.37,1.6c.62,3.67,1.21,7.36,1.86,11.36L641,645.74C640.28,638,639.58,630.61,638.8,622.45Zm4.62-365.68c-4,3-7.34,5.62-10.87,8.07a3.55,3.55,0,0,0-1.68,4.35c1.09,4.6,1.89,9.27,2.82,13.92,1.67,8.27,3.34,16.55,5.22,25.89C640.46,291,641.91,274.21,643.42,256.77ZM561.2,690.29a21.45,21.45,0,0,0,2.14-.64q15.84-7.87,31.66-15.77a2.77,2.77,0,0,0,1.18-.87c3.25-5.38,6.46-10.79,10.08-16.86-4,1.15-7.42,1-10.24,3.61-5.7,5.22-11.61,10.2-17.43,15.29C573.05,679.89,567.52,684.75,561.2,690.29Zm176.25,113c1.88-2.85,3-5.22,4.74-7.06,3.78-4,3.53-7.83,1.09-12.64-4-7.8-7.12-16-10.83-24.57-1,1.85-3.43,1.87-2.93,4.35C732.12,776.37,734.68,789.37,737.45,803.3ZM681.83,583.94c4.53,13.89,8.78,26.95,13.09,40.2l4.29-2.2-6.49-32.19c-.11-.58-.18-1.12-.84-1.4C688.78,587,685.68,585.63,681.83,583.94ZM793.62,900.52c-1.55,2.68-3.07,5.42-4.72,8.06a3.47,3.47,0,0,0-.38,3.24c3.9,11.82,7.72,23.66,11.6,35.48.16.5,0,1.33,1.17,1.4-.74-9.26-1.66-18.43-2.14-27.62C798.77,913.85,797.84,906.88,793.62,900.52ZM758.13,404.74c-6.38,10.73-12.24,20.58-18.42,31l20.41-6C759.47,421.56,758.84,413.63,758.13,404.74Zm20.12,459.65c-.52,7.15-1.31,13.52,1.23,20,2.93,7.45,5.09,15.2,7.69,23.17,1.81-3.11,3.38-5.84,5-8.56a2.13,2.13,0,0,0,.24-2.11C787.75,886.21,783.13,875.59,778.25,864.39ZM599.56,453.33c-2,1.6-3.81,3-5.55,4.55-.76.67-2.17,1-2,2.35.92,6,1.93,11.91,3,18.14l13.7-4ZM774.64,929.15c2.79-4.81,4.75-8.95,7.42-12.58,3.27-4.45,3.67-8.65,1.55-13.77-2.46-5.95-4.14-12.23-6.49-19.39C776.27,899,775.49,913.55,774.64,929.15ZM632.58,529.28l-.62.09q1.42,15.24,2.84,30.5a1.7,1.7,0,0,0,1,1.59c4.21,1.83,8.42,3.68,13.28,5.81Zm8.33-64.43c-1.91-5.87-4-11.47-5.52-17.21-.86-3.18-2.76-4.89-5.89-6.18-.8,9.11-1.58,18.07-2.39,27.43ZM677.55,577.4c-2.59-7.93-5.11-15.67-7.82-24-3.79,6.37-7.24,12.19-10.85,18.27C665.17,573.76,670.33,578.17,677.55,577.4Zm-58-20.86c-.49,5.73-.95,11-1.42,16.37l16,1.24c-.36-3.77-.7-7.06-1-10.37a1.76,1.76,0,0,0-1.11-1.73C628.06,560.3,624.05,558.53,619.52,556.54Zm16.94,19.92c.8,8.35,1.55,16.24,2.39,24.89l14-23.62Zm-92.6-80.14-.32-.61L509.3,505.8c4.05,1.78,7.65,3.07,10.94,4.9,2.91,1.62,4.91,1.3,7.4-.93C532.87,505.09,538.43,500.78,543.86,496.32Zm77.95,3,.64-.13c.74-9,1.49-18,2.26-27.45l-13.2,3.92C615,483.74,618.41,491.55,621.81,499.35ZM550,211.33a48.56,48.56,0,0,1,3-4.36c2.33-2.63,2.53-5.27,1.27-8.61-2.48-6.61-4.44-13.4-6.62-20.11-1.42-4.33-2.86-8.66-4.29-13l-1,.25C544.86,180.49,547.37,195.48,550,211.33Zm92.87,252.93,15.69-4.63-21.67-13.74Zm-44.2-12.93-12.61-29-.48.17c1.93,11.46,3.87,22.92,5.87,34.75ZM616,572.66c.51-5.88,1-11.45,1.46-17l-10.2-4.42c1.23,7.36,2.37,14.18,3.53,21.14ZM777,615.59c.32,2.58-.71,5.68,1.25,7,3.14,2.15,6.94,3.31,10.63,5,.26-5.12.49-9.83.74-14.9ZM540.66,165.27l-.76-.31a2.58,2.58,0,0,0-.45.55Q524,200.79,508.53,236.07a2.91,2.91,0,0,0,.59,3.47Zm95.63,409.09,16.42,1.27c-1.11-2.21-1.14-4.72-2.89-5.62-4.67-2.4-9.57-4.35-14.65-6.6C635.57,567.3,635.92,570.75,636.29,574.36Zm-14.1,78-10.12,2.39a1.42,1.42,0,0,0-1.23,1.35c-.25,3.26-.49,6.52-.78,10.31l13.36-6.69C623,657.22,622.62,654.89,622.19,652.35ZM612,643c5-4,8-7.64,6.38-13.94-1.57-6.05-2.19-12.33-3.22-18.51l-.37.08C613.9,621.21,613,631.76,612,643Zm8.08-242.15-.51.1c1,10.11,1.95,20.21,3,30.75,1.7-1.4,3-2.46,4.26-3.48.85-.67,1.82-1.19,1.36-2.58Q624.12,413.29,620.1,400.89Zm155,470.39c3.9-12.52-4.2-21.35-8-31.31C767.2,850.92,772.69,860.44,775.15,871.28Zm-3,66.3c-1.42,2.43-2.41,3.89-3.15,5.46-.87,1.84-2.91,3.3-2.52,5.52,1.11,6.33,2.45,12.62,3.7,18.92l.33-.05C771.05,957.82,771.58,948.21,772.16,937.58ZM625.41,658.76c4.94-2.46,9.5-4.82,14.16-7,1.87-.87,2.26-2,1.28-3.87l-16.63,4Zm166,63.27,14.87-22.48C797.44,704.5,790.13,710.45,791.43,722Zm-24.89-211.2-9.82,8.65,11.06,7C767.35,521,767,516.16,766.54,510.83ZM787.4,773.28c-.65-8.07-1.27-15.86-2-24.57-2.23,9.4-1.92,18.06-2.5,27.2Zm-165.54-123c-.64-3.78-1.23-7.32-1.93-11.46-4.2,4.15-6.07,9.06-9.41,14.12Zm71.83-23.24-13.14,6.51a2.83,2.83,0,0,0,1.1,2.55l13.92-3.33C694.93,630.82,694.37,629.11,693.69,627.06Zm-70.6-189.65c.79,8.3,1.54,16.26,2.3,24.22.79-6,1-12.12,2-18.09C627.93,439.88,626.2,438.66,623.09,437.41ZM625.91,488c-.67,8.46-4.17,17.22,2.4,25.09C627.49,504.62,626.7,496.32,625.91,488ZM701.5,633.46l-3.23.92c2.51,7.72,5,15.31,7.44,22.9l.5-.14ZM791,710.81c-2.21,2.1-4.5,3.23-4.65,4.59-.48,4.59-1.38,9.28,0,15C788.85,723.77,789.25,717.73,791,710.81ZM611.18,574.65c1,5.69,1.93,11.13,2.88,16.57l.44-.09c.43-5.36.87-10.73,1.31-16.07A9.16,9.16,0,0,0,611.18,574.65Zm88.41,49.47-4,2c.68,2.05,1.31,4,1.94,5.88a5.11,5.11,0,0,0,3.53-.81C700.59,629,700.13,626.73,699.59,624.12ZM542.82,157.84l.86.36,10.17-24-.62-.26Zm85.62,271.79-5.86,4.74,5.18,3.23C628,434.88,628.19,432.6,628.44,429.63ZM774.9,616.11l-7.54,1.81,7.94,3.55C775.15,619.52,775,618,774.9,616.11ZM740.74,771.49,736,756.93l-1.68.54C735.78,762.37,738.33,767,740.74,771.49Zm19.16,52.23,4.8,14.78C766,832.64,761.9,828.52,759.9,823.72ZM601.68,654.9c6.83-1,7.81-1.9,7.56-6.6Zm90-70.94c-.46-2.25-.84-4.13-1.33-6.49l-4.37,3.91Zm-40.38,61.89c-2.64.88-6.25-.18-8,2.51l.6,1.21Zm5.24-69.91,7.26.61.12-.52-6-2.63ZM797.65,902.51c-.2-2.37-.41-4.74-.63-7.3C793.78,898,796.34,900.21,797.65,902.51ZM667.13,462.58c0-1.31.22-2.31-.72-3.09l-2.88.88ZM779.69,777.29c1.72-1.58,1.19-3.55,1-5.46Zm-220-656.88-.37-.29-1.15,2.54.45.19C559,122,559.38,121.22,559.73,120.41ZM553.92,134c.58-1.37,1-2.29,1.34-3.2A3,3,0,0,0,553.92,134Zm6.33-15.84.37.16.52-1.5-.29-.09Zm146.06,541h.11v-.82h-.11Zm12.44,63.23h.19v-.76h-.19Zm41,100.62.18,0-.06-.63-.22,0ZM801.2,950.28h.14v-.63h-.14ZM579.91,402.8l.14,0-.06-.55-.19,0ZM562.08,114.25l-.15,0,0,.63H562ZM613.85-.85l.2,0L614-1.41c-.05,0-.15,0-.15.06C613.82-1.18,613.84-1,613.85-.85Zm-43.4,90.16h0l0-.4h0Zm-1,1.81c-.05,0-.12.09-.13.14s.07.11.11.16.12-.09.12-.14S569.52,91.17,569.48,91.12Zm.37-.87.14.11,0-.19Zm-31.17,829.5s-.09-.14-.15-.15-.11.08-.17.12.1.15.15.15S538.63,919.79,538.68,919.75Zm75.9-922-.14-.17-.15.16.21.16ZM561.49,115.59s-.14.09-.15.15.08.12.12.18.14-.11.14-.16S561.53,115.64,561.49,115.59ZM560,119.43c0-.06.15-.11.16-.17s-.09-.13-.14-.19-.16.11-.16.17S559.91,119.37,560,119.43Zm1.73,570.84c-.06-.06-.11-.15-.17-.16s-.12.09-.18.13.1.16.16.16S561.62,690.32,561.69,690.27ZM846.61,250.85l.17.16.08-.33c-.05,0-.13,0-.17,0A.45.45,0,0,0,846.61,250.85Z" transform="translate(-328.51 122.73)"/><path class="cls-2" d="M620.19,849.24q15-12.33,30.07-24.63c.92-.75.7-1.51.55-2.43q-5.38-31.93-10.74-63.86c0-2-.16-4.05,1.08-5.83L652.9,822c3.27-1.76,5-3.61,4.43-7.69-1.28-9-1.82-18-2.69-27.05q-3.23-33.28-6.48-66.55a17.48,17.48,0,0,1,1.44-7.62c3.3,34.41,6.59,68.81,9.94,103.77l6.5-5.36a3.69,3.69,0,0,1-.4,3.18c-4.75,2.43-6.95,6-5.22,11.42a12.64,12.64,0,0,1,.24,2.48c.58,6,1.16,12,1.76,18.18l2.12-1,0,2.52c-1.65.31-2,1.35-1.78,2.88.44,4,.76,8,1.13,11.95-.39,4.09.39,8.25-.71,12.3-.82-8.25-1.63-16.5-2.46-24.85-1.54.62-2.89,1-2.53,3,1.65,9.29,3.24,18.6,4.86,27.9.4,3.25-.12,6.44-.52,9.64-2.15-12.51-4.29-25-6.51-38L614,878c-.57-1.14.18-2,.64-2.9l41-24.07c-1.42-8.33-2.78-16.38-4.2-24.76L619.3,852.71A6,6,0,0,1,620.19,849.24Zm37.3.34c2.42-.56,3.11-1.68,2.76-3.73-.38-2.28-.41-4.62-.63-6.93-.57-5.81-1.16-11.62-1.82-18.22-1.57,2.14-4.46,2.55-4.17,4.75C654.68,833.47,656.15,841.44,657.49,849.58Z" transform="translate(-328.51 122.73)"/><path class="cls-2" d="M897.37,710.43C891.58,714,885.83,717.56,880,721q-29.68,17.58-59.42,35.07c0-.84,0-1.69,0-2.54q25.11-14.74,50.21-29.49,12.76-7.5,25.52-15Z" transform="translate(-328.51 122.73)"/><path class="cls-2" d="M665.68,638.56l8-3.82-.12,5.47-8.74,2A6.47,6.47,0,0,1,665.68,638.56Z" transform="translate(-328.51 122.73)"/><path class="cls-2" d="M671.12,612.82l3.33,7.34a9.75,9.75,0,0,1-.24,5q-2-4.39-3.91-8.78A6.23,6.23,0,0,1,671.12,612.82Z" transform="translate(-328.51 122.73)"/><path class="cls-2" d="M342.41,692.47a1.13,1.13,0,0,1,1,1.52A1.25,1.25,0,0,1,342.41,692.47Z" transform="translate(-328.51 122.73)"/><path class="cls-2" d="M509.3,208c.08.48.08.9-.52,1C508.71,208.57,508.7,208.13,509.3,208Z" transform="translate(-328.51 122.73)"/><path class="cls-2" d="M341.9,691.47c.49.18.76.47.52,1C341.85,692.35,341.73,692,341.9,691.47Z" transform="translate(-328.51 122.73)"/><path class="cls-2" d="M508.8,209c.09.48,0,.87-.53,1C508.24,209.58,508.24,209.15,508.8,209Z" transform="translate(-328.51 122.73)"/><path class="cls-2" d="M508.29,210l-.53,1.29C507.74,210.77,507.73,210.26,508.29,210Z" transform="translate(-328.51 122.73)"/><path class="cls-2" d="M650.93-89l-.76,1C650.05-88.59,650.16-89,650.93-89Z" transform="translate(-328.51 122.73)"/><path class="cls-2" d="M511.29,204c.1.47.08.89-.51,1C510.66,204.54,510.62,204.09,511.29,204Z" transform="translate(-328.51 122.73)"/><path class="cls-2" d="M340.9,690a.74.74,0,0,1,.52,1C340.85,690.86,340.78,690.46,340.9,690Z" transform="translate(-328.51 122.73)"/><path class="cls-2" d="M339.89,688.47a.81.81,0,0,1,.53,1C339.86,689.35,339.81,689,339.89,688.47Z" transform="translate(-328.51 122.73)"/><path class="cls-2" d="M510.29,206c.09.47.09.89-.51,1C509.69,206.56,509.66,206.11,510.29,206Z" transform="translate(-328.51 122.73)"/><path class="cls-2" d="M557.72,1002.47l.53,1C557.52,1003.45,557.73,1002.9,557.72,1002.47Z" transform="translate(-328.51 122.73)"/><path class="cls-2" d="M509.79,207c.09.47.09.89-.51,1C509.2,207.56,509.18,207.12,509.79,207Z" transform="translate(-328.51 122.73)"/><path class="cls-2" d="M432,406c.25-.35.5-.69.76-1C432.93,405.6,432.73,406,432,406Z" transform="translate(-328.51 122.73)"/><path class="cls-2" d="M510.79,205c.09.47.09.89-.51,1C510.18,205.55,510.14,205.11,510.79,205Z" transform="translate(-328.51 122.73)"/><path class="cls-2" d="M467.26,337c.17-.36.33-.73.49-1.09C467.68,336.31,468,336.87,467.26,337Z" transform="translate(-328.51 122.73)"/><path class="cls-2" d="M616.64,853c-.4-.57.2-.71.44-1C617.11,852.4,617.26,852.87,616.64,853Z" transform="translate(-328.51 122.73)"/><path class="cls-2" d="M340.4,689.47l.52.53Z" transform="translate(-328.51 122.73)"/><path class="cls-2" d="M557.25,1001.78c.16.25.33.49.5.74C557.58,1002.27,557.41,1002,557.25,1001.78Z" transform="translate(-328.51 122.73)"/><path class="cls-2" d="M727.21,1028.43c.14-.15.27-.3.4-.46C727.48,1028.13,727.35,1028.28,727.21,1028.43Z" transform="translate(-328.51 122.73)"/><path class="cls-2" d="M341.4,691l.52.52Z" transform="translate(-328.51 122.73)"/><path class="cls-2" d="M339.36,687.77l.55.74Z" transform="translate(-328.51 122.73)"/><path class="cls-1" d="M673.52,956.81l-.23.07-.23,0c-.67-1.16-.27-2.41-.11-3.65Z" transform="translate(-328.51 122.73)"/><path class="cls-1" d="M567.39,94.93c.46-.93.92-1.85,1.39-2.77l.48.21-1.41,3Z" transform="translate(-328.51 122.73)"/><path class="cls-1" d="M717.43,699.84l-.64-.06-.18-1.78h0C716.88,698.61,717.15,699.23,717.43,699.84Z" transform="translate(-328.51 122.73)"/><path class="cls-1" d="M716.61,698a1,1,0,0,1-.15-1.45c.06.53.1,1,.15,1.45Z" transform="translate(-328.51 122.73)"/><path class="cls-1" d="M570.45,89.31l0-.4h0l0,.4Z" transform="translate(-328.51 122.73)"/><path class="cls-1" d="M569.48,91.12s.11.11.1.16-.08.09-.12.14-.11-.11-.11-.16S569.43,91.16,569.48,91.12Z" transform="translate(-328.51 122.73)"/><polygon class="cls-1" points="241.35 212.98 241.5 212.9 241.49 213.09 241.35 212.98"/><polyline class="cls-3" points="588.21 806.6 529.1 779.84 628.1 697.38 612.54 764.03"/></svg>