<svg id="Layer_1" data-name="Layer 1" xmlns="http://www.w3.org/2000/svg" viewBox="0 0 629.97 1263.85"><defs><style>.cls-1{fill:#3CB371;}</style></defs><path class="cls-1" d="M471.85,743,455,757.34l-.42-.23Q477.29,646,500,535.07c.77-.76,1.37-.56,2.26,0q-13.14,100.23-26.35,201a13.38,13.38,0,0,0,4.76-3.56c2.69-2.64,5.76-4.81,8.62-7.22a4.68,4.68,0,0,0,1.82-3.47c.47-7,1-14,1.55-20.93,1.6-19.14,3.32-38.27,4.86-57.42,1.57-19.48,3.52-38.93,4.76-58.44.83-12.93,2.23-25.83,3.33-38.75.95-11.13,1.82-22.27,2.78-33.4s2.12-22.24,2.92-33.38c.9-12.52,1.81-25,2.89-37.52,1.86-21.35,3.75-42.69,5.48-64,1-13,2.32-26,3.1-39.05.65-10.9,1.86-21.76,2.8-32.63q1.13-12.87,2.2-25.75c.74-8.84,1.44-17.69,2.19-26.53q1.2-14.4,2.46-28.81c0-.32.12-.64.28-1.47l83.64,80.12c6-18.35,10.67-36.91,16.56-55a1.72,1.72,0,0,1,2.08.67q-7.49,28.62-14.61,58.14l79.8,76.5c1.45-2.76,2.8-5.28,4.08-7.83,4.11-8.15,8.24-16.29,12.26-24.48q9.84-20.1,20-40.06c5.67-11.18,11.1-22.47,16.68-33.7,4.83-9.69,9.73-19.34,14.57-29q10.34-20.72,20.63-41.45c3.42-6.87,6.9-13.71,10.31-20.59,5.42-10.92,10.77-21.87,16.19-32.79,4.64-9.31,9.44-18.54,14-27.89,3.39-7,7.08-13.82,10.44-20.82,6.88-14.29,14.22-28.35,21.18-42.6,6.55-13.4,13.33-26.7,20-40C885.92,12,891.25,1.06,896.68-9.85c4.67-9.39,9.52-18.69,14.08-28.13,3.5-7.22,7.33-14.27,10.79-21.5,6.78-14.16,14.07-28.06,21-42.16,2.62-5.36,5.25-10.72,8-16,.4-.79.55-1.85,1.88-2a4.47,4.47,0,0,1-.13,4.09c-6,14.12-12.3,28.14-18,42.39-3.8,9.5-8.2,18.74-11.81,28.33-2.7,7.18-6.17,14.06-9,21.2-3.7,9.36-8,18.45-11.64,27.84-2.69,7-6,13.76-8.81,20.73-3.41,8.47-7.33,16.72-10.65,25.22-3.19,8.19-6.89,16.15-10.24,24.26-4.63,11.19-9.24,22.39-13.93,33.55-5.39,12.81-11,25.55-16.28,38.39-6.8,16.39-13.82,32.67-20.63,49-6.52,15.67-13.15,31.29-19.71,46.94-3.63,8.64-7.32,17.26-11,25.91q-9.47,22.53-18.89,45.07c-3.8,9-7.68,18-11.47,27.09-4.94,11.8-9.78,23.64-14.74,35.43-4.82,11.48-9.73,22.92-14.6,34.37-.33.78-.58,1.59-.94,2.56l60.43,57.94a81.49,81.49,0,0,1-8.4,7.54c-7.25,6.22-14.57,12.35-21.83,18.56-8.35,7.15-16.66,14.35-25,21.49Q716.78,534,698.37,549.6c-8.82,7.53-17.51,15.21-26.45,22.58-4.54,3.74-8.67,8-13.47,11.39a5.64,5.64,0,0,0-1.75,3c-2.89,8.13-6.81,15.83-10,23.83-3.38,8.58-7.35,16.9-10.72,25.47-3.06,7.79-6.53,15.38-9.75,23.09q-9.45,22.68-19,45.31c-3.8,9-7.74,18-11.45,27.1-6.91,16.89-14.18,33.62-21.23,50.46-6.88,16.44-13.88,32.83-20.73,49.28s-13.85,33-20.81,49.52c-6.7,15.87-13.45,31.72-20,47.64-6.74,16.31-13.74,32.51-20.52,48.81q-9.63,23.14-19.43,46.22c-1.9,4.47-3.37,9.11-5.59,13.45-1,1.89-.79,4-1,6q-2.43,27.93-4.76,55.88c-.1,1.17.06,2.55-2.16,2.19-1.91-10-3.84-20.08-5.86-30.62A19.67,19.67,0,0,0,451,1076c-2.76,7.26-6.25,14.22-9,21.46-3.77,9.78-8.36,19.22-12.07,29-2.11,5.58-4.72,11-7,16.47-.52,1.24-1.33,1.4-2.79,1,.26-12.31.53-24.72.79-36.75-.51-1.17-1.58-1-2-1.86a.59.59,0,0,1-.05-.35c2.59-8.44,2.55-17.13,2.66-25.84.08-6.05.38-12.11.39-18.17a4.46,4.46,0,0,0-.23-2.48c-.56-.39-1-.1-1.37.25q-19.84,17.71-39.67,35.45c-8.39,7.5-16.67,15.12-25.17,22.49-7.78,6.77-15.38,13.73-23.12,20.55-2.1,1.86-4.3,3.61-6.29,5.61-.72.72-1.48,1.77-2.87,1.13a5,5,0,0,1,.64-4.11c4.33-8.51,8.78-17,12.88-25.59,3.12-6.55,6.59-12.92,9.69-19.46,3.47-7.33,7.36-14.44,10.86-21.74,5.56-11.61,11.45-23,17.15-34.6,4.34-8.79,8.83-17.51,13.19-26.28,5.81-11.68,11.54-23.4,17.36-35.08,4.18-8.39,8.46-16.73,12.66-25.12,2.29-4.57,4.48-9.19,6.74-13.78a6.81,6.81,0,0,0,.58-3c.19-11.17.31-22.36.64-33.53.44-14.84.68-29.69,1-44.53s.67-29.68,1-44.52c.36-14.68.66-29.35,1-44s.58-29.52,1.05-44.27c.53-16.64.43-33.28.87-49.92.77-28.66,1.4-57.33,2.07-86,.36-15.62.67-31.23,1-46.84q.94-40.32,1.9-80.63.54-23.55,1-47.1.83-36.21,1.67-72.43c.47-20.22,1-40.44,1.39-60.66.3-14.68.37-29.36.76-44s.67-29.51,1-44.27.66-29.68,1-44.53.67-29.51,1-44.27c.18-7.16.32-14.33.46-21.49A9.11,9.11,0,0,1,444,81a1.8,1.8,0,0,1,1.89-.14c0,5.16.09,10.18,0,15.19q-.56,27.14-1.21,54.26-.82,36.09-1.67,72.18c-.47,20.3-.9,40.61-1.41,60.91q-1.1,44.16-1.79,88.32c-.21,14.85-.64,29.69-1,44.53-.35,14.67-.66,29.35-1,44s-.66,29.51-1,44.27-.67,29.69-1,44.53c-.36,14.67-.66,29.34-1,44-.37,14.85-.67,29.69-1,44.53s-.66,29.69-1,44.53-.66,29.51-1,44.27-.58,29.34-1,44c-.52,16.72-.42,33.45-.88,50.17-.61,22.27-1,44.54-1.56,66.81-.32,13.65-.68,27.3-1,41a3,3,0,0,0,.38,2.07c1.55-.45,1.75-2,2.22-3.1,2.08-5.06,4.86-9.77,7.26-14.67,4.56-9.34,9.18-18.66,13.78-28,0-.08.07-.16.11-.23,4.85-6.78,5.34-14.78,6.35-22.63.39-3,.78-5.92,1.14-8.89.06-.45.31-1-.31-1.4-1,.36-.78,1.66-1.73,2.17-1.74,0-1.73-.93-1.29-2.32,1.29-4.06,2.43-8.18,3.79-12.22,2.51-7.42,3.23-15.16,4.29-22.84,1.51-10.9,2.86-21.82,4.34-32.71,1.51-11.07,3.11-22.13,4.21-33.25.23-2.28.53-4.54.79-6.81.15-.29.21-.61-.08-.81C472.32,742.7,472,742.93,471.85,743Zm21.8,60.84c-2.39,4.78-4.67,9.63-7.22,14.34a16.69,16.69,0,0,0-1.92,6.78c-.33,4.16-.82,8.32-1,12.48-.15,3.07-.89,6.11-.4,9.21,2.23-8.21,4.29-16.46,6.44-24.68,1.57-6,2.89-12.08,4.12-18.16a1.23,1.23,0,0,1,0-.2s.08,0,.13-.07Zm25-100.54c-2.36,1.37-4.26,3.33-6.44,4.95a7.93,7.93,0,0,0-2.8,4.68c-2.26,8.4-4.78,16.73-6.95,25.15-1,3.94-2.07,7.87-2.93,11.85,2.12-2.85,2.8-6.32,4.27-9.45,3.29-7,6.63-14,9.32-21.31.73-2,2.41-3.54,3.13-5.33a38.19,38.19,0,0,0,2.58-10.37c.25-.12.34-.27.08-.47A2.69,2.69,0,0,0,518.67,703.32Zm81.55-325.26c-.43.25-.42.7-.53,1.1-2,7.32-4,14.61-5.87,22-3.14,12.66-6.91,25.15-10.23,37.77-3.89,14.84-8.13,29.59-12.05,44.42-6.3,23.82-13.09,47.5-19.24,71.36-3.1,12.06-6.73,24-9.8,36-3.39,13.38-7.34,26.62-10.82,40-5.34,20.55-11.18,41-16.75,61.45-1.24,4.55-2.89,9-3.3,13.89,8.87-7,8.87-7,11.17-17.87,0-.17.06-.34.1-.5,3.47-13.81,7.21-27.54,10.39-41.43,3.12-13.62,6.85-27.11,10.26-40.67,4.58-18.27,9.09-36.57,13.68-54.84,5.67-22.57,11.43-45.11,16.91-67.73,3.77-15.58,7.94-31.06,11.73-46.63,3.29-13.5,7.06-26.88,10.09-40.44,1.33-6,3.32-11.82,4.22-17.91.36-.28.56-.59.17-1.27C600.29,377.33,600.26,377.7,600.22,378.06Zm-272.37,760c8.63-7.61,17.27-15.19,25.88-22.83,7.26-6.45,14.46-13,21.76-19.37,7.7-6.73,15.28-13.59,22.93-20.37s15-13.41,22.49-20.11a3.06,3.06,0,0,0,1.21-2.41c0-2,.15-4.09.2-6.13q.51-21.49,1-43,.65-29.57,1.2-59.12c0-.4.4-1-.64-1.26-1.51,3.19-3,6.45-4.57,9.64-6.19,12.35-12.58,24.59-18.57,37-3.91,8.14-8.05,16.17-12,24.29-6.73,13.79-13.67,27.48-20.52,41.22-7.19,14.42-14.47,28.81-21.6,43.26-6,12.09-12.1,24.09-18.15,36.13-.42.83-.73,1.71-1.08,2.57-.16.23-.26.48,0,.64C327.51,1138.32,327.71,1138.15,327.85,1138.08ZM523.83,695c1,.23,1.57-.54,2.19-1.07,3.9-3.29,7.81-6.59,11.68-9.93,6.46-5.56,12.81-11.26,19.4-16.66,2.43-2,4.65-3.95,5.71-7a70.69,70.69,0,0,1,3.71-7.57c6.05-12.23,12-24.52,18.17-36.67q6.33-12.42,12.52-24.91c6.2-12.53,12.48-25,18.64-37.57,6.7-13.62,13.61-27.13,20.31-40.75,6.78-13.77,13.73-27.45,20.52-41.21s13.72-27.26,20.41-41c5.46-11.19,11.24-22.22,16.84-33.34,1.79-3.56,3.44-7.19,5.28-11.05l-79.14-75.83a6.5,6.5,0,0,0-1.3,3.21c-1.65,6.18-3.06,12.41-4.54,18.64-3.24,13.6-7,27.07-10.21,40.69-3.28,13.95-7.19,27.75-10.43,41.71-3.1,13.38-6.88,26.59-10,40-3.44,14.7-7.59,29.22-11,43.94-2.94,12.8-6.56,25.44-9.58,38.23-3.28,13.94-7.25,27.72-10.44,41.69-3.09,13.47-6.92,26.75-10.06,40.21-3.28,14-7.26,27.9-10.49,42-2.41,10.47-5.28,20.83-7.93,31.24C523.86,692.9,523.39,693.87,523.83,695Zm-30.41,24,.62.13c1.44-4.7,3-9.37,4.3-14.1,4.55-16.27,9.73-32.34,14.22-48.62,3.35-12.17,7.39-24.13,10.75-36.3,3.15-11.43,6.91-22.68,10-34.13s7-22.83,10.17-34.34,7-22.67,10-34.12c3.2-12,7.2-23.66,10.49-35.59,3.15-11.43,7-22.67,10.07-34.11,3.36-12.35,7.44-24.48,10.85-36.82,3.23-11.67,7-23.17,10.29-34.84C599.46,361,604.16,346,608.56,331c2.21-7.52,4.83-14.93,6.62-22.58a3.4,3.4,0,0,0-1.16-3.76c-11.74-11.17-23.49-22.34-35.12-33.63-8.79-8.55-17.74-17-26.51-25.53-5.48-5.35-11-10.71-16.72-15.81-.35-.32-.63-.86-1.45-.57Q513.82,473.95,493.42,719Zm-25.27,309.64c1.8-2.38,2.56-5.15,3.63-7.8,3.43-8.46,7.1-16.81,10.68-25.21,4.91-11.54,9.69-23.13,14.57-34.68,5.26-12.49,10.53-25,15.71-37.51,6.75-16.31,13.75-32.51,20.53-48.81,6.88-16.53,14.09-32.93,20.82-49.53,3.3-8.14,6.84-16.18,10.28-24.26,4.83-11.38,9.55-22.82,14.38-34.21,5.45-12.87,10.89-25.75,16.2-38.69,5.85-14.28,12.31-28.32,18.09-42.63,4-9.88,8.43-19.58,12.28-29.52,3.36-8.66,7.35-17.07,10.82-25.69,5-12.34,10.4-24.49,15.58-36.75.64-1.52,1.64-2.95,1.69-4.73-.93,0-1.35.57-1.85,1q-22.21,18.87-44.43,37.76c-8.17,7-16.29,14-24.44,21q-8.75,7.49-17.52,15a15.77,15.77,0,0,0-4.09,5.17c-4.18,8.58-8.46,17.12-12.71,25.67q-3.32,6.64-6.65,13.27c-3,5.87-5.94,11.72-8.86,17.61-3.79,7.63-7.5,15.3-11.3,22.93-3,6-6.21,12-9.09,18.06-2.12,4.47-4.43,8.84-6.59,13.28-2.89,6-6.46,11.64-8.09,18.18-3.74,15-7.56,29.94-11.26,44.93-2.37,9.58-5.54,19-5.73,29-.06,3-.46,6-.71,8.93q-3.72,43.63-7.47,87.26c-1.46,16.83-2.33,33.72-4,50.53A49.43,49.43,0,0,0,468.15,1028.59Zm98.36-370c.85.06,1.31-.48,1.83-.91,5.28-4.44,10.58-8.86,15.82-13.35,11.08-9.49,22-19.14,33.2-28.48,5.63-4.69,11.07-9.6,16.78-14.21,7.1-5.73,13.85-11.88,20.8-17.79a5.59,5.59,0,0,0,1.56-2.24c6.79-16.29,13.9-32.44,20.48-48.82,3.34-8.31,7.06-16.45,10.49-24.73,5.47-13.23,11.17-26.38,16.73-39.58,6.16-14.61,12.25-29.25,18.39-43.88,1.58-3.76,3.22-7.49,4.87-11.33l-26.14-25a4.19,4.19,0,0,0-1.94,2.47c-1,2.16-1.87,4.39-3,6.51-3.53,6.91-6.94,13.89-10.5,20.78-6.09,11.82-11.81,23.83-17.8,35.71-4.34,8.59-8.6,17.24-12.85,25.87-7.23,14.68-14.65,29.27-21.91,43.94-6.27,12.69-12.78,25.26-18.86,38-3.89,8.16-8.18,16.12-12.21,24.21C596,598.39,589.84,611,583.55,623.62c-5.48,11-11.06,21.92-16.58,32.88A2.37,2.37,0,0,0,566.51,658.61ZM935.2-81.3A86.66,86.66,0,0,0,930-72c-2.75,5.86-5.72,11.62-8.54,17.44-6.64,13.74-13.86,27.2-20.36,41C897.91-6.77,894.34-.17,891,6.55Q884.65,19.24,878.34,32q-10.27,20.59-20.54,41.2c-6,12-12,23.93-17.85,36-6.71,13.8-13.78,27.42-20.56,41.19-7.41,15.07-15.06,30-22.51,45.07-7,14.06-14,28.08-21,42.13-6.06,12.22-12.37,24.32-18.17,36.67-3.23,6.87-6.77,13.6-10.25,20.34-6.16,11.89-11.92,24-17.92,35.94-4.32,8.6-8.72,17.17-12.85,25.88-4.3,9.08-9,18-13.52,27a6,6,0,0,0-1,2.79c8.66,8,17,16.59,26.09,24.72.8-1.74,1.41-2.95,1.93-4.2,4.35-10.29,8.72-20.57,13-30.89,5.26-12.68,10.62-25.32,15.88-38,6.84-16.46,13.91-32.81,20.74-49.28s13.86-32.64,20.64-49c7-16.78,14.18-33.45,21.13-50.23,6.56-15.83,13.38-31.55,19.91-47.39,7.32-17.74,14.88-35.37,22.33-53q11-26.06,21.94-52.11c6-14.31,12-28.63,18-42.93C909.46-19.82,915.37-33.34,921-47c3.9-9.43,7.73-18.87,11.91-28.17C933.83-77.13,934.45-79.24,935.2-81.3ZM660.35,578.15l.67.51L787.39,470.79l-58.36-56C706,469.62,683.17,523.88,660.35,578.15ZM424.51,1052c5.69-4.46,11-8.58,11.42-16.19a10,10,0,0,1,.46-1.72c4.57-19.6,9.92-39,14.53-58.59,4.27-18.18,9.15-36.21,13.71-54.32q5.39-21.33,10.61-42.7c1.56-6.37,3.78-12.6,4.45-19.17s1.17-12.92,1.66-19.38c.27-3.59.38-7.19.57-10.82a1.37,1.37,0,0,0-1.33,1c-2.92,6.14-6.64,11.9-8.13,18.71-.66,3-1.29,6-2.11,8.95-3,10.84-6.06,21.68-9,32.54-3.73,13.64-7.39,27.3-11.07,40.93-2.15.43-1.86-1-1.72-2.15q1.93-15.61,3.9-31.23c.58-4.62,1.22-9.24,1.83-13.86l-.51-.17c-1.33,2.43-2.34,5-3.61,7.47-7.56,14.62-14.75,29.42-22.11,44.14a11,11,0,0,0-1.16,4.9q-.19,12.67-.51,25.34-.66,27.12-1.36,54.24c-.16,6.4-.14,12.8-.46,19.19C424.35,1043.27,424.51,1047.42,424.51,1052Zm30,9.77c3.84-8.14,6.76-16,10-23.65a6.26,6.26,0,0,0,.35-1.74c.68-7.73,1.43-15.46,2-23.2,1.36-18.64,3.21-37.23,4.48-55.88,1.57-22.81,3.89-45.56,5.8-68.35.27-3.28.86-6.56.47-9.91a11.11,11.11,0,0,0-.87,2.33c-2.14,8.69-4.42,17.35-6.44,26.07-3.15,13.63-7,27.07-10.23,40.69-3.14,13.37-6.86,26.59-10,40-3.9,16.6-8.26,33.1-12.42,49.64a4.65,4.65,0,0,0-.22,3c3.61-3.6,7.45-6.49,11.41-10C450.76,1041.16,452.12,1051.25,454.51,1061.75ZM496.7,718l.46.3c3.93-2.56,7.08-6.07,10.73-9a3.59,3.59,0,0,0,.92-2.07c1.53-5.15,2.72-10.39,4.08-15.58,2.37-9.07,5.15-18,7.45-27.13,4.06-16,8.95-31.84,12.84-47.92,2-8.12,4.55-16.09,6.65-24.17,4.64-17.82,9.89-35.48,14.35-53.35,1.69-6.78,3.8-13.46,5.56-20.23,4.77-18.31,10.11-36.47,14.74-54.82,3.14-12.4,6.83-24.65,10.08-37,5-18.88,10.21-37.69,15.33-56.53,1.13-4.14,2.24-8.28,3.37-12.42a3.07,3.07,0,0,0-.9,1.58q-6.08,20.6-12.12,41.21c-5.67,19.39-11.68,38.68-17.07,58.16-2.28,8.21-5.09,16.28-7.36,24.49-4.24,15.37-9.3,30.5-13.42,45.9-3,11.12-6.7,22-9.77,33.12-3.4,12.24-7.46,24.28-10.78,36.55-3,11.19-6.74,22.19-9.87,33.36-3.47,12.39-7.52,24.62-10.91,37-3.13,11.43-6.93,22.67-10.06,34.1C499.67,708.39,498.14,713.17,496.7,718ZM422.92,1137.2c.36-.11.38-.88.61-1.43,2.75-6.52,5.53-13,8.21-19.57,4.19-10.26,8.67-20.41,13-30.63,2.61-6.21,5.35-12.36,7.68-18.68a5.59,5.59,0,0,0,.23-3q-2.31-13.1-4.63-26.19c-.15-.81-.12-1.7-.8-2.31-1-.1-1.55.67-2.16,1.23-2.53,2.29-5,4.65-7.57,6.89a6.93,6.93,0,0,0-2.27,3.87c-1.69,7.39-3.81,14.68-5.41,22.11s-3.78,14.87-5.67,22.31a19.57,19.57,0,0,0-.81,4.52c-.06,4.69-.32,9.38-.35,14.07C422.88,1119.35,422.92,1128.31,422.92,1137.2Zm35-385.9a6.4,6.4,0,0,0,1.31-.48c4.33-3.85,9.06-7.23,13.18-11.33a4,4,0,0,0,1.16-2.47q2.13-15.85,4.22-31.7c1.64-12.6,3.23-25.21,4.89-37.8,1.75-13.36,3.43-26.73,5.36-40.07,2.08-14.35,3.51-28.77,5.5-43.13.76-5.49,1.45-11,2.17-16.47l-.24,0C483,628.83,470.51,689.84,457.93,751.3Zm99.83-80.9-.51-.37c-3.08,2.27-5.81,5-8.73,7.42-7.91,6.62-15.58,13.51-23.62,20a9.36,9.36,0,0,0-3.48,5.43c-3.18,13.52-7,26.89-10,40.45-2.62,11.55-5.8,23-8.73,34.46a3.54,3.54,0,0,0,.1,3C521.24,743.65,539.5,707,557.76,670.4ZM465.44,815.68c2.16-6.56,4.2-13.12,6.05-19.74,3.58-12.89,7.52-25.67,11.34-38.48,2.32-7.75,4.69-15.49,7-23.25a14,14,0,0,0,.5-6.74,4.58,4.58,0,0,0-.88.37c-4.57,3.57-8.6,7.77-13.27,11.23a2.7,2.7,0,0,0-1,2c-1.31,9.8-2.93,19.56-3.9,29.39s-2.46,19.27-3.64,28.9C467,804.78,466.17,810.23,465.44,815.68Zm20.17-1.22c3.9-6.14,6.46-12.86,9.9-19.12a19.18,19.18,0,0,0,1.7-4.53c2.84-11.32,5.72-22.64,8.56-34s5.87-22.37,8.13-33.72c-1.29,1.78-1.7,4-2.56,5.92-3.44,7.89-6.86,15.79-10.38,23.64s-7.22,15.46-8.9,23.91A83.32,83.32,0,0,1,489.13,788C486.12,796.58,486.55,805.62,485.61,814.46Zm-26.45,53.68c2.5-5,4.95-10,7.53-14.95s5.19-9.78,6.61-15.2,3-10.85,4.47-16.28,2.91-10.7,4.27-16.07,3.57-10.52,3.22-16.81c-2.43,4.23-3.68,8.31-5.41,12.18-4.68,10.42-9.21,20.91-13.83,31.36-2.34,5.3-4.84,10.51-5.09,16.48-.15,3.49-.71,7-1.1,10.43C459.5,862.2,458.76,865.07,459.16,868.14Zm30-122.18h-.57c-1.54,5-3.23,10-4.6,15.12-4.19,15.55-9.44,30.79-13.52,46.37-1.94,7.42-4.38,14.7-6.61,22-.25.84-.73,1.65-.09,2.85,2.4-5.34,4.92-10.36,7-15.58,3.76-9.6,8.43-18.8,12.31-28.35,1.67-4.1,3.61-8,3.66-12.65.06-4.85.81-9.68,1.22-14.52C488.31,756.15,488.71,751.05,489.12,746Zm.15,27.73a41.17,41.17,0,0,0,3.88-9.29q6.8-24.52,13.46-49.07c.16-.6.58-1.22-.05-2-3.6,3.06-7.16,6.08-10.71,9.12a2.3,2.3,0,0,0-.75,1c-1,3.69-2.79,7.2-3.05,11.07-.71,10.54-1.56,21.08-2.46,31.61C489.38,768.6,488.84,771.1,489.27,773.69ZM452.92,910.51l.76.15q7.63-28.12,15.29-56.25c-3.06,5.05-5.5,10.39-8.37,15.48a34.94,34.94,0,0,0-4.16,13.79c-.27,2.63-.65,5.24-1,7.86Zm11.09,136-.66-.12q-4,9.52-7.94,19.06a2.33,2.33,0,0,0-.07,1.26q2.3,12.29,4.63,24.57l.28,0Q462.13,1068.9,464,1046.54Zm-31.2,1c-2.66,2.42-4.86,4.53-7.17,6.49a4.11,4.11,0,0,0-1.57,3.53c.05,3-.12,6-.14,9,0,5.63,0,11.26,0,17.08C427.16,1071.75,430,1060,432.81,1047.55Zm45.07-217.93c4.87-6.08,5.76-13.2,5.46-20.62Zm21.2-78-.14,0,.1-.2ZM502.2,781l-.09-.08,0,.14Zm21.63-85.61-.17-.19-.19.18.26.19ZM566,659.1c.06.06.12.16.18.16s.12-.11.18-.17l-.26-.18ZM935.48-82.49l-.1.19.15,0Zm.5-1-.08.14.12,0Z" transform="translate(-322.86 119.67)"/></svg>