<svg id="Layer_1" data-name="Layer 1" xmlns="http://www.w3.org/2000/svg" viewBox="0 0 629.85 1263.77"><defs><style>.cls-1{fill:#6666FF;}.cls-2{fill:#3CB371;}</style></defs><path class="cls-1" d="M947-101.32a.64.64,0,0,1-.13.44,13.84,13.84,0,0,0-.92,1.51c-3.21,7.28-6.43,14.55-9.6,21.84-5.35,12.32-10.65,24.67-16,37-2.39,5.5-5.11,10.86-7.28,16.44C909.89-16,906-8.17,902.75,0c-2.59,6.52-5.58,12.88-8.36,19.32-3.53,8.16-7.12,16.29-10.51,24.51-2.54,6.17-5.74,12-8,18.33l-.5,1,0-.06a6.19,6.19,0,0,0-1.07,2.63l0-.06a8.92,8.92,0,0,0-1.57,3.66l0-.06a42.64,42.64,0,0,0-4.67,10.86l0-.07c-1.87,4-3.88,8-5.57,12.12-4.31,10.44-9,20.7-13.41,31.11-5.73,13.55-11.94,26.9-17.58,40.49-3,7.28-6.42,14.38-9.47,21.65-4.39,10.49-9.22,20.8-13.65,31.28-4.33,10.25-8.94,20.37-13.28,30.62-5.6,13.24-11.56,26.33-17.21,39.56-5.81,13.61-11.88,27.11-17.7,40.72-5.88,13.77-12.07,27.41-17.93,41.19-4.82,11.34-9.94,22.55-14.87,33.85-.85,1.94-2,3.79-2.27,6a3.73,3.73,0,0,0-.71,1.73c-1.85,4-3.84,8-5.53,12.12-4.11,10-8.69,19.72-12.82,29.68-4.31,10.43-9.12,20.65-13.64,31C688,493.65,683.52,504.2,679,514.72c-4.47,10.27-9,20.5-13.5,30.76q-9.51,21.75-19,43.51c-.45,1-1.28,2-.73,3.77,4-3.33,8-6.27,11.46-9.92,1.78-.76,2.91-2.29,4.26-3.57.34-.16.59-.38.53-.81l0,0c.86.34,1.21-.4,1.7-.82,3-2.59,5.88-5.23,8.88-7.77,7.83-6.63,15.71-13.19,23.52-19.83,7.54-6.42,15-12.94,22.54-19.38,9.82-8.38,19.69-16.7,29.52-25.08q12-10.23,23.93-20.51c5.24-4.52,10.66-8.83,15.68-13.6,1.08-.68,1.93-.19,2.71.57a93.18,93.18,0,0,1-10.15,9c-4.34,3.47-8.42,7.26-12.65,10.88-7.54,6.44-15.11,12.84-22.65,19.29-8.18,7-16.31,14.06-24.49,21-9.5,8.1-19,16.14-28.55,24.24-4.55,3.88-9,7.86-13.58,11.73-6.71,5.7-13.48,11.33-20.22,17l-3.92,3.48q-5.29,4.47-10.6,8.93a7.09,7.09,0,0,0-2.08,2.87c-1.8,4.53-3.86,9-5.78,13.43-6,14.07-12.31,28.05-18.33,42.13-5.62,13.13-11.51,26.15-17.12,39.29-6,14.09-12.28,28.06-18.3,42.14-5.88,13.77-12,27.42-17.92,41.19-5.67,13.3-11.6,26.48-17.28,39.78-6,14-12.2,27.91-18.21,41.9-5.7,13.29-11.63,26.47-17.32,39.76-6.09,14.24-12.35,28.4-18.55,42.6Q482,967.41,471.2,992.12a7.52,7.52,0,0,0-1.48,4.53c-.19,3.42-.39,6.83-.67,10.23-1.14,13.78-2.07,27.58-2.91,41.38-.34,5.53-.62,11.07-1.1,16.59-.6,6.79-1.18,13.57-1.39,20.38-.06.59-.11,1.18-.16,1.76-.67,1.35-.17,2.79-.32,4.18l-.33,4.5h0c0,.76-.14,1.53-.13,2.3,0,5.44-.23,4.55-4.64,5.77-6.76,1.87-13.36,4.23-20.05,6.3h0c-.13.07-.26.14-.38.22a6.54,6.54,0,0,0-2.82.71,17.9,17.9,0,0,1-2.2.67c-1.88.32-2.62,1.48-3,3.27-1.14,5.59-2.43,11.15-3.66,16.72q-1.71,6.2-2.9,12.5c-.41,1.12-1.2.83-2,.58a3.59,3.59,0,0,1,.1-2.38c1.29-6.4,1.46-12.94,2.29-19.4a52.58,52.58,0,0,0,1.17-8.55,1,1,0,0,0-1.14.09,2.11,2.11,0,0,0-1.9.64c-6.52,2.12-13,4.38-19.56,6.32-19.38,5.73-38.55,12.13-57.86,18.07-5.48,1.69-10.95,3.41-16.44,5.09a7,7,0,0,1-3.95.09c0-3.48-.27-7,0-10.43,1.94-20.81,4.76-41.52,7.13-62.28,1.75-15.32,3.38-30.64,5.14-46,1.89-16.34,4-32.65,5.76-49,1.44-13.63,3.09-27.23,4.68-40.84C348,923.56,349.76,911,351,898.39c1-10.74,2.36-21.45,3.59-32.17,1.57-13.7,3.24-27.39,4.82-41.09,1.41-12.25,2.72-24.52,4.13-36.77,1.58-13.79,3.38-27.55,4.78-41.35,1.14-11.16,2.41-22.31,3.73-33.45,1.65-14,3.47-28.06,5-42.11,1.26-11.84,2.56-23.67,4-35.49q1.93-16.07,3.77-32.15c1.45-12.68,2.8-25.37,4.28-38,2-16.84,4.1-33.67,6-50.53,1.14-10.29,2.17-20.61,3.43-30.89,1.5-12.24,2.9-24.49,4.3-36.74,1.45-12.68,2.81-25.37,4.28-38.05,2-17,4.23-34,5.95-51.06,1.51-15,3.56-29.92,5.15-44.91,1.11-10.47,2.62-20.91,3.66-31.39C423,269.57,424.54,257,426,244.4c1.63-13.87,3.39-27.72,4.81-41.61,1.1-10.74,2.39-21.45,3.64-32.16,1.6-13.69,3.24-27.38,4.81-41.07,1.46-12.76,2.85-25.53,4.28-38.3.36-3.22.76-6.44,1.14-9.56a1.92,1.92,0,0,1,2.21-.11,5.89,5.89,0,0,1,.29,2.88q.17,80.61.32,161.24.19,81.51.48,163,.27,88.33.54,176.66.21,64.82.5,129.61.27,84.86.44,169.72c0,1.45.08,2.91.13,4.35-.37,1.57-.75,3.15,0,4.72-.22,10.38-.13,20.76,0,31.14-.11,1.69-.17,3.39-.33,5.08-.12,1.26.27,2,1.63,1.9a120.76,120.76,0,0,0-1.41,21.24c.15,9.41,0,18.84,0,28.26q.76-11.68,1.33-23.34c.46-9.67.77-19.33,1.14-29,.71-9.11,1.16-18.22,1.16-27.36a21.78,21.78,0,0,1,.05-2.8,83.55,83.55,0,0,0,.51-12.55,7.82,7.82,0,0,0,.16-5,147.3,147.3,0,0,0,.88-16.92c.2-10.13,1.94-20.08,3-30.11,1.34-13.2,3.18-26.33,4.82-39.49,1.25-10.1,2.62-20.19,3.85-30.3.67-5.5,1.16-11,1.79-17.07-3.63,3.07-6.9,5.85-10.16,8.63a1.78,1.78,0,0,1-1.83-1.39c1.59-1.8,2.12-4.26,3.21-6.47a6,6,0,0,0,1.66-2.25c2.94-5.2,5.86-10.43,8.88-15.6a8.17,8.17,0,0,0,1.09-3.1c1.43-11.2,3-22.38,4.2-33.59,1.09-10,2.35-20,3.57-30,.91-7.46,2.24-14.88,2.68-22.4.74-4.9,1.47-9.8,2.24-14.7.79-5.06,1.23-10.17,1.59-15.27.95-7.82,1.85-15.64,2.84-23.46,1.45-11.47,3.08-22.91,4.4-34.4,2.13-18.55,4.48-37.07,6.87-55.59q2.16-16.81,4-33.67c1.38-12.51,3.2-25,4.74-37.46C509.49,416.34,511,406,512,395.6c1.14-11.25,2.79-22.44,4.21-33.66,1.62-12.66,3.26-25.31,4.69-38s3.13-25.32,4.77-38c1.51-11.72,3-23.44,4.28-35.19.91-8.59,2.14-17.14,3.21-25.58l102.26,23.5a4,4,0,0,1-.07,3.09c-2.54,9.86-5.26,19.68-7.54,29.6-2.08,9.09-4.61,18.06-6.78,27.13a3.68,3.68,0,0,0-.7,2.76c-1.07,3.16-1.54,6.46-2.35,9.68q-8.54,34-17.26,68c-3.17,11.81-6.38,23.6-9.22,35.49-3,12.37-6.52,24.59-9.34,37-2.65,11.67-6,23.18-8.84,34.82-3.2,13.21-6.75,26.33-10,39.53-4.06,16.54-8.37,33-12.57,49.51a2.77,2.77,0,0,0,0,2.37l1.62-3.27c.55-.3.82-.7.52-1.33l0,0c1.05,0,1.11-1,1.45-1.55q6.5-11.37,12.91-22.77c5.55-9.83,11-19.69,16.65-29.48q8.74-15.26,17.39-30.56c6-10.73,12.22-21.39,18.27-32.12,5.71-10.13,11.59-20.18,17.22-30.37,3.88-7,8-13.94,12-20.93,5.79-10.19,11.46-20.44,17.33-30.58,3.77-6.52,7.45-13.07,11-19.73a3.79,3.79,0,0,0,1.28-1.8c4.27-7.61,8.49-15.24,12.81-22.82,8-14,16-27.93,23.95-41.93,6.15-10.87,12.36-21.71,18.54-32.57,5.67-10,11.25-20,17-29.94,6.18-10.75,12.39-21.49,18.41-32.34,5.61-10.11,11.4-20.11,17.1-30.16,6.2-10.95,12.46-21.86,18.64-32.82,4.28-7.6,8.6-15.18,12.9-22.77q6.25-11.05,12.56-22.09c4.36-7.66,8.73-15.32,13-23,7.89-14.12,16.07-28.08,24-42.17,5.93-10.5,11.92-21,17.86-31.47C890.9-11,896.71-21.09,902.41-31.24c6-10.75,12.19-21.42,18.24-32.16q8.83-15.66,17.78-31.24c4.36-7.56,8.56-15.2,12.85-22.8.39-.69.6-1.72,2-1.32a4.46,4.46,0,0,1-.15,3.34c-1.56,3.71-3,7.45-4.93,11C947.89-103.35,947-102.49,947-101.32ZM488.68,838c.43-.42.26-1,.37-1.5,1.48-7.61,3.59-15.08,5.06-22.7,2-10.22,4.69-20.29,7-30.45,1.43-6.4,2.64-12.84,3.94-19.27l0,0c.63-.53.44-1.25.46-1.93,1-4.32,2-8.63,2.95-12.95,1.58-7.07,3.44-14.08,4.39-21.28a.93.93,0,0,1,.19-.4,2.13,2.13,0,0,1,.13-.43c.72-3.1,1.75-6.13,2-9.32a125.17,125.17,0,0,0,3.47-13.29c-3,2.45-5.68,4.46-7.89,7-.25.18-.48.36-.44.72l0,0c-1.36-.35-2,.64-2.64,1.5l-12,10.26c-1.89.91-3.09,2.6-4.48,4.06a4,4,0,0,0-2.39,3.9c-.14,3.32-.37,6.64-.56,9.95-.26,3-.87,6.05-.56,9.12-.28,2.89-.61,5.77-.82,8.67-.61,8.53-1.18,17.06-1.76,25.59,0,1.87-.71,3.71-.17,5.6a73.52,73.52,0,0,0-.79,10.27,43.16,43.16,0,0,0-.58,9.36v0c-.64.49-.37,1.2-.43,1.83.08,3.64-.81,7.22-.58,10.87a13.38,13.38,0,0,0-.42,5.45,76.35,76.35,0,0,0-.82,9.18c-.66,8.85-1.22,17.7-1.83,26.55a63,63,0,0,0-.39,15.65,65.82,65.82,0,0,0,2.63-10.36c1.25-5.2,2.56-10.39,3.5-15.67.83-4.59,2.26-9.06,2.91-13.69l0,0c.51-.59.36-1.31.43-2A.39.39,0,0,1,488.68,838Zm-57.54,212.09a.66.66,0,0,0-.29.78c-.34,1.84-.72,3.67-1,5.52-1,6.64-2.59,13.18-3.32,19.86-1.33,6.55-2.79,13.06-3.65,19.92,1.81-1,1.16-2.8,2-3.92.82-.58,1-1.56,1.42-2.36,3.46-6,3.58-12.81,4.26-19.46.9-3.41,1-6.93,1.49-10.4a51.61,51.61,0,0,0,.91-8.13l.21-2.84,0,0,.34-.5c.16-1.15.77-2.23.48-3.44l6.52-47.66c-2.41,11-4.38,22.14-6.29,33.25-.93,5.38-2.16,10.73-2.66,16.18a6.54,6.54,0,0,0-.38,3.25Zm17.6-11.9a6.26,6.26,0,0,0,1.35-3.74,8.49,8.49,0,0,0,1.5-2.65q7.49-17,14.9-34.09a14.61,14.61,0,0,0,1.55-4.87c.29-4.52.67-9,1-13.56q1.79-24.2,3.56-48.39c.25-3.43.42-6.87.63-10.31-2.35,8.25-4.31,16.54-6.14,24.87q-5.84,26.43-11.54,52.88c-2.5,11.51-6.09,22.83-6,34.78-2.11-.23-2.5,1-2.34,2.74q-1.19,5-2.38,10l.55.18C446.38,1043.41,448,1041,448.74,1038.23Zm-25,63c-1.31,1.55-1.39,3.63-2.25,5.37-.87.18-1.69.21-2.15-.65.83-7,2.91-13.68,3-20.68,1.24-3.82,1.51-7.82,2.19-11.75.22-1,.49-2,.65-3,.92-5.76,2.35-11.44,2.81-17.28a5.5,5.5,0,0,0,.58-3.11,19.84,19.84,0,0,0,.51-2c.94-5.56,1.81-11.14,2.78-16.7,2.12-12.22,4.32-24.43,6.41-36.66,2.42-14.16,4.46-28.38,7.17-42.49a102.35,102.35,0,0,0,2.1-23.44c-.25-6.41,0-12.84-.12-19.26a62.36,62.36,0,0,0-.42-9.46c.08-1.7,1.11-3.39,0-5.1.07-1.28.2-2.56.2-3.85-.26-53.48,0-107-.46-160.46-.35-44.4-.15-88.81-.51-133.21-.43-55.12-.12-110.24-.51-165.35-.41-57.86-.08-115.72-.53-173.59-.21-26.23-.21-52.46-.3-78.69q0-32,0-63.9V101a32.71,32.71,0,0,0-1,9.16c-.62.6-.54,1.42-.63,2.17-1.88,16.51-3.79,33-5.61,49.53-2.13,19.32-4.6,38.6-6.66,57.93-3,28.62-6.83,57.17-9.79,85.81-2.45,23.68-5.63,47.28-8.2,71-3.41,31.51-7.25,63-10.82,94.48-2.19,19.31-4.59,38.6-6.7,57.93-3.57,32.62-7.58,65.19-11.27,97.8-2.18,19.32-4.56,38.61-6.68,57.93-3.32,30.24-7.18,60.41-10.36,90.67-2.16,20.52-4.88,41-7,61.51-1.93,18.41-4.34,36.77-6.46,55.16-1.94,16.85-3.72,33.71-5.67,50.56-1.77,15.31-3.86,30.58-5.43,45.91-1.54,15-3.49,30-5.16,45q-3.09,27.84-6.3,55.67c-1.26,11-2.64,21.93-3.87,32.9-.59,5.28-1.5,10.52-1.68,15.82-.24,1.57-1,3.09-.37,4.76,1.73.45,2.84-.9,4.22-1.41a2.4,2.4,0,0,0,2-.1c3.6-1.07,7.2-2.15,10.78-3.29,6.76-2.16,13.44-4.61,20.27-6.5,11.53-3.2,22.75-7.32,34.23-10.64,8.38-2.42,16.65-5.21,25-7.83.71.14,1.22-.36,1.82-.57,1.34-.18,1.75-1,1.89-2.29.4-3.48,1-6.93,1.37-10.41.2-2,.86-4,.6-6.61A72.91,72.91,0,0,0,423.75,1101.24Zm53.12-364.87v0c.73.3,1.09-.31,1.52-.67,2.42-2,4.79-4.12,7.25-6.09a3.75,3.75,0,0,0,1.53-3c.19-3.75.68-7.49.82-11.24.16-4.2.92-8.39.7-12.61l-.59-.23-9.37,16.84a11.38,11.38,0,0,0-2.93,5.55c-4.2,4.65-3.32,10.54-4.35,16.52a11,11,0,0,0,2.94-2.44c1.23-.09,1.63-1.24,2.43-1.89ZM462,749.27c6-3.11,7.79-6.29,7.81-14.52-2.71,5.17-5.62,9.63-7.86,14.47-.25,0-.45.1-.17.39Zm31.85-56,0,0a10.49,10.49,0,0,0-2.66,7c-.4,8-1.08,15.89-1.63,23.83-.05.62-.47,1.29.15,2a5.56,5.56,0,0,0,2.12-1.86c1.39-.35,2-1.47,2.54-2.64l0,0a4.9,4.9,0,0,0,3.08-2.06l12.32-10.57a3.31,3.31,0,0,0,2.24-2.21q3.54-2.73,7.07-5.47a2.81,2.81,0,0,0,1.06-1.7c2.77-13,6.62-25.81,9.65-38.79,3.87-16.64,8.39-33.13,12.6-49.69.39-1.56,1.1-3.08.84-4.76.44-.1.49-.33.14-.74l-.13.76c-3.13,4.13-5.25,8.84-7.73,13.35a1.16,1.16,0,0,0-.49,1.07l0,0a17.83,17.83,0,0,0-3.88,6.61c-1.54,1.35-1.94,3.38-2.92,5.05-3.84,6.54-7.51,13.16-11.25,19.76l-.49.76,0,0c-1.8,2.76-3.71,5.47-4.66,8.68-5.57,8.54-10.19,17.63-15.34,26.41a10.58,10.58,0,0,0-2.33,4.32Zm-57,379.07c-1.59,1.43-1.92,3.55-2.82,5.34a31.64,31.64,0,0,0-3.58,10.91c-.63,6-1.58,11.87-2.34,17.81-.18,1.41-.84,2.85-.12,4.66a7.07,7.07,0,0,0,1.13-3.14c1.57-7.19,3.19-14.37,4.7-21.57,1-4.68,2.41-9.27,3-14,.15-.17.38-.31.14-.68Zm2-44.81c-.56.5-.36,1.22-.51,1.84-.11.83-.18,1.68-.32,2.51-.92,5.5-1.73,11-2.22,16.59q-1.89,13.44-3.77,26.88l.68.17c2.25-6.92,6.75-12.89,7.89-20.32.82-5.38,2.62-10.58,3.41-16a10.27,10.27,0,0,0,.95-3.7c1-4.14,2.47-8.23,2.64-12.47.27-6.73,0-13.48,0-20.22V961.25c-1.23,6.63-2.16,13.28-3,20-1.55,11.78-3.43,23.52-4.54,35.36-.34,3.66-1.25,7.25-1.17,11Zm85.85-332.26,0,0c1.81.32,2.71-1.14,3.74-2.1,4.89-4.53,10.15-8.62,15.18-13,6.19-5.37,12.42-10.69,18.64-16,2.06-.78,2.9-2.93,4.62-4.09a1,1,0,0,0,.54-.82l0,0a6.06,6.06,0,0,0,2.79-1.72c2-1.81,4.07-3.67,6.16-5.44,8.1-6.84,16.29-13.58,24.3-20.51,11.32-9.8,22.67-19.56,34.15-29.17,3.67-3.07,7-6.33,8.7-11.12,3.3-9.28,7.77-18.08,11.59-27.15,5.65-13.41,11.65-26.67,17.36-40,5.92-13.86,12.21-27.55,18-41.46,3-7.27,6.43-14.37,9.49-21.63,2.43-5.76,5.31-11.34,7.61-17.14,3.53-8.92,7.78-17.52,11.38-26.4,1.22-3,3-5.78,3.52-9,.91-.28,1.06-1.08,1.26-1.85,1.05-1.7,1.39-3.68,2.19-5.46,6.22-13.82,12.24-27.71,18.21-41.63,6-14.08,12.36-28,18.35-42.14,5.62-13.22,11.52-26.33,17.17-39.55,5.93-13.84,12.11-27.57,18-41.42,5.79-13.52,11.78-27,17.55-40.5,5.88-13.77,12.08-27.4,18-41.18,5.79-13.63,11.83-27.15,17.72-40.73,6-13.81,12.14-27.55,18-41.41,5.72-13.46,11.8-26.77,17.47-40.26,3-7,6.22-13.9,9.17-20.93,4.4-10.49,9.08-20.86,13.67-31.27,6.49-14.72,12.55-29.63,19.35-44.21,1.84-3.94,3.3-8.06,4.93-12.1,2.26-5,4.55-9.92,6.77-14.91,1.07-2.39,2.33-4.71,2.78-7.37a15.4,15.4,0,0,0-2,2.93c-3.55,6.82-7,13.66-10.62,20.47-.69,1.31-1,3-2.51,3.71-.57.5-1,1-.55,1.84v0c-1.14-.27-1.18.79-1.5,1.37-1.76,3.22-3.64,6.38-5.43,9.59-5.77,10.31-11.68,20.53-17.45,30.83-5.89,10.53-12,20.92-17.87,31.46C879.29,14,873.31,24.32,867.5,34.7c-6.19,11-12.56,22-18.77,33C843,77.94,837.05,88.06,831.34,98.3s-11.79,20.45-17.44,30.82c-3.32,6.09-6.87,12-10.3,18.07-5.53,9.75-11,19.57-16.61,29.25-6.21,10.64-12.23,21.39-18.29,32.11-5.1,9-10.4,17.91-15.38,27-3.82,7-8,13.75-11.71,20.78s-8.17,14.07-12.1,21.18c-7.62,13.78-15.6,27.36-23.23,41.14-5.73,10.32-11.83,20.43-17.48,30.8-2.83,5.18-6.39,9.95-8.56,15.49a2.88,2.88,0,0,0-1.28,1.92c-2.94,4.92-5.8,9.88-8.53,14.92-3.92,7.22-8.21,14.24-12.26,21.39-7.68,13.55-15.19,27.2-23,40.69-6.15,10.68-12.28,21.36-18.3,32.12-5.6,10-11.34,19.92-17,29.92-6,10.74-12.23,21.39-18.23,32.15-6.3,11.28-12.76,22.48-19.17,33.7q-6.67,11.71-13.41,23.38l-.06.23a.52.52,0,0,1-.16.31,4,4,0,0,0-1.53,3.11,21.68,21.68,0,0,1-.8,4c-2.94,11.51-6.08,23-8.83,34.54-2.92,12.29-6.48,24.43-9.29,36.77-1.63,7.16-3.68,14.24-5.52,21.36-.17.67-.62,1.39.06,2.17l1.15-1.1C524.49,696.16,525.21,695.94,524.67,695.22Zm-87.92,412.5h0a2.64,2.64,0,0,0,2.3-.5c4.54-1.35,9.11-2.63,13.62-4.08,2.49-.81,5.14-1.19,7.38-2.67.77-2.62.33-5.35.71-8,.53-6.72,1.1-13.44,1.58-20.17.59-8.08,1.11-16.18,1.66-24.27.18-2.18.77-4.34.52-6.56,1.05-12.73,2.09-25.46,2.35-38.3-5.93,11.75-10.67,24-16.07,35.91a13.66,13.66,0,0,0-1.6,3.92c-3.57,8.46-7.78,16.58-9.38,25.89-2.08,12.1-5.34,24-8,36a11.07,11.07,0,0,0-.5,4.74,24.43,24.43,0,0,0,5-1.49ZM504.65,778c-.85.41-.47,1.2-.56,1.84a39.34,39.34,0,0,0-2,9c-.55,2.24-1.14,4.48-1.63,6.73-2.44,11.2-5.17,22.33-7.39,33.58-1.78,9.05-4.07,18-6.09,27-2.38,10.68-4.71,21.38-7.06,32.06a94.15,94.15,0,0,0-4.09,24.41q-.21,6.55-.68,13.08c-.77,10.5-1.63,21-2.45,31.48-.62,7.93-1.28,15.85-1.85,23.79-.15,2.1,0,4.21,0,6.76a9.42,9.42,0,0,0,1.45-4.85c.94-.32,1.12-1.22,1.5-2,2-4,3.38-8.22,5.2-12.28,5.54-12.43,10.87-25,16.29-37.43,3.86-8.87,7.77-17.71,11.62-26.58,4.64-10.67,9.21-21.37,13.85-32,4.39-10.13,8.89-20.22,13.24-30.36,4.58-10.7,9.45-21.26,13.9-32,4-9.57,8.35-19,12.48-28.45,4.78-11,9.31-22.07,14.26-33,4.71-10.37,9.11-20.86,13.66-31.3q6.66-15.29,13.3-30.59c7-16,13.86-32,21-48,3.83-8.6,7.31-17.35,11.37-25.85,1.49-3.11,2.62-6.4,4-9.76-.49.07-.7,0-.8.12-5.11,4.28-10.23,8.54-15.3,12.86-4.74,4-9.43,8.17-14.16,12.22q-13.06,11.17-26.17,22.31-9.27,7.9-18.55,15.78a2.63,2.63,0,0,1-.21.41l0-.05c-2,.67-3.11,2.54-4.62,3.86-.32.19-.58.4-.54.82l0,0a78.38,78.38,0,0,0-9.3,7.42c-4.37,3.92-9,7.53-13.36,11.48-4,3.66-8.45,6.88-12.36,10.68-1.75.58-1.68,2.24-2,3.58-1.4,5.71-2.8,11.42-4.05,17.17-1.4,6.4-3.22,12.72-4.13,19.22-1.2,8.45-3.78,16.6-5.42,25-.79,4-2.27,7.85-2.37,12ZM452.17,982.47a197.05,197.05,0,0,0-.9,23.44,7.9,7.9,0,0,0,.83-2.34q4.72-21.39,9.44-42.78,5.06-22.77,10.18-45.52c1.72-7.58,3.75-15.11,3.52-23a51.84,51.84,0,0,0,.55-10.85c.2-2.56.41-5.11.61-7.67.47-6.15,1-12.28,1.37-18.44.35-6.58,1.28-13.12,1.21-19.72a18.53,18.53,0,0,0,.56-5.6,16.59,16.59,0,0,0,.31-4.22,49.54,49.54,0,0,0,.62-10c.1-.76.25-1.51.3-2.26.3-4.56,1.11-9.09.73-13.69a26.47,26.47,0,0,0,.9-7.3q1.07-14.51,2.12-29c.1-3.2.69-6.38.49-9.6l1.69-21.79-.56-.26c-3.18,3.32-7,5.87-10.31,9A6.07,6.07,0,0,0,473.6,743c-1.26.86-2.65,1.57-2.87,3.36-1.21,9.67-2.62,19.31-3.61,29-1.36,13.36-3.33,26.64-4.88,40-.91,7.89-1.9,15.77-2.86,23.66a124.28,124.28,0,0,0-1.6,14.51,19.92,19.92,0,0,0-.42,2.51c-.18,5.11-.32,10.22-.48,15.33q-.81,11.52-1,23.06l-.57,13.42c-.13,3.27-.76,6.52-.47,9.82q-.31,6.93-.64,13.85c-.29,6.33-.73,12.65-.85,19-.14,7.1-1,14.18-.66,21.28A46.76,46.76,0,0,0,452.17,982.47ZM477,717.42a16.91,16.91,0,0,0,2.86-5.17c.92-.32,1.15-1.22,1.56-1.94,2.32-4.09,4.58-8.21,6.92-12.29a8.85,8.85,0,0,0,1.23-3.87c.9-12.36,1.81-24.73,2.66-37.09.67-9.64,1.26-19.28,1.83-28.93,1-17.66,2.52-35.3,3.83-52.94q.63-8.16,1.27-16.32c.53-6.88,1.35-13.75,1.36-20.66.22-1.31-.51-3.42,2.51-2.68-3.42,51.6-7.92,103.1-10.65,154.76,1.44-1.28,1.79-3.06,2.51-4.64a8.28,8.28,0,0,0,2.5-4.27,8.06,8.06,0,0,0,1-1.16c4.35-7.53,8.82-15,12.93-22.63,1.69-3.13,3.82-6.08,4.77-9.59.79,0,1.14-.6,1.46-1.21a37.63,37.63,0,0,0,3-6.3,3.17,3.17,0,0,0,.73-.68c4.48-7.82,9.15-15.52,13.16-23.6a19.84,19.84,0,0,0,4.09-7.18,49.19,49.19,0,0,0,2.78-4.3c2-3.77,4.86-7.11,5.6-11.47,1-5.66,2.67-11.13,4.05-16.69,4.8-19.33,9.82-38.62,14.59-58,5.73-23.25,12-46.36,17.58-69.65,2.89-12.06,6.43-23.95,9.16-36,1.08-4.75,2.74-9.36,3.35-14.21a7.68,7.68,0,0,1,.4-2.52q2.84-10.28,5.45-20.59c2.88-11.44,6.19-22.77,8.86-34.27,2.58-11.17,5.78-22.17,8.42-33.33,3.41-14.39,7.34-28.66,11-43a51.9,51.9,0,0,0,1.81-8V257c.51-.34.42-.88.44-1.38.35-1.65.71-3.3,1.12-5.16-2.95-1-5.92-1.26-8.8-1.92q-30-6.9-60-14c-8.57-2-17.19-3.81-25.81-5.54-1-.66-2-1.4-3.5-.89-2.72,18.89-5.16,37.89-6.87,57-.54,4-1.1,7.95-1.62,11.94-1.51,11.71-3,23.42-4.5,35.13-1.28,10.28-2.44,20.57-3.72,30.84-1.62,12.9-3.35,25.8-4.94,38.7-1.68,13.59-3.14,27.2-4.88,40.78-2.18,17.05-4.37,34.11-6.41,51.19-1.85,15.55-3.93,31.07-5.85,46.62-1.7,13.84-3.32,27.69-5,41.54-.11.84-.23,1.68-.34,2.53-1,7.59-2.52,15.12-2.8,22.81-.33,2.1-.72,4.19-1,6.29-1.3,10.69-2.54,21.39-3.87,32.07-1.77,14.16-3.63,28.31-5.4,42.47-1,8.39-2,16.79-3,25.19-.37,3.15-.68,6.32-1.08,10C475.62,721.23,476.17,719.24,477,717.42Zm-54.44,380,.05.18.06-.17Z" transform="translate(-323.68 118.85)"/><path class="cls-2" d="M661.45,579.27c-1.35,1.28-2.48,2.81-4.25,3.56a17,17,0,0,1,.57-1.7q7.83-18.39,15.49-36.87c5.63-13.58,11.46-27.07,17.1-40.65,6-14.53,12.29-29,18.31-43.49,4.94-11.92,10.13-23.75,15.15-35.64,1.46-3.45,2.73-7,4.09-10.47l-3.35-3.67a3.73,3.73,0,0,1,.71-1.73l3.77,2.94c.7-1.52,1.36-2.79,1.88-4.13C735,396.9,739.69,386.6,744,376.15c5.94-14.49,12.24-28.83,18.22-43.3,5.81-14.08,11.9-28.05,17.71-42.14,5.68-13.76,11.73-27.36,17.28-41.18,3-7.54,6.43-14.93,9.53-22.45,4.86-11.79,10-23.44,14.86-35.24,4.14-10.14,8.53-20.18,12.68-30.31,5.39-13.14,11.07-26.17,16.51-39.29,4.82-11.62,9.89-23.14,14.78-34.73,1-2.43,2.47-4.73,2.66-7.46l0,.07a68.09,68.09,0,0,0,4.67-10.86l0,.06a7.2,7.2,0,0,0,1.57-3.66l0,.06a4.34,4.34,0,0,0,1.07-2.63l0,.06c.43-.22.44-.64.5-1,2.25-6.28,5.45-12.16,8-18.33,3.39-8.22,7-16.35,10.51-24.51,2.78-6.44,5.77-12.8,8.36-19.32C906-8.17,909.89-16,913.07-24.11c2.17-5.58,4.89-10.94,7.28-16.44,5.37-12.31,10.67-24.66,16-37,3.17-7.29,6.39-14.56,9.6-21.84a13.84,13.84,0,0,1,.92-1.51c-1.07,2.61-2.12,5.23-3.22,7.83-4.3,10.17-8.63,20.32-12.91,30.49C925-48.76,919.09-35,913.42-21.12c-2.95,7.21-6.24,14.28-9.12,21.51-4.29,10.82-9,21.46-13.45,32.21-4.31,10.44-8.93,20.76-13.23,31.21-5.89,14.32-12,28.55-18,42.84-2.87,6.87-5.92,13.66-8.71,20.57-5.84,14.44-12.11,28.7-18.09,43.08q-8.73,21-17.61,41.88c-5.92,14-11.93,28-17.73,42.13-5.93,14.41-12.1,28.71-18.11,43.08-5.82,13.89-11.74,27.74-17.52,41.65-5.94,14.31-12,28.56-18,42.84q-6.17,14.67-12.28,29.36c-.26.63-.45,1.28-.71,2a65.93,65.93,0,0,0,6.65,6.72c5.29,5.11,10.51,10.29,15.83,15.36,7.42,7.08,15,14.05,22.38,21.13,4.82,4.6,9.54,9.33,14.3,14,.42.42,1.34.79.38,1.58-.78-.76-1.63-1.25-2.71-.57a4.61,4.61,0,0,0-.53-.86q-13.38-12.93-26.79-25.84-11-10.56-22.14-21c-2.77-2.61-5.19-5.61-8.5-7.88-2,3.89-3.43,7.83-5,11.68-5.84,14.24-12,28.36-17.85,42.59-6,14.55-12.4,28.92-18.28,43.53-2.65,6.58-5.49,13.09-8.32,19.6-5.41,12.47-10.35,25.14-15.89,37.57-1.08,2.41-2.45,4.82-2.45,7.62l0,0C661.42,578.48,661.3,578.79,661.45,579.27Z" transform="translate(-323.68 118.85)"/><path class="cls-2" d="M463.65,1085.23c.21-6.81.79-13.59,1.39-20.38.48-5.52.76-11.06,1.1-16.59.84-13.8,1.77-27.6,2.91-41.38.28-3.4.48-6.81.67-10.23a7.57,7.57,0,0,1,1.48-4.54c.46.64.19,1.31.13,2q-1.41,16.64-2.79,33.28c-.05.67-.4,1.47.28,2.13,1-.66,1.08-1.65,1.43-2.48,5.1-12.15,10-24.39,15.3-36.44,4.56-10.35,8.72-20.85,13.19-31.23,4.64-10.76,9-21.65,13.54-32.45,6.77-16.1,13.61-32.16,20.38-48.25,5.54-13.17,11.16-26.31,16.61-39.52,5.21-12.66,10.64-25.22,15.88-37.87,6.05-14.63,12.37-29.15,18.4-43.79,5.87-14.24,12-28.36,17.93-42.59,6-14.46,12.26-28.82,18.23-43.3,4.7-11.4,9.72-22.66,14.45-34,6-14.38,12-28.76,18.14-43.06.81-1.86,2-3.62,1.93-5.79l3.92-3.48c-1.48,3.82-2.87,7.67-4.46,11.44-5.52,13.09-11.22,26.11-16.65,39.25-5.85,14.15-11.92,28.22-17.81,42.36-6,14.3-12.05,28.54-18,42.83-5.82,14-11.78,27.91-17.59,41.9-3,7.28-6.25,14.46-9.22,21.75-8.14,20-16.67,39.78-25,59.67-3,7.26-6.25,14.45-9.19,21.75-3.32,8.27-7,16.37-10.39,24.6-5.41,13.23-11.07,26.35-16.57,39.53q-9,21.57-18.15,43.06c-5.64,13.23-11.1,26.53-16.66,39.79-2.94,7-5.83,14.08-9,21a29.15,29.15,0,0,0-2.51,10.91c-.5,11.38-1.69,22.71-2.75,34C464,1081.15,464.3,1083.24,463.65,1085.23Z" transform="translate(-323.68 118.85)"/><path class="cls-2" d="M485.33,611.29c-.36,5.1-.8,10.21-1.59,15.27-.77,4.9-1.5,9.8-2.24,14.7a2.19,2.19,0,0,0-.36.67c-1.73,9.41-3.9,18.74-5.63,28.16-2.76,15-6.32,29.78-9.2,44.73-2.15,11.17-4.58,22.28-6.89,33.42-1.09,2.21-1.62,4.67-3.21,6.47A1.78,1.78,0,0,0,458,756.1l-2.48,2c-.18-2,.47-3.61.79-5.18,3.33-16.44,6.92-32.83,10.09-49.31,2.85-14.88,6.35-29.62,9.13-44.5,2.72-14.57,6-29,9-43.53C484.87,614.14,484.75,612.65,485.33,611.29Z" transform="translate(-323.68 118.85)"/><path class="cls-2" d="M678.38,363.23a3.79,3.79,0,0,1-1.28,1.8c-4.59-4-8.65-8.47-13.16-12.53-4.31-3.87-8.27-8.14-12.45-12.16q-13.31-12.75-26.7-25.4c-1.4-1.31-2.43-3.12-4.46-3.67a3.68,3.68,0,0,1,.7-2.76c6.33,5.74,12.33,11.84,18.59,17.67,4.63,4.31,9.18,8.73,13.76,13.09q8,7.59,15.91,15.28C672.29,357.47,675.35,360.34,678.38,363.23Z" transform="translate(-323.68 118.85)"/><path class="cls-2" d="M423.08,1144.11q1.19-6.3,2.9-12.5c3.64-6.59,6-13.73,8.84-20.66a6.54,6.54,0,0,1,2.82-.71C432.67,1121.48,428.51,1133.07,423.08,1144.11Z" transform="translate(-323.68 118.85)"/><path class="cls-2" d="M423.47,1122.91c-.83,6.46-1,13-2.29,19.4.06-6.68.11-13.36.19-20,0-2.4.15-4.79.23-7.19a2.11,2.11,0,0,1,1.9-.64Z" transform="translate(-323.68 118.85)"/><path class="cls-2" d="M453.9,881.36a7.82,7.82,0,0,1-.16,5l-4.14,7.43c-.75-1.57-.37-3.15,0-4.72C451.3,886.66,452,883.69,453.9,881.36Z" transform="translate(-323.68 118.85)"/><path class="cls-2" d="M463.17,1091.17c.15-1.39-.35-2.83.32-4.18A9.84,9.84,0,0,1,463.17,1091.17Z" transform="translate(-323.68 118.85)"/><path class="cls-2" d="M947-101.32c0-1.17.87-2,1.18-3.09A4.94,4.94,0,0,1,947-101.32Z" transform="translate(-323.68 118.85)"/><polygon class="cls-2" points="114.33 1228.87 114.34 1228.88 114.48 1228.77 114.33 1228.87"/><path class="cls-2" d="M462.84,1095.66h0Z" transform="translate(-323.68 118.85)"/><path class="cls-2" d="M445,179.93c-.81,2.51-.37,5.1-.43,7.64-.48,19.35-.86,38.71-1.3,58.07q-.48,21.57-1,43.16-.78,33.78-1.53,67.57c-.26,12.16-.34,24.33-.6,36.49-.41,19.61-.9,39.22-1.35,58.83q-.36,15.42-.69,30.83-.78,33.91-1.55,67.83-.5,21.71-1,43.42-.69,28.63-1.37,57.28c-.24,10.45-.45,20.9-.69,31.35q-.77,33.52-1.54,67.05c-.31,14.14-.52,28.27-.85,42.4-.41,18.16-.92,36.31-1.34,54.46-.32,13.45-.54,26.9-.84,40.35-.32,14-.68,28.08-1,42.13a9.2,9.2,0,0,0,.2,3.35,4.38,4.38,0,0,0,1.5-2.18c3-6,6.16-12.05,9.09-18.15,2.7-5.64,5.29-11.32,8.44-16.73,1.07,1.71,0,3.4,0,5.1a84.32,84.32,0,0,0-6.35,11.94c-2.13,4.67-4.43,9.26-6.82,13.78-3.85,7.28-7.75,14.49-6.44,23.18a5,5,0,0,1,0,.77q-.68,26.94-1.35,53.87-.44,18-.8,35.91c-.08,4.23,0,8.47,0,12.87l3.34-2.33a5.5,5.5,0,0,1-.58,3.11c-1.22,1.19-3.13,1.81-3.16,4-.1,5.42-.5,10.83-.3,16.26-.68,3.93-.95,7.93-2.19,11.75v-26.66c-1.1.82-1.89,1.32-2.58,1.93-4.3,3.78-8.61,7.57-12.88,11.39-7.45,6.67-14.8,13.46-22.34,20-5.1,4.43-10.13,8.94-15.2,13.41-6.41,5.65-12.77,11.38-19.13,17.1q-10.39,9.33-20.73,18.7c-1.38.51-2.49,1.86-4.22,1.41-.66-1.67.13-3.19.37-4.75,2.83-5.27,5.6-10.57,8.18-16,3.89-8.2,8.06-16.26,12.11-24.38q8.6-17.25,17.18-34.49c6.11-12.27,12.18-24.55,18.31-36.8,7.31-14.63,14.68-29.22,22-43.85q9-18,18-36.09c1.22-2.45,2.33-5,3.56-7.41a6.59,6.59,0,0,0,.51-3q.67-31,1.38-61.92.5-21.84,1-43.67.84-34.54,1.7-69.1c.32-13.62.58-27.23.87-40.85q.75-35.07,1.49-70.14.44-20.68.89-41.36.74-31.86,1.52-63.71c.27-11.82.45-23.64.74-35.45.46-19.52,1-39,1.46-58.56.24-9.68.36-19.36.59-29,.47-19.86,1-39.72,1.47-59.59.23-9.59.33-19.18.59-28.77.66-23.72,1-47.45,1.4-71.18.26-15.75.67-31.51,1-47.27q.83-36.21,1.68-72.44c.25-10.87.45-21.75.67-32.63a32.74,32.74,0,0,1,1-9.17v15Q445,148,445,179.93ZM424.71,944.49c-2.32,3.21-3.45,7-5.25,10.52-5.4,10.49-10.42,21.18-15.75,31.71-6,11.75-11.81,23.56-17.66,35.36-6,12.12-12.07,24.19-18.08,36.3-5.79,11.64-11.71,23.22-17.36,34.93-3.05,6.32-6.43,12.48-9.47,18.81-4,8.33-8.25,16.54-12.36,24.81-.25.51-.95,1.08-.06,1.94,3.65-3.09,7-6.46,10.67-9.54,5.29-4.48,10.31-9.27,15.49-13.88,4.53-4,9.17-8,13.69-12,9.37-8.39,18.54-17,28.08-25.21,8.23-7.09,16-14.67,24.47-21.51a4.64,4.64,0,0,0,1.74-4c0-4.37.05-8.74.15-13.11q.66-27.09,1.37-54.18c.17-6.51.2-13,.45-19.52.27-7,.16-14,.22-21.06.24-.18.33-.39.05-.58C425.05,944.21,424.85,944.4,424.71,944.49Z" transform="translate(-323.68 118.85)"/><path class="cls-2" d="M516.07,648c4.31-14.44,8.81-28.83,12.9-43.34,5.71-20.27,12-40.37,17.79-60.62,2.84-10,6.06-19.8,8.8-29.79,2.61-9.5,5.74-18.84,8.4-28.32,5.83-20.69,12.22-41.21,18.21-61.84,5.89-20.31,12.05-40.54,17.94-60.85q7.88-27.12,16-54.18c.18-.58.3-1.16.51-2l-81-77.56a6.21,6.21,0,0,0-1,3.4c-1.73,20.23-3.71,40.44-5.08,60.69C528,316.34,525.84,339,524,361.73c-3.87,47.13-8.1,94.23-11.83,141.37-1.34,16.91-2.76,33.81-4.12,50.72-1.53,18.95-3.49,37.87-4.85,56.84-1.52,21.28-3.6,42.52-5.26,63.79-.18,2.31-.35,4.61-.52,6.92a8.27,8.27,0,0,1-2.5,4.28c.08-1.54.1-3.08.23-4.62q.9-10.74,1.84-21.5,1.45-16.75,2.91-33.52c.92-10.66,2-21.31,2.69-32,.87-13.68,2.23-27.31,3.33-41,1.2-14.94,2.57-29.86,3.82-44.79.87-10.41,1.77-20.81,2.41-31.24.68-11,1.88-22,2.82-33q1.9-22.39,3.77-44.79c1.31-15.7,2.55-31.41,3.88-47.11,1.08-12.88,2.31-25.75,3.34-38.64.76-9.47,1.84-18.91,2.24-28.4,1.71-19.09,4.15-38.09,6.87-57,1.54-.51,2.5.23,3.5.89.44,1.89,2.3,2.42,3.49,3.58,6,5.85,12.1,11.58,18.12,17.39,5,4.81,9.76,9.84,14.9,14.48s10.08,9.75,15.25,14.49c4.59,4.21,8.92,8.71,13.46,13,2.43,2.28,4.9,4.51,7.22,6.92a35.67,35.67,0,0,0,6.35,5.52c1-2.12,1.16-4.3,1.76-6.33,2.88-9.67,6-19.27,8.66-29a87.65,87.65,0,0,1,3.82-12,51.9,51.9,0,0,1-1.81,8c-3.65,14.33-7.58,28.6-11,43-2.64,11.16-5.84,22.16-8.42,33.33-2.67,11.5-6,22.83-8.86,34.27q-2.6,10.34-5.45,20.59a7.68,7.68,0,0,0-.4,2.52,6.54,6.54,0,0,0-1,2.59c-1.08,4.13-2.2,8.26-3.27,12.39-2.89,11.17-6.3,22.2-9,33.42s-6,22.12-9,33.18c-4.3,15.75-8.49,31.53-12.79,47.28q-9,32.79-17.78,65.61c-1.42,5.28-3.19,10.47-4.21,15.86a19.84,19.84,0,0,1-4.09,7.18c.06-.42.07-.86.17-1.27,4.34-16.29,8.91-32.51,13.2-48.81,5.75-21.84,12-43.55,17.64-65.43,2.79-10.86,6.13-21.57,8.86-32.45s6.17-21.72,8.84-32.7c2.79-11.47,6.35-22.75,9.28-34.19,2.47-9.62,5.31-19.14,8-28.7a2.79,2.79,0,0,0,0-2.58c-.16.44-.29.75-.39,1.07C594,391,588,411,582.37,431c-2.9,10.3-6.17,20.49-9.16,30.76-3.82,13.14-7.76,26.26-11.58,39.4-4.88,16.76-10.12,33.41-14.74,50.24-1.93,7-4.34,13.9-6.3,20.9-4,14.34-8.68,28.48-12.55,42.86-2.28,8.51-5.28,16.82-7.48,25.36a37.63,37.63,0,0,1-3,6.3C517.21,647.4,516.86,648,516.07,648Z" transform="translate(-323.68 118.85)"/><path class="cls-2" d="M933.43-76.23c-4.34,8.44-8.73,16.84-12.71,25.46-2.09,4.5-4.58,8.81-6.72,13.3-3.71,7.8-7.79,15.41-11.54,23.2-5.15,10.72-10.9,21.15-16,31.89-3.3,7-7,13.73-10.2,20.72-2.24,4.81-4.84,9.45-7.2,14.2-3.43,6.89-6.76,13.83-10.18,20.72-2.43,4.91-5,9.76-7.43,14.67-3.54,7.11-7,14.27-10.54,21.39-2.32,4.68-4.74,9.31-7.07,14-4.16,8.34-8.25,16.72-12.41,25.06-4.81,9.64-9.78,19.22-14.46,28.93-3.48,7.24-7.39,14.27-10.7,21.6-2.18,4.83-4.9,9.42-7.16,14.23-3.42,7.27-7.41,14.26-10.7,21.6-2.1,4.68-4.71,9.13-6.93,13.77-3.46,7.25-7.35,14.29-10.71,21.59-2.25,4.9-4.95,9.59-7.24,14.47-3.42,7.28-7.43,14.25-10.73,21.59-2.14,4.76-4.83,9.27-7,14-3.45,7.45-7.6,14.55-10.95,22.06-2,4.45-4.44,8.69-6.52,13.1-3.51,7.43-7.65,14.53-11,22-1.34,3-3,6-4.65,9.26l21,19.95c-.2.77-.35,1.57-1.26,1.85-4.93-4.75-9.84-9.52-14.79-14.24-1.84-1.75-3.78-3.39-5.72-5.12a10.48,10.48,0,0,0-2.43,3.86c-2.67,6-6,11.74-8.87,17.67-5.88,12.18-12.05,24.21-18.05,36.33-5.78,11.65-11.69,23.24-17.39,34.93-5.32,10.92-10.92,21.71-16.22,32.64-3.5,7.24-7.13,14.42-10.81,21.57-5.17,10-10,20.27-15.05,30.36-3.76,7.5-7.67,14.93-11.27,22.5-3.38,7.1-7.21,14-10.42,21.18-2,4.37-4.37,8.54-6.51,12.83-3.8,7.66-7.53,15.36-11.33,23-1.82,3.68-3.76,7.31-5.59,11-.35.69-1.16,1.34-.59,2.3l0,0c-.67-.05-.75.29-.54.82-1.72,1.16-2.56,3.31-4.62,4.09,2.93-7.23,6.79-14,10.25-21,7.35-14.8,14.53-29.68,22.07-44.37,5-9.83,9.74-19.82,14.82-29.62,6.85-13.22,13.2-26.7,19.83-40,5.15-10.35,10.4-20.64,15.57-31,5.94-11.86,11.91-23.7,17.75-35.61s11.86-23.73,17.75-35.61q8.21-16.57,16.45-33.11a51.81,51.81,0,0,0,3.16-6.93c-6.88-6.59-13.89-13.32-20.9-20a2.9,2.9,0,0,1,1.27-1.92l20.41,19.82a6.71,6.71,0,0,0,2-2.89c4.51-8.94,8.86-18,13.45-26.85,5.46-10.57,10.55-21.32,15.85-32,3.51-7.05,7.43-13.91,10.58-21.11,3.06-7,7-13.52,10.09-20.48,2.15-4.85,4.82-9.46,7.18-14.21,3.43-6.89,6.75-13.84,10.18-20.73,2.52-5.05,5.32-10,7.67-15.11,3.24-7.08,7-13.88,10.33-20.94,2.31-5,5-9.77,7.41-14.68,3.54-7.11,7-14.27,10.54-21.39,2.41-4.83,4.94-9.6,7.34-14.43,3.46-7,6.85-14,10.29-20.94,1.4-2.84,2.91-5.63,4.32-8.47,5.21-10.5,10.37-21,15.61-31.51,4.93-9.87,10-19.68,14.92-29.55,5.2-10.41,10.28-20.88,15.47-31.29,3.62-7.28,7.49-14.44,11-21.79,5-10.6,10.45-21,15.64-31.49,6.59-13.35,13.29-26.64,19.91-40,2.38-4.8,5.18-9.43,6.91-14.55v0c.57-.5,1-1,.55-1.84,1.55-.75,1.82-2.4,2.51-3.71C934-81.92,937.45-88.76,941-95.58a15.4,15.4,0,0,1,2-2.93c-.45,2.66-1.71,5-2.78,7.37C938-86.15,935.69-81.2,933.43-76.23Z" transform="translate(-323.68 118.85)"/><path class="cls-2" d="M479,835.61a39.46,39.46,0,0,0-5,11.76c-5.1,18.57-10.26,37.13-15.23,55.74-1.3,4.86-2.33,9.79-4,14.55-.29-3.3.34-6.55.47-9.82a116.68,116.68,0,0,0,3.37-12.31c1.93-7.62,4.22-15.15,6.28-22.74,1.6-5.89,3.1-11.81,4.77-18.19-.53.58-.76.73-.86.95-3.15,6.74-6.54,13.36-10,19.93a6.6,6.6,0,0,0-.52,2.22c-.85,5.57-1.28,11.2-2.44,16.72q.22-11.55,1-23.06c1.32-6.83,1.51-13.79,2.58-20.85-1.33.81-.78,2.28-1.68,3a124.28,124.28,0,0,1,1.6-14.51,30.12,30.12,0,0,0,2.84-9c1.55-10.58,3.11-21.16,4.29-31.78,1.42-12.67,3.39-25.26,4.92-37.91.69-5.77,1.81-11.48,2.17-17.29a6.07,6.07,0,0,1,2.23-2.07,39.93,39.93,0,0,1-.14,4.1Q472,772.52,468.26,800a97.75,97.75,0,0,0-1.34,13.58c6.58-19.7,11.71-39.83,18.09-59.58.2,3.22-.39,6.4-.49,9.6a4.27,4.27,0,0,0-.35.67c-3.12,10.12-6.25,20.23-9.07,30.44-3.27,11.86-7,23.59-10.47,35.39-.28.94-.85,1.91-.18,3.29,1.21-2.86,2.27-5.46,3.41-8,2.59-5.85,5.42-11.62,7.79-17.57,2.06-5.16,4.37-10.18,6.75-15.18a26.47,26.47,0,0,1-.9,7.3c-2.52,4.76-4.44,9.79-6.55,14.74-3.69,8.65-7.58,17.21-11.36,25.82a11.38,11.38,0,0,0-1,2.9c-1.09,7.71-2.11,15.42-3.13,23.14a4.47,4.47,0,0,0,.14,2.67c.58-1.12,1-1.86,1.36-2.61,3.3-6.57,6.4-13.26,10-19.69,2.46-4.43,3.62-9.21,4.78-14,1.37-5.73,2.87-11.42,4.74-17a49.54,49.54,0,0,1-.62,10l-2,6.31,1.64-2.09A18.53,18.53,0,0,1,479,835.61Z" transform="translate(-323.68 118.85)"/><path class="cls-2" d="M505,764.12c-1.3,6.43-2.51,12.87-3.94,19.27-2.27,10.16-5,20.23-7,30.45-1.47,7.62-3.58,15.09-5.06,22.69-.13.5-.25,1-.37,1.51a.39.39,0,0,0-.12.25c-.14.66-.28,1.33-.43,2l0,0c-2.22,6.37-3.23,13-5.07,19.52a46.16,46.16,0,0,0-1.34,9.84A65.82,65.82,0,0,1,479.11,880a63,63,0,0,1,.39-15.64,5.24,5.24,0,0,0,.75-2.68q1.38-15.81,2.7-31.62a3.69,3.69,0,0,0,0-1.52c-.17-.5-.51,0-.77.08a13.38,13.38,0,0,1,.42-5.45,3.58,3.58,0,0,0,1.06-2,112.94,112.94,0,0,0,.89-11.62c-.51.34-.43.93-.95,1a43.16,43.16,0,0,1,.58-9.36,32.42,32.42,0,0,0,1.91-11.57l-1.12,1.3c-.54-1.89.2-3.73.17-5.6a10.81,10.81,0,0,0,2-6.2c.33-5.11.88-10.2,1.31-15.3.47-5.68.91-11.36,1.42-17.64-1.35,1.81-1.29,3.55-2.16,4.88-.31-3.07.3-6.08.56-9.11,1.65-4.48,3.42-8.93,2.95-13.86,1.39-1.46,2.59-3.15,4.48-4.06-1,4-2.42,7.85-2.79,12q-1.35,15.07-2.6,30.15c-.24,2.77-.41,5.54-.61,8.31a26,26,0,0,0,4-8.2q5.91-21.5,11.61-43.06c.84-3.12,2.12-6.14,2.34-9.42.68-.86,1.28-1.85,2.64-1.5a5.32,5.32,0,0,1-.41,2.49c-2.18,7.89-4.45,15.75-6.48,23.68-1,4-2.34,7.83-2.9,11.89-.3.06-.4.22-.2.65l.17-.68c2.73-4.63,4.23-9.82,6.67-14.58,3-5.84,4.8-12.19,8-17.93-.24,3.21-1.27,6.24-2,9.34a2,2,0,0,0-.13.43,1,1,0,0,0-.19.39,7,7,0,0,0-.51.87c-3.78,9.64-8.36,18.92-12.35,28.46-2.11,5-4.89,9.84-5.89,15.28-.75,4-2,8-3,11.92-1.38,5.46-3.43,10.75-3.74,16.47-.25,4.71-.75,9.41-1.14,14.11a23.9,23.9,0,0,0,3-4.81c4.16-8.23,8.54-16.3,10.57-25.49C501.27,777.81,502.82,770.87,505,764.12Zm-21.42,83.57c1.32-1.94,1.22-4,1.7-5.83,2.73-10.51,5.39-21,8.12-31.55a5.4,5.4,0,0,0,.11-3.23c-2.67,4.66-5.12,9.35-7.54,14.06a3.9,3.9,0,0,0-.42,1.46C484.9,830.86,484.26,839.13,483.59,847.69Z" transform="translate(-323.68 118.85)"/><path class="cls-2" d="M497.9,575.19c-1.61,10.46-3.07,20.95-4.16,31.49-.85,8.24-2.1,16.45-3.21,24.67-2,14.67-4.06,29.31-5.84,44-1.36,11.21-3,22.39-4.45,33.58-.15,1.1-.25,2.21-.37,3.32a16.74,16.74,0,0,1-2.86,5.16q1.74-13.23,3.48-26.47,2.43-18.72,4.86-37.44c1.43-10.86,2.92-21.72,4.35-32.58,1.56-11.88,3.42-23.73,4.57-35.66.44-4.64,1.46-9.22,1.45-13.92-.75,2.79-1.35,5.61-1.84,8.45-1.6,9.18-3.54,18.3-5.73,27.36.28-7.69,1.78-15.22,2.8-22.81.11-.85.23-1.69.34-2.53q3.85-18.7,7.74-37.39a34.07,34.07,0,0,1,1.5-6.21c0,6.91-.83,13.78-1.36,20.66Q498.53,567,497.9,575.19Z" transform="translate(-323.68 118.85)"/><path class="cls-2" d="M504.62,778.06c1.37-.66,1.57-2.13,2.15-3.29,4.69-9.32,9.3-18.69,14-28,4.37-8.72,8.8-17.41,13.15-26.15,4.65-9.34,9.23-18.73,13.86-28.08,3.08-6.21,6.22-12.39,9.29-18.61.35-.7,1.14-1.36.58-2.32l0,0c.58,0,.63-.37.54-.82,1.51-1.32,2.57-3.19,4.62-3.86a5.54,5.54,0,0,1-1,2.34c-4.53,8.93-9,17.9-13.45,26.85q-9.18,18.35-18.31,36.72c-5.68,11.41-11.44,22.78-17,34.23-3.55,7.31-7.4,14.45-10.92,21.76a39.34,39.34,0,0,1,2-9c.41-.55.86-1.08.56-1.84Z" transform="translate(-323.68 118.85)"/><path class="cls-2" d="M460,1100.48c-2-9.78-3.13-19.72-5.7-29.52-5.08,12.11-10.62,24-15.3,36.27a2.64,2.64,0,0,1-2.3.5c-.2-.83.3-1.49.59-2.18q7.9-18.87,15.88-37.73a3.68,3.68,0,0,0,.45-2.22c-1.52-7.52-2.61-15.13-4.47-22.59a13.49,13.49,0,0,1,1.6-3.91c1.46,7.51,2.93,15,4.5,23.06a36.93,36.93,0,0,0,3.1-6.67,117.63,117.63,0,0,1,6.12-14c.25,2.22-.34,4.38-.52,6.56-3,5.68-5.1,11.75-7.53,17.67a3.72,3.72,0,0,0-.14,2.28c1.81,8.1,2.48,16.41,4.43,24.49C460.35,1095.13,460.79,1097.86,460,1100.48Z" transform="translate(-323.68 118.85)"/><path class="cls-2" d="M475.24,892.29c-2.32,7.52-4.07,15.19-6,22.8-3.4,13.17-6.85,26.33-10,39.57-2.09,8.91-4.34,17.77-6.61,26.63a12.08,12.08,0,0,1-.47,1.18,46.65,46.65,0,0,1,.49-10.69c1.92-5.59,3.18-11.35,4.55-17.08,5.75-23.92,11.89-47.75,18-71.59.15-.57.39-1.11.59-1.67A51.84,51.84,0,0,1,475.24,892.29Z" transform="translate(-323.68 118.85)"/><path class="cls-2" d="M600.72,389c-.15,3.38-1.31,6.54-2.18,9.74-4.77,17.76-8.92,35.68-13.52,53.49-3.69,14.33-7.36,28.67-10.77,43.06-2.71,11.42-6,22.7-8.56,34.14-2.71,11.93-6.1,23.69-8.89,35.6-1.23,5.25-2.6,10.47-3.85,15.71-.19.79-.74,1.61,0,2.42l0,0c-.86.17-.85.69-.52,1.33l-1.62,3.27a2.77,2.77,0,0,1,0-2.37c4.2-16.5,8.51-33,12.57-49.51,3.24-13.2,6.79-26.32,10-39.53,2.82-11.64,6.19-23.15,8.84-34.82,2.82-12.42,6.38-24.64,9.34-37C594.34,412.56,597.55,400.77,600.72,389Z" transform="translate(-323.68 118.85)"/><path class="cls-2" d="M535,620.66c-.26,3.53-1.63,6.79-2.53,10.17-3.8,14.3-7.71,28.58-11.58,42.87q-4.46,16.47-8.92,33a3.31,3.31,0,0,1-2.24,2.21,4.59,4.59,0,0,1,.28-2.51c2.85-11.54,6.23-22.94,9.25-34.44s6.23-22.78,9.37-34.16c1-3.45,1.66-7,2.49-10.48A17.79,17.79,0,0,1,535,620.66Z" transform="translate(-323.68 118.85)"/><path class="cls-2" d="M479.94,888.21c-.24,7.45-1.11,14.85-1.75,22.26-1.11,13-2.07,25.92-3,38.9-.81,11.17-1.9,22.33-2.87,33.5a9.43,9.43,0,0,1-1.45,4.86c0-2.55-.13-4.66,0-6.76.57-7.94,1.23-15.86,1.85-23.79.82-10.5,1.68-21,2.45-31.48q.48-6.53.68-13.08A94.15,94.15,0,0,1,479.94,888.21Z" transform="translate(-323.68 118.85)"/><path class="cls-2" d="M494.33,721.5q8.49-28.38,17-56.74a10.77,10.77,0,0,0,.53-3.28c.95-3.21,2.86-5.92,4.66-8.68-.15,3.12-1.49,5.93-2.35,8.86q-8.17,28-16.43,56a17,17,0,0,0-.31,1.76A4.9,4.9,0,0,1,494.33,721.5Z" transform="translate(-323.68 118.85)"/><path class="cls-2" d="M548.91,595.66c-2.42,12.35-6,24.41-8.93,36.62-3.32,13.81-7.07,27.51-10.37,41.31-1.52,6.41-3.26,12.75-4.7,19.17-.18.82-.63,1.61-.26,2.48l0,0c-.78.2-.5.81-.52,1.31l-1.15,1.1c-.68-.78-.23-1.5-.06-2.17,1.84-7.12,3.89-14.2,5.52-21.36,2.81-12.34,6.37-24.48,9.29-36.77,2.75-11.57,5.89-23,8.83-34.54a21.68,21.68,0,0,0,.8-4A4,4,0,0,1,548.91,595.66Z" transform="translate(-323.68 118.85)"/><path class="cls-2" d="M447.53,1002.77c-2.68,9.43-5.25,18.89-7.25,28.49-.69,3.33-1.63,6.6-2.28,10,2.6-1.64,4.39-4.2,6.93-5.83a10.27,10.27,0,0,1-.95,3.7c-2.1,1.84-4.15,3.75-6.33,5.49-1.27,1-1.23,2.54-1.88,3.77.49-5.56,1.3-11.09,2.22-16.59.14-.83.21-1.68.32-2.51a2.68,2.68,0,0,0,.51-1.84l0,0c1-2,1.15-4.22,1.68-6.35,2.27-9,4.33-18.13,7.07-27Z" transform="translate(-323.68 118.85)"/><path class="cls-2" d="M424.87,1092.29c-.84,1.12-.19,2.93-2,3.92.86-6.86,2.32-13.37,3.65-19.92.31-1,.66-1.91.91-2.9q2.77-10.71,5.52-21.45a51.61,51.61,0,0,1-.91,8.13c-.48,3.47-.59,7-1.49,10.4C428.41,1077.68,426.66,1085,424.87,1092.29Z" transform="translate(-323.68 118.85)"/><path class="cls-2" d="M491.82,724.11c.57-6.9,1.13-13.8,1.72-20.7a89.64,89.64,0,0,0,.3-10.23l0,0c.4-.24.32-.64.35-1a10.58,10.58,0,0,1,2.33-4.32c0,6.25-.9,12.45-1.36,18.67-.34,4.43-.79,8.85-1.16,13.28-.05.56-.26,1.21.38,1.63C493.82,722.64,493.21,723.76,491.82,724.11Z" transform="translate(-323.68 118.85)"/><path class="cls-2" d="M452,929.08c-.37.95-.73,1.9-1.1,2.84-1.36.07-1.75-.64-1.63-1.9.16-1.69.22-3.39.33-5.08.83-5.74,1.61-11.48,2.5-17.2.32-2,.21-4.1,1.06-6C453.18,910.86,452.73,920,452,929.08Z" transform="translate(-323.68 118.85)"/><path class="cls-2" d="M522.59,701.16c-3.09,13.4-6.3,26.77-10.18,40,.91-6.5,2.73-12.82,4.13-19.22,1.25-5.75,2.65-11.46,4.05-17.17C520.91,703.4,520.84,701.74,522.59,701.16Z" transform="translate(-323.68 118.85)"/><path class="cls-2" d="M474.38,739c.31-4.71,1.62-9.32,1.41-14.08a11.38,11.38,0,0,1,2.93-5.55q-.93,7.38-1.84,14.75a3.9,3.9,0,0,0,0,2.27v0c-.61.2-.26.48-.06.75C476,737.77,475.61,738.92,474.38,739Z" transform="translate(-323.68 118.85)"/><path class="cls-2" d="M423.75,1101.24q-.11,5.51-.19,11c-.61.21-1.12.71-1.83.57-.21-2.06.28-4.16-.23-6.21C422.36,1104.87,422.44,1102.79,423.75,1101.24Z" transform="translate(-323.68 118.85)"/><path class="cls-2" d="M448.74,1038.23c-.5-.77.29-2.37-1.49-2.34-.16-1.72.23-3,2.34-2.74.17.45.34.9.5,1.34A6.26,6.26,0,0,1,448.74,1038.23Z" transform="translate(-323.68 118.85)"/><path class="cls-2" d="M433.16,1049.1c-.89,0-1.18,1.05-2,1.1a6.52,6.52,0,0,1,.38-3.24l2.43-1.78c.29,1.22-.32,2.3-.48,3.45l-.34.5Z" transform="translate(-323.68 118.85)"/><path class="cls-2" d="M505,764.07a3.72,3.72,0,0,1,.46-1.93C505.48,762.82,505.67,763.54,505,764.07Z" transform="translate(-323.68 118.85)"/><path class="cls-2" d="M483.58,810.45a1.78,1.78,0,0,1-.43,1.83C483.21,811.65,482.94,810.94,483.58,810.45Z" transform="translate(-323.68 118.85)"/><path class="cls-2" d="M631.58,257c.15-.46.29-.92.44-1.38C632,256.07,632.09,256.61,631.58,257Z" transform="translate(-323.68 118.85)"/><polygon class="cls-2" points="98.89 1216.23 99 1216.23 98.94 1216.4 98.89 1216.23"/><path class="cls-2" d="M535.47,619.62c0,.43,0,.86-.49,1.07A1.16,1.16,0,0,1,535.47,619.62Z" transform="translate(-323.68 118.85)"/><path class="cls-2" d="M431.14,1050.13a.77.77,0,0,1-.29.78A.66.66,0,0,1,431.14,1050.13Z" transform="translate(-323.68 118.85)"/><path class="cls-2" d="M549.13,595.12l-.06.23Z" transform="translate(-323.68 118.85)"/><path class="cls-2" d="M517,652.08a.82.82,0,0,1-.49.76C516.63,652.59,516.79,652.33,517,652.08Z" transform="translate(-323.68 118.85)"/><path class="cls-2" d="M436.3,1108.15c.06-.24.15-.45.45-.43Z" transform="translate(-323.68 118.85)"/><path class="cls-2" d="M562.93,666.57a.54.54,0,0,1-.21.41A2.63,2.63,0,0,0,562.93,666.57Z" transform="translate(-323.68 118.85)"/><path class="cls-2" d="M510.73,711.52c0,.32,0,.64-.44.72C510.25,711.88,510.48,711.7,510.73,711.52Z" transform="translate(-323.68 118.85)"/></svg>