<svg id="Layer_1" data-name="Layer 1" xmlns="http://www.w3.org/2000/svg" viewBox="0 0 629.97 1263.95"><defs><style>.cls-1{fill:#6666FF;}</style></defs><path class="cls-1" d="M646.73,591.4a2.27,2.27,0,0,0,2.62-.83c5.55-5.22,11.6-9.86,17.35-14.86,7.73-6.72,15.55-13.35,23.35-20q10.82-9.26,21.65-18.46c10-8.48,20-16.91,29.91-25.41,8.06-6.88,16-13.86,24.08-20.74,7.6-6.5,15.26-12.92,22.86-19.42,1-.86,1.8-1.22,2.77.18-2.31,2.85-5.18,5-7.89,7.3-6.17,5.28-12.4,10.49-18.58,15.75s-12.49,10.64-18.73,16c-5.52,4.72-11,9.47-16.54,14.18q-15,12.8-30.09,25.58c-7.92,6.77-15.67,13.76-23.74,20.36-8.34,6.81-16.21,14.17-24.69,20.82-2.42,1.89-4.61,4.07-6.91,6.13a10.87,10.87,0,0,0-2.74,4.87c-1.64,4.88-4,9.44-6.06,14.15-7.06,16.32-14.31,32.57-21.42,48.88-5,11.36-9.79,22.78-14.73,34.15-4.37,10-9.05,19.94-13.14,30.09-3.27,8.09-7.21,15.88-10.35,24-2.27,5.9-5.14,11.57-7.67,17.37q-8.71,20-17.36,40c-3.28,7.62-6.67,15.19-9.94,22.81-6.4,14.93-13,29.78-19.47,44.69q-9,20.71-18,41.41c-6.18,14.18-12.41,28.35-18.54,42.55-4.27,9.89-8.75,19.68-12.83,29.65a18,18,0,0,0-1.05,5.77c-1,13-1.85,25.94-2.79,38.91-.76,10.41-1.62,20.81-2.35,31.21-.58,8.2-1,16.41-1.54,24.61-.18,2.89-.48,5.78-.75,8.9-3.27,1.06-6.5,2.15-9.74,3.17-6.7,2.09-13.38,4.21-20.11,6.17a3.8,3.8,0,0,0-3,3.33c-1.94,9.29-4,18.56-6,27.84-.29,1.35-.49,2.86-2.87,1.82,1.32-9.88,2.64-19.81,3.95-29.6a3.34,3.34,0,0,0-2.92.12q-23.64,7.34-47.28,14.73c-14.76,4.65-29.49,9.39-44.25,14.07-2,.64-4,1.56-6.46.84a104.51,104.51,0,0,1,.05-10.62c2-19.4,4.29-38.77,6.6-58.13s4.37-38.58,6.6-57.87c2.14-18.44,4.56-36.85,6.47-55.32,1.25-12.17,2.8-24.3,4.1-36.46,1.09-10.2,2.45-20.37,3.62-30.57,1.3-11.3,2.49-22.62,3.8-33.92,2-16.91,4-33.81,6-50.73,1.24-10.79,2.29-21.6,3.51-32.39,1.24-11,2.67-21.9,3.86-32.86S372,723.89,373,713s2.54-21.59,3.75-32.39c1.72-15.39,3.8-30.73,5.25-46.16,1.12-12,2.81-24,4.23-35.92q2-16.56,3.89-33.13c1.58-13.77,3.1-27.54,4.69-41.31s3.37-27.35,4.8-41.05c1.44-13.87,3.19-27.7,4.71-41.55,1.84-16.83,4.1-33.61,5.73-50.47,1.44-15,3.45-29.92,5.25-44.88,1.45-12.06,2.87-24.12,4.12-36.21,1.15-11.23,2.62-22.42,3.92-33.63,1.45-12.4,3-24.8,4.27-37.22,1.59-15.4,3.52-30.77,5.24-46.16,1.51-13.6,3.4-27.16,4.6-40.81.81-9.28,2.14-18.52,3.23-27.77q2-16.56,3.91-33.12c.38-3.22.78-6.44,1.16-9.58a1.55,1.55,0,0,1,2,.05,7.46,7.46,0,0,1,.21,3q.17,74.37.32,148.74.23,85.67.51,171.33.26,84.76.51,169.53.23,65.51.51,131c.19,55.31.26,110.63.56,165.94.11,19.26.11,38.52.21,57.79,0,2.23,0,2.23,1.94,2.76.66-.48.47-1.21.49-1.85.85-24.73,2.3-49.43,3-74.16.21-7.57,1.73-15.11,2.67-22.66,1.46-11.63,2.95-23.25,4.39-34.88q2.88-23.18,5.68-46.35c.15-1.18.23-2.36.39-4.14-4.39,2.29-7,6-10.63,8.39-.81,0-1.13-.61-1.68-1.15,1.89-4.19,4.57-7.87,6.73-11.84,2.49-4.58,5.13-9.08,7.71-13.62a6.37,6.37,0,0,0,.72-2.44c1.66-14,3.26-28,5-42s3.75-28.14,5.45-42.23c1.66-13.84,3.2-27.7,5-41.53,1.72-13.06,3.62-26.11,5-39.21,1.16-11.41,2.83-22.74,4.1-34.13q1.57-14.15,3.62-28.24c1.31-9.15,2.08-18.36,3.26-27.52,2.51-19.6,5.27-39.18,7.45-58.82,1.57-14.2,3.56-28.34,5.18-42.52,1.26-11,2.9-21.87,4.14-32.83Q522,322.58,524,307.18c1.81-14.09,3.78-28.16,5.33-42.28,1.25-11.47,2.83-22.9,4.19-34.36.2-1.7.46-3.38.74-5.43,34.21,7.66,68.24,15.49,102.46,23.56a69.13,69.13,0,0,1-2.07,9c-3.9,15.86-8.12,31.65-12,47.52-2.82,11.64-6.07,23.16-8.75,34.83-2.92,12.76-6.71,25.31-9.64,38.06-2.7,11.76-6.17,23.32-8.86,35.07-2.89,12.6-6.59,25-9.49,37.58-2.76,12-6.28,23.82-9,35.82-2.87,12.52-6.55,24.82-9.41,37.33-2.77,12.09-6.29,24-9.08,36.07-1.74,7.51-3.67,15-5.64,22.4a2.22,2.22,0,0,0,0,2c1,.25,1.14-.56,1.45-1.1q5.17-9,10.3-18c6.52-11.44,13.19-22.8,19.51-34.36,3.77-6.9,7.87-13.6,11.61-20.52,5.41-10,11.32-19.73,17-29.6,4.71-8.24,9.24-16.58,14-24.77q6.64-11.42,13.06-23c4-7.24,8.27-14.37,12.25-21.64,5-9.16,10.38-18.11,15.51-27.2,6.38-11.32,12.83-22.6,19.23-33.91q9.18-16.17,18.34-32.36c6.14-10.86,12.37-21.67,18.5-32.54S735.74,263.8,741.86,253s12.28-21.53,18.39-32.31,12.35-21.7,18.46-32.59c2.76-4.92,5.59-9.8,8.38-14.7,8.12-14.27,16.13-28.59,24.25-42.86,7.6-13.38,15.3-26.7,22.92-40.07q9.4-16.49,18.7-33c6.06-10.82,12.28-21.54,18.38-32.33S883.67,3.41,889.79-7.47,902.08-29.19,908.3-40c8-13.87,15.62-27.9,23.6-41.75,4.36-7.56,8.54-15.21,13-22.73,2.55-4.34,5-8.75,7.48-13.15.38-.68.52-1.75,1.85-1.52.78,1.37.38,2.71-.22,4.06-2.08,4.6-4.33,9.14-6.16,13.83-3.34,8.53-7.53,16.68-10.85,25.21-2.14,5.5-4.78,10.8-7.13,16.21-4.06,9.33-8,18.69-12.1,28C912.22-19.23,906.55-6.68,901.14,6c-3.16,7.4-6.6,14.67-9.71,22.08-6,14.27-12.34,28.39-18.49,42.6S860.65,98.88,854.53,113q-9.42,21.76-18.91,43.52c-5.82,13.41-11.58,26.84-17.49,40.22-6,13.6-11.84,27.3-17.78,40.95-3.27,7.52-6.63,15-9.89,22.54-4.52,10.44-8.94,20.91-13.48,31.34-4.71,10.82-9.76,21.5-14.21,32.43-3.5,8.55-7.59,16.83-10.92,25.45-2.4,6.22-5.53,12.15-8.1,18.31-3,7.1-6.32,14-9.26,21.15-4.63,11.23-9.64,22.29-14.45,33.43-4.48,10.36-8.89,20.75-13.55,31s-8.89,20.55-13.35,30.82c-4.7,10.83-9.52,21.61-14.14,32.47-3,7.09-6.32,14-9.31,21.14-6.18,14.65-12.6,29.2-19,43.75C649.28,584.75,648.08,588,646.73,591.4ZM433.55,1074.51a79.25,79.25,0,0,0,7.54-17.55c2.16-7.54,3.75-15.26,5.29-23,1.21-6,2.31-12,2.19-18.23-.29-16.41-.12-32.84-.14-49.26v-5.18a1.16,1.16,0,0,0-.55,1c-.93,5.14-1.05,10.36-1.76,15.53q-3.27,23.73-6.48,47.47-2.28,16.88-4.39,33.79c-.62,5.08-1.68,10.11-1.81,15.25-.36.22-.46.47-.07.84C433.44,1075,433.5,1074.74,433.55,1074.51ZM638.22,603.08c-3.57,2.38-6.53,5.48-9.8,8.21-9.18,7.66-18.14,15.6-27.32,23.27-5.24,4.38-10.37,8.89-15.62,13.27-9.92,8.26-19.55,16.85-29.35,25.26-9,7.72-17.92,15.59-27.2,23a22.44,22.44,0,0,0-8.53,14.07c-2.87,14.06-6.42,28-9.35,42.05-2.89,13.9-6.4,27.66-9.19,41.6-2.86,14.33-6.5,28.49-9.5,42.8-3.17,15.07-6.81,30-10,45.1-2.46,11.62-5.36,23.11-5.85,35.09-.47,11.79-1.5,23.56-2.32,35.33-.75,10.59-1.55,21.17-2.29,31.76-.05.65-.4,1.44.34,2.13,1.38-1.82,1.68-3.9,2.55-5.74C479.65,970,484,959.46,488.47,949c4.77-11.07,9.64-22.09,14.37-33.17,6.2-14.55,12.72-29,18.88-43.53,6-14.09,12.22-28.06,18.34-42.09s12.54-28.1,18.4-42.33c2.8-6.79,6-13.4,8.84-20.2,3.19-7.74,6.75-15.33,10-23,5.92-13.83,12.06-27.57,18-41.4,6.17-14.38,12.63-28.62,18.73-43,6-14.17,12.34-28.19,18.43-42.32,2.06-4.79,4.51-9.41,6.21-14.35,0-.22.19-.53.09-.64S638.39,602.92,638.22,603.08ZM422.3,1106.6c-2.62.05-2.06-1.48-1.84-2.82,2.61-16,5.73-32,8.19-48.09,2.68-17.49,6.18-34.86,9-52.35,2.27-14.28,5.06-28.49,7.43-42.76,1.69-10.19,3.92-20.34,3.33-30.8-.13-2.22-.16-4.44-.17-6.67q-.27-84.51-.52-169-.22-69.74-.5-139.47-.31-121.89-.53-243.77-.2-85.92-.5-171.84-.12-45.46-.21-90.93c0-.91,0-1.82,0-2.73l-.58,0c-.06.4-.12.81-.17,1.22q-2.11,17.84-4.23,35.68c-2.33,19.88-4.74,39.76-6.9,59.66-1.94,17.78-4.37,35.51-6,53.34-1.18,13.11-3,26.17-4.53,39.26q-3.94,34-7.86,68.08c-2,17.77-4.44,35.5-6.06,53.32-.87,9.54-2.35,19-3.37,28.54-1.91,17.78-4.15,35.51-6.12,53.28-3.51,31.56-7.45,63.07-10.88,94.64-2.39,22-5.37,44-7.59,66-1.57,15.58-3.71,31.11-5.5,46.67-2.24,19.55-4.35,39.12-6.57,58.67-2.11,18.53-4.44,37-6.37,55.57-2.77,26.65-6.45,53.2-9.15,79.86-1.83,18-4.3,36-6.4,54-2.21,19-4.33,37.92-6.48,56.88-1.95,17.27-4.21,34.5-5.9,51.79-1,10-2.37,20-3.55,30.07q-2.55,21.66-5.06,43.34c-.27,2.33-.33,4.69-.53,7.5l100.09-31.36c.63-5.84,1.78-11.41,1.64-17.2C426,1098.33,424.19,1102.42,422.3,1106.6ZM944.73-99.24l-.2-.05c-.51.79-1,1.56-1.51,2.38-5.32,9.45-10.61,18.93-16,28.37-3.16,5.58-6.48,11.06-9.59,16.67-6.36,11.44-12.92,22.75-19.38,34.13-6.25,11-12.45,22-18.7,33-4.91,8.62-10,17.13-14.75,25.84-4,7.43-8.5,14.63-12.46,22.11s-8.45,14.67-12.62,22c-4.6,8.1-9,16.34-13.68,24.37-4.55,7.74-8.91,15.58-13.35,23.38-5.76,10.1-11.43,20.25-17.2,30.34-5.48,9.57-10.9,19.17-16.35,28.75-6.42,11.3-12.91,22.55-19.28,33.88-5,8.87-10.14,17.65-15.16,26.51-4.25,7.51-8.24,15.17-12.68,22.57s-8.42,14.87-12.66,22.29q-7.07,12.36-14,24.79c-6.2,11.12-12.66,22.1-18.88,33.21-6,10.68-12.12,21.25-18.1,31.92-6.48,11.56-13.14,23-19.66,34.56C642.82,432,637,442,631.32,452.17c-6.38,11.31-12.9,22.55-19.25,33.89-5.84,10.44-11.8,20.82-17.7,31.23-6.69,11.83-13.52,23.58-20.12,35.46-2.2,4-4.69,7.77-6.88,11.73-5.17,9.36-10.38,18.69-15.78,27.91-1.11,1.92-2.51,3.72-3,6-2.75,13.06-6.62,25.85-9.68,38.84-4.49,19.07-9.65,38-14.5,57-.22.86-.78,1.72-.21,2.83,1.56-.66,2.58-2,3.79-3q18-15.23,36-30.52c7.68-6.53,15.28-13.16,22.94-19.7q16.29-13.9,32.64-27.75c6.44-5.47,12.65-11.22,19.35-16.41a12.15,12.15,0,0,0,3.81-5c2.91-6.85,5.9-13.66,8.86-20.48,6-13.8,12-27.58,18-41.4,6.05-14.06,12.27-28,18.29-42.12,6.13-14.31,12.47-28.52,18.63-42.81,6.1-14.13,12.38-28.19,18.47-42.32,6.19-14.37,12.68-28.61,18.69-43.06,2.89-7,6.18-13.72,9.08-20.67,4.23-10.19,8.87-20.2,13.21-30.34,4.78-11.16,9.65-22.28,14.45-33.43,6.16-14.29,12.48-28.52,18.65-42.81,6-13.89,12.1-27.74,18.07-41.64,6.25-14.53,12.83-28.92,18.91-43.52,2.89-6.95,6.06-13.77,9.07-20.67q9.38-21.53,18.72-43.05c3.46-8,7-16,10.46-24,5.64-13.12,11.54-26.12,17-39.3,2.43-5.84,5.34-11.49,7.67-17.37,3.34-8.43,7.41-16.53,10.75-25,3-7.55,6.61-14.83,9.73-22.34,2.47-5.92,5.45-11.63,7.8-17.59,3.39-8.59,7.53-16.85,11-25.41C940.22-89.65,942.55-94.41,944.73-99.24ZM536.65,227.88a7.47,7.47,0,0,0-.95,3.41c-1.86,16.4-4.24,32.74-6.08,49.15-2.75,24.49-6.35,48.89-9.09,73.39-2.84,25.33-6.48,50.56-9.47,75.88-3.28,27.62-7.09,55.17-10.26,82.81-2.57,22.35-5.62,44.64-8.33,67-3.91,32.11-8,64.2-11.9,96.31-1.52,12.48-3.33,24.93-4.83,37.41-.32,2.67-1.06,5.4-.6,8.33,1.34-.69,1.69-1.81,2.22-2.73,3.41-5.93,6.82-11.85,10.13-17.83,1.3-2.36,3-4.51,3.11-7.48.58-12,1.56-24.08,2.38-36.12,2.3-33.73,4.92-67.44,7.41-101.16.48-6.4,1-12.8,1.46-19.21.09-1.25.27-2.29,2-1.37-2.93,51.49-7.37,102.81-10.58,154.28a75,75,0,0,0,5.14-8c4.61-8.2,9-16.51,13.79-24.62,6.22-10.62,12.2-21.37,18.26-32.08,4.84-8.57,9.77-17.08,14.7-25.59a23.07,23.07,0,0,0,2.7-6.6C551.1,578,555.58,563.23,559,548.2c2.51-11.09,5.78-22,8.38-33.07,3-12.91,6.78-25.64,9.74-38.58,2.64-11.5,6-22.83,8.69-34.32,3-12.66,6.62-25.16,9.51-37.85,2.67-11.67,6.07-23.16,8.79-34.82,3-12.76,6.6-25.34,9.63-38.09,3.34-14.06,7-28,10.6-42,3.1-12.18,6.46-24.31,9.17-36.59.18-.82.65-1.61.11-2.72ZM452,1006.17a5.27,5.27,0,0,0,1.07-2.45c.94-4.7,2-9.36,3-14,4.5-20.72,9-41.43,13.82-62.08,3.41-14.68,6.48-29.35,7-44.5.31-9.49,1.32-19,2-28.42q1.71-23,3.43-46.07c.7-9.39,1.25-18.78,1.8-28.18.87-14.68,2.2-29.34,3.3-44a14.35,14.35,0,0,0-.12-5c-4.32,4.45-9,7.72-13.26,11.52a7,7,0,0,0-2.45,4.79c-2.19,18.77-4.85,37.49-6.84,56.28-1.25,11.9-3,23.76-4.47,35.63-.67,5.25-1.79,10.49-2,15.76-.65,16.16-1.57,32.3-2.07,48.46-.57,18.48-1.47,37-2.2,55.42-.39,10-.93,20-1.37,30C452.37,994.77,452.19,1000.23,452,1006.17ZM479.1,883.85c13.83-59.76,26.65-119.56,40.36-179.24a2.49,2.49,0,0,0-.73.25q-13.83,11.86-27.65,23.73a3.24,3.24,0,0,0-1.11,2.46q-1,14.46-2.08,28.93c-.9,12.29-1.83,24.58-2.69,36.87-1,15-2,30-3,45.06-.55,7.94-1.22,15.86-1.81,23.79C479.92,871.75,479.52,877.8,479.1,883.85ZM544.18,607.1c-1.13,0-1.23.69-1.54,1.16-1.61,2.43-2.85,5.06-4.26,7.59-6,10.66-12.07,21.26-18.13,31.88q-10.79,18.93-21.6,37.86-2.41,4.24-4.9,8.43a9.17,9.17,0,0,0-1.31,4.11c-.6,8.1-1.26,16.2-1.84,24.3-.07,1-.5,2.15.47,3.37a82.45,82.45,0,0,1,6.61-5.82c7.34-6.13,14.38-12.63,21.93-18.52a3.34,3.34,0,0,0,1.26-1.86c1.5-6.05,3.13-12.08,4.61-18.14,4.8-19.68,10.18-39.22,14.79-59C541.46,617.44,542.83,612.42,544.18,607.1Zm-82.95,493.22c2.77-32.68,4.5-65.08,6.55-97.51a10.34,10.34,0,0,0-1.84,3.18c-3.57,9.44-8,18.52-12,27.79-3.47,8.08-6.88,16.2-10.48,24.23a12.17,12.17,0,0,0-.71,2.19q-4.86,21.65-9.65,43.31a26,26,0,0,0-1.07,6.2ZM445.78,1047a10.59,10.59,0,0,0,.69-1.08c3.22-8.66,7.42-16.9,10.94-25.43,3.46-8.37,7.19-16.63,10.8-24.94a7.26,7.26,0,0,0,.76-2.43q1.27-17.53,2.58-35.06c.62-8.35,1.36-16.71,1.86-25.07.24-4,.91-8.06.65-12.23-.24.15-.37.19-.38.24-2.79,12.87-5.9,25.66-8.57,38.55-3.34,16.15-7.31,32.17-10.76,48.31-1.65,7.68-3.93,15.25-3.49,23.24a2.68,2.68,0,0,1-.51,2c-.28.4-1.17-.06-1.75.57C447.25,1037.8,446.86,1042.22,445.78,1047ZM489.9,701.86a12,12,0,0,0-2.84,4c-3.49,6.27-6.7,12.71-10.67,18.69-3.33,5-2.95,10.66-3.88,16.16.42,0,.64.06.74,0,5-3.61,9.2-8.15,14.14-11.81.66-.49.59-1.18.65-1.85.25-3.15.54-6.3.77-9.45C489.18,712.51,489.52,707.43,489.9,701.86ZM440,1004c-5.4,30.65-10.94,61.27-15.62,92.06,2.24-4.22,4.69-8.46,5.44-13.13,1.85-11.38,3.22-22.83,4.75-34.26,1.46-11,2.94-22,4.3-33C439.31,1011.72,440.15,1007.89,440,1004Zm-11.32,106.47c1.43-2.16,8.83-35.2,8.47-37.73l-4.67,10.41a10.68,10.68,0,0,0-.91,2.92c-.79,6.09-1.71,12.16-2.42,18.26C428.88,1106.23,428.21,1108.19,428.64,1110.42Zm33.67-360.57c6.9-4.28,9.48-9,8.3-14.68C467.5,739.73,465.18,744.8,462.31,749.85ZM450.62,967.27h.8l1.38-33.36-.85,0C449.63,944.94,451.05,956.14,450.62,967.27Zm-10.27,35.45a1.83,1.83,0,0,0,.09-1.89A1.91,1.91,0,0,0,440.35,1002.72ZM552.48,584.85c-.38.3-.49.6,0,.93C552.83,585.48,553,585.17,552.48,584.85ZM544.19,606s-.13.08-.14.13.07.12.11.17.12-.09.13-.14S544.22,606.06,544.19,606ZM474.89,722.1c-.05,0-.13.1-.13.16s.07.11.11.17.13-.1.13-.16S474.93,722.16,474.89,722.1Z" transform="translate(-324.66 119.2)"/></svg>