<?xml version="1.0" standalone="no"?>
<!DOCTYPE svg PUBLIC "-//W3C//DTD SVG 20010904//EN"
 "http://www.w3.org/TR/2001/REC-SVG-20010904/DTD/svg10.dtd">
<svg version="1.0" xmlns="http://www.w3.org/2000/svg"
 width="1088.000000pt" height="1088.000000pt" viewBox="0 0 1088.000000 1088.000000"
 preserveAspectRatio="xMidYMid meet">
<metadata>
Created by potrace 1.11, written by Peter Selinger 2001-2013
</metadata>
<g transform="translate(0.000000,1088.000000) scale(0.100000,-0.100000)"
fill="#000000" stroke="none">
<path d="M4690 8290 c-10 -13 -21 -18 -37 -14 -13 4 -30 1 -38 -6 -9 -7 -24
-13 -34 -14 -11 0 -33 -19 -51 -40 -17 -22 -38 -41 -47 -42 -9 -2 -27 -5 -39
-8 -13 -4 -25 -2 -29 4 -3 6 -15 6 -30 0 -14 -5 -52 -6 -88 -2 -40 5 -93 3
-147 -6 -47 -7 -167 -14 -267 -15 -100 -1 -184 -5 -188 -9 -4 -4 -18 -3 -31 2
-13 5 -26 6 -28 1 -3 -4 -20 -6 -38 -4 -65 7 -153 3 -186 -8 -20 -7 -128 -12
-261 -14 -124 -1 -296 -6 -381 -11 -85 -4 -186 -8 -225 -9 -40 0 -73 -5 -77
-11 -4 -7 -25 -9 -50 -7 -71 7 -106 7 -278 -1 -289 -13 -344 -16 -365 -23 -20
-6 -90 -14 -132 -13 -12 0 -24 -4 -27 -9 -3 -5 -26 -4 -52 2 -33 8 -47 8 -53
-1 -9 -15 -111 -32 -263 -45 -10 -1 -18 -4 -18 -8 0 -4 -12 -10 -27 -14 -16
-3 -41 -20 -56 -37 -15 -16 -33 -28 -40 -25 -8 3 -18 -8 -26 -27 -7 -17 -16
-38 -22 -46 -30 -49 -35 -69 -31 -113 3 -41 7 -47 23 -42 14 5 20 0 25 -22 11
-45 33 -83 50 -83 8 0 17 -6 19 -12 4 -9 29 -13 83 -12 103 1 234 13 247 23 5
4 25 8 44 9 19 2 39 6 45 9 6 4 27 8 46 9 38 2 99 10 140 19 47 10 95 16 160
21 36 2 106 8 155 13 50 5 102 7 117 5 15 -2 30 1 33 5 2 5 24 7 47 6 24 -2
47 0 52 3 5 3 48 7 95 8 47 1 124 5 171 8 47 4 145 9 219 11 73 3 139 9 146
15 6 5 15 7 18 4 3 -4 14 -3 24 2 18 8 112 13 203 11 91 -2 106 -1 140 7 19 4
100 8 180 9 80 1 151 6 159 11 16 10 39 13 163 16 49 1 91 6 94 11 3 5 9 7 15
4 8 -6 88 -9 99 -5 7 2 131 10 235 14 87 3 225 20 251 30 8 3 16 1 20 -5 3 -6
19 -7 35 -4 25 6 29 4 29 -14 0 -12 4 -21 10 -21 5 0 16 -16 24 -35 8 -19 20
-40 25 -47 37 -44 101 -141 124 -188 27 -55 47 -91 57 -100 7 -6 32 -67 56
-133 10 -27 24 -51 31 -54 20 -8 63 -110 62 -147 0 -5 10 -14 23 -20 13 -6 23
-18 23 -26 1 -28 17 -65 39 -85 28 -26 76 -101 76 -118 0 -8 8 -25 19 -38 10
-13 28 -53 39 -89 29 -91 59 -157 77 -164 8 -3 15 -11 15 -19 0 -15 36 -88 47
-96 10 -7 51 -104 65 -151 6 -19 14 -39 18 -45 4 -5 13 -28 20 -50 7 -22 21
-54 31 -71 70 -125 93 -182 80 -198 -9 -11 -8 -15 4 -20 9 -3 13 -11 10 -17
-4 -6 2 -29 13 -52 39 -82 52 -115 52 -136 0 -12 4 -21 10 -21 5 0 14 -19 20
-42 6 -24 25 -77 41 -118 17 -41 37 -93 45 -115 8 -22 21 -52 29 -67 8 -14 15
-32 15 -40 0 -7 7 -25 14 -40 8 -16 17 -40 20 -55 11 -55 28 -119 41 -148 8
-16 16 -48 20 -70 4 -21 13 -51 20 -65 7 -14 17 -44 20 -65 4 -22 12 -45 17
-51 5 -7 8 -16 6 -20 -1 -5 2 -27 6 -49 22 -123 23 -333 1 -430 -19 -85 -30
-109 -72 -158 -18 -20 -33 -48 -33 -62 0 -14 -8 -29 -19 -35 -11 -5 -23 -19
-26 -30 -3 -11 -15 -20 -26 -20 -10 0 -19 -6 -19 -13 0 -8 -9 -24 -20 -37 -11
-13 -20 -26 -20 -31 0 -4 -16 -17 -36 -28 -20 -12 -38 -30 -41 -41 -3 -10 -18
-23 -34 -29 -17 -6 -33 -21 -40 -38 -13 -34 -26 -43 -62 -43 -16 0 -30 -7 -34
-16 -3 -8 -15 -14 -27 -13 -42 4 -162 -35 -170 -56 -8 -22 -67 -47 -82 -34
-10 8 -19 5 -35 -9 -11 -11 -34 -26 -50 -32 -16 -7 -29 -16 -29 -21 0 -4 -17
-11 -37 -14 -21 -3 -46 -11 -57 -16 -10 -6 -59 -12 -110 -14 -50 -1 -117 -10
-148 -20 -59 -17 -126 -13 -140 9 -6 8 -11 7 -17 -3 -5 -7 -13 -11 -18 -8 -5
3 -10 -4 -10 -15 -2 -25 -1 -24 -40 -33 -25 -5 -33 -3 -33 7 0 8 -8 14 -17 15
-50 2 -80 3 -95 3 -10 0 -24 1 -30 1 -7 1 -33 -1 -58 -4 -25 -4 -81 -2 -125 4
-44 6 -98 13 -120 14 -22 2 -51 5 -65 9 -14 3 -63 8 -110 10 -47 3 -103 10
-125 16 -40 10 -177 38 -224 45 -14 2 -34 8 -45 14 -12 5 -60 21 -107 35 -48
14 -92 33 -99 41 -7 8 -19 15 -26 15 -8 0 -22 4 -32 10 -9 5 -35 16 -57 26
-73 30 -106 49 -151 86 -24 20 -64 49 -89 65 -25 15 -48 38 -51 51 -4 13 -14
22 -25 22 -10 0 -19 3 -19 8 0 4 -18 27 -40 51 -22 25 -40 48 -40 53 0 5 -11
24 -25 42 -14 18 -25 36 -25 39 0 4 -12 32 -26 63 -14 31 -24 65 -21 75 3 10
-1 23 -9 30 -19 15 -18 116 0 160 18 42 46 72 98 105 37 23 101 51 138 59 8 2
15 4 15 6 0 1 9 3 20 5 98 18 144 30 210 59 42 18 79 29 88 27 4 -1 7 1 7 6 0
4 17 8 38 10 20 1 60 4 87 7 28 3 59 5 70 5 10 1 24 5 30 10 26 22 148 29 520
30 231 1 327 -3 365 -16 8 -3 56 -7 105 -10 50 -2 106 -7 125 -11 42 -7 44 -8
140 -18 41 -5 77 -9 80 -10 3 -1 29 -5 58 -9 28 -4 52 -12 52 -18 0 -5 3 -7 8
-4 4 2 54 -4 112 -14 57 -11 106 -17 109 -15 2 3 9 1 15 -5 7 -5 31 -10 54
-11 23 -2 42 -6 42 -10 0 -9 57 -18 155 -25 44 -4 95 -13 113 -22 18 -8 51
-15 73 -15 25 0 43 -5 46 -13 9 -23 21 -16 25 14 2 22 7 27 28 25 14 -2 59 -4
100 -6 41 -2 89 -7 105 -12 27 -7 29 -7 17 8 -8 9 -28 17 -45 19 -24 2 -33 8
-35 26 -2 12 -9 22 -16 22 -7 0 -23 11 -36 25 -13 14 -29 25 -37 25 -7 0 -13
11 -13 24 0 19 -7 26 -30 31 -30 7 -38 19 -20 30 6 3 10 12 9 18 0 9 -2 9 -6
0 -3 -8 -10 -9 -21 -3 -9 5 -25 11 -34 14 -10 3 -18 13 -18 22 0 22 -41 64
-62 64 -24 0 -105 20 -152 37 -30 11 -46 11 -73 2 -26 -8 -38 -8 -46 0 -16 16
-52 14 -67 -3 -14 -17 -41 -10 -34 9 4 9 -2 11 -20 8 -15 -3 -26 -1 -26 5 0 6
-19 16 -42 23 -24 6 -55 17 -69 25 -14 7 -59 14 -100 15 -57 2 -78 7 -92 21
-17 17 -48 22 -111 18 -16 -1 -32 3 -35 9 -4 6 -52 13 -107 16 -54 3 -107 8
-116 11 -10 3 -18 1 -18 -5 0 -15 -128 -5 -154 13 -17 11 -32 12 -67 5 -24 -6
-56 -10 -71 -10 -39 1 -45 1 -113 0 -75 0 -202 9 -226 16 -11 4 -19 3 -19 -2
0 -4 -48 -8 -107 -9 -156 0 -295 -15 -394 -41 -19 -5 -60 -8 -92 -7 -32 1 -73
-2 -90 -8 -18 -5 -39 -11 -47 -13 -8 -2 -15 -4 -15 -5 0 -1 -11 -3 -25 -5 -81
-11 -114 -19 -195 -50 -49 -19 -101 -35 -115 -37 -14 -2 -24 -9 -23 -15 5 -22
-47 -52 -84 -49 -31 2 -43 -4 -88 -48 -29 -28 -56 -61 -59 -73 -4 -13 -13 -29
-20 -35 -18 -19 -66 -108 -66 -124 0 -7 -6 -19 -13 -26 -8 -7 -16 -20 -20 -28
-3 -9 -6 -2 -7 15 -2 26 -4 24 -16 -20 -17 -56 -12 -262 6 -325 6 -19 12 -71
15 -115 2 -47 11 -94 20 -113 9 -18 18 -38 19 -45 2 -7 8 -25 14 -40 7 -16 12
-32 12 -35 0 -4 9 -14 20 -22 11 -8 20 -22 20 -31 0 -9 10 -27 22 -41 13 -14
30 -35 38 -48 25 -38 136 -140 163 -149 6 -2 20 -13 32 -23 11 -11 45 -38 75
-61 30 -23 63 -49 73 -59 10 -10 24 -18 32 -18 8 0 15 -4 15 -9 0 -4 30 -13
67 -19 54 -9 72 -17 86 -37 10 -14 27 -25 37 -25 11 0 23 -7 28 -16 5 -9 20
-18 33 -20 73 -10 108 -19 143 -36 21 -11 56 -21 78 -23 22 -2 48 -10 57 -18
9 -7 32 -14 51 -16 19 -1 42 -9 52 -18 10 -9 21 -13 24 -10 4 3 15 2 26 -4 11
-6 34 -11 51 -11 18 0 37 -4 42 -9 6 -4 33 -10 60 -13 28 -2 70 -8 95 -12 25
-4 78 -7 118 -8 39 0 72 -3 72 -6 0 -9 20 -10 225 -15 237 -5 239 -5 304 -5
29 0 58 -3 62 -6 5 -3 9 -2 9 3 0 4 19 8 43 9 23 0 62 4 87 8 46 8 64 10 159
21 30 3 93 16 140 29 48 14 99 24 114 24 15 0 35 6 45 14 19 17 74 40 88 37 5
-1 11 0 14 1 3 1 19 4 35 6 17 3 43 12 59 20 16 8 38 14 48 14 11 0 32 6 46
14 36 19 65 30 76 27 5 -1 12 2 15 7 7 10 135 72 150 72 5 0 12 7 15 15 3 9
11 15 18 13 16 -3 68 30 91 60 10 12 22 20 27 17 9 -5 58 36 163 137 38 38 72
68 76 68 8 0 41 38 41 47 0 3 11 21 25 39 14 18 25 37 25 43 0 6 5 11 10 11 6
0 10 6 10 14 0 8 11 28 25 44 14 17 25 37 25 46 0 9 4 16 10 16 5 0 9 3 8 8
-1 4 8 29 20 55 12 27 22 57 22 67 0 10 4 20 9 22 12 4 21 56 26 148 4 68 21
137 36 150 25 20 29 252 5 279 -20 23 -29 77 -17 99 8 14 5 32 -9 69 -10 27
-24 77 -30 112 -6 35 -15 71 -20 80 -15 27 -38 113 -45 166 -4 28 -10 55 -13
60 -4 6 -7 16 -8 23 -1 6 -11 31 -22 55 -16 34 -44 116 -48 137 -4 22 -18 66
-23 70 -14 11 -41 60 -41 75 0 9 -7 32 -17 53 -9 20 -17 39 -18 42 -9 34 -20
58 -32 71 -8 9 -15 29 -17 43 -1 14 -6 29 -9 33 -4 3 -7 12 -7 19 0 7 -13 34
-29 59 -17 27 -27 54 -24 65 3 11 1 20 -4 20 -6 0 -18 19 -29 43 -10 23 -28
58 -39 77 -12 19 -25 52 -28 74 -3 21 -13 46 -22 56 -8 9 -15 22 -15 29 0 7
-11 36 -24 64 -14 29 -34 75 -44 102 -11 28 -27 64 -36 80 -9 17 -16 38 -16
47 0 9 -7 21 -16 26 -9 5 -16 13 -16 18 -1 14 -8 37 -19 56 -5 10 -9 29 -9 43
0 14 -7 28 -15 31 -8 4 -15 12 -15 19 0 7 -16 41 -35 75 -19 34 -35 64 -35 67
0 11 -59 135 -94 199 -12 22 -20 46 -18 52 2 7 -1 12 -7 12 -6 0 -11 9 -11 20
0 11 -4 20 -8 20 -5 0 -19 21 -32 48 -13 26 -26 49 -29 52 -14 12 -41 74 -41
94 0 12 -11 33 -25 46 -14 13 -25 28 -25 32 0 5 -7 16 -15 25 -8 8 -13 18 -10
23 3 4 -2 13 -10 20 -8 7 -15 23 -15 36 0 12 -4 26 -10 29 -5 3 -21 30 -34 60
-14 29 -29 56 -35 59 -10 7 -43 67 -39 72 2 1 50 5 108 8 113 6 130 8 173 25
28 11 201 23 315 23 34 -1 62 3 62 8 0 4 18 3 41 -3 25 -6 44 -6 48 -1 3 5 47
10 96 11 50 1 110 5 135 9 25 3 90 6 145 5 184 -4 255 -2 274 8 35 19 204 30
237 16 23 -10 65 -7 80 6 6 5 14 5 18 1 4 -4 31 -8 59 -9 84 -3 86 -3 100 -3
6 0 39 -2 72 -3 33 -2 64 -1 69 1 12 7 625 7 631 0 3 -2 26 -3 52 -1 27 1 116
3 198 3 83 0 184 0 225 1 112 3 110 3 185 -5 39 -4 144 -9 235 -12 91 -3 183
-7 205 -9 22 -3 47 -5 55 -4 8 0 67 1 130 2 63 1 124 -2 135 -7 11 -6 71 -10
133 -11 l114 -1 -6 26 c-4 23 0 29 31 44 l36 17 -22 23 c-22 23 -27 51 -12 60
10 7 3 44 -12 63 -5 7 -6 24 -3 38 5 20 1 27 -26 41 -18 10 -46 19 -63 20 -16
1 -61 5 -100 9 -38 3 -74 10 -80 15 -6 5 -17 5 -25 0 -20 -13 -43 -13 -35 0 7
11 -28 14 -39 3 -11 -11 -48 -14 -60 -5 -6 5 -47 8 -91 7 -47 -1 -90 3 -105
10 -16 8 -33 9 -48 4 -24 -9 -97 -7 -107 3 -3 3 -25 1 -47 -4 -23 -5 -44 -5
-47 -1 -9 12 -121 15 -135 4 -6 -6 -43 -8 -81 -5 -72 5 -179 6 -345 3 -147 -3
-300 3 -306 12 -3 6 -169 5 -169 -1 0 -2 -66 -2 -160 1 -38 1 -99 -4 -135 -10
-36 -6 -69 -12 -75 -12 -21 -3 -261 24 -280 31 -35 12 -176 -8 -213 -31 -15
-9 -24 -10 -34 -2 -7 6 -39 9 -70 8 -32 -2 -58 0 -58 3 0 8 -28 11 -110 13
-30 0 -58 6 -62 12 -6 9 -11 8 -18 -3 -7 -11 -12 -12 -21 -3 -7 7 -20 8 -33 4
-11 -5 -66 -9 -120 -10 -55 -1 -103 -4 -107 -7 -4 -2 -62 -6 -129 -9 -96 -3
-126 -7 -141 -21 -11 -10 -27 -14 -41 -11 -12 4 -28 1 -35 -5 -10 -8 -17 -8
-25 0 -17 17 -83 15 -98 -3 -13 -16 -72 -14 -94 4 -11 8 -41 8 -216 -4 -156
-11 -183 -11 -229 -4 -24 3 -61 2 -83 -4 -34 -9 -42 -7 -63 13 -13 13 -23 32
-22 44 1 13 -4 21 -13 21 -8 0 -23 8 -32 18 -25 24 -89 23 -108 -3z m-673
-3242 c-3 -8 -6 -5 -6 6 -1 11 2 17 5 13 3 -3 4 -12 1 -19z m1343 -220 c0 -4
-4 -8 -9 -8 -6 0 -12 4 -15 8 -3 5 1 9 9 9 8 0 15 -4 15 -9z m195 -238 c3 -5
1 -10 -4 -10 -6 0 -11 5 -11 10 0 6 2 10 4 10 3 0 8 -4 11 -10z m42 -16 c-3
-3 -12 -4 -19 -1 -8 3 -5 6 6 6 11 1 17 -2 13 -5z"/>
<path d="M7040 7575 c0 -17 -55 -22 -65 -5 -11 17 -23 11 -29 -15 -4 -16 -13
-25 -26 -25 -11 0 -20 -6 -20 -13 0 -7 -14 -18 -30 -24 -25 -9 -30 -17 -28
-40 1 -15 -4 -39 -12 -53 -8 -15 -15 -64 -16 -120 -2 -52 -7 -117 -13 -145
-24 -123 -33 -183 -37 -225 -2 -25 -10 -76 -19 -115 -8 -38 -17 -106 -20 -150
-9 -120 -12 -152 -24 -245 -6 -47 -13 -105 -16 -130 -3 -25 -12 -88 -20 -140
-8 -52 -17 -122 -19 -155 -3 -33 -9 -89 -15 -125 -5 -36 -12 -94 -15 -130 -3
-36 -7 -72 -10 -80 -3 -8 -8 -37 -10 -65 -10 -99 -16 -141 -23 -170 -4 -16 -7
-32 -8 -35 -1 -3 -5 -39 -9 -80 -4 -41 -16 -142 -27 -225 -11 -82 -21 -185
-24 -228 -2 -43 -9 -94 -15 -112 -6 -18 -9 -46 -7 -61 2 -15 0 -49 -4 -76 -5
-27 -9 -77 -10 -111 -1 -34 -4 -66 -7 -71 -3 -6 -6 -19 -7 -30 -1 -12 -5 -70
-10 -131 -12 -158 -13 -428 -2 -443 5 -6 7 -34 3 -61 -4 -31 -3 -52 4 -56 6
-3 10 -18 10 -33 -1 -46 17 -152 28 -165 13 -16 56 -157 49 -163 -3 -3 4 -30
14 -59 10 -30 19 -63 19 -74 0 -22 31 -81 43 -81 4 0 7 -8 7 -18 0 -10 6 -27
14 -37 12 -17 17 -18 37 -7 28 14 61 10 67 -8 16 -46 81 -68 100 -34 6 12 18
15 36 12 14 -3 26 -1 26 3 0 5 5 9 11 9 13 0 48 40 49 55 0 6 -9 28 -20 50
-13 26 -18 50 -14 70 3 20 -2 47 -17 80 -22 52 -39 105 -43 140 -2 11 -11 38
-20 60 -9 22 -19 69 -21 105 -2 36 -8 86 -13 112 -5 25 -6 67 -2 92 4 26 3 49
-1 52 -4 2 -8 57 -9 122 0 64 -1 124 -1 132 0 8 3 58 6 110 4 52 7 122 8 155
1 33 5 62 9 65 4 3 9 30 12 60 3 30 10 80 16 110 12 66 17 111 26 210 8 103
11 120 24 135 8 10 8 15 0 20 -12 7 -8 110 8 226 5 31 5 65 1 76 -4 11 1 34
13 58 14 28 21 67 23 130 6 119 16 218 23 230 4 6 7 33 9 60 1 28 4 60 7 72 2
12 6 62 7 112 2 50 7 91 12 91 5 0 7 6 4 13 -2 6 -1 19 4 28 4 8 13 65 19 125
7 60 16 114 22 121 5 7 7 17 3 22 -3 6 -1 21 6 33 7 12 14 37 15 56 2 18 6 36
9 41 9 16 45 0 45 -20 0 -11 5 -19 10 -19 6 0 10 -6 10 -13 0 -7 8 -24 17 -37
10 -14 19 -34 20 -45 2 -11 9 -36 17 -55 8 -19 18 -53 24 -75 6 -22 18 -64 26
-94 9 -29 16 -61 16 -70 0 -9 5 -22 10 -27 6 -6 17 -35 25 -65 17 -59 46 -168
49 -184 1 -5 5 -16 9 -22 4 -7 10 -26 12 -43 7 -57 27 -145 35 -155 5 -6 11
-22 13 -35 2 -14 8 -33 12 -43 4 -10 9 -26 10 -35 1 -10 4 -24 7 -32 12 -32
28 -98 28 -116 0 -11 7 -32 15 -48 8 -15 15 -44 15 -62 0 -19 4 -34 9 -34 5 0
16 -41 26 -91 9 -49 25 -118 36 -151 10 -33 19 -71 19 -83 0 -12 15 -60 34
-106 18 -46 38 -106 44 -134 7 -27 18 -71 26 -97 8 -27 12 -48 9 -48 -3 0 1
-8 9 -17 8 -10 23 -54 33 -98 9 -44 26 -105 35 -135 10 -30 22 -73 25 -95 4
-22 10 -44 13 -50 3 -5 7 -16 8 -25 4 -24 29 -104 80 -250 25 -74 57 -171 69
-215 23 -82 51 -165 91 -270 26 -70 68 -203 70 -225 1 -8 11 -42 23 -75 11
-32 21 -69 21 -80 0 -11 7 -31 16 -44 10 -13 19 -42 21 -64 2 -22 7 -45 13
-51 5 -7 10 -35 11 -64 2 -29 6 -55 10 -57 4 -3 10 -31 14 -62 4 -32 13 -66
21 -77 8 -11 14 -28 14 -36 0 -40 126 -98 153 -71 16 16 22 14 35 -14 14 -31
32 -32 32 -2 0 12 8 32 18 45 17 22 19 22 47 8 17 -9 35 -16 41 -16 13 0 37
76 29 91 -4 5 1 26 10 46 24 50 15 209 -14 258 -11 20 -17 43 -14 59 3 14 0
33 -7 41 -7 9 -10 18 -7 22 4 3 3 11 -2 17 -5 6 -14 36 -21 66 -7 30 -16 60
-20 65 -5 6 -12 28 -16 50 -8 45 -37 132 -47 142 -4 3 -7 14 -7 23 0 8 -9 33
-19 54 -11 21 -17 44 -15 51 3 7 -1 26 -9 42 -9 16 -22 53 -30 83 -18 63 -36
117 -48 142 -5 10 -9 28 -9 40 0 13 -7 35 -14 51 -8 15 -22 55 -31 89 -8 34
-22 70 -31 79 -8 9 -16 33 -18 53 -2 20 -6 39 -10 43 -3 3 -6 16 -6 27 0 12
-6 33 -14 47 -7 14 -16 47 -20 72 -4 26 -11 49 -15 51 -4 3 -8 19 -9 37 0 17
-7 38 -16 48 -8 9 -17 34 -21 56 -4 22 -14 51 -22 64 -11 17 -12 25 -4 31 8 4
5 14 -9 32 -11 15 -20 37 -20 51 0 13 -12 51 -26 83 -15 33 -28 73 -30 89 -8
85 -32 176 -49 190 -7 6 -15 30 -19 55 -4 25 -9 61 -12 80 -3 19 -13 50 -21
67 -8 18 -13 39 -10 46 4 12 -40 209 -56 247 -13 31 -35 107 -46 155 -6 28
-14 64 -17 80 -9 39 -12 52 -19 102 -3 24 -10 45 -15 48 -4 3 -11 24 -15 48
-4 23 -16 58 -26 77 -11 19 -22 49 -25 67 -3 18 -10 36 -15 39 -5 3 -9 20 -9
37 -1 18 -7 43 -14 56 -7 13 -11 32 -9 42 3 9 -2 28 -11 40 -8 13 -17 35 -20
49 -2 14 -14 59 -25 100 -11 41 -22 92 -24 113 -2 22 -8 42 -13 45 -10 8 -25
38 -44 90 -10 25 -10 36 -1 45 15 15 14 27 -4 27 -16 0 -41 52 -56 120 -6 24
-13 49 -17 55 -4 5 -14 28 -21 50 -8 22 -18 43 -24 47 -6 3 -11 19 -12 35 -3
35 -32 137 -51 180 -8 18 -17 50 -19 70 -4 34 -30 104 -57 157 -5 10 -11 37
-13 61 -4 53 -13 85 -26 85 -5 0 -9 11 -9 24 0 17 -7 27 -22 32 -13 3 -31 14
-40 24 -21 22 -88 36 -98 20 -6 -9 -13 -9 -29 -1 -17 10 -21 9 -21 -4z"/>
<path d="M6870 3720 c0 -5 5 -10 10 -10 6 0 10 5 10 10 0 6 -4 10 -10 10 -5 0
-10 -4 -10 -10z"/>
<path d="M6755 2951 c-3 -5 -1 -12 5 -16 5 -3 10 1 10 9 0 18 -6 21 -15 7z"/>
</g>
</svg>
